<?xml version="1.0" standalone="no"?>
<!DOCTYPE svg PUBLIC "-//W3C//DTD SVG 1.1//EN" "http://www.w3.org/Graphics/SVG/1.1/DTD/svg11.dtd" >
<svg xmlns="http://www.w3.org/2000/svg" xmlns:xlink="http://www.w3.org/1999/xlink" version="1.1">
<metadata>
Created by FontForge 20190801 at Mon Feb  4 11:11:34 2019
 By Jimmy Wärting
Copyright \(c\) 2019 by Adam Ladd. All rights reserved.
</metadata>
<defs>
<font id="Konnect-Light" horiz-adv-x="663" >
  <font-face 
    font-family="Konnect Light"
    font-weight="300"
    font-stretch="normal"
    units-per-em="1000"
    panose-1="0 0 4 0 0 0 0 0 0 0"
    ascent="780"
    descent="-220"
    x-height="510"
    cap-height="690"
    bbox="-675 -256 1285 912"
    underline-thickness="36"
    underline-position="-100"
    stemh="56"
    stemv="58"
    unicode-range="U+0020-FB02"
  />
<missing-glyph horiz-adv-x="500" 
d="M410 780v-1000h-317v1000h317zM333 713h-165v-33h65v-37h-66v-33h166v33h-66v37h66v33zM267 584h-100v-104h166v34h-66v70zM233 550v-36h-33v36h33zM333 453h-166v-33h66v-37h-66v-33h100v70h66v33zM333 393h-33v-66h-133v-34h166v100zM333 271h-100v-56h34v23h33v-47
h-100v80h-33v-113h166v113zM333 98h-166v-113h166v113zM300 65v-47h-100v47h100zM333 -38h-166v-33h70l-70 -47v-33h166v33h-102l70 47h32v33z" />
    <glyph glyph-name="fi" unicode="fi" horiz-adv-x="570" 
d="M491 510v-510h-58v457h-237v-457h-58v457h-100v53h100v44c0 121 68 169 188 169v-54c-81 0 -130 -32 -130 -118v-41h295zM462 713c23 0 42 -18 42 -41c0 -24 -19 -42 -42 -42c-24 0 -43 18 -43 42c0 23 19 41 43 41z" />
    <glyph glyph-name="fl" unicode="fl" horiz-adv-x="582" 
d="M138 554c0 121 69 169 190 169v-54c-82 0 -132 -32 -132 -118v-41h132v-53h-132v-457h-58v457h-100v53h100v44zM444 720h58v-720h-58v720z" />
    <glyph glyph-name="f_f.liga" unicode="ff" horiz-adv-x="676" 
d="M640 669c-82 0 -132 -32 -132 -118v-41h132v-53h-132v-457h-58v457h-254v-457h-58v457h-100v53h100v44c0 121 69 169 190 169v-54c-82 0 -132 -32 -132 -118v-41h254v44c0 121 69 169 190 169v-54z" />
    <glyph glyph-name="f_f_i.liga" unicode="ffi" horiz-adv-x="882" 
d="M802 510v-510h-58v457h-236v-457h-58v457h-254v-457h-58v457h-100v53h100v44c0 121 69 169 190 169v-54c-82 0 -132 -32 -132 -118v-41h254v44c0 121 68 169 188 169v-54c-81 0 -130 -32 -130 -118v-41h294zM773 713c24 0 43 -18 43 -41c0 -24 -19 -42 -43 -42
c-23 0 -42 18 -42 42c0 23 19 41 42 41z" />
    <glyph glyph-name="f_f_l.liga" unicode="ffl" horiz-adv-x="898" 
d="M450 554c0 121 69 169 190 169v-54c-82 0 -132 -32 -132 -118v-41h132v-53h-132v-457h-58v457h-254v-457h-58v457h-100v53h100v44c0 121 69 169 190 169v-54c-82 0 -132 -32 -132 -118v-41h254v44zM760 720h58v-720h-58v720z" />
    <glyph glyph-name=".notdef" horiz-adv-x="500" 
d="M410 780v-1000h-317v1000h317zM333 713h-165v-33h65v-37h-66v-33h166v33h-66v37h66v33zM267 584h-100v-104h166v34h-66v70zM233 550v-36h-33v36h33zM333 453h-166v-33h66v-37h-66v-33h100v70h66v33zM333 393h-33v-66h-133v-34h166v100zM333 271h-100v-56h34v23h33v-47
h-100v80h-33v-113h166v113zM333 98h-166v-113h166v113zM300 65v-47h-100v47h100zM333 -38h-166v-33h70l-70 -47v-33h166v33h-102l70 47h32v33z" />
    <glyph glyph-name="A" unicode="A" horiz-adv-x="710" 
d="M614 0l-79 189h-362l-79 -189h-67l291 690h74l291 -690h-69zM197 246h315l-158 378z" />
    <glyph glyph-name="Aacute" unicode="&#xc1;" horiz-adv-x="710" 
d="M498 885l-119 -122h-63l105 122h77zM614 0l-79 189h-362l-79 -189h-67l291 690h74l291 -690h-69zM197 246h315l-158 378z" />
    <glyph glyph-name="Abreve" unicode="&#x102;" horiz-adv-x="710" 
d="M355 753c-72 0 -126 54 -126 123h47c0 -45 34 -79 79 -79c44 0 78 34 78 79h47c0 -69 -54 -123 -125 -123zM614 0l-79 189h-362l-79 -189h-67l291 690h74l291 -690h-69zM197 246h315l-158 378z" />
    <glyph glyph-name="uni01CD" unicode="&#x1cd;" horiz-adv-x="710" 
d="M391 763h-72l-101 122h56l81 -89l81 89h56zM614 0l-79 189h-362l-79 -189h-67l291 690h74l291 -690h-69zM197 246h315l-158 378z" />
    <glyph glyph-name="Acircumflex" unicode="&#xc2;" horiz-adv-x="710" 
d="M355 852l-81 -89h-56l101 122h72l101 -122h-56zM614 0l-79 189h-362l-79 -189h-67l291 690h74l291 -690h-69zM197 246h315l-158 378z" />
    <glyph glyph-name="uni0200" unicode="&#x200;" horiz-adv-x="710" 
d="M295 763h-57l-91 122h67zM476 763h-57l-91 122h67zM614 0l-79 189h-362l-79 -189h-67l291 690h74l291 -690h-69zM197 246h315l-158 378z" />
    <glyph glyph-name="Adieresis" unicode="&#xc4;" horiz-adv-x="710" 
d="M254 773c-22 0 -40 17 -40 40s18 40 40 40c23 0 41 -17 41 -40s-18 -40 -41 -40zM455 773c-22 0 -40 17 -40 40s18 40 40 40c23 0 41 -17 41 -40s-18 -40 -41 -40zM614 0l-79 189h-362l-79 -189h-67l291 690h74l291 -690h-69zM197 246h315l-158 378z" />
    <glyph glyph-name="uni1EA0" unicode="&#x1ea0;" horiz-adv-x="710" 
d="M683 0h-69l-79 189h-362l-79 -189h-67l291 690h74zM197 246h315l-158 378zM355 -83c23 0 41 -18 41 -41c0 -24 -18 -42 -41 -42c-24 0 -42 18 -42 42c0 23 18 41 42 41z" />
    <glyph glyph-name="Agrave" unicode="&#xc0;" horiz-adv-x="710" 
d="M393 763h-63l-119 122h77zM614 0l-79 189h-362l-79 -189h-67l291 690h74l291 -690h-69zM197 246h315l-158 378z" />
    <glyph glyph-name="uni0202" unicode="&#x202;" horiz-adv-x="710" 
d="M355 836c-45 0 -79 -34 -79 -80h-47c0 70 54 123 126 123c71 0 125 -53 125 -123h-47c0 46 -34 80 -78 80zM614 0l-79 189h-362l-79 -189h-67l291 690h74l291 -690h-69zM197 246h315l-158 378z" />
    <glyph glyph-name="Amacron" unicode="&#x100;" horiz-adv-x="710" 
d="M466 831v-50h-221v50h221zM614 0l-79 189h-362l-79 -189h-67l291 690h74l291 -690h-69zM197 246h315l-158 378z" />
    <glyph glyph-name="Aogonek" unicode="&#x104;" horiz-adv-x="710" 
d="M634 -169c22 0 45 9 62 23v-46c-19 -13 -46 -21 -73 -21c-54 0 -95 39 -95 90c0 52 42 97 101 123h-15l-79 189h-362l-79 -189h-67l291 690h74l291 -690h-2c-66 -30 -105 -70 -105 -112c0 -34 26 -57 58 -57zM197 246h315l-158 378z" />
    <glyph glyph-name="Aring" unicode="&#xc5;" horiz-adv-x="710" 
d="M354 749c-43 0 -77 33 -77 76c0 44 34 77 77 77c44 0 78 -33 78 -77c0 -43 -34 -76 -78 -76zM354 869c-24 0 -42 -19 -42 -44s18 -43 42 -43s43 18 43 43s-19 44 -43 44zM614 0l-79 189h-362l-79 -189h-67l291 690h74l291 -690h-69zM197 246h315l-158 378z" />
    <glyph glyph-name="Atilde" unicode="&#xc3;" horiz-adv-x="710" 
d="M292 833c-33 0 -57 -25 -57 -57h-43c0 59 37 104 93 104c64 0 83 -62 133 -62c32 0 56 24 56 57h44c0 -60 -37 -104 -94 -104c-63 0 -82 62 -132 62zM614 0l-79 189h-362l-79 -189h-67l291 690h74l291 -690h-69zM197 246h315l-158 378z" />
    <glyph glyph-name="AE" unicode="&#xc6;" horiz-adv-x="869" 
d="M502 58h318v-58h-380v188h-272l-117 -188h-71l429 690h406v-58h-313v-256h280v-58h-280v-260zM203 245h237v382z" />
    <glyph glyph-name="AEacute" unicode="&#x1fc;" horiz-adv-x="869" 
d="M621 885l-119 -122h-63l105 122h77zM502 58h318v-58h-380v188h-272l-117 -188h-71l429 690h406v-58h-313v-256h280v-58h-280v-260zM203 245h237v382z" />
    <glyph glyph-name="B" unicode="B" horiz-adv-x="556" 
d="M382 367c83 -18 140 -91 140 -181c0 -107 -81 -186 -188 -186h-245v690h213c99 0 174 -73 174 -171c0 -70 -42 -129 -94 -152zM290 634h-141v-249h141c66 0 122 54 122 125s-52 124 -122 124zM321 56c78 0 137 60 137 139c0 78 -59 137 -137 137h-172v-276h172z" />
    <glyph glyph-name="C" unicode="C" horiz-adv-x="809" 
d="M410 -12c-204 0 -359 154 -359 357s155 357 359 357c181 0 323 -121 354 -288h-65c-29 134 -144 228 -289 228c-168 0 -296 -127 -296 -297s128 -297 296 -297c145 0 260 94 289 228h65c-31 -167 -173 -288 -354 -288z" />
    <glyph glyph-name="Cacute" unicode="&#x106;" horiz-adv-x="809" 
d="M372 763l105 122h77l-119 -122h-63zM410 -12c-204 0 -359 154 -359 357s155 357 359 357c181 0 323 -121 354 -288h-65c-29 134 -144 228 -289 228c-168 0 -296 -127 -296 -297s128 -297 296 -297c145 0 260 94 289 228h65c-31 -167 -173 -288 -354 -288z" />
    <glyph glyph-name="Ccaron" unicode="&#x10c;" horiz-adv-x="809" 
d="M446 763h-72l-101 122h56l81 -89l81 89h56zM410 48c145 0 260 94 289 228h65c-31 -167 -173 -288 -354 -288c-204 0 -359 154 -359 357s155 357 359 357c181 0 323 -121 354 -288h-65c-29 134 -144 228 -289 228c-168 0 -296 -127 -296 -297s128 -297 296 -297z" />
    <glyph glyph-name="Ccedilla" unicode="&#xc7;" horiz-adv-x="809" 
d="M410 48c145 0 260 94 289 228h65c-30 -161 -163 -280 -335 -288l-21 -26c4 1 9 1 13 1c49 0 86 -39 86 -89s-41 -90 -94 -90s-93 40 -93 90h38c0 -31 25 -55 55 -55c31 0 55 24 55 55c0 32 -24 55 -55 55c-14 0 -29 -7 -37 -15l-34 16l44 59c-192 11 -335 161 -335 356
c0 203 155 357 359 357c181 0 323 -121 354 -288h-65c-29 134 -144 228 -289 228c-168 0 -296 -127 -296 -297s128 -297 296 -297z" />
    <glyph glyph-name="Ccircumflex" unicode="&#x108;" horiz-adv-x="809" 
d="M410 852l-81 -89h-56l101 122h72l101 -122h-56zM410 48c145 0 260 94 289 228h65c-31 -167 -173 -288 -354 -288c-204 0 -359 154 -359 357s155 357 359 357c181 0 323 -121 354 -288h-65c-29 134 -144 228 -289 228c-168 0 -296 -127 -296 -297s128 -297 296 -297z" />
    <glyph glyph-name="Cdotaccent" unicode="&#x10a;" horiz-adv-x="809" 
d="M411 773c-24 0 -42 18 -42 41c0 24 18 42 42 42c23 0 41 -18 41 -42c0 -23 -18 -41 -41 -41zM410 -12c-204 0 -359 154 -359 357s155 357 359 357c181 0 323 -121 354 -288h-65c-29 134 -144 228 -289 228c-168 0 -296 -127 -296 -297s128 -297 296 -297
c145 0 260 94 289 228h65c-31 -167 -173 -288 -354 -288z" />
    <glyph glyph-name="D" unicode="D" horiz-adv-x="750" 
d="M352 690c198 0 347 -148 347 -345s-149 -345 -347 -345h-263v690h263zM351 58c163 0 285 123 285 287s-122 287 -285 287h-201v-574h201z" />
    <glyph glyph-name="uni01F1" unicode="&#x1f1;" horiz-adv-x="1330" 
d="M352 690c198 0 347 -148 347 -345s-149 -345 -347 -345h-263v690h263zM845 58h440v-58h-524v44l433 588h-429v58h513v-44zM351 58c163 0 285 123 285 287s-122 287 -285 287h-201v-574h201z" />
    <glyph glyph-name="uni01C4" unicode="&#x1c4;" horiz-adv-x="1330" 
d="M1058 763h-72l-101 122h56l81 -89l81 89h56zM352 690c198 0 347 -148 347 -345s-149 -345 -347 -345h-263v690h263zM845 58h440v-58h-524v44l433 588h-429v58h513v-44zM351 58c163 0 285 123 285 287s-122 287 -285 287h-201v-574h201z" />
    <glyph glyph-name="Eth" unicode="&#xd0;" horiz-adv-x="750" 
d="M352 690c198 0 347 -148 347 -345s-149 -345 -347 -345h-263v323h-74v44h74v323h263zM351 58c163 0 285 123 285 287s-122 287 -285 287h-201v-265h145v-44h-145v-265h201z" />
    <glyph glyph-name="Dcaron" unicode="&#x10e;" horiz-adv-x="750" 
d="M402 763h-72l-101 122h56l81 -89l81 89h56zM352 690c198 0 347 -148 347 -345s-149 -345 -347 -345h-263v690h263zM351 58c163 0 285 123 285 287s-122 287 -285 287h-201v-574h201z" />
    <glyph glyph-name="Dcroat" unicode="&#x110;" horiz-adv-x="750" 
d="M352 690c198 0 347 -148 347 -345s-149 -345 -347 -345h-263v323h-74v44h74v323h263zM351 58c163 0 285 123 285 287s-122 287 -285 287h-201v-265h145v-44h-145v-265h201z" />
    <glyph glyph-name="uni1E0C" unicode="&#x1e0c;" horiz-adv-x="750" 
d="M352 690c198 0 347 -148 347 -345s-149 -345 -347 -345h-263v690h263zM351 58c163 0 285 123 285 287s-122 287 -285 287h-201v-574h201zM366 -83c23 0 41 -18 41 -41c0 -24 -18 -42 -41 -42c-24 0 -42 18 -42 42c0 23 18 41 42 41z" />
    <glyph glyph-name="uni01F2" unicode="&#x1f2;" horiz-adv-x="1252" 
d="M352 690c198 0 347 -148 347 -345s-149 -345 -347 -345h-263v690h263zM351 58c163 0 285 123 285 287s-122 287 -285 287h-201v-574h201zM880 56h323v-56h-405v42l316 412h-312v56h394v-42z" />
    <glyph glyph-name="uni01C5" unicode="&#x1c5;" horiz-adv-x="1252" 
d="M1037 583h-72l-101 122h56l81 -89l80 89h57zM352 690c198 0 347 -148 347 -345s-149 -345 -347 -345h-263v690h263zM351 58c163 0 285 123 285 287s-122 287 -285 287h-201v-574h201zM880 56h323v-56h-405v42l316 412h-312v56h394v-42z" />
    <glyph glyph-name="E" unicode="E" horiz-adv-x="518" 
d="M150 58h318v-58h-379v690h374v-58h-313v-256h280v-58h-280v-260z" />
    <glyph glyph-name="Eacute" unicode="&#xc9;" horiz-adv-x="518" 
d="M419 885l-119 -122h-63l105 122h77zM150 58h318v-58h-379v690h374v-58h-313v-256h280v-58h-280v-260z" />
    <glyph glyph-name="Ebreve" unicode="&#x114;" horiz-adv-x="518" 
d="M276 753c-72 0 -126 54 -126 123h47c0 -45 34 -79 79 -79c44 0 78 34 78 79h47c0 -69 -54 -123 -125 -123zM150 58h318v-58h-379v690h374v-58h-313v-256h280v-58h-280v-260z" />
    <glyph glyph-name="Ecaron" unicode="&#x11a;" horiz-adv-x="518" 
d="M312 763h-72l-101 122h56l81 -89l81 89h56zM150 58h318v-58h-379v690h374v-58h-313v-256h280v-58h-280v-260z" />
    <glyph glyph-name="Ecircumflex" unicode="&#xca;" horiz-adv-x="518" 
d="M276 852l-81 -89h-56l101 122h72l101 -122h-56zM150 58h318v-58h-379v690h374v-58h-313v-256h280v-58h-280v-260z" />
    <glyph glyph-name="uni0204" unicode="&#x204;" horiz-adv-x="518" 
d="M216 763h-57l-91 122h67zM397 763h-57l-91 122h67zM150 58h318v-58h-379v690h374v-58h-313v-256h280v-58h-280v-260z" />
    <glyph glyph-name="Edieresis" unicode="&#xcb;" horiz-adv-x="518" 
d="M175 773c-22 0 -40 17 -40 40s18 40 40 40c23 0 41 -17 41 -40s-18 -40 -41 -40zM376 773c-22 0 -40 17 -40 40s18 40 40 40c23 0 41 -17 41 -40s-18 -40 -41 -40zM150 58h318v-58h-379v690h374v-58h-313v-256h280v-58h-280v-260z" />
    <glyph glyph-name="Edotaccent" unicode="&#x116;" horiz-adv-x="518" 
d="M276 773c-24 0 -42 18 -42 41c0 24 18 42 42 42c23 0 41 -18 41 -42c0 -23 -18 -41 -41 -41zM150 58h318v-58h-379v690h374v-58h-313v-256h280v-58h-280v-260z" />
    <glyph glyph-name="uni1EB8" unicode="&#x1eb8;" horiz-adv-x="518" 
d="M150 58h318v-58h-379v690h374v-58h-313v-256h280v-58h-280v-260zM276 -83c23 0 41 -18 41 -41c0 -24 -18 -42 -41 -42c-24 0 -42 18 -42 42c0 23 18 41 42 41z" />
    <glyph glyph-name="Egrave" unicode="&#xc8;" horiz-adv-x="518" 
d="M314 763h-63l-119 122h77zM150 58h318v-58h-379v690h374v-58h-313v-256h280v-58h-280v-260z" />
    <glyph glyph-name="uni0206" unicode="&#x206;" horiz-adv-x="518" 
d="M276 836c-45 0 -79 -34 -79 -80h-47c0 70 54 123 126 123c71 0 125 -53 125 -123h-47c0 46 -34 80 -78 80zM150 58h318v-58h-379v690h374v-58h-313v-256h280v-58h-280v-260z" />
    <glyph glyph-name="Emacron" unicode="&#x112;" horiz-adv-x="518" 
d="M386 831v-50h-221v50h221zM150 58h318v-58h-379v690h374v-58h-313v-256h280v-58h-280v-260z" />
    <glyph glyph-name="Eogonek" unicode="&#x118;" horiz-adv-x="518" 
d="M407 -169c22 0 45 9 62 23v-46c-19 -13 -46 -21 -73 -21c-54 0 -95 39 -95 90c0 52 42 97 101 123h-313v690h374v-58h-313v-256h280v-58h-280v-260h318v-58h-14c-66 -30 -105 -70 -105 -112c0 -34 26 -57 58 -57z" />
    <glyph glyph-name="uni1EBC" unicode="&#x1ebc;" horiz-adv-x="518" 
d="M212 833c-33 0 -57 -25 -57 -57h-43c0 59 37 104 93 104c64 0 83 -62 133 -62c32 0 56 24 56 57h44c0 -60 -37 -104 -94 -104c-63 0 -82 62 -132 62zM150 58h318v-58h-379v690h374v-58h-313v-256h280v-58h-280v-260z" />
    <glyph glyph-name="F" unicode="F" horiz-adv-x="489" 
d="M448 632h-298v-262h255v-58h-255v-312h-61v690h359v-58z" />
    <glyph glyph-name="G" unicode="G" horiz-adv-x="813" 
d="M426 354h341v-20c-6 -198 -157 -346 -357 -346c-204 0 -359 154 -359 357s155 357 359 357c164 0 297 -98 340 -239h-69c-41 107 -144 179 -271 179c-168 0 -296 -127 -296 -297s128 -297 296 -297c153 0 273 104 292 250h-276v56z" />
    <glyph glyph-name="uni01F4" unicode="&#x1f4;" horiz-adv-x="813" 
d="M554 885l-119 -122h-63l105 122h77zM426 354h341v-20c-6 -198 -157 -346 -357 -346c-204 0 -359 154 -359 357s155 357 359 357c164 0 297 -98 340 -239h-69c-41 107 -144 179 -271 179c-168 0 -296 -127 -296 -297s128 -297 296 -297c153 0 273 104 292 250h-276v56z
" />
    <glyph glyph-name="Gbreve" unicode="&#x11e;" horiz-adv-x="813" 
d="M411 753c-72 0 -126 54 -126 123h47c0 -45 34 -79 79 -79c44 0 78 34 78 79h47c0 -69 -54 -123 -125 -123zM426 354h341v-20c-6 -198 -157 -346 -357 -346c-204 0 -359 154 -359 357s155 357 359 357c164 0 297 -98 340 -239h-69c-41 107 -144 179 -271 179
c-168 0 -296 -127 -296 -297s128 -297 296 -297c153 0 273 104 292 250h-276v56z" />
    <glyph glyph-name="Gcaron" unicode="&#x1e6;" horiz-adv-x="813" 
d="M446 763h-72l-101 122h56l81 -89l81 89h56zM426 354h341v-20c-6 -198 -157 -346 -357 -346c-204 0 -359 154 -359 357s155 357 359 357c164 0 297 -98 340 -239h-69c-41 107 -144 179 -271 179c-168 0 -296 -127 -296 -297s128 -297 296 -297c153 0 273 104 292 250h-276
v56z" />
    <glyph glyph-name="Gcircumflex" unicode="&#x11c;" horiz-adv-x="813" 
d="M410 852l-81 -89h-56l101 122h72l101 -122h-56zM426 354h341v-20c-6 -198 -157 -346 -357 -346c-204 0 -359 154 -359 357s155 357 359 357c164 0 297 -98 340 -239h-69c-41 107 -144 179 -271 179c-168 0 -296 -127 -296 -297s128 -297 296 -297c153 0 273 104 292 250
h-276v56z" />
    <glyph glyph-name="uni0122" unicode="&#x122;" horiz-adv-x="813" 
d="M426 354h341v-20c-6 -198 -157 -346 -357 -346c-204 0 -359 154 -359 357s155 357 359 357c164 0 297 -98 340 -239h-69c-41 107 -144 179 -271 179c-168 0 -296 -127 -296 -297s128 -297 296 -297c153 0 273 104 292 250h-276v56zM359 -216l31 144h62l-45 -144h-48z" />
    <glyph glyph-name="Gdotaccent" unicode="&#x120;" horiz-adv-x="813" 
d="M411 773c-24 0 -42 18 -42 41c0 24 18 42 42 42c23 0 41 -18 41 -42c0 -23 -18 -41 -41 -41zM426 354h341v-20c-6 -198 -157 -346 -357 -346c-204 0 -359 154 -359 357s155 357 359 357c164 0 297 -98 340 -239h-69c-41 107 -144 179 -271 179
c-168 0 -296 -127 -296 -297s128 -297 296 -297c153 0 273 104 292 250h-276v56z" />
    <glyph glyph-name="H" unicode="H" horiz-adv-x="736" 
d="M585 690h62v-690h-62v318h-435v-318h-61v690h61v-314h435v314z" />
    <glyph glyph-name="Hbar" unicode="&#x126;" horiz-adv-x="736" 
d="M706 561v-44h-59v-517h-62v318h-435v-318h-61v517h-58v44h58v129h61v-129h435v129h62v-129h59zM585 376v141h-435v-141h435z" />
    <glyph glyph-name="Hcircumflex" unicode="&#x124;" horiz-adv-x="736" 
d="M369 852l-81 -89h-56l101 122h72l101 -122h-56zM585 690h62v-690h-62v318h-435v-318h-61v690h61v-314h435v314z" />
    <glyph glyph-name="uni1E24" unicode="&#x1e24;" horiz-adv-x="736" 
d="M585 690h62v-690h-62v318h-435v-318h-61v690h61v-314h435v314zM369 -83c23 0 41 -18 41 -41c0 -24 -18 -42 -41 -42c-24 0 -42 18 -42 42c0 23 18 41 42 41z" />
    <glyph glyph-name="I" unicode="I" horiz-adv-x="239" 
d="M89 0v690h61v-690h-61z" />
    <glyph glyph-name="IJ" unicode="&#x132;" horiz-adv-x="776" 
d="M89 0v690h61v-690h-61zM490 -12c-123 0 -216 92 -216 213h64c0 -88 65 -153 152 -153c88 0 153 65 153 153v489h62v-489c0 -121 -93 -213 -215 -213z" />
    <glyph glyph-name="Iacute" unicode="&#xcd;" horiz-adv-x="239" 
d="M81 763l105 122h77l-119 -122h-63zM89 0v690h61v-690h-61z" />
    <glyph glyph-name="Ibreve" unicode="&#x12c;" horiz-adv-x="239" 
d="M120 753c-72 0 -126 54 -126 123h47c0 -45 34 -79 79 -79c44 0 78 34 78 79h47c0 -69 -54 -123 -125 -123zM89 0v690h61v-690h-61z" />
    <glyph glyph-name="Icircumflex" unicode="&#xce;" horiz-adv-x="239" 
d="M156 885l101 -122h-56l-81 89l-81 -89h-56l101 122h72zM89 0v690h61v-690h-61z" />
    <glyph glyph-name="uni0208" unicode="&#x208;" horiz-adv-x="239" 
d="M4 763l-91 122h67l81 -122h-57zM185 763l-91 122h67l81 -122h-57zM89 0v690h61v-690h-61z" />
    <glyph glyph-name="Idieresis" unicode="&#xcf;" horiz-adv-x="239" 
d="M19 773c-22 0 -40 17 -40 40s18 40 40 40c23 0 41 -17 41 -40s-18 -40 -41 -40zM220 773c-22 0 -40 17 -40 40s18 40 40 40c23 0 41 -17 41 -40s-18 -40 -41 -40zM89 0v690h61v-690h-61z" />
    <glyph glyph-name="Idotaccent" unicode="&#x130;" horiz-adv-x="239" 
d="M120 773c-24 0 -42 18 -42 41c0 24 18 42 42 42c23 0 41 -18 41 -42c0 -23 -18 -41 -41 -41zM89 0v690h61v-690h-61z" />
    <glyph glyph-name="uni1ECA" unicode="&#x1eca;" horiz-adv-x="239" 
d="M89 0v690h61v-690h-61zM120 -166c-24 0 -42 18 -42 42c0 23 18 41 42 41c23 0 41 -18 41 -41c0 -24 -18 -42 -41 -42z" />
    <glyph glyph-name="Igrave" unicode="&#xcc;" horiz-adv-x="239" 
d="M95 763l-119 122h77l105 -122h-63zM89 0v690h61v-690h-61z" />
    <glyph glyph-name="uni020A" unicode="&#x20a;" horiz-adv-x="239" 
d="M-6 756c0 70 54 123 126 123c71 0 125 -53 125 -123h-47c0 46 -34 80 -78 80c-45 0 -79 -34 -79 -80h-47zM89 0v690h61v-690h-61z" />
    <glyph glyph-name="Imacron" unicode="&#x12a;" horiz-adv-x="239" 
d="M10 781v50h221v-50h-221zM89 0v690h61v-690h-61z" />
    <glyph glyph-name="Iogonek" unicode="&#x12e;" horiz-adv-x="239" 
d="M102 -169c22 0 45 9 62 23v-46c-19 -13 -46 -21 -73 -21c-54 0 -95 39 -95 90c0 52 42 97 101 123h-8v690h61v-690h-1c-66 -30 -105 -70 -105 -112c0 -34 26 -57 58 -57z" />
    <glyph glyph-name="Itilde" unicode="&#x128;" horiz-adv-x="239" 
d="M189 771c-63 0 -82 62 -132 62c-33 0 -57 -25 -57 -57h-43c0 59 37 104 93 104c64 0 83 -62 133 -62c32 0 56 24 56 57h44c0 -60 -37 -104 -94 -104zM89 0v690h61v-690h-61z" />
    <glyph glyph-name="J" unicode="J" horiz-adv-x="537" 
d="M251 -12c-123 0 -216 92 -216 213h64c0 -88 65 -153 152 -153c88 0 153 65 153 153v489h62v-489c0 -121 -93 -213 -215 -213z" />
    <glyph glyph-name="Jcircumflex" unicode="&#x134;" horiz-adv-x="537" 
d="M471 885l101 -122h-56l-81 89l-81 -89h-56l101 122h72zM404 201v489h62v-489c0 -121 -93 -213 -215 -213c-123 0 -216 92 -216 213h64c0 -88 65 -153 152 -153c88 0 153 65 153 153z" />
    <glyph glyph-name="K" unicode="K" horiz-adv-x="601" 
d="M589 0h-81l-358 323v-323h-61v690h61v-316l353 316h79l-374 -342z" />
    <glyph glyph-name="uni0136" unicode="&#x136;" horiz-adv-x="601" 
d="M208 348l381 -348h-81l-358 323v-323h-61v690h61v-316l353 316h79zM267 -216l31 144h62l-45 -144h-48z" />
    <glyph glyph-name="L" unicode="L" horiz-adv-x="472" 
d="M150 58h288v-58h-349v690h61v-632z" />
    <glyph glyph-name="uni01C7" unicode="&#x1c7;" horiz-adv-x="990" 
d="M150 690v-632h288v-58h-349v690h61zM857 690h62v-489c0 -121 -93 -213 -215 -213c-123 0 -216 92 -216 213h64c0 -88 65 -153 152 -153c88 0 153 65 153 153v489z" />
    <glyph glyph-name="Lacute" unicode="&#x139;" horiz-adv-x="472" 
d="M263 885l-119 -122h-63l105 122h77zM150 58h288v-58h-349v690h61v-632z" />
    <glyph glyph-name="Lcaron" unicode="&#x13d;" horiz-adv-x="480" 
d="M150 58h288v-58h-349v690h61v-632zM340 690l-32 -187h-45l21 187h56z" />
    <glyph glyph-name="uni013B" unicode="&#x13b;" horiz-adv-x="472" 
d="M150 58h288v-58h-349v690h61v-632zM209 -216l31 144h62l-45 -144h-48z" />
    <glyph glyph-name="Ldot" unicode="&#x13f;" horiz-adv-x="484" 
d="M150 58h288v-58h-349v690h61v-632zM301 307c-24 0 -43 19 -43 43c0 25 19 43 43 43s43 -18 43 -43c0 -24 -19 -43 -43 -43z" />
    <glyph glyph-name="uni01C8" unicode="&#x1c8;" horiz-adv-x="695" 
d="M587 713c23 0 42 -18 42 -41c0 -24 -19 -42 -42 -42c-24 0 -43 18 -43 42c0 23 19 41 43 41zM150 690v-632h288v-58h-349v690h61zM558 -45v555h58v-558c0 -105 -61 -154 -163 -154v54c64 0 105 32 105 103z" />
    <glyph glyph-name="Lslash" unicode="&#x141;" horiz-adv-x="472" 
d="M150 58h288v-58h-349v277l-69 -47v59l69 47v354h61v-313l128 86v-59l-128 -86v-260z" />
    <glyph glyph-name="M" unicode="M" horiz-adv-x="893" 
d="M723 690h81v-690h-61v591l-272 -591h-49l-272 591v-591h-61v690h82l276 -602z" />
    <glyph glyph-name="N" unicode="N" horiz-adv-x="743" 
d="M593 690h62v-690h-67l-438 592v-592h-61v690h66l438 -592v592z" />
    <glyph glyph-name="uni01CA" unicode="&#x1ca;" horiz-adv-x="1280" 
d="M593 98v592h62v-690h-67l-438 592v-592h-61v690h66zM1147 690h62v-489c0 -121 -93 -213 -215 -213c-123 0 -216 92 -216 213h64c0 -88 65 -153 152 -153c88 0 153 65 153 153v489z" />
    <glyph glyph-name="Nacute" unicode="&#x143;" horiz-adv-x="743" 
d="M516 885l-119 -122h-63l105 122h77zM593 690h62v-690h-67l-438 592v-592h-61v690h66l438 -592v592z" />
    <glyph glyph-name="Ncaron" unicode="&#x147;" horiz-adv-x="743" 
d="M409 763h-72l-101 122h56l81 -89l81 89h56zM593 690h62v-690h-67l-438 592v-592h-61v690h66l438 -592v592z" />
    <glyph glyph-name="uni0145" unicode="&#x145;" horiz-adv-x="743" 
d="M593 690h62v-690h-67l-438 592v-592h-61v690h66l438 -592v592zM320 -216l31 144h62l-45 -144h-48z" />
    <glyph glyph-name="uni1E44" unicode="&#x1e44;" horiz-adv-x="743" 
d="M373 773c-24 0 -42 18 -42 41c0 24 18 42 42 42c23 0 41 -18 41 -42c0 -23 -18 -41 -41 -41zM593 690h62v-690h-67l-438 592v-592h-61v690h66l438 -592v592z" />
    <glyph glyph-name="Eng" unicode="&#x14a;" horiz-adv-x="743" 
d="M593 690h62v-737c0 -102 -60 -150 -160 -150v57c59 0 98 29 98 96v44h-5l-438 592v-592h-61v690h66l438 -592v592z" />
    <glyph glyph-name="uni01CB" unicode="&#x1cb;" horiz-adv-x="966" 
d="M858 713c23 0 42 -18 42 -41c0 -24 -19 -42 -42 -42c-24 0 -43 18 -43 42c0 23 19 41 43 41zM593 98v592h62v-690h-67l-438 592v-592h-61v690h66zM829 -45v555h58v-558c0 -105 -61 -154 -163 -154v54c64 0 105 32 105 103z" />
    <glyph glyph-name="Ntilde" unicode="&#xd1;" horiz-adv-x="743" 
d="M310 833c-33 0 -57 -25 -57 -57h-43c0 59 37 104 93 104c64 0 83 -62 133 -62c32 0 56 24 56 57h44c0 -60 -37 -104 -94 -104c-63 0 -82 62 -132 62zM593 690h62v-690h-67l-438 592v-592h-61v690h66l438 -592v592z" />
    <glyph glyph-name="O" unicode="O" horiz-adv-x="821" 
d="M410 -12c-204 0 -359 154 -359 357s155 357 359 357c205 0 360 -154 360 -357s-155 -357 -360 -357zM410 48c169 0 296 127 296 297s-127 297 -296 297c-168 0 -296 -127 -296 -297s128 -297 296 -297z" />
    <glyph glyph-name="Oacute" unicode="&#xd3;" horiz-adv-x="821" 
d="M372 763l105 122h77l-119 -122h-63zM410 -12c-204 0 -359 154 -359 357s155 357 359 357c205 0 360 -154 360 -357s-155 -357 -360 -357zM410 48c169 0 296 127 296 297s-127 297 -296 297c-168 0 -296 -127 -296 -297s128 -297 296 -297z" />
    <glyph glyph-name="Obreve" unicode="&#x14e;" horiz-adv-x="821" 
d="M411 753c-72 0 -126 54 -126 123h47c0 -45 34 -79 79 -79c44 0 78 34 78 79h47c0 -69 -54 -123 -125 -123zM410 -12c-204 0 -359 154 -359 357s155 357 359 357c205 0 360 -154 360 -357s-155 -357 -360 -357zM410 48c169 0 296 127 296 297s-127 297 -296 297
c-168 0 -296 -127 -296 -297s128 -297 296 -297z" />
    <glyph glyph-name="Ocircumflex" unicode="&#xd4;" horiz-adv-x="821" 
d="M410 852l-81 -89h-56l101 122h72l101 -122h-56zM410 702c205 0 360 -154 360 -357s-155 -357 -360 -357c-204 0 -359 154 -359 357s155 357 359 357zM410 48c169 0 296 127 296 297s-127 297 -296 297c-168 0 -296 -127 -296 -297s128 -297 296 -297z" />
    <glyph glyph-name="uni020C" unicode="&#x20c;" horiz-adv-x="821" 
d="M294 763l-91 122h67l81 -122h-57zM475 763l-91 122h67l81 -122h-57zM410 -12c-204 0 -359 154 -359 357s155 357 359 357c205 0 360 -154 360 -357s-155 -357 -360 -357zM410 48c169 0 296 127 296 297s-127 297 -296 297c-168 0 -296 -127 -296 -297s128 -297 296 -297z
" />
    <glyph glyph-name="Odieresis" unicode="&#xd6;" horiz-adv-x="821" 
d="M309 773c-22 0 -40 17 -40 40s18 40 40 40c23 0 41 -17 41 -40s-18 -40 -41 -40zM510 773c-22 0 -40 17 -40 40s18 40 40 40c23 0 41 -17 41 -40s-18 -40 -41 -40zM410 -12c-204 0 -359 154 -359 357s155 357 359 357c205 0 360 -154 360 -357s-155 -357 -360 -357z
M410 48c169 0 296 127 296 297s-127 297 -296 297c-168 0 -296 -127 -296 -297s128 -297 296 -297z" />
    <glyph glyph-name="uni1ECC" unicode="&#x1ecc;" horiz-adv-x="821" 
d="M410 -12c-204 0 -359 154 -359 357s155 357 359 357c205 0 360 -154 360 -357s-155 -357 -360 -357zM410 48c169 0 296 127 296 297s-127 297 -296 297c-168 0 -296 -127 -296 -297s128 -297 296 -297zM411 -166c-24 0 -42 18 -42 42c0 23 18 41 42 41
c23 0 41 -18 41 -41c0 -24 -18 -42 -41 -42z" />
    <glyph glyph-name="Ograve" unicode="&#xd2;" horiz-adv-x="821" 
d="M386 763l-119 122h77l105 -122h-63zM410 -12c-204 0 -359 154 -359 357s155 357 359 357c205 0 360 -154 360 -357s-155 -357 -360 -357zM410 48c169 0 296 127 296 297s-127 297 -296 297c-168 0 -296 -127 -296 -297s128 -297 296 -297z" />
    <glyph glyph-name="Ohungarumlaut" unicode="&#x150;" horiz-adv-x="821" 
d="M288 763l81 122h67l-91 -122h-57zM469 763l81 122h67l-91 -122h-57zM410 -12c-204 0 -359 154 -359 357s155 357 359 357c205 0 360 -154 360 -357s-155 -357 -360 -357zM410 48c169 0 296 127 296 297s-127 297 -296 297c-168 0 -296 -127 -296 -297s128 -297 296 -297z
" />
    <glyph glyph-name="uni020E" unicode="&#x20e;" horiz-adv-x="821" 
d="M285 756c0 70 54 123 126 123c71 0 125 -53 125 -123h-47c0 46 -34 80 -78 80c-45 0 -79 -34 -79 -80h-47zM410 -12c-204 0 -359 154 -359 357s155 357 359 357c205 0 360 -154 360 -357s-155 -357 -360 -357zM410 48c169 0 296 127 296 297s-127 297 -296 297
c-168 0 -296 -127 -296 -297s128 -297 296 -297z" />
    <glyph glyph-name="Omacron" unicode="&#x14c;" horiz-adv-x="821" 
d="M300 781v50h221v-50h-221zM410 -12c-204 0 -359 154 -359 357s155 357 359 357c205 0 360 -154 360 -357s-155 -357 -360 -357zM410 48c169 0 296 127 296 297s-127 297 -296 297c-168 0 -296 -127 -296 -297s128 -297 296 -297z" />
    <glyph glyph-name="uni01EA" unicode="&#x1ea;" horiz-adv-x="821" 
d="M513 2c-62 -30 -98 -69 -98 -109c0 -34 26 -57 58 -57c22 0 45 9 62 23v-46c-19 -13 -46 -21 -73 -21c-54 0 -95 39 -95 90c0 43 28 80 71 107c-9 -1 -19 -1 -28 -1c-204 0 -359 154 -359 357s155 357 359 357c205 0 360 -154 360 -357c0 -167 -105 -301 -257 -343z
M114 345c0 -170 128 -297 296 -297c169 0 296 127 296 297s-127 297 -296 297c-168 0 -296 -127 -296 -297z" />
    <glyph glyph-name="Oslash" unicode="&#xd8;" horiz-adv-x="821" 
d="M665 601c66 -64 105 -154 105 -256c0 -203 -155 -357 -360 -357c-85 0 -162 27 -223 73l-54 -61h-57l79 89c-65 64 -104 154 -104 256c0 203 155 357 359 357c86 0 163 -27 223 -73l54 61h57zM114 345c0 -83 31 -157 82 -209l396 447c-49 37 -112 59 -182 59
c-168 0 -296 -127 -296 -297zM410 48c169 0 296 127 296 297c0 84 -31 157 -82 210l-396 -448c50 -37 112 -59 182 -59z" />
    <glyph glyph-name="Oslashacute" unicode="&#x1fe;" horiz-adv-x="821" 
d="M560 885l-119 -122h-63l105 122h77zM665 601c66 -64 105 -154 105 -256c0 -203 -155 -357 -360 -357c-85 0 -162 27 -223 73l-54 -61h-57l79 89c-65 64 -104 154 -104 256c0 203 155 357 359 357c86 0 163 -27 223 -73l54 61h57zM114 345c0 -83 31 -157 82 -209l396 447
c-49 37 -112 59 -182 59c-168 0 -296 -127 -296 -297zM410 48c169 0 296 127 296 297c0 84 -31 157 -82 210l-396 -448c50 -37 112 -59 182 -59z" />
    <glyph glyph-name="Otilde" unicode="&#xd5;" horiz-adv-x="821" 
d="M479 771c-63 0 -82 62 -132 62c-33 0 -57 -25 -57 -57h-43c0 59 37 104 93 104c64 0 83 -62 133 -62c32 0 56 24 56 57h44c0 -60 -37 -104 -94 -104zM410 -12c-204 0 -359 154 -359 357s155 357 359 357c205 0 360 -154 360 -357s-155 -357 -360 -357zM410 48
c169 0 296 127 296 297s-127 297 -296 297c-168 0 -296 -127 -296 -297s128 -297 296 -297z" />
    <glyph glyph-name="OE" unicode="&#x152;" horiz-adv-x="914" 
d="M547 58h318v-58h-467c-198 0 -347 148 -347 345s149 345 347 345h462v-58h-313v-256h280v-58h-280v-260zM399 58h86v574h-86c-162 0 -285 -123 -285 -287s123 -287 285 -287z" />
    <glyph glyph-name="P" unicode="P" horiz-adv-x="553" 
d="M304 690c120 0 211 -90 211 -208c0 -119 -91 -209 -211 -209h-154v-273h-61v690h215zM303 331c85 0 148 65 148 151s-63 150 -148 150h-153v-301h153z" />
    <glyph glyph-name="Thorn" unicode="&#xde;" horiz-adv-x="550" 
d="M304 555c120 0 211 -90 211 -209c0 -118 -91 -208 -211 -208h-154v-138h-61v690h61v-135h154zM303 196c85 0 148 64 148 150c0 87 -63 151 -148 151h-153v-301h153z" />
    <glyph glyph-name="Q" unicode="Q" horiz-adv-x="821" 
d="M770 345c0 -135 -69 -249 -176 -310l78 -120h-66l-62 97c-41 -16 -86 -24 -134 -24c-204 0 -359 154 -359 357s155 357 359 357c205 0 360 -154 360 -357zM410 48c35 0 69 6 100 16l-89 138h66l74 -115c88 50 145 144 145 258c0 170 -127 297 -296 297
c-168 0 -296 -127 -296 -297s128 -297 296 -297z" />
    <glyph glyph-name="R" unicode="R" horiz-adv-x="554" 
d="M439 0l-277 292h-12v-292h-61v690h213c115 0 203 -86 203 -200c0 -113 -87 -198 -202 -198h-63l278 -292h-79zM150 632v-286h151c80 0 140 61 140 143s-60 143 -140 143h-151z" />
    <glyph glyph-name="Racute" unicode="&#x154;" horiz-adv-x="554" 
d="M423 885l-119 -122h-63l105 122h77zM439 0l-277 292h-12v-292h-61v690h213c115 0 203 -86 203 -200c0 -113 -87 -198 -202 -198h-63l278 -292h-79zM150 632v-286h151c80 0 140 61 140 143s-60 143 -140 143h-151z" />
    <glyph glyph-name="Rcaron" unicode="&#x158;" horiz-adv-x="554" 
d="M316 763h-72l-101 122h56l81 -89l81 89h56zM439 0l-277 292h-12v-292h-61v690h213c115 0 203 -86 203 -200c0 -113 -87 -198 -202 -198h-63l278 -292h-79zM150 632v-286h151c80 0 140 61 140 143s-60 143 -140 143h-151z" />
    <glyph glyph-name="uni0156" unicode="&#x156;" horiz-adv-x="554" 
d="M240 292l278 -292h-79l-277 292h-12v-292h-61v690h213c115 0 203 -86 203 -200c0 -113 -87 -198 -202 -198h-63zM150 632v-286h151c80 0 140 61 140 143s-60 143 -140 143h-151zM238 -216l31 144h62l-45 -144h-48z" />
    <glyph glyph-name="uni0210" unicode="&#x210;" horiz-adv-x="554" 
d="M220 763h-57l-91 122h67zM401 763h-57l-91 122h67zM439 0l-277 292h-12v-292h-61v690h213c115 0 203 -86 203 -200c0 -113 -87 -198 -202 -198h-63l278 -292h-79zM150 632v-286h151c80 0 140 61 140 143s-60 143 -140 143h-151z" />
    <glyph glyph-name="uni1E5A" unicode="&#x1e5a;" horiz-adv-x="554" 
d="M240 292l278 -292h-79l-277 292h-12v-292h-61v690h213c115 0 203 -86 203 -200c0 -113 -87 -198 -202 -198h-63zM150 632v-286h151c80 0 140 61 140 143s-60 143 -140 143h-151zM290 -83c23 0 41 -18 41 -41c0 -24 -18 -42 -41 -42c-24 0 -42 18 -42 42c0 23 18 41 42 41
z" />
    <glyph glyph-name="uni0212" unicode="&#x212;" horiz-adv-x="554" 
d="M280 836c-45 0 -79 -34 -79 -80h-47c0 70 54 123 126 123c71 0 125 -53 125 -123h-47c0 46 -34 80 -78 80zM439 0l-277 292h-12v-292h-61v690h213c115 0 203 -86 203 -200c0 -113 -87 -198 -202 -198h-63l278 -292h-79zM150 632v-286h151c80 0 140 61 140 143
s-60 143 -140 143h-151z" />
    <glyph glyph-name="S" unicode="S" horiz-adv-x="524" 
d="M262 -12c-122 0 -215 87 -215 201h63c0 -82 67 -145 153 -145s151 56 151 131s-59 123 -166 149c-116 27 -189 91 -189 196c0 103 87 182 203 182s203 -83 203 -193h-63c0 78 -60 137 -140 137c-79 0 -139 -53 -139 -124s52 -118 153 -143c123 -30 201 -91 201 -201
c0 -108 -92 -190 -215 -190z" />
    <glyph glyph-name="Sacute" unicode="&#x15a;" horiz-adv-x="524" 
d="M224 763l105 122h77l-119 -122h-63zM262 -12c-122 0 -215 87 -215 201h63c0 -82 67 -145 153 -145s151 56 151 131s-59 123 -166 149c-116 27 -189 91 -189 196c0 103 87 182 203 182s203 -83 203 -193h-63c0 78 -60 137 -140 137c-79 0 -139 -53 -139 -124
s52 -118 153 -143c123 -30 201 -91 201 -201c0 -108 -92 -190 -215 -190z" />
    <glyph glyph-name="Scaron" unicode="&#x160;" horiz-adv-x="524" 
d="M298 763h-72l-101 122h56l81 -89l81 89h56zM276 379c123 -30 201 -91 201 -201c0 -108 -92 -190 -215 -190c-122 0 -215 87 -215 201h63c0 -82 67 -145 153 -145s151 56 151 131s-59 123 -166 149c-116 27 -189 91 -189 196c0 103 87 182 203 182s203 -83 203 -193h-63
c0 78 -60 137 -140 137c-79 0 -139 -53 -139 -124s52 -118 153 -143z" />
    <glyph glyph-name="Scedilla" unicode="&#x15e;" horiz-adv-x="524" 
d="M477 178c0 -102 -83 -181 -196 -189l-21 -27c4 1 9 1 13 1c49 0 86 -39 86 -89s-41 -90 -94 -90s-93 40 -93 90h38c0 -31 25 -55 55 -55c31 0 55 24 55 55c0 32 -24 55 -55 55c-14 0 -29 -7 -37 -15l-34 16l45 59c-111 10 -192 93 -192 200h63c0 -82 67 -145 153 -145
s151 56 151 131s-59 123 -166 149c-116 27 -189 91 -189 196c0 103 87 182 203 182s203 -83 203 -193h-63c0 78 -60 137 -140 137c-79 0 -139 -53 -139 -124s52 -118 153 -143c123 -30 201 -91 201 -201z" />
    <glyph glyph-name="Scircumflex" unicode="&#x15c;" horiz-adv-x="524" 
d="M262 852l-81 -89h-56l101 122h72l101 -122h-56zM276 379c123 -30 201 -91 201 -201c0 -108 -92 -190 -215 -190c-122 0 -215 87 -215 201h63c0 -82 67 -145 153 -145s151 56 151 131s-59 123 -166 149c-116 27 -189 91 -189 196c0 103 87 182 203 182s203 -83 203 -193
h-63c0 78 -60 137 -140 137c-79 0 -139 -53 -139 -124s52 -118 153 -143z" />
    <glyph glyph-name="uni0218" unicode="&#x218;" horiz-adv-x="524" 
d="M262 -12c-122 0 -215 87 -215 201h63c0 -82 67 -145 153 -145s151 56 151 131s-59 123 -166 149c-116 27 -189 91 -189 196c0 103 87 182 203 182s203 -83 203 -193h-63c0 78 -60 137 -140 137c-79 0 -139 -53 -139 -124s52 -118 153 -143c123 -30 201 -91 201 -201
c0 -108 -92 -190 -215 -190zM211 -216l31 144h62l-45 -144h-48z" />
    <glyph glyph-name="uni1E62" unicode="&#x1e62;" horiz-adv-x="524" 
d="M262 -12c-122 0 -215 87 -215 201h63c0 -82 67 -145 153 -145s151 56 151 131s-59 123 -166 149c-116 27 -189 91 -189 196c0 103 87 182 203 182s203 -83 203 -193h-63c0 78 -60 137 -140 137c-79 0 -139 -53 -139 -124s52 -118 153 -143c123 -30 201 -91 201 -201
c0 -108 -92 -190 -215 -190zM263 -166c-24 0 -42 18 -42 42c0 23 18 41 42 41c23 0 41 -18 41 -41c0 -24 -18 -42 -41 -42z" />
    <glyph glyph-name="uni1E9E" unicode="&#x1e9e;" horiz-adv-x="604" 
d="M357 418c124 0 217 -93 217 -216c0 -122 -93 -214 -217 -214c-42 0 -91 15 -119 36v64c22 -23 70 -40 110 -40c93 0 162 67 162 157c0 88 -66 156 -155 156h-69v45l159 226h-219c-46 0 -80 -34 -80 -80v-552h-61v557c0 77 56 133 135 133h294v-51l-159 -221h2z" />
    <glyph glyph-name="T" unicode="T" horiz-adv-x="546" 
d="M514 690v-58h-210v-632h-62v632h-210v58h482z" />
    <glyph glyph-name="Tbar" unicode="&#x166;" horiz-adv-x="546" 
d="M514 632h-210v-276h109v-44h-109v-312h-62v312h-109v44h109v276h-210v58h482v-58z" />
    <glyph glyph-name="Tcaron" unicode="&#x164;" horiz-adv-x="546" 
d="M309 763h-72l-101 122h56l81 -89l81 89h56zM514 690v-58h-210v-632h-62v632h-210v58h482z" />
    <glyph glyph-name="uni0162" unicode="&#x162;" horiz-adv-x="546" 
d="M304 0h-10l-29 -37c4 1 9 1 13 1c49 0 86 -39 86 -89s-41 -90 -94 -90s-93 40 -93 90h38c0 -31 25 -55 55 -55c31 0 55 24 55 55c0 32 -24 55 -55 55c-14 0 -29 -7 -37 -15l-34 16l52 69h-9v632h-210v58h482v-58h-210v-632z" />
    <glyph glyph-name="uni021A" unicode="&#x21a;" horiz-adv-x="546" 
d="M32 690h482v-58h-210v-632h-62v632h-210v58zM222 -216l31 144h62l-45 -144h-48z" />
    <glyph glyph-name="uni1E6C" unicode="&#x1e6c;" horiz-adv-x="546" 
d="M32 690h482v-58h-210v-632h-62v632h-210v58zM274 -83c23 0 41 -18 41 -41c0 -24 -18 -42 -41 -42c-24 0 -42 18 -42 42c0 23 18 41 42 41z" />
    <glyph glyph-name="U" unicode="U" horiz-adv-x="697" 
d="M349 -12c-158 0 -278 118 -278 275v427h62v-427c0 -122 92 -215 216 -215c123 0 215 93 215 215v427h62v-427c0 -157 -120 -275 -277 -275z" />
    <glyph glyph-name="Uacute" unicode="&#xda;" horiz-adv-x="697" 
d="M310 763l105 122h77l-119 -122h-63zM349 -12c-158 0 -278 118 -278 275v427h62v-427c0 -122 92 -215 216 -215c123 0 215 93 215 215v427h62v-427c0 -157 -120 -275 -277 -275z" />
    <glyph glyph-name="Ubreve" unicode="&#x16c;" horiz-adv-x="697" 
d="M349 753c-72 0 -126 54 -126 123h47c0 -45 34 -79 79 -79c44 0 78 34 78 79h47c0 -69 -54 -123 -125 -123zM349 -12c-158 0 -278 118 -278 275v427h62v-427c0 -122 92 -215 216 -215c123 0 215 93 215 215v427h62v-427c0 -157 -120 -275 -277 -275z" />
    <glyph glyph-name="Ucircumflex" unicode="&#xdb;" horiz-adv-x="697" 
d="M349 852l-81 -89h-56l101 122h72l101 -122h-56zM564 690h62v-427c0 -157 -120 -275 -277 -275c-158 0 -278 118 -278 275v427h62v-427c0 -122 92 -215 216 -215c123 0 215 93 215 215v427z" />
    <glyph glyph-name="uni0214" unicode="&#x214;" horiz-adv-x="697" 
d="M232 763l-91 122h67l81 -122h-57zM413 763l-91 122h67l81 -122h-57zM349 -12c-158 0 -278 118 -278 275v427h62v-427c0 -122 92 -215 216 -215c123 0 215 93 215 215v427h62v-427c0 -157 -120 -275 -277 -275z" />
    <glyph glyph-name="Udieresis" unicode="&#xdc;" horiz-adv-x="697" 
d="M248 773c-22 0 -40 17 -40 40s18 40 40 40c23 0 41 -17 41 -40s-18 -40 -41 -40zM449 773c-22 0 -40 17 -40 40s18 40 40 40c23 0 41 -17 41 -40s-18 -40 -41 -40zM349 -12c-158 0 -278 118 -278 275v427h62v-427c0 -122 92 -215 216 -215c123 0 215 93 215 215v427h62
v-427c0 -157 -120 -275 -277 -275z" />
    <glyph glyph-name="uni1EE4" unicode="&#x1ee4;" horiz-adv-x="697" 
d="M349 -12c-158 0 -278 118 -278 275v427h62v-427c0 -122 92 -215 216 -215c123 0 215 93 215 215v427h62v-427c0 -157 -120 -275 -277 -275zM349 -166c-24 0 -42 18 -42 42c0 23 18 41 42 41c23 0 41 -18 41 -41c0 -24 -18 -42 -41 -42z" />
    <glyph glyph-name="Ugrave" unicode="&#xd9;" horiz-adv-x="697" 
d="M324 763l-119 122h77l105 -122h-63zM349 -12c-158 0 -278 118 -278 275v427h62v-427c0 -122 92 -215 216 -215c123 0 215 93 215 215v427h62v-427c0 -157 -120 -275 -277 -275z" />
    <glyph glyph-name="Uhungarumlaut" unicode="&#x170;" horiz-adv-x="697" 
d="M226 763l81 122h67l-91 -122h-57zM407 763l81 122h67l-91 -122h-57zM349 -12c-158 0 -278 118 -278 275v427h62v-427c0 -122 92 -215 216 -215c123 0 215 93 215 215v427h62v-427c0 -157 -120 -275 -277 -275z" />
    <glyph glyph-name="uni0216" unicode="&#x216;" horiz-adv-x="697" 
d="M223 756c0 70 54 123 126 123c71 0 125 -53 125 -123h-47c0 46 -34 80 -78 80c-45 0 -79 -34 -79 -80h-47zM349 -12c-158 0 -278 118 -278 275v427h62v-427c0 -122 92 -215 216 -215c123 0 215 93 215 215v427h62v-427c0 -157 -120 -275 -277 -275z" />
    <glyph glyph-name="Umacron" unicode="&#x16a;" horiz-adv-x="697" 
d="M238 781v50h221v-50h-221zM349 -12c-158 0 -278 118 -278 275v427h62v-427c0 -122 92 -215 216 -215c123 0 215 93 215 215v427h62v-427c0 -157 -120 -275 -277 -275z" />
    <glyph glyph-name="Uogonek" unicode="&#x172;" horiz-adv-x="697" 
d="M564 690h62v-427c0 -126 -77 -227 -189 -262c-61 -29 -97 -68 -97 -108c0 -34 26 -57 58 -57c22 0 45 9 62 23v-46c-19 -13 -46 -21 -73 -21c-54 0 -95 39 -95 90c0 42 28 80 70 106h-13c-158 0 -278 118 -278 275v427h62v-427c0 -122 92 -215 216 -215
c123 0 215 93 215 215v427z" />
    <glyph glyph-name="Uring" unicode="&#x16e;" horiz-adv-x="697" 
d="M348 749c-43 0 -77 33 -77 76c0 44 34 77 77 77c44 0 78 -33 78 -77c0 -43 -34 -76 -78 -76zM348 782c24 0 43 18 43 43s-19 44 -43 44s-42 -19 -42 -44s18 -43 42 -43zM349 -12c-158 0 -278 118 -278 275v427h62v-427c0 -122 92 -215 216 -215c123 0 215 93 215 215v427
h62v-427c0 -157 -120 -275 -277 -275z" />
    <glyph glyph-name="Utilde" unicode="&#x168;" horiz-adv-x="697" 
d="M417 771c-63 0 -82 62 -132 62c-33 0 -57 -25 -57 -57h-43c0 59 37 104 93 104c64 0 83 -62 133 -62c32 0 56 24 56 57h44c0 -60 -37 -104 -94 -104zM349 -12c-158 0 -278 118 -278 275v427h62v-427c0 -122 92 -215 216 -215c123 0 215 93 215 215v427h62v-427
c0 -157 -120 -275 -277 -275z" />
    <glyph glyph-name="V" unicode="V" horiz-adv-x="704" 
d="M609 690h68l-292 -690h-66l-292 690h70l256 -612z" />
    <glyph glyph-name="W" unicode="W" horiz-adv-x="1129" 
d="M1030 690h67l-250 -690h-65l-217 603l-218 -603h-65l-250 690h68l216 -612l220 612h59l220 -611z" />
    <glyph glyph-name="Wacute" unicode="&#x1e82;" horiz-adv-x="1129" 
d="M708 885l-119 -122h-63l105 122h77zM1030 690h67l-250 -690h-65l-217 603l-218 -603h-65l-250 690h68l216 -612l220 612h59l220 -611z" />
    <glyph glyph-name="Wcircumflex" unicode="&#x174;" horiz-adv-x="1129" 
d="M565 852l-81 -89h-56l101 122h72l101 -122h-56zM1030 690h67l-250 -690h-65l-217 603l-218 -603h-65l-250 690h68l216 -612l220 612h59l220 -611z" />
    <glyph glyph-name="Wdieresis" unicode="&#x1e84;" horiz-adv-x="1129" 
d="M464 773c-22 0 -40 17 -40 40s18 40 40 40c23 0 41 -17 41 -40s-18 -40 -41 -40zM665 773c-22 0 -40 17 -40 40s18 40 40 40c23 0 41 -17 41 -40s-18 -40 -41 -40zM1030 690h67l-250 -690h-65l-217 603l-218 -603h-65l-250 690h68l216 -612l220 612h59l220 -611z" />
    <glyph glyph-name="Wgrave" unicode="&#x1e80;" horiz-adv-x="1129" 
d="M603 763h-63l-119 122h77zM1030 690h67l-250 -690h-65l-217 603l-218 -603h-65l-250 690h68l216 -612l220 612h59l220 -611z" />
    <glyph glyph-name="X" unicode="X" horiz-adv-x="710" 
d="M677 0h-76l-246 305l-246 -305h-76l279 347l-275 343h77l242 -304l241 304h76l-275 -343z" />
    <glyph glyph-name="Y" unicode="Y" horiz-adv-x="677" 
d="M590 690h70l-291 -426v-264h-61v264l-291 426h71l252 -366z" />
    <glyph glyph-name="Yacute" unicode="&#xdd;" horiz-adv-x="677" 
d="M482 885l-119 -122h-63l105 122h77zM590 690h70l-291 -426v-264h-61v264l-291 426h71l252 -366z" />
    <glyph glyph-name="Ycircumflex" unicode="&#x176;" horiz-adv-x="677" 
d="M339 852l-81 -89h-56l101 122h72l101 -122h-56zM590 690h70l-291 -426v-264h-61v264l-291 426h71l252 -366z" />
    <glyph glyph-name="Ydieresis" unicode="&#x178;" horiz-adv-x="677" 
d="M238 773c-22 0 -40 17 -40 40s18 40 40 40c23 0 41 -17 41 -40s-18 -40 -41 -40zM439 773c-22 0 -40 17 -40 40s18 40 40 40c23 0 41 -17 41 -40s-18 -40 -41 -40zM590 690h70l-291 -426v-264h-61v264l-291 426h71l252 -366z" />
    <glyph glyph-name="Ygrave" unicode="&#x1ef2;" horiz-adv-x="677" 
d="M377 763h-63l-119 122h77zM590 690h70l-291 -426v-264h-61v264l-291 426h71l252 -366z" />
    <glyph glyph-name="uni0232" unicode="&#x232;" horiz-adv-x="677" 
d="M450 831v-50h-221v50h221zM590 690h70l-291 -426v-264h-61v264l-291 426h71l252 -366z" />
    <glyph glyph-name="uni1EF8" unicode="&#x1ef8;" horiz-adv-x="677" 
d="M276 833c-33 0 -57 -25 -57 -57h-43c0 59 37 104 93 104c64 0 83 -62 133 -62c32 0 56 24 56 57h44c0 -60 -37 -104 -94 -104c-63 0 -82 62 -132 62zM590 690h70l-291 -426v-264h-61v264l-291 426h71l252 -366z" />
    <glyph glyph-name="Z" unicode="Z" horiz-adv-x="614" 
d="M129 58h440v-58h-524v44l433 588h-429v58h513v-44z" />
    <glyph glyph-name="Zacute" unicode="&#x179;" horiz-adv-x="614" 
d="M449 885l-119 -122h-63l105 122h77zM129 58h440v-58h-524v44l433 588h-429v58h513v-44z" />
    <glyph glyph-name="Zcaron" unicode="&#x17d;" horiz-adv-x="614" 
d="M342 763h-72l-101 122h56l81 -89l81 89h56zM129 58h440v-58h-524v44l433 588h-429v58h513v-44z" />
    <glyph glyph-name="Zdotaccent" unicode="&#x17b;" horiz-adv-x="614" 
d="M306 773c-24 0 -42 18 -42 41c0 24 18 42 42 42c23 0 41 -18 41 -42c0 -23 -18 -41 -41 -41zM129 58h440v-58h-524v44l433 588h-429v58h513v-44z" />
    <glyph glyph-name="uni1E92" unicode="&#x1e92;" horiz-adv-x="614" 
d="M129 58h440v-58h-524v44l433 588h-429v58h513v-44zM306 -83c23 0 41 -18 41 -41c0 -24 -18 -42 -41 -42c-24 0 -42 18 -42 42c0 23 18 41 42 41z" />
    <glyph glyph-name="K.ss02" horiz-adv-x="618" 
d="M525 0l-283 309l-92 -99v-210h-61v690h61v-387l369 387h78l-314 -337l321 -353h-79z" />
    <glyph glyph-name="uni0136.ss02" horiz-adv-x="618" 
d="M283 353l321 -353h-79l-283 309l-92 -99v-210h-61v690h61v-387l369 387h78zM270 -216l31 144h62l-45 -144h-48z" />
    <glyph glyph-name="M.ss02" horiz-adv-x="858" 
d="M692 690h77v-690h-61v600l-262 -441h-34l-262 441v-600h-61v690h79l262 -441z" />
    <glyph glyph-name="R.ss02" horiz-adv-x="555" 
d="M441 0l-202 292h-89v-292h-61v690h213c115 0 203 -86 203 -200c0 -110 -83 -194 -194 -198l206 -292h-76zM150 632v-286h151c80 0 140 61 140 143s-60 143 -140 143h-151z" />
    <glyph glyph-name="Racute.ss02" horiz-adv-x="555" 
d="M423 885l-119 -122h-63l105 122h77zM441 0l-202 292h-89v-292h-61v690h213c115 0 203 -86 203 -200c0 -110 -83 -194 -194 -198l206 -292h-76zM150 632v-286h151c80 0 140 61 140 143s-60 143 -140 143h-151z" />
    <glyph glyph-name="Rcaron.ss02" horiz-adv-x="555" 
d="M316 763h-72l-101 122h56l81 -89l81 89h56zM441 0l-202 292h-89v-292h-61v690h213c115 0 203 -86 203 -200c0 -110 -83 -194 -194 -198l206 -292h-76zM150 632v-286h151c80 0 140 61 140 143s-60 143 -140 143h-151z" />
    <glyph glyph-name="uni0156.ss02" horiz-adv-x="555" 
d="M311 292l206 -292h-76l-202 292h-89v-292h-61v690h213c115 0 203 -86 203 -200c0 -110 -83 -194 -194 -198zM150 632v-286h151c80 0 140 61 140 143s-60 143 -140 143h-151zM238 -216l31 144h62l-45 -144h-48z" />
    <glyph glyph-name="uni0210.ss02" horiz-adv-x="555" 
d="M220 763h-57l-91 122h67zM401 763h-57l-91 122h67zM441 0l-202 292h-89v-292h-61v690h213c115 0 203 -86 203 -200c0 -110 -83 -194 -194 -198l206 -292h-76zM150 632v-286h151c80 0 140 61 140 143s-60 143 -140 143h-151z" />
    <glyph glyph-name="uni1E5A.ss02" horiz-adv-x="555" 
d="M311 292l206 -292h-76l-202 292h-89v-292h-61v690h213c115 0 203 -86 203 -200c0 -110 -83 -194 -194 -198zM150 632v-286h151c80 0 140 61 140 143s-60 143 -140 143h-151zM290 -83c23 0 41 -18 41 -41c0 -24 -18 -42 -41 -42c-24 0 -42 18 -42 42c0 23 18 41 42 41z
" />
    <glyph glyph-name="uni0212.ss02" horiz-adv-x="555" 
d="M280 836c-45 0 -79 -34 -79 -80h-47c0 70 54 123 126 123c71 0 125 -53 125 -123h-47c0 46 -34 80 -78 80zM441 0l-202 292h-89v-292h-61v690h213c115 0 203 -86 203 -200c0 -110 -83 -194 -194 -198l206 -292h-76zM150 632v-286h151c80 0 140 61 140 143
s-60 143 -140 143h-151z" />
    <glyph glyph-name="G.ss03" horiz-adv-x="835" 
d="M426 354h341v-354h-55v170c-52 -113 -161 -182 -302 -182c-204 0 -359 154 -359 357s155 357 359 357c164 0 297 -98 340 -239h-69c-41 107 -144 179 -271 179c-168 0 -296 -127 -296 -297s128 -297 296 -297c154 0 273 105 292 250h-276v56z" />
    <glyph glyph-name="uni01F4.ss03" horiz-adv-x="835" 
d="M554 885l-119 -122h-63l105 122h77zM426 354h341v-354h-55v170c-52 -113 -161 -182 -302 -182c-204 0 -359 154 -359 357s155 357 359 357c164 0 297 -98 340 -239h-69c-41 107 -144 179 -271 179c-168 0 -296 -127 -296 -297s128 -297 296 -297c154 0 273 105 292 250
h-276v56z" />
    <glyph glyph-name="Gbreve.ss03" horiz-adv-x="835" 
d="M411 753c-72 0 -126 54 -126 123h47c0 -45 34 -79 79 -79c44 0 78 34 78 79h47c0 -69 -54 -123 -125 -123zM426 354h341v-354h-55v170c-52 -113 -161 -182 -302 -182c-204 0 -359 154 -359 357s155 357 359 357c164 0 297 -98 340 -239h-69c-41 107 -144 179 -271 179
c-168 0 -296 -127 -296 -297s128 -297 296 -297c154 0 273 105 292 250h-276v56z" />
    <glyph glyph-name="Gcaron.ss03" horiz-adv-x="835" 
d="M446 763h-72l-101 122h56l81 -89l81 89h56zM426 354h341v-354h-55v170c-52 -113 -161 -182 -302 -182c-204 0 -359 154 -359 357s155 357 359 357c164 0 297 -98 340 -239h-69c-41 107 -144 179 -271 179c-168 0 -296 -127 -296 -297s128 -297 296 -297
c154 0 273 105 292 250h-276v56z" />
    <glyph glyph-name="Gcircumflex.ss03" horiz-adv-x="835" 
d="M410 852l-81 -89h-56l101 122h72l101 -122h-56zM426 354h341v-354h-55v170c-52 -113 -161 -182 -302 -182c-204 0 -359 154 -359 357s155 357 359 357c164 0 297 -98 340 -239h-69c-41 107 -144 179 -271 179c-168 0 -296 -127 -296 -297s128 -297 296 -297
c154 0 273 105 292 250h-276v56z" />
    <glyph glyph-name="uni0122.ss03" horiz-adv-x="835" 
d="M426 354h341v-354h-55v170c-52 -113 -161 -182 -302 -182c-204 0 -359 154 -359 357s155 357 359 357c164 0 297 -98 340 -239h-69c-41 107 -144 179 -271 179c-168 0 -296 -127 -296 -297s128 -297 296 -297c154 0 273 105 292 250h-276v56zM359 -216l31 144h62
l-45 -144h-48z" />
    <glyph glyph-name="Gdotaccent.ss03" horiz-adv-x="835" 
d="M411 773c-24 0 -42 18 -42 41c0 24 18 42 42 42c23 0 41 -18 41 -42c0 -23 -18 -41 -41 -41zM426 354h341v-354h-55v170c-52 -113 -161 -182 -302 -182c-204 0 -359 154 -359 357s155 357 359 357c164 0 297 -98 340 -239h-69c-41 107 -144 179 -271 179
c-168 0 -296 -127 -296 -297s128 -297 296 -297c154 0 273 105 292 250h-276v56z" />
    <glyph glyph-name="J.ss04" horiz-adv-x="537" 
d="M466 690v-489c0 -121 -93 -213 -215 -213c-123 0 -216 92 -216 213h64c0 -88 65 -153 152 -153c88 0 153 65 153 153v431h-225v58h287z" />
    <glyph glyph-name="Jcircumflex.ss04" horiz-adv-x="537" 
d="M320 852l-81 -89h-56l101 122h72l101 -122h-56zM466 690v-489c0 -121 -93 -213 -215 -213c-123 0 -216 92 -216 213h64c0 -88 65 -153 152 -153c88 0 153 65 153 153v431h-225v58h287z" />
    <glyph glyph-name="B.ss05" horiz-adv-x="556" 
d="M382 367c83 -18 140 -91 140 -181c0 -107 -81 -186 -188 -186h-245v690h213c99 0 174 -73 174 -171c0 -70 -42 -129 -94 -152zM321 56c78 0 137 60 137 139c0 78 -59 137 -137 137h-128v53h97c66 0 122 54 122 125s-52 124 -122 124h-141v-578h172z" />
    <glyph glyph-name="P.ss05" horiz-adv-x="553" 
d="M304 690c120 0 211 -90 211 -208c0 -119 -91 -209 -211 -209h-109v58h108c85 0 148 65 148 151s-63 150 -148 150h-153v-632h-61v690h215z" />
    <glyph glyph-name="R.ss05" horiz-adv-x="554" 
d="M277 298l241 -298h-77l-249 301v45h109c80 0 140 61 140 143s-60 143 -140 143h-151v-632h-61v690h213c115 0 203 -86 203 -200c0 -98 -68 -175 -161 -186z" />
    <glyph glyph-name="Racute.ss05" horiz-adv-x="554" 
d="M423 885l-119 -122h-63l105 122h77zM277 298l241 -298h-77l-249 301v45h109c80 0 140 61 140 143s-60 143 -140 143h-151v-632h-61v690h213c115 0 203 -86 203 -200c0 -98 -68 -175 -161 -186z" />
    <glyph glyph-name="Rcaron.ss05" horiz-adv-x="554" 
d="M316 763h-72l-101 122h56l81 -89l81 89h56zM277 298l241 -298h-77l-249 301v45h109c80 0 140 61 140 143s-60 143 -140 143h-151v-632h-61v690h213c115 0 203 -86 203 -200c0 -98 -68 -175 -161 -186z" />
    <glyph glyph-name="uni0156.ss05" horiz-adv-x="554" 
d="M277 298l241 -298h-77l-249 301v45h109c80 0 140 61 140 143s-60 143 -140 143h-151v-632h-61v690h213c115 0 203 -86 203 -200c0 -98 -68 -175 -161 -186zM238 -216l31 144h62l-45 -144h-48z" />
    <glyph glyph-name="uni0210.ss05" horiz-adv-x="554" 
d="M220 763h-57l-91 122h67zM401 763h-57l-91 122h67zM277 298l241 -298h-77l-249 301v45h109c80 0 140 61 140 143s-60 143 -140 143h-151v-632h-61v690h213c115 0 203 -86 203 -200c0 -98 -68 -175 -161 -186z" />
    <glyph glyph-name="uni1E5A.ss05" horiz-adv-x="554" 
d="M277 298l241 -298h-77l-249 301v45h109c80 0 140 61 140 143s-60 143 -140 143h-151v-632h-61v690h213c115 0 203 -86 203 -200c0 -98 -68 -175 -161 -186zM290 -83c23 0 41 -18 41 -41c0 -24 -18 -42 -41 -42c-24 0 -42 18 -42 42c0 23 18 41 42 41z" />
    <glyph glyph-name="uni0212.ss05" horiz-adv-x="554" 
d="M280 836c-45 0 -79 -34 -79 -80h-47c0 70 54 123 126 123c71 0 125 -53 125 -123h-47c0 46 -34 80 -78 80zM277 298l241 -298h-77l-249 301v45h109c80 0 140 61 140 143s-60 143 -140 143h-151v-632h-61v690h213c115 0 203 -86 203 -200c0 -98 -68 -175 -161 -186z" />
    <glyph glyph-name="A.ss06" unicode="&#xe000;" horiz-adv-x="710" 
d="M697 -33c45 -106 127 -154 268 -154v-60c-173 0 -280 69 -337 213l-93 223h-362l-79 -189h-67l291 690h74zM197 246h315l-158 378z" />
    <glyph glyph-name="H.ss06" unicode="&#xe001;" horiz-adv-x="736" 
d="M647 -15c0 -104 76 -181 179 -181v-60c-139 0 -241 102 -241 241v333h-435v-318h-61v690h61v-314h435v314h62v-705z" />
    <glyph glyph-name="K.ss06" unicode="&#xe002;" horiz-adv-x="601" 
d="M611 -20c152 -131 234 -167 372 -167v-60c-163 0 -265 50 -453 227l-380 343v-323h-61v690h61v-316l353 316h79l-374 -342z" />
    <glyph glyph-name="M.ss06" unicode="&#xe003;" horiz-adv-x="893" 
d="M804 -15c0 -104 76 -181 179 -181v-60c-139 0 -240 102 -240 241v606l-272 -591h-49l-272 591v-591h-61v690h82l276 -602l276 602h81v-705z" />
    <glyph glyph-name="R.ss06" unicode="&#xe004;" horiz-adv-x="554" 
d="M544 -26c125 -128 209 -160 358 -160v-60c-173 0 -285 40 -438 220l-302 318h-12v-292h-61v690h213c115 0 203 -86 203 -200c0 -113 -87 -198 -202 -198h-63zM150 632v-286h151c80 0 140 61 140 143s-60 143 -140 143h-151z" />
    <glyph glyph-name="H.ss07" unicode="&#xe005;" horiz-adv-x="736" 
d="M795 912c122 0 210 -88 210 -210h-62c0 86 -63 150 -148 150s-148 -64 -148 -150v-702h-62v318h-435v-318h-61v690h61v-314h435v326c0 122 89 210 210 210z" />
    <glyph glyph-name="N.ss07" unicode="&#xe006;" horiz-adv-x="743" 
d="M803 912c121 0 210 -88 210 -210h-63c0 86 -63 150 -147 150c-85 0 -148 -64 -148 -150v-702h-67l-438 592v-592h-61v690h66l438 -592v604c0 122 88 210 210 210z" />
    <glyph glyph-name="U.ss07" unicode="&#xe007;" horiz-adv-x="697" 
d="M349 -12c-158 0 -278 118 -278 275v427h62v-427c0 -122 92 -215 216 -215c123 0 215 93 215 215v439c0 122 89 210 210 210c122 0 210 -88 210 -210h-62c0 86 -63 150 -148 150s-148 -64 -148 -150v-439c0 -157 -120 -275 -277 -275z" />
    <glyph glyph-name="A.swsh" unicode="&#xe008;" horiz-adv-x="710" 
d="M614 0l-79 189h-362l-79 -189h-67l267 632h-320c-97 0 -170 -73 -170 -169c0 -97 73 -170 170 -170v-58c-132 0 -230 98 -230 228s98 227 230 227h418l291 -690h-69zM197 246h315l-158 378z" />
    <glyph glyph-name="B.swsh" unicode="&#xe009;" horiz-adv-x="556" 
d="M382 367c83 -18 140 -91 140 -181c0 -107 -81 -186 -188 -186h-245v632h-188c-97 0 -170 -73 -170 -169c0 -97 73 -170 170 -170v-58c-132 0 -230 98 -230 228s98 227 230 227h401c99 0 174 -73 174 -171c0 -70 -42 -129 -94 -152zM290 634h-141v-249h141
c66 0 122 54 122 125s-52 124 -122 124zM321 56c78 0 137 60 137 139c0 78 -59 137 -137 137h-172v-276h172z" />
    <glyph glyph-name="D.swsh" unicode="&#xe00a;" horiz-adv-x="750" 
d="M352 690c198 0 347 -148 347 -345s-149 -345 -347 -345h-263v632h-188c-97 0 -170 -73 -170 -169c0 -97 73 -170 170 -170v-58c-132 0 -230 98 -230 228s98 227 230 227h451zM351 58c163 0 285 123 285 287s-122 287 -285 287h-201v-574h201z" />
    <glyph glyph-name="E.swsh" unicode="&#xe00b;" horiz-adv-x="518" 
d="M150 58h318v-58h-379v632h-188c-97 0 -170 -73 -170 -169c0 -97 73 -170 170 -170v-58c-132 0 -230 98 -230 228s98 227 230 227h562v-58h-313v-256h280v-58h-280v-260z" />
    <glyph glyph-name="F.swsh" unicode="&#xe00c;" horiz-adv-x="489" 
d="M448 632h-298v-262h255v-58h-255v-312h-61v632h-188c-97 0 -170 -73 -170 -169c0 -97 73 -170 170 -170v-58c-132 0 -230 98 -230 228s98 227 230 227h547v-58z" />
    <glyph glyph-name="H.swsh" unicode="&#xe00d;" horiz-adv-x="736" 
d="M585 690h62v-690h-62v318h-435v-318h-61v632h-188c-97 0 -170 -73 -170 -169c0 -97 73 -170 170 -170v-58c-132 0 -230 98 -230 228s98 227 230 227h249v-314h435v314z" />
    <glyph glyph-name="I.swsh" unicode="&#xe00e;" horiz-adv-x="239" 
d="M150 690v-690h-61v632h-188c-97 0 -170 -73 -170 -169c0 -97 73 -170 170 -170v-58c-132 0 -230 98 -230 228s98 227 230 227h249z" />
    <glyph glyph-name="K.swsh" unicode="&#xe00f;" horiz-adv-x="601" 
d="M589 0h-81l-358 323v-323h-61v632h-188c-97 0 -170 -73 -170 -169c0 -97 73 -170 170 -170v-58c-132 0 -230 98 -230 228s98 227 230 227h249v-316l353 316h79l-374 -342z" />
    <glyph glyph-name="L.swsh" unicode="&#xe010;" horiz-adv-x="472" 
d="M150 58h288v-58h-349v632h-188c-97 0 -170 -73 -170 -169c0 -97 73 -170 170 -170v-58c-132 0 -230 98 -230 228s98 227 230 227h249v-632z" />
    <glyph glyph-name="M.swsh" unicode="&#xe011;" horiz-adv-x="893" 
d="M723 690h81v-690h-61v591l-272 -591h-49l-272 591v-591h-61v632h-188c-97 0 -170 -73 -170 -169c0 -97 73 -170 170 -170v-58c-132 0 -230 98 -230 228s98 227 230 227h270l276 -602z" />
    <glyph glyph-name="N.swsh" unicode="&#xe012;" horiz-adv-x="743" 
d="M593 690h62v-690h-67l-438 592v-592h-61v632h-188c-97 0 -170 -73 -170 -169c0 -97 73 -170 170 -170v-58c-132 0 -230 98 -230 228s98 227 230 227h254l438 -592v592z" />
    <glyph glyph-name="P.swsh" unicode="&#xe013;" horiz-adv-x="553" 
d="M304 690c120 0 211 -90 211 -208c0 -119 -91 -209 -211 -209h-154v-273h-61v632h-188c-97 0 -170 -73 -170 -169c0 -97 73 -170 170 -170v-58c-132 0 -230 98 -230 228s98 227 230 227h403zM303 331c85 0 148 65 148 151s-63 150 -148 150h-153v-301h153z" />
    <glyph glyph-name="R.swsh" unicode="&#xe014;" horiz-adv-x="554" 
d="M439 0l-277 292h-12v-292h-61v632h-188c-97 0 -170 -73 -170 -169c0 -97 73 -170 170 -170v-58c-132 0 -230 98 -230 228s98 227 230 227h401c115 0 203 -86 203 -200c0 -113 -87 -198 -202 -198h-63l278 -292h-79zM150 632v-286h151c80 0 140 61 140 143
s-60 143 -140 143h-151z" />
    <glyph glyph-name="T.swsh" unicode="&#xe015;" horiz-adv-x="546" 
d="M514 690v-58h-210v-632h-62v632h-287c-97 0 -170 -73 -170 -169c0 -97 73 -170 170 -170v-58c-132 0 -230 98 -230 228s98 227 230 227h559z" />
    <glyph glyph-name="U.swsh" unicode="&#xe016;" horiz-adv-x="697" 
d="M564 690h62v-427c0 -157 -120 -275 -277 -275c-158 0 -278 118 -278 275v369h-184c-97 0 -170 -73 -170 -169c0 -97 73 -170 170 -170v-58c-132 0 -230 98 -230 228s98 227 230 227h246v-427c0 -122 92 -215 216 -215c123 0 215 93 215 215v427z" />
    <glyph glyph-name="V.swsh" unicode="&#xe017;" horiz-adv-x="704" 
d="M609 690h68l-292 -690h-66l-267 632h-105c-97 0 -170 -73 -170 -169c0 -97 73 -170 170 -170v-58c-132 0 -230 98 -230 228s98 227 230 227h150l256 -612z" />
    <glyph glyph-name="W.swsh" unicode="&#xe018;" horiz-adv-x="1129" 
d="M1030 690h67l-250 -690h-65l-217 603l-218 -603h-65l-229 632h-101c-97 0 -170 -73 -170 -169c0 -97 73 -170 170 -170v-58c-132 0 -230 98 -230 228s98 227 230 227h148l216 -612l220 612h59l220 -611z" />
    <glyph glyph-name="Y.swsh" unicode="&#xe019;" horiz-adv-x="677" 
d="M590 690h70l-291 -426v-264h-61v264l-251 368h-114c-97 0 -170 -73 -170 -169c0 -97 73 -170 170 -170v-58c-132 0 -230 98 -230 228s98 227 230 227h145l252 -366z" />
    <glyph glyph-name="a" unicode="a" 
d="M526 510h58v-510h-58v122c-42 -81 -122 -134 -220 -134c-148 0 -259 115 -259 267s111 267 259 267c98 0 178 -53 220 -134v122zM316 44c120 0 210 91 210 211s-90 211 -210 211c-119 0 -209 -91 -209 -211s90 -211 209 -211z" />
    <glyph glyph-name="aacute" unicode="&#xe1;" 
d="M477 705l-119 -122h-63l105 122h77zM526 510h58v-510h-58v122c-42 -81 -122 -134 -220 -134c-148 0 -259 115 -259 267s111 267 259 267c98 0 178 -53 220 -134v122zM316 44c120 0 210 91 210 211s-90 211 -210 211c-119 0 -209 -91 -209 -211s90 -211 209 -211z" />
    <glyph glyph-name="abreve" unicode="&#x103;" 
d="M334 573c-72 0 -126 54 -126 123h47c0 -45 34 -79 79 -79c44 0 78 34 78 79h47c0 -69 -54 -123 -125 -123zM526 510h58v-510h-58v122c-42 -81 -122 -134 -220 -134c-148 0 -259 115 -259 267s111 267 259 267c98 0 178 -53 220 -134v122zM316 44c120 0 210 91 210 211
s-90 211 -210 211c-119 0 -209 -91 -209 -211s90 -211 209 -211z" />
    <glyph glyph-name="uni01CE" unicode="&#x1ce;" 
d="M369 583h-72l-101 122h56l81 -89l81 89h56zM526 510h58v-510h-58v122c-42 -81 -122 -134 -220 -134c-148 0 -259 115 -259 267s111 267 259 267c98 0 178 -53 220 -134v122zM316 44c120 0 210 91 210 211s-90 211 -210 211c-119 0 -209 -91 -209 -211s90 -211 209 -211z
" />
    <glyph glyph-name="acircumflex" unicode="&#xe2;" 
d="M333 672l-81 -89h-56l101 122h72l101 -122h-56zM526 510h58v-510h-58v122c-42 -81 -122 -134 -220 -134c-148 0 -259 115 -259 267s111 267 259 267c98 0 178 -53 220 -134v122zM316 44c120 0 210 91 210 211s-90 211 -210 211c-119 0 -209 -91 -209 -211
s90 -211 209 -211z" />
    <glyph glyph-name="uni0201" unicode="&#x201;" 
d="M274 583h-57l-91 122h67zM455 583h-57l-91 122h67zM526 510h58v-510h-58v122c-42 -81 -122 -134 -220 -134c-148 0 -259 115 -259 267s111 267 259 267c98 0 178 -53 220 -134v122zM316 44c120 0 210 91 210 211s-90 211 -210 211c-119 0 -209 -91 -209 -211
s90 -211 209 -211z" />
    <glyph glyph-name="adieresis" unicode="&#xe4;" 
d="M232 593c-22 0 -40 17 -40 40s18 40 40 40c23 0 41 -17 41 -40s-18 -40 -41 -40zM433 593c-22 0 -40 17 -40 40s18 40 40 40c23 0 41 -17 41 -40s-18 -40 -41 -40zM526 510h58v-510h-58v122c-42 -81 -122 -134 -220 -134c-148 0 -259 115 -259 267s111 267 259 267
c98 0 178 -53 220 -134v122zM316 44c120 0 210 91 210 211s-90 211 -210 211c-119 0 -209 -91 -209 -211s90 -211 209 -211z" />
    <glyph glyph-name="uni1EA1" unicode="&#x1ea1;" 
d="M526 510h58v-510h-58v122c-42 -81 -122 -134 -220 -134c-148 0 -259 115 -259 267s111 267 259 267c98 0 178 -53 220 -134v122zM316 44c120 0 210 91 210 211s-90 211 -210 211c-119 0 -209 -91 -209 -211s90 -211 209 -211zM333 -83c23 0 41 -18 41 -41
c0 -24 -18 -42 -41 -42c-24 0 -42 18 -42 42c0 23 18 41 42 41z" />
    <glyph glyph-name="agrave" unicode="&#xe0;" 
d="M371 583h-63l-119 122h77zM526 510h58v-510h-58v122c-42 -81 -122 -134 -220 -134c-148 0 -259 115 -259 267s111 267 259 267c98 0 178 -53 220 -134v122zM316 44c120 0 210 91 210 211s-90 211 -210 211c-119 0 -209 -91 -209 -211s90 -211 209 -211z" />
    <glyph glyph-name="uni0203" unicode="&#x203;" 
d="M334 656c-45 0 -79 -34 -79 -80h-47c0 70 54 123 126 123c71 0 125 -53 125 -123h-47c0 46 -34 80 -78 80zM526 510h58v-510h-58v122c-42 -81 -122 -134 -220 -134c-148 0 -259 115 -259 267s111 267 259 267c98 0 178 -53 220 -134v122zM316 44c120 0 210 91 210 211
s-90 211 -210 211c-119 0 -209 -91 -209 -211s90 -211 209 -211z" />
    <glyph glyph-name="amacron" unicode="&#x101;" 
d="M444 651v-50h-221v50h221zM526 510h58v-510h-58v122c-42 -81 -122 -134 -220 -134c-148 0 -259 115 -259 267s111 267 259 267c98 0 178 -53 220 -134v122zM316 44c120 0 210 91 210 211s-90 211 -210 211c-119 0 -209 -91 -209 -211s90 -211 209 -211z" />
    <glyph glyph-name="aogonek" unicode="&#x105;" 
d="M536 -169c22 0 45 9 62 23v-46c-19 -13 -46 -21 -73 -21c-54 0 -95 39 -95 90c0 52 42 97 101 123h-5v122c-42 -81 -122 -134 -220 -134c-148 0 -259 115 -259 267s111 267 259 267c98 0 178 -53 220 -134v122h58v-510h-1c-66 -30 -105 -70 -105 -112
c0 -34 26 -57 58 -57zM316 44c120 0 210 91 210 211s-90 211 -210 211c-119 0 -209 -91 -209 -211s90 -211 209 -211z" />
    <glyph glyph-name="aring" unicode="&#xe5;" 
d="M333 569c-43 0 -77 33 -77 76c0 44 34 77 77 77c44 0 78 -33 78 -77c0 -43 -34 -76 -78 -76zM333 689c-24 0 -42 -19 -42 -44s18 -43 42 -43s43 18 43 43s-19 44 -43 44zM526 510h58v-510h-58v122c-42 -81 -122 -134 -220 -134c-148 0 -259 115 -259 267s111 267 259 267
c98 0 178 -53 220 -134v122zM316 44c120 0 210 91 210 211s-90 211 -210 211c-119 0 -209 -91 -209 -211s90 -211 209 -211z" />
    <glyph glyph-name="atilde" unicode="&#xe3;" 
d="M270 653c-33 0 -57 -25 -57 -57h-43c0 59 37 104 93 104c64 0 83 -62 133 -62c32 0 56 24 56 57h44c0 -60 -37 -104 -94 -104c-63 0 -82 62 -132 62zM526 510h58v-510h-58v122c-42 -81 -122 -134 -220 -134c-148 0 -259 115 -259 267s111 267 259 267
c98 0 178 -53 220 -134v122zM316 44c120 0 210 91 210 211s-90 211 -210 211c-119 0 -209 -91 -209 -211s90 -211 209 -211z" />
    <glyph glyph-name="ae" unicode="&#xe6;" horiz-adv-x="978" 
d="M935 257c0 -9 0 -19 -1 -26h-477c11 -111 96 -189 209 -189c91 0 166 50 195 124h63c-36 -106 -134 -178 -258 -178c-90 0 -166 40 -214 103c-39 -61 -114 -103 -206 -103c-118 0 -199 75 -199 171c0 100 84 172 197 172c63 0 117 -21 154 -55v58c0 81 -55 135 -139 135
c-75 0 -126 -42 -136 -105h-60c14 94 88 158 196 158c90 0 157 -45 183 -116c47 71 128 116 224 116c154 0 269 -117 269 -265zM666 468c-112 0 -196 -77 -208 -185h416c-10 108 -98 185 -208 185zM255 40c82 0 147 44 165 105c-8 20 -15 41 -18 63c-20 40 -78 72 -147 72
c-85 0 -148 -52 -148 -121c0 -68 63 -119 148 -119z" />
    <glyph glyph-name="aeacute" unicode="&#x1fd;" horiz-adv-x="978" 
d="M610 705l-119 -122h-63l105 122h77zM935 257c0 -9 0 -19 -1 -26h-477c11 -111 96 -189 209 -189c91 0 166 50 195 124h63c-36 -106 -134 -178 -258 -178c-90 0 -166 40 -214 103c-39 -61 -114 -103 -206 -103c-118 0 -199 75 -199 171c0 100 84 172 197 172
c63 0 117 -21 154 -55v58c0 81 -55 135 -139 135c-75 0 -126 -42 -136 -105h-60c14 94 88 158 196 158c90 0 157 -45 183 -116c47 71 128 116 224 116c154 0 269 -117 269 -265zM666 468c-112 0 -196 -77 -208 -185h416c-10 108 -98 185 -208 185zM255 40
c82 0 147 44 165 105c-8 20 -15 41 -18 63c-20 40 -78 72 -147 72c-85 0 -148 -52 -148 -121c0 -68 63 -119 148 -119z" />
    <glyph glyph-name="b" unicode="b" 
d="M357 522c149 0 260 -115 260 -267s-111 -267 -260 -267c-99 0 -179 53 -220 135v-123h-58v720h58v-333c41 82 121 135 220 135zM347 44c120 0 210 91 210 211s-90 211 -210 211s-210 -91 -210 -211s90 -211 210 -211z" />
    <glyph glyph-name="c" unicode="c" horiz-adv-x="623" 
d="M316 -12c-154 0 -270 115 -270 267s116 267 270 267c135 0 242 -90 264 -215h-60c-23 93 -103 159 -204 159c-120 0 -210 -91 -210 -211s90 -211 210 -211c101 0 181 66 204 159h60c-22 -125 -129 -215 -264 -215z" />
    <glyph glyph-name="cacute" unicode="&#x107;" horiz-adv-x="623" 
d="M277 583l105 122h77l-119 -122h-63zM316 -12c-154 0 -270 115 -270 267s116 267 270 267c135 0 242 -90 264 -215h-60c-23 93 -103 159 -204 159c-120 0 -210 -91 -210 -211s90 -211 210 -211c101 0 181 66 204 159h60c-22 -125 -129 -215 -264 -215z" />
    <glyph glyph-name="ccaron" unicode="&#x10d;" horiz-adv-x="623" 
d="M352 583h-72l-101 122h56l81 -89l81 89h56zM316 44c101 0 181 66 204 159h60c-22 -125 -129 -215 -264 -215c-154 0 -270 115 -270 267s116 267 270 267c135 0 242 -90 264 -215h-60c-23 93 -103 159 -204 159c-120 0 -210 -91 -210 -211s90 -211 210 -211z" />
    <glyph glyph-name="ccedilla" unicode="&#xe7;" horiz-adv-x="623" 
d="M316 44c101 0 181 66 204 159h60c-21 -119 -119 -206 -245 -214l-21 -27c4 1 9 1 13 1c49 0 86 -39 86 -89s-41 -90 -94 -90s-93 40 -93 90h38c0 -31 25 -55 55 -55c31 0 55 24 55 55c0 32 -24 55 -55 55c-14 0 -29 -7 -37 -15l-34 16l44 59c-142 11 -246 122 -246 266
c0 152 116 267 270 267c135 0 242 -90 264 -215h-60c-23 93 -103 159 -204 159c-120 0 -210 -91 -210 -211s90 -211 210 -211z" />
    <glyph glyph-name="ccircumflex" unicode="&#x109;" horiz-adv-x="623" 
d="M316 672l-81 -89h-56l101 122h72l101 -122h-56zM316 44c101 0 181 66 204 159h60c-22 -125 -129 -215 -264 -215c-154 0 -270 115 -270 267s116 267 270 267c135 0 242 -90 264 -215h-60c-23 93 -103 159 -204 159c-120 0 -210 -91 -210 -211s90 -211 210 -211z" />
    <glyph glyph-name="cdotaccent" unicode="&#x10b;" horiz-adv-x="623" 
d="M316 593c-24 0 -42 18 -42 41c0 24 18 42 42 42c23 0 41 -18 41 -42c0 -23 -18 -41 -41 -41zM316 -12c-154 0 -270 115 -270 267s116 267 270 267c135 0 242 -90 264 -215h-60c-23 93 -103 159 -204 159c-120 0 -210 -91 -210 -211s90 -211 210 -211
c101 0 181 66 204 159h60c-22 -125 -129 -215 -264 -215z" />
    <glyph glyph-name="d" unicode="d" 
d="M526 720h58v-720h-58v122c-42 -81 -122 -134 -220 -134c-148 0 -259 115 -259 267s111 267 259 267c98 0 178 -53 220 -134v332zM316 44c120 0 210 91 210 211s-90 211 -210 211c-119 0 -209 -91 -209 -211s90 -211 209 -211z" />
    <glyph glyph-name="eth" unicode="&#xf0;" horiz-adv-x="620" 
d="M346 658c145 -87 228 -239 228 -400s-114 -270 -264 -270c-151 0 -265 113 -265 262s112 261 256 261c74 0 138 -30 184 -82c-37 79 -99 146 -182 191l-57 -51h-51l75 67c-33 14 -69 25 -108 32v55c56 -9 107 -25 152 -48l54 48h52zM310 44c116 0 204 89 204 206
s-88 205 -204 205c-117 0 -205 -88 -205 -205s88 -206 205 -206z" />
    <glyph glyph-name="dcaron" unicode="&#x10f;" horiz-adv-x="718" 
d="M525 388v332h58v-720h-58v122c-42 -81 -122 -134 -220 -134c-148 0 -259 115 -259 267s111 267 259 267c98 0 178 -53 220 -134zM674 720h56l-33 -187h-44zM316 44c120 0 209 91 209 211s-89 211 -209 211s-210 -91 -210 -211s90 -211 210 -211z" />
    <glyph glyph-name="dcroat" unicode="&#x111;" 
d="M663 630v-44h-79v-586h-58v122c-42 -81 -122 -134 -220 -134c-148 0 -259 115 -259 267s111 267 259 267c98 0 178 -53 220 -134v198h-143v44h143v90h58v-90h79zM316 44c120 0 210 91 210 211s-90 211 -210 211c-119 0 -209 -91 -209 -211s90 -211 209 -211z" />
    <glyph glyph-name="uni1E0D" unicode="&#x1e0d;" 
d="M526 720h58v-720h-58v122c-42 -81 -122 -134 -220 -134c-148 0 -259 115 -259 267s111 267 259 267c98 0 178 -53 220 -134v332zM316 44c120 0 210 91 210 211s-90 211 -210 211c-119 0 -209 -91 -209 -211s90 -211 209 -211zM331 -83c23 0 41 -18 41 -41
c0 -24 -18 -42 -41 -42c-24 0 -42 18 -42 42c0 23 18 41 42 41z" />
    <glyph glyph-name="uni01F3" unicode="&#x1f3;" horiz-adv-x="1165" 
d="M526 388v332h58v-720h-58v122c-42 -81 -122 -134 -220 -134c-148 0 -259 115 -259 267s111 267 259 267c98 0 178 -53 220 -134zM793 56h323v-56h-405v42l316 412h-312v56h394v-42zM316 44c120 0 210 91 210 211s-90 211 -210 211c-119 0 -209 -91 -209 -211
s90 -211 209 -211z" />
    <glyph glyph-name="uni01C6" unicode="&#x1c6;" horiz-adv-x="1165" 
d="M526 388v332h58v-720h-58v122c-42 -81 -122 -134 -220 -134c-148 0 -259 115 -259 267s111 267 259 267c98 0 178 -53 220 -134zM950 583h-72l-101 122h56l81 -89l80 89h57zM793 56h323v-56h-405v42l316 412h-312v56h394v-42zM316 44c120 0 210 91 210 211
s-90 211 -210 211c-119 0 -209 -91 -209 -211s90 -211 209 -211z" />
    <glyph glyph-name="e" unicode="e" horiz-adv-x="628" 
d="M585 255c0 -7 -1 -17 -2 -24h-476c11 -111 96 -189 208 -189c92 0 166 50 195 124h64c-36 -106 -135 -178 -259 -178c-153 0 -269 115 -269 267s116 267 269 267c154 0 270 -115 270 -267zM315 468c-111 0 -195 -77 -207 -185h416c-12 108 -99 185 -209 185z" />
    <glyph glyph-name="eacute" unicode="&#xe9;" horiz-adv-x="628" 
d="M459 705l-119 -122h-63l105 122h77zM585 255c0 -7 -1 -17 -2 -24h-476c11 -111 96 -189 208 -189c92 0 166 50 195 124h64c-36 -106 -135 -178 -259 -178c-153 0 -269 115 -269 267s116 267 269 267c154 0 270 -115 270 -267zM315 468c-111 0 -195 -77 -207 -185h416
c-12 108 -99 185 -209 185z" />
    <glyph glyph-name="ebreve" unicode="&#x115;" horiz-adv-x="628" 
d="M316 573c-72 0 -126 54 -126 123h47c0 -45 34 -79 79 -79c44 0 78 34 78 79h47c0 -69 -54 -123 -125 -123zM585 255c0 -7 -1 -17 -2 -24h-476c11 -111 96 -189 208 -189c92 0 166 50 195 124h64c-36 -106 -135 -178 -259 -178c-153 0 -269 115 -269 267s116 267 269 267
c154 0 270 -115 270 -267zM315 468c-111 0 -195 -77 -207 -185h416c-12 108 -99 185 -209 185z" />
    <glyph glyph-name="ecaron" unicode="&#x11b;" horiz-adv-x="628" 
d="M351 583h-72l-101 122h56l81 -89l81 89h56zM585 255c0 -7 -1 -17 -2 -24h-476c11 -111 96 -189 208 -189c92 0 166 50 195 124h64c-36 -106 -135 -178 -259 -178c-153 0 -269 115 -269 267s116 267 269 267c154 0 270 -115 270 -267zM315 468c-111 0 -195 -77 -207 -185
h416c-12 108 -99 185 -209 185z" />
    <glyph glyph-name="ecircumflex" unicode="&#xea;" horiz-adv-x="628" 
d="M315 672l-81 -89h-56l101 122h72l101 -122h-56zM585 255c0 -7 -1 -17 -2 -24h-476c11 -111 96 -189 208 -189c92 0 166 50 195 124h64c-36 -106 -135 -178 -259 -178c-153 0 -269 115 -269 267s116 267 269 267c154 0 270 -115 270 -267zM315 468
c-111 0 -195 -77 -207 -185h416c-12 108 -99 185 -209 185z" />
    <glyph glyph-name="uni0205" unicode="&#x205;" horiz-adv-x="628" 
d="M256 583h-57l-91 122h67zM437 583h-57l-91 122h67zM585 255c0 -7 -1 -17 -2 -24h-476c11 -111 96 -189 208 -189c92 0 166 50 195 124h64c-36 -106 -135 -178 -259 -178c-153 0 -269 115 -269 267s116 267 269 267c154 0 270 -115 270 -267zM315 468
c-111 0 -195 -77 -207 -185h416c-12 108 -99 185 -209 185z" />
    <glyph glyph-name="edieresis" unicode="&#xeb;" horiz-adv-x="628" 
d="M214 593c-22 0 -40 17 -40 40s18 40 40 40c23 0 41 -17 41 -40s-18 -40 -41 -40zM415 593c-22 0 -40 17 -40 40s18 40 40 40c23 0 41 -17 41 -40s-18 -40 -41 -40zM585 255c0 -7 -1 -17 -2 -24h-476c11 -111 96 -189 208 -189c92 0 166 50 195 124h64
c-36 -106 -135 -178 -259 -178c-153 0 -269 115 -269 267s116 267 269 267c154 0 270 -115 270 -267zM315 468c-111 0 -195 -77 -207 -185h416c-12 108 -99 185 -209 185z" />
    <glyph glyph-name="edotaccent" unicode="&#x117;" horiz-adv-x="628" 
d="M316 593c-24 0 -42 18 -42 41c0 24 18 42 42 42c23 0 41 -18 41 -42c0 -23 -18 -41 -41 -41zM585 255c0 -7 -1 -17 -2 -24h-476c11 -111 96 -189 208 -189c92 0 166 50 195 124h64c-36 -106 -135 -178 -259 -178c-153 0 -269 115 -269 267s116 267 269 267
c154 0 270 -115 270 -267zM315 468c-111 0 -195 -77 -207 -185h416c-12 108 -99 185 -209 185z" />
    <glyph glyph-name="uni1EB9" unicode="&#x1eb9;" horiz-adv-x="628" 
d="M585 255c0 -7 -1 -17 -2 -24h-476c11 -111 96 -189 208 -189c92 0 166 50 195 124h64c-36 -106 -135 -178 -259 -178c-153 0 -269 115 -269 267s116 267 269 267c154 0 270 -115 270 -267zM315 468c-111 0 -195 -77 -207 -185h416c-12 108 -99 185 -209 185zM316 -83
c23 0 41 -18 41 -41c0 -24 -18 -42 -41 -42c-24 0 -42 18 -42 42c0 23 18 41 42 41z" />
    <glyph glyph-name="egrave" unicode="&#xe8;" horiz-adv-x="628" 
d="M354 583h-63l-119 122h77zM585 255c0 -7 -1 -17 -2 -24h-476c11 -111 96 -189 208 -189c92 0 166 50 195 124h64c-36 -106 -135 -178 -259 -178c-153 0 -269 115 -269 267s116 267 269 267c154 0 270 -115 270 -267zM315 468c-111 0 -195 -77 -207 -185h416
c-12 108 -99 185 -209 185z" />
    <glyph glyph-name="uni0207" unicode="&#x207;" horiz-adv-x="628" 
d="M316 656c-45 0 -79 -34 -79 -80h-47c0 70 54 123 126 123c71 0 125 -53 125 -123h-47c0 46 -34 80 -78 80zM585 255c0 -7 -1 -17 -2 -24h-476c11 -111 96 -189 208 -189c92 0 166 50 195 124h64c-36 -106 -135 -178 -259 -178c-153 0 -269 115 -269 267s116 267 269 267
c154 0 270 -115 270 -267zM315 468c-111 0 -195 -77 -207 -185h416c-12 108 -99 185 -209 185z" />
    <glyph glyph-name="emacron" unicode="&#x113;" horiz-adv-x="628" 
d="M426 651v-50h-221v50h221zM585 255c0 -7 -1 -17 -2 -24h-476c11 -111 96 -189 208 -189c92 0 166 50 195 124h64c-36 -106 -135 -178 -259 -178c-153 0 -269 115 -269 267s116 267 269 267c154 0 270 -115 270 -267zM315 468c-111 0 -195 -77 -207 -185h416
c-12 108 -99 185 -209 185z" />
    <glyph glyph-name="eogonek" unicode="&#x119;" horiz-adv-x="628" 
d="M585 255c0 -7 -1 -17 -2 -24h-476c11 -111 96 -189 208 -189c92 0 166 50 195 124h64c-24 -71 -76 -126 -145 -155c-48 -36 -80 -75 -80 -119c0 -35 27 -61 60 -61c28 0 53 12 68 31v-47c-19 -18 -49 -27 -79 -27c-56 0 -98 40 -98 94c0 41 22 78 54 108
c-13 -1 -26 -2 -39 -2c-153 0 -269 115 -269 267s116 267 269 267c154 0 270 -115 270 -267zM315 468c-111 0 -195 -77 -207 -185h416c-12 108 -99 185 -209 185z" />
    <glyph glyph-name="uni1EBD" unicode="&#x1ebd;" horiz-adv-x="628" 
d="M252 653c-33 0 -57 -25 -57 -57h-43c0 59 37 104 93 104c64 0 83 -62 133 -62c32 0 56 24 56 57h44c0 -60 -37 -104 -94 -104c-63 0 -82 62 -132 62zM585 255c0 -7 -1 -17 -2 -24h-476c11 -111 96 -189 208 -189c92 0 166 50 195 124h64c-36 -106 -135 -178 -259 -178
c-153 0 -269 115 -269 267s116 267 269 267c154 0 270 -115 270 -267zM315 468c-111 0 -195 -77 -207 -185h416c-12 108 -99 185 -209 185z" />
    <glyph glyph-name="f" unicode="f" horiz-adv-x="364" 
d="M328 669c-82 0 -132 -32 -132 -118v-41h132v-53h-132v-457h-58v457h-100v53h100v44c0 121 69 169 190 169v-54z" />
    <glyph glyph-name="g" unicode="g" 
d="M527 510h58v-455c0 -155 -103 -257 -259 -257c-132 0 -225 73 -253 190h60c23 -83 94 -136 193 -136c121 0 201 81 201 204v70c-42 -80 -122 -132 -220 -132c-148 0 -259 114 -259 264s111 264 259 264c98 0 178 -52 220 -132v120zM318 47c120 0 209 91 209 211
s-89 211 -209 211s-210 -91 -210 -211s90 -211 210 -211z" />
    <glyph glyph-name="uni01F5" unicode="&#x1f5;" 
d="M475 705l-119 -122h-63l105 122h77zM527 510h58v-455c0 -155 -103 -257 -259 -257c-132 0 -225 73 -253 190h60c23 -83 94 -136 193 -136c121 0 201 81 201 204v70c-42 -80 -122 -132 -220 -132c-148 0 -259 114 -259 264s111 264 259 264c98 0 178 -52 220 -132v120z
M318 47c120 0 209 91 209 211s-89 211 -209 211s-210 -91 -210 -211s90 -211 210 -211z" />
    <glyph glyph-name="gbreve" unicode="&#x11f;" 
d="M332 573c-72 0 -126 54 -126 123h47c0 -45 34 -79 79 -79c44 0 78 34 78 79h47c0 -69 -54 -123 -125 -123zM527 510h58v-455c0 -155 -103 -257 -259 -257c-132 0 -225 73 -253 190h60c23 -83 94 -136 193 -136c121 0 201 81 201 204v70c-42 -80 -122 -132 -220 -132
c-148 0 -259 114 -259 264s111 264 259 264c98 0 178 -52 220 -132v120zM318 47c120 0 209 91 209 211s-89 211 -209 211s-210 -91 -210 -211s90 -211 210 -211z" />
    <glyph glyph-name="gcaron" unicode="&#x1e7;" 
d="M368 583h-72l-101 122h56l81 -89l81 89h56zM527 510h58v-455c0 -155 -103 -257 -259 -257c-132 0 -225 73 -253 190h60c23 -83 94 -136 193 -136c121 0 201 81 201 204v70c-42 -80 -122 -132 -220 -132c-148 0 -259 114 -259 264s111 264 259 264c98 0 178 -52 220 -132
v120zM318 47c120 0 209 91 209 211s-89 211 -209 211s-210 -91 -210 -211s90 -211 210 -211z" />
    <glyph glyph-name="gcircumflex" unicode="&#x11d;" 
d="M332 672l-81 -89h-56l101 122h72l101 -122h-56zM527 510h58v-455c0 -155 -103 -257 -259 -257c-132 0 -225 73 -253 190h60c23 -83 94 -136 193 -136c121 0 201 81 201 204v70c-42 -80 -122 -132 -220 -132c-148 0 -259 114 -259 264s111 264 259 264
c98 0 178 -52 220 -132v120zM318 47c120 0 209 91 209 211s-89 211 -209 211s-210 -91 -210 -211s90 -211 210 -211z" />
    <glyph glyph-name="uni0123" unicode="&#x123;" 
d="M378 720l-31 -144h-62l45 144h48zM527 510h58v-455c0 -155 -103 -257 -259 -257c-132 0 -225 73 -253 190h60c23 -83 94 -136 193 -136c121 0 201 81 201 204v70c-42 -80 -122 -132 -220 -132c-148 0 -259 114 -259 264s111 264 259 264c98 0 178 -52 220 -132v120z
M318 47c120 0 209 91 209 211s-89 211 -209 211s-210 -91 -210 -211s90 -211 210 -211z" />
    <glyph glyph-name="gdotaccent" unicode="&#x121;" 
d="M332 593c-24 0 -42 18 -42 41c0 24 18 42 42 42c23 0 41 -18 41 -42c0 -23 -18 -41 -41 -41zM527 510h58v-455c0 -155 -103 -257 -259 -257c-132 0 -225 73 -253 190h60c23 -83 94 -136 193 -136c121 0 201 81 201 204v70c-42 -80 -122 -132 -220 -132
c-148 0 -259 114 -259 264s111 264 259 264c98 0 178 -52 220 -132v120zM318 47c120 0 209 91 209 211s-89 211 -209 211s-210 -91 -210 -211s90 -211 210 -211z" />
    <glyph glyph-name="h" unicode="h" horiz-adv-x="622" 
d="M335 522c128 0 214 -84 214 -213v-309h-58v292c0 105 -69 174 -173 174c-108 0 -181 -70 -181 -176v-290h-58v720h58v-312c37 72 107 114 198 114z" />
    <glyph glyph-name="hbar" unicode="&#x127;" horiz-adv-x="622" 
d="M335 522c128 0 214 -84 214 -213v-309h-58v292c0 105 -69 174 -173 174c-108 0 -181 -70 -181 -176v-290h-58v586h-78v44h78v90h58v-90h144v-44h-144v-178c37 72 107 114 198 114z" />
    <glyph glyph-name="hcircumflex" unicode="&#x125;" horiz-adv-x="622" 
d="M189 768l-81 89l-81 -89h-56l101 122h72l101 -122h-56zM335 522c128 0 214 -84 214 -213v-309h-58v292c0 105 -69 174 -173 174c-108 0 -181 -70 -181 -176v-290h-58v720h58v-312c37 72 107 114 198 114z" />
    <glyph glyph-name="uni1E25" unicode="&#x1e25;" horiz-adv-x="622" 
d="M335 522c128 0 214 -84 214 -213v-309h-58v292c0 105 -69 174 -173 174c-108 0 -181 -70 -181 -176v-290h-58v720h58v-312c37 72 107 114 198 114zM314 -83c23 0 41 -18 41 -41c0 -24 -18 -42 -41 -42c-24 0 -42 18 -42 42c0 23 18 41 42 41z" />
    <glyph glyph-name="i" unicode="i" horiz-adv-x="217" 
d="M108 630c-23 0 -42 18 -42 42c0 23 19 41 42 41c24 0 43 -18 43 -41c0 -24 -19 -42 -43 -42zM79 0v510h58v-510h-58z" />
    <glyph glyph-name="dotlessi" unicode="&#x131;" horiz-adv-x="217" 
d="M79 0v510h58v-510h-58z" />
    <glyph glyph-name="iacute" unicode="&#xed;" horiz-adv-x="217" 
d="M70 583l105 122h77l-119 -122h-63zM79 0v510h58v-510h-58z" />
    <glyph glyph-name="ibreve" unicode="&#x12d;" horiz-adv-x="217" 
d="M109 573c-72 0 -126 54 -126 123h47c0 -45 34 -79 79 -79c44 0 78 34 78 79h47c0 -69 -54 -123 -125 -123zM79 0v510h58v-510h-58z" />
    <glyph glyph-name="icircumflex" unicode="&#xee;" horiz-adv-x="217" 
d="M144 705l101 -122h-56l-81 89l-81 -89h-56l101 122h72zM79 0v510h58v-510h-58z" />
    <glyph glyph-name="uni0209" unicode="&#x209;" horiz-adv-x="217" 
d="M-8 583l-91 122h67l81 -122h-57zM173 583l-91 122h67l81 -122h-57zM79 0v510h58v-510h-58z" />
    <glyph glyph-name="idieresis" unicode="&#xef;" horiz-adv-x="217" 
d="M7 593c-22 0 -40 17 -40 40s18 40 40 40c23 0 41 -17 41 -40s-18 -40 -41 -40zM208 593c-22 0 -40 17 -40 40s18 40 40 40c23 0 41 -17 41 -40s-18 -40 -41 -40zM79 0v510h58v-510h-58z" />
    <glyph glyph-name="i.loclTRK" horiz-adv-x="217" 
d="M109 593c-24 0 -42 18 -42 41c0 24 18 42 42 42c23 0 41 -18 41 -42c0 -23 -18 -41 -41 -41zM79 0v510h58v-510h-58z" />
    <glyph glyph-name="uni1ECB" unicode="&#x1ecb;" horiz-adv-x="217" 
d="M108 630c-23 0 -42 18 -42 42c0 23 19 41 42 41c24 0 43 -18 43 -41c0 -24 -19 -42 -43 -42zM79 0v510h58v-510h-58zM109 -166c-24 0 -42 18 -42 42c0 23 18 41 42 41c23 0 41 -18 41 -41c0 -24 -18 -42 -41 -42z" />
    <glyph glyph-name="igrave" unicode="&#xec;" horiz-adv-x="217" 
d="M84 583l-119 122h77l105 -122h-63zM79 0v510h58v-510h-58z" />
    <glyph glyph-name="uni020B" unicode="&#x20b;" horiz-adv-x="217" 
d="M-17 576c0 70 54 123 126 123c71 0 125 -53 125 -123h-47c0 46 -34 80 -78 80c-45 0 -79 -34 -79 -80h-47zM79 0v510h58v-510h-58z" />
    <glyph glyph-name="ij" unicode="&#x133;" horiz-adv-x="440" 
d="M108 630c-23 0 -42 18 -42 42c0 23 19 41 42 41c24 0 43 -18 43 -41c0 -24 -19 -42 -43 -42zM332 630c-24 0 -43 18 -43 42c0 23 19 41 43 41c23 0 42 -18 42 -41c0 -24 -19 -42 -42 -42zM79 0v510h58v-510h-58zM198 -202v54c64 0 105 32 105 103v555h58v-558
c0 -105 -61 -154 -163 -154z" />
    <glyph glyph-name="imacron" unicode="&#x12b;" horiz-adv-x="217" 
d="M-2 601v50h221v-50h-221zM79 0v510h58v-510h-58z" />
    <glyph glyph-name="iogonek" unicode="&#x12f;" horiz-adv-x="217" 
d="M109 593c-24 0 -42 18 -42 41c0 24 18 42 42 42c23 0 41 -18 41 -42c0 -23 -18 -41 -41 -41zM89 -169c22 0 45 9 62 23v-46c-19 -13 -46 -21 -73 -21c-54 0 -95 39 -95 90c0 52 42 97 101 123h-5v510h58v-510h-1c-66 -30 -105 -70 -105 -112c0 -34 26 -57 58 -57z" />
    <glyph glyph-name="itilde" unicode="&#x129;" horiz-adv-x="217" 
d="M177 591c-63 0 -82 62 -132 62c-33 0 -57 -25 -57 -57h-43c0 59 37 104 93 104c64 0 83 -62 133 -62c32 0 56 24 56 57h44c0 -60 -37 -104 -94 -104zM79 0v510h58v-510h-58z" />
    <glyph glyph-name="j" unicode="j" horiz-adv-x="223" 
d="M115 630c-24 0 -43 18 -43 42c0 23 19 41 43 41c23 0 42 -18 42 -41c0 -24 -19 -42 -42 -42zM-19 -202v54c64 0 105 32 105 103v555h58v-558c0 -105 -61 -154 -163 -154z" />
    <glyph glyph-name="uni0237" unicode="&#x237;" horiz-adv-x="223" 
d="M-19 -202v54c64 0 105 32 105 103v555h58v-558c0 -105 -61 -154 -163 -154z" />
    <glyph glyph-name="jcircumflex" unicode="&#x135;" horiz-adv-x="223" 
d="M151 705l101 -122h-56l-81 89l-81 -89h-56l101 122h72zM86 -45v555h58v-558c0 -105 -61 -154 -163 -154v54c64 0 105 32 105 103z" />
    <glyph glyph-name="k" unicode="k" horiz-adv-x="502" 
d="M481 0h-78l-266 233v-233h-58v720h58v-437l260 227h77l-282 -253z" />
    <glyph glyph-name="uni0137" unicode="&#x137;" horiz-adv-x="502" 
d="M192 257l289 -257h-78l-266 233v-233h-58v720h58v-437l260 227h77zM216 -216l31 144h62l-45 -144h-48z" />
    <glyph glyph-name="l" unicode="l" horiz-adv-x="217" 
d="M79 0v720h58v-720h-58z" />
    <glyph glyph-name="lacute" unicode="&#x13a;" horiz-adv-x="217" 
d="M70 768l105 122h77l-119 -122h-63zM79 0v720h58v-720h-58z" />
    <glyph glyph-name="lcaron" unicode="&#x13e;" horiz-adv-x="273" 
d="M79 0v720h58v-720h-58zM207 533l21 187h56l-33 -187h-44z" />
    <glyph glyph-name="uni013C" unicode="&#x13c;" horiz-adv-x="217" 
d="M79 0v720h58v-720h-58zM57 -216l31 144h62l-45 -144h-48z" />
    <glyph glyph-name="ldot" unicode="&#x140;" horiz-adv-x="326" 
d="M79 0v720h58v-720h-58zM244 317c-25 0 -43 19 -43 43s18 43 43 43c24 0 43 -19 43 -43s-19 -43 -43 -43z" />
    <glyph glyph-name="uni01C9" unicode="&#x1c9;" horiz-adv-x="440" 
d="M79 0v720h58v-720h-58zM332 630c-24 0 -43 18 -43 42c0 23 19 41 43 41c23 0 42 -18 42 -41c0 -24 -19 -42 -42 -42zM198 -202v54c64 0 105 32 105 103v555h58v-558c0 -105 -61 -154 -163 -154z" />
    <glyph glyph-name="lslash" unicode="&#x142;" horiz-adv-x="292" 
d="M247 456v-56l-72 -48v-352h-58v313l-73 -49v56l73 49v351h58v-312z" />
    <glyph glyph-name="m" unicode="m" horiz-adv-x="953" 
d="M686 522c117 0 194 -77 194 -194v-328h-58v312c0 93 -60 154 -153 154c-96 0 -160 -62 -160 -156v-310h-58v312c0 93 -61 154 -153 154c-96 0 -161 -62 -161 -156v-310h-58v510h58v-87c34 63 97 99 178 99c88 0 154 -45 181 -117c32 74 100 117 190 117z" />
    <glyph glyph-name="n" unicode="n" horiz-adv-x="622" 
d="M335 522c128 0 214 -84 214 -213v-309h-58v292c0 105 -69 174 -173 174c-108 0 -181 -70 -181 -176v-290h-58v510h58v-100c37 71 107 112 198 112z" />
    <glyph glyph-name="nacute" unicode="&#x144;" horiz-adv-x="622" 
d="M457 705l-119 -122h-63l105 122h77zM335 522c128 0 214 -84 214 -213v-309h-58v292c0 105 -69 174 -173 174c-108 0 -181 -70 -181 -176v-290h-58v510h58v-100c37 71 107 112 198 112z" />
    <glyph glyph-name="ncaron" unicode="&#x148;" horiz-adv-x="622" 
d="M349 583h-72l-101 122h56l81 -89l81 89h56zM335 522c128 0 214 -84 214 -213v-309h-58v292c0 105 -69 174 -173 174c-108 0 -181 -70 -181 -176v-290h-58v510h58v-100c37 71 107 112 198 112z" />
    <glyph glyph-name="uni0146" unicode="&#x146;" horiz-adv-x="622" 
d="M335 522c128 0 214 -84 214 -213v-309h-58v292c0 105 -69 174 -173 174c-108 0 -181 -70 -181 -176v-290h-58v510h58v-100c37 71 107 112 198 112zM262 -216l31 144h62l-45 -144h-48z" />
    <glyph glyph-name="uni1E45" unicode="&#x1e45;" horiz-adv-x="622" 
d="M313 593c-24 0 -42 18 -42 41c0 24 18 42 42 42c23 0 41 -18 41 -42c0 -23 -18 -41 -41 -41zM335 522c128 0 214 -84 214 -213v-309h-58v292c0 105 -69 174 -173 174c-108 0 -181 -70 -181 -176v-290h-58v510h58v-100c37 71 107 112 198 112z" />
    <glyph glyph-name="eng" unicode="&#x14b;" horiz-adv-x="622" 
d="M335 522c128 0 214 -84 214 -213v-356c0 -102 -59 -150 -159 -150v56c62 0 101 30 101 97v336c0 105 -69 174 -173 174c-108 0 -181 -70 -181 -176v-290h-58v510h58v-100c37 71 107 112 198 112z" />
    <glyph glyph-name="uni01CC" unicode="&#x1cc;" horiz-adv-x="845" 
d="M737 713c23 0 42 -18 42 -41c0 -24 -19 -42 -42 -42c-24 0 -43 18 -43 42c0 23 19 41 43 41zM335 522c128 0 214 -84 214 -213v-309h-58v292c0 105 -69 174 -173 174c-108 0 -181 -70 -181 -176v-290h-58v510h58v-100c37 71 107 112 198 112zM708 -45v555h58v-558
c0 -105 -61 -154 -163 -154v54c64 0 105 32 105 103z" />
    <glyph glyph-name="ntilde" unicode="&#xf1;" horiz-adv-x="622" 
d="M250 653c-33 0 -57 -25 -57 -57h-43c0 59 37 104 93 104c64 0 83 -62 133 -62c32 0 56 24 56 57h44c0 -60 -37 -104 -94 -104c-63 0 -82 62 -132 62zM335 522c128 0 214 -84 214 -213v-309h-58v292c0 105 -69 174 -173 174c-108 0 -181 -70 -181 -176v-290h-58v510h58
v-100c37 71 107 112 198 112z" />
    <glyph glyph-name="o" unicode="o" horiz-adv-x="631" 
d="M316 -12c-154 0 -270 115 -270 267s116 267 270 267c153 0 269 -115 269 -267s-116 -267 -269 -267zM316 44c120 0 209 91 209 211s-89 211 -209 211s-210 -91 -210 -211s90 -211 210 -211z" />
    <glyph glyph-name="oacute" unicode="&#xf3;" horiz-adv-x="631" 
d="M277 583l105 122h77l-119 -122h-63zM316 -12c-154 0 -270 115 -270 267s116 267 270 267c153 0 269 -115 269 -267s-116 -267 -269 -267zM316 44c120 0 209 91 209 211s-89 211 -209 211s-210 -91 -210 -211s90 -211 210 -211z" />
    <glyph glyph-name="obreve" unicode="&#x14f;" horiz-adv-x="631" 
d="M316 573c-72 0 -126 54 -126 123h47c0 -45 34 -79 79 -79c44 0 78 34 78 79h47c0 -69 -54 -123 -125 -123zM316 -12c-154 0 -270 115 -270 267s116 267 270 267c153 0 269 -115 269 -267s-116 -267 -269 -267zM316 44c120 0 209 91 209 211s-89 211 -209 211
s-210 -91 -210 -211s90 -211 210 -211z" />
    <glyph glyph-name="ocircumflex" unicode="&#xf4;" horiz-adv-x="631" 
d="M316 672l-81 -89h-56l101 122h72l101 -122h-56zM316 522c153 0 269 -115 269 -267s-116 -267 -269 -267c-154 0 -270 115 -270 267s116 267 270 267zM316 44c120 0 209 91 209 211s-89 211 -209 211s-210 -91 -210 -211s90 -211 210 -211z" />
    <glyph glyph-name="uni020D" unicode="&#x20d;" horiz-adv-x="631" 
d="M199 583l-91 122h67l81 -122h-57zM380 583l-91 122h67l81 -122h-57zM316 -12c-154 0 -270 115 -270 267s116 267 270 267c153 0 269 -115 269 -267s-116 -267 -269 -267zM316 44c120 0 209 91 209 211s-89 211 -209 211s-210 -91 -210 -211s90 -211 210 -211z" />
    <glyph glyph-name="odieresis" unicode="&#xf6;" horiz-adv-x="631" 
d="M215 593c-22 0 -40 17 -40 40s18 40 40 40c23 0 41 -17 41 -40s-18 -40 -41 -40zM416 593c-22 0 -40 17 -40 40s18 40 40 40c23 0 41 -17 41 -40s-18 -40 -41 -40zM316 -12c-154 0 -270 115 -270 267s116 267 270 267c153 0 269 -115 269 -267s-116 -267 -269 -267z
M316 44c120 0 209 91 209 211s-89 211 -209 211s-210 -91 -210 -211s90 -211 210 -211z" />
    <glyph glyph-name="uni1ECD" unicode="&#x1ecd;" horiz-adv-x="631" 
d="M316 -12c-154 0 -270 115 -270 267s116 267 270 267c153 0 269 -115 269 -267s-116 -267 -269 -267zM316 44c120 0 209 91 209 211s-89 211 -209 211s-210 -91 -210 -211s90 -211 210 -211zM316 -166c-24 0 -42 18 -42 42c0 23 18 41 42 41c23 0 41 -18 41 -41
c0 -24 -18 -42 -41 -42z" />
    <glyph glyph-name="ograve" unicode="&#xf2;" horiz-adv-x="631" 
d="M291 583l-119 122h77l105 -122h-63zM316 -12c-154 0 -270 115 -270 267s116 267 270 267c153 0 269 -115 269 -267s-116 -267 -269 -267zM316 44c120 0 209 91 209 211s-89 211 -209 211s-210 -91 -210 -211s90 -211 210 -211z" />
    <glyph glyph-name="ohungarumlaut" unicode="&#x151;" horiz-adv-x="631" 
d="M194 583l81 122h67l-91 -122h-57zM375 583l81 122h67l-91 -122h-57zM316 -12c-154 0 -270 115 -270 267s116 267 270 267c153 0 269 -115 269 -267s-116 -267 -269 -267zM316 44c120 0 209 91 209 211s-89 211 -209 211s-210 -91 -210 -211s90 -211 210 -211z" />
    <glyph glyph-name="uni020F" unicode="&#x20f;" horiz-adv-x="631" 
d="M190 576c0 70 54 123 126 123c71 0 125 -53 125 -123h-47c0 46 -34 80 -78 80c-45 0 -79 -34 -79 -80h-47zM316 -12c-154 0 -270 115 -270 267s116 267 270 267c153 0 269 -115 269 -267s-116 -267 -269 -267zM316 44c120 0 209 91 209 211s-89 211 -209 211
s-210 -91 -210 -211s90 -211 210 -211z" />
    <glyph glyph-name="omacron" unicode="&#x14d;" horiz-adv-x="631" 
d="M205 601v50h221v-50h-221zM316 -12c-154 0 -270 115 -270 267s116 267 270 267c153 0 269 -115 269 -267s-116 -267 -269 -267zM316 44c120 0 209 91 209 211s-89 211 -209 211s-210 -91 -210 -211s90 -211 210 -211z" />
    <glyph glyph-name="uni01EB" unicode="&#x1eb;" horiz-adv-x="631" 
d="M400 0c-60 -29 -95 -67 -95 -107c0 -34 26 -57 58 -57c22 0 45 9 62 23v-46c-19 -13 -46 -21 -73 -21c-54 0 -95 39 -95 90c0 42 27 79 70 106h-11c-154 0 -270 115 -270 267s116 267 270 267c153 0 269 -115 269 -267c0 -123 -75 -221 -185 -255zM106 255
c0 -120 90 -211 210 -211s209 91 209 211s-89 211 -209 211s-210 -91 -210 -211z" />
    <glyph glyph-name="oslash" unicode="&#xf8;" horiz-adv-x="631" 
d="M509 445c47 -48 76 -114 76 -190c0 -152 -116 -267 -269 -267c-64 0 -122 20 -168 55l-38 -43h-47l59 66c-48 47 -76 114 -76 189c0 152 116 267 270 267c64 0 121 -20 166 -54l38 42h47zM106 255c0 -57 21 -108 55 -145l283 315c-35 26 -79 41 -128 41
c-120 0 -210 -91 -210 -211zM316 44c120 0 209 91 209 211c0 58 -21 109 -55 146l-283 -315c35 -27 80 -42 129 -42z" />
    <glyph glyph-name="oslashacute" unicode="&#x1ff;" horiz-adv-x="631" 
d="M463 705l-119 -122h-63l105 122h77zM509 445c47 -48 76 -114 76 -190c0 -152 -116 -267 -269 -267c-64 0 -122 20 -168 55l-38 -43h-47l59 66c-48 47 -76 114 -76 189c0 152 116 267 270 267c64 0 121 -20 166 -54l38 42h47zM106 255c0 -57 21 -108 55 -145l283 315
c-35 26 -79 41 -128 41c-120 0 -210 -91 -210 -211zM316 44c120 0 209 91 209 211c0 58 -21 109 -55 146l-283 -315c35 -27 80 -42 129 -42z" />
    <glyph glyph-name="otilde" unicode="&#xf5;" horiz-adv-x="631" 
d="M385 591c-63 0 -82 62 -132 62c-33 0 -57 -25 -57 -57h-43c0 59 37 104 93 104c64 0 83 -62 133 -62c32 0 56 24 56 57h44c0 -60 -37 -104 -94 -104zM316 -12c-154 0 -270 115 -270 267s116 267 270 267c153 0 269 -115 269 -267s-116 -267 -269 -267zM316 44
c120 0 209 91 209 211s-89 211 -209 211s-210 -91 -210 -211s90 -211 210 -211z" />
    <glyph glyph-name="oe" unicode="&#x153;" horiz-adv-x="1107" 
d="M1065 255c0 -7 -1 -17 -2 -24h-477c11 -110 97 -188 209 -188c91 0 166 50 195 123h64c-37 -106 -134 -178 -258 -178c-112 0 -202 63 -241 158c-39 -95 -129 -158 -241 -158c-153 0 -268 115 -268 267s115 267 268 267c112 0 202 -63 241 -158c39 95 129 158 241 158
c153 0 269 -115 269 -267zM795 467c-111 0 -196 -76 -208 -184h416c-10 107 -98 184 -208 184zM315 44c120 0 210 91 210 211s-90 211 -210 211s-209 -91 -209 -211s89 -211 209 -211z" />
    <glyph glyph-name="p" unicode="p" 
d="M357 522c149 0 260 -115 260 -267s-111 -267 -260 -267c-99 0 -179 53 -220 135v-313h-58v700h58v-123c41 82 121 135 220 135zM347 44c120 0 210 91 210 211s-90 211 -210 211s-210 -91 -210 -211s90 -211 210 -211z" />
    <glyph glyph-name="thorn" unicode="&#xfe;" 
d="M357 522c149 0 260 -115 260 -267s-111 -267 -260 -267c-99 0 -179 53 -220 135v-313h-58v910h58v-333c41 82 121 135 220 135zM347 44c120 0 210 91 210 211s-90 211 -210 211s-210 -91 -210 -211s90 -211 210 -211z" />
    <glyph glyph-name="q" unicode="q" 
d="M526 510h58v-700h-58v312c-42 -81 -122 -134 -220 -134c-148 0 -259 115 -259 267s111 267 259 267c98 0 178 -53 220 -134v122zM316 44c120 0 210 91 210 211s-90 211 -210 211c-119 0 -209 -91 -209 -211s90 -211 209 -211z" />
    <glyph glyph-name="r" unicode="r" horiz-adv-x="351" 
d="M137 400c35 74 99 118 180 118v-60c-110 0 -180 -76 -180 -193v-265h-58v510h58v-110z" />
    <glyph glyph-name="racute" unicode="&#x155;" horiz-adv-x="351" 
d="M339 705l-119 -122h-63l105 122h77zM137 400c35 74 99 118 180 118v-60c-110 0 -180 -76 -180 -193v-265h-58v510h58v-110z" />
    <glyph glyph-name="rcaron" unicode="&#x159;" horiz-adv-x="351" 
d="M232 583h-72l-101 122h56l81 -89l81 89h56zM137 400c35 74 99 118 180 118v-60c-110 0 -180 -76 -180 -193v-265h-58v510h58v-110z" />
    <glyph glyph-name="uni0157" unicode="&#x157;" horiz-adv-x="351" 
d="M137 400c35 74 99 118 180 118v-60c-110 0 -180 -76 -180 -193v-265h-58v510h58v-110zM57 -216l31 144h62l-45 -144h-48z" />
    <glyph glyph-name="uni0211" unicode="&#x211;" horiz-adv-x="351" 
d="M136 583h-57l-91 122h67zM317 583h-57l-91 122h67zM137 400c35 74 99 118 180 118v-60c-110 0 -180 -76 -180 -193v-265h-58v510h58v-110z" />
    <glyph glyph-name="uni1E5B" unicode="&#x1e5b;" horiz-adv-x="351" 
d="M137 400c35 74 99 118 180 118v-60c-110 0 -180 -76 -180 -193v-265h-58v510h58v-110zM109 -83c23 0 41 -18 41 -41c0 -24 -18 -42 -41 -42c-24 0 -42 18 -42 42c0 23 18 41 42 41z" />
    <glyph glyph-name="uni0213" unicode="&#x213;" horiz-adv-x="351" 
d="M196 656c-45 0 -79 -34 -79 -80h-47c0 70 54 123 126 123c71 0 125 -53 125 -123h-47c0 46 -34 80 -78 80zM137 400c35 74 99 118 180 118v-60c-110 0 -180 -76 -180 -193v-265h-58v510h58v-110z" />
    <glyph glyph-name="s" unicode="s" horiz-adv-x="420" 
d="M210 -12c-95 0 -165 66 -165 152h60c0 -56 46 -99 106 -99c58 0 103 38 103 88c0 53 -41 86 -116 105c-85 21 -146 64 -146 148s70 140 158 140c90 0 157 -64 157 -146h-59c0 52 -42 93 -99 93c-55 0 -97 -37 -97 -84c0 -50 41 -84 113 -101c93 -23 149 -70 149 -150
c0 -87 -71 -146 -164 -146z" />
    <glyph glyph-name="sacute" unicode="&#x15b;" horiz-adv-x="420" 
d="M171 583l105 122h77l-119 -122h-63zM210 -12c-95 0 -165 66 -165 152h60c0 -56 46 -99 106 -99c58 0 103 38 103 88c0 53 -41 86 -116 105c-85 21 -146 64 -146 148s70 140 158 140c90 0 157 -64 157 -146h-59c0 52 -42 93 -99 93c-55 0 -97 -37 -97 -84
c0 -50 41 -84 113 -101c93 -23 149 -70 149 -150c0 -87 -71 -146 -164 -146z" />
    <glyph glyph-name="scaron" unicode="&#x161;" horiz-adv-x="420" 
d="M246 583h-72l-101 122h56l81 -89l81 89h56zM225 284c93 -23 149 -70 149 -150c0 -87 -71 -146 -164 -146c-95 0 -165 66 -165 152h60c0 -56 46 -99 106 -99c58 0 103 38 103 88c0 53 -41 86 -116 105c-85 21 -146 64 -146 148s70 140 158 140c90 0 157 -64 157 -146h-59
c0 52 -42 93 -99 93c-55 0 -97 -37 -97 -84c0 -50 41 -84 113 -101z" />
    <glyph glyph-name="scedilla" unicode="&#x15f;" horiz-adv-x="420" 
d="M374 134c0 -81 -62 -138 -146 -145l-21 -27c4 1 9 1 13 1c49 0 86 -39 86 -89s-41 -90 -94 -90s-93 40 -93 90h38c0 -31 25 -55 55 -55c31 0 55 24 55 55c0 32 -24 55 -55 55c-14 0 -29 -7 -37 -15l-34 16l45 59c-83 11 -141 72 -141 151h60c0 -56 46 -99 106 -99
c58 0 103 38 103 88c0 53 -41 86 -116 105c-85 21 -146 64 -146 148s70 140 158 140c90 0 157 -64 157 -146h-59c0 52 -42 93 -99 93c-55 0 -97 -37 -97 -84c0 -50 41 -84 113 -101c93 -23 149 -70 149 -150z" />
    <glyph glyph-name="scircumflex" unicode="&#x15d;" horiz-adv-x="420" 
d="M210 672l-81 -89h-56l101 122h72l101 -122h-56zM225 284c93 -23 149 -70 149 -150c0 -87 -71 -146 -164 -146c-95 0 -165 66 -165 152h60c0 -56 46 -99 106 -99c58 0 103 38 103 88c0 53 -41 86 -116 105c-85 21 -146 64 -146 148s70 140 158 140c90 0 157 -64 157 -146
h-59c0 52 -42 93 -99 93c-55 0 -97 -37 -97 -84c0 -50 41 -84 113 -101z" />
    <glyph glyph-name="uni0219" unicode="&#x219;" horiz-adv-x="420" 
d="M210 -12c-95 0 -165 66 -165 152h60c0 -56 46 -99 106 -99c58 0 103 38 103 88c0 53 -41 86 -116 105c-85 21 -146 64 -146 148s70 140 158 140c90 0 157 -64 157 -146h-59c0 52 -42 93 -99 93c-55 0 -97 -37 -97 -84c0 -50 41 -84 113 -101c93 -23 149 -70 149 -150
c0 -87 -71 -146 -164 -146zM158 -216l31 144h62l-45 -144h-48z" />
    <glyph glyph-name="uni1E63" unicode="&#x1e63;" horiz-adv-x="420" 
d="M210 -12c-95 0 -165 66 -165 152h60c0 -56 46 -99 106 -99c58 0 103 38 103 88c0 53 -41 86 -116 105c-85 21 -146 64 -146 148s70 140 158 140c90 0 157 -64 157 -146h-59c0 52 -42 93 -99 93c-55 0 -97 -37 -97 -84c0 -50 41 -84 113 -101c93 -23 149 -70 149 -150
c0 -87 -71 -146 -164 -146zM210 -166c-24 0 -42 18 -42 42c0 23 18 41 42 41c23 0 41 -18 41 -41c0 -24 -18 -42 -41 -42z" />
    <glyph glyph-name="germandbls" unicode="&#xdf;" horiz-adv-x="526" 
d="M353 388c81 -23 138 -98 138 -195c0 -117 -93 -205 -215 -205c-28 0 -54 5 -75 14v57c20 -10 45 -15 69 -15c92 0 161 66 161 155c0 91 -65 161 -152 161h-56v55h52c72 0 125 57 125 131s-57 130 -133 130s-133 -56 -133 -130v-546h-58v550c0 103 82 182 191 182
c110 0 193 -79 193 -182c0 -76 -43 -138 -107 -162z" />
    <glyph glyph-name="t" unicode="t" horiz-adv-x="372" 
d="M338 510v-53h-125v-457h-58v457h-119v53h119v139l58 11v-150h125z" />
    <glyph glyph-name="tbar" unicode="&#x167;" horiz-adv-x="372" 
d="M338 457h-125v-190h114v-44h-114v-223h-58v223h-108v44h108v190h-119v53h119v139l58 11v-150h125v-53z" />
    <glyph glyph-name="tcaron" unicode="&#x165;" horiz-adv-x="372" 
d="M358 758l-32 -187h-45l21 187h56zM213 660v-150h125v-53h-125v-457h-58v457h-119v53h119v139z" />
    <glyph glyph-name="uni0163" unicode="&#x163;" horiz-adv-x="372" 
d="M213 0h-7l-29 -37c4 1 9 1 13 1c49 0 86 -39 86 -89s-41 -90 -94 -90s-93 40 -93 90h38c0 -31 25 -55 55 -55c31 0 55 24 55 55c0 32 -24 55 -55 55c-14 0 -29 -7 -37 -15l-34 16l52 69h-8v457h-119v53h119v139l58 11v-150h125v-53h-125v-457z" />
    <glyph glyph-name="uni021B" unicode="&#x21b;" horiz-adv-x="372" 
d="M213 510h125v-53h-125v-457h-58v457h-119v53h119v139l58 11v-150zM132 -216l31 144h62l-45 -144h-48z" />
    <glyph glyph-name="uni1E6D" unicode="&#x1e6d;" horiz-adv-x="372" 
d="M213 510h125v-53h-125v-457h-58v457h-119v53h119v139l58 11v-150zM184 -83c23 0 41 -18 41 -41c0 -24 -18 -42 -41 -42c-24 0 -42 18 -42 42c0 23 18 41 42 41z" />
    <glyph glyph-name="u" unicode="u" horiz-adv-x="604" 
d="M467 510h58v-510h-58v95c-36 -68 -103 -107 -189 -107c-123 0 -205 81 -205 205v317h58v-301c0 -99 65 -165 164 -165c103 0 172 67 172 167v299z" />
    <glyph glyph-name="uacute" unicode="&#xfa;" horiz-adv-x="604" 
d="M442 705l-119 -122h-63l105 122h77zM467 510h58v-510h-58v95c-36 -68 -103 -107 -189 -107c-123 0 -205 81 -205 205v317h58v-301c0 -99 65 -165 164 -165c103 0 172 67 172 167v299z" />
    <glyph glyph-name="ubreve" unicode="&#x16d;" horiz-adv-x="604" 
d="M299 573c-72 0 -126 54 -126 123h47c0 -45 34 -79 79 -79c44 0 78 34 78 79h47c0 -69 -54 -123 -125 -123zM467 510h58v-510h-58v95c-36 -68 -103 -107 -189 -107c-123 0 -205 81 -205 205v317h58v-301c0 -99 65 -165 164 -165c103 0 172 67 172 167v299z" />
    <glyph glyph-name="ucircumflex" unicode="&#xfb;" horiz-adv-x="604" 
d="M299 672l-81 -89h-56l101 122h72l101 -122h-56zM467 510h58v-510h-58v95c-36 -68 -103 -107 -189 -107c-123 0 -205 81 -205 205v317h58v-301c0 -99 65 -165 164 -165c103 0 172 67 172 167v299z" />
    <glyph glyph-name="uni0215" unicode="&#x215;" horiz-adv-x="604" 
d="M240 583h-57l-91 122h67zM421 583h-57l-91 122h67zM467 510h58v-510h-58v95c-36 -68 -103 -107 -189 -107c-123 0 -205 81 -205 205v317h58v-301c0 -99 65 -165 164 -165c103 0 172 67 172 167v299z" />
    <glyph glyph-name="udieresis" unicode="&#xfc;" horiz-adv-x="604" 
d="M198 593c-22 0 -40 17 -40 40s18 40 40 40c23 0 41 -17 41 -40s-18 -40 -41 -40zM399 593c-22 0 -40 17 -40 40s18 40 40 40c23 0 41 -17 41 -40s-18 -40 -41 -40zM467 510h58v-510h-58v95c-36 -68 -103 -107 -189 -107c-123 0 -205 81 -205 205v317h58v-301
c0 -99 65 -165 164 -165c103 0 172 67 172 167v299z" />
    <glyph glyph-name="uni1EE5" unicode="&#x1ee5;" horiz-adv-x="604" 
d="M467 510h58v-510h-58v95c-36 -68 -103 -107 -189 -107c-123 0 -205 81 -205 205v317h58v-301c0 -99 65 -165 164 -165c103 0 172 67 172 167v299zM299 -83c23 0 41 -18 41 -41c0 -24 -18 -42 -41 -42c-24 0 -42 18 -42 42c0 23 18 41 42 41z" />
    <glyph glyph-name="ugrave" unicode="&#xf9;" horiz-adv-x="604" 
d="M337 583h-63l-119 122h77zM467 510h58v-510h-58v95c-36 -68 -103 -107 -189 -107c-123 0 -205 81 -205 205v317h58v-301c0 -99 65 -165 164 -165c103 0 172 67 172 167v299z" />
    <glyph glyph-name="uhungarumlaut" unicode="&#x171;" horiz-adv-x="604" 
d="M325 705l-91 -122h-57l81 122h67zM506 705l-91 -122h-57l81 122h67zM467 510h58v-510h-58v95c-36 -68 -103 -107 -189 -107c-123 0 -205 81 -205 205v317h58v-301c0 -99 65 -165 164 -165c103 0 172 67 172 167v299z" />
    <glyph glyph-name="uni0217" unicode="&#x217;" horiz-adv-x="604" 
d="M299 656c-45 0 -79 -34 -79 -80h-47c0 70 54 123 126 123c71 0 125 -53 125 -123h-47c0 46 -34 80 -78 80zM467 510h58v-510h-58v95c-36 -68 -103 -107 -189 -107c-123 0 -205 81 -205 205v317h58v-301c0 -99 65 -165 164 -165c103 0 172 67 172 167v299z" />
    <glyph glyph-name="umacron" unicode="&#x16b;" horiz-adv-x="604" 
d="M410 651v-50h-221v50h221zM467 510h58v-510h-58v95c-36 -68 -103 -107 -189 -107c-123 0 -205 81 -205 205v317h58v-301c0 -99 65 -165 164 -165c103 0 172 67 172 167v299z" />
    <glyph glyph-name="uogonek" unicode="&#x173;" horiz-adv-x="604" 
d="M476 -169c22 0 45 9 62 23v-46c-19 -13 -46 -21 -73 -21c-54 0 -95 39 -95 90c0 52 42 97 101 123h-4v95c-36 -68 -103 -107 -189 -107c-123 0 -205 81 -205 205v317h58v-301c0 -99 65 -165 164 -165c103 0 172 67 172 167v299h58v-510h-2c-66 -30 -105 -70 -105 -112
c0 -34 26 -57 58 -57z" />
    <glyph glyph-name="uring" unicode="&#x16f;" horiz-adv-x="604" 
d="M299 569c-43 0 -77 33 -77 76c0 44 34 77 77 77c44 0 78 -33 78 -77c0 -43 -34 -76 -78 -76zM299 689c-24 0 -42 -19 -42 -44s18 -43 42 -43s43 18 43 43s-19 44 -43 44zM467 510h58v-510h-58v95c-36 -68 -103 -107 -189 -107c-123 0 -205 81 -205 205v317h58v-301
c0 -99 65 -165 164 -165c103 0 172 67 172 167v299z" />
    <glyph glyph-name="utilde" unicode="&#x169;" horiz-adv-x="604" 
d="M236 653c-33 0 -57 -25 -57 -57h-43c0 59 37 104 93 104c64 0 83 -62 133 -62c32 0 56 24 56 57h44c0 -60 -37 -104 -94 -104c-63 0 -82 62 -132 62zM467 510h58v-510h-58v95c-36 -68 -103 -107 -189 -107c-123 0 -205 81 -205 205v317h58v-301c0 -99 65 -165 164 -165
c103 0 172 67 172 167v299z" />
    <glyph glyph-name="v" unicode="v" horiz-adv-x="568" 
d="M482 510h65l-232 -510h-62l-232 510h67l197 -443z" />
    <glyph glyph-name="w" unicode="w" horiz-adv-x="917" 
d="M828 510h64l-200 -510h-62l-171 444l-172 -444h-62l-200 510h66l167 -443l171 443h61l171 -442z" />
    <glyph glyph-name="wacute" unicode="&#x1e83;" horiz-adv-x="917" 
d="M608 705l-119 -122h-63l105 122h77zM828 510h64l-200 -510h-62l-171 444l-172 -444h-62l-200 510h66l167 -443l171 443h61l171 -442z" />
    <glyph glyph-name="wcircumflex" unicode="&#x175;" horiz-adv-x="917" 
d="M465 672l-81 -89h-56l101 122h72l101 -122h-56zM828 510h64l-200 -510h-62l-171 444l-172 -444h-62l-200 510h66l167 -443l171 443h61l171 -442z" />
    <glyph glyph-name="wdieresis" unicode="&#x1e85;" horiz-adv-x="917" 
d="M364 593c-22 0 -40 17 -40 40s18 40 40 40c23 0 41 -17 41 -40s-18 -40 -41 -40zM565 593c-22 0 -40 17 -40 40s18 40 40 40c23 0 41 -17 41 -40s-18 -40 -41 -40zM828 510h64l-200 -510h-62l-171 444l-172 -444h-62l-200 510h66l167 -443l171 443h61l171 -442z" />
    <glyph glyph-name="wgrave" unicode="&#x1e81;" horiz-adv-x="917" 
d="M503 583h-63l-119 122h77zM828 510h64l-200 -510h-62l-171 444l-172 -444h-62l-200 510h66l167 -443l171 443h61l171 -442z" />
    <glyph glyph-name="x" unicode="x" horiz-adv-x="569" 
d="M530 0h-72l-174 219l-174 -219h-71l205 256l-202 254h71l172 -216l171 216h71l-202 -254z" />
    <glyph glyph-name="y" unicode="y" horiz-adv-x="568" 
d="M482 510h65l-318 -700h-63l86 190l-231 510h67l197 -443z" />
    <glyph glyph-name="yacute" unicode="&#xfd;" horiz-adv-x="568" 
d="M429 705l-119 -122h-63l105 122h77zM482 510h65l-318 -700h-63l86 190l-231 510h67l197 -443z" />
    <glyph glyph-name="ycircumflex" unicode="&#x177;" horiz-adv-x="568" 
d="M285 672l-81 -89h-56l101 122h72l101 -122h-56zM482 510h65l-318 -700h-63l86 190l-231 510h67l197 -443z" />
    <glyph glyph-name="ydieresis" unicode="&#xff;" horiz-adv-x="568" 
d="M184 593c-22 0 -40 17 -40 40s18 40 40 40c23 0 41 -17 41 -40s-18 -40 -41 -40zM385 593c-22 0 -40 17 -40 40s18 40 40 40c23 0 41 -17 41 -40s-18 -40 -41 -40zM482 510h65l-318 -700h-63l86 190l-231 510h67l197 -443z" />
    <glyph glyph-name="ygrave" unicode="&#x1ef3;" horiz-adv-x="568" 
d="M323 583h-63l-119 122h77zM482 510h65l-318 -700h-63l86 190l-231 510h67l197 -443z" />
    <glyph glyph-name="uni0233" unicode="&#x233;" horiz-adv-x="568" 
d="M396 651v-50h-221v50h221zM482 510h65l-318 -700h-63l86 190l-231 510h67l197 -443z" />
    <glyph glyph-name="uni1EF9" unicode="&#x1ef9;" horiz-adv-x="568" 
d="M222 653c-33 0 -57 -25 -57 -57h-43c0 59 37 104 93 104c64 0 83 -62 133 -62c32 0 56 24 56 57h44c0 -60 -37 -104 -94 -104c-63 0 -82 62 -132 62zM482 510h65l-318 -700h-63l86 190l-231 510h67l197 -443z" />
    <glyph glyph-name="z" unicode="z" horiz-adv-x="501" 
d="M130 56h323v-56h-405v42l316 412h-312v56h394v-42z" />
    <glyph glyph-name="zacute" unicode="&#x17a;" horiz-adv-x="501" 
d="M394 705l-119 -122h-63l105 122h77zM130 56h323v-56h-405v42l316 412h-312v56h394v-42z" />
    <glyph glyph-name="zcaron" unicode="&#x17e;" horiz-adv-x="501" 
d="M287 583h-72l-101 122h56l81 -89l81 89h56zM130 56h323v-56h-405v42l316 412h-312v56h394v-42z" />
    <glyph glyph-name="zdotaccent" unicode="&#x17c;" horiz-adv-x="501" 
d="M251 593c-24 0 -42 18 -42 41c0 24 18 42 42 42c23 0 41 -18 41 -42c0 -23 -18 -41 -41 -41zM130 56h323v-56h-405v42l316 412h-312v56h394v-42z" />
    <glyph glyph-name="uni1E93" unicode="&#x1e93;" horiz-adv-x="501" 
d="M130 56h323v-56h-405v42l316 412h-312v56h394v-42zM251 -83c23 0 41 -18 41 -41c0 -24 -18 -42 -41 -42c-24 0 -42 18 -42 42c0 23 18 41 42 41z" />
    <glyph glyph-name="a.ss01" horiz-adv-x="519" 
d="M254 522c113 0 191 -75 191 -187v-335h-55v57c-34 -43 -90 -69 -153 -69c-108 0 -190 74 -190 172s82 172 190 172c61 0 116 -25 150 -66v68c0 81 -53 135 -134 135c-72 0 -122 -42 -131 -105h-60c14 94 87 158 192 158zM247 40c79 0 140 52 140 120s-61 120 -140 120
s-140 -52 -140 -120s61 -120 140 -120z" />
    <glyph glyph-name="aacute.ss01" horiz-adv-x="519" 
d="M399 705l-119 -122h-63l105 122h77zM254 522c113 0 191 -75 191 -187v-335h-55v57c-34 -43 -90 -69 -153 -69c-108 0 -190 74 -190 172s82 172 190 172c61 0 116 -25 150 -66v68c0 81 -53 135 -134 135c-72 0 -122 -42 -131 -105h-60c14 94 87 158 192 158zM247 40
c79 0 140 52 140 120s-61 120 -140 120s-140 -52 -140 -120s61 -120 140 -120z" />
    <glyph glyph-name="abreve.ss01" horiz-adv-x="519" 
d="M256 573c-72 0 -126 54 -126 123h47c0 -45 34 -79 79 -79c44 0 78 34 78 79h47c0 -69 -54 -123 -125 -123zM254 522c113 0 191 -75 191 -187v-335h-55v57c-34 -43 -90 -69 -153 -69c-108 0 -190 74 -190 172s82 172 190 172c61 0 116 -25 150 -66v68
c0 81 -53 135 -134 135c-72 0 -122 -42 -131 -105h-60c14 94 87 158 192 158zM247 40c79 0 140 52 140 120s-61 120 -140 120s-140 -52 -140 -120s61 -120 140 -120z" />
    <glyph glyph-name="uni01CE.ss01" horiz-adv-x="519" 
d="M292 583h-72l-101 122h56l81 -89l81 89h56zM254 522c113 0 191 -75 191 -187v-335h-55v57c-34 -43 -90 -69 -153 -69c-108 0 -190 74 -190 172s82 172 190 172c61 0 116 -25 150 -66v68c0 81 -53 135 -134 135c-72 0 -122 -42 -131 -105h-60c14 94 87 158 192 158z
M247 40c79 0 140 52 140 120s-61 120 -140 120s-140 -52 -140 -120s61 -120 140 -120z" />
    <glyph glyph-name="acircumflex.ss01" horiz-adv-x="519" 
d="M256 672l-81 -89h-56l101 122h72l101 -122h-56zM254 522c113 0 191 -75 191 -187v-335h-55v57c-34 -43 -90 -69 -153 -69c-108 0 -190 74 -190 172s82 172 190 172c61 0 116 -25 150 -66v68c0 81 -53 135 -134 135c-72 0 -122 -42 -131 -105h-60c14 94 87 158 192 158z
M247 40c79 0 140 52 140 120s-61 120 -140 120s-140 -52 -140 -120s61 -120 140 -120z" />
    <glyph glyph-name="uni0201.ss01" horiz-adv-x="519" 
d="M196 583h-57l-91 122h67zM377 583h-57l-91 122h67zM254 522c113 0 191 -75 191 -187v-335h-55v57c-34 -43 -90 -69 -153 -69c-108 0 -190 74 -190 172s82 172 190 172c61 0 116 -25 150 -66v68c0 81 -53 135 -134 135c-72 0 -122 -42 -131 -105h-60c14 94 87 158 192 158
zM247 40c79 0 140 52 140 120s-61 120 -140 120s-140 -52 -140 -120s61 -120 140 -120z" />
    <glyph glyph-name="adieresis.ss01" horiz-adv-x="519" 
d="M155 593c-22 0 -40 17 -40 40s18 40 40 40c23 0 41 -17 41 -40s-18 -40 -41 -40zM356 593c-22 0 -40 17 -40 40s18 40 40 40c23 0 41 -17 41 -40s-18 -40 -41 -40zM254 522c113 0 191 -75 191 -187v-335h-55v57c-34 -43 -90 -69 -153 -69c-108 0 -190 74 -190 172
s82 172 190 172c61 0 116 -25 150 -66v68c0 81 -53 135 -134 135c-72 0 -122 -42 -131 -105h-60c14 94 87 158 192 158zM247 40c79 0 140 52 140 120s-61 120 -140 120s-140 -52 -140 -120s61 -120 140 -120z" />
    <glyph glyph-name="uni1EA1.ss01" horiz-adv-x="519" 
d="M254 522c113 0 191 -75 191 -187v-335h-55v57c-34 -43 -90 -69 -153 -69c-108 0 -190 74 -190 172s82 172 190 172c61 0 116 -25 150 -66v68c0 81 -53 135 -134 135c-72 0 -122 -42 -131 -105h-60c14 94 87 158 192 158zM247 40c79 0 140 52 140 120s-61 120 -140 120
s-140 -52 -140 -120s61 -120 140 -120zM256 -83c23 0 41 -18 41 -41c0 -24 -18 -42 -41 -42c-24 0 -42 18 -42 42c0 23 18 41 42 41z" />
    <glyph glyph-name="agrave.ss01" horiz-adv-x="519" 
d="M294 583h-63l-119 122h77zM254 522c113 0 191 -75 191 -187v-335h-55v57c-34 -43 -90 -69 -153 -69c-108 0 -190 74 -190 172s82 172 190 172c61 0 116 -25 150 -66v68c0 81 -53 135 -134 135c-72 0 -122 -42 -131 -105h-60c14 94 87 158 192 158zM247 40
c79 0 140 52 140 120s-61 120 -140 120s-140 -52 -140 -120s61 -120 140 -120z" />
    <glyph glyph-name="uni0203.ss01" horiz-adv-x="519" 
d="M256 656c-45 0 -79 -34 -79 -80h-47c0 70 54 123 126 123c71 0 125 -53 125 -123h-47c0 46 -34 80 -78 80zM254 522c113 0 191 -75 191 -187v-335h-55v57c-34 -43 -90 -69 -153 -69c-108 0 -190 74 -190 172s82 172 190 172c61 0 116 -25 150 -66v68
c0 81 -53 135 -134 135c-72 0 -122 -42 -131 -105h-60c14 94 87 158 192 158zM247 40c79 0 140 52 140 120s-61 120 -140 120s-140 -52 -140 -120s61 -120 140 -120z" />
    <glyph glyph-name="amacron.ss01" horiz-adv-x="519" 
d="M366 651v-50h-221v50h221zM254 522c113 0 191 -75 191 -187v-335h-55v57c-34 -43 -90 -69 -153 -69c-108 0 -190 74 -190 172s82 172 190 172c61 0 116 -25 150 -66v68c0 81 -53 135 -134 135c-72 0 -122 -42 -131 -105h-60c14 94 87 158 192 158zM247 40
c79 0 140 52 140 120s-61 120 -140 120s-140 -52 -140 -120s61 -120 140 -120z" />
    <glyph glyph-name="aogonek.ss01" horiz-adv-x="519" 
d="M397 -169c22 0 45 9 62 23v-46c-19 -13 -46 -21 -73 -21c-54 0 -95 39 -95 90c0 52 42 97 101 123h-2v57c-34 -43 -90 -69 -153 -69c-108 0 -190 74 -190 172s82 172 190 172c61 0 116 -25 150 -66v68c0 81 -53 135 -134 135c-72 0 -122 -42 -131 -105h-60
c14 94 87 158 192 158c113 0 191 -75 191 -187v-335h-1c-66 -30 -105 -70 -105 -112c0 -34 26 -57 58 -57zM247 40c79 0 140 52 140 120s-61 120 -140 120s-140 -52 -140 -120s61 -120 140 -120z" />
    <glyph glyph-name="aring.ss01" horiz-adv-x="519" 
d="M255 569c-43 0 -77 33 -77 76c0 44 34 77 77 77c44 0 78 -33 78 -77c0 -43 -34 -76 -78 -76zM255 689c-24 0 -42 -19 -42 -44s18 -43 42 -43s43 18 43 43s-19 44 -43 44zM254 522c113 0 191 -75 191 -187v-335h-55v57c-34 -43 -90 -69 -153 -69c-108 0 -190 74 -190 172
s82 172 190 172c61 0 116 -25 150 -66v68c0 81 -53 135 -134 135c-72 0 -122 -42 -131 -105h-60c14 94 87 158 192 158zM247 40c79 0 140 52 140 120s-61 120 -140 120s-140 -52 -140 -120s61 -120 140 -120z" />
    <glyph glyph-name="atilde.ss01" horiz-adv-x="519" 
d="M192 653c-33 0 -57 -25 -57 -57h-43c0 59 37 104 93 104c64 0 83 -62 133 -62c32 0 56 24 56 57h44c0 -60 -37 -104 -94 -104c-63 0 -82 62 -132 62zM254 522c113 0 191 -75 191 -187v-335h-55v57c-34 -43 -90 -69 -153 -69c-108 0 -190 74 -190 172s82 172 190 172
c61 0 116 -25 150 -66v68c0 81 -53 135 -134 135c-72 0 -122 -42 -131 -105h-60c14 94 87 158 192 158zM247 40c79 0 140 52 140 120s-61 120 -140 120s-140 -52 -140 -120s61 -120 140 -120z" />
    <glyph glyph-name="k.ss02" horiz-adv-x="523" 
d="M423 0l-206 224l-80 -83v-141h-58v720h58v-501l280 291h76l-235 -244l242 -266h-77z" />
    <glyph glyph-name="uni0137.ss02" horiz-adv-x="523" 
d="M258 266l242 -266h-77l-206 224l-80 -83v-141h-58v720h58v-501l280 291h76zM223 -216l31 144h62l-45 -144h-48z" />
    <glyph glyph-name="f.ss06" unicode="&#xe01a;" horiz-adv-x="364" 
d="M328 669c-82 0 -132 -32 -132 -118v-41h132v-53h-132v-469c0 -134 -103 -236 -238 -236v57c103 0 180 77 180 179v469h-100v53h100v44c0 121 69 169 190 169v-54z" />
    <glyph glyph-name="h.ss06" unicode="&#xe01b;" horiz-adv-x="622" 
d="M549 -12c0 -102 77 -179 179 -179v-57c-135 0 -237 102 -237 236v304c0 105 -69 174 -173 174c-108 0 -181 -70 -181 -176v-290h-58v720h58v-312c37 72 107 114 198 114c128 0 214 -84 214 -213v-321z" />
    <glyph glyph-name="k.ss06" unicode="&#xe01c;" horiz-adv-x="502" 
d="M508 -24c127 -105 192 -134 301 -134v-57c-132 0 -220 46 -379 191l-293 257v-233h-58v720h58v-437l260 227h77l-282 -253z" />
    <glyph glyph-name="l.ss06" unicode="&#xe01d;" horiz-adv-x="217" 
d="M317 -248c-135 0 -238 102 -238 236v732h58v-732c0 -102 77 -179 180 -179v-57z" />
    <glyph glyph-name="m.ss06" unicode="&#xe01e;" horiz-adv-x="953" 
d="M880 -12c0 -102 77 -179 180 -179v-57c-135 0 -238 102 -238 236v324c0 93 -60 154 -153 154c-96 0 -160 -62 -160 -156v-310h-58v312c0 93 -61 154 -153 154c-96 0 -161 -62 -161 -156v-310h-58v510h58v-87c34 63 97 99 178 99c88 0 154 -45 181 -117
c32 74 100 117 190 117c117 0 194 -77 194 -194v-340z" />
    <glyph glyph-name="n.ss06" unicode="&#xe01f;" horiz-adv-x="622" 
d="M549 -12c0 -102 77 -179 179 -179v-57c-135 0 -237 102 -237 236v304c0 105 -69 174 -173 174c-108 0 -181 -70 -181 -176v-290h-58v510h58v-100c37 71 107 112 198 112c128 0 214 -84 214 -213v-321z" />
    <glyph glyph-name="u.ss07" unicode="&#xe020;" horiz-adv-x="604" 
d="M467 510h58v-510h-58v95c-36 -68 -103 -107 -189 -107c-123 0 -205 81 -205 205v442c0 88 -63 151 -149 151c-85 0 -149 -63 -149 -151h-58c0 119 89 208 207 208s207 -89 207 -208v-426c0 -99 65 -165 164 -165c103 0 172 67 172 167v299z" />
    <glyph glyph-name="i.ss08" unicode="&#xe021;" horiz-adv-x="217" 
d="M108 600c-44 0 -77 33 -77 77c0 45 33 78 77 78c45 0 78 -33 78 -78c0 -44 -33 -77 -78 -77zM79 0v510h58v-510h-58z" />
    <glyph glyph-name="j.ss08" unicode="&#xe022;" horiz-adv-x="223" 
d="M115 600c-45 0 -78 33 -78 77c0 45 33 78 78 78c44 0 77 -33 77 -78c0 -44 -33 -77 -77 -77zM-19 -202v54c64 0 105 32 105 103v555h58v-558c0 -105 -61 -154 -163 -154z" />
    <glyph glyph-name="t.ss09" horiz-adv-x="372" 
d="M338 510v-53h-125v-457h-58v457h-119v53h119v150h58v-150h125z" />
    <glyph glyph-name="tbar.ss09" horiz-adv-x="372" 
d="M338 457h-125v-190h114v-44h-114v-223h-58v223h-108v44h108v190h-119v53h119v150h58v-150h125v-53z" />
    <glyph glyph-name="tcaron.ss09" horiz-adv-x="372" 
d="M358 758l-32 -187h-45l21 187h56zM213 660v-150h125v-53h-125v-457h-58v457h-119v53h119v150h58z" />
    <glyph glyph-name="uni0163.ss09" horiz-adv-x="372" 
d="M213 0h-7l-29 -37c4 1 9 1 13 1c49 0 86 -39 86 -89s-41 -90 -94 -90s-93 40 -93 90h38c0 -31 25 -55 55 -55c31 0 55 24 55 55c0 32 -24 55 -55 55c-14 0 -29 -7 -37 -15l-34 16l52 69h-8v457h-119v53h119v150h58v-150h125v-53h-125v-457z" />
    <glyph glyph-name="uni021B.ss09" horiz-adv-x="372" 
d="M213 510h125v-53h-125v-457h-58v457h-119v53h119v150h58v-150zM132 -216l31 144h62l-45 -144h-48z" />
    <glyph glyph-name="uni1E6D.ss09" horiz-adv-x="372" 
d="M213 510h125v-53h-125v-457h-58v457h-119v53h119v150h58v-150zM184 -83c23 0 41 -18 41 -41c0 -24 -18 -42 -41 -42c-24 0 -42 18 -42 42c0 23 18 41 42 41z" />
    <glyph glyph-name="f_t.dlig" horiz-adv-x="691" 
d="M657 510v-53h-125v-457h-58v457h-278v-457h-58v457h-100v53h100v44c0 121 69 169 190 169v-54c-82 0 -132 -32 -132 -118v-41h278v139l58 11v-150h125z" />
    <glyph glyph-name="t_t.dlig" horiz-adv-x="687" 
d="M653 510v-53h-125v-457h-58v457h-257v-457h-58v457h-119v53h119v139l58 11v-150h257v139l58 11v-150h125z" />
    <glyph glyph-name="ordfeminine" unicode="&#xaa;" horiz-adv-x="397" 
d="M301 691h45v-272h-45v55c-24 -38 -64 -63 -111 -63c-79 0 -139 62 -139 144s60 144 139 144c47 0 87 -25 111 -63v55zM199 452c58 0 102 44 102 103s-44 103 -102 103s-102 -44 -102 -103s44 -103 102 -103z" />
    <glyph glyph-name="ordmasculine" unicode="&#xba;" horiz-adv-x="398" 
d="M199 411c-84 0 -148 62 -148 144s64 144 148 144s148 -62 148 -144s-64 -144 -148 -144zM199 452c58 0 102 44 102 103s-44 103 -102 103c-57 0 -102 -44 -102 -103s45 -103 102 -103z" />
    <glyph glyph-name="zero" unicode="0" horiz-adv-x="649" 
d="M324 -12c-154 0 -262 146 -262 357s108 357 262 357c155 0 263 -146 263 -357s-108 -357 -263 -357zM324 48c117 0 199 122 199 297s-82 297 -199 297c-116 0 -198 -122 -198 -297s82 -297 198 -297z" />
    <glyph glyph-name="one" unicode="1" horiz-adv-x="358" 
d="M220 690h43v-690h-61v616l-164 -90v65z" />
    <glyph glyph-name="two" unicode="2" horiz-adv-x="528" 
d="M142 58h329v-58h-416v49l263 298c45 50 79 102 79 156c0 79 -58 137 -136 137s-136 -58 -136 -137h-64c0 114 86 199 200 199s200 -85 200 -199c0 -71 -37 -128 -89 -186z" />
    <glyph glyph-name="three" unicode="3" horiz-adv-x="519" 
d="M349 358c68 -27 115 -93 115 -174c0 -112 -89 -196 -206 -196c-118 0 -206 84 -206 196h63c0 -78 61 -136 143 -136c81 0 142 58 142 136c0 83 -58 143 -138 143h-82v59h82c72 0 124 56 124 132c0 71 -55 124 -128 124c-74 0 -128 -53 -128 -124h-64
c0 105 82 184 192 184c109 0 191 -79 191 -184c0 -73 -40 -134 -100 -160z" />
    <glyph glyph-name="four" unicode="4" horiz-adv-x="559" 
d="M530 227v-58h-100v-169h-62v169h-331v45l328 476h65v-463h100zM109 227h259v378z" />
    <glyph glyph-name="five" unicode="5" horiz-adv-x="563" 
d="M297 432c126 0 220 -95 220 -222s-97 -222 -225 -222s-224 95 -224 222h63c0 -92 69 -162 161 -162s161 70 161 162s-69 162 -161 162c-56 0 -119 -31 -145 -73h-63l32 391h357v-58h-301l-22 -260c31 35 91 60 147 60z" />
    <glyph glyph-name="six" unicode="6" horiz-adv-x="545" 
d="M280 432c125 0 220 -96 220 -222s-97 -222 -225 -222s-225 96 -225 222c0 52 17 100 43 138l238 342h75l-187 -267c20 6 41 9 61 9zM275 48c92 0 161 70 161 162c0 93 -69 162 -161 162s-162 -69 -162 -162c0 -92 70 -162 162 -162z" />
    <glyph glyph-name="seven" unicode="7" horiz-adv-x="527" 
d="M50 690h442v-48l-307 -642h-70l304 632h-369v58z" />
    <glyph glyph-name="eight" unicode="8" horiz-adv-x="533" 
d="M358 358c72 -30 120 -95 120 -175c0 -111 -91 -195 -212 -195c-120 0 -211 84 -211 195c0 80 48 145 120 174c-64 30 -105 90 -105 163c0 103 84 182 196 182c113 0 197 -79 197 -182c0 -73 -42 -133 -105 -162zM134 514c0 -73 57 -129 132 -129c76 0 133 56 133 129
c0 74 -57 128 -133 128c-75 0 -132 -54 -132 -128zM266 48c85 0 148 60 148 140s-63 140 -148 140c-84 0 -147 -60 -147 -140s63 -140 147 -140z" />
    <glyph glyph-name="nine" unicode="9" horiz-adv-x="548" 
d="M273 702c128 0 226 -96 226 -222c0 -52 -17 -100 -43 -138l-235 -342h-74l185 268c-21 -6 -42 -10 -64 -10c-124 0 -220 96 -220 222s98 222 225 222zM273 318c92 0 162 69 162 162c0 92 -70 162 -162 162c-91 0 -161 -70 -161 -162c0 -93 70 -162 161 -162z" />
    <glyph glyph-name="zero.subs" horiz-adv-x="396" 
d="M198 -121c-93 0 -159 88 -159 214s66 214 159 214s158 -88 158 -214s-65 -214 -158 -214zM198 -76c65 0 111 68 111 169s-46 169 -111 169s-111 -68 -111 -169s46 -169 111 -169z" />
    <glyph glyph-name="one.subs" horiz-adv-x="217" 
d="M131 300h32v-414h-46v358l-95 -52v49z" />
    <glyph glyph-name="two.subs" horiz-adv-x="330" 
d="M102 -72h193v-42h-260v35l161 174c24 26 47 55 47 89c0 46 -34 80 -79 80s-79 -35 -79 -80h-47c0 70 55 123 127 123c71 0 125 -53 125 -123c0 -48 -28 -83 -54 -111z" />
    <glyph glyph-name="three.subs" horiz-adv-x="324" 
d="M227 101c40 -19 64 -56 64 -101c0 -67 -55 -121 -130 -121c-73 0 -130 52 -130 122h48c0 -45 35 -79 83 -79c47 0 83 34 83 79c0 47 -34 81 -80 81h-54v36h54c41 0 71 33 71 75c0 41 -32 72 -74 72c-43 0 -75 -31 -75 -72h-48c0 65 53 114 122 114c70 0 122 -51 122 -112
c0 -43 -22 -77 -56 -94z" />
    <glyph glyph-name="four.subs" horiz-adv-x="349" 
d="M329 25v-42h-59v-97h-46v97h-200v34l192 283h54v-275h59zM75 25h149v221z" />
    <glyph glyph-name="five.subs" horiz-adv-x="347" 
d="M184 145c77 0 135 -57 135 -132c0 -77 -60 -134 -139 -134c-78 0 -138 57 -138 133h47c0 -52 39 -91 91 -91c53 0 92 39 92 92c0 52 -39 92 -92 92c-32 0 -68 -18 -83 -41h-46l20 236h221v-42h-180l-12 -145c19 19 53 32 84 32z" />
    <glyph glyph-name="six.subs" horiz-adv-x="338" 
d="M175 147c76 0 134 -58 134 -133c0 -76 -59 -135 -138 -135s-139 59 -139 135c0 31 11 60 26 83l141 203h54l-108 -157c9 3 20 4 30 4zM171 -77c52 0 91 39 91 91c0 51 -39 92 -91 92s-91 -40 -91 -92s39 -91 91 -91z" />
    <glyph glyph-name="seven.subs" horiz-adv-x="323" 
d="M33 300h268v-35l-180 -379h-52l177 371h-213v43z" />
    <glyph glyph-name="eight.subs" horiz-adv-x="329" 
d="M227 100c42 -19 70 -57 70 -103c0 -67 -57 -118 -132 -118s-131 51 -131 118c0 46 27 84 69 103c-37 18 -61 54 -61 96c0 63 53 111 123 111s123 -48 123 -111c0 -42 -24 -77 -61 -96zM165 262c-43 0 -76 -30 -76 -72c0 -41 33 -73 76 -73s76 32 76 73
c0 42 -33 72 -76 72zM165 -76c47 0 84 33 84 78s-37 79 -84 79s-84 -34 -84 -79c0 -44 36 -78 84 -78z" />
    <glyph glyph-name="nine.subs" horiz-adv-x="338" 
d="M170 307c78 0 138 -59 138 -135c0 -30 -10 -59 -26 -83l-139 -203h-55l108 157c-10 -3 -20 -4 -30 -4c-76 0 -135 57 -135 133s60 135 139 135zM170 80c52 0 92 40 92 92s-40 92 -92 92s-92 -40 -92 -92c0 -51 40 -92 92 -92z" />
    <glyph glyph-name="zero.dnom" horiz-adv-x="396" 
d="M198 -7c-93 0 -159 88 -159 214s66 214 159 214s158 -88 158 -214s-65 -214 -158 -214zM198 38c65 0 111 68 111 169s-46 169 -111 169s-111 -68 -111 -169s46 -169 111 -169z" />
    <glyph glyph-name="one.dnom" horiz-adv-x="217" 
d="M131 414h32v-414h-46v358l-95 -52v49z" />
    <glyph glyph-name="two.dnom" horiz-adv-x="330" 
d="M102 42h193v-42h-260v35l161 174c24 26 47 55 47 89c0 46 -34 80 -79 80s-79 -35 -79 -80h-47c0 70 55 123 127 123c71 0 125 -53 125 -123c0 -48 -28 -83 -54 -111z" />
    <glyph glyph-name="three.dnom" horiz-adv-x="324" 
d="M227 215c40 -19 64 -56 64 -101c0 -67 -55 -121 -130 -121c-73 0 -130 52 -130 122h48c0 -45 35 -79 83 -79c47 0 83 34 83 79c0 47 -34 81 -80 81h-54v36h54c41 0 71 33 71 75c0 41 -32 72 -74 72c-43 0 -75 -31 -75 -72h-48c0 65 53 114 122 114c70 0 122 -51 122 -112
c0 -43 -22 -77 -56 -94z" />
    <glyph glyph-name="four.dnom" horiz-adv-x="349" 
d="M329 139v-42h-59v-97h-46v97h-200v34l192 283h54v-275h59zM75 139h149v221z" />
    <glyph glyph-name="five.dnom" horiz-adv-x="347" 
d="M184 259c77 0 135 -57 135 -132c0 -77 -60 -134 -139 -134c-78 0 -138 57 -138 133h47c0 -52 39 -91 91 -91c53 0 92 39 92 92c0 52 -39 92 -92 92c-32 0 -68 -18 -83 -41h-46l20 236h221v-42h-180l-12 -145c19 19 53 32 84 32z" />
    <glyph glyph-name="six.dnom" horiz-adv-x="338" 
d="M175 261c76 0 134 -58 134 -133c0 -76 -59 -135 -138 -135s-139 59 -139 135c0 31 11 60 26 83l141 203h54l-108 -157c9 3 20 4 30 4zM171 37c52 0 91 39 91 91c0 51 -39 92 -91 92s-91 -40 -91 -92s39 -91 91 -91z" />
    <glyph glyph-name="seven.dnom" horiz-adv-x="323" 
d="M33 414h268v-35l-180 -379h-52l177 371h-213v43z" />
    <glyph glyph-name="eight.dnom" horiz-adv-x="329" 
d="M227 214c42 -19 70 -57 70 -103c0 -67 -57 -118 -132 -118s-131 51 -131 118c0 46 27 84 69 103c-37 18 -61 54 -61 96c0 63 53 111 123 111s123 -48 123 -111c0 -42 -24 -77 -61 -96zM165 376c-43 0 -76 -30 -76 -72c0 -41 33 -73 76 -73s76 32 76 73
c0 42 -33 72 -76 72zM165 38c47 0 84 33 84 78s-37 79 -84 79s-84 -34 -84 -79c0 -44 36 -78 84 -78z" />
    <glyph glyph-name="nine.dnom" horiz-adv-x="338" 
d="M170 421c78 0 138 -59 138 -135c0 -30 -10 -59 -26 -83l-139 -203h-55l108 157c-10 -3 -20 -4 -30 -4c-76 0 -135 57 -135 133s60 135 139 135zM170 194c52 0 92 40 92 92s-40 92 -92 92s-92 -40 -92 -92c0 -51 40 -92 92 -92z" />
    <glyph glyph-name="zero.numr" horiz-adv-x="396" 
d="M198 269c-93 0 -159 88 -159 214s66 214 159 214s158 -88 158 -214s-65 -214 -158 -214zM198 314c65 0 111 68 111 169s-46 169 -111 169s-111 -68 -111 -169s46 -169 111 -169z" />
    <glyph glyph-name="one.numr" horiz-adv-x="217" 
d="M131 690h32v-414h-46v358l-95 -52v49z" />
    <glyph glyph-name="two.numr" horiz-adv-x="330" 
d="M102 318h193v-42h-260v35l161 174c24 26 47 55 47 89c0 46 -34 80 -79 80s-79 -35 -79 -80h-47c0 70 55 123 127 123c71 0 125 -53 125 -123c0 -48 -28 -83 -54 -111z" />
    <glyph glyph-name="three.numr" horiz-adv-x="324" 
d="M227 491c40 -19 64 -56 64 -101c0 -67 -55 -121 -130 -121c-73 0 -130 52 -130 122h48c0 -45 35 -79 83 -79c47 0 83 34 83 79c0 47 -34 81 -80 81h-54v36h54c41 0 71 33 71 75c0 41 -32 72 -74 72c-43 0 -75 -31 -75 -72h-48c0 65 53 114 122 114c70 0 122 -51 122 -112
c0 -43 -22 -77 -56 -94z" />
    <glyph glyph-name="four.numr" horiz-adv-x="349" 
d="M329 415v-42h-59v-97h-46v97h-200v34l192 283h54v-275h59zM75 415h149v221z" />
    <glyph glyph-name="five.numr" horiz-adv-x="347" 
d="M184 535c77 0 135 -57 135 -132c0 -77 -60 -134 -139 -134c-78 0 -138 57 -138 133h47c0 -52 39 -91 91 -91c53 0 92 39 92 92c0 52 -39 92 -92 92c-32 0 -68 -18 -83 -41h-46l20 236h221v-42h-180l-12 -145c19 19 53 32 84 32z" />
    <glyph glyph-name="six.numr" horiz-adv-x="338" 
d="M175 537c76 0 134 -58 134 -133c0 -76 -59 -135 -138 -135s-139 59 -139 135c0 31 11 60 26 83l141 203h54l-108 -157c9 3 20 4 30 4zM171 313c52 0 91 39 91 91c0 51 -39 92 -91 92s-91 -40 -91 -92s39 -91 91 -91z" />
    <glyph glyph-name="seven.numr" horiz-adv-x="323" 
d="M33 690h268v-35l-180 -379h-52l177 371h-213v43z" />
    <glyph glyph-name="eight.numr" horiz-adv-x="329" 
d="M227 490c42 -19 70 -57 70 -103c0 -67 -57 -118 -132 -118s-131 51 -131 118c0 46 27 84 69 103c-37 18 -61 54 -61 96c0 63 53 111 123 111s123 -48 123 -111c0 -42 -24 -77 -61 -96zM165 652c-43 0 -76 -30 -76 -72c0 -41 33 -73 76 -73s76 32 76 73
c0 42 -33 72 -76 72zM165 314c47 0 84 33 84 78s-37 79 -84 79s-84 -34 -84 -79c0 -44 36 -78 84 -78z" />
    <glyph glyph-name="nine.numr" horiz-adv-x="338" 
d="M170 697c78 0 138 -59 138 -135c0 -30 -10 -59 -26 -83l-139 -203h-55l108 157c-10 -3 -20 -4 -30 -4c-76 0 -135 57 -135 133s60 135 139 135zM170 470c52 0 92 40 92 92s-40 92 -92 92s-92 -40 -92 -92c0 -51 40 -92 92 -92z" />
    <glyph glyph-name="uni2070" unicode="&#x2070;" horiz-adv-x="396" 
d="M198 359c-93 0 -159 88 -159 214s66 214 159 214s158 -88 158 -214s-65 -214 -158 -214zM198 404c65 0 111 68 111 169s-46 169 -111 169s-111 -68 -111 -169s46 -169 111 -169z" />
    <glyph glyph-name="uni00B9" unicode="&#xb9;" horiz-adv-x="217" 
d="M131 780h32v-414h-46v358l-95 -52v49z" />
    <glyph glyph-name="uni00B2" unicode="&#xb2;" horiz-adv-x="330" 
d="M102 408h193v-42h-260v35l161 174c24 26 47 55 47 89c0 46 -34 80 -79 80s-79 -35 -79 -80h-47c0 70 55 123 127 123c71 0 125 -53 125 -123c0 -48 -28 -83 -54 -111z" />
    <glyph glyph-name="uni00B3" unicode="&#xb3;" horiz-adv-x="324" 
d="M227 581c40 -19 64 -56 64 -101c0 -67 -55 -121 -130 -121c-73 0 -130 52 -130 122h48c0 -45 35 -79 83 -79c47 0 83 34 83 79c0 47 -34 81 -80 81h-54v36h54c41 0 71 33 71 75c0 41 -32 72 -74 72c-43 0 -75 -31 -75 -72h-48c0 65 53 114 122 114c70 0 122 -51 122 -112
c0 -43 -22 -77 -56 -94z" />
    <glyph glyph-name="uni2074" unicode="&#x2074;" horiz-adv-x="349" 
d="M329 505v-42h-59v-97h-46v97h-200v34l192 283h54v-275h59zM75 505h149v221z" />
    <glyph glyph-name="uni2075" unicode="&#x2075;" horiz-adv-x="347" 
d="M184 625c77 0 135 -57 135 -132c0 -77 -60 -134 -139 -134c-78 0 -138 57 -138 133h47c0 -52 39 -91 91 -91c53 0 92 39 92 92c0 52 -39 92 -92 92c-32 0 -68 -18 -83 -41h-46l20 236h221v-42h-180l-12 -145c19 19 53 32 84 32z" />
    <glyph glyph-name="uni2076" unicode="&#x2076;" horiz-adv-x="338" 
d="M175 627c76 0 134 -58 134 -133c0 -76 -59 -135 -138 -135s-139 59 -139 135c0 31 11 60 26 83l141 203h54l-108 -157c9 3 20 4 30 4zM171 403c52 0 91 39 91 91c0 51 -39 92 -91 92s-91 -40 -91 -92s39 -91 91 -91z" />
    <glyph glyph-name="uni2077" unicode="&#x2077;" horiz-adv-x="323" 
d="M33 780h268v-35l-180 -379h-52l177 371h-213v43z" />
    <glyph glyph-name="uni2078" unicode="&#x2078;" horiz-adv-x="329" 
d="M227 580c42 -19 70 -57 70 -103c0 -67 -57 -118 -132 -118s-131 51 -131 118c0 46 27 84 69 103c-37 18 -61 54 -61 96c0 63 53 111 123 111s123 -48 123 -111c0 -42 -24 -77 -61 -96zM165 742c-43 0 -76 -30 -76 -72c0 -41 33 -73 76 -73s76 32 76 73
c0 42 -33 72 -76 72zM165 404c47 0 84 33 84 78s-37 79 -84 79s-84 -34 -84 -79c0 -44 36 -78 84 -78z" />
    <glyph glyph-name="uni2079" unicode="&#x2079;" horiz-adv-x="338" 
d="M170 787c78 0 138 -59 138 -135c0 -30 -10 -59 -26 -83l-139 -203h-55l108 157c-10 -3 -20 -4 -30 -4c-76 0 -135 57 -135 133s60 135 139 135zM170 560c52 0 92 40 92 92s-40 92 -92 92s-92 -40 -92 -92c0 -51 40 -92 92 -92z" />
    <glyph glyph-name="fraction" unicode="&#x2044;" horiz-adv-x="173" 
d="M-187 0l490 690h56l-489 -690h-57z" />
    <glyph glyph-name="uni215F" unicode="&#x215f;" horiz-adv-x="440" 
d="M117 276v358l-95 -52v49l109 59h32v-414h-46zM570 690h56l-489 -690h-57z" />
    <glyph glyph-name="onehalf" unicode="&#xbd;" horiz-adv-x="775" 
d="M117 276v358l-95 -52v49l109 59h32v-414h-46zM570 690h56l-489 -690h-57zM547 42h193v-42h-260v35l161 174c24 26 47 55 47 89c0 46 -34 80 -79 80s-79 -35 -79 -80h-47c0 70 55 123 127 123c71 0 125 -53 125 -123c0 -48 -28 -83 -54 -111z" />
    <glyph glyph-name="uni2189" unicode="&#x2189;" horiz-adv-x="894" 
d="M356 483c0 -126 -65 -214 -158 -214s-159 88 -159 214s66 214 159 214s158 -88 158 -214zM696 690h56l-489 -690h-57zM198 314c65 0 111 68 111 169s-46 169 -111 169s-111 -68 -111 -169s46 -169 111 -169zM798 215c40 -19 64 -56 64 -101c0 -67 -55 -121 -130 -121
c-73 0 -130 52 -130 122h48c0 -45 35 -79 83 -79c47 0 83 34 83 79c0 47 -34 81 -80 81h-54v36h54c41 0 71 33 71 75c0 41 -32 72 -74 72c-43 0 -75 -31 -75 -72h-48c0 65 53 114 122 114c70 0 122 -51 122 -112c0 -43 -22 -77 -56 -94z" />
    <glyph glyph-name="uni2153" unicode="&#x2153;" horiz-adv-x="768" 
d="M117 276v358l-95 -52v49l109 59h32v-414h-46zM570 690h56l-489 -690h-57zM672 215c40 -19 64 -56 64 -101c0 -67 -55 -121 -130 -121c-73 0 -130 52 -130 122h48c0 -45 35 -79 83 -79c47 0 83 34 83 79c0 47 -34 81 -80 81h-54v36h54c41 0 71 33 71 75
c0 41 -32 72 -74 72c-43 0 -75 -31 -75 -72h-48c0 65 53 114 122 114c70 0 122 -51 122 -112c0 -43 -22 -77 -56 -94z" />
    <glyph glyph-name="uni2154" unicode="&#x2154;" horiz-adv-x="871" 
d="M295 318v-42h-260v35l161 174c24 26 47 55 47 89c0 46 -34 80 -79 80s-79 -35 -79 -80h-47c0 70 55 123 127 123c71 0 125 -53 125 -123c0 -48 -28 -83 -54 -111l-134 -145h193zM673 690h56l-489 -690h-57zM775 215c40 -19 64 -56 64 -101c0 -67 -55 -121 -130 -121
c-73 0 -130 52 -130 122h48c0 -45 35 -79 83 -79c47 0 83 34 83 79c0 47 -34 81 -80 81h-54v36h54c41 0 71 33 71 75c0 41 -32 72 -74 72c-43 0 -75 -31 -75 -72h-48c0 65 53 114 122 114c70 0 122 -51 122 -112c0 -43 -22 -77 -56 -94z" />
    <glyph glyph-name="onequarter" unicode="&#xbc;" horiz-adv-x="728" 
d="M117 276v358l-95 -52v49l109 59h32v-414h-46zM570 690h56l-489 -690h-57zM709 139v-42h-59v-97h-46v97h-200v34l192 283h54v-275h59zM455 139h149v221z" />
    <glyph glyph-name="threequarters" unicode="&#xbe;" horiz-adv-x="795" 
d="M291 390c0 -67 -55 -121 -130 -121c-73 0 -130 52 -130 122h48c0 -45 35 -79 83 -79c47 0 83 34 83 79c0 47 -34 81 -80 81h-54v36h54c41 0 71 33 71 75c0 41 -32 72 -74 72c-43 0 -75 -31 -75 -72h-48c0 65 53 114 122 114c70 0 122 -51 122 -112c0 -43 -22 -77 -56 -94
c40 -19 64 -56 64 -101zM637 690h56l-489 -690h-57zM776 139v-42h-59v-97h-46v97h-200v34l192 283h54v-275h59zM522 139h149v221z" />
    <glyph glyph-name="uni2155" unicode="&#x2155;" horiz-adv-x="797" 
d="M117 276v358l-95 -52v49l109 59h32v-414h-46zM570 690h56l-489 -690h-57zM635 259c77 0 135 -57 135 -132c0 -77 -60 -134 -139 -134c-78 0 -138 57 -138 133h47c0 -52 39 -91 91 -91c53 0 92 39 92 92c0 52 -39 92 -92 92c-32 0 -68 -18 -83 -41h-46l20 236h221v-42
h-180l-12 -145c19 19 53 32 84 32z" />
    <glyph glyph-name="uni2156" unicode="&#x2156;" horiz-adv-x="900" 
d="M295 318v-42h-260v35l161 174c24 26 47 55 47 89c0 46 -34 80 -79 80s-79 -35 -79 -80h-47c0 70 55 123 127 123c71 0 125 -53 125 -123c0 -48 -28 -83 -54 -111l-134 -145h193zM673 690h56l-489 -690h-57zM738 259c77 0 135 -57 135 -132c0 -77 -60 -134 -139 -134
c-78 0 -138 57 -138 133h47c0 -52 39 -91 91 -91c53 0 92 39 92 92c0 52 -39 92 -92 92c-32 0 -68 -18 -83 -41h-46l20 236h221v-42h-180l-12 -145c19 19 53 32 84 32z" />
    <glyph glyph-name="uni2157" unicode="&#x2157;" horiz-adv-x="864" 
d="M291 390c0 -67 -55 -121 -130 -121c-73 0 -130 52 -130 122h48c0 -45 35 -79 83 -79c47 0 83 34 83 79c0 47 -34 81 -80 81h-54v36h54c41 0 71 33 71 75c0 41 -32 72 -74 72c-43 0 -75 -31 -75 -72h-48c0 65 53 114 122 114c70 0 122 -51 122 -112c0 -43 -22 -77 -56 -94
c40 -19 64 -56 64 -101zM637 690h56l-489 -690h-57zM702 259c77 0 135 -57 135 -132c0 -77 -60 -134 -139 -134c-78 0 -138 57 -138 133h47c0 -52 39 -91 91 -91c53 0 92 39 92 92c0 52 -39 92 -92 92c-32 0 -68 -18 -83 -41h-46l20 236h221v-42h-180l-12 -145
c19 19 53 32 84 32z" />
    <glyph glyph-name="uni2158" unicode="&#x2158;" horiz-adv-x="884" 
d="M224 276v97h-200v34l192 283h54v-275h59v-42h-59v-97h-46zM657 690h56l-489 -690h-57zM75 415h149v221zM722 259c77 0 135 -57 135 -132c0 -77 -60 -134 -139 -134c-78 0 -138 57 -138 133h47c0 -52 39 -91 91 -91c53 0 92 39 92 92c0 52 -39 92 -92 92
c-32 0 -68 -18 -83 -41h-46l20 236h221v-42h-180l-12 -145c19 19 53 32 84 32z" />
    <glyph glyph-name="uni2159" unicode="&#x2159;" horiz-adv-x="732" 
d="M117 276v358l-95 -52v49l109 59h32v-414h-46zM570 690h56l-489 -690h-57zM570 261c76 0 134 -58 134 -133c0 -76 -59 -135 -138 -135s-139 59 -139 135c0 31 11 60 26 83l141 203h54l-108 -157c9 3 20 4 30 4zM566 37c52 0 91 39 91 91c0 51 -39 92 -91 92
s-91 -40 -91 -92s39 -91 91 -91z" />
    <glyph glyph-name="uni215A" unicode="&#x215a;" horiz-adv-x="812" 
d="M319 403c0 -77 -60 -134 -139 -134c-78 0 -138 57 -138 133h47c0 -52 39 -91 91 -91c53 0 92 39 92 92c0 52 -39 92 -92 92c-32 0 -68 -18 -83 -41h-46l20 236h221v-42h-180l-12 -145c19 19 53 32 84 32c77 0 135 -57 135 -132zM650 690h56l-489 -690h-57zM650 261
c76 0 134 -58 134 -133c0 -76 -59 -135 -138 -135s-139 59 -139 135c0 31 11 60 26 83l141 203h54l-108 -157c9 3 20 4 30 4zM646 37c52 0 91 39 91 91c0 51 -39 92 -91 92s-91 -40 -91 -92s39 -91 91 -91z" />
    <glyph glyph-name="uni2150" unicode="&#x2150;" horiz-adv-x="820" 
d="M117 276v358l-95 -52v49l109 59h32v-414h-46zM570 690h56l-489 -690h-57zM530 414h268v-35l-180 -379h-52l177 371h-213v43z" />
    <glyph glyph-name="oneeighth" unicode="&#x215b;" horiz-adv-x="773" 
d="M117 276v358l-95 -52v49l109 59h32v-414h-46zM570 690h56l-489 -690h-57zM672 214c42 -19 70 -57 70 -103c0 -67 -57 -118 -132 -118s-131 51 -131 118c0 46 27 84 69 103c-37 18 -61 54 -61 96c0 63 53 111 123 111s123 -48 123 -111c0 -42 -24 -77 -61 -96zM610 376
c-43 0 -76 -30 -76 -72c0 -41 33 -73 76 -73s76 32 76 73c0 42 -33 72 -76 72zM610 38c47 0 84 33 84 78s-37 79 -84 79s-84 -34 -84 -79c0 -44 36 -78 84 -78z" />
    <glyph glyph-name="threeeighths" unicode="&#x215c;" horiz-adv-x="840" 
d="M291 390c0 -67 -55 -121 -130 -121c-73 0 -130 52 -130 122h48c0 -45 35 -79 83 -79c47 0 83 34 83 79c0 47 -34 81 -80 81h-54v36h54c41 0 71 33 71 75c0 41 -32 72 -74 72c-43 0 -75 -31 -75 -72h-48c0 65 53 114 122 114c70 0 122 -51 122 -112c0 -43 -22 -77 -56 -94
c40 -19 64 -56 64 -101zM637 690h56l-489 -690h-57zM739 214c42 -19 70 -57 70 -103c0 -67 -57 -118 -132 -118s-131 51 -131 118c0 46 27 84 69 103c-37 18 -61 54 -61 96c0 63 53 111 123 111s123 -48 123 -111c0 -42 -24 -77 -61 -96zM677 376c-43 0 -76 -30 -76 -72
c0 -41 33 -73 76 -73s76 32 76 73c0 42 -33 72 -76 72zM677 38c47 0 84 33 84 78s-37 79 -84 79s-84 -34 -84 -79c0 -44 36 -78 84 -78z" />
    <glyph glyph-name="fiveeighths" unicode="&#x215d;" horiz-adv-x="853" 
d="M319 403c0 -77 -60 -134 -139 -134c-78 0 -138 57 -138 133h47c0 -52 39 -91 91 -91c53 0 92 39 92 92c0 52 -39 92 -92 92c-32 0 -68 -18 -83 -41h-46l20 236h221v-42h-180l-12 -145c19 19 53 32 84 32c77 0 135 -57 135 -132zM650 690h56l-489 -690h-57zM752 214
c42 -19 70 -57 70 -103c0 -67 -57 -118 -132 -118s-131 51 -131 118c0 46 27 84 69 103c-37 18 -61 54 -61 96c0 63 53 111 123 111s123 -48 123 -111c0 -42 -24 -77 -61 -96zM690 376c-43 0 -76 -30 -76 -72c0 -41 33 -73 76 -73s76 32 76 73c0 42 -33 72 -76 72zM690 38
c47 0 84 33 84 78s-37 79 -84 79s-84 -34 -84 -79c0 -44 36 -78 84 -78z" />
    <glyph glyph-name="seveneighths" unicode="&#x215e;" horiz-adv-x="779" 
d="M121 276h-52l177 371h-213v43h268v-35zM576 690h56l-489 -690h-57zM678 214c42 -19 70 -57 70 -103c0 -67 -57 -118 -132 -118s-131 51 -131 118c0 46 27 84 69 103c-37 18 -61 54 -61 96c0 63 53 111 123 111s123 -48 123 -111c0 -42 -24 -77 -61 -96zM616 376
c-43 0 -76 -30 -76 -72c0 -41 33 -73 76 -73s76 32 76 73c0 42 -33 72 -76 72zM616 38c47 0 84 33 84 78s-37 79 -84 79s-84 -34 -84 -79c0 -44 36 -78 84 -78z" />
    <glyph glyph-name="uni2151" unicode="&#x2151;" horiz-adv-x="778" 
d="M117 276v358l-95 -52v49l109 59h32v-414h-46zM570 690h56l-489 -690h-57zM610 421c78 0 138 -59 138 -135c0 -30 -10 -59 -26 -83l-139 -203h-55l108 157c-10 -3 -20 -4 -30 -4c-76 0 -135 57 -135 133s60 135 139 135zM610 194c52 0 92 40 92 92s-40 92 -92 92
s-92 -40 -92 -92c0 -51 40 -92 92 -92z" />
    <glyph glyph-name="uni2152" unicode="&#x2152;" horiz-adv-x="1083" 
d="M117 276v358l-95 -52v49l109 59h32v-414h-46zM570 690h56l-489 -690h-57zM885 421c93 0 158 -88 158 -214s-65 -214 -158 -214s-159 88 -159 214s66 214 159 214zM492 355l109 59h32v-414h-46v358l-95 -52v49zM885 38c65 0 111 68 111 169s-46 169 -111 169
s-111 -68 -111 -169s46 -169 111 -169z" />
    <glyph glyph-name="period" unicode="." horiz-adv-x="222" 
d="M111 -5c-27 0 -47 20 -47 47s20 47 47 47s48 -20 48 -47s-21 -47 -48 -47z" />
    <glyph glyph-name="comma" unicode="," horiz-adv-x="227" 
d="M30 -145l69 229h70l-88 -229h-51z" />
    <glyph glyph-name="colon" unicode=":" horiz-adv-x="232" 
d="M116 367c-27 0 -47 20 -47 47s20 47 47 47s48 -20 48 -47s-21 -47 -48 -47zM116 -5c-27 0 -47 20 -47 47s20 47 47 47s48 -20 48 -47s-21 -47 -48 -47z" />
    <glyph glyph-name="semicolon" unicode=";" horiz-adv-x="244" 
d="M130 367c-27 0 -48 20 -48 47s21 47 48 47s47 -20 47 -47s-20 -47 -47 -47zM28 -145l69 229h70l-87 -229h-52z" />
    <glyph glyph-name="ellipsis" unicode="&#x2026;" horiz-adv-x="675" 
d="M111 -5c-27 0 -47 20 -47 47s20 47 47 47s48 -20 48 -47s-21 -47 -48 -47zM338 -5c-28 0 -48 20 -48 47s20 47 48 47c27 0 47 -20 47 -47s-20 -47 -47 -47zM564 -5c-27 0 -47 20 -47 47s20 47 47 47s48 -20 48 -47s-21 -47 -48 -47z" />
    <glyph glyph-name="exclam" unicode="!" horiz-adv-x="241" 
d="M93 177l-3 343v170h61v-170l-3 -343h-55zM121 -5c-27 0 -47 19 -47 46c0 26 20 46 47 46c26 0 46 -20 46 -46c0 -27 -20 -46 -46 -46z" />
    <glyph glyph-name="exclamdown" unicode="&#xa1;" horiz-adv-x="241" 
d="M121 423c-27 0 -47 20 -47 46c0 27 20 46 47 46c26 0 46 -19 46 -46c0 -26 -20 -46 -46 -46zM90 -180v170l3 343h55l3 -343v-170h-61z" />
    <glyph glyph-name="question" unicode="?" horiz-adv-x="475" 
d="M202 181v37c0 79 45 121 88 159c39 35 75 73 75 131c0 77 -57 135 -133 135c-75 0 -133 -58 -133 -135h-63c0 110 84 194 196 194s196 -84 196 -194c0 -79 -46 -126 -89 -164c-41 -35 -76 -68 -76 -126v-37h-61zM232 -5c-26 0 -46 19 -46 46c0 26 20 46 46 46
c27 0 47 -20 47 -46c0 -27 -20 -46 -47 -46z" />
    <glyph glyph-name="questiondown" unicode="&#xbf;" horiz-adv-x="463" 
d="M243 423c-27 0 -47 20 -47 46c0 27 20 46 47 46c26 0 46 -19 46 -46c0 -26 -20 -46 -46 -46zM243 -192c-112 0 -197 84 -197 194c0 79 47 126 90 164c41 35 76 68 76 126v37h61v-37c0 -79 -45 -121 -88 -159c-40 -35 -76 -73 -76 -131c0 -77 58 -135 134 -135
c75 0 133 58 133 135h63c0 -110 -85 -194 -196 -194z" />
    <glyph glyph-name="periodcentered" unicode="&#xb7;" horiz-adv-x="228" 
d="M114 227c-27 0 -47 20 -47 47s20 47 47 47s48 -20 48 -47s-21 -47 -48 -47z" />
    <glyph glyph-name="bullet" unicode="&#x2022;" horiz-adv-x="298" 
d="M149 192c-47 0 -82 35 -82 82s35 82 82 82s82 -35 82 -82s-35 -82 -82 -82z" />
    <glyph glyph-name="asterisk" unicode="*" horiz-adv-x="378" 
d="M223 574l17 -7l87 -50l-20 -33l-87 49l-14 11l3 -17v-100h-40v100l3 17l-14 -11l-87 -49l-20 33l88 51l14 6l-14 6l-88 50l20 34l88 -50l13 -11l-3 17v100h40v-100l-3 -17l14 11l87 50l20 -34l-87 -50z" />
    <glyph glyph-name="numbersign" unicode="#" horiz-adv-x="756" 
d="M708 439h-138l-56 -188h142v-51h-156l-59 -200h-55l59 200h-227l-58 -200h-56l59 200h-124v51h138l56 188h-141v51h155l59 200h55l-58 -200h226l59 200h55l-59 -200h124v-51zM459 251l56 188h-227l-55 -188h226z" />
    <glyph glyph-name="slash" unicode="/" horiz-adv-x="496" 
d="M19 -150l400 900h59l-400 -900h-59z" />
    <glyph glyph-name="backslash" unicode="\" horiz-adv-x="496" 
d="M419 -150l-400 900h59l400 -900h-59z" />
    <glyph glyph-name="exclamdown.case" horiz-adv-x="241" 
d="M121 603c-27 0 -47 20 -47 46c0 27 20 46 47 46c26 0 46 -19 46 -46c0 -26 -20 -46 -46 -46zM90 0v170l3 343h55l3 -343v-170h-61z" />
    <glyph glyph-name="questiondown.case" horiz-adv-x="503" 
d="M263 603c-27 0 -47 20 -47 46c0 27 20 46 47 46c26 0 46 -19 46 -46c0 -26 -20 -46 -46 -46zM263 -12c-112 0 -197 84 -197 194c0 79 47 126 90 164c41 35 76 68 76 126v37h61v-37c0 -79 -45 -121 -88 -159c-40 -35 -76 -73 -76 -131c0 -77 58 -135 134 -135
c75 0 133 58 133 135h63c0 -110 -85 -194 -196 -194z" />
    <glyph glyph-name="periodcentered.case" horiz-adv-x="228" 
d="M114 298c-27 0 -47 20 -47 47s20 47 47 47s48 -20 48 -47s-21 -47 -48 -47z" />
    <glyph glyph-name="bullet.case" horiz-adv-x="298" 
d="M149 263c-47 0 -82 35 -82 82s35 82 82 82s82 -35 82 -82s-35 -82 -82 -82z" />
    <glyph glyph-name="asterisk.case" horiz-adv-x="398" 
d="M233 544l17 -7l87 -50l-20 -33l-87 49l-14 11l3 -17v-100h-40v100l3 17l-14 -11l-87 -49l-20 33l88 51l14 6l-14 6l-88 50l20 34l88 -50l13 -11l-3 17v100h40v-100l-3 -17l14 11l87 50l20 -34l-87 -50z" />
    <glyph glyph-name="slash.case" horiz-adv-x="505" 
d="M23 -105l400 900h59l-400 -900h-59z" />
    <glyph glyph-name="backslash.case" horiz-adv-x="505" 
d="M423 -105l-400 900h59l400 -900h-59z" />
    <glyph glyph-name="parenleft" unicode="(" horiz-adv-x="306" 
d="M223 -190c-85 113 -141 299 -141 470s56 357 141 470h59c-84 -113 -139 -299 -139 -470s55 -357 139 -470h-59z" />
    <glyph glyph-name="parenright" unicode=")" horiz-adv-x="306" 
d="M25 -190c83 113 139 299 139 470s-56 357 -139 470h59c84 -113 141 -299 141 -470s-57 -357 -141 -470h-59z" />
    <glyph glyph-name="braceleft" unicode="{" horiz-adv-x="390" 
d="M224 351c0 -31 -19 -59 -48 -70c29 -12 48 -40 48 -71v-275c0 -40 29 -70 68 -70h64v-55h-83c-63 0 -108 46 -108 110v277c0 33 -23 56 -54 56h-39v55h39c31 0 54 23 54 56v276c0 64 45 110 108 110h83v-55h-64c-39 0 -68 -30 -68 -70v-274z" />
    <glyph glyph-name="braceright" unicode="}" horiz-adv-x="390" 
d="M279 308h39v-55h-39c-31 0 -54 -23 -54 -56v-277c0 -64 -46 -110 -109 -110h-82v55h63c39 0 68 30 68 70v275c0 31 19 59 48 71c-29 11 -48 39 -48 70v274c0 40 -29 70 -68 70h-63v55h82c63 0 109 -46 109 -110v-276c0 -33 23 -56 54 -56z" />
    <glyph glyph-name="bracketleft" unicode="[" horiz-adv-x="321" 
d="M287 695h-136v-830h136v-55h-195v940h195v-55z" />
    <glyph glyph-name="bracketright" unicode="]" horiz-adv-x="321" 
d="M34 750h195v-940h-195v55h136v830h-136v55z" />
    <glyph glyph-name="parenleft.case" horiz-adv-x="326" 
d="M233 -125c-85 113 -141 299 -141 470s56 357 141 470h59c-84 -113 -139 -299 -139 -470s55 -357 139 -470h-59z" />
    <glyph glyph-name="parenright.case" horiz-adv-x="326" 
d="M35 -125c83 113 139 299 139 470s-56 357 -139 470h59c84 -113 141 -299 141 -470s-57 -357 -141 -470h-59z" />
    <glyph glyph-name="braceleft.case" horiz-adv-x="398" 
d="M224 416c0 -31 -19 -59 -48 -70c29 -12 48 -40 48 -71v-275c0 -40 29 -70 68 -70h64v-55h-83c-63 0 -108 46 -108 110v277c0 33 -23 56 -54 56h-39v55h39c31 0 54 23 54 56v276c0 64 45 110 108 110h83v-55h-64c-39 0 -68 -30 -68 -70v-274z" />
    <glyph glyph-name="braceright.case" horiz-adv-x="398" 
d="M288 373h39v-55h-39c-32 0 -54 -23 -54 -56v-277c0 -64 -46 -110 -109 -110h-82v55h63c39 0 68 30 68 70v275c0 31 19 59 48 71c-29 11 -48 39 -48 70v274c0 40 -29 70 -68 70h-63v55h82c63 0 109 -46 109 -110v-276c0 -33 22 -56 54 -56z" />
    <glyph glyph-name="bracketleft.case" horiz-adv-x="339" 
d="M297 760h-136v-830h136v-55h-195v940h195v-55z" />
    <glyph glyph-name="bracketright.case" horiz-adv-x="339" 
d="M43 815h195v-940h-195v55h135v830h-135v55z" />
    <glyph glyph-name="hyphen" unicode="-" horiz-adv-x="408" 
d="M67 246v55h274v-55h-274z" />
    <glyph glyph-name="endash" unicode="&#x2013;" horiz-adv-x="608" 
d="M67 247v53h474v-53h-474z" />
    <glyph glyph-name="emdash" unicode="&#x2014;" horiz-adv-x="1068" 
d="M67 247v53h934v-53h-934z" />
    <glyph glyph-name="underscore" unicode="_" horiz-adv-x="532" 
d="M49 -142v50h434v-50h-434z" />
    <glyph glyph-name="hyphen.case" horiz-adv-x="408" 
d="M67 318v55h274v-55h-274z" />
    <glyph glyph-name="endash.case" horiz-adv-x="608" 
d="M67 319v53h474v-53h-474z" />
    <glyph glyph-name="emdash.case" horiz-adv-x="1068" 
d="M67 319v53h934v-53h-934z" />
    <glyph glyph-name="quotesinglbase" unicode="&#x201a;" horiz-adv-x="227" 
d="M30 -142l69 226h70l-88 -226h-51z" />
    <glyph glyph-name="quotedblbase" unicode="&#x201e;" horiz-adv-x="421" 
d="M30 -142l69 226h70l-88 -226h-51zM224 -142l69 226h70l-88 -226h-51z" />
    <glyph glyph-name="quotedblleft" unicode="&#x201c;" horiz-adv-x="421" 
d="M58 464l88 226h51l-69 -226h-70zM252 464l88 226h51l-69 -226h-70z" />
    <glyph glyph-name="quotedblright" unicode="&#x201d;" horiz-adv-x="421" 
d="M58 464l69 226h70l-88 -226h-51zM252 464l69 226h70l-88 -226h-51z" />
    <glyph glyph-name="quoteleft" unicode="&#x2018;" horiz-adv-x="227" 
d="M58 464l88 226h51l-69 -226h-70z" />
    <glyph glyph-name="quoteright" unicode="&#x2019;" horiz-adv-x="227" 
d="M58 464l69 226h70l-88 -226h-51z" />
    <glyph glyph-name="guillemotleft" unicode="&#xab;" horiz-adv-x="583" 
d="M294 466l-175 -202l175 -202h-69l-176 202l176 202h69zM526 466l-176 -202l176 -202h-70l-175 202l175 202h70z" />
    <glyph glyph-name="guillemotright" unicode="&#xbb;" horiz-adv-x="583" 
d="M129 466l175 -202l-175 -202h-70l175 202l-175 202h70zM360 466l175 -202l-175 -202h-70l176 202l-176 202h70z" />
    <glyph glyph-name="guilsinglleft" unicode="&#x2039;" horiz-adv-x="351" 
d="M294 466l-175 -202l175 -202h-69l-176 202l176 202h69z" />
    <glyph glyph-name="guilsinglright" unicode="&#x203a;" horiz-adv-x="351" 
d="M129 466l175 -202l-175 -202h-70l175 202l-175 202h70z" />
    <glyph glyph-name="quotedbl" unicode="&#x22;" horiz-adv-x="380" 
d="M74 467l-3 223h57l-3 -223h-51zM255 467l-3 223h58l-4 -223h-51z" />
    <glyph glyph-name="quotesingle" unicode="'" horiz-adv-x="199" 
d="M74 467l-3 223h57l-3 -223h-51z" />
    <glyph glyph-name="guillemotleft.case" horiz-adv-x="603" 
d="M304 547l-175 -202l175 -202h-69l-176 202l176 202h69zM536 547l-176 -202l176 -202h-70l-175 202l175 202h70z" />
    <glyph glyph-name="guillemotright.case" horiz-adv-x="603" 
d="M139 547l175 -202l-175 -202h-70l175 202l-175 202h70zM370 547l175 -202l-175 -202h-70l176 202l-176 202h70z" />
    <glyph glyph-name="guilsinglleft.case" horiz-adv-x="371" 
d="M304 547l-175 -202l175 -202h-69l-176 202l176 202h69z" />
    <glyph glyph-name="guilsinglright.case" horiz-adv-x="371" 
d="M139 547l175 -202l-175 -202h-70l175 202l-175 202h70z" />
    <glyph glyph-name="space" unicode=" " horiz-adv-x="260" 
 />
    <glyph glyph-name="uni20B5" unicode="&#x20b5;" horiz-adv-x="820" 
d="M446 57c125 13 222 100 249 219h64c-28 -153 -152 -266 -313 -280v-66h-59v66c-187 12 -326 159 -326 349s139 337 326 349v66h59v-66c161 -14 285 -127 313 -280h-64c-27 119 -124 206 -249 219v-576zM124 345c0 -156 112 -276 263 -289v578
c-151 -13 -263 -133 -263 -289z" />
    <glyph glyph-name="cent" unicode="&#xa2;" horiz-adv-x="646" 
d="M349 135c90 10 160 72 180 158h62c-22 -118 -118 -205 -242 -215v-78h-41v77c-145 9 -253 121 -253 267c0 147 108 259 253 268v78h41v-79c124 -10 220 -96 242 -214h-62c-20 86 -90 148 -180 158v-420zM116 344c0 -113 81 -201 192 -209v420c-111 -8 -192 -97 -192 -211
z" />
    <glyph glyph-name="currency" unicode="&#xa4;" horiz-adv-x="529" 
d="M450 345c0 -42 -14 -81 -37 -111l64 -64l-37 -36l-64 64c-31 -21 -69 -34 -111 -34s-80 13 -111 34l-65 -64l-37 36l64 65c-23 30 -36 68 -36 110c0 43 14 81 37 111l-64 65l36 36l65 -64c31 21 69 34 111 34s80 -13 111 -34l64 65l37 -38l-64 -63c23 -31 37 -69 37 -112
zM265 211c76 0 133 58 133 134c0 77 -57 135 -133 135s-134 -58 -134 -135c0 -76 58 -134 134 -134z" />
    <glyph glyph-name="dollar" unicode="$" horiz-adv-x="524" 
d="M472 178c0 -97 -80 -172 -189 -181v-66h-41v66c-110 9 -190 89 -190 193h63c0 -71 54 -128 127 -137v273c-109 28 -178 91 -178 193c0 93 75 166 178 174v67h41v-67c102 -9 177 -86 177 -184h-62c0 66 -48 118 -115 127v-259c116 -30 189 -91 189 -199zM127 521
c0 -62 41 -106 115 -132v248c-66 -8 -115 -56 -115 -116zM283 53c73 8 125 59 125 122c0 66 -43 110 -125 139v-261z" />
    <glyph glyph-name="Euro" unicode="&#x20ac;" horiz-adv-x="763" 
d="M479 642c-144 0 -257 -88 -292 -214h432l-16 -49h-425c-1 -11 -2 -22 -2 -34s1 -23 2 -34h395l-16 -49h-370c35 -126 148 -214 292 -214c92 0 175 36 234 95v-69c-63 -53 -147 -86 -241 -86c-175 0 -314 113 -350 274h-86l16 49h62c-1 11 -1 23 -1 34s0 23 1 34h-78
l16 49h70c36 161 175 274 350 274c94 0 178 -33 241 -86v-69c-59 59 -142 95 -234 95z" />
    <glyph glyph-name="florin" unicode="&#x192;" horiz-adv-x="443" 
d="M415 630c-79 0 -118 -34 -134 -120l-24 -136h124v-54h-133l-60 -347c-20 -115 -79 -163 -195 -163v60c79 0 118 34 134 120l57 330h-117v54h127l26 153c20 115 78 163 195 163v-60z" />
    <glyph glyph-name="franc" unicode="&#x20a3;" horiz-adv-x="509" 
d="M470 632h-298v-253h255v-58h-255v-134h170v-54h-170v-133h-62v133h-72v54h72v503h360v-58z" />
    <glyph glyph-name="lira" unicode="&#x20a4;" horiz-adv-x="575" 
d="M183 58h353v-58h-487v58h71v178h-71v49h71v67h-71v49h71v101c0 114 88 200 203 200s203 -86 203 -200h-63c0 80 -60 140 -140 140s-140 -60 -140 -140v-101h226v-49h-226v-67h226v-49h-226v-178z" />
    <glyph glyph-name="peseta" unicode="&#x20a7;" horiz-adv-x="627" 
d="M597 497v-42h-52c-10 -112 -100 -194 -217 -194h-147v-260h-62v454h-72v42h72v194h209c117 0 207 -82 217 -194h52zM181 633v-136h300c-10 79 -73 136 -154 136h-146zM327 319c81 0 144 57 154 136h-300v-136h146z" />
    <glyph glyph-name="uni20B1" unicode="&#x20b1;" horiz-adv-x="627" 
d="M597 548v-43h-53c1 -10 2 -20 2 -30s-1 -20 -2 -30h53v-43h-63c-29 -84 -108 -142 -205 -142h-148v-260h-62v402h-72v43h72v60h-72v43h72v142h210c97 0 176 -58 205 -142h63zM181 634v-86h285c-26 52 -79 86 -144 86h-141zM482 475c0 10 -1 20 -3 30h-298v-60h298
c2 10 3 20 3 30zM322 317c65 0 118 33 143 85h-284v-85h141z" />
    <glyph glyph-name="uni20A8" unicode="&#x20a8;" horiz-adv-x="974" 
d="M303 292h-63l278 -292h-79l-277 292h-12v-292h-61v690h213c115 0 203 -86 203 -200c0 -113 -87 -198 -202 -198zM150 632v-286h151c80 0 140 61 140 143s-60 143 -140 143h-151zM779 284c93 -23 149 -70 149 -150c0 -87 -71 -146 -164 -146c-95 0 -165 66 -165 152h60
c0 -56 46 -99 106 -99c58 0 103 38 103 88c0 53 -41 86 -116 105c-85 21 -146 64 -146 148s70 140 158 140c90 0 157 -64 157 -146h-59c0 52 -42 93 -99 93c-55 0 -97 -37 -97 -84c0 -50 41 -84 113 -101z" />
    <glyph glyph-name="uni20B9" unicode="&#x20b9;" horiz-adv-x="553" 
d="M377 641c24 -21 43 -47 54 -77h89l-20 -49h-57c1 -9 2 -18 2 -27c0 -115 -87 -202 -203 -202h-79l300 -286h-83l-305 291v51h163c82 0 144 62 144 146c0 9 -1 18 -2 27h-305v49h288c-25 43 -71 71 -125 71h-163v55h445l-20 -49h-123z" />
    <glyph glyph-name="sterling" unicode="&#xa3;" horiz-adv-x="575" 
d="M183 58h353v-58h-487v58h71v237h-71v54h71v153c0 114 88 200 203 200s203 -86 203 -200h-63c0 80 -60 140 -140 140s-140 -60 -140 -140v-153h226v-54h-226v-237z" />
    <glyph glyph-name="yen" unicode="&#xa5;" horiz-adv-x="636" 
d="M605 690l-233 -387h126v-48h-149v-73h149v-49h-149v-133h-61v133h-150v49h150v73h-150v48h126l-233 387h71l217 -365l218 365h68z" />
    <glyph glyph-name="plus" unicode="+" horiz-adv-x="534" 
d="M467 322v-53h-173v-174h-54v174h-173v53h173v173h54v-173h173z" />
    <glyph glyph-name="minus" unicode="&#x2212;" horiz-adv-x="534" 
d="M67 269v53h400v-53h-400z" />
    <glyph glyph-name="multiply" unicode="&#xd7;" horiz-adv-x="455" 
d="M389 417l-122 -122l122 -122l-39 -39l-122 122l-123 -122l-38 39l122 122l-122 122l38 39l123 -122l122 122z" />
    <glyph glyph-name="divide" unicode="&#xf7;" horiz-adv-x="534" 
d="M267 408c-23 0 -40 17 -40 40c0 22 17 39 40 39s40 -17 40 -39c0 -23 -17 -40 -40 -40zM67 271v49h400v-49h-400zM267 104c-23 0 -40 17 -40 39c0 23 17 40 40 40s40 -17 40 -40c0 -22 -17 -39 -40 -39z" />
    <glyph glyph-name="equal" unicode="=" horiz-adv-x="534" 
d="M67 350v52h400v-52h-400zM67 189v52h400v-52h-400z" />
    <glyph glyph-name="notequal" unicode="&#x2260;" horiz-adv-x="534" 
d="M467 350h-147l-52 -109h199v-52h-224l-49 -102h-54l49 102h-122v52h147l52 109h-199v52h224l49 101h54l-49 -101h122v-52z" />
    <glyph glyph-name="greater" unicode="&#x3e;" horiz-adv-x="464" 
d="M67 493l330 -170v-54l-330 -170v59l275 138l-275 138v59z" />
    <glyph glyph-name="less" unicode="&#x3c;" horiz-adv-x="464" 
d="M397 493v-59l-275 -138l275 -138v-59l-330 170v54z" />
    <glyph glyph-name="greaterequal" unicode="&#x2265;" horiz-adv-x="464" 
d="M67 522l330 -137v-59l-330 -137v58l279 109l-279 108v58zM67 77v53h330v-53h-330z" />
    <glyph glyph-name="lessequal" unicode="&#x2264;" horiz-adv-x="464" 
d="M397 522v-58l-279 -108l279 -109v-58l-330 137v59zM67 77v53h330v-53h-330z" />
    <glyph glyph-name="plusminus" unicode="&#xb1;" horiz-adv-x="534" 
d="M294 382h173v-52h-173v-130h-54v130h-173v52h173v129h54v-129zM67 73v52h400v-52h-400z" />
    <glyph glyph-name="approxequal" unicode="&#x2248;" horiz-adv-x="537" 
d="M356 330c-80 0 -106 79 -167 79c-39 0 -69 -29 -69 -69h-53c0 72 41 126 114 126c79 0 106 -79 166 -79c40 0 69 30 69 70h54c0 -72 -41 -127 -114 -127zM356 132c-80 0 -106 79 -167 79c-39 0 -69 -30 -69 -70h-53c0 72 41 127 114 127c79 0 106 -79 166 -79
c40 0 69 30 69 69h54c0 -71 -41 -126 -114 -126z" />
    <glyph glyph-name="asciitilde" unicode="~" horiz-adv-x="537" 
d="M356 231c-80 0 -106 79 -167 79c-39 0 -69 -29 -69 -69h-53c0 72 41 126 114 126c79 0 106 -79 166 -79c40 0 69 30 69 69h54c0 -71 -41 -126 -114 -126z" />
    <glyph glyph-name="asciicircum" unicode="^" horiz-adv-x="402" 
d="M351 455h-55l-95 185l-95 -185h-55l123 235h55z" />
    <glyph glyph-name="percent" unicode="%" horiz-adv-x="819" 
d="M209 392c-89 0 -156 67 -156 155c0 89 67 155 156 155s156 -66 156 -155c0 -88 -67 -155 -156 -155zM128 0l500 690h64l-500 -690h-64zM209 441c60 0 105 45 105 106s-45 107 -105 107c-61 0 -106 -46 -106 -107s45 -106 106 -106zM611 -12c-89 0 -156 67 -156 155
s67 155 156 155s156 -67 156 -155s-67 -155 -156 -155zM611 36c60 0 106 46 106 107s-46 106 -106 106s-106 -45 -106 -106s46 -107 106 -107z" />
    <glyph glyph-name="perthousand" unicode="&#x2030;" horiz-adv-x="1187" 
d="M209 392c-89 0 -156 67 -156 155c0 89 67 155 156 155s156 -66 156 -155c0 -88 -67 -155 -156 -155zM128 0l500 690h64l-500 -690h-64zM209 441c60 0 105 45 105 106s-45 107 -105 107c-61 0 -106 -46 -106 -107s45 -106 106 -106zM611 -12c-89 0 -156 67 -156 155
s67 155 156 155s156 -67 156 -155s-67 -155 -156 -155zM979 -12c-89 0 -156 67 -156 155s67 155 156 155s156 -67 156 -155s-67 -155 -156 -155zM611 36c60 0 106 46 106 107s-46 106 -106 106s-106 -45 -106 -106s46 -107 106 -107zM979 36c60 0 106 46 106 107
s-46 106 -106 106s-106 -45 -106 -106s46 -107 106 -107z" />
    <glyph glyph-name="plus.case" horiz-adv-x="534" 
d="M467 372v-53h-173v-174h-54v174h-173v53h173v173h54v-173h173z" />
    <glyph glyph-name="arrowup" unicode="&#x2191;" horiz-adv-x="671" 
d="M536 401v-70l-174 175v-417h-53v416l-173 -174v70l200 200z" />
    <glyph glyph-name="uni2197" unicode="&#x2197;" horiz-adv-x="671" 
d="M244 530h282v-283l-49 -39l1 235l-295 -295l-38 38l294 295l-234 -1z" />
    <glyph glyph-name="arrowright" unicode="&#x2192;" horiz-adv-x="671" 
d="M387 550l205 -205l-205 -205h-71l180 178h-417v54h417l-180 178h71z" />
    <glyph glyph-name="uni2198" unicode="&#x2198;" horiz-adv-x="671" 
d="M478 481l50 -39v-288h-288l-39 50l240 -1l-294 295l38 38l294 -295z" />
    <glyph glyph-name="arrowdown" unicode="&#x2193;" horiz-adv-x="671" 
d="M362 184l179 180v-70l-205 -205l-206 205v70l179 -179v416h53v-417z" />
    <glyph glyph-name="uni2199" unicode="&#x2199;" horiz-adv-x="671" 
d="M525 498l-295 -295l241 1l-40 -50h-287v288l49 39l-1 -240l295 295z" />
    <glyph glyph-name="arrowleft" unicode="&#x2190;" horiz-adv-x="671" 
d="M592 372v-54h-416l179 -178h-70l-206 205l206 205h70l-179 -178h416z" />
    <glyph glyph-name="uni2196" unicode="&#x2196;" horiz-adv-x="671" 
d="M525 186l-38 -38l-295 295l1 -240l-49 39v288h287l40 -50l-241 1z" />
    <glyph glyph-name="uni279D" unicode="&#x279d;" horiz-adv-x="1082" 
d="M997 345l-205 -205v178h-707v54h707v178z" />
    <glyph glyph-name="uni27F5" unicode="&#x27f5;" horiz-adv-x="1082" 
d="M997 372v-54h-816l179 -178h-70l-205 205l205 205h70l-179 -178h816z" />
    <glyph glyph-name="uni27F6" unicode="&#x27f6;" horiz-adv-x="1082" 
d="M792 550l205 -205l-205 -205h-70l179 178h-816v54h816l-179 178h70z" />
    <glyph glyph-name="uni2639" unicode="&#x2639;" horiz-adv-x="835" 
d="M418 -12c-203 0 -357 154 -357 357s154 357 357 357s357 -154 357 -357s-154 -357 -357 -357zM418 24c182 0 320 138 320 321s-138 321 -320 321s-320 -138 -320 -321s138 -321 320 -321zM293 446c-16 0 -29 13 -29 30c0 16 13 29 29 29c17 0 30 -13 30 -29
c0 -17 -13 -30 -30 -30zM542 446c-16 0 -29 13 -29 30c0 16 13 29 29 29s29 -13 29 -29c0 -17 -13 -30 -29 -30zM194 159c0 127 96 223 224 223c127 0 223 -96 223 -223h-37c0 107 -80 188 -186 188c-107 0 -187 -81 -187 -188h-37z" />
    <glyph glyph-name="smileface" unicode="&#x263a;" horiz-adv-x="835" 
d="M418 -12c-203 0 -357 154 -357 357s154 357 357 357s357 -154 357 -357s-154 -357 -357 -357zM418 24c182 0 320 138 320 321s-138 321 -320 321s-320 -138 -320 -321s138 -321 320 -321zM293 446c-16 0 -29 13 -29 30c0 16 13 29 29 29c17 0 30 -13 30 -29
c0 -17 -13 -30 -30 -30zM542 446c-16 0 -29 13 -29 30c0 16 13 29 29 29s29 -13 29 -29c0 -17 -13 -30 -29 -30zM418 113c-132 0 -232 100 -232 232h37c0 -112 84 -196 195 -196s194 84 194 196h37c0 -132 -99 -232 -231 -232z" />
    <glyph glyph-name="at" unicode="@" horiz-adv-x="849" 
d="M542 442h58v-253c0 -30 21 -52 53 -52c48 0 81 62 81 149c0 168 -133 294 -308 294c-177 0 -310 -133 -310 -310s133 -310 310 -310c79 0 152 25 201 69h84c-69 -75 -172 -122 -286 -122c-208 0 -365 156 -365 363c0 206 158 363 366 363c206 0 364 -149 364 -348
c0 -115 -53 -196 -137 -196c-55 0 -97 29 -108 73c-28 -48 -78 -77 -140 -77c-104 0 -180 80 -180 184c0 106 77 185 177 185c60 0 110 -28 140 -76v64zM414 142c74 0 128 55 128 128c0 72 -55 127 -128 127s-128 -54 -128 -127c0 -74 55 -128 128 -128z" />
    <glyph glyph-name="ampersand" unicode="&#x26;" horiz-adv-x="603" 
d="M604 0h-74l-70 83c-42 -58 -110 -95 -189 -95c-134 0 -229 91 -229 216c0 109 68 168 141 212c-42 54 -68 104 -68 150c0 78 62 136 142 136s142 -57 142 -135c0 -77 -67 -122 -136 -162l190 -226c5 17 7 35 7 53v99h55v-99c0 -37 -8 -71 -22 -100zM257 653
c-49 0 -86 -36 -86 -87c0 -33 22 -74 60 -122c62 34 112 67 112 123c0 49 -37 86 -86 86zM273 43c65 0 121 31 154 80l-212 254c-63 -40 -115 -88 -115 -172c0 -92 75 -162 173 -162z" />
    <glyph glyph-name="paragraph" unicode="&#xb6;" horiz-adv-x="578" 
d="M497 690v-880h-51v829h-93v-829h-51v479h-66c-114 0 -201 87 -201 201s87 200 201 200h261z" />
    <glyph glyph-name="section" unicode="&#xa7;" horiz-adv-x="499" 
d="M329 178c60 -28 91 -71 91 -130c0 -87 -76 -144 -170 -144c-97 0 -171 65 -171 151h58c0 -60 49 -105 113 -105s112 41 112 95c0 55 -43 90 -127 111c-91 22 -152 69 -152 152c0 59 35 106 88 127c-56 27 -86 70 -86 126c0 85 73 141 164 141c94 0 165 -64 165 -148h-57
c0 58 -47 102 -108 102s-107 -40 -107 -92c0 -53 42 -89 122 -107c95 -21 157 -68 157 -153c0 -58 -37 -105 -92 -126zM141 313c0 -54 38 -91 111 -109c64 2 112 43 112 96c0 55 -39 91 -117 109c-61 -2 -106 -43 -106 -96z" />
    <glyph glyph-name="copyright" unicode="&#xa9;" horiz-adv-x="835" 
d="M418 -12c-203 0 -357 154 -357 357s154 357 357 357s357 -154 357 -357s-154 -357 -357 -357zM418 30c177 0 312 136 312 315s-135 315 -312 315c-178 0 -313 -136 -313 -315s135 -315 313 -315zM420 139c-117 0 -206 89 -206 206s89 206 206 206c102 0 184 -65 201 -157
h-49c-17 65 -76 111 -152 111c-90 0 -158 -70 -158 -160s68 -160 158 -160c76 0 135 46 152 111h49c-17 -92 -99 -157 -201 -157z" />
    <glyph glyph-name="registered" unicode="&#xae;" horiz-adv-x="461" 
d="M231 702c102 0 180 -77 180 -180s-78 -180 -180 -180c-103 0 -180 77 -180 180s77 180 180 180zM231 369c86 0 152 66 152 153c0 88 -66 154 -152 154c-87 0 -152 -66 -152 -154c0 -87 65 -153 152 -153zM300 569c0 -32 -24 -57 -56 -58l61 -79h-30l-61 79h-6v-79h-25
v195h58c33 0 59 -26 59 -58zM208 604v-71h32c20 0 35 15 35 36c0 20 -15 35 -35 35h-32z" />
    <glyph glyph-name="trademark" unicode="&#x2122;" horiz-adv-x="681" 
d="M26 657v33h219v-33h-91v-260h-36v260h-92zM562 690h48v-293h-35v237l-100 -237h-30l-100 237v-237h-35v293h49l102 -244z" />
    <glyph glyph-name="degree" unicode="&#xb0;" horiz-adv-x="387" 
d="M194 429c-79 0 -138 58 -138 137c0 77 59 136 138 136c78 0 138 -59 138 -136c0 -79 -60 -137 -138 -137zM194 476c50 0 89 38 89 90c0 51 -39 89 -89 89c-51 0 -89 -38 -89 -89c0 -52 38 -90 89 -90z" />
    <glyph glyph-name="bar" unicode="|" horiz-adv-x="271" 
d="M109 -190v940h53v-940h-53z" />
    <glyph glyph-name="brokenbar" unicode="&#xa6;" horiz-adv-x="271" 
d="M109 340v410h53v-410h-53zM109 -190v410h53v-410h-53z" />
    <glyph glyph-name="dagger" unicode="&#x2020;" horiz-adv-x="494" 
d="M427 510v-52h-153v-648h-54v648h-153v52h153v180h54v-180h153z" />
    <glyph glyph-name="daggerdbl" unicode="&#x2021;" horiz-adv-x="494" 
d="M427 458h-153v-396h153v-52h-153v-200h-54v200h-153v52h153v396h-153v52h153v180h54v-180h153v-52z" />
    <glyph glyph-name="uni2116" unicode="&#x2116;" horiz-adv-x="1163" 
d="M931 340c-104 0 -182 78 -182 181s78 181 182 181c103 0 182 -78 182 -181s-79 -181 -182 -181zM593 98v592h62v-690h-67l-438 592v-592h-61v690h66zM931 651c-74 0 -130 -56 -130 -130s56 -130 130 -130c73 0 129 56 129 130s-56 130 -129 130zM762 199v53h338v-53h-338
z" />
    <glyph glyph-name="at.case" horiz-adv-x="846" 
d="M542 517h58v-253c0 -30 21 -52 53 -52c48 0 81 62 81 149c0 168 -133 294 -308 294c-177 0 -310 -133 -310 -310s133 -310 310 -310c79 0 152 25 201 69h84c-69 -75 -172 -122 -286 -122c-208 0 -365 156 -365 363c0 206 158 363 366 363c206 0 364 -149 364 -348
c0 -115 -53 -196 -137 -196c-55 0 -97 29 -108 73c-28 -48 -78 -77 -140 -77c-104 0 -180 80 -180 184c0 106 77 185 177 185c60 0 110 -28 140 -76v64zM414 217c74 0 128 55 128 128c0 72 -55 127 -128 127s-128 -54 -128 -127c0 -74 55 -128 128 -128z" />
    <glyph glyph-name="uni02BC" unicode="&#x2bc;" horiz-adv-x="77" 
d="M0 533l21 187h56l-32 -187h-45z" />
    <glyph glyph-name="uni0308" unicode="&#x308;" horiz-adv-x="0" 
d="M-242 593c-22 0 -40 17 -40 40s18 40 40 40c23 0 41 -17 41 -40s-18 -40 -41 -40zM-41 593c-22 0 -40 17 -40 40s18 40 40 40c23 0 41 -17 41 -40s-18 -40 -41 -40z" />
    <glyph glyph-name="uni0307" unicode="&#x307;" horiz-adv-x="0" 
d="M-41 593c-24 0 -42 18 -42 41c0 24 18 42 42 42c23 0 41 -18 41 -42c0 -23 -18 -41 -41 -41z" />
    <glyph glyph-name="gravecomb" unicode="&#x300;" horiz-adv-x="0" 
d="M-63 583l-119 122h77l105 -122h-63z" />
    <glyph glyph-name="acutecomb" unicode="&#x301;" horiz-adv-x="0" 
d="M-182 583l105 122h77l-119 -122h-63z" />
    <glyph glyph-name="uni030B" unicode="&#x30b;" horiz-adv-x="0" 
d="M-329 583l81 122h67l-91 -122h-57zM-148 583l81 122h67l-91 -122h-57z" />
    <glyph glyph-name="caroncomb.alt" horiz-adv-x="0" 
d="M-77 533l21 187h56l-32 -187h-45z" />
    <glyph glyph-name="uni0302" unicode="&#x302;" horiz-adv-x="0" 
d="M0 583h-56l-81 89l-81 -89h-56l101 122h72z" />
    <glyph glyph-name="uni030C" unicode="&#x30c;" horiz-adv-x="0" 
d="M-56 705h56l-101 -122h-72l-101 122h56l81 -89z" />
    <glyph glyph-name="uni0306" unicode="&#x306;" horiz-adv-x="0" 
d="M-125 573c-72 0 -126 54 -126 123h47c0 -45 34 -79 79 -79c44 0 78 34 78 79h47c0 -69 -54 -123 -125 -123z" />
    <glyph glyph-name="uni030A" unicode="&#x30a;" horiz-adv-x="0" 
d="M-78 569c-43 0 -77 33 -77 76c0 44 34 77 77 77c44 0 78 -33 78 -77c0 -43 -34 -76 -78 -76zM-78 602c24 0 43 18 43 43s-19 44 -43 44s-42 -19 -42 -44s18 -43 42 -43z" />
    <glyph glyph-name="tildecomb" unicode="&#x303;" horiz-adv-x="0" 
d="M-94 591c-63 0 -82 62 -132 62c-33 0 -57 -25 -57 -57h-43c0 59 37 104 93 104c64 0 83 -62 133 -62c32 0 56 24 56 57h44c0 -60 -37 -104 -94 -104z" />
    <glyph glyph-name="uni0304" unicode="&#x304;" horiz-adv-x="0" 
d="M-221 601v50h221v-50h-221z" />
    <glyph glyph-name="uni030F" unicode="&#x30f;" horiz-adv-x="0" 
d="M-238 583l-91 122h67l81 -122h-57zM-57 583l-91 122h67l81 -122h-57z" />
    <glyph glyph-name="uni0311" unicode="&#x311;" horiz-adv-x="0" 
d="M-251 576c0 70 54 123 126 123c71 0 125 -53 125 -123h-47c0 46 -34 80 -78 80c-45 0 -79 -34 -79 -80h-47z" />
    <glyph glyph-name="uni0312" unicode="&#x312;" horiz-adv-x="0" 
d="M-93 576l45 144h48l-31 -144h-62z" />
    <glyph glyph-name="dotbelowcomb" unicode="&#x323;" horiz-adv-x="0" 
d="M-41 -166c-24 0 -42 18 -42 42c0 23 18 41 42 41c23 0 41 -18 41 -41c0 -24 -18 -42 -41 -42z" />
    <glyph glyph-name="uni0326" unicode="&#x326;" horiz-adv-x="0" 
d="M-93 -216l31 144h62l-45 -144h-48z" />
    <glyph glyph-name="uni0327" unicode="&#x327;" horiz-adv-x="0" 
d="M-86 -36c49 0 86 -39 86 -89s-41 -90 -94 -90s-93 40 -93 90h38c0 -31 25 -55 55 -55c31 0 55 24 55 55c0 32 -24 55 -55 55c-14 0 -29 -7 -37 -15l-34 16l52 69v2h43v-2l-29 -37c4 1 9 1 13 1z" />
    <glyph glyph-name="uni0328" unicode="&#x328;" horiz-adv-x="0" 
d="M-73 -213c-54 0 -95 39 -95 90c0 54 45 100 108 126h43l2 -3c-66 -30 -105 -70 -105 -112c0 -34 26 -57 58 -57c22 0 45 9 62 23v-46c-19 -13 -46 -21 -73 -21z" />
    <glyph glyph-name="uni0335" unicode="&#x335;" horiz-adv-x="0" 
d="M-280 252v44h280v-44h-280z" />
    <glyph glyph-name="uni0336" unicode="&#x336;" horiz-adv-x="0" 
d="M-675 252v44h675v-44h-675z" />
    <glyph glyph-name="uni0337" unicode="&#x337;" horiz-adv-x="0" 
d="M-504 0l457 510h47l-457 -510h-47z" />
    <glyph glyph-name="uni0338" unicode="&#x338;" horiz-adv-x="0" 
d="M-668 0l611 690h57l-611 -690h-57z" />
    <glyph glyph-name="acute" unicode="&#xb4;" horiz-adv-x="182" 
d="M0 583l105 122h77l-119 -122h-63z" />
    <glyph glyph-name="breve" unicode="&#x2d8;" horiz-adv-x="251" 
d="M126 573c-72 0 -126 54 -126 123h47c0 -45 34 -79 79 -79c44 0 78 34 78 79h47c0 -69 -54 -123 -125 -123z" />
    <glyph glyph-name="caron" unicode="&#x2c7;" horiz-adv-x="274" 
d="M218 705h56l-101 -122h-72l-101 122h56l81 -89z" />
    <glyph glyph-name="cedilla" unicode="&#xb8;" horiz-adv-x="187" 
d="M101 -36c49 0 86 -39 86 -89s-41 -90 -94 -90s-93 40 -93 90h38c0 -31 25 -55 55 -55c31 0 55 24 55 55c0 32 -24 55 -55 55c-14 0 -29 -7 -37 -15l-34 16l52 69v2h43v-2l-29 -37c4 1 9 1 13 1z" />
    <glyph glyph-name="circumflex" unicode="&#x2c6;" horiz-adv-x="274" 
d="M274 583h-56l-81 89l-81 -89h-56l101 122h72z" />
    <glyph glyph-name="dieresis" unicode="&#xa8;" horiz-adv-x="282" 
d="M40 593c-22 0 -40 17 -40 40s18 40 40 40c23 0 41 -17 41 -40s-18 -40 -41 -40zM241 593c-22 0 -40 17 -40 40s18 40 40 40c23 0 41 -17 41 -40s-18 -40 -41 -40z" />
    <glyph glyph-name="dotaccent" unicode="&#x2d9;" horiz-adv-x="83" 
d="M42 593c-24 0 -42 18 -42 41c0 24 18 42 42 42c23 0 41 -18 41 -42c0 -23 -18 -41 -41 -41z" />
    <glyph glyph-name="grave" unicode="`" horiz-adv-x="182" 
d="M119 583l-119 122h77l105 -122h-63z" />
    <glyph glyph-name="hungarumlaut" unicode="&#x2dd;" horiz-adv-x="329" 
d="M0 583l81 122h67l-91 -122h-57zM181 583l81 122h67l-91 -122h-57z" />
    <glyph glyph-name="macron" unicode="&#xaf;" horiz-adv-x="221" 
d="M0 601v50h221v-50h-221z" />
    <glyph glyph-name="ogonek" unicode="&#x2db;" horiz-adv-x="180" 
d="M95 -213c-54 0 -95 39 -95 90c0 54 45 100 108 126h43l2 -3c-66 -30 -105 -70 -105 -112c0 -34 26 -57 58 -57c22 0 45 9 62 23v-46c-19 -13 -46 -21 -73 -21z" />
    <glyph glyph-name="ring" unicode="&#x2da;" horiz-adv-x="155" 
d="M77 569c-43 0 -77 33 -77 76c0 44 34 77 77 77c44 0 78 -33 78 -77c0 -43 -34 -76 -78 -76zM77 602c24 0 43 18 43 43s-19 44 -43 44s-42 -19 -42 -44s18 -43 42 -43z" />
    <glyph glyph-name="tilde" unicode="&#x2dc;" horiz-adv-x="326" 
d="M232 591c-63 0 -82 62 -132 62c-33 0 -57 -25 -57 -57h-43c0 59 37 104 93 104c64 0 83 -62 133 -62c32 0 56 24 56 57h44c0 -60 -37 -104 -94 -104z" />
    <glyph glyph-name="caron.alt" horiz-adv-x="77" 
d="M0 533l21 187h56l-32 -187h-45z" />
    </font>
</defs>
</svg>
