<?xml version="1.0" standalone="no"?>
<!DOCTYPE svg PUBLIC "-//W3C//DTD SVG 1.1//EN" "http://www.w3.org/Graphics/SVG/1.1/DTD/svg11.dtd" >
<svg xmlns="http://www.w3.org/2000/svg" xmlns:xlink="http://www.w3.org/1999/xlink" version="1.1">
<metadata>
Created by FontForge 20190801 at Mon Feb  4 11:11:33 2019
 By Jimmy Wärting
Copyright \(c\) 2019 by Adam Ladd. All rights reserved.
</metadata>
<defs>
<font id="Konnect-Thin" horiz-adv-x="675" >
  <font-face 
    font-family="Konnect Thin"
    font-weight="100"
    font-stretch="normal"
    units-per-em="1000"
    panose-1="0 0 2 0 0 0 0 0 0 0"
    ascent="780"
    descent="-220"
    x-height="510"
    cap-height="690"
    bbox="-666 -241 1291 906"
    underline-thickness="18"
    underline-position="-100"
    stemh="24"
    stemv="24"
    unicode-range="U+0020-FB02"
  />
<missing-glyph horiz-adv-x="500" 
d="M410 780v-1000h-317v1000h317zM333 713h-165v-33h65v-37h-66v-33h166v33h-66v37h66v33zM267 584h-100v-104h166v34h-66v70zM233 550v-36h-33v36h33zM333 453h-166v-33h66v-37h-66v-33h100v70h66v33zM333 393h-33v-66h-133v-34h166v100zM333 271h-100v-56h34v23h33v-47
h-100v80h-33v-113h166v113zM333 98h-166v-113h166v113zM300 65v-47h-100v47h100zM333 -38h-166v-33h70l-70 -47v-33h166v33h-102l70 47h32v33z" />
    <glyph glyph-name="fi" unicode="fi" horiz-adv-x="551" 
d="M463 510v-510h-24v488h-263v-488h-24v488h-109v22h109v55c0 112 66 156 169 156v-23c-88 0 -145 -36 -145 -135v-53h287zM451 698c13 0 24 -11 24 -24s-11 -23 -24 -23s-23 10 -23 23s10 24 23 24z" />
    <glyph glyph-name="fl" unicode="fl" horiz-adv-x="562" 
d="M152 565c0 112 66 156 169 156v-23c-88 0 -145 -36 -145 -135v-53h145v-22h-145v-488h-24v488h-109v22h109v55zM450 720h24v-720h-24v720z" />
    <glyph glyph-name="f_f.liga" unicode="ff" horiz-adv-x="668" 
d="M627 698c-88 0 -145 -36 -145 -135v-53h145v-22h-145v-488h-24v488h-282v-488h-24v488h-109v22h109v55c0 112 66 156 169 156v-23c-88 0 -145 -36 -145 -135v-53h282v55c0 112 66 156 169 156v-23z" />
    <glyph glyph-name="f_f_i.liga" unicode="ffi" horiz-adv-x="856" 
d="M769 510v-510h-24v488h-263v-488h-24v488h-282v-488h-24v488h-109v22h109v55c0 112 66 156 169 156v-23c-88 0 -145 -36 -145 -135v-53h282v55c0 112 65 156 168 156v-23c-87 0 -144 -36 -144 -135v-53h287zM757 698c13 0 23 -11 23 -24s-10 -23 -23 -23s-24 10 -24 23
s11 24 24 24z" />
    <glyph glyph-name="f_f_l.liga" unicode="ffl" horiz-adv-x="874" 
d="M458 565c0 112 66 156 169 156v-23c-88 0 -145 -36 -145 -135v-53h145v-22h-145v-488h-24v488h-282v-488h-24v488h-109v22h109v55c0 112 66 156 169 156v-23c-88 0 -145 -36 -145 -135v-53h282v55zM762 720h24v-720h-24v720z" />
    <glyph glyph-name=".notdef" horiz-adv-x="500" 
d="M410 780v-1000h-317v1000h317zM333 713h-165v-33h65v-37h-66v-33h166v33h-66v37h66v33zM267 584h-100v-104h166v34h-66v70zM233 550v-36h-33v36h33zM333 453h-166v-33h66v-37h-66v-33h100v70h66v33zM333 393h-33v-66h-133v-34h166v100zM333 271h-100v-56h34v23h33v-47
h-100v80h-33v-113h166v113zM333 98h-166v-113h166v113zM300 65v-47h-100v47h100zM333 -38h-166v-33h70l-70 -47v-33h166v33h-102l70 47h32v33z" />
    <glyph glyph-name="A" unicode="A" horiz-adv-x="707" 
d="M643 0l-94 215h-392l-94 -215h-28l302 690h33l302 -690h-29zM168 239h370l-185 423z" />
    <glyph glyph-name="Aacute" unicode="&#xc1;" horiz-adv-x="707" 
d="M475 883l-115 -111h-28l107 111h36zM643 0l-94 215h-392l-94 -215h-28l302 690h33l302 -690h-29zM168 239h370l-185 423z" />
    <glyph glyph-name="Abreve" unicode="&#x102;" horiz-adv-x="707" 
d="M353 762c-62 0 -110 47 -110 109h21c0 -51 39 -90 89 -90c51 0 89 39 89 90h22c0 -62 -48 -109 -111 -109zM643 0l-94 215h-392l-94 -215h-28l302 690h33l302 -690h-29zM168 239h370l-185 423z" />
    <glyph glyph-name="uni01CD" unicode="&#x1cd;" horiz-adv-x="707" 
d="M370 772h-32l-102 111h25l93 -96l92 96h25zM643 0l-94 215h-392l-94 -215h-28l302 690h33l302 -690h-29zM168 239h370l-185 423z" />
    <glyph glyph-name="Acircumflex" unicode="&#xc2;" horiz-adv-x="707" 
d="M354 867l-93 -95h-25l102 111h32l101 -111h-25zM643 0l-94 215h-392l-94 -215h-28l302 690h33l302 -690h-29zM168 239h370l-185 423z" />
    <glyph glyph-name="uni0200" unicode="&#x200;" horiz-adv-x="707" 
d="M285 772h-24l-86 111h31zM450 772h-25l-85 111h31zM643 0l-94 215h-392l-94 -215h-28l302 690h33l302 -690h-29zM168 239h370l-185 423z" />
    <glyph glyph-name="Adieresis" unicode="&#xc4;" horiz-adv-x="707" 
d="M257 786c-14 0 -25 11 -25 25c0 13 11 24 25 24c13 0 24 -11 24 -24c0 -14 -11 -25 -24 -25zM451 786c-14 0 -25 11 -25 25c0 13 11 24 25 24c13 0 24 -11 24 -24c0 -14 -11 -25 -24 -25zM643 0l-94 215h-392l-94 -215h-28l302 690h33l302 -690h-29zM168 239h370
l-185 423z" />
    <glyph glyph-name="uni1EA0" unicode="&#x1ea0;" horiz-adv-x="707" 
d="M672 0h-29l-94 215h-392l-94 -215h-28l302 690h33zM168 239h370l-185 423zM353 -96c14 0 25 -11 25 -25s-11 -25 -25 -25s-25 11 -25 25s11 25 25 25z" />
    <glyph glyph-name="Agrave" unicode="&#xc0;" horiz-adv-x="707" 
d="M374 772h-28l-115 111h36zM643 0l-94 215h-392l-94 -215h-28l302 690h33l302 -690h-29zM168 239h370l-185 423z" />
    <glyph glyph-name="uni0202" unicode="&#x202;" horiz-adv-x="707" 
d="M353 852c-50 0 -89 -38 -89 -90h-21c0 62 48 110 110 110c63 0 111 -48 111 -110h-22c0 52 -38 90 -89 90zM643 0l-94 215h-392l-94 -215h-28l302 690h33l302 -690h-29zM168 239h370l-185 423z" />
    <glyph glyph-name="Amacron" unicode="&#x100;" horiz-adv-x="707" 
d="M453 815v-22h-200v22h200zM643 0l-94 215h-392l-94 -215h-28l302 690h33l302 -690h-29zM168 239h370l-185 423z" />
    <glyph glyph-name="Aogonek" unicode="&#x104;" horiz-adv-x="707" 
d="M628 -181c23 0 45 9 62 23v-23c-18 -12 -40 -20 -64 -20c-46 0 -82 36 -82 81c0 50 42 93 101 120h-2l-94 215h-392l-94 -215h-28l302 690h33l302 -690c-62 -28 -106 -71 -106 -117c0 -37 27 -64 62 -64zM168 239h370l-185 423z" />
    <glyph glyph-name="Aring" unicode="&#xc5;" horiz-adv-x="707" 
d="M353 756c-36 0 -65 28 -65 65s29 65 65 65c37 0 66 -28 66 -65s-29 -65 -66 -65zM353 869c-26 0 -46 -20 -46 -48c0 -27 20 -48 46 -48c27 0 47 21 47 48c0 28 -20 48 -47 48zM643 0l-94 215h-392l-94 -215h-28l302 690h33l302 -690h-29zM168 239h370l-185 423z" />
    <glyph glyph-name="Atilde" unicode="&#xc3;" horiz-adv-x="707" 
d="M283 852c-36 0 -64 -28 -64 -66h-21c0 49 35 86 84 86c66 0 83 -72 141 -72c37 0 65 28 65 66h21c0 -49 -36 -87 -84 -87c-67 0 -84 73 -142 73zM643 0l-94 215h-392l-94 -215h-28l302 690h33l302 -690h-29zM168 239h370l-185 423z" />
    <glyph glyph-name="AE" unicode="&#xc6;" horiz-adv-x="867" 
d="M466 24h346v-24h-371v215h-287l-138 -215h-31l443 690h379v-24h-341v-307h307v-24h-307v-311zM169 239h272v424z" />
    <glyph glyph-name="AEacute" unicode="&#x1fc;" horiz-adv-x="867" 
d="M583 883l-115 -111h-28l107 111h36zM466 24h346v-24h-371v215h-287l-138 -215h-31l443 690h379v-24h-341v-307h307v-24h-307v-311zM169 239h272v424z" />
    <glyph glyph-name="B" unicode="B" horiz-adv-x="548" 
d="M355 366c91 -14 153 -87 153 -181c0 -105 -79 -185 -185 -185h-226v690h192c97 0 169 -72 169 -169c0 -73 -46 -133 -103 -155zM286 666h-163v-294h163c79 0 145 63 145 147s-62 147 -145 147zM320 24c92 0 161 70 161 163c0 92 -69 162 -161 162h-197v-325h197z" />
    <glyph glyph-name="C" unicode="C" horiz-adv-x="818" 
d="M415 -12c-203 0 -357 154 -357 357s154 357 357 357c177 0 316 -117 350 -279h-27c-32 148 -161 254 -323 254c-188 0 -330 -143 -330 -332s142 -332 330 -332c162 0 291 106 323 254h27c-34 -162 -173 -279 -350 -279z" />
    <glyph glyph-name="Cacute" unicode="&#x106;" horiz-adv-x="818" 
d="M394 772l107 111h36l-115 -111h-28zM415 -12c-203 0 -357 154 -357 357s154 357 357 357c177 0 316 -117 350 -279h-27c-32 148 -161 254 -323 254c-188 0 -330 -143 -330 -332s142 -332 330 -332c162 0 291 106 323 254h27c-34 -162 -173 -279 -350 -279z" />
    <glyph glyph-name="Ccaron" unicode="&#x10c;" horiz-adv-x="818" 
d="M432 772h-32l-102 111h25l93 -96l92 96h25zM415 13c162 0 291 106 323 254h27c-34 -162 -173 -279 -350 -279c-203 0 -357 154 -357 357s154 357 357 357c177 0 316 -117 350 -279h-27c-32 148 -161 254 -323 254c-188 0 -330 -143 -330 -332s142 -332 330 -332z" />
    <glyph glyph-name="Ccedilla" unicode="&#xc7;" horiz-adv-x="818" 
d="M415 13c162 0 291 106 323 254h27c-34 -160 -169 -276 -342 -279l-27 -34c8 3 18 5 27 5c44 0 77 -35 77 -80c0 -46 -35 -81 -82 -81c-46 0 -81 35 -81 81h20c0 -36 27 -63 61 -63c35 0 62 27 62 63c0 35 -27 62 -62 62c-14 0 -31 -7 -40 -16l-16 8l40 55
c-196 7 -344 158 -344 357c0 203 154 357 357 357c177 0 316 -117 350 -279h-27c-32 148 -161 254 -323 254c-188 0 -330 -143 -330 -332s142 -332 330 -332z" />
    <glyph glyph-name="Ccircumflex" unicode="&#x108;" horiz-adv-x="818" 
d="M416 867l-93 -95h-25l102 111h32l101 -111h-25zM415 13c162 0 291 106 323 254h27c-34 -162 -173 -279 -350 -279c-203 0 -357 154 -357 357s154 357 357 357c177 0 316 -117 350 -279h-27c-32 148 -161 254 -323 254c-188 0 -330 -143 -330 -332s142 -332 330 -332z" />
    <glyph glyph-name="Cdotaccent" unicode="&#x10a;" horiz-adv-x="818" 
d="M416 786c-14 0 -25 11 -25 25s11 25 25 25s25 -11 25 -25s-11 -25 -25 -25zM415 -12c-203 0 -357 154 -357 357s154 357 357 357c177 0 316 -117 350 -279h-27c-32 148 -161 254 -323 254c-188 0 -330 -143 -330 -332s142 -332 330 -332c162 0 291 106 323 254h27
c-34 -162 -173 -279 -350 -279z" />
    <glyph glyph-name="D" unicode="D" horiz-adv-x="761" 
d="M357 690c198 0 346 -148 346 -345s-148 -345 -346 -345h-260v690h260zM357 24c182 0 319 138 319 321s-137 321 -319 321h-234v-642h234z" />
    <glyph glyph-name="uni01F1" unicode="&#x1f1;" horiz-adv-x="1340" 
d="M357 690c198 0 346 -148 346 -345s-148 -345 -346 -345h-260v690h260zM809 24h482v-24h-516v19l475 647h-471v24h505v-19zM357 24c182 0 319 138 319 321s-137 321 -319 321h-234v-642h234z" />
    <glyph glyph-name="uni01C4" unicode="&#x1c4;" horiz-adv-x="1340" 
d="M1048 772h-32l-102 111h25l93 -97l93 97h25zM357 690c198 0 346 -148 346 -345s-148 -345 -346 -345h-260v690h260zM809 24h482v-24h-516v19l475 647h-471v24h505v-19zM357 24c182 0 319 138 319 321s-137 321 -319 321h-234v-642h234z" />
    <glyph glyph-name="Eth" unicode="&#xd0;" horiz-adv-x="761" 
d="M357 690c198 0 346 -148 346 -345s-148 -345 -346 -345h-260v335h-78v20h78v335h260zM357 24c182 0 319 138 319 321s-137 321 -319 321h-234v-311h164v-20h-164v-311h234z" />
    <glyph glyph-name="Dcaron" unicode="&#x10e;" horiz-adv-x="761" 
d="M387 772h-32l-102 111h25l93 -96l92 96h25zM357 690c198 0 346 -148 346 -345s-148 -345 -346 -345h-260v690h260zM357 24c182 0 319 138 319 321s-137 321 -319 321h-234v-642h234z" />
    <glyph glyph-name="Dcroat" unicode="&#x110;" horiz-adv-x="761" 
d="M357 690c198 0 346 -148 346 -345s-148 -345 -346 -345h-260v335h-78v20h78v335h260zM357 24c182 0 319 138 319 321s-137 321 -319 321h-234v-311h164v-20h-164v-311h234z" />
    <glyph glyph-name="uni1E0C" unicode="&#x1e0c;" horiz-adv-x="761" 
d="M357 690c198 0 346 -148 346 -345s-148 -345 -346 -345h-260v690h260zM357 24c182 0 319 138 319 321s-137 321 -319 321h-234v-642h234zM371 -96c14 0 25 -11 25 -25s-11 -25 -25 -25s-25 11 -25 25s11 25 25 25z" />
    <glyph glyph-name="uni01F2" unicode="&#x1f2;" horiz-adv-x="1264" 
d="M357 690c198 0 346 -148 346 -345s-148 -345 -346 -345h-260v690h260zM357 24c182 0 319 138 319 321s-137 321 -319 321h-234v-642h234zM849 23h362v-23h-397v17l356 470h-352v23h386v-17z" />
    <glyph glyph-name="uni01C5" unicode="&#x1c5;" horiz-adv-x="1264" 
d="M1029 592h-32l-102 111h25l93 -96l92 96h25zM357 690c198 0 346 -148 346 -345s-148 -345 -346 -345h-260v690h260zM357 24c182 0 319 138 319 321s-137 321 -319 321h-234v-642h234zM849 23h362v-23h-397v17l356 470h-352v23h386v-17z" />
    <glyph glyph-name="E" unicode="E" horiz-adv-x="523" 
d="M123 24h345v-24h-371v690h366v-24h-340v-307h306v-24h-306v-311z" />
    <glyph glyph-name="Eacute" unicode="&#xc9;" horiz-adv-x="523" 
d="M402 883l-115 -111h-28l107 111h36zM123 24h345v-24h-371v690h366v-24h-340v-307h306v-24h-306v-311z" />
    <glyph glyph-name="Ebreve" unicode="&#x114;" horiz-adv-x="523" 
d="M279 762c-62 0 -110 47 -110 109h21c0 -51 39 -90 89 -90c51 0 89 39 89 90h22c0 -62 -48 -109 -111 -109zM123 24h345v-24h-371v690h366v-24h-340v-307h306v-24h-306v-311z" />
    <glyph glyph-name="Ecaron" unicode="&#x11a;" horiz-adv-x="523" 
d="M296 772h-32l-102 111h25l93 -96l92 96h25zM123 24h345v-24h-371v690h366v-24h-340v-307h306v-24h-306v-311z" />
    <glyph glyph-name="Ecircumflex" unicode="&#xca;" horiz-adv-x="523" 
d="M280 867l-93 -95h-25l102 111h32l101 -111h-25zM123 24h345v-24h-371v690h366v-24h-340v-307h306v-24h-306v-311z" />
    <glyph glyph-name="uni0204" unicode="&#x204;" horiz-adv-x="523" 
d="M211 772h-24l-86 111h31zM376 772h-25l-85 111h31zM123 24h345v-24h-371v690h366v-24h-340v-307h306v-24h-306v-311z" />
    <glyph glyph-name="Edieresis" unicode="&#xcb;" horiz-adv-x="523" 
d="M183 786c-14 0 -25 11 -25 25c0 13 11 24 25 24c13 0 24 -11 24 -24c0 -14 -11 -25 -24 -25zM377 786c-14 0 -25 11 -25 25c0 13 11 24 25 24c13 0 24 -11 24 -24c0 -14 -11 -25 -24 -25zM123 24h345v-24h-371v690h366v-24h-340v-307h306v-24h-306v-311z" />
    <glyph glyph-name="Edotaccent" unicode="&#x116;" horiz-adv-x="523" 
d="M280 786c-14 0 -25 11 -25 25s11 25 25 25s25 -11 25 -25s-11 -25 -25 -25zM123 24h345v-24h-371v690h366v-24h-340v-307h306v-24h-306v-311z" />
    <glyph glyph-name="uni1EB8" unicode="&#x1eb8;" horiz-adv-x="523" 
d="M123 24h345v-24h-371v690h366v-24h-340v-307h306v-24h-306v-311zM280 -96c14 0 25 -11 25 -25s-11 -25 -25 -25s-25 11 -25 25s11 25 25 25z" />
    <glyph glyph-name="Egrave" unicode="&#xc8;" horiz-adv-x="523" 
d="M300 772h-28l-115 111h36zM123 24h345v-24h-371v690h366v-24h-340v-307h306v-24h-306v-311z" />
    <glyph glyph-name="uni0206" unicode="&#x206;" horiz-adv-x="523" 
d="M279 852c-50 0 -89 -38 -89 -90h-21c0 62 48 110 110 110c63 0 111 -48 111 -110h-22c0 52 -38 90 -89 90zM123 24h345v-24h-371v690h366v-24h-340v-307h306v-24h-306v-311z" />
    <glyph glyph-name="Emacron" unicode="&#x112;" horiz-adv-x="523" 
d="M380 815v-22h-200v22h200zM123 24h345v-24h-371v690h366v-24h-340v-307h306v-24h-306v-311z" />
    <glyph glyph-name="Eogonek" unicode="&#x118;" horiz-adv-x="523" 
d="M407 -181c23 0 45 9 62 23v-23c-18 -12 -40 -20 -64 -20c-46 0 -82 36 -82 81c0 50 42 93 101 120h-327v690h366v-24h-340v-307h306v-24h-306v-311h345v-24h-17c-62 -28 -106 -71 -106 -117c0 -37 27 -64 62 -64z" />
    <glyph glyph-name="uni1EBC" unicode="&#x1ebc;" horiz-adv-x="523" 
d="M209 852c-36 0 -64 -28 -64 -66h-21c0 49 35 86 84 86c66 0 83 -72 141 -72c37 0 65 28 65 66h21c0 -49 -36 -87 -84 -87c-67 0 -84 73 -142 73zM123 24h345v-24h-371v690h366v-24h-340v-307h306v-24h-306v-311z" />
    <glyph glyph-name="F" unicode="F" horiz-adv-x="494" 
d="M448 666h-325v-312h281v-24h-281v-330h-26v690h351v-24z" />
    <glyph glyph-name="G" unicode="G" horiz-adv-x="825" 
d="M435 339h337v-8c-7 -197 -158 -343 -357 -343c-203 0 -357 154 -357 357s154 357 357 357c162 0 293 -97 339 -238h-28c-45 127 -164 213 -311 213c-188 0 -330 -143 -330 -332s142 -332 330 -332c179 0 316 127 330 302h-310v24z" />
    <glyph glyph-name="uni01F4" unicode="&#x1f4;" horiz-adv-x="825" 
d="M537 883l-115 -111h-28l107 111h36zM435 339h337v-8c-7 -197 -158 -343 -357 -343c-203 0 -357 154 -357 357s154 357 357 357c162 0 293 -97 339 -238h-28c-45 127 -164 213 -311 213c-188 0 -330 -143 -330 -332s142 -332 330 -332c179 0 316 127 330 302h-310v24z" />
    <glyph glyph-name="Gbreve" unicode="&#x11e;" horiz-adv-x="825" 
d="M415 762c-62 0 -110 47 -110 109h21c0 -51 39 -90 89 -90c51 0 89 39 89 90h22c0 -62 -48 -109 -111 -109zM435 339h337v-8c-7 -197 -158 -343 -357 -343c-203 0 -357 154 -357 357s154 357 357 357c162 0 293 -97 339 -238h-28c-45 127 -164 213 -311 213
c-188 0 -330 -143 -330 -332s142 -332 330 -332c179 0 316 127 330 302h-310v24z" />
    <glyph glyph-name="Gcaron" unicode="&#x1e6;" horiz-adv-x="825" 
d="M432 772h-32l-102 111h25l93 -96l92 96h25zM435 339h337v-8c-7 -197 -158 -343 -357 -343c-203 0 -357 154 -357 357s154 357 357 357c162 0 293 -97 339 -238h-28c-45 127 -164 213 -311 213c-188 0 -330 -143 -330 -332s142 -332 330 -332c179 0 316 127 330 302h-310
v24z" />
    <glyph glyph-name="Gcircumflex" unicode="&#x11c;" horiz-adv-x="825" 
d="M416 867l-93 -95h-25l102 111h32l101 -111h-25zM435 339h337v-8c-7 -197 -158 -343 -357 -343c-203 0 -357 154 -357 357s154 357 357 357c162 0 293 -97 339 -238h-28c-45 127 -164 213 -311 213c-188 0 -330 -143 -330 -332s142 -332 330 -332c179 0 316 127 330 302
h-310v24z" />
    <glyph glyph-name="uni0122" unicode="&#x122;" horiz-adv-x="825" 
d="M435 339h337v-8c-7 -197 -158 -343 -357 -343c-203 0 -357 154 -357 357s154 357 357 357c162 0 293 -97 339 -238h-28c-45 127 -164 213 -311 213c-188 0 -330 -143 -330 -332s142 -332 330 -332c179 0 316 127 330 302h-310v24zM384 -211l26 131h28l-34 -131h-20z" />
    <glyph glyph-name="Gdotaccent" unicode="&#x120;" horiz-adv-x="825" 
d="M416 786c-14 0 -25 11 -25 25s11 25 25 25s25 -11 25 -25s-11 -25 -25 -25zM435 339h337v-8c-7 -197 -158 -343 -357 -343c-203 0 -357 154 -357 357s154 357 357 357c162 0 293 -97 339 -238h-28c-45 127 -164 213 -311 213c-188 0 -330 -143 -330 -332
s142 -332 330 -332c179 0 316 127 330 302h-310v24z" />
    <glyph glyph-name="H" unicode="H" horiz-adv-x="742" 
d="M619 690h26v-690h-26v335h-496v-335h-26v690h26v-331h496v331z" />
    <glyph glyph-name="Hbar" unicode="&#x126;" horiz-adv-x="742" 
d="M705 546v-20h-60v-526h-26v335h-496v-335h-26v526h-58v20h58v144h26v-144h496v144h26v-144h60zM619 359v167h-496v-167h496z" />
    <glyph glyph-name="Hcircumflex" unicode="&#x124;" horiz-adv-x="742" 
d="M372 867l-93 -95h-25l102 111h32l101 -111h-25zM619 690h26v-690h-26v335h-496v-335h-26v690h26v-331h496v331z" />
    <glyph glyph-name="uni1E24" unicode="&#x1e24;" horiz-adv-x="742" 
d="M619 690h26v-690h-26v335h-496v-335h-26v690h26v-331h496v331zM372 -96c14 0 25 -11 25 -25s-11 -25 -25 -25s-25 11 -25 25s11 25 25 25z" />
    <glyph glyph-name="I" unicode="I" horiz-adv-x="220" 
d="M97 0v690h26v-690h-26z" />
    <glyph glyph-name="IJ" unicode="&#x132;" horiz-adv-x="754" 
d="M97 0v690h26v-690h-26zM470 -12c-117 0 -205 88 -205 204h27c0 -102 77 -179 178 -179c103 0 180 77 180 179v498h25v-498c0 -116 -88 -204 -205 -204z" />
    <glyph glyph-name="Iacute" unicode="&#xcd;" horiz-adv-x="220" 
d="M90 772l107 111h36l-115 -111h-28zM97 0v690h26v-690h-26z" />
    <glyph glyph-name="Ibreve" unicode="&#x12c;" horiz-adv-x="220" 
d="M110 762c-62 0 -110 47 -110 109h21c0 -51 39 -90 89 -90c51 0 89 39 89 90h22c0 -62 -48 -109 -111 -109zM97 0v690h26v-690h-26z" />
    <glyph glyph-name="Icircumflex" unicode="&#xce;" horiz-adv-x="220" 
d="M127 883l101 -111h-25l-92 95l-93 -95h-25l102 111h32zM97 0v690h26v-690h-26z" />
    <glyph glyph-name="uni0208" unicode="&#x208;" horiz-adv-x="220" 
d="M18 772l-86 111h31l79 -111h-24zM182 772l-85 111h31l79 -111h-25zM97 0v690h26v-690h-26z" />
    <glyph glyph-name="Idieresis" unicode="&#xcf;" horiz-adv-x="220" 
d="M14 786c-14 0 -25 11 -25 25c0 13 11 24 25 24c13 0 24 -11 24 -24c0 -14 -11 -25 -24 -25zM208 786c-14 0 -25 11 -25 25c0 13 11 24 25 24c13 0 24 -11 24 -24c0 -14 -11 -25 -24 -25zM97 0v690h26v-690h-26z" />
    <glyph glyph-name="Idotaccent" unicode="&#x130;" horiz-adv-x="220" 
d="M111 786c-14 0 -25 11 -25 25s11 25 25 25s25 -11 25 -25s-11 -25 -25 -25zM97 0v690h26v-690h-26z" />
    <glyph glyph-name="uni1ECA" unicode="&#x1eca;" horiz-adv-x="220" 
d="M97 0v690h26v-690h-26zM111 -146c-14 0 -25 11 -25 25s11 25 25 25s25 -11 25 -25s-11 -25 -25 -25z" />
    <glyph glyph-name="Igrave" unicode="&#xcc;" horiz-adv-x="220" 
d="M103 772l-115 111h36l107 -111h-28zM97 0v690h26v-690h-26z" />
    <glyph glyph-name="uni020A" unicode="&#x20a;" horiz-adv-x="220" 
d="M0 762c0 62 48 110 110 110c63 0 111 -48 111 -110h-22c0 52 -38 90 -89 90c-50 0 -89 -38 -89 -90h-21zM97 0v690h26v-690h-26z" />
    <glyph glyph-name="Imacron" unicode="&#x12a;" horiz-adv-x="220" 
d="M11 793v22h200v-22h-200zM97 0v690h26v-690h-26z" />
    <glyph glyph-name="Iogonek" unicode="&#x12e;" horiz-adv-x="220" 
d="M78 -181c23 0 45 9 62 23v-23c-18 -12 -40 -20 -64 -20c-46 0 -82 36 -82 81c0 51 43 94 103 121v689h26v-690h-1c-62 -28 -106 -71 -106 -117c0 -37 27 -64 62 -64z" />
    <glyph glyph-name="Itilde" unicode="&#x128;" horiz-adv-x="220" 
d="M182 779c-67 0 -84 73 -142 73c-36 0 -64 -28 -64 -66h-21c0 49 35 86 84 86c66 0 83 -72 141 -72c37 0 65 28 65 66h21c0 -49 -36 -87 -84 -87zM97 0v690h26v-690h-26z" />
    <glyph glyph-name="J" unicode="J" horiz-adv-x="533" 
d="M250 -12c-117 0 -205 88 -205 204h27c0 -102 77 -179 178 -179c103 0 180 77 180 179v498h25v-498c0 -116 -88 -204 -205 -204z" />
    <glyph glyph-name="Jcircumflex" unicode="&#x134;" horiz-adv-x="533" 
d="M458 883l101 -111h-25l-92 95l-93 -95h-25l102 111h32zM430 192v498h25v-498c0 -116 -88 -204 -205 -204s-205 88 -205 204h27c0 -102 77 -179 178 -179c103 0 180 77 180 179z" />
    <glyph glyph-name="K" unicode="K" horiz-adv-x="585" 
d="M567 0h-38l-406 334v-334h-26v690h26v-327l400 327h37l-415 -341z" />
    <glyph glyph-name="uni0136" unicode="&#x136;" horiz-adv-x="585" 
d="M145 349l422 -349h-38l-406 334v-334h-26v690h26v-327l400 327h37zM283 -211l26 131h28l-34 -131h-20z" />
    <glyph glyph-name="L" unicode="L" horiz-adv-x="477" 
d="M123 24h315v-24h-341v690h26v-666z" />
    <glyph glyph-name="uni01C7" unicode="&#x1c7;" horiz-adv-x="983" 
d="M123 690v-666h315v-24h-341v690h26zM880 690h25v-498c0 -116 -88 -204 -205 -204s-205 88 -205 204h27c0 -102 77 -179 178 -179c103 0 180 77 180 179v498z" />
    <glyph glyph-name="Lacute" unicode="&#x139;" horiz-adv-x="477" 
d="M233 883l-115 -111h-28l107 111h36zM123 24h315v-24h-341v690h26v-666z" />
    <glyph glyph-name="Lcaron" unicode="&#x13d;" horiz-adv-x="478" 
d="M123 24h315v-24h-341v690h26v-666zM302 690l-28 -171h-19l21 171h26z" />
    <glyph glyph-name="uni013B" unicode="&#x13b;" horiz-adv-x="477" 
d="M123 24h315v-24h-341v690h26v-666zM234 -211l26 131h28l-34 -131h-20z" />
    <glyph glyph-name="Ldot" unicode="&#x13f;" horiz-adv-x="479" 
d="M123 24h315v-24h-341v690h26v-666zM276 321c-14 0 -25 11 -25 25s11 25 25 25s26 -11 26 -25s-12 -25 -26 -25z" />
    <glyph glyph-name="uni01C8" unicode="&#x1c8;" horiz-adv-x="683" 
d="M583 698c14 0 24 -11 24 -24s-10 -23 -24 -23c-13 0 -23 10 -23 23s10 24 23 24zM123 690v-666h315v-24h-341v690h26zM571 -63v573h24v-575c0 -94 -54 -137 -139 -137v23c70 0 115 35 115 116z" />
    <glyph glyph-name="Lslash" unicode="&#x141;" horiz-adv-x="477" 
d="M123 24h315v-24h-341v297l-72 -53v28l72 53v365h26v-345l138 102v-28l-138 -102v-293z" />
    <glyph glyph-name="M" unicode="M" horiz-adv-x="889" 
d="M755 690h37v-690h-26v652l-308 -652h-27l-308 652v-652h-26v690h38l310 -659z" />
    <glyph glyph-name="N" unicode="N" horiz-adv-x="748" 
d="M625 690h26v-690h-31l-497 655v-655h-26v690h32l496 -653v653z" />
    <glyph glyph-name="uni01CA" unicode="&#x1ca;" horiz-adv-x="1282" 
d="M625 37v653h26v-690h-31l-497 655v-655h-26v690h32zM1178 690h25v-498c0 -116 -88 -204 -205 -204s-205 88 -205 204h27c0 -102 77 -179 178 -179c103 0 180 77 180 179v498z" />
    <glyph glyph-name="Nacute" unicode="&#x143;" horiz-adv-x="748" 
d="M496 883l-115 -111h-28l107 111h36zM625 690h26v-690h-31l-497 655v-655h-26v690h32l496 -653v653z" />
    <glyph glyph-name="Ncaron" unicode="&#x147;" horiz-adv-x="748" 
d="M391 772h-32l-102 111h25l93 -96l92 96h25zM625 690h26v-690h-31l-497 655v-655h-26v690h32l496 -653v653z" />
    <glyph glyph-name="uni0145" unicode="&#x145;" horiz-adv-x="748" 
d="M625 690h26v-690h-31l-497 655v-655h-26v690h32l496 -653v653zM342 -211l26 131h28l-34 -131h-20z" />
    <glyph glyph-name="uni1E44" unicode="&#x1e44;" horiz-adv-x="748" 
d="M375 786c-14 0 -25 11 -25 25s11 25 25 25s25 -11 25 -25s-11 -25 -25 -25zM625 690h26v-690h-31l-497 655v-655h-26v690h32l496 -653v653z" />
    <glyph glyph-name="Eng" unicode="&#x14a;" horiz-adv-x="748" 
d="M625 690h26v-747c0 -94 -54 -136 -139 -136v24c68 0 113 35 113 113v56h-5l-497 655v-655h-26v690h32l496 -653v653z" />
    <glyph glyph-name="uni01CB" unicode="&#x1cb;" horiz-adv-x="954" 
d="M854 698c14 0 24 -11 24 -24s-10 -23 -24 -23c-13 0 -23 10 -23 23s10 24 23 24zM625 37v653h26v-690h-31l-497 655v-655h-26v690h32zM842 -63v573h24v-575c0 -94 -54 -137 -139 -137v23c70 0 115 35 115 116z" />
    <glyph glyph-name="Ntilde" unicode="&#xd1;" horiz-adv-x="748" 
d="M304 852c-36 0 -64 -28 -64 -66h-21c0 49 35 86 84 86c66 0 83 -72 141 -72c37 0 65 28 65 66h21c0 -49 -36 -87 -84 -87c-67 0 -84 73 -142 73zM625 690h26v-690h-31l-497 655v-655h-26v690h32l496 -653v653z" />
    <glyph glyph-name="O" unicode="O" horiz-adv-x="831" 
d="M415 -12c-203 0 -357 154 -357 357s154 357 357 357c204 0 358 -154 358 -357s-154 -357 -358 -357zM415 13c189 0 331 143 331 332s-142 332 -331 332c-188 0 -330 -143 -330 -332s142 -332 330 -332z" />
    <glyph glyph-name="Oacute" unicode="&#xd3;" horiz-adv-x="831" 
d="M394 772l107 111h36l-115 -111h-28zM415 -12c-203 0 -357 154 -357 357s154 357 357 357c204 0 358 -154 358 -357s-154 -357 -358 -357zM415 13c189 0 331 143 331 332s-142 332 -331 332c-188 0 -330 -143 -330 -332s142 -332 330 -332z" />
    <glyph glyph-name="Obreve" unicode="&#x14e;" horiz-adv-x="831" 
d="M415 762c-62 0 -110 47 -110 109h21c0 -51 39 -90 89 -90c51 0 89 39 89 90h22c0 -62 -48 -109 -111 -109zM415 -12c-203 0 -357 154 -357 357s154 357 357 357c204 0 358 -154 358 -357s-154 -357 -358 -357zM415 13c189 0 331 143 331 332s-142 332 -331 332
c-188 0 -330 -143 -330 -332s142 -332 330 -332z" />
    <glyph glyph-name="Ocircumflex" unicode="&#xd4;" horiz-adv-x="831" 
d="M416 867l-93 -95h-25l102 111h32l101 -111h-25zM415 702c204 0 358 -154 358 -357s-154 -357 -358 -357c-203 0 -357 154 -357 357s154 357 357 357zM415 13c189 0 331 143 331 332s-142 332 -331 332c-188 0 -330 -143 -330 -332s142 -332 330 -332z" />
    <glyph glyph-name="uni020C" unicode="&#x20c;" horiz-adv-x="831" 
d="M323 772l-86 111h31l79 -111h-24zM487 772l-85 111h31l79 -111h-25zM415 -12c-203 0 -357 154 -357 357s154 357 357 357c204 0 358 -154 358 -357s-154 -357 -358 -357zM415 13c189 0 331 143 331 332s-142 332 -331 332c-188 0 -330 -143 -330 -332s142 -332 330 -332z
" />
    <glyph glyph-name="Odieresis" unicode="&#xd6;" horiz-adv-x="831" 
d="M319 786c-14 0 -25 11 -25 25c0 13 11 24 25 24c13 0 24 -11 24 -24c0 -14 -11 -25 -24 -25zM513 786c-14 0 -25 11 -25 25c0 13 11 24 25 24c13 0 24 -11 24 -24c0 -14 -11 -25 -24 -25zM415 -12c-203 0 -357 154 -357 357s154 357 357 357c204 0 358 -154 358 -357
s-154 -357 -358 -357zM415 13c189 0 331 143 331 332s-142 332 -331 332c-188 0 -330 -143 -330 -332s142 -332 330 -332z" />
    <glyph glyph-name="uni1ECC" unicode="&#x1ecc;" horiz-adv-x="831" 
d="M415 -12c-203 0 -357 154 -357 357s154 357 357 357c204 0 358 -154 358 -357s-154 -357 -358 -357zM415 13c189 0 331 143 331 332s-142 332 -331 332c-188 0 -330 -143 -330 -332s142 -332 330 -332zM416 -146c-14 0 -25 11 -25 25s11 25 25 25s25 -11 25 -25
s-11 -25 -25 -25z" />
    <glyph glyph-name="Ograve" unicode="&#xd2;" horiz-adv-x="831" 
d="M408 772l-115 111h36l107 -111h-28zM415 -12c-203 0 -357 154 -357 357s154 357 357 357c204 0 358 -154 358 -357s-154 -357 -358 -357zM415 13c189 0 331 143 331 332s-142 332 -331 332c-188 0 -330 -143 -330 -332s142 -332 330 -332z" />
    <glyph glyph-name="Ohungarumlaut" unicode="&#x150;" horiz-adv-x="831" 
d="M318 772l79 111h31l-85 -111h-25zM483 772l78 111h32l-86 -111h-24zM415 -12c-203 0 -357 154 -357 357s154 357 357 357c204 0 358 -154 358 -357s-154 -357 -358 -357zM415 13c189 0 331 143 331 332s-142 332 -331 332c-188 0 -330 -143 -330 -332s142 -332 330 -332z
" />
    <glyph glyph-name="uni020E" unicode="&#x20e;" horiz-adv-x="831" 
d="M305 762c0 62 48 110 110 110c63 0 111 -48 111 -110h-22c0 52 -38 90 -89 90c-50 0 -89 -38 -89 -90h-21zM415 -12c-203 0 -357 154 -357 357s154 357 357 357c204 0 358 -154 358 -357s-154 -357 -358 -357zM415 13c189 0 331 143 331 332s-142 332 -331 332
c-188 0 -330 -143 -330 -332s142 -332 330 -332z" />
    <glyph glyph-name="Omacron" unicode="&#x14c;" horiz-adv-x="831" 
d="M315 793v22h200v-22h-200zM415 -12c-203 0 -357 154 -357 357s154 357 357 357c204 0 358 -154 358 -357s-154 -357 -358 -357zM415 13c189 0 331 143 331 332s-142 332 -331 332c-188 0 -330 -143 -330 -332s142 -332 330 -332z" />
    <glyph glyph-name="uni01EA" unicode="&#x1ea;" horiz-adv-x="831" 
d="M513 0c-62 -28 -105 -70 -105 -116c0 -37 27 -64 62 -64c23 0 45 9 62 23v-23c-18 -12 -40 -20 -64 -20c-46 0 -82 36 -82 81s33 83 83 111c-18 -3 -36 -4 -54 -4c-203 0 -357 154 -357 357s154 357 357 357c204 0 358 -154 358 -357c0 -169 -107 -304 -260 -345zM85 345
c0 -189 142 -332 330 -332c189 0 331 143 331 332s-142 332 -331 332c-188 0 -330 -143 -330 -332z" />
    <glyph glyph-name="Oslash" unicode="&#xd8;" horiz-adv-x="831" 
d="M664 606c68 -65 109 -156 109 -261c0 -203 -154 -357 -358 -357c-90 0 -171 30 -232 82l-63 -70h-29l76 84c-68 64 -109 156 -109 261c0 203 154 357 357 357c91 0 171 -30 233 -82l63 70h29zM85 345c0 -97 37 -182 99 -241l447 497c-57 48 -132 76 -216 76
c-188 0 -330 -143 -330 -332zM415 13c189 0 331 143 331 332c0 97 -37 182 -99 241l-447 -497c57 -48 131 -76 215 -76z" />
    <glyph glyph-name="Oslashacute" unicode="&#x1fe;" horiz-adv-x="831" 
d="M539 883l-115 -111h-28l107 111h36zM664 606c68 -65 109 -156 109 -261c0 -203 -154 -357 -358 -357c-90 0 -171 30 -232 82l-63 -70h-29l76 84c-68 64 -109 156 -109 261c0 203 154 357 357 357c91 0 171 -30 233 -82l63 70h29zM85 345c0 -97 37 -182 99 -241l447 497
c-57 48 -132 76 -216 76c-188 0 -330 -143 -330 -332zM415 13c189 0 331 143 331 332c0 97 -37 182 -99 241l-447 -497c57 -48 131 -76 215 -76z" />
    <glyph glyph-name="Otilde" unicode="&#xd5;" horiz-adv-x="831" 
d="M487 779c-67 0 -84 73 -142 73c-36 0 -64 -28 -64 -66h-21c0 49 35 86 84 86c66 0 83 -72 141 -72c37 0 65 28 65 66h21c0 -49 -36 -87 -84 -87zM415 -12c-203 0 -357 154 -357 357s154 357 357 357c204 0 358 -154 358 -357s-154 -357 -358 -357zM415 13
c189 0 331 143 331 332s-142 332 -331 332c-188 0 -330 -143 -330 -332s142 -332 330 -332z" />
    <glyph glyph-name="OE" unicode="&#x152;" horiz-adv-x="933" 
d="M532 24h345v-24h-474c-197 0 -345 148 -345 345s148 345 345 345h469v-24h-340v-307h307v-24h-307v-311zM404 24h103v642h-103c-183 0 -319 -138 -319 -321s136 -321 319 -321z" />
    <glyph glyph-name="P" unicode="P" horiz-adv-x="542" 
d="M298 690c113 0 198 -85 198 -198s-85 -198 -198 -198h-175v-294h-26v690h201zM298 318c98 0 172 74 172 174s-74 174 -172 174h-175v-348h175z" />
    <glyph glyph-name="Thorn" unicode="&#xde;" horiz-adv-x="539" 
d="M298 545c113 0 198 -85 198 -198s-85 -198 -198 -198h-175v-149h-26v690h26v-145h175zM298 173c98 0 172 74 172 174s-74 174 -172 174h-175v-348h175z" />
    <glyph glyph-name="Q" unicode="Q" horiz-adv-x="831" 
d="M773 345c0 -141 -75 -259 -189 -317l76 -113h-29l-69 102c-44 -19 -94 -29 -147 -29c-203 0 -357 154 -357 357s154 357 357 357c204 0 358 -154 358 -357zM570 49c107 54 176 164 176 296c0 189 -142 332 -331 332c-188 0 -330 -143 -330 -332s142 -332 330 -332
c48 0 93 9 133 26l-90 134h29z" />
    <glyph glyph-name="R" unicode="R" horiz-adv-x="542" 
d="M462 0l-330 314h-9v-314h-26v690h200c108 0 189 -81 189 -188s-81 -188 -188 -188h-131l330 -314h-35zM123 666v-329h174c92 0 163 70 163 164c0 95 -71 165 -163 165h-174z" />
    <glyph glyph-name="Racute" unicode="&#x154;" horiz-adv-x="542" 
d="M398 883l-115 -111h-28l107 111h36zM462 0l-330 314h-9v-314h-26v690h200c108 0 189 -81 189 -188s-81 -188 -188 -188h-131l330 -314h-35zM123 666v-329h174c92 0 163 70 163 164c0 95 -71 165 -163 165h-174z" />
    <glyph glyph-name="Rcaron" unicode="&#x158;" horiz-adv-x="542" 
d="M292 772h-32l-102 111h25l93 -96l92 96h25zM462 0l-330 314h-9v-314h-26v690h200c108 0 189 -81 189 -188s-81 -188 -188 -188h-131l330 -314h-35zM123 666v-329h174c92 0 163 70 163 164c0 95 -71 165 -163 165h-174z" />
    <glyph glyph-name="uni0156" unicode="&#x156;" horiz-adv-x="542" 
d="M167 314l330 -314h-35l-330 314h-9v-314h-26v690h200c108 0 189 -81 189 -188s-81 -188 -188 -188h-131zM123 666v-329h174c92 0 163 70 163 164c0 95 -71 165 -163 165h-174zM254 -211l26 131h28l-34 -131h-20z" />
    <glyph glyph-name="uni0210" unicode="&#x210;" horiz-adv-x="542" 
d="M208 772h-24l-86 111h31zM373 772h-25l-85 111h31zM462 0l-330 314h-9v-314h-26v690h200c108 0 189 -81 189 -188s-81 -188 -188 -188h-131l330 -314h-35zM123 666v-329h174c92 0 163 70 163 164c0 95 -71 165 -163 165h-174z" />
    <glyph glyph-name="uni1E5A" unicode="&#x1e5a;" horiz-adv-x="542" 
d="M167 314l330 -314h-35l-330 314h-9v-314h-26v690h200c108 0 189 -81 189 -188s-81 -188 -188 -188h-131zM123 666v-329h174c92 0 163 70 163 164c0 95 -71 165 -163 165h-174zM286 -96c14 0 25 -11 25 -25s-11 -25 -25 -25s-25 11 -25 25s11 25 25 25z" />
    <glyph glyph-name="uni0212" unicode="&#x212;" horiz-adv-x="542" 
d="M276 852c-50 0 -89 -38 -89 -90h-21c0 62 48 110 110 110c63 0 111 -48 111 -110h-22c0 52 -38 90 -89 90zM462 0l-330 314h-9v-314h-26v690h200c108 0 189 -81 189 -188s-81 -188 -188 -188h-131l330 -314h-35zM123 666v-329h174c92 0 163 70 163 164
c0 95 -71 165 -163 165h-174z" />
    <glyph glyph-name="S" unicode="S" horiz-adv-x="515" 
d="M257 -12c-115 0 -204 84 -204 194h26c0 -97 78 -170 179 -170c100 0 177 67 177 156c0 87 -60 143 -182 172s-187 93 -187 188c0 99 82 174 191 174s192 -80 192 -186h-26c0 92 -72 162 -166 162c-93 0 -164 -64 -164 -149c0 -81 54 -137 169 -165
c130 -30 200 -95 200 -195c0 -103 -89 -181 -205 -181z" />
    <glyph glyph-name="Sacute" unicode="&#x15a;" horiz-adv-x="515" 
d="M236 772l107 111h36l-115 -111h-28zM257 -12c-115 0 -204 84 -204 194h26c0 -97 78 -170 179 -170c100 0 177 67 177 156c0 87 -60 143 -182 172s-187 93 -187 188c0 99 82 174 191 174s192 -80 192 -186h-26c0 92 -72 162 -166 162c-93 0 -164 -64 -164 -149
c0 -81 54 -137 169 -165c130 -30 200 -95 200 -195c0 -103 -89 -181 -205 -181z" />
    <glyph glyph-name="Scaron" unicode="&#x160;" horiz-adv-x="515" 
d="M274 772h-32l-102 111h25l93 -96l92 96h25zM262 364c130 -30 200 -95 200 -195c0 -103 -89 -181 -205 -181c-115 0 -204 84 -204 194h26c0 -97 78 -170 179 -170c100 0 177 67 177 156c0 87 -60 143 -182 172s-187 93 -187 188c0 99 82 174 191 174s192 -80 192 -186h-26
c0 92 -72 162 -166 162c-93 0 -164 -64 -164 -149c0 -81 54 -137 169 -165z" />
    <glyph glyph-name="Scedilla" unicode="&#x15e;" horiz-adv-x="515" 
d="M462 169c0 -101 -85 -178 -197 -181l-27 -34c8 3 18 5 27 5c44 0 77 -35 77 -80c0 -46 -35 -81 -82 -81c-46 0 -81 35 -81 81h20c0 -36 27 -63 61 -63c35 0 62 27 62 63c0 35 -27 62 -62 62c-14 0 -31 -7 -40 -16l-16 8l40 55c-109 6 -191 88 -191 194h26
c0 -97 78 -170 179 -170c100 0 177 67 177 156c0 87 -60 143 -182 172s-187 93 -187 188c0 99 82 174 191 174s192 -80 192 -186h-26c0 92 -72 162 -166 162c-93 0 -164 -64 -164 -149c0 -81 54 -137 169 -165c130 -30 200 -95 200 -195z" />
    <glyph glyph-name="Scircumflex" unicode="&#x15c;" horiz-adv-x="515" 
d="M258 867l-93 -95h-25l102 111h32l101 -111h-25zM262 364c130 -30 200 -95 200 -195c0 -103 -89 -181 -205 -181c-115 0 -204 84 -204 194h26c0 -97 78 -170 179 -170c100 0 177 67 177 156c0 87 -60 143 -182 172s-187 93 -187 188c0 99 82 174 191 174s192 -80 192 -186
h-26c0 92 -72 162 -166 162c-93 0 -164 -64 -164 -149c0 -81 54 -137 169 -165z" />
    <glyph glyph-name="uni0218" unicode="&#x218;" horiz-adv-x="515" 
d="M257 -12c-115 0 -204 84 -204 194h26c0 -97 78 -170 179 -170c100 0 177 67 177 156c0 87 -60 143 -182 172s-187 93 -187 188c0 99 82 174 191 174s192 -80 192 -186h-26c0 92 -72 162 -166 162c-93 0 -164 -64 -164 -149c0 -81 54 -137 169 -165
c130 -30 200 -95 200 -195c0 -103 -89 -181 -205 -181zM226 -211l26 131h28l-34 -131h-20z" />
    <glyph glyph-name="uni1E62" unicode="&#x1e62;" horiz-adv-x="515" 
d="M257 -12c-115 0 -204 84 -204 194h26c0 -97 78 -170 179 -170c100 0 177 67 177 156c0 87 -60 143 -182 172s-187 93 -187 188c0 99 82 174 191 174s192 -80 192 -186h-26c0 92 -72 162 -166 162c-93 0 -164 -64 -164 -149c0 -81 54 -137 169 -165
c130 -30 200 -95 200 -195c0 -103 -89 -181 -205 -181zM258 -146c-14 0 -25 11 -25 25s11 25 25 25s25 -11 25 -25s-11 -25 -25 -25z" />
    <glyph glyph-name="uni1E9E" unicode="&#x1e9e;" horiz-adv-x="593" 
d="M344 413c121 0 213 -91 213 -212c0 -122 -92 -213 -213 -213c-43 0 -92 17 -121 40v30c24 -25 75 -45 119 -45c108 0 188 81 188 188s-80 188 -187 188h-64v19l183 258h-256c-50 0 -87 -38 -87 -88v-578h-26v579c0 64 48 111 112 111h287v-21l-184 -256h36z" />
    <glyph glyph-name="T" unicode="T" horiz-adv-x="545" 
d="M511 690v-24h-226v-666h-25v666h-226v24h477z" />
    <glyph glyph-name="Tbar" unicode="&#x166;" horiz-adv-x="545" 
d="M511 666h-226v-313h122v-20h-122v-333h-25v333h-121v20h121v313h-226v24h477v-24z" />
    <glyph glyph-name="Tcaron" unicode="&#x164;" horiz-adv-x="545" 
d="M289 772h-32l-102 111h25l93 -96l92 96h25zM511 690v-24h-226v-666h-25v666h-226v24h477z" />
    <glyph glyph-name="uni0162" unicode="&#x162;" horiz-adv-x="545" 
d="M285 0h-2l-35 -45c8 3 18 5 27 5c44 0 77 -35 77 -80c0 -46 -35 -81 -82 -81c-46 0 -81 35 -81 81h20c0 -36 27 -63 61 -63c35 0 62 27 62 63c0 35 -27 62 -62 62c-14 0 -31 -7 -40 -16l-16 8l48 66h-2v666h-226v24h477v-24h-226v-666z" />
    <glyph glyph-name="uni021A" unicode="&#x21a;" horiz-adv-x="545" 
d="M34 690h477v-24h-226v-666h-25v666h-226v24zM241 -211l26 131h28l-34 -131h-20z" />
    <glyph glyph-name="uni1E6C" unicode="&#x1e6c;" horiz-adv-x="545" 
d="M34 690h477v-24h-226v-666h-25v666h-226v24zM273 -96c14 0 25 -11 25 -25s-11 -25 -25 -25s-25 11 -25 25s11 25 25 25z" />
    <glyph glyph-name="U" unicode="U" horiz-adv-x="702" 
d="M351 -12c-155 0 -273 117 -273 273v429h26v-429c0 -141 106 -248 247 -248c142 0 248 107 248 248v429h25v-429c0 -156 -117 -273 -273 -273z" />
    <glyph glyph-name="Uacute" unicode="&#xda;" horiz-adv-x="702" 
d="M330 772l107 111h36l-115 -111h-28zM351 -12c-155 0 -273 117 -273 273v429h26v-429c0 -141 106 -248 247 -248c142 0 248 107 248 248v429h25v-429c0 -156 -117 -273 -273 -273z" />
    <glyph glyph-name="Ubreve" unicode="&#x16c;" horiz-adv-x="702" 
d="M351 762c-62 0 -110 47 -110 109h21c0 -51 39 -90 89 -90c51 0 89 39 89 90h22c0 -62 -48 -109 -111 -109zM351 -12c-155 0 -273 117 -273 273v429h26v-429c0 -141 106 -248 247 -248c142 0 248 107 248 248v429h25v-429c0 -156 -117 -273 -273 -273z" />
    <glyph glyph-name="Ucircumflex" unicode="&#xdb;" horiz-adv-x="702" 
d="M352 867l-93 -95h-25l102 111h32l101 -111h-25zM599 690h25v-429c0 -156 -117 -273 -273 -273c-155 0 -273 117 -273 273v429h26v-429c0 -141 106 -248 247 -248c142 0 248 107 248 248v429z" />
    <glyph glyph-name="uni0214" unicode="&#x214;" horiz-adv-x="702" 
d="M259 772l-86 111h31l79 -111h-24zM423 772l-85 111h31l79 -111h-25zM351 -12c-155 0 -273 117 -273 273v429h26v-429c0 -141 106 -248 247 -248c142 0 248 107 248 248v429h25v-429c0 -156 -117 -273 -273 -273z" />
    <glyph glyph-name="Udieresis" unicode="&#xdc;" horiz-adv-x="702" 
d="M255 786c-14 0 -25 11 -25 25c0 13 11 24 25 24c13 0 24 -11 24 -24c0 -14 -11 -25 -24 -25zM449 786c-14 0 -25 11 -25 25c0 13 11 24 25 24c13 0 24 -11 24 -24c0 -14 -11 -25 -24 -25zM351 -12c-155 0 -273 117 -273 273v429h26v-429c0 -141 106 -248 247 -248
c142 0 248 107 248 248v429h25v-429c0 -156 -117 -273 -273 -273z" />
    <glyph glyph-name="uni1EE4" unicode="&#x1ee4;" horiz-adv-x="702" 
d="M351 -12c-155 0 -273 117 -273 273v429h26v-429c0 -141 106 -248 247 -248c142 0 248 107 248 248v429h25v-429c0 -156 -117 -273 -273 -273zM351 -146c-14 0 -25 11 -25 25s11 25 25 25s25 -11 25 -25s-11 -25 -25 -25z" />
    <glyph glyph-name="Ugrave" unicode="&#xd9;" horiz-adv-x="702" 
d="M344 772l-115 111h36l107 -111h-28zM351 -12c-155 0 -273 117 -273 273v429h26v-429c0 -141 106 -248 247 -248c142 0 248 107 248 248v429h25v-429c0 -156 -117 -273 -273 -273z" />
    <glyph glyph-name="Uhungarumlaut" unicode="&#x170;" horiz-adv-x="702" 
d="M254 772l79 111h31l-85 -111h-25zM419 772l78 111h32l-86 -111h-24zM351 -12c-155 0 -273 117 -273 273v429h26v-429c0 -141 106 -248 247 -248c142 0 248 107 248 248v429h25v-429c0 -156 -117 -273 -273 -273z" />
    <glyph glyph-name="uni0216" unicode="&#x216;" horiz-adv-x="702" 
d="M241 762c0 62 48 110 110 110c63 0 111 -48 111 -110h-22c0 52 -38 90 -89 90c-50 0 -89 -38 -89 -90h-21zM351 -12c-155 0 -273 117 -273 273v429h26v-429c0 -141 106 -248 247 -248c142 0 248 107 248 248v429h25v-429c0 -156 -117 -273 -273 -273z" />
    <glyph glyph-name="Umacron" unicode="&#x16a;" horiz-adv-x="702" 
d="M251 793v22h200v-22h-200zM351 -12c-155 0 -273 117 -273 273v429h26v-429c0 -141 106 -248 247 -248c142 0 248 107 248 248v429h25v-429c0 -156 -117 -273 -273 -273z" />
    <glyph glyph-name="Uogonek" unicode="&#x172;" horiz-adv-x="702" 
d="M599 690h25v-429c0 -126 -77 -227 -189 -261c-61 -28 -104 -70 -104 -116c0 -37 27 -64 62 -64c23 0 45 9 62 23v-23c-18 -12 -40 -20 -64 -20c-46 0 -82 36 -82 81c0 44 32 82 80 109c-12 -1 -25 -2 -38 -2c-155 0 -273 117 -273 273v429h26v-429
c0 -141 106 -248 247 -248c142 0 248 107 248 248v429z" />
    <glyph glyph-name="Uring" unicode="&#x16e;" horiz-adv-x="702" 
d="M351 756c-36 0 -65 28 -65 65s29 65 65 65c37 0 66 -28 66 -65s-29 -65 -66 -65zM351 773c27 0 47 21 47 48c0 28 -20 48 -47 48c-26 0 -46 -20 -46 -48c0 -27 20 -48 46 -48zM351 -12c-155 0 -273 117 -273 273v429h26v-429c0 -141 106 -248 247 -248
c142 0 248 107 248 248v429h25v-429c0 -156 -117 -273 -273 -273z" />
    <glyph glyph-name="Utilde" unicode="&#x168;" horiz-adv-x="702" 
d="M423 779c-67 0 -84 73 -142 73c-36 0 -64 -28 -64 -66h-21c0 49 35 86 84 86c66 0 83 -72 141 -72c37 0 65 28 65 66h21c0 -49 -36 -87 -84 -87zM351 -12c-155 0 -273 117 -273 273v429h26v-429c0 -141 106 -248 247 -248c142 0 248 107 248 248v429h25v-429
c0 -156 -117 -273 -273 -273z" />
    <glyph glyph-name="V" unicode="V" horiz-adv-x="701" 
d="M637 690h28l-299 -690h-31l-299 690h29l286 -661z" />
    <glyph glyph-name="W" unicode="W" horiz-adv-x="1135" 
d="M1067 690h28l-253 -690h-29l-245 656l-246 -656h-29l-253 690h29l239 -661l247 661h27l245 -659z" />
    <glyph glyph-name="Wacute" unicode="&#x1e82;" horiz-adv-x="1135" 
d="M690 883l-115 -111h-28l107 111h36zM1067 690h28l-253 -690h-29l-245 656l-246 -656h-29l-253 690h29l239 -661l247 661h27l245 -659z" />
    <glyph glyph-name="Wcircumflex" unicode="&#x174;" horiz-adv-x="1135" 
d="M568 867l-93 -95h-25l102 111h32l101 -111h-25zM1067 690h28l-253 -690h-29l-245 656l-246 -656h-29l-253 690h29l239 -661l247 661h27l245 -659z" />
    <glyph glyph-name="Wdieresis" unicode="&#x1e84;" horiz-adv-x="1135" 
d="M471 786c-14 0 -25 11 -25 25c0 13 11 24 25 24c13 0 24 -11 24 -24c0 -14 -11 -25 -24 -25zM665 786c-14 0 -25 11 -25 25c0 13 11 24 25 24c13 0 24 -11 24 -24c0 -14 -11 -25 -24 -25zM1067 690h28l-253 -690h-29l-245 656l-246 -656h-29l-253 690h29l239 -661
l247 661h27l245 -659z" />
    <glyph glyph-name="Wgrave" unicode="&#x1e80;" horiz-adv-x="1135" 
d="M589 772h-28l-115 111h36zM1067 690h28l-253 -690h-29l-245 656l-246 -656h-29l-253 690h29l239 -661l247 661h27l245 -659z" />
    <glyph glyph-name="X" unicode="X" horiz-adv-x="706" 
d="M664 0h-33l-278 329l-278 -329h-33l292 346l-288 344h33l275 -328l273 328h33l-288 -344z" />
    <glyph glyph-name="Y" unicode="Y" horiz-adv-x="677" 
d="M623 690h29l-301 -416v-274h-25v274l-301 416h31l283 -391z" />
    <glyph glyph-name="Yacute" unicode="&#xdd;" horiz-adv-x="677" 
d="M461 883l-115 -111h-28l107 111h36zM623 690h29l-301 -416v-274h-25v274l-301 416h31l283 -391z" />
    <glyph glyph-name="Ycircumflex" unicode="&#x176;" horiz-adv-x="677" 
d="M339 867l-93 -95h-25l102 111h32l101 -111h-25zM623 690h29l-301 -416v-274h-25v274l-301 416h31l283 -391z" />
    <glyph glyph-name="Ydieresis" unicode="&#x178;" horiz-adv-x="677" 
d="M242 786c-14 0 -25 11 -25 25c0 13 11 24 25 24c13 0 24 -11 24 -24c0 -14 -11 -25 -24 -25zM436 786c-14 0 -25 11 -25 25c0 13 11 24 25 24c13 0 24 -11 24 -24c0 -14 -11 -25 -24 -25zM623 690h29l-301 -416v-274h-25v274l-301 416h31l283 -391z" />
    <glyph glyph-name="Ygrave" unicode="&#x1ef2;" horiz-adv-x="677" 
d="M360 772h-28l-115 111h36zM623 690h29l-301 -416v-274h-25v274l-301 416h31l283 -391z" />
    <glyph glyph-name="uni0232" unicode="&#x232;" horiz-adv-x="677" 
d="M439 815v-22h-200v22h200zM623 690h29l-301 -416v-274h-25v274l-301 416h31l283 -391z" />
    <glyph glyph-name="uni1EF8" unicode="&#x1ef8;" horiz-adv-x="677" 
d="M269 852c-36 0 -64 -28 -64 -66h-21c0 49 35 86 84 86c66 0 83 -72 141 -72c37 0 65 28 65 66h21c0 -49 -36 -87 -84 -87c-67 0 -84 73 -142 73zM623 690h29l-301 -416v-274h-25v274l-301 416h31l283 -391z" />
    <glyph glyph-name="Z" unicode="Z" horiz-adv-x="614" 
d="M83 24h482v-24h-516v19l475 647h-471v24h505v-19z" />
    <glyph glyph-name="Zacute" unicode="&#x179;" horiz-adv-x="614" 
d="M428 883l-115 -111h-28l107 111h36zM83 24h482v-24h-516v19l475 647h-471v24h505v-19z" />
    <glyph glyph-name="Zcaron" unicode="&#x17d;" horiz-adv-x="614" 
d="M322 772h-32l-102 111h25l93 -96l92 96h25zM83 24h482v-24h-516v19l475 647h-471v24h505v-19z" />
    <glyph glyph-name="Zdotaccent" unicode="&#x17b;" horiz-adv-x="614" 
d="M306 786c-14 0 -25 11 -25 25s11 25 25 25s25 -11 25 -25s-11 -25 -25 -25zM83 24h482v-24h-516v19l475 647h-471v24h505v-19z" />
    <glyph glyph-name="uni1E92" unicode="&#x1e92;" horiz-adv-x="614" 
d="M83 24h482v-24h-516v19l475 647h-471v24h505v-19zM306 -96c14 0 25 -11 25 -25s-11 -25 -25 -25s-25 11 -25 25s11 25 25 25z" />
    <glyph glyph-name="K.ss02" horiz-adv-x="606" 
d="M550 0l-323 338l-104 -104v-234h-26v690h26v-420l421 420h34l-333 -334l340 -356h-35z" />
    <glyph glyph-name="uni0136.ss02" horiz-adv-x="606" 
d="M245 356l340 -356h-35l-323 338l-104 -104v-234h-26v690h26v-420l421 420h34zM288 -211l26 131h28l-34 -131h-20z" />
    <glyph glyph-name="M.ss02" horiz-adv-x="850" 
d="M718 690h35v-690h-26v657l-295 -482h-14l-295 482v-657h-26v690h36l293 -478z" />
    <glyph glyph-name="R.ss02" horiz-adv-x="543" 
d="M463 0l-237 314h-103v-314h-26v690h200c108 0 189 -81 189 -188s-81 -188 -188 -188h-41l238 -314h-32zM123 666v-329h174c92 0 163 70 163 164c0 95 -71 165 -163 165h-174z" />
    <glyph glyph-name="Racute.ss02" horiz-adv-x="543" 
d="M398 883l-115 -111h-28l107 111h36zM463 0l-237 314h-103v-314h-26v690h200c108 0 189 -81 189 -188s-81 -188 -188 -188h-41l238 -314h-32zM123 666v-329h174c92 0 163 70 163 164c0 95 -71 165 -163 165h-174z" />
    <glyph glyph-name="Rcaron.ss02" horiz-adv-x="543" 
d="M292 772h-32l-102 111h25l93 -96l92 96h25zM463 0l-237 314h-103v-314h-26v690h200c108 0 189 -81 189 -188s-81 -188 -188 -188h-41l238 -314h-32zM123 666v-329h174c92 0 163 70 163 164c0 95 -71 165 -163 165h-174z" />
    <glyph glyph-name="uni0156.ss02" horiz-adv-x="543" 
d="M257 314l238 -314h-32l-237 314h-103v-314h-26v690h200c108 0 189 -81 189 -188s-81 -188 -188 -188h-41zM123 666v-329h174c92 0 163 70 163 164c0 95 -71 165 -163 165h-174zM254 -211l26 131h28l-34 -131h-20z" />
    <glyph glyph-name="uni0210.ss02" horiz-adv-x="543" 
d="M208 772h-24l-86 111h31zM373 772h-25l-85 111h31zM463 0l-237 314h-103v-314h-26v690h200c108 0 189 -81 189 -188s-81 -188 -188 -188h-41l238 -314h-32zM123 666v-329h174c92 0 163 70 163 164c0 95 -71 165 -163 165h-174z" />
    <glyph glyph-name="uni1E5A.ss02" horiz-adv-x="543" 
d="M257 314l238 -314h-32l-237 314h-103v-314h-26v690h200c108 0 189 -81 189 -188s-81 -188 -188 -188h-41zM123 666v-329h174c92 0 163 70 163 164c0 95 -71 165 -163 165h-174zM286 -96c14 0 25 -11 25 -25s-11 -25 -25 -25s-25 11 -25 25s11 25 25 25z" />
    <glyph glyph-name="uni0212.ss02" horiz-adv-x="543" 
d="M276 852c-50 0 -89 -38 -89 -90h-21c0 62 48 110 110 110c63 0 111 -48 111 -110h-22c0 52 -38 90 -89 90zM463 0l-237 314h-103v-314h-26v690h200c108 0 189 -81 189 -188s-81 -188 -188 -188h-41l238 -314h-32zM123 666v-329h174c92 0 163 70 163 164
c0 95 -71 165 -163 165h-174z" />
    <glyph glyph-name="G.ss03" horiz-adv-x="847" 
d="M435 339h337v-339h-24v226c-47 -148 -173 -238 -333 -238c-203 0 -357 154 -357 357s154 357 357 357c162 0 293 -97 339 -238h-28c-45 127 -164 213 -311 213c-188 0 -330 -143 -330 -332s142 -332 330 -332c179 0 316 127 330 302h-310v24z" />
    <glyph glyph-name="uni01F4.ss03" horiz-adv-x="847" 
d="M537 883l-115 -111h-28l107 111h36zM435 339h337v-339h-24v226c-47 -148 -173 -238 -333 -238c-203 0 -357 154 -357 357s154 357 357 357c162 0 293 -97 339 -238h-28c-45 127 -164 213 -311 213c-188 0 -330 -143 -330 -332s142 -332 330 -332c179 0 316 127 330 302
h-310v24z" />
    <glyph glyph-name="Gbreve.ss03" horiz-adv-x="847" 
d="M415 762c-62 0 -110 47 -110 109h21c0 -51 39 -90 89 -90c51 0 89 39 89 90h22c0 -62 -48 -109 -111 -109zM435 339h337v-339h-24v226c-47 -148 -173 -238 -333 -238c-203 0 -357 154 -357 357s154 357 357 357c162 0 293 -97 339 -238h-28c-45 127 -164 213 -311 213
c-188 0 -330 -143 -330 -332s142 -332 330 -332c179 0 316 127 330 302h-310v24z" />
    <glyph glyph-name="Gcaron.ss03" horiz-adv-x="847" 
d="M432 772h-32l-102 111h25l93 -96l92 96h25zM435 339h337v-339h-24v226c-47 -148 -173 -238 -333 -238c-203 0 -357 154 -357 357s154 357 357 357c162 0 293 -97 339 -238h-28c-45 127 -164 213 -311 213c-188 0 -330 -143 -330 -332s142 -332 330 -332
c179 0 316 127 330 302h-310v24z" />
    <glyph glyph-name="Gcircumflex.ss03" horiz-adv-x="847" 
d="M416 867l-93 -95h-25l102 111h32l101 -111h-25zM435 339h337v-339h-24v226c-47 -148 -173 -238 -333 -238c-203 0 -357 154 -357 357s154 357 357 357c162 0 293 -97 339 -238h-28c-45 127 -164 213 -311 213c-188 0 -330 -143 -330 -332s142 -332 330 -332
c179 0 316 127 330 302h-310v24z" />
    <glyph glyph-name="uni0122.ss03" horiz-adv-x="847" 
d="M435 339h337v-339h-24v226c-47 -148 -173 -238 -333 -238c-203 0 -357 154 -357 357s154 357 357 357c162 0 293 -97 339 -238h-28c-45 127 -164 213 -311 213c-188 0 -330 -143 -330 -332s142 -332 330 -332c179 0 316 127 330 302h-310v24zM384 -211l26 131h28
l-34 -131h-20z" />
    <glyph glyph-name="Gdotaccent.ss03" horiz-adv-x="847" 
d="M416 786c-14 0 -25 11 -25 25s11 25 25 25s25 -11 25 -25s-11 -25 -25 -25zM435 339h337v-339h-24v226c-47 -148 -173 -238 -333 -238c-203 0 -357 154 -357 357s154 357 357 357c162 0 293 -97 339 -238h-28c-45 127 -164 213 -311 213c-188 0 -330 -143 -330 -332
s142 -332 330 -332c179 0 316 127 330 302h-310v24z" />
    <glyph glyph-name="J.ss04" horiz-adv-x="533" 
d="M455 690v-498c0 -116 -88 -204 -205 -204s-205 88 -205 204h27c0 -102 77 -179 178 -179c103 0 180 77 180 179v474h-240v24h265z" />
    <glyph glyph-name="Jcircumflex.ss04" horiz-adv-x="533" 
d="M321 867l-93 -95h-25l102 111h32l101 -111h-25zM455 690v-498c0 -116 -88 -204 -205 -204s-205 88 -205 204h27c0 -102 77 -179 178 -179c103 0 180 77 180 179v474h-240v24h265z" />
    <glyph glyph-name="B.ss05" horiz-adv-x="548" 
d="M355 366c91 -14 153 -87 153 -181c0 -105 -79 -185 -185 -185h-226v690h192c97 0 169 -72 169 -169c0 -73 -46 -133 -103 -155zM320 24c92 0 161 70 161 163c0 92 -69 162 -161 162h-149v23h115c79 0 145 63 145 147s-62 147 -145 147h-163v-642h197z" />
    <glyph glyph-name="P.ss05" horiz-adv-x="542" 
d="M298 690c113 0 198 -85 198 -198s-85 -198 -198 -198h-126v24h126c98 0 172 74 172 174s-74 174 -172 174h-175v-666h-26v690h201z" />
    <glyph glyph-name="R.ss05" horiz-adv-x="542" 
d="M213 315l284 -315h-33l-296 326v11h129c92 0 163 70 163 164c0 95 -71 165 -163 165h-174v-666h-26v690h200c108 0 189 -81 189 -188c0 -104 -77 -183 -179 -186z" />
    <glyph glyph-name="Racute.ss05" horiz-adv-x="542" 
d="M398 883l-115 -111h-28l107 111h36zM213 315l284 -315h-33l-296 326v11h129c92 0 163 70 163 164c0 95 -71 165 -163 165h-174v-666h-26v690h200c108 0 189 -81 189 -188c0 -104 -77 -183 -179 -186z" />
    <glyph glyph-name="Rcaron.ss05" horiz-adv-x="542" 
d="M292 772h-32l-102 111h25l93 -96l92 96h25zM213 315l284 -315h-33l-296 326v11h129c92 0 163 70 163 164c0 95 -71 165 -163 165h-174v-666h-26v690h200c108 0 189 -81 189 -188c0 -104 -77 -183 -179 -186z" />
    <glyph glyph-name="uni0156.ss05" horiz-adv-x="542" 
d="M213 315l284 -315h-33l-296 326v11h129c92 0 163 70 163 164c0 95 -71 165 -163 165h-174v-666h-26v690h200c108 0 189 -81 189 -188c0 -104 -77 -183 -179 -186zM254 -211l26 131h28l-34 -131h-20z" />
    <glyph glyph-name="uni0210.ss05" horiz-adv-x="542" 
d="M208 772h-24l-86 111h31zM373 772h-25l-85 111h31zM213 315l284 -315h-33l-296 326v11h129c92 0 163 70 163 164c0 95 -71 165 -163 165h-174v-666h-26v690h200c108 0 189 -81 189 -188c0 -104 -77 -183 -179 -186z" />
    <glyph glyph-name="uni1E5A.ss05" horiz-adv-x="542" 
d="M213 315l284 -315h-33l-296 326v11h129c92 0 163 70 163 164c0 95 -71 165 -163 165h-174v-666h-26v690h200c108 0 189 -81 189 -188c0 -104 -77 -183 -179 -186zM286 -96c14 0 25 -11 25 -25s-11 -25 -25 -25s-25 11 -25 25s11 25 25 25z" />
    <glyph glyph-name="uni0212.ss05" horiz-adv-x="542" 
d="M276 852c-50 0 -89 -38 -89 -90h-21c0 62 48 110 110 110c63 0 111 -48 111 -110h-22c0 52 -38 90 -89 90zM213 315l284 -315h-33l-296 326v11h129c92 0 163 70 163 164c0 95 -71 165 -163 165h-174v-666h-26v690h200c108 0 189 -81 189 -188c0 -104 -77 -183 -179 -186z
" />
    <glyph glyph-name="A.ss06" unicode="&#xe000;" horiz-adv-x="707" 
d="M687 -34c51 -117 139 -167 298 -167v-25c-171 0 -271 59 -328 192l-109 249h-391l-94 -215h-28l302 690h33zM168 239h370l-185 423z" />
    <glyph glyph-name="H.ss06" unicode="&#xe001;" horiz-adv-x="742" 
d="M645 -15c0 -115 86 -201 200 -201v-25c-129 0 -226 97 -226 226v350h-496v-335h-26v690h26v-331h496v331h26v-705z" />
    <glyph glyph-name="K.ss06" unicode="&#xe002;" horiz-adv-x="585" 
d="M591 -20c177 -144 261 -181 404 -181v-25c-153 0 -245 42 -442 206l-430 354v-334h-26v690h26v-327l400 327h37l-415 -341z" />
    <glyph glyph-name="M.ss06" unicode="&#xe003;" horiz-adv-x="889" 
d="M792 -15c0 -115 86 -201 200 -201v-25c-129 0 -226 97 -226 226v667l-308 -652h-27l-308 652v-652h-26v690h38l310 -659l310 659h37v-705z" />
    <glyph glyph-name="R.ss06" unicode="&#xe004;" horiz-adv-x="542" 
d="M527 -28c147 -138 228 -172 387 -172v-25c-167 0 -258 37 -422 197l-360 342h-9v-314h-26v690h200c108 0 189 -81 189 -188s-81 -188 -188 -188h-131zM123 666v-329h174c92 0 163 70 163 164c0 95 -71 165 -163 165h-174z" />
    <glyph glyph-name="H.ss07" unicode="&#xe005;" horiz-adv-x="742" 
d="M823 906c116 0 204 -87 204 -204h-27c0 102 -76 179 -177 179c-102 0 -178 -77 -178 -179v-702h-26v335h-496v-335h-26v690h26v-331h496v343c0 117 87 204 204 204z" />
    <glyph glyph-name="N.ss07" unicode="&#xe006;" horiz-adv-x="748" 
d="M829 906c117 0 204 -87 204 -204h-27c0 102 -76 179 -177 179c-102 0 -178 -77 -178 -179v-702h-31l-497 655v-655h-26v690h32l496 -653v665c0 117 88 204 204 204z" />
    <glyph glyph-name="U.ss07" unicode="&#xe007;" horiz-adv-x="702" 
d="M351 -12c-155 0 -273 117 -273 273v429h26v-429c0 -141 106 -248 247 -248c142 0 248 107 248 248v441c0 117 87 204 204 204c116 0 203 -87 203 -204h-26c0 102 -76 179 -177 179c-102 0 -179 -77 -179 -179v-441c0 -156 -117 -273 -273 -273z" />
    <glyph glyph-name="A.swsh" unicode="&#xe008;" horiz-adv-x="707" 
d="M643 0l-94 215h-392l-94 -215h-28l291 666h-360c-113 0 -199 -85 -199 -199s86 -199 199 -199v-24c-128 0 -224 95 -224 223c0 127 96 223 224 223h404l302 -690h-29zM168 239h370l-185 423z" />
    <glyph glyph-name="B.swsh" unicode="&#xe009;" horiz-adv-x="548" 
d="M355 366c91 -14 153 -87 153 -181c0 -105 -79 -185 -185 -185h-226v666h-210c-113 0 -199 -85 -199 -199s86 -199 199 -199v-24c-128 0 -224 95 -224 223c0 127 96 223 224 223h402c97 0 169 -72 169 -169c0 -73 -46 -133 -103 -155zM286 666h-163v-294h163
c79 0 145 63 145 147s-62 147 -145 147zM320 24c92 0 161 70 161 163c0 92 -69 162 -161 162h-197v-325h197z" />
    <glyph glyph-name="D.swsh" unicode="&#xe00a;" horiz-adv-x="761" 
d="M357 690c198 0 346 -148 346 -345s-148 -345 -346 -345h-260v666h-210c-113 0 -199 -85 -199 -199s86 -199 199 -199v-24c-128 0 -224 95 -224 223c0 127 96 223 224 223h470zM357 24c182 0 319 138 319 321s-137 321 -319 321h-234v-642h234z" />
    <glyph glyph-name="E.swsh" unicode="&#xe00b;" horiz-adv-x="523" 
d="M123 24h345v-24h-371v666h-210c-113 0 -199 -85 -199 -199s86 -199 199 -199v-24c-128 0 -224 95 -224 223c0 127 96 223 224 223h576v-24h-340v-307h306v-24h-306v-311z" />
    <glyph glyph-name="F.swsh" unicode="&#xe00c;" horiz-adv-x="494" 
d="M448 666h-325v-312h281v-24h-281v-330h-26v666h-210c-113 0 -199 -85 -199 -199s86 -199 199 -199v-24c-128 0 -224 95 -224 223c0 127 96 223 224 223h561v-24z" />
    <glyph glyph-name="H.swsh" unicode="&#xe00d;" horiz-adv-x="742" 
d="M619 690h26v-690h-26v335h-496v-335h-26v666h-210c-113 0 -199 -85 -199 -199s86 -199 199 -199v-24c-128 0 -224 95 -224 223c0 127 96 223 224 223h236v-331h496v331z" />
    <glyph glyph-name="I.swsh" unicode="&#xe00e;" horiz-adv-x="220" 
d="M123 690v-690h-26v666h-210c-113 0 -199 -85 -199 -199s86 -199 199 -199v-24c-128 0 -224 95 -224 223c0 127 96 223 224 223h236z" />
    <glyph glyph-name="K.swsh" unicode="&#xe00f;" horiz-adv-x="585" 
d="M567 0h-38l-406 334v-334h-26v666h-210c-113 0 -199 -85 -199 -199s86 -199 199 -199v-24c-128 0 -224 95 -224 223c0 127 96 223 224 223h236v-327l400 327h37l-415 -341z" />
    <glyph glyph-name="L.swsh" unicode="&#xe010;" horiz-adv-x="477" 
d="M123 24h315v-24h-341v666h-210c-113 0 -199 -85 -199 -199s86 -199 199 -199v-24c-128 0 -224 95 -224 223c0 127 96 223 224 223h236v-666z" />
    <glyph glyph-name="M.swsh" unicode="&#xe011;" horiz-adv-x="889" 
d="M755 690h37v-690h-26v652l-308 -652h-27l-308 652v-652h-26v666h-210c-113 0 -199 -85 -199 -199s86 -199 199 -199v-24c-128 0 -224 95 -224 223c0 127 96 223 224 223h248l310 -659z" />
    <glyph glyph-name="N.swsh" unicode="&#xe012;" horiz-adv-x="748" 
d="M625 690h26v-690h-31l-497 655v-655h-26v666h-210c-113 0 -199 -85 -199 -199s86 -199 199 -199v-24c-128 0 -224 95 -224 223c0 127 96 223 224 223h242l496 -653v653z" />
    <glyph glyph-name="P.swsh" unicode="&#xe013;" horiz-adv-x="542" 
d="M298 690c113 0 198 -85 198 -198s-85 -198 -198 -198h-175v-294h-26v666h-210c-113 0 -199 -85 -199 -199s86 -199 199 -199v-24c-128 0 -224 95 -224 223c0 127 96 223 224 223h411zM298 318c98 0 172 74 172 174s-74 174 -172 174h-175v-348h175z" />
    <glyph glyph-name="R.swsh" unicode="&#xe014;" horiz-adv-x="542" 
d="M462 0l-330 314h-9v-314h-26v666h-210c-113 0 -199 -85 -199 -199s86 -199 199 -199v-24c-128 0 -224 95 -224 223c0 127 96 223 224 223h410c108 0 189 -81 189 -188s-81 -188 -188 -188h-131l330 -314h-35zM123 666v-329h174c92 0 163 70 163 164
c0 95 -71 165 -163 165h-174z" />
    <glyph glyph-name="T.swsh" unicode="&#xe015;" horiz-adv-x="545" 
d="M511 690v-24h-226v-666h-25v666h-316c-113 0 -199 -85 -199 -199s86 -199 199 -199v-24c-128 0 -224 95 -224 223c0 127 96 223 224 223h567z" />
    <glyph glyph-name="U.swsh" unicode="&#xe016;" horiz-adv-x="702" 
d="M599 690h25v-429c0 -156 -117 -273 -273 -273c-155 0 -273 117 -273 273v405h-209c-113 0 -199 -85 -199 -199s86 -199 199 -199v-24c-128 0 -224 95 -224 223c0 127 96 223 224 223h235v-429c0 -141 106 -248 247 -248c142 0 248 107 248 248v429z" />
    <glyph glyph-name="V.swsh" unicode="&#xe017;" horiz-adv-x="701" 
d="M637 690h28l-299 -690h-31l-289 666h-114c-113 0 -199 -85 -199 -199s86 -199 199 -199v-24c-128 0 -224 95 -224 223c0 127 96 223 224 223h133l286 -661z" />
    <glyph glyph-name="W.swsh" unicode="&#xe018;" horiz-adv-x="1135" 
d="M1067 690h28l-253 -690h-29l-245 656l-246 -656h-29l-244 666h-112c-113 0 -199 -85 -199 -199s86 -199 199 -199v-24c-128 0 -224 95 -224 223c0 127 96 223 224 223h132l239 -661l247 661h27l245 -659z" />
    <glyph glyph-name="Y.swsh" unicode="&#xe019;" horiz-adv-x="677" 
d="M623 690h29l-301 -416v-274h-25v274l-284 392h-119c-113 0 -199 -85 -199 -199s86 -199 199 -199v-24c-128 0 -224 95 -224 223c0 127 96 223 224 223h133l283 -391z" />
    <glyph glyph-name="a" unicode="a" 
d="M563 510h24v-510h-24v159c-36 -102 -129 -171 -245 -171c-152 0 -265 115 -265 267s113 267 265 267c116 0 209 -69 245 -171v159zM321 12c138 0 242 104 242 243s-104 243 -242 243c-139 0 -243 -104 -243 -243s104 -243 243 -243z" />
    <glyph glyph-name="aacute" unicode="&#xe1;" 
d="M460 703l-115 -111h-28l107 111h36zM563 510h24v-510h-24v159c-36 -102 -129 -171 -245 -171c-152 0 -265 115 -265 267s113 267 265 267c116 0 209 -69 245 -171v159zM321 12c138 0 242 104 242 243s-104 243 -242 243c-139 0 -243 -104 -243 -243s104 -243 243 -243z
" />
    <glyph glyph-name="abreve" unicode="&#x103;" 
d="M337 582c-62 0 -110 47 -110 109h21c0 -51 39 -90 89 -90c51 0 89 39 89 90h22c0 -62 -48 -109 -111 -109zM563 510h24v-510h-24v159c-36 -102 -129 -171 -245 -171c-152 0 -265 115 -265 267s113 267 265 267c116 0 209 -69 245 -171v159zM321 12c138 0 242 104 242 243
s-104 243 -242 243c-139 0 -243 -104 -243 -243s104 -243 243 -243z" />
    <glyph glyph-name="uni01CE" unicode="&#x1ce;" 
d="M354 592h-32l-102 111h25l93 -96l92 96h25zM563 510h24v-510h-24v159c-36 -102 -129 -171 -245 -171c-152 0 -265 115 -265 267s113 267 265 267c116 0 209 -69 245 -171v159zM321 12c138 0 242 104 242 243s-104 243 -242 243c-139 0 -243 -104 -243 -243
s104 -243 243 -243z" />
    <glyph glyph-name="acircumflex" unicode="&#xe2;" 
d="M338 687l-93 -95h-25l102 111h32l101 -111h-25zM563 510h24v-510h-24v159c-36 -102 -129 -171 -245 -171c-152 0 -265 115 -265 267s113 267 265 267c116 0 209 -69 245 -171v159zM321 12c138 0 242 104 242 243s-104 243 -242 243c-139 0 -243 -104 -243 -243
s104 -243 243 -243z" />
    <glyph glyph-name="uni0201" unicode="&#x201;" 
d="M269 592h-24l-86 111h31zM434 592h-25l-85 111h31zM563 510h24v-510h-24v159c-36 -102 -129 -171 -245 -171c-152 0 -265 115 -265 267s113 267 265 267c116 0 209 -69 245 -171v159zM321 12c138 0 242 104 242 243s-104 243 -242 243c-139 0 -243 -104 -243 -243
s104 -243 243 -243z" />
    <glyph glyph-name="adieresis" unicode="&#xe4;" 
d="M241 606c-14 0 -25 11 -25 25c0 13 11 24 25 24c13 0 24 -11 24 -24c0 -14 -11 -25 -24 -25zM435 606c-14 0 -25 11 -25 25c0 13 11 24 25 24c13 0 24 -11 24 -24c0 -14 -11 -25 -24 -25zM563 510h24v-510h-24v159c-36 -102 -129 -171 -245 -171
c-152 0 -265 115 -265 267s113 267 265 267c116 0 209 -69 245 -171v159zM321 12c138 0 242 104 242 243s-104 243 -242 243c-139 0 -243 -104 -243 -243s104 -243 243 -243z" />
    <glyph glyph-name="uni1EA1" unicode="&#x1ea1;" 
d="M563 510h24v-510h-24v159c-36 -102 -129 -171 -245 -171c-152 0 -265 115 -265 267s113 267 265 267c116 0 209 -69 245 -171v159zM321 12c138 0 242 104 242 243s-104 243 -242 243c-139 0 -243 -104 -243 -243s104 -243 243 -243zM338 -96c14 0 25 -11 25 -25
s-11 -25 -25 -25s-25 11 -25 25s11 25 25 25z" />
    <glyph glyph-name="agrave" unicode="&#xe0;" 
d="M358 592h-28l-115 111h36zM563 510h24v-510h-24v159c-36 -102 -129 -171 -245 -171c-152 0 -265 115 -265 267s113 267 265 267c116 0 209 -69 245 -171v159zM321 12c138 0 242 104 242 243s-104 243 -242 243c-139 0 -243 -104 -243 -243s104 -243 243 -243z" />
    <glyph glyph-name="uni0203" unicode="&#x203;" 
d="M337 672c-50 0 -89 -38 -89 -90h-21c0 62 48 110 110 110c63 0 111 -48 111 -110h-22c0 52 -38 90 -89 90zM563 510h24v-510h-24v159c-36 -102 -129 -171 -245 -171c-152 0 -265 115 -265 267s113 267 265 267c116 0 209 -69 245 -171v159zM321 12c138 0 242 104 242 243
s-104 243 -242 243c-139 0 -243 -104 -243 -243s104 -243 243 -243z" />
    <glyph glyph-name="amacron" unicode="&#x101;" 
d="M438 635v-22h-200v22h200zM563 510h24v-510h-24v159c-36 -102 -129 -171 -245 -171c-152 0 -265 115 -265 267s113 267 265 267c116 0 209 -69 245 -171v159zM321 12c138 0 242 104 242 243s-104 243 -242 243c-139 0 -243 -104 -243 -243s104 -243 243 -243z" />
    <glyph glyph-name="aogonek" unicode="&#x105;" 
d="M543 -181c23 0 45 9 62 23v-23c-18 -12 -40 -20 -64 -20c-46 0 -82 36 -82 81c0 51 43 94 104 121v158c-36 -102 -129 -171 -245 -171c-152 0 -265 115 -265 267s113 267 265 267c116 0 209 -69 245 -171v159h24v-510c-62 -28 -106 -71 -106 -117c0 -37 27 -64 62 -64z
M321 12c138 0 242 104 242 243s-104 243 -242 243c-139 0 -243 -104 -243 -243s104 -243 243 -243z" />
    <glyph glyph-name="aring" unicode="&#xe5;" 
d="M337 576c-36 0 -65 28 -65 65s29 65 65 65c37 0 66 -28 66 -65s-29 -65 -66 -65zM337 689c-26 0 -46 -20 -46 -48c0 -27 20 -48 46 -48c27 0 47 21 47 48c0 28 -20 48 -47 48zM563 510h24v-510h-24v159c-36 -102 -129 -171 -245 -171c-152 0 -265 115 -265 267
s113 267 265 267c116 0 209 -69 245 -171v159zM321 12c138 0 242 104 242 243s-104 243 -242 243c-139 0 -243 -104 -243 -243s104 -243 243 -243z" />
    <glyph glyph-name="atilde" unicode="&#xe3;" 
d="M267 672c-36 0 -64 -28 -64 -66h-21c0 49 35 86 84 86c66 0 83 -72 141 -72c37 0 65 28 65 66h21c0 -49 -36 -87 -84 -87c-67 0 -84 73 -142 73zM563 510h24v-510h-24v159c-36 -102 -129 -171 -245 -171c-152 0 -265 115 -265 267s113 267 265 267
c116 0 209 -69 245 -171v159zM321 12c138 0 242 104 242 243s-104 243 -242 243c-139 0 -243 -104 -243 -243s104 -243 243 -243z" />
    <glyph glyph-name="ae" unicode="&#xe6;" horiz-adv-x="1010" 
d="M960 255c0 -3 0 -7 -1 -10h-510c5 -134 107 -234 243 -234c109 0 198 65 230 160h26c-34 -109 -133 -183 -256 -183c-102 0 -187 52 -232 131c-31 -77 -110 -131 -210 -131c-112 0 -195 74 -195 173s84 172 194 172c78 0 142 -32 176 -78v1v78c0 100 -66 165 -166 165
c-90 0 -152 -52 -163 -131h-25c13 93 85 154 188 154c104 0 176 -61 188 -157c41 94 133 157 245 157c153 0 268 -115 268 -267zM692 499c-135 0 -237 -99 -243 -232h486c-2 133 -108 232 -243 232zM253 11c97 0 173 57 193 136c-8 20 -15 42 -18 66c-20 55 -90 98 -175 98
c-98 0 -173 -64 -173 -150s75 -150 173 -150z" />
    <glyph glyph-name="aeacute" unicode="&#x1fd;" horiz-adv-x="1010" 
d="M600 703l-115 -111h-28l107 111h36zM960 255c0 -3 0 -7 -1 -10h-510c5 -134 107 -234 243 -234c109 0 198 65 230 160h26c-34 -109 -133 -183 -256 -183c-102 0 -187 52 -232 131c-31 -77 -110 -131 -210 -131c-112 0 -195 74 -195 173s84 172 194 172
c78 0 142 -32 176 -78v1v78c0 100 -66 165 -166 165c-90 0 -152 -52 -163 -131h-25c13 93 85 154 188 154c104 0 176 -61 188 -157c41 94 133 157 245 157c153 0 268 -115 268 -267zM692 499c-135 0 -237 -99 -243 -232h486c-2 133 -108 232 -243 232zM253 11
c97 0 173 57 193 136c-8 20 -15 42 -18 66c-20 55 -90 98 -175 98c-98 0 -173 -64 -173 -150s75 -150 173 -150z" />
    <glyph glyph-name="b" unicode="b" 
d="M357 522c151 0 265 -115 265 -267s-114 -267 -265 -267c-115 0 -208 68 -245 169v-157h-24v720h24v-367c37 101 130 169 245 169zM354 12c138 0 242 104 242 243s-104 243 -242 243c-139 0 -242 -104 -242 -243s103 -243 242 -243z" />
    <glyph glyph-name="c" unicode="c" horiz-adv-x="632" 
d="M321 -12c-153 0 -268 115 -268 267s115 267 268 267c132 0 236 -87 261 -209h-25c-25 109 -118 185 -236 185c-139 0 -243 -104 -243 -243s104 -243 243 -243c118 0 211 76 236 185h25c-25 -122 -129 -209 -261 -209z" />
    <glyph glyph-name="cacute" unicode="&#x107;" horiz-adv-x="632" 
d="M299 592l107 111h36l-115 -111h-28zM321 -12c-153 0 -268 115 -268 267s115 267 268 267c132 0 236 -87 261 -209h-25c-25 109 -118 185 -236 185c-139 0 -243 -104 -243 -243s104 -243 243 -243c118 0 211 76 236 185h25c-25 -122 -129 -209 -261 -209z" />
    <glyph glyph-name="ccaron" unicode="&#x10d;" horiz-adv-x="632" 
d="M337 592h-32l-102 111h25l93 -96l92 96h25zM321 12c118 0 211 76 236 185h25c-25 -122 -129 -209 -261 -209c-153 0 -268 115 -268 267s115 267 268 267c132 0 236 -87 261 -209h-25c-25 109 -118 185 -236 185c-139 0 -243 -104 -243 -243s104 -243 243 -243z" />
    <glyph glyph-name="ccedilla" unicode="&#xe7;" horiz-adv-x="632" 
d="M321 12c118 0 211 76 236 185h25c-25 -120 -126 -206 -254 -209l-27 -34c8 3 18 5 27 5c44 0 77 -35 77 -80c0 -46 -35 -81 -82 -81c-46 0 -81 35 -81 81h20c0 -36 27 -63 61 -63c35 0 62 27 62 63c0 35 -27 62 -62 62c-14 0 -31 -7 -40 -16l-16 8l40 55
c-146 7 -254 120 -254 267c0 152 115 267 268 267c132 0 236 -87 261 -209h-25c-25 109 -118 185 -236 185c-139 0 -243 -104 -243 -243s104 -243 243 -243z" />
    <glyph glyph-name="ccircumflex" unicode="&#x109;" horiz-adv-x="632" 
d="M321 687l-93 -95h-25l102 111h32l101 -111h-25zM321 12c118 0 211 76 236 185h25c-25 -122 -129 -209 -261 -209c-153 0 -268 115 -268 267s115 267 268 267c132 0 236 -87 261 -209h-25c-25 109 -118 185 -236 185c-139 0 -243 -104 -243 -243s104 -243 243 -243z" />
    <glyph glyph-name="cdotaccent" unicode="&#x10b;" horiz-adv-x="632" 
d="M321 606c-14 0 -25 11 -25 25s11 25 25 25s25 -11 25 -25s-11 -25 -25 -25zM321 -12c-153 0 -268 115 -268 267s115 267 268 267c132 0 236 -87 261 -209h-25c-25 109 -118 185 -236 185c-139 0 -243 -104 -243 -243s104 -243 243 -243c118 0 211 76 236 185h25
c-25 -122 -129 -209 -261 -209z" />
    <glyph glyph-name="d" unicode="d" 
d="M563 720h24v-720h-24v159c-36 -102 -129 -171 -245 -171c-152 0 -265 115 -265 267s113 267 265 267c116 0 209 -69 245 -171v369zM321 12c138 0 242 104 242 243s-104 243 -242 243c-139 0 -243 -104 -243 -243s104 -243 243 -243z" />
    <glyph glyph-name="eth" unicode="&#xf0;" horiz-adv-x="639" 
d="M350 661c152 -87 236 -242 236 -405c0 -154 -115 -268 -267 -268s-266 114 -266 266c0 151 113 266 264 266c93 0 173 -46 222 -122c-37 102 -107 191 -209 247l-72 -55h-31l84 65c-37 18 -79 33 -125 42v24c54 -11 102 -28 146 -51l66 51h30zM319 12
c138 0 241 104 241 242s-103 242 -241 242s-241 -104 -241 -242s103 -242 241 -242z" />
    <glyph glyph-name="dcaron" unicode="&#x10f;" horiz-adv-x="710" 
d="M563 351v369h24v-720h-24v159c-36 -102 -130 -171 -246 -171c-151 0 -264 115 -264 267s113 267 264 267c116 0 210 -69 246 -171zM685 720h26l-28 -171h-19zM321 12c138 0 242 104 242 243s-104 243 -242 243c-139 0 -243 -104 -243 -243s104 -243 243 -243z" />
    <glyph glyph-name="dcroat" unicode="&#x111;" 
d="M673 618v-20h-86v-598h-24v159c-36 -102 -129 -171 -245 -171c-152 0 -265 115 -265 267s113 267 265 267c116 0 209 -69 245 -171v247h-158v20h158v102h24v-102h86zM321 12c138 0 242 104 242 243s-104 243 -242 243c-139 0 -243 -104 -243 -243s104 -243 243 -243z" />
    <glyph glyph-name="uni1E0D" unicode="&#x1e0d;" 
d="M563 720h24v-720h-24v159c-36 -102 -129 -171 -245 -171c-152 0 -265 115 -265 267s113 267 265 267c116 0 209 -69 245 -171v369zM321 12c138 0 242 104 242 243s-104 243 -242 243c-139 0 -243 -104 -243 -243s104 -243 243 -243zM337 -96c14 0 25 -11 25 -25
s-11 -25 -25 -25s-25 11 -25 25s11 25 25 25z" />
    <glyph glyph-name="uni01F3" unicode="&#x1f3;" horiz-adv-x="1178" 
d="M563 351v369h24v-720h-24v159c-36 -102 -129 -171 -245 -171c-152 0 -265 115 -265 267s113 267 265 267c116 0 209 -69 245 -171zM763 23h362v-23h-397v17l356 470h-352v23h386v-17zM321 12c138 0 242 104 242 243s-104 243 -242 243c-139 0 -243 -104 -243 -243
s104 -243 243 -243z" />
    <glyph glyph-name="uni01C6" unicode="&#x1c6;" horiz-adv-x="1178" 
d="M563 351v369h24v-720h-24v159c-36 -102 -129 -171 -245 -171c-152 0 -265 115 -265 267s113 267 265 267c116 0 209 -69 245 -171zM943 592h-32l-102 111h25l93 -96l92 96h25zM763 23h362v-23h-397v17l356 470h-352v23h386v-17zM321 12c138 0 242 104 242 243
s-104 243 -242 243c-139 0 -243 -104 -243 -243s104 -243 243 -243z" />
    <glyph glyph-name="e" unicode="e" horiz-adv-x="638" 
d="M588 255v-10h-510c5 -134 107 -234 242 -234c109 0 198 65 230 160h26c-34 -109 -132 -183 -256 -183c-152 0 -267 115 -267 267s115 267 267 267c153 0 268 -115 268 -267zM320 499c-134 0 -236 -99 -242 -232h485c-6 133 -108 232 -243 232z" />
    <glyph glyph-name="eacute" unicode="&#xe9;" horiz-adv-x="638" 
d="M442 703l-115 -111h-28l107 111h36zM588 255v-10h-510c5 -134 107 -234 242 -234c109 0 198 65 230 160h26c-34 -109 -132 -183 -256 -183c-152 0 -267 115 -267 267s115 267 267 267c153 0 268 -115 268 -267zM320 499c-134 0 -236 -99 -242 -232h485
c-6 133 -108 232 -243 232z" />
    <glyph glyph-name="ebreve" unicode="&#x115;" horiz-adv-x="638" 
d="M320 582c-62 0 -110 47 -110 109h21c0 -51 39 -90 89 -90c51 0 89 39 89 90h22c0 -62 -48 -109 -111 -109zM588 255v-10h-510c5 -134 107 -234 242 -234c109 0 198 65 230 160h26c-34 -109 -132 -183 -256 -183c-152 0 -267 115 -267 267s115 267 267 267
c153 0 268 -115 268 -267zM320 499c-134 0 -236 -99 -242 -232h485c-6 133 -108 232 -243 232z" />
    <glyph glyph-name="ecaron" unicode="&#x11b;" horiz-adv-x="638" 
d="M337 592h-32l-102 111h25l93 -96l92 96h25zM588 255v-10h-510c5 -134 107 -234 242 -234c109 0 198 65 230 160h26c-34 -109 -132 -183 -256 -183c-152 0 -267 115 -267 267s115 267 267 267c153 0 268 -115 268 -267zM320 499c-134 0 -236 -99 -242 -232h485
c-6 133 -108 232 -243 232z" />
    <glyph glyph-name="ecircumflex" unicode="&#xea;" horiz-adv-x="638" 
d="M321 687l-93 -95h-25l102 111h32l101 -111h-25zM588 255v-10h-510c5 -134 107 -234 242 -234c109 0 198 65 230 160h26c-34 -109 -132 -183 -256 -183c-152 0 -267 115 -267 267s115 267 267 267c153 0 268 -115 268 -267zM320 499c-134 0 -236 -99 -242 -232h485
c-6 133 -108 232 -243 232z" />
    <glyph glyph-name="uni0205" unicode="&#x205;" horiz-adv-x="638" 
d="M252 592h-24l-86 111h31zM417 592h-25l-85 111h31zM588 255v-10h-510c5 -134 107 -234 242 -234c109 0 198 65 230 160h26c-34 -109 -132 -183 -256 -183c-152 0 -267 115 -267 267s115 267 267 267c153 0 268 -115 268 -267zM320 499c-134 0 -236 -99 -242 -232h485
c-6 133 -108 232 -243 232z" />
    <glyph glyph-name="edieresis" unicode="&#xeb;" horiz-adv-x="638" 
d="M224 606c-14 0 -25 11 -25 25c0 13 11 24 25 24c13 0 24 -11 24 -24c0 -14 -11 -25 -24 -25zM418 606c-14 0 -25 11 -25 25c0 13 11 24 25 24c13 0 24 -11 24 -24c0 -14 -11 -25 -24 -25zM588 255v-10h-510c5 -134 107 -234 242 -234c109 0 198 65 230 160h26
c-34 -109 -132 -183 -256 -183c-152 0 -267 115 -267 267s115 267 267 267c153 0 268 -115 268 -267zM320 499c-134 0 -236 -99 -242 -232h485c-6 133 -108 232 -243 232z" />
    <glyph glyph-name="edotaccent" unicode="&#x117;" horiz-adv-x="638" 
d="M321 606c-14 0 -25 11 -25 25s11 25 25 25s25 -11 25 -25s-11 -25 -25 -25zM588 255v-10h-510c5 -134 107 -234 242 -234c109 0 198 65 230 160h26c-34 -109 -132 -183 -256 -183c-152 0 -267 115 -267 267s115 267 267 267c153 0 268 -115 268 -267zM320 499
c-134 0 -236 -99 -242 -232h485c-6 133 -108 232 -243 232z" />
    <glyph glyph-name="uni1EB9" unicode="&#x1eb9;" horiz-adv-x="638" 
d="M588 255v-10h-510c5 -134 107 -234 242 -234c109 0 198 65 230 160h26c-34 -109 -132 -183 -256 -183c-152 0 -267 115 -267 267s115 267 267 267c153 0 268 -115 268 -267zM320 499c-134 0 -236 -99 -242 -232h485c-6 133 -108 232 -243 232zM321 -96
c14 0 25 -11 25 -25s-11 -25 -25 -25s-25 11 -25 25s11 25 25 25z" />
    <glyph glyph-name="egrave" unicode="&#xe8;" horiz-adv-x="638" 
d="M341 592h-28l-115 111h36zM588 255v-10h-510c5 -134 107 -234 242 -234c109 0 198 65 230 160h26c-34 -109 -132 -183 -256 -183c-152 0 -267 115 -267 267s115 267 267 267c153 0 268 -115 268 -267zM320 499c-134 0 -236 -99 -242 -232h485c-6 133 -108 232 -243 232z
" />
    <glyph glyph-name="uni0207" unicode="&#x207;" horiz-adv-x="638" 
d="M320 672c-50 0 -89 -38 -89 -90h-21c0 62 48 110 110 110c63 0 111 -48 111 -110h-22c0 52 -38 90 -89 90zM588 255v-10h-510c5 -134 107 -234 242 -234c109 0 198 65 230 160h26c-34 -109 -132 -183 -256 -183c-152 0 -267 115 -267 267s115 267 267 267
c153 0 268 -115 268 -267zM320 499c-134 0 -236 -99 -242 -232h485c-6 133 -108 232 -243 232z" />
    <glyph glyph-name="emacron" unicode="&#x113;" horiz-adv-x="638" 
d="M420 635v-22h-200v22h200zM588 255v-10h-510c5 -134 107 -234 242 -234c109 0 198 65 230 160h26c-34 -109 -132 -183 -256 -183c-152 0 -267 115 -267 267s115 267 267 267c153 0 268 -115 268 -267zM320 499c-134 0 -236 -99 -242 -232h485c-6 133 -108 232 -243 232z
" />
    <glyph glyph-name="eogonek" unicode="&#x119;" horiz-adv-x="638" 
d="M588 255v-10h-510c5 -134 107 -234 242 -234c109 0 198 65 230 160h26c-21 -68 -68 -123 -130 -154c-52 -36 -93 -80 -93 -131c0 -38 28 -66 65 -66c29 0 54 13 69 34v-27c-17 -18 -44 -27 -72 -27c-47 0 -84 37 -84 83c0 44 26 83 64 115c-23 -7 -49 -10 -75 -10
c-152 0 -267 115 -267 267s115 267 267 267c153 0 268 -115 268 -267zM320 499c-134 0 -236 -99 -242 -232h485c-6 133 -108 232 -243 232z" />
    <glyph glyph-name="uni1EBD" unicode="&#x1ebd;" horiz-adv-x="638" 
d="M250 672c-36 0 -64 -28 -64 -66h-21c0 49 35 86 84 86c66 0 83 -72 141 -72c37 0 65 28 65 66h21c0 -49 -36 -87 -84 -87c-67 0 -84 73 -142 73zM588 255v-10h-510c5 -134 107 -234 242 -234c109 0 198 65 230 160h26c-34 -109 -132 -183 -256 -183
c-152 0 -267 115 -267 267s115 267 267 267c153 0 268 -115 268 -267zM320 499c-134 0 -236 -99 -242 -232h485c-6 133 -108 232 -243 232z" />
    <glyph glyph-name="f" unicode="f" horiz-adv-x="362" 
d="M321 698c-88 0 -145 -36 -145 -135v-53h145v-22h-145v-488h-24v488h-109v22h109v55c0 112 66 156 169 156v-23z" />
    <glyph glyph-name="g" unicode="g" 
d="M565 510h24v-455c0 -155 -103 -257 -258 -257c-131 0 -223 73 -251 190h25c25 -102 109 -167 226 -167c141 0 234 93 234 235v104c-36 -102 -130 -171 -246 -171c-151 0 -264 115 -264 267c0 151 113 266 264 266c116 0 210 -69 246 -171v159zM323 12
c138 0 242 105 242 244c0 138 -104 243 -242 243c-139 0 -243 -105 -243 -243c0 -139 104 -244 243 -244z" />
    <glyph glyph-name="uni01F5" unicode="&#x1f5;" 
d="M458 703l-115 -111h-28l107 111h36zM565 510h24v-455c0 -155 -103 -257 -258 -257c-131 0 -223 73 -251 190h25c25 -102 109 -167 226 -167c141 0 234 93 234 235v104c-36 -102 -130 -171 -246 -171c-151 0 -264 115 -264 267c0 151 113 266 264 266
c116 0 210 -69 246 -171v159zM323 12c138 0 242 105 242 244c0 138 -104 243 -242 243c-139 0 -243 -105 -243 -243c0 -139 104 -244 243 -244z" />
    <glyph glyph-name="gbreve" unicode="&#x11f;" 
d="M335 582c-62 0 -110 47 -110 109h21c0 -51 39 -90 89 -90c51 0 89 39 89 90h22c0 -62 -48 -109 -111 -109zM565 510h24v-455c0 -155 -103 -257 -258 -257c-131 0 -223 73 -251 190h25c25 -102 109 -167 226 -167c141 0 234 93 234 235v104c-36 -102 -130 -171 -246 -171
c-151 0 -264 115 -264 267c0 151 113 266 264 266c116 0 210 -69 246 -171v159zM323 12c138 0 242 105 242 244c0 138 -104 243 -242 243c-139 0 -243 -105 -243 -243c0 -139 104 -244 243 -244z" />
    <glyph glyph-name="gcaron" unicode="&#x1e7;" 
d="M352 592h-32l-102 111h25l93 -96l92 96h25zM565 510h24v-455c0 -155 -103 -257 -258 -257c-131 0 -223 73 -251 190h25c25 -102 109 -167 226 -167c141 0 234 93 234 235v104c-36 -102 -130 -171 -246 -171c-151 0 -264 115 -264 267c0 151 113 266 264 266
c116 0 210 -69 246 -171v159zM323 12c138 0 242 105 242 244c0 138 -104 243 -242 243c-139 0 -243 -105 -243 -243c0 -139 104 -244 243 -244z" />
    <glyph glyph-name="gcircumflex" unicode="&#x11d;" 
d="M336 687l-93 -95h-25l102 111h32l101 -111h-25zM565 510h24v-455c0 -155 -103 -257 -258 -257c-131 0 -223 73 -251 190h25c25 -102 109 -167 226 -167c141 0 234 93 234 235v104c-36 -102 -130 -171 -246 -171c-151 0 -264 115 -264 267c0 151 113 266 264 266
c116 0 210 -69 246 -171v159zM323 12c138 0 242 105 242 244c0 138 -104 243 -242 243c-139 0 -243 -105 -243 -243c0 -139 104 -244 243 -244z" />
    <glyph glyph-name="uni0123" unicode="&#x123;" 
d="M362 714l-26 -132h-28l34 132h20zM565 510h24v-455c0 -155 -103 -257 -258 -257c-131 0 -223 73 -251 190h25c25 -102 109 -167 226 -167c141 0 234 93 234 235v104c-36 -102 -130 -171 -246 -171c-151 0 -264 115 -264 267c0 151 113 266 264 266
c116 0 210 -69 246 -171v159zM323 12c138 0 242 105 242 244c0 138 -104 243 -242 243c-139 0 -243 -105 -243 -243c0 -139 104 -244 243 -244z" />
    <glyph glyph-name="gdotaccent" unicode="&#x121;" 
d="M336 606c-14 0 -25 11 -25 25s11 25 25 25s25 -11 25 -25s-11 -25 -25 -25zM565 510h24v-455c0 -155 -103 -257 -258 -257c-131 0 -223 73 -251 190h25c25 -102 109 -167 226 -167c141 0 234 93 234 235v104c-36 -102 -130 -171 -246 -171c-151 0 -264 115 -264 267
c0 151 113 266 264 266c116 0 210 -69 246 -171v159zM323 12c138 0 242 105 242 244c0 138 -104 243 -242 243c-139 0 -243 -105 -243 -243c0 -139 104 -244 243 -244z" />
    <glyph glyph-name="h" unicode="h" horiz-adv-x="629" 
d="M326 522c132 0 221 -87 221 -220v-302h-24v297c0 122 -80 201 -202 201c-126 0 -209 -80 -209 -203v-295h-24v720h24v-334c32 85 110 136 214 136z" />
    <glyph glyph-name="hbar" unicode="&#x127;" horiz-adv-x="629" 
d="M326 522c132 0 221 -87 221 -220v-302h-24v297c0 122 -80 201 -202 201c-126 0 -209 -80 -209 -203v-295h-24v598h-86v20h86v102h24v-102h158v-20h-158v-212c32 85 110 136 214 136z" />
    <glyph glyph-name="hcircumflex" unicode="&#x125;" horiz-adv-x="629" 
d="M192 773l-92 95l-93 -95h-25l102 111h32l101 -111h-25zM326 522c132 0 221 -87 221 -220v-302h-24v297c0 122 -80 201 -202 201c-126 0 -209 -80 -209 -203v-295h-24v720h24v-334c32 85 110 136 214 136z" />
    <glyph glyph-name="uni1E25" unicode="&#x1e25;" horiz-adv-x="629" 
d="M326 522c132 0 221 -87 221 -220v-302h-24v297c0 122 -80 201 -202 201c-126 0 -209 -80 -209 -203v-295h-24v720h24v-334c32 85 110 136 214 136zM317 -96c14 0 25 -11 25 -25s-11 -25 -25 -25s-25 11 -25 25s11 25 25 25z" />
    <glyph glyph-name="i" unicode="i" horiz-adv-x="199" 
d="M100 651c-14 0 -24 10 -24 23s10 24 24 24c13 0 23 -11 23 -24s-10 -23 -23 -23zM88 0v510h24v-510h-24z" />
    <glyph glyph-name="dotlessi" unicode="&#x131;" horiz-adv-x="199" 
d="M88 0v510h24v-510h-24z" />
    <glyph glyph-name="iacute" unicode="&#xed;" horiz-adv-x="199" 
d="M78 592l107 111h36l-115 -111h-28zM88 0v510h24v-510h-24z" />
    <glyph glyph-name="ibreve" unicode="&#x12d;" horiz-adv-x="199" 
d="M99 582c-62 0 -110 47 -110 109h21c0 -51 39 -90 89 -90c51 0 89 39 89 90h22c0 -62 -48 -109 -111 -109zM88 0v510h24v-510h-24z" />
    <glyph glyph-name="icircumflex" unicode="&#xee;" horiz-adv-x="199" 
d="M116 703l101 -111h-25l-92 95l-93 -95h-25l102 111h32zM88 0v510h24v-510h-24z" />
    <glyph glyph-name="uni0209" unicode="&#x209;" horiz-adv-x="199" 
d="M7 592l-86 111h31l79 -111h-24zM171 592l-85 111h31l79 -111h-25zM88 0v510h24v-510h-24z" />
    <glyph glyph-name="idieresis" unicode="&#xef;" horiz-adv-x="199" 
d="M3 606c-14 0 -25 11 -25 25c0 13 11 24 25 24c13 0 24 -11 24 -24c0 -14 -11 -25 -24 -25zM197 606c-14 0 -25 11 -25 25c0 13 11 24 25 24c13 0 24 -11 24 -24c0 -14 -11 -25 -24 -25zM88 0v510h24v-510h-24z" />
    <glyph glyph-name="i.loclTRK" horiz-adv-x="199" 
d="M100 606c-14 0 -25 11 -25 25s11 25 25 25s25 -11 25 -25s-11 -25 -25 -25zM88 0v510h24v-510h-24z" />
    <glyph glyph-name="uni1ECB" unicode="&#x1ecb;" horiz-adv-x="199" 
d="M100 651c-14 0 -24 10 -24 23s10 24 24 24c13 0 23 -11 23 -24s-10 -23 -23 -23zM88 0v510h24v-510h-24zM100 -146c-14 0 -25 11 -25 25s11 25 25 25s25 -11 25 -25s-11 -25 -25 -25z" />
    <glyph glyph-name="igrave" unicode="&#xec;" horiz-adv-x="199" 
d="M92 592l-115 111h36l107 -111h-28zM88 0v510h24v-510h-24z" />
    <glyph glyph-name="uni020B" unicode="&#x20b;" horiz-adv-x="199" 
d="M-11 582c0 62 48 110 110 110c63 0 111 -48 111 -110h-22c0 52 -38 90 -89 90c-50 0 -89 -38 -89 -90h-21zM88 0v510h24v-510h-24z" />
    <glyph glyph-name="ij" unicode="&#x133;" horiz-adv-x="405" 
d="M100 651c-14 0 -24 10 -24 23s10 24 24 24c13 0 23 -11 23 -24s-10 -23 -23 -23zM305 651c-13 0 -23 10 -23 23s10 24 23 24c14 0 24 -11 24 -24s-10 -23 -24 -23zM88 0v510h24v-510h-24zM178 -202v23c70 0 115 35 115 116v573h24v-575c0 -94 -54 -137 -139 -137z" />
    <glyph glyph-name="imacron" unicode="&#x12b;" horiz-adv-x="199" 
d="M0 613v22h200v-22h-200zM88 0v510h24v-510h-24z" />
    <glyph glyph-name="iogonek" unicode="&#x12f;" horiz-adv-x="199" 
d="M100 606c-14 0 -25 11 -25 25s11 25 25 25s25 -11 25 -25s-11 -25 -25 -25zM67 -181c23 0 45 9 62 23v-23c-18 -12 -40 -20 -64 -20c-46 0 -82 36 -82 81c0 51 44 95 105 122v508h24v-510h-1c-62 -28 -106 -71 -106 -117c0 -37 27 -64 62 -64z" />
    <glyph glyph-name="itilde" unicode="&#x129;" horiz-adv-x="199" 
d="M171 599c-67 0 -84 73 -142 73c-36 0 -64 -28 -64 -66h-21c0 49 35 86 84 86c66 0 83 -72 141 -72c37 0 65 28 65 66h21c0 -49 -36 -87 -84 -87zM88 0v510h24v-510h-24z" />
    <glyph glyph-name="j" unicode="j" horiz-adv-x="206" 
d="M106 651c-13 0 -23 10 -23 23s10 24 23 24c14 0 24 -11 24 -24s-10 -23 -24 -23zM-21 -202v23c70 0 115 35 115 116v573h24v-575c0 -94 -54 -137 -139 -137z" />
    <glyph glyph-name="uni0237" unicode="&#x237;" horiz-adv-x="206" 
d="M-21 -202v23c70 0 115 35 115 116v573h24v-575c0 -94 -54 -137 -139 -137z" />
    <glyph glyph-name="jcircumflex" unicode="&#x135;" horiz-adv-x="206" 
d="M123 703l101 -111h-25l-92 95l-93 -95h-25l102 111h32zM94 -63v573h24v-575c0 -94 -54 -137 -139 -137v23c70 0 115 35 115 116z" />
    <glyph glyph-name="k" unicode="k" horiz-adv-x="484" 
d="M454 0h-36l-306 243v-243h-24v720h24v-450l300 240h35l-314 -253z" />
    <glyph glyph-name="uni0137" unicode="&#x137;" horiz-adv-x="484" 
d="M133 257l321 -257h-36l-306 243v-243h-24v720h24v-450l300 240h35zM228 -211l26 131h28l-34 -131h-20z" />
    <glyph glyph-name="l" unicode="l" horiz-adv-x="199" 
d="M88 0v720h24v-720h-24z" />
    <glyph glyph-name="lacute" unicode="&#x13a;" horiz-adv-x="199" 
d="M78 773l107 111h36l-115 -111h-28zM88 0v720h24v-720h-24z" />
    <glyph glyph-name="lcaron" unicode="&#x13e;" horiz-adv-x="235" 
d="M88 0v720h24v-720h-24zM188 549l21 171h27l-28 -171h-20z" />
    <glyph glyph-name="uni013C" unicode="&#x13c;" horiz-adv-x="199" 
d="M88 0v720h24v-720h-24zM68 -211l26 131h28l-34 -131h-20z" />
    <glyph glyph-name="ldot" unicode="&#x140;" horiz-adv-x="280" 
d="M88 0v720h24v-720h-24zM208 335c-14 0 -26 11 -26 25s12 25 26 25s25 -11 25 -25s-11 -25 -25 -25z" />
    <glyph glyph-name="uni01C9" unicode="&#x1c9;" horiz-adv-x="405" 
d="M88 0v720h24v-720h-24zM305 651c-13 0 -23 10 -23 23s10 24 23 24c14 0 24 -11 24 -24s-10 -23 -24 -23zM178 -202v23c70 0 115 35 115 116v573h24v-575c0 -94 -54 -137 -139 -137z" />
    <glyph glyph-name="lslash" unicode="&#x142;" horiz-adv-x="276" 
d="M224 436v-27l-74 -54v-355h-24v337l-73 -53v27l73 53v356h24v-338z" />
    <glyph glyph-name="m" unicode="m" horiz-adv-x="968" 
d="M689 522c119 0 197 -78 197 -196v-326h-24v321c0 107 -70 177 -177 177c-112 0 -186 -71 -186 -179v-319h-24v321c0 107 -70 177 -178 177c-111 0 -185 -71 -185 -179v-319h-24v510h24v-105c30 73 98 117 190 117c96 0 166 -52 189 -135c26 84 98 135 198 135z" />
    <glyph glyph-name="n" unicode="n" horiz-adv-x="629" 
d="M326 522c132 0 221 -87 221 -220v-302h-24v297c0 122 -80 201 -202 201c-126 0 -209 -80 -209 -203v-295h-24v510h24v-124c32 85 110 136 214 136z" />
    <glyph glyph-name="nacute" unicode="&#x144;" horiz-adv-x="629" 
d="M437 703l-115 -111h-28l107 111h36zM326 522c132 0 221 -87 221 -220v-302h-24v297c0 122 -80 201 -202 201c-126 0 -209 -80 -209 -203v-295h-24v510h24v-124c32 85 110 136 214 136z" />
    <glyph glyph-name="ncaron" unicode="&#x148;" horiz-adv-x="629" 
d="M332 592h-32l-102 111h25l93 -96l92 96h25zM326 522c132 0 221 -87 221 -220v-302h-24v297c0 122 -80 201 -202 201c-126 0 -209 -80 -209 -203v-295h-24v510h24v-124c32 85 110 136 214 136z" />
    <glyph glyph-name="uni0146" unicode="&#x146;" horiz-adv-x="629" 
d="M326 522c132 0 221 -87 221 -220v-302h-24v297c0 122 -80 201 -202 201c-126 0 -209 -80 -209 -203v-295h-24v510h24v-124c32 85 110 136 214 136zM285 -211l26 131h28l-34 -131h-20z" />
    <glyph glyph-name="uni1E45" unicode="&#x1e45;" horiz-adv-x="629" 
d="M315 606c-14 0 -25 11 -25 25s11 25 25 25s25 -11 25 -25s-11 -25 -25 -25zM326 522c132 0 221 -87 221 -220v-302h-24v297c0 122 -80 201 -202 201c-126 0 -209 -80 -209 -203v-295h-24v510h24v-124c32 85 110 136 214 136z" />
    <glyph glyph-name="eng" unicode="&#x14b;" horiz-adv-x="629" 
d="M326 522c132 0 221 -87 221 -220v-359c0 -94 -55 -136 -139 -136v23c69 0 115 35 115 114v353c0 122 -80 201 -202 201c-126 0 -209 -80 -209 -203v-295h-24v510h24v-124c32 85 110 136 214 136z" />
    <glyph glyph-name="uni01CC" unicode="&#x1cc;" horiz-adv-x="835" 
d="M735 698c14 0 24 -11 24 -24s-10 -23 -24 -23c-13 0 -23 10 -23 23s10 24 23 24zM326 522c132 0 221 -87 221 -220v-302h-24v297c0 122 -80 201 -202 201c-126 0 -209 -80 -209 -203v-295h-24v510h24v-124c32 85 110 136 214 136zM723 -63v573h24v-575
c0 -94 -54 -137 -139 -137v23c70 0 115 35 115 116z" />
    <glyph glyph-name="ntilde" unicode="&#xf1;" horiz-adv-x="629" 
d="M245 672c-36 0 -64 -28 -64 -66h-21c0 49 35 86 84 86c66 0 83 -72 141 -72c37 0 65 28 65 66h21c0 -49 -36 -87 -84 -87c-67 0 -84 73 -142 73zM326 522c132 0 221 -87 221 -220v-302h-24v297c0 122 -80 201 -202 201c-126 0 -209 -80 -209 -203v-295h-24v510h24v-124
c32 85 110 136 214 136z" />
    <glyph glyph-name="o" unicode="o" horiz-adv-x="641" 
d="M321 -12c-153 0 -268 115 -268 267s115 267 268 267c152 0 267 -115 267 -267s-115 -267 -267 -267zM321 12c138 0 242 104 242 243s-104 243 -242 243c-139 0 -243 -104 -243 -243s104 -243 243 -243z" />
    <glyph glyph-name="oacute" unicode="&#xf3;" horiz-adv-x="641" 
d="M299 592l107 111h36l-115 -111h-28zM321 -12c-153 0 -268 115 -268 267s115 267 268 267c152 0 267 -115 267 -267s-115 -267 -267 -267zM321 12c138 0 242 104 242 243s-104 243 -242 243c-139 0 -243 -104 -243 -243s104 -243 243 -243z" />
    <glyph glyph-name="obreve" unicode="&#x14f;" horiz-adv-x="641" 
d="M320 582c-62 0 -110 47 -110 109h21c0 -51 39 -90 89 -90c51 0 89 39 89 90h22c0 -62 -48 -109 -111 -109zM321 -12c-153 0 -268 115 -268 267s115 267 268 267c152 0 267 -115 267 -267s-115 -267 -267 -267zM321 12c138 0 242 104 242 243s-104 243 -242 243
c-139 0 -243 -104 -243 -243s104 -243 243 -243z" />
    <glyph glyph-name="ocircumflex" unicode="&#xf4;" horiz-adv-x="641" 
d="M321 687l-93 -95h-25l102 111h32l101 -111h-25zM321 522c152 0 267 -115 267 -267s-115 -267 -267 -267c-153 0 -268 115 -268 267s115 267 268 267zM321 12c138 0 242 104 242 243s-104 243 -242 243c-139 0 -243 -104 -243 -243s104 -243 243 -243z" />
    <glyph glyph-name="uni020D" unicode="&#x20d;" horiz-adv-x="641" 
d="M228 592l-86 111h31l79 -111h-24zM392 592l-85 111h31l79 -111h-25zM321 -12c-153 0 -268 115 -268 267s115 267 268 267c152 0 267 -115 267 -267s-115 -267 -267 -267zM321 12c138 0 242 104 242 243s-104 243 -242 243c-139 0 -243 -104 -243 -243s104 -243 243 -243z
" />
    <glyph glyph-name="odieresis" unicode="&#xf6;" horiz-adv-x="641" 
d="M224 606c-14 0 -25 11 -25 25c0 13 11 24 25 24c13 0 24 -11 24 -24c0 -14 -11 -25 -24 -25zM418 606c-14 0 -25 11 -25 25c0 13 11 24 25 24c13 0 24 -11 24 -24c0 -14 -11 -25 -24 -25zM321 -12c-153 0 -268 115 -268 267s115 267 268 267c152 0 267 -115 267 -267
s-115 -267 -267 -267zM321 12c138 0 242 104 242 243s-104 243 -242 243c-139 0 -243 -104 -243 -243s104 -243 243 -243z" />
    <glyph glyph-name="uni1ECD" unicode="&#x1ecd;" horiz-adv-x="641" 
d="M321 -12c-153 0 -268 115 -268 267s115 267 268 267c152 0 267 -115 267 -267s-115 -267 -267 -267zM321 12c138 0 242 104 242 243s-104 243 -242 243c-139 0 -243 -104 -243 -243s104 -243 243 -243zM321 -146c-14 0 -25 11 -25 25s11 25 25 25s25 -11 25 -25
s-11 -25 -25 -25z" />
    <glyph glyph-name="ograve" unicode="&#xf2;" horiz-adv-x="641" 
d="M313 592l-115 111h36l107 -111h-28zM321 -12c-153 0 -268 115 -268 267s115 267 268 267c152 0 267 -115 267 -267s-115 -267 -267 -267zM321 12c138 0 242 104 242 243s-104 243 -242 243c-139 0 -243 -104 -243 -243s104 -243 243 -243z" />
    <glyph glyph-name="ohungarumlaut" unicode="&#x151;" horiz-adv-x="641" 
d="M223 592l79 111h31l-85 -111h-25zM388 592l78 111h32l-86 -111h-24zM321 -12c-153 0 -268 115 -268 267s115 267 268 267c152 0 267 -115 267 -267s-115 -267 -267 -267zM321 12c138 0 242 104 242 243s-104 243 -242 243c-139 0 -243 -104 -243 -243s104 -243 243 -243z
" />
    <glyph glyph-name="uni020F" unicode="&#x20f;" horiz-adv-x="641" 
d="M210 582c0 62 48 110 110 110c63 0 111 -48 111 -110h-22c0 52 -38 90 -89 90c-50 0 -89 -38 -89 -90h-21zM321 -12c-153 0 -268 115 -268 267s115 267 268 267c152 0 267 -115 267 -267s-115 -267 -267 -267zM321 12c138 0 242 104 242 243s-104 243 -242 243
c-139 0 -243 -104 -243 -243s104 -243 243 -243z" />
    <glyph glyph-name="omacron" unicode="&#x14d;" horiz-adv-x="641" 
d="M221 613v22h200v-22h-200zM321 -12c-153 0 -268 115 -268 267s115 267 268 267c152 0 267 -115 267 -267s-115 -267 -267 -267zM321 12c138 0 242 104 242 243s-104 243 -242 243c-139 0 -243 -104 -243 -243s104 -243 243 -243z" />
    <glyph glyph-name="uni01EB" unicode="&#x1eb;" horiz-adv-x="641" 
d="M402 0c-61 -28 -103 -71 -103 -116c0 -37 27 -64 62 -64c23 0 45 9 62 23v-23c-18 -12 -40 -20 -64 -20c-46 0 -82 36 -82 81c0 44 32 82 80 109c-12 -1 -24 -2 -36 -2c-153 0 -268 115 -268 267s115 267 268 267c152 0 267 -115 267 -267c0 -124 -76 -223 -186 -255z
M78 255c0 -139 104 -243 243 -243c138 0 242 104 242 243s-104 243 -242 243c-139 0 -243 -104 -243 -243z" />
    <glyph glyph-name="oslash" unicode="&#xf8;" horiz-adv-x="641" 
d="M508 449c50 -48 80 -116 80 -194c0 -152 -115 -267 -267 -267c-68 0 -128 22 -174 61l-44 -49h-25l55 61c-50 48 -80 116 -80 194c0 152 115 267 268 267c67 0 127 -22 173 -60l43 48h26zM78 255c0 -71 27 -132 71 -176l328 365c-41 34 -95 54 -156 54
c-139 0 -243 -104 -243 -243zM321 12c138 0 242 104 242 243c0 71 -27 132 -71 176l-329 -364c42 -35 97 -55 158 -55z" />
    <glyph glyph-name="oslashacute" unicode="&#x1ff;" horiz-adv-x="641" 
d="M443 703l-115 -111h-28l107 111h36zM508 449c50 -48 80 -116 80 -194c0 -152 -115 -267 -267 -267c-68 0 -128 22 -174 61l-44 -49h-25l55 61c-50 48 -80 116 -80 194c0 152 115 267 268 267c67 0 127 -22 173 -60l43 48h26zM78 255c0 -71 27 -132 71 -176l328 365
c-41 34 -95 54 -156 54c-139 0 -243 -104 -243 -243zM321 12c138 0 242 104 242 243c0 71 -27 132 -71 176l-329 -364c42 -35 97 -55 158 -55z" />
    <glyph glyph-name="otilde" unicode="&#xf5;" horiz-adv-x="641" 
d="M392 599c-67 0 -84 73 -142 73c-36 0 -64 -28 -64 -66h-21c0 49 35 86 84 86c66 0 83 -72 141 -72c37 0 65 28 65 66h21c0 -49 -36 -87 -84 -87zM321 -12c-153 0 -268 115 -268 267s115 267 268 267c152 0 267 -115 267 -267s-115 -267 -267 -267zM321 12
c138 0 242 104 242 243s-104 243 -242 243c-139 0 -243 -104 -243 -243s104 -243 243 -243z" />
    <glyph glyph-name="oe" unicode="&#x153;" horiz-adv-x="1148" 
d="M1098 255v-10h-510c5 -134 107 -234 243 -234c108 0 197 65 229 160h26c-34 -109 -132 -183 -255 -183c-125 0 -225 79 -255 193c-31 -114 -131 -193 -256 -193c-152 0 -267 115 -267 267s115 267 267 267c125 0 225 -79 256 -193c30 114 130 193 255 193
c152 0 267 -115 267 -267zM831 499c-135 0 -237 -99 -243 -232h485c-2 133 -108 232 -242 232zM320 12c139 0 243 104 243 243s-104 243 -243 243c-138 0 -242 -104 -242 -243s104 -243 242 -243z" />
    <glyph glyph-name="p" unicode="p" 
d="M357 522c151 0 265 -115 265 -267s-114 -267 -265 -267c-115 0 -208 68 -245 169v-347h-24v700h24v-157c37 101 130 169 245 169zM354 12c138 0 242 104 242 243s-104 243 -242 243c-139 0 -242 -104 -242 -243s103 -243 242 -243z" />
    <glyph glyph-name="thorn" unicode="&#xfe;" 
d="M357 522c151 0 265 -115 265 -267s-114 -267 -265 -267c-115 0 -208 68 -245 169v-347h-24v910h24v-367c37 101 130 169 245 169zM354 12c138 0 242 104 242 243s-104 243 -242 243c-139 0 -242 -104 -242 -243s103 -243 242 -243z" />
    <glyph glyph-name="q" unicode="q" 
d="M563 510h24v-700h-24v349c-36 -102 -129 -171 -245 -171c-152 0 -265 115 -265 267s113 267 265 267c116 0 209 -69 245 -171v159zM321 12c138 0 242 104 242 243s-104 243 -242 243c-139 0 -243 -104 -243 -243s104 -243 243 -243z" />
    <glyph glyph-name="r" unicode="r" horiz-adv-x="346" 
d="M112 377c30 87 100 141 194 141v-25c-118 0 -194 -86 -194 -218v-275h-24v510h24v-133z" />
    <glyph glyph-name="racute" unicode="&#x155;" horiz-adv-x="346" 
d="M315 703l-115 -111h-28l107 111h36zM112 377c30 87 100 141 194 141v-25c-118 0 -194 -86 -194 -218v-275h-24v510h24v-133z" />
    <glyph glyph-name="rcaron" unicode="&#x159;" horiz-adv-x="346" 
d="M209 592h-32l-102 111h25l93 -96l92 96h25zM112 377c30 87 100 141 194 141v-25c-118 0 -194 -86 -194 -218v-275h-24v510h24v-133z" />
    <glyph glyph-name="uni0157" unicode="&#x157;" horiz-adv-x="346" 
d="M112 377c30 87 100 141 194 141v-25c-118 0 -194 -86 -194 -218v-275h-24v510h24v-133zM68 -211l26 131h28l-34 -131h-20z" />
    <glyph glyph-name="uni0211" unicode="&#x211;" horiz-adv-x="346" 
d="M124 592h-24l-86 111h31zM289 592h-25l-85 111h31zM112 377c30 87 100 141 194 141v-25c-118 0 -194 -86 -194 -218v-275h-24v510h24v-133z" />
    <glyph glyph-name="uni1E5B" unicode="&#x1e5b;" horiz-adv-x="346" 
d="M112 377c30 87 100 141 194 141v-25c-118 0 -194 -86 -194 -218v-275h-24v510h24v-133zM100 -96c14 0 25 -11 25 -25s-11 -25 -25 -25s-25 11 -25 25s11 25 25 25z" />
    <glyph glyph-name="uni0213" unicode="&#x213;" horiz-adv-x="346" 
d="M192 672c-50 0 -89 -38 -89 -90h-21c0 62 48 110 110 110c63 0 111 -48 111 -110h-22c0 52 -38 90 -89 90zM112 377c30 87 100 141 194 141v-25c-118 0 -194 -86 -194 -218v-275h-24v510h24v-133z" />
    <glyph glyph-name="s" unicode="s" horiz-adv-x="417" 
d="M208 -12c-88 0 -155 62 -155 145h24c0 -70 57 -122 132 -122c74 0 130 48 130 112c0 63 -44 104 -135 126c-93 21 -144 70 -144 142c0 76 64 131 148 131c85 0 149 -60 149 -140h-24c0 67 -54 117 -125 117c-70 0 -123 -46 -123 -107c0 -60 43 -102 128 -121
c100 -23 151 -72 151 -147c0 -79 -67 -136 -156 -136z" />
    <glyph glyph-name="sacute" unicode="&#x15b;" horiz-adv-x="417" 
d="M187 592l107 111h36l-115 -111h-28zM208 -12c-88 0 -155 62 -155 145h24c0 -70 57 -122 132 -122c74 0 130 48 130 112c0 63 -44 104 -135 126c-93 21 -144 70 -144 142c0 76 64 131 148 131c85 0 149 -60 149 -140h-24c0 67 -54 117 -125 117c-70 0 -123 -46 -123 -107
c0 -60 43 -102 128 -121c100 -23 151 -72 151 -147c0 -79 -67 -136 -156 -136z" />
    <glyph glyph-name="scaron" unicode="&#x161;" horiz-adv-x="417" 
d="M225 592h-32l-102 111h25l93 -96l92 96h25zM213 271c100 -23 151 -72 151 -147c0 -79 -67 -136 -156 -136c-88 0 -155 62 -155 145h24c0 -70 57 -122 132 -122c74 0 130 48 130 112c0 63 -44 104 -135 126c-93 21 -144 70 -144 142c0 76 64 131 148 131
c85 0 149 -60 149 -140h-24c0 67 -54 117 -125 117c-70 0 -123 -46 -123 -107c0 -60 43 -102 128 -121z" />
    <glyph glyph-name="scedilla" unicode="&#x15f;" horiz-adv-x="417" 
d="M364 124c0 -77 -63 -133 -148 -136l-27 -34c8 3 18 5 27 5c44 0 77 -35 77 -80c0 -46 -35 -81 -82 -81c-46 0 -81 35 -81 81h20c0 -36 27 -63 61 -63c35 0 62 27 62 63c0 35 -27 62 -62 62c-14 0 -31 -7 -40 -16l-16 8l40 55c-81 6 -142 66 -142 145h24
c0 -70 57 -122 132 -122c74 0 130 48 130 112c0 63 -44 104 -135 126c-93 21 -144 70 -144 142c0 76 64 131 148 131c85 0 149 -60 149 -140h-24c0 67 -54 117 -125 117c-70 0 -123 -46 -123 -107c0 -60 43 -102 128 -121c100 -23 151 -72 151 -147z" />
    <glyph glyph-name="scircumflex" unicode="&#x15d;" horiz-adv-x="417" 
d="M209 687l-93 -95h-25l102 111h32l101 -111h-25zM213 271c100 -23 151 -72 151 -147c0 -79 -67 -136 -156 -136c-88 0 -155 62 -155 145h24c0 -70 57 -122 132 -122c74 0 130 48 130 112c0 63 -44 104 -135 126c-93 21 -144 70 -144 142c0 76 64 131 148 131
c85 0 149 -60 149 -140h-24c0 67 -54 117 -125 117c-70 0 -123 -46 -123 -107c0 -60 43 -102 128 -121z" />
    <glyph glyph-name="uni0219" unicode="&#x219;" horiz-adv-x="417" 
d="M208 -12c-88 0 -155 62 -155 145h24c0 -70 57 -122 132 -122c74 0 130 48 130 112c0 63 -44 104 -135 126c-93 21 -144 70 -144 142c0 76 64 131 148 131c85 0 149 -60 149 -140h-24c0 67 -54 117 -125 117c-70 0 -123 -46 -123 -107c0 -60 43 -102 128 -121
c100 -23 151 -72 151 -147c0 -79 -67 -136 -156 -136zM177 -211l26 131h28l-34 -131h-20z" />
    <glyph glyph-name="uni1E63" unicode="&#x1e63;" horiz-adv-x="417" 
d="M208 -12c-88 0 -155 62 -155 145h24c0 -70 57 -122 132 -122c74 0 130 48 130 112c0 63 -44 104 -135 126c-93 21 -144 70 -144 142c0 76 64 131 148 131c85 0 149 -60 149 -140h-24c0 67 -54 117 -125 117c-70 0 -123 -46 -123 -107c0 -60 43 -102 128 -121
c100 -23 151 -72 151 -147c0 -79 -67 -136 -156 -136zM208 -146c-14 0 -25 11 -25 25s11 25 25 25s25 -11 25 -25s-11 -25 -25 -25z" />
    <glyph glyph-name="germandbls" unicode="&#xdf;" horiz-adv-x="521" 
d="M325 395c89 -21 153 -101 153 -204c0 -116 -92 -203 -213 -203c-29 0 -57 6 -81 15v25c23 -11 51 -16 80 -16c108 0 189 76 189 181c0 108 -76 189 -179 189h-65v24h64c83 0 145 65 145 152c0 86 -67 150 -155 150s-154 -64 -154 -150v-558h-24v558c0 99 76 174 178 174
s180 -75 180 -173c0 -80 -48 -144 -118 -164z" />
    <glyph glyph-name="t" unicode="t" horiz-adv-x="371" 
d="M330 510v-22h-136v-488h-24v488h-129v22h129v148l24 2v-150h136z" />
    <glyph glyph-name="tbar" unicode="&#x167;" horiz-adv-x="371" 
d="M330 488h-136v-225h126v-20h-126v-243h-24v243h-118v20h118v225h-129v22h129v148l24 2v-150h136v-22z" />
    <glyph glyph-name="tcaron" unicode="&#x165;" horiz-adv-x="371" 
d="M320 746l-29 -171h-19l21 171h27zM330 510v-22h-136v-488h-24v488h-129v22h129v148l24 2v-150h136z" />
    <glyph glyph-name="uni0163" unicode="&#x163;" horiz-adv-x="371" 
d="M194 0h-1l-35 -45c8 3 18 5 27 5c44 0 77 -35 77 -80c0 -46 -35 -81 -82 -81c-46 0 -81 35 -81 81h20c0 -36 27 -63 61 -63c35 0 62 27 62 63c0 35 -27 62 -62 62c-14 0 -31 -7 -40 -16l-16 8l48 66h-2v488h-129v22h129v148l24 2v-150h136v-22h-136v-488z" />
    <glyph glyph-name="uni021B" unicode="&#x21b;" horiz-adv-x="371" 
d="M194 510h136v-22h-136v-488h-24v488h-129v22h129v148l24 2v-150zM151 -211l26 131h28l-34 -131h-20z" />
    <glyph glyph-name="uni1E6D" unicode="&#x1e6d;" horiz-adv-x="371" 
d="M194 510h136v-22h-136v-488h-24v488h-129v22h129v148l24 2v-150zM183 -96c14 0 25 -11 25 -25s-11 -25 -25 -25s-25 11 -25 25s11 25 25 25z" />
    <glyph glyph-name="u" unicode="u" horiz-adv-x="609" 
d="M498 510h24v-510h-24v116c-31 -80 -105 -128 -205 -128c-126 0 -211 83 -211 210v312h24v-307c0 -115 76 -191 192 -191c120 0 200 77 200 193v305z" />
    <glyph glyph-name="uacute" unicode="&#xfa;" horiz-adv-x="609" 
d="M424 703l-115 -111h-28l107 111h36zM498 510h24v-510h-24v116c-31 -80 -105 -128 -205 -128c-126 0 -211 83 -211 210v312h24v-307c0 -115 76 -191 192 -191c120 0 200 77 200 193v305z" />
    <glyph glyph-name="ubreve" unicode="&#x16d;" horiz-adv-x="609" 
d="M302 582c-62 0 -110 47 -110 109h21c0 -51 39 -90 89 -90c51 0 89 39 89 90h22c0 -62 -48 -109 -111 -109zM498 510h24v-510h-24v116c-31 -80 -105 -128 -205 -128c-126 0 -211 83 -211 210v312h24v-307c0 -115 76 -191 192 -191c120 0 200 77 200 193v305z" />
    <glyph glyph-name="ucircumflex" unicode="&#xfb;" horiz-adv-x="609" 
d="M302 687l-93 -95h-25l102 111h32l101 -111h-25zM498 510h24v-510h-24v116c-31 -80 -105 -128 -205 -128c-126 0 -211 83 -211 210v312h24v-307c0 -115 76 -191 192 -191c120 0 200 77 200 193v305z" />
    <glyph glyph-name="uni0215" unicode="&#x215;" horiz-adv-x="609" 
d="M234 592h-24l-86 111h31zM399 592h-25l-85 111h31zM498 510h24v-510h-24v116c-31 -80 -105 -128 -205 -128c-126 0 -211 83 -211 210v312h24v-307c0 -115 76 -191 192 -191c120 0 200 77 200 193v305z" />
    <glyph glyph-name="udieresis" unicode="&#xfc;" horiz-adv-x="609" 
d="M205 606c-14 0 -25 11 -25 25c0 13 11 24 25 24c13 0 24 -11 24 -24c0 -14 -11 -25 -24 -25zM399 606c-14 0 -25 11 -25 25c0 13 11 24 25 24c13 0 24 -11 24 -24c0 -14 -11 -25 -24 -25zM498 510h24v-510h-24v116c-31 -80 -105 -128 -205 -128c-126 0 -211 83 -211 210
v312h24v-307c0 -115 76 -191 192 -191c120 0 200 77 200 193v305z" />
    <glyph glyph-name="uni1EE5" unicode="&#x1ee5;" horiz-adv-x="609" 
d="M498 510h24v-510h-24v116c-31 -80 -105 -128 -205 -128c-126 0 -211 83 -211 210v312h24v-307c0 -115 76 -191 192 -191c120 0 200 77 200 193v305zM302 -96c14 0 25 -11 25 -25s-11 -25 -25 -25s-25 11 -25 25s11 25 25 25z" />
    <glyph glyph-name="ugrave" unicode="&#xf9;" horiz-adv-x="609" 
d="M323 592h-28l-115 111h36zM498 510h24v-510h-24v116c-31 -80 -105 -128 -205 -128c-126 0 -211 83 -211 210v312h24v-307c0 -115 76 -191 192 -191c120 0 200 77 200 193v305z" />
    <glyph glyph-name="uhungarumlaut" unicode="&#x171;" horiz-adv-x="609" 
d="M315 703l-85 -111h-25l79 111h31zM480 703l-86 -111h-24l78 111h32zM498 510h24v-510h-24v116c-31 -80 -105 -128 -205 -128c-126 0 -211 83 -211 210v312h24v-307c0 -115 76 -191 192 -191c120 0 200 77 200 193v305z" />
    <glyph glyph-name="uni0217" unicode="&#x217;" horiz-adv-x="609" 
d="M302 672c-50 0 -89 -38 -89 -90h-21c0 62 48 110 110 110c63 0 111 -48 111 -110h-22c0 52 -38 90 -89 90zM498 510h24v-510h-24v116c-31 -80 -105 -128 -205 -128c-126 0 -211 83 -211 210v312h24v-307c0 -115 76 -191 192 -191c120 0 200 77 200 193v305z" />
    <glyph glyph-name="umacron" unicode="&#x16b;" horiz-adv-x="609" 
d="M402 635v-22h-200v22h200zM498 510h24v-510h-24v116c-31 -80 -105 -128 -205 -128c-126 0 -211 83 -211 210v312h24v-307c0 -115 76 -191 192 -191c120 0 200 77 200 193v305z" />
    <glyph glyph-name="uogonek" unicode="&#x173;" horiz-adv-x="609" 
d="M477 -181c23 0 45 9 62 23v-23c-18 -12 -40 -20 -64 -20c-46 0 -82 36 -82 81c0 51 44 95 105 122v114c-31 -80 -105 -128 -205 -128c-126 0 -211 83 -211 210v312h24v-307c0 -115 76 -191 192 -191c120 0 200 77 200 193v305h24v-510h-1c-62 -28 -106 -71 -106 -117
c0 -37 27 -64 62 -64z" />
    <glyph glyph-name="uring" unicode="&#x16f;" horiz-adv-x="609" 
d="M302 576c-36 0 -65 28 -65 65s29 65 65 65c37 0 66 -28 66 -65s-29 -65 -66 -65zM302 689c-26 0 -46 -20 -46 -48c0 -27 20 -48 46 -48c27 0 47 21 47 48c0 28 -20 48 -47 48zM498 510h24v-510h-24v116c-31 -80 -105 -128 -205 -128c-126 0 -211 83 -211 210v312h24v-307
c0 -115 76 -191 192 -191c120 0 200 77 200 193v305z" />
    <glyph glyph-name="utilde" unicode="&#x169;" horiz-adv-x="609" 
d="M232 672c-36 0 -64 -28 -64 -66h-21c0 49 35 86 84 86c66 0 83 -72 141 -72c37 0 65 28 65 66h21c0 -49 -36 -87 -84 -87c-67 0 -84 73 -142 73zM498 510h24v-510h-24v116c-31 -80 -105 -128 -205 -128c-126 0 -211 83 -211 210v312h24v-307c0 -115 76 -191 192 -191
c120 0 200 77 200 193v305z" />
    <glyph glyph-name="v" unicode="v" horiz-adv-x="567" 
d="M512 510h27l-241 -510h-29l-241 510h28l228 -483z" />
    <glyph glyph-name="w" unicode="w" horiz-adv-x="933" 
d="M874 510h26l-206 -510h-28l-199 483l-199 -483h-28l-207 510h27l195 -486l199 486h27l198 -483z" />
    <glyph glyph-name="wacute" unicode="&#x1e83;" horiz-adv-x="933" 
d="M597 703l-115 -111h-28l107 111h36zM874 510h26l-206 -510h-28l-199 483l-199 -483h-28l-207 510h27l195 -486l199 486h27l198 -483z" />
    <glyph glyph-name="wcircumflex" unicode="&#x175;" horiz-adv-x="933" 
d="M475 687l-93 -95h-25l102 111h32l101 -111h-25zM874 510h26l-206 -510h-28l-199 483l-199 -483h-28l-207 510h27l195 -486l199 486h27l198 -483z" />
    <glyph glyph-name="wdieresis" unicode="&#x1e85;" horiz-adv-x="933" 
d="M378 606c-14 0 -25 11 -25 25c0 13 11 24 25 24c13 0 24 -11 24 -24c0 -14 -11 -25 -24 -25zM572 606c-14 0 -25 11 -25 25c0 13 11 24 25 24c13 0 24 -11 24 -24c0 -14 -11 -25 -24 -25zM874 510h26l-206 -510h-28l-199 483l-199 -483h-28l-207 510h27l195 -486l199 486
h27l198 -483z" />
    <glyph glyph-name="wgrave" unicode="&#x1e81;" horiz-adv-x="933" 
d="M496 592h-28l-115 111h36zM874 510h26l-206 -510h-28l-199 483l-199 -483h-28l-207 510h27l195 -486l199 486h27l198 -483z" />
    <glyph glyph-name="x" unicode="x" horiz-adv-x="570" 
d="M518 0h-31l-202 241l-203 -241h-31l216 256l-213 254h31l200 -239l200 239h30l-212 -254z" />
    <glyph glyph-name="y" unicode="y" horiz-adv-x="567" 
d="M512 510h27l-331 -700h-27l90 188l-243 512h28l228 -484z" />
    <glyph glyph-name="yacute" unicode="&#xfd;" horiz-adv-x="567" 
d="M406 703l-115 -111h-28l107 111h36zM512 510h27l-331 -700h-27l90 188l-243 512h28l228 -484z" />
    <glyph glyph-name="ycircumflex" unicode="&#x177;" horiz-adv-x="567" 
d="M285 687l-93 -95h-25l102 111h32l101 -111h-25zM512 510h27l-331 -700h-27l90 188l-243 512h28l228 -484z" />
    <glyph glyph-name="ydieresis" unicode="&#xff;" horiz-adv-x="567" 
d="M188 606c-14 0 -25 11 -25 25c0 13 11 24 25 24c13 0 24 -11 24 -24c0 -14 -11 -25 -24 -25zM382 606c-14 0 -25 11 -25 25c0 13 11 24 25 24c13 0 24 -11 24 -24c0 -14 -11 -25 -24 -25zM512 510h27l-331 -700h-27l90 188l-243 512h28l228 -484z" />
    <glyph glyph-name="ygrave" unicode="&#x1ef3;" horiz-adv-x="567" 
d="M305 592h-28l-115 111h36zM512 510h27l-331 -700h-27l90 188l-243 512h28l228 -484z" />
    <glyph glyph-name="uni0233" unicode="&#x233;" horiz-adv-x="567" 
d="M384 635v-22h-200v22h200zM512 510h27l-331 -700h-27l90 188l-243 512h28l228 -484z" />
    <glyph glyph-name="uni1EF9" unicode="&#x1ef9;" horiz-adv-x="567" 
d="M214 672c-36 0 -64 -28 -64 -66h-21c0 49 35 86 84 86c66 0 83 -72 141 -72c37 0 65 28 65 66h21c0 -49 -36 -87 -84 -87c-67 0 -84 73 -142 73zM512 510h27l-331 -700h-27l90 188l-243 512h28l228 -484z" />
    <glyph glyph-name="z" unicode="z" horiz-adv-x="503" 
d="M88 23h362v-23h-397v17l356 470h-352v23h386v-17z" />
    <glyph glyph-name="zacute" unicode="&#x17a;" horiz-adv-x="503" 
d="M374 703l-115 -111h-28l107 111h36zM88 23h362v-23h-397v17l356 470h-352v23h386v-17z" />
    <glyph glyph-name="zcaron" unicode="&#x17e;" horiz-adv-x="503" 
d="M268 592h-32l-102 111h25l93 -96l92 96h25zM88 23h362v-23h-397v17l356 470h-352v23h386v-17z" />
    <glyph glyph-name="zdotaccent" unicode="&#x17c;" horiz-adv-x="503" 
d="M252 606c-14 0 -25 11 -25 25s11 25 25 25s25 -11 25 -25s-11 -25 -25 -25zM88 23h362v-23h-397v17l356 470h-352v23h386v-17z" />
    <glyph glyph-name="uni1E93" unicode="&#x1e93;" horiz-adv-x="503" 
d="M88 23h362v-23h-397v17l356 470h-352v23h386v-17zM252 -96c14 0 25 -11 25 -25s-11 -25 -25 -25s-25 11 -25 25s11 25 25 25z" />
    <glyph glyph-name="a.ss01" horiz-adv-x="528" 
d="M257 522c113 0 189 -74 189 -187v-335h-24v85c-30 -58 -95 -97 -174 -97c-110 0 -193 74 -193 173s83 173 193 173c79 0 144 -39 174 -97v97c0 100 -66 165 -165 165c-89 0 -151 -52 -162 -131h-25c13 93 84 154 187 154zM251 11c97 0 171 64 171 150s-74 150 -171 150
s-171 -64 -171 -150s74 -150 171 -150z" />
    <glyph glyph-name="aacute.ss01" horiz-adv-x="528" 
d="M380 703l-115 -111h-28l107 111h36zM257 522c113 0 189 -74 189 -187v-335h-24v85c-30 -58 -95 -97 -174 -97c-110 0 -193 74 -193 173s83 173 193 173c79 0 144 -39 174 -97v97c0 100 -66 165 -165 165c-89 0 -151 -52 -162 -131h-25c13 93 84 154 187 154zM251 11
c97 0 171 64 171 150s-74 150 -171 150s-171 -64 -171 -150s74 -150 171 -150z" />
    <glyph glyph-name="abreve.ss01" horiz-adv-x="528" 
d="M258 582c-62 0 -110 47 -110 109h21c0 -51 39 -90 89 -90c51 0 89 39 89 90h22c0 -62 -48 -109 -111 -109zM257 522c113 0 189 -74 189 -187v-335h-24v85c-30 -58 -95 -97 -174 -97c-110 0 -193 74 -193 173s83 173 193 173c79 0 144 -39 174 -97v97
c0 100 -66 165 -165 165c-89 0 -151 -52 -162 -131h-25c13 93 84 154 187 154zM251 11c97 0 171 64 171 150s-74 150 -171 150s-171 -64 -171 -150s74 -150 171 -150z" />
    <glyph glyph-name="uni01CE.ss01" horiz-adv-x="528" 
d="M275 592h-32l-102 111h25l93 -96l92 96h25zM257 522c113 0 189 -74 189 -187v-335h-24v85c-30 -58 -95 -97 -174 -97c-110 0 -193 74 -193 173s83 173 193 173c79 0 144 -39 174 -97v97c0 100 -66 165 -165 165c-89 0 -151 -52 -162 -131h-25c13 93 84 154 187 154z
M251 11c97 0 171 64 171 150s-74 150 -171 150s-171 -64 -171 -150s74 -150 171 -150z" />
    <glyph glyph-name="acircumflex.ss01" horiz-adv-x="528" 
d="M259 687l-93 -95h-25l102 111h32l101 -111h-25zM257 522c113 0 189 -74 189 -187v-335h-24v85c-30 -58 -95 -97 -174 -97c-110 0 -193 74 -193 173s83 173 193 173c79 0 144 -39 174 -97v97c0 100 -66 165 -165 165c-89 0 -151 -52 -162 -131h-25c13 93 84 154 187 154z
M251 11c97 0 171 64 171 150s-74 150 -171 150s-171 -64 -171 -150s74 -150 171 -150z" />
    <glyph glyph-name="uni0201.ss01" horiz-adv-x="528" 
d="M190 592h-24l-86 111h31zM355 592h-25l-85 111h31zM257 522c113 0 189 -74 189 -187v-335h-24v85c-30 -58 -95 -97 -174 -97c-110 0 -193 74 -193 173s83 173 193 173c79 0 144 -39 174 -97v97c0 100 -66 165 -165 165c-89 0 -151 -52 -162 -131h-25
c13 93 84 154 187 154zM251 11c97 0 171 64 171 150s-74 150 -171 150s-171 -64 -171 -150s74 -150 171 -150z" />
    <glyph glyph-name="adieresis.ss01" horiz-adv-x="528" 
d="M162 606c-14 0 -25 11 -25 25c0 13 11 24 25 24c13 0 24 -11 24 -24c0 -14 -11 -25 -24 -25zM356 606c-14 0 -25 11 -25 25c0 13 11 24 25 24c13 0 24 -11 24 -24c0 -14 -11 -25 -24 -25zM257 522c113 0 189 -74 189 -187v-335h-24v85c-30 -58 -95 -97 -174 -97
c-110 0 -193 74 -193 173s83 173 193 173c79 0 144 -39 174 -97v97c0 100 -66 165 -165 165c-89 0 -151 -52 -162 -131h-25c13 93 84 154 187 154zM251 11c97 0 171 64 171 150s-74 150 -171 150s-171 -64 -171 -150s74 -150 171 -150z" />
    <glyph glyph-name="uni1EA1.ss01" horiz-adv-x="528" 
d="M257 522c113 0 189 -74 189 -187v-335h-24v85c-30 -58 -95 -97 -174 -97c-110 0 -193 74 -193 173s83 173 193 173c79 0 144 -39 174 -97v97c0 100 -66 165 -165 165c-89 0 -151 -52 -162 -131h-25c13 93 84 154 187 154zM251 11c97 0 171 64 171 150s-74 150 -171 150
s-171 -64 -171 -150s74 -150 171 -150zM258 -96c14 0 25 -11 25 -25s-11 -25 -25 -25s-25 11 -25 25s11 25 25 25z" />
    <glyph glyph-name="agrave.ss01" horiz-adv-x="528" 
d="M279 592h-28l-115 111h36zM257 522c113 0 189 -74 189 -187v-335h-24v85c-30 -58 -95 -97 -174 -97c-110 0 -193 74 -193 173s83 173 193 173c79 0 144 -39 174 -97v97c0 100 -66 165 -165 165c-89 0 -151 -52 -162 -131h-25c13 93 84 154 187 154zM251 11
c97 0 171 64 171 150s-74 150 -171 150s-171 -64 -171 -150s74 -150 171 -150z" />
    <glyph glyph-name="uni0203.ss01" horiz-adv-x="528" 
d="M258 672c-50 0 -89 -38 -89 -90h-21c0 62 48 110 110 110c63 0 111 -48 111 -110h-22c0 52 -38 90 -89 90zM257 522c113 0 189 -74 189 -187v-335h-24v85c-30 -58 -95 -97 -174 -97c-110 0 -193 74 -193 173s83 173 193 173c79 0 144 -39 174 -97v97
c0 100 -66 165 -165 165c-89 0 -151 -52 -162 -131h-25c13 93 84 154 187 154zM251 11c97 0 171 64 171 150s-74 150 -171 150s-171 -64 -171 -150s74 -150 171 -150z" />
    <glyph glyph-name="amacron.ss01" horiz-adv-x="528" 
d="M358 635v-22h-200v22h200zM257 522c113 0 189 -74 189 -187v-335h-24v85c-30 -58 -95 -97 -174 -97c-110 0 -193 74 -193 173s83 173 193 173c79 0 144 -39 174 -97v97c0 100 -66 165 -165 165c-89 0 -151 -52 -162 -131h-25c13 93 84 154 187 154zM251 11
c97 0 171 64 171 150s-74 150 -171 150s-171 -64 -171 -150s74 -150 171 -150z" />
    <glyph glyph-name="aogonek.ss01" horiz-adv-x="528" 
d="M401 -181c23 0 45 9 62 23v-23c-18 -12 -40 -20 -64 -20c-46 0 -82 36 -82 81c0 51 44 95 105 122v83c-30 -58 -95 -97 -174 -97c-110 0 -193 74 -193 173s83 173 193 173c79 0 144 -39 174 -97v97c0 100 -66 165 -165 165c-89 0 -151 -52 -162 -131h-25
c13 93 84 154 187 154c113 0 189 -74 189 -187v-335h-1c-62 -28 -106 -71 -106 -117c0 -37 27 -64 62 -64zM251 11c97 0 171 64 171 150s-74 150 -171 150s-171 -64 -171 -150s74 -150 171 -150z" />
    <glyph glyph-name="aring.ss01" horiz-adv-x="528" 
d="M258 576c-36 0 -65 28 -65 65s29 65 65 65c37 0 66 -28 66 -65s-29 -65 -66 -65zM258 689c-26 0 -46 -20 -46 -48c0 -27 20 -48 46 -48c27 0 47 21 47 48c0 28 -20 48 -47 48zM257 522c113 0 189 -74 189 -187v-335h-24v85c-30 -58 -95 -97 -174 -97
c-110 0 -193 74 -193 173s83 173 193 173c79 0 144 -39 174 -97v97c0 100 -66 165 -165 165c-89 0 -151 -52 -162 -131h-25c13 93 84 154 187 154zM251 11c97 0 171 64 171 150s-74 150 -171 150s-171 -64 -171 -150s74 -150 171 -150z" />
    <glyph glyph-name="atilde.ss01" horiz-adv-x="528" 
d="M188 672c-36 0 -64 -28 -64 -66h-21c0 49 35 86 84 86c66 0 83 -72 141 -72c37 0 65 28 65 66h21c0 -49 -36 -87 -84 -87c-67 0 -84 73 -142 73zM257 522c113 0 189 -74 189 -187v-335h-24v85c-30 -58 -95 -97 -174 -97c-110 0 -193 74 -193 173s83 173 193 173
c79 0 144 -39 174 -97v97c0 100 -66 165 -165 165c-89 0 -151 -52 -162 -131h-25c13 93 84 154 187 154zM251 11c97 0 171 64 171 150s-74 150 -171 150s-171 -64 -171 -150s74 -150 171 -150z" />
    <glyph glyph-name="k.ss02" horiz-adv-x="507" 
d="M441 0l-234 246l-95 -97v-149h-24v720h24v-539l322 329h33l-243 -247l250 -263h-33z" />
    <glyph glyph-name="uni0137.ss02" horiz-adv-x="507" 
d="M224 263l250 -263h-33l-234 246l-95 -97v-149h-24v720h24v-539l322 329h33zM237 -211l26 131h28l-34 -131h-20z" />
    <glyph glyph-name="f.ss06" unicode="&#xe01a;" horiz-adv-x="362" 
d="M321 698c-88 0 -145 -36 -145 -135v-53h145v-22h-145v-502c0 -128 -98 -225 -226 -225v23c116 0 202 87 202 202v502h-109v22h109v55c0 112 66 156 169 156v-23z" />
    <glyph glyph-name="h.ss06" unicode="&#xe01b;" horiz-adv-x="629" 
d="M547 -14c0 -115 86 -202 201 -202v-23c-128 0 -225 97 -225 225v311c0 122 -80 201 -202 201c-126 0 -209 -80 -209 -203v-295h-24v720h24v-334c32 85 110 136 214 136c132 0 221 -87 221 -220v-316z" />
    <glyph glyph-name="k.ss06" unicode="&#xe01c;" horiz-adv-x="484" 
d="M484 -24c149 -117 215 -146 327 -146v-24c-121 0 -197 36 -363 170l-336 267v-243h-24v720h24v-450l300 240h35l-314 -253z" />
    <glyph glyph-name="l.ss06" unicode="&#xe01d;" horiz-adv-x="199" 
d="M313 -239c-128 0 -225 97 -225 225v734h24v-734c0 -115 86 -202 201 -202v-23z" />
    <glyph glyph-name="m.ss06" unicode="&#xe01e;" horiz-adv-x="968" 
d="M886 -14c0 -115 86 -202 202 -202v-23c-128 0 -226 97 -226 225v335c0 107 -70 177 -177 177c-112 0 -186 -71 -186 -179v-319h-24v321c0 107 -70 177 -178 177c-111 0 -185 -71 -185 -179v-319h-24v510h24v-105c30 73 98 117 190 117c96 0 166 -52 189 -135
c26 84 98 135 198 135c119 0 197 -78 197 -196v-340z" />
    <glyph glyph-name="n.ss06" unicode="&#xe01f;" horiz-adv-x="629" 
d="M547 -14c0 -115 86 -202 201 -202v-23c-128 0 -225 97 -225 225v311c0 122 -80 201 -202 201c-126 0 -209 -80 -209 -203v-295h-24v510h24v-124c32 85 110 136 214 136c132 0 221 -87 221 -220v-316z" />
    <glyph glyph-name="u.ss07" unicode="&#xe020;" horiz-adv-x="609" 
d="M498 510h24v-510h-24v116c-31 -80 -105 -128 -205 -128c-126 0 -211 83 -211 210v452c0 103 -76 179 -179 179c-102 0 -178 -76 -178 -179h-25c0 116 87 203 203 203s203 -87 203 -203v-447c0 -115 76 -191 192 -191c120 0 200 77 200 193v305z" />
    <glyph glyph-name="i.ss08" unicode="&#xe021;" horiz-adv-x="199" 
d="M100 613c-36 0 -63 27 -63 63c0 35 27 62 63 62c35 0 62 -27 62 -62c0 -36 -27 -63 -62 -63zM88 0v510h24v-510h-24z" />
    <glyph glyph-name="j.ss08" unicode="&#xe022;" horiz-adv-x="206" 
d="M106 613c-35 0 -62 27 -62 63c0 35 27 62 62 62c36 0 63 -27 63 -62c0 -36 -27 -63 -63 -63zM-21 -202v23c70 0 115 35 115 116v573h24v-575c0 -94 -54 -137 -139 -137z" />
    <glyph glyph-name="t.ss09" horiz-adv-x="371" 
d="M330 510v-22h-136v-488h-24v488h-129v22h129v150h24v-150h136z" />
    <glyph glyph-name="tbar.ss09" horiz-adv-x="371" 
d="M330 488h-136v-225h126v-20h-126v-243h-24v243h-118v20h118v225h-129v22h129v150h24v-150h136v-22z" />
    <glyph glyph-name="tcaron.ss09" horiz-adv-x="371" 
d="M320 746l-29 -171h-19l21 171h27zM330 510v-22h-136v-488h-24v488h-129v22h129v150h24v-150h136z" />
    <glyph glyph-name="uni0163.ss09" horiz-adv-x="371" 
d="M194 0h-1l-35 -45c8 3 18 5 27 5c44 0 77 -35 77 -80c0 -46 -35 -81 -82 -81c-46 0 -81 35 -81 81h20c0 -36 27 -63 61 -63c35 0 62 27 62 63c0 35 -27 62 -62 62c-14 0 -31 -7 -40 -16l-16 8l48 66h-2v488h-129v22h129v150h24v-150h136v-22h-136v-488z" />
    <glyph glyph-name="uni021B.ss09" horiz-adv-x="371" 
d="M194 510h136v-22h-136v-488h-24v488h-129v22h129v150h24v-150zM151 -211l26 131h28l-34 -131h-20z" />
    <glyph glyph-name="uni1E6D.ss09" horiz-adv-x="371" 
d="M194 510h136v-22h-136v-488h-24v488h-129v22h129v150h24v-150zM183 -96c14 0 25 -11 25 -25s-11 -25 -25 -25s-25 11 -25 25s11 25 25 25z" />
    <glyph glyph-name="f_t.dlig" horiz-adv-x="683" 
d="M642 510v-22h-135v-488h-24v488h-307v-488h-24v488h-109v22h109v55c0 112 66 156 169 156v-23c-88 0 -145 -36 -145 -135v-53h307v148l24 2v-150h135z" />
    <glyph glyph-name="t_t.dlig" horiz-adv-x="677" 
d="M636 510v-22h-135v-488h-24v488h-283v-488h-24v488h-129v22h129v148l24 2v-150h283v148l24 2v-150h135z" />
    <glyph glyph-name="ordfeminine" unicode="&#xaa;" horiz-adv-x="412" 
d="M330 690h21v-270h-21v71c-22 -48 -69 -80 -126 -80c-81 0 -142 62 -142 144s61 144 142 144c57 0 104 -32 126 -80v71zM207 431c69 0 123 53 123 124s-54 124 -123 124c-70 0 -123 -53 -123 -124s53 -124 123 -124z" />
    <glyph glyph-name="ordmasculine" unicode="&#xba;" horiz-adv-x="414" 
d="M207 411c-83 0 -145 62 -145 144s62 144 145 144c82 0 145 -62 145 -144s-63 -144 -145 -144zM207 431c69 0 123 53 123 124s-54 124 -123 124c-70 0 -123 -53 -123 -124s53 -124 123 -124z" />
    <glyph glyph-name="zero" unicode="0" horiz-adv-x="656" 
d="M328 -12c-152 0 -258 146 -258 357s106 357 258 357s258 -146 258 -357s-106 -357 -258 -357zM328 13c135 0 231 136 231 332s-96 332 -231 332s-231 -136 -231 -332s96 -332 231 -332z" />
    <glyph glyph-name="one" unicode="1" horiz-adv-x="346" 
d="M224 690h17v-690h-25v659l-177 -96v27z" />
    <glyph glyph-name="two" unicode="2" horiz-adv-x="527" 
d="M99 24h367v-24h-406v19l283 321c51 58 84 111 84 169c0 96 -71 167 -166 167s-166 -71 -166 -167h-27c0 110 83 193 193 193s193 -83 193 -193c0 -65 -34 -120 -90 -184z" />
    <glyph glyph-name="three" unicode="3" horiz-adv-x="521" 
d="M329 357c76 -22 130 -90 130 -179c0 -108 -86 -190 -200 -190s-200 82 -200 190h27c0 -94 74 -165 173 -165s173 71 173 165c0 95 -68 166 -158 166h-85v25h85c82 0 142 67 142 155c0 87 -67 153 -157 153s-158 -66 -158 -153h-27c0 101 79 178 185 178
c105 0 184 -77 184 -178c0 -81 -47 -145 -114 -167z" />
    <glyph glyph-name="four" unicode="4" horiz-adv-x="555" 
d="M524 209v-24h-113v-185h-25v185h-345v19l346 486h24v-481h113zM72 209h314v442z" />
    <glyph glyph-name="five" unicode="5" horiz-adv-x="567" 
d="M295 424c124 0 217 -93 217 -218s-93 -218 -218 -218s-219 93 -219 218h27c0 -110 82 -193 192 -193c109 0 191 83 191 193s-82 193 -191 193c-69 0 -144 -38 -176 -88h-24l30 379h344v-24h-321l-27 -324c31 47 106 82 175 82z" />
    <glyph glyph-name="six" unicode="6" horiz-adv-x="550" 
d="M278 424c123 0 217 -94 217 -218s-94 -218 -218 -218c-125 0 -219 94 -219 218c0 51 15 96 42 133l255 351h32l-214 -293c31 18 67 27 105 27zM277 13c108 0 192 83 192 193s-84 193 -192 193c-109 0 -193 -83 -193 -193s84 -193 193 -193z" />
    <glyph glyph-name="seven" unicode="7" horiz-adv-x="529" 
d="M55 690h435v-19l-329 -671h-30l329 666h-405v24z" />
    <glyph glyph-name="eight" unicode="8" horiz-adv-x="529" 
d="M329 357c82 -24 138 -93 138 -179c0 -108 -87 -190 -202 -190c-116 0 -203 82 -203 190c0 86 56 155 139 179c-74 24 -123 89 -123 168c0 100 80 177 187 177c106 0 186 -77 186 -177c0 -79 -49 -144 -122 -168zM105 523c0 -87 68 -154 160 -154c91 0 159 67 159 154
c0 88 -68 154 -159 154c-92 0 -160 -66 -160 -154zM265 13c100 0 175 71 175 166c0 94 -75 165 -175 165c-101 0 -176 -71 -176 -165c0 -95 75 -166 176 -166z" />
    <glyph glyph-name="nine" unicode="9" horiz-adv-x="551" 
d="M275 702c124 0 219 -94 219 -218c0 -51 -16 -95 -43 -133l-254 -351h-31l214 294c-32 -18 -68 -28 -107 -28c-123 0 -217 94 -217 218s95 218 219 218zM275 291c109 0 192 83 192 193s-83 193 -192 193s-192 -83 -192 -193s83 -193 192 -193z" />
    <glyph glyph-name="zero.subs" horiz-adv-x="396" 
d="M198 -121c-91 0 -156 88 -156 214s65 214 156 214s156 -88 156 -214s-65 -214 -156 -214zM198 -99c77 0 133 78 133 192s-56 192 -133 192s-133 -78 -133 -192s56 -192 133 -192z" />
    <glyph glyph-name="one.subs" horiz-adv-x="208" 
d="M133 300h15v-414h-22v387l-103 -56v23z" />
    <glyph glyph-name="two.subs" horiz-adv-x="320" 
d="M69 -94h214v-20h-247v16l169 189c24 29 49 61 49 99c0 55 -41 96 -95 96c-55 0 -96 -41 -96 -96h-22c0 66 50 117 118 117c67 0 118 -51 118 -117c0 -44 -26 -79 -54 -111z" />
    <glyph glyph-name="three.subs" horiz-adv-x="315" 
d="M205 101c45 -15 74 -56 74 -106c0 -66 -52 -116 -122 -116c-69 0 -122 50 -122 116h23c0 -54 43 -95 99 -95c57 0 100 41 100 95s-40 96 -92 96h-52v18h52c47 0 83 40 83 90s-39 87 -91 87c-51 0 -90 -37 -90 -87h-23c0 61 49 108 113 108c65 0 113 -47 113 -107
c0 -49 -27 -85 -65 -99z" />
    <glyph glyph-name="four.subs" horiz-adv-x="339" 
d="M320 14v-20h-66v-108h-22v108h-206v16l205 290h23v-286h66zM52 14h180v256z" />
    <glyph glyph-name="five.subs" horiz-adv-x="342" 
d="M179 141c75 0 131 -56 131 -130c0 -76 -56 -132 -132 -132c-75 0 -133 56 -133 132h23c0 -63 47 -111 110 -111s110 48 110 111c0 62 -47 110 -110 110c-39 0 -82 -22 -100 -50h-22l19 229h209v-20h-190l-15 -183c19 25 62 44 100 44z" />
    <glyph glyph-name="six.subs" horiz-adv-x="333" 
d="M170 142c74 0 131 -58 131 -131c0 -75 -57 -132 -133 -132c-75 0 -133 57 -133 132c0 30 9 58 25 80l151 209h27l-122 -170c15 8 34 12 54 12zM168 -99c63 0 110 47 110 110c0 62 -47 110 -110 110c-62 0 -110 -47 -110 -110s48 -110 110 -110z" />
    <glyph glyph-name="seven.subs" horiz-adv-x="319" 
d="M34 300h262v-17l-194 -397h-24l192 393h-236v21z" />
    <glyph glyph-name="eight.subs" horiz-adv-x="321" 
d="M206 100c47 -16 79 -57 79 -107c0 -65 -54 -114 -124 -114s-123 49 -123 114c0 50 32 91 79 107c-42 16 -70 53 -70 100c0 61 50 107 114 107c66 0 115 -46 115 -107c0 -46 -28 -84 -70 -100zM70 198c0 -51 40 -89 91 -89c52 0 92 38 92 89c0 50 -40 87 -92 87
c-51 0 -91 -37 -91 -87zM161 -99c57 0 101 40 101 94s-44 95 -101 95c-56 0 -100 -41 -100 -95c0 -53 43 -94 100 -94z" />
    <glyph glyph-name="nine.subs" horiz-adv-x="333" 
d="M167 307c75 0 133 -57 133 -132c0 -29 -10 -56 -27 -80l-149 -209h-25l121 170c-16 -8 -35 -12 -55 -12c-73 0 -131 57 -131 131c0 75 58 132 133 132zM167 65c63 0 110 47 110 110s-47 111 -110 111s-111 -48 -111 -111c0 -62 48 -110 111 -110z" />
    <glyph glyph-name="zero.dnom" horiz-adv-x="396" 
d="M198 -7c-91 0 -156 88 -156 214s65 214 156 214s156 -88 156 -214s-65 -214 -156 -214zM198 15c77 0 133 78 133 192s-56 192 -133 192s-133 -78 -133 -192s56 -192 133 -192z" />
    <glyph glyph-name="one.dnom" horiz-adv-x="208" 
d="M133 414h15v-414h-22v387l-103 -56v23z" />
    <glyph glyph-name="two.dnom" horiz-adv-x="320" 
d="M69 20h214v-20h-247v16l169 189c24 29 49 61 49 99c0 55 -41 96 -95 96c-55 0 -96 -41 -96 -96h-22c0 66 50 117 118 117c67 0 118 -51 118 -117c0 -44 -26 -79 -54 -111z" />
    <glyph glyph-name="three.dnom" horiz-adv-x="315" 
d="M205 215c45 -15 74 -56 74 -106c0 -66 -52 -116 -122 -116c-69 0 -122 50 -122 116h23c0 -54 43 -95 99 -95c57 0 100 41 100 95s-40 96 -92 96h-52v18h52c47 0 83 40 83 90s-39 87 -91 87c-51 0 -90 -37 -90 -87h-23c0 61 49 108 113 108c65 0 113 -47 113 -107
c0 -49 -27 -85 -65 -99z" />
    <glyph glyph-name="four.dnom" horiz-adv-x="339" 
d="M320 128v-20h-66v-108h-22v108h-206v16l205 290h23v-286h66zM52 128h180v256z" />
    <glyph glyph-name="five.dnom" horiz-adv-x="342" 
d="M179 255c75 0 131 -56 131 -130c0 -76 -56 -132 -132 -132c-75 0 -133 56 -133 132h23c0 -63 47 -111 110 -111s110 48 110 111c0 62 -47 110 -110 110c-39 0 -82 -22 -100 -50h-22l19 229h209v-20h-190l-15 -183c19 25 62 44 100 44z" />
    <glyph glyph-name="six.dnom" horiz-adv-x="333" 
d="M170 256c74 0 131 -58 131 -131c0 -75 -57 -132 -133 -132c-75 0 -133 57 -133 132c0 30 9 58 25 80l151 209h27l-122 -170c15 8 34 12 54 12zM168 15c63 0 110 47 110 110c0 62 -47 110 -110 110c-62 0 -110 -47 -110 -110s48 -110 110 -110z" />
    <glyph glyph-name="seven.dnom" horiz-adv-x="319" 
d="M34 414h262v-17l-194 -397h-24l192 393h-236v21z" />
    <glyph glyph-name="eight.dnom" horiz-adv-x="321" 
d="M206 214c47 -16 79 -57 79 -107c0 -65 -54 -114 -124 -114s-123 49 -123 114c0 50 32 91 79 107c-42 16 -70 53 -70 100c0 61 50 107 114 107c66 0 115 -46 115 -107c0 -46 -28 -84 -70 -100zM70 312c0 -51 40 -89 91 -89c52 0 92 38 92 89c0 50 -40 87 -92 87
c-51 0 -91 -37 -91 -87zM161 15c57 0 101 40 101 94s-44 95 -101 95c-56 0 -100 -41 -100 -95c0 -53 43 -94 100 -94z" />
    <glyph glyph-name="nine.dnom" horiz-adv-x="333" 
d="M167 421c75 0 133 -57 133 -132c0 -29 -10 -56 -27 -80l-149 -209h-25l121 170c-16 -8 -35 -12 -55 -12c-73 0 -131 57 -131 131c0 75 58 132 133 132zM167 179c63 0 110 47 110 110s-47 111 -110 111s-111 -48 -111 -111c0 -62 48 -110 111 -110z" />
    <glyph glyph-name="zero.numr" horiz-adv-x="396" 
d="M198 269c-91 0 -156 88 -156 214s65 214 156 214s156 -88 156 -214s-65 -214 -156 -214zM198 291c77 0 133 78 133 192s-56 192 -133 192s-133 -78 -133 -192s56 -192 133 -192z" />
    <glyph glyph-name="one.numr" horiz-adv-x="208" 
d="M133 690h15v-414h-22v387l-103 -56v23z" />
    <glyph glyph-name="two.numr" horiz-adv-x="320" 
d="M69 296h214v-20h-247v16l169 189c24 29 49 61 49 99c0 55 -41 96 -95 96c-55 0 -96 -41 -96 -96h-22c0 66 50 117 118 117c67 0 118 -51 118 -117c0 -44 -26 -79 -54 -111z" />
    <glyph glyph-name="three.numr" horiz-adv-x="315" 
d="M205 491c45 -15 74 -56 74 -106c0 -66 -52 -116 -122 -116c-69 0 -122 50 -122 116h23c0 -54 43 -95 99 -95c57 0 100 41 100 95s-40 96 -92 96h-52v18h52c47 0 83 40 83 90s-39 87 -91 87c-51 0 -90 -37 -90 -87h-23c0 61 49 108 113 108c65 0 113 -47 113 -107
c0 -49 -27 -85 -65 -99z" />
    <glyph glyph-name="four.numr" horiz-adv-x="339" 
d="M320 404v-20h-66v-108h-22v108h-206v16l205 290h23v-286h66zM52 404h180v256z" />
    <glyph glyph-name="five.numr" horiz-adv-x="342" 
d="M179 531c75 0 131 -56 131 -130c0 -76 -56 -132 -132 -132c-75 0 -133 56 -133 132h23c0 -63 47 -111 110 -111s110 48 110 111c0 62 -47 110 -110 110c-39 0 -82 -22 -100 -50h-22l19 229h209v-20h-190l-15 -183c19 25 62 44 100 44z" />
    <glyph glyph-name="six.numr" horiz-adv-x="333" 
d="M170 532c74 0 131 -58 131 -131c0 -75 -57 -132 -133 -132c-75 0 -133 57 -133 132c0 30 9 58 25 80l151 209h27l-122 -170c15 8 34 12 54 12zM168 291c63 0 110 47 110 110c0 62 -47 110 -110 110c-62 0 -110 -47 -110 -110s48 -110 110 -110z" />
    <glyph glyph-name="seven.numr" horiz-adv-x="319" 
d="M34 690h262v-17l-194 -397h-24l192 393h-236v21z" />
    <glyph glyph-name="eight.numr" horiz-adv-x="321" 
d="M206 490c47 -16 79 -57 79 -107c0 -65 -54 -114 -124 -114s-123 49 -123 114c0 50 32 91 79 107c-42 16 -70 53 -70 100c0 61 50 107 114 107c66 0 115 -46 115 -107c0 -46 -28 -84 -70 -100zM70 588c0 -51 40 -89 91 -89c52 0 92 38 92 89c0 50 -40 87 -92 87
c-51 0 -91 -37 -91 -87zM161 291c57 0 101 40 101 94s-44 95 -101 95c-56 0 -100 -41 -100 -95c0 -53 43 -94 100 -94z" />
    <glyph glyph-name="nine.numr" horiz-adv-x="333" 
d="M167 697c75 0 133 -57 133 -132c0 -29 -10 -56 -27 -80l-149 -209h-25l121 170c-16 -8 -35 -12 -55 -12c-73 0 -131 57 -131 131c0 75 58 132 133 132zM167 455c63 0 110 47 110 110s-47 111 -110 111s-111 -48 -111 -111c0 -62 48 -110 111 -110z" />
    <glyph glyph-name="uni2070" unicode="&#x2070;" horiz-adv-x="396" 
d="M198 359c-91 0 -156 88 -156 214s65 214 156 214s156 -88 156 -214s-65 -214 -156 -214zM198 381c77 0 133 78 133 192s-56 192 -133 192s-133 -78 -133 -192s56 -192 133 -192z" />
    <glyph glyph-name="uni00B9" unicode="&#xb9;" horiz-adv-x="208" 
d="M133 780h15v-414h-22v387l-103 -56v23z" />
    <glyph glyph-name="uni00B2" unicode="&#xb2;" horiz-adv-x="320" 
d="M69 386h214v-20h-247v16l169 189c24 29 49 61 49 99c0 55 -41 96 -95 96c-55 0 -96 -41 -96 -96h-22c0 66 50 117 118 117c67 0 118 -51 118 -117c0 -44 -26 -79 -54 -111z" />
    <glyph glyph-name="uni00B3" unicode="&#xb3;" horiz-adv-x="315" 
d="M205 581c45 -15 74 -56 74 -106c0 -66 -52 -116 -122 -116c-69 0 -122 50 -122 116h23c0 -54 43 -95 99 -95c57 0 100 41 100 95s-40 96 -92 96h-52v18h52c47 0 83 40 83 90s-39 87 -91 87c-51 0 -90 -37 -90 -87h-23c0 61 49 108 113 108c65 0 113 -47 113 -107
c0 -49 -27 -85 -65 -99z" />
    <glyph glyph-name="uni2074" unicode="&#x2074;" horiz-adv-x="339" 
d="M320 494v-20h-66v-108h-22v108h-206v16l205 290h23v-286h66zM52 494h180v256z" />
    <glyph glyph-name="uni2075" unicode="&#x2075;" horiz-adv-x="342" 
d="M179 621c75 0 131 -56 131 -130c0 -76 -56 -132 -132 -132c-75 0 -133 56 -133 132h23c0 -63 47 -111 110 -111s110 48 110 111c0 62 -47 110 -110 110c-39 0 -82 -22 -100 -50h-22l19 229h209v-20h-190l-15 -183c19 25 62 44 100 44z" />
    <glyph glyph-name="uni2076" unicode="&#x2076;" horiz-adv-x="333" 
d="M170 622c74 0 131 -58 131 -131c0 -75 -57 -132 -133 -132c-75 0 -133 57 -133 132c0 30 9 58 25 80l151 209h27l-122 -170c15 8 34 12 54 12zM168 381c63 0 110 47 110 110c0 62 -47 110 -110 110c-62 0 -110 -47 -110 -110s48 -110 110 -110z" />
    <glyph glyph-name="uni2077" unicode="&#x2077;" horiz-adv-x="319" 
d="M34 780h262v-17l-194 -397h-24l192 393h-236v21z" />
    <glyph glyph-name="uni2078" unicode="&#x2078;" horiz-adv-x="321" 
d="M206 580c47 -16 79 -57 79 -107c0 -65 -54 -114 -124 -114s-123 49 -123 114c0 50 32 91 79 107c-42 16 -70 53 -70 100c0 61 50 107 114 107c66 0 115 -46 115 -107c0 -46 -28 -84 -70 -100zM70 678c0 -51 40 -89 91 -89c52 0 92 38 92 89c0 50 -40 87 -92 87
c-51 0 -91 -37 -91 -87zM161 381c57 0 101 40 101 94s-44 95 -101 95c-56 0 -100 -41 -100 -95c0 -53 43 -94 100 -94z" />
    <glyph glyph-name="uni2079" unicode="&#x2079;" horiz-adv-x="333" 
d="M167 787c75 0 133 -57 133 -132c0 -29 -10 -56 -27 -80l-149 -209h-25l121 170c-16 -8 -35 -12 -55 -12c-73 0 -131 57 -131 131c0 75 58 132 133 132zM167 545c63 0 110 47 110 110s-47 111 -110 111s-111 -48 -111 -111c0 -62 48 -110 111 -110z" />
    <glyph glyph-name="fraction" unicode="&#x2044;" horiz-adv-x="161" 
d="M-182 0l498 690h27l-498 -690h-27z" />
    <glyph glyph-name="uni215F" unicode="&#x215f;" horiz-adv-x="419" 
d="M126 276v387l-103 -56v23l110 60h15v-414h-22zM574 690h27l-498 -690h-27z" />
    <glyph glyph-name="onehalf" unicode="&#xbd;" horiz-adv-x="744" 
d="M126 276v387l-103 -56v23l110 60h15v-414h-22zM574 690h27l-498 -690h-27zM493 20h214v-20h-247v16l169 189c24 29 49 61 49 99c0 55 -41 96 -95 96c-55 0 -96 -41 -96 -96h-22c0 66 50 117 118 117c67 0 118 -51 118 -117c0 -44 -26 -79 -54 -111z" />
    <glyph glyph-name="uni2189" unicode="&#x2189;" horiz-adv-x="877" 
d="M354 483c0 -126 -65 -214 -156 -214s-156 88 -156 214s65 214 156 214s156 -88 156 -214zM711 690h27l-498 -690h-27zM198 291c77 0 133 78 133 192s-56 192 -133 192s-133 -78 -133 -192s56 -192 133 -192zM766 215c45 -15 74 -56 74 -106c0 -66 -52 -116 -122 -116
c-69 0 -122 50 -122 116h23c0 -54 43 -95 99 -95c57 0 100 41 100 95s-40 96 -92 96h-52v18h52c47 0 83 40 83 90s-39 87 -91 87c-51 0 -90 -37 -90 -87h-23c0 61 49 108 113 108c65 0 113 -47 113 -107c0 -49 -27 -85 -65 -99z" />
    <glyph glyph-name="uni2153" unicode="&#x2153;" horiz-adv-x="740" 
d="M126 276v387l-103 -56v23l110 60h15v-414h-22zM574 690h27l-498 -690h-27zM629 215c45 -15 74 -56 74 -106c0 -66 -52 -116 -122 -116c-69 0 -122 50 -122 116h23c0 -54 43 -95 99 -95c57 0 100 41 100 95s-40 96 -92 96h-52v18h52c47 0 83 40 83 90s-39 87 -91 87
c-51 0 -90 -37 -90 -87h-23c0 61 49 108 113 108c65 0 113 -47 113 -107c0 -49 -27 -85 -65 -99z" />
    <glyph glyph-name="uni2154" unicode="&#x2154;" horiz-adv-x="842" 
d="M283 296v-20h-247v16l169 189c24 29 49 61 49 99c0 55 -41 96 -95 96c-55 0 -96 -41 -96 -96h-22c0 66 50 117 118 117c67 0 118 -51 118 -117c0 -44 -26 -79 -54 -111l-154 -173h214zM676 690h27l-498 -690h-27zM731 215c45 -15 74 -56 74 -106
c0 -66 -52 -116 -122 -116c-69 0 -122 50 -122 116h23c0 -54 43 -95 99 -95c57 0 100 41 100 95s-40 96 -92 96h-52v18h52c47 0 83 40 83 90s-39 87 -91 87c-51 0 -90 -37 -90 -87h-23c0 61 49 108 113 108c65 0 113 -47 113 -107c0 -49 -27 -85 -65 -99z" />
    <glyph glyph-name="onequarter" unicode="&#xbc;" horiz-adv-x="698" 
d="M126 276v387l-103 -56v23l110 60h15v-414h-22zM574 690h27l-498 -690h-27zM679 128v-20h-66v-108h-22v108h-206v16l205 290h23v-286h66zM411 128h180v256z" />
    <glyph glyph-name="threequarters" unicode="&#xbe;" horiz-adv-x="765" 
d="M279 385c0 -66 -52 -116 -122 -116c-69 0 -122 50 -122 116h23c0 -54 43 -95 99 -95c57 0 100 41 100 95s-40 96 -92 96h-52v18h52c47 0 83 40 83 90s-39 87 -91 87c-51 0 -90 -37 -90 -87h-23c0 61 49 108 113 108c65 0 113 -47 113 -107c0 -49 -27 -85 -65 -99
c45 -15 74 -56 74 -106zM641 690h27l-498 -690h-27zM746 128v-20h-66v-108h-22v108h-206v16l205 290h23v-286h66zM478 128h180v256z" />
    <glyph glyph-name="uni2155" unicode="&#x2155;" horiz-adv-x="772" 
d="M126 276v387l-103 -56v23l110 60h15v-414h-22zM574 690h27l-498 -690h-27zM608 255c75 0 131 -56 131 -130c0 -76 -56 -132 -132 -132c-75 0 -133 56 -133 132h23c0 -63 47 -111 110 -111s110 48 110 111c0 62 -47 110 -110 110c-39 0 -82 -22 -100 -50h-22l19 229h209
v-20h-190l-15 -183c19 25 62 44 100 44z" />
    <glyph glyph-name="uni2156" unicode="&#x2156;" horiz-adv-x="874" 
d="M283 296v-20h-247v16l169 189c24 29 49 61 49 99c0 55 -41 96 -95 96c-55 0 -96 -41 -96 -96h-22c0 66 50 117 118 117c67 0 118 -51 118 -117c0 -44 -26 -79 -54 -111l-154 -173h214zM676 690h27l-498 -690h-27zM710 255c75 0 131 -56 131 -130
c0 -76 -56 -132 -132 -132c-75 0 -133 56 -133 132h23c0 -63 47 -111 110 -111s110 48 110 111c0 62 -47 110 -110 110c-39 0 -82 -22 -100 -50h-22l19 229h209v-20h-190l-15 -183c19 25 62 44 100 44z" />
    <glyph glyph-name="uni2157" unicode="&#x2157;" horiz-adv-x="839" 
d="M279 385c0 -66 -52 -116 -122 -116c-69 0 -122 50 -122 116h23c0 -54 43 -95 99 -95c57 0 100 41 100 95s-40 96 -92 96h-52v18h52c47 0 83 40 83 90s-39 87 -91 87c-51 0 -90 -37 -90 -87h-23c0 61 49 108 113 108c65 0 113 -47 113 -107c0 -49 -27 -85 -65 -99
c45 -15 74 -56 74 -106zM641 690h27l-498 -690h-27zM675 255c75 0 131 -56 131 -130c0 -76 -56 -132 -132 -132c-75 0 -133 56 -133 132h23c0 -63 47 -111 110 -111s110 48 110 111c0 62 -47 110 -110 110c-39 0 -82 -22 -100 -50h-22l19 229h209v-20h-190l-15 -183
c19 25 62 44 100 44z" />
    <glyph glyph-name="uni2158" unicode="&#x2158;" horiz-adv-x="854" 
d="M232 276v108h-206v16l205 290h23v-286h66v-20h-66v-108h-22zM656 690h27l-498 -690h-27zM52 404h180v256zM690 255c75 0 131 -56 131 -130c0 -76 -56 -132 -132 -132c-75 0 -133 56 -133 132h23c0 -63 47 -111 110 -111s110 48 110 111c0 62 -47 110 -110 110
c-39 0 -82 -22 -100 -50h-22l19 229h209v-20h-190l-15 -183c19 25 62 44 100 44z" />
    <glyph glyph-name="uni2159" unicode="&#x2159;" horiz-adv-x="707" 
d="M126 276v387l-103 -56v23l110 60h15v-414h-22zM574 690h27l-498 -690h-27zM544 256c74 0 131 -58 131 -131c0 -75 -57 -132 -133 -132c-75 0 -133 57 -133 132c0 30 9 58 25 80l151 209h27l-122 -170c15 8 34 12 54 12zM542 15c63 0 110 47 110 110
c0 62 -47 110 -110 110c-62 0 -110 -47 -110 -110s48 -110 110 -110z" />
    <glyph glyph-name="uni215A" unicode="&#x215a;" horiz-adv-x="791" 
d="M310 401c0 -76 -56 -132 -132 -132c-75 0 -133 56 -133 132h23c0 -63 47 -111 110 -111s110 48 110 111c0 62 -47 110 -110 110c-39 0 -82 -22 -100 -50h-22l19 229h209v-20h-190l-15 -183c19 25 62 44 100 44c75 0 131 -56 131 -130zM658 690h27l-498 -690h-27zM628 256
c74 0 131 -58 131 -131c0 -75 -57 -132 -133 -132c-75 0 -133 57 -133 132c0 30 9 58 25 80l151 209h27l-122 -170c15 8 34 12 54 12zM626 15c63 0 110 47 110 110c0 62 -47 110 -110 110c-62 0 -110 -47 -110 -110s48 -110 110 -110z" />
    <glyph glyph-name="uni2150" unicode="&#x2150;" horiz-adv-x="797" 
d="M126 276v387l-103 -56v23l110 60h15v-414h-22zM574 690h27l-498 -690h-27zM512 414h262v-17l-194 -397h-24l192 393h-236v21z" />
    <glyph glyph-name="oneeighth" unicode="&#x215b;" horiz-adv-x="746" 
d="M126 276v387l-103 -56v23l110 60h15v-414h-22zM574 690h27l-498 -690h-27zM630 214c47 -16 79 -57 79 -107c0 -65 -54 -114 -124 -114s-123 49 -123 114c0 50 32 91 79 107c-42 16 -70 53 -70 100c0 61 50 107 114 107c66 0 115 -46 115 -107c0 -46 -28 -84 -70 -100z
M494 312c0 -51 40 -89 91 -89c52 0 92 38 92 89c0 50 -40 87 -92 87c-51 0 -91 -37 -91 -87zM585 15c57 0 101 40 101 94s-44 95 -101 95c-56 0 -100 -41 -100 -95c0 -53 43 -94 100 -94z" />
    <glyph glyph-name="threeeighths" unicode="&#x215c;" horiz-adv-x="813" 
d="M279 385c0 -66 -52 -116 -122 -116c-69 0 -122 50 -122 116h23c0 -54 43 -95 99 -95c57 0 100 41 100 95s-40 96 -92 96h-52v18h52c47 0 83 40 83 90s-39 87 -91 87c-51 0 -90 -37 -90 -87h-23c0 61 49 108 113 108c65 0 113 -47 113 -107c0 -49 -27 -85 -65 -99
c45 -15 74 -56 74 -106zM641 690h27l-498 -690h-27zM697 214c47 -16 79 -57 79 -107c0 -65 -54 -114 -124 -114s-123 49 -123 114c0 50 32 91 79 107c-42 16 -70 53 -70 100c0 61 50 107 114 107c66 0 115 -46 115 -107c0 -46 -28 -84 -70 -100zM561 312
c0 -51 40 -89 91 -89c52 0 92 38 92 89c0 50 -40 87 -92 87c-51 0 -91 -37 -91 -87zM652 15c57 0 101 40 101 94s-44 95 -101 95c-56 0 -100 -41 -100 -95c0 -53 43 -94 100 -94z" />
    <glyph glyph-name="fiveeighths" unicode="&#x215d;" horiz-adv-x="830" 
d="M310 401c0 -76 -56 -132 -132 -132c-75 0 -133 56 -133 132h23c0 -63 47 -111 110 -111s110 48 110 111c0 62 -47 110 -110 110c-39 0 -82 -22 -100 -50h-22l19 229h209v-20h-190l-15 -183c19 25 62 44 100 44c75 0 131 -56 131 -130zM658 690h27l-498 -690h-27zM714 214
c47 -16 79 -57 79 -107c0 -65 -54 -114 -124 -114s-123 49 -123 114c0 50 32 91 79 107c-42 16 -70 53 -70 100c0 61 50 107 114 107c66 0 115 -46 115 -107c0 -46 -28 -84 -70 -100zM578 312c0 -51 40 -89 91 -89c52 0 92 38 92 89c0 50 -40 87 -92 87
c-51 0 -91 -37 -91 -87zM669 15c57 0 101 40 101 94s-44 95 -101 95c-56 0 -100 -41 -100 -95c0 -53 43 -94 100 -94z" />
    <glyph glyph-name="seveneighths" unicode="&#x215e;" horiz-adv-x="757" 
d="M102 276h-24l192 393h-236v21h262v-17zM585 690h27l-498 -690h-27zM641 214c47 -16 79 -57 79 -107c0 -65 -54 -114 -124 -114s-123 49 -123 114c0 50 32 91 79 107c-42 16 -70 53 -70 100c0 61 50 107 114 107c66 0 115 -46 115 -107c0 -46 -28 -84 -70 -100zM505 312
c0 -51 40 -89 91 -89c52 0 92 38 92 89c0 50 -40 87 -92 87c-51 0 -91 -37 -91 -87zM596 15c57 0 101 40 101 94s-44 95 -101 95c-56 0 -100 -41 -100 -95c0 -53 43 -94 100 -94z" />
    <glyph glyph-name="uni2151" unicode="&#x2151;" horiz-adv-x="753" 
d="M126 276v387l-103 -56v23l110 60h15v-414h-22zM574 690h27l-498 -690h-27zM586 421c75 0 133 -57 133 -132c0 -29 -10 -56 -27 -80l-149 -209h-25l121 170c-16 -8 -35 -12 -55 -12c-73 0 -131 57 -131 131c0 75 58 132 133 132zM586 179c63 0 110 47 110 110
s-47 111 -110 111s-111 -48 -111 -111c0 -62 48 -110 111 -110z" />
    <glyph glyph-name="uni2152" unicode="&#x2152;" horiz-adv-x="1053" 
d="M126 276v387l-103 -56v23l110 60h15v-414h-22zM76 0l498 690h27l-498 -690h-27zM855 421c91 0 156 -88 156 -214s-65 -214 -156 -214s-156 88 -156 214s65 214 156 214zM472 354l110 60h15v-414h-22v387l-103 -56v23zM855 15c77 0 133 78 133 192s-56 192 -133 192
s-133 -78 -133 -192s56 -192 133 -192z" />
    <glyph glyph-name="period" unicode="." horiz-adv-x="207" 
d="M103 -4c-15 0 -27 12 -27 27c0 16 12 27 27 27c16 0 27 -11 27 -27c0 -15 -11 -27 -27 -27z" />
    <glyph glyph-name="comma" unicode="," horiz-adv-x="212" 
d="M42 -145l68 203h31l-77 -203h-22z" />
    <glyph glyph-name="colon" unicode=":" horiz-adv-x="217" 
d="M108 390c-15 0 -27 12 -27 27s12 27 27 27c16 0 27 -12 27 -27s-11 -27 -27 -27zM108 -4c-15 0 -27 12 -27 27c0 16 12 27 27 27c16 0 27 -11 27 -27c0 -15 -11 -27 -27 -27z" />
    <glyph glyph-name="semicolon" unicode=";" horiz-adv-x="228" 
d="M121 390c-15 0 -27 12 -27 27s12 27 27 27c16 0 27 -12 27 -27s-11 -27 -27 -27zM40 -145l68 203h31l-77 -203h-22z" />
    <glyph glyph-name="ellipsis" unicode="&#x2026;" horiz-adv-x="619" 
d="M103 -4c-15 0 -27 12 -27 27c0 16 12 27 27 27c16 0 27 -11 27 -27c0 -15 -11 -27 -27 -27zM309 -4c-15 0 -27 12 -27 27c0 16 12 27 27 27c16 0 27 -11 27 -27c0 -15 -11 -27 -27 -27zM515 -4c-15 0 -27 12 -27 27c0 16 12 27 27 27c16 0 27 -11 27 -27
c0 -15 -11 -27 -27 -27z" />
    <glyph glyph-name="exclam" unicode="!" horiz-adv-x="226" 
d="M102 156l-1 364v170h25v-170l-1 -364h-23zM113 -4c-15 0 -27 12 -27 27s12 27 27 27s27 -12 27 -27s-12 -27 -27 -27z" />
    <glyph glyph-name="exclamdown" unicode="&#xa1;" horiz-adv-x="226" 
d="M113 460c-15 0 -27 12 -27 27s12 27 27 27s27 -12 27 -27s-12 -27 -27 -27zM101 -180v170l1 364h23l1 -364v-170h-25z" />
    <glyph glyph-name="question" unicode="?" horiz-adv-x="476" 
d="M221 162v43c0 76 45 119 90 158c44 39 84 83 84 150c0 94 -70 165 -162 165s-163 -71 -163 -165h-25c0 107 80 189 188 189c107 0 188 -82 188 -189c0 -76 -47 -126 -91 -166c-45 -39 -85 -76 -85 -142v-43h-24zM233 -4c-15 0 -27 12 -27 27s12 27 27 27s27 -12 27 -27
s-12 -27 -27 -27z" />
    <glyph glyph-name="questiondown" unicode="&#xbf;" horiz-adv-x="466" 
d="M245 460c-15 0 -27 12 -27 27s12 27 27 27c16 0 27 -12 27 -27s-11 -27 -27 -27zM245 -192c-107 0 -188 82 -188 189c0 76 47 126 91 166c45 39 85 76 85 142v43h25v-43c0 -76 -45 -119 -91 -158c-44 -39 -84 -83 -84 -150c0 -94 70 -165 162 -165s163 71 163 165h26
c0 -107 -81 -189 -189 -189z" />
    <glyph glyph-name="periodcentered" unicode="&#xb7;" horiz-adv-x="196" 
d="M98 247c-16 0 -27 12 -27 27s11 27 27 27c15 0 27 -12 27 -27s-12 -27 -27 -27z" />
    <glyph glyph-name="bullet" unicode="&#x2022;" horiz-adv-x="273" 
d="M137 208c-38 0 -66 28 -66 66s28 66 66 66c37 0 65 -28 65 -66s-28 -66 -65 -66z" />
    <glyph glyph-name="asterisk" unicode="*" horiz-adv-x="380" 
d="M207 579l11 -5l100 -58l-10 -17l-100 58l-10 7l2 -12v-115h-20v115l1 12l-9 -7l-100 -58l-10 17l100 58l11 5l-11 4l-100 58l10 17l100 -58l9 -7l-1 12v115h20v-115l-2 -12l10 7l100 58l10 -17l-100 -58z" />
    <glyph glyph-name="numbersign" unicode="#" horiz-adv-x="751" 
d="M697 454h-138l-63 -218h149v-21h-155l-63 -215h-24l62 215h-264l-62 -215h-24l62 215h-132v21h138l64 218h-150v21h156l62 215h24l-62 -215h264l62 215h25l-63 -215h132v-21zM471 236l64 218h-264l-64 -218h264z" />
    <glyph glyph-name="slash" unicode="/" horiz-adv-x="480" 
d="M27 -150l400 900h25l-400 -900h-25z" />
    <glyph glyph-name="backslash" unicode="\" horiz-adv-x="480" 
d="M427 -150l-400 900h25l400 -900h-25z" />
    <glyph glyph-name="exclamdown.case" horiz-adv-x="226" 
d="M113 640c-15 0 -27 12 -27 27s12 27 27 27s27 -12 27 -27s-12 -27 -27 -27zM101 0v170l1 364h23l1 -364v-170h-25z" />
    <glyph glyph-name="questiondown.case" horiz-adv-x="506" 
d="M265 640c-15 0 -27 12 -27 27s12 27 27 27c16 0 27 -12 27 -27s-11 -27 -27 -27zM265 -12c-107 0 -188 82 -188 189c0 76 47 126 91 166c45 39 85 76 85 142v43h25v-43c0 -76 -45 -119 -91 -158c-44 -39 -84 -83 -84 -150c0 -94 70 -165 162 -165s163 71 163 165h26
c0 -107 -81 -189 -189 -189z" />
    <glyph glyph-name="periodcentered.case" horiz-adv-x="196" 
d="M98 318c-16 0 -27 12 -27 27s11 27 27 27c15 0 27 -12 27 -27s-12 -27 -27 -27z" />
    <glyph glyph-name="bullet.case" horiz-adv-x="273" 
d="M137 279c-38 0 -66 28 -66 66s28 66 66 66c37 0 65 -28 65 -66s-28 -66 -65 -66z" />
    <glyph glyph-name="asterisk.case" horiz-adv-x="400" 
d="M217 549l11 -5l100 -58l-10 -17l-100 58l-10 7l2 -12v-115h-20v115l1 12l-9 -7l-100 -58l-10 17l100 58l11 5l-11 4l-100 58l10 17l100 -58l9 -7l-1 12v115h20v-115l-2 -12l10 7l100 58l10 -17l-100 -58z" />
    <glyph glyph-name="slash.case" horiz-adv-x="489" 
d="M32 -105l400 900h25l-400 -900h-25z" />
    <glyph glyph-name="backslash.case" horiz-adv-x="489" 
d="M432 -105l-400 900h25l400 -900h-25z" />
    <glyph glyph-name="parenleft" unicode="(" horiz-adv-x="290" 
d="M228 -190c-84 113 -140 299 -140 470s56 357 140 470h25c-84 -113 -139 -299 -139 -470s55 -357 139 -470h-25z" />
    <glyph glyph-name="parenright" unicode=")" horiz-adv-x="290" 
d="M37 -190c83 113 139 299 139 470s-56 357 -139 470h25c84 -113 140 -299 140 -470s-56 -357 -140 -470h-25z" />
    <glyph glyph-name="braceleft" unicode="{" horiz-adv-x="375" 
d="M195 345c0 -29 -18 -55 -42 -64c24 -10 42 -36 42 -65v-307c0 -43 33 -77 75 -77h67v-22h-72c-53 0 -94 41 -94 95v308c0 32 -23 56 -54 56h-39v23h39c31 0 54 24 54 56v307c0 54 41 95 94 95h72v-22h-67c-42 0 -75 -34 -75 -77v-306z" />
    <glyph glyph-name="braceright" unicode="}" horiz-adv-x="375" 
d="M258 292h39v-23h-39c-31 0 -54 -24 -54 -56v-308c0 -54 -40 -95 -94 -95h-71v22h67c42 0 74 34 74 77v307c0 29 18 55 42 65c-24 9 -42 35 -42 64v306c0 43 -32 77 -74 77h-67v22h71c54 0 94 -41 94 -95v-307c0 -32 23 -56 54 -56z" />
    <glyph glyph-name="bracketleft" unicode="[" horiz-adv-x="307" 
d="M268 728h-146v-896h146v-22h-170v940h170v-22z" />
    <glyph glyph-name="bracketright" unicode="]" horiz-adv-x="307" 
d="M39 750h170v-940h-170v22h146v896h-146v22z" />
    <glyph glyph-name="parenleft.case" horiz-adv-x="310" 
d="M238 -125c-84 113 -140 299 -140 470s56 357 140 470h25c-84 -113 -139 -299 -139 -470s55 -357 139 -470h-25z" />
    <glyph glyph-name="parenright.case" horiz-adv-x="310" 
d="M47 -125c83 113 139 299 139 470s-56 357 -139 470h25c84 -113 140 -299 140 -470s-56 -357 -140 -470h-25z" />
    <glyph glyph-name="braceleft.case" horiz-adv-x="385" 
d="M195 410c0 -29 -18 -55 -42 -64c24 -10 42 -36 42 -65v-307c0 -43 33 -77 75 -77h67v-22h-72c-53 0 -94 41 -94 95v308c0 32 -23 56 -54 56h-39v23h39c31 0 54 24 54 56v307c0 54 41 95 94 95h72v-22h-67c-42 0 -75 -34 -75 -77v-306z" />
    <glyph glyph-name="braceright.case" horiz-adv-x="385" 
d="M268 357h39v-23h-39c-31 0 -54 -24 -54 -56v-308c0 -54 -41 -95 -94 -95h-72v22h67c42 0 74 34 74 77v307c0 29 19 55 43 65c-24 9 -43 35 -43 64v306c0 43 -32 77 -74 77h-67v22h72c53 0 94 -41 94 -95v-307c0 -32 23 -56 54 -56z" />
    <glyph glyph-name="bracketleft.case" horiz-adv-x="327" 
d="M278 793h-146v-896h146v-22h-170v940h170v-22z" />
    <glyph glyph-name="bracketright.case" horiz-adv-x="327" 
d="M48 815h171v-940h-171v22h146v896h-146v22z" />
    <glyph glyph-name="hyphen" unicode="-" horiz-adv-x="408" 
d="M71 262v23h266v-23h-266z" />
    <glyph glyph-name="endash" unicode="&#x2013;" horiz-adv-x="608" 
d="M71 263v22h466v-22h-466z" />
    <glyph glyph-name="emdash" unicode="&#x2014;" horiz-adv-x="1068" 
d="M71 263v22h926v-22h-926z" />
    <glyph glyph-name="underscore" unicode="_" horiz-adv-x="549" 
d="M61 -127v21h427v-21h-427z" />
    <glyph glyph-name="hyphen.case" horiz-adv-x="408" 
d="M71 334v23h266v-23h-266z" />
    <glyph glyph-name="endash.case" horiz-adv-x="608" 
d="M71 335v22h466v-22h-466z" />
    <glyph glyph-name="emdash.case" horiz-adv-x="1068" 
d="M71 335v22h926v-22h-926z" />
    <glyph glyph-name="quotesinglbase" unicode="&#x201a;" horiz-adv-x="212" 
d="M42 -144l68 202h31l-77 -202h-22z" />
    <glyph glyph-name="quotedblbase" unicode="&#x201e;" horiz-adv-x="388" 
d="M42 -144l68 202h31l-77 -202h-22zM217 -144l68 202h32l-78 -202h-22z" />
    <glyph glyph-name="quotedblleft" unicode="&#x201c;" horiz-adv-x="380" 
d="M67 487l77 203h23l-68 -203h-32zM243 487l77 203h22l-68 -203h-31z" />
    <glyph glyph-name="quotedblright" unicode="&#x201d;" horiz-adv-x="380" 
d="M67 487l68 203h32l-77 -203h-23zM243 487l68 203h31l-77 -203h-22z" />
    <glyph glyph-name="quoteleft" unicode="&#x2018;" horiz-adv-x="205" 
d="M67 487l77 203h23l-68 -203h-32z" />
    <glyph glyph-name="quoteright" unicode="&#x2019;" horiz-adv-x="205" 
d="M67 487l68 203h32l-77 -203h-23z" />
    <glyph glyph-name="guillemotleft" unicode="&#xab;" horiz-adv-x="558" 
d="M274 464l-185 -200l185 -200h-31l-185 200l185 200h31zM489 464l-185 -200l185 -200h-31l-186 200l186 200h31z" />
    <glyph glyph-name="guillemotright" unicode="&#xbb;" horiz-adv-x="558" 
d="M100 464l186 -200l-186 -200h-30l185 200l-185 200h30zM315 464l186 -200l-186 -200h-30l185 200l-185 200h30z" />
    <glyph glyph-name="guilsinglleft" unicode="&#x2039;" horiz-adv-x="343" 
d="M274 464l-185 -200l185 -200h-31l-185 200l185 200h31z" />
    <glyph glyph-name="guilsinglright" unicode="&#x203a;" horiz-adv-x="343" 
d="M100 464l186 -200l-186 -200h-30l185 200l-185 200h30z" />
    <glyph glyph-name="quotedbl" unicode="&#x22;" horiz-adv-x="354" 
d="M83 488l-1 202h24l-1 -202h-22zM249 488l-1 202h24l-1 -202h-22z" />
    <glyph glyph-name="quotesingle" unicode="'" horiz-adv-x="187" 
d="M83 488l-1 202h24l-1 -202h-22z" />
    <glyph glyph-name="guillemotleft.case" horiz-adv-x="578" 
d="M284 545l-185 -200l185 -200h-31l-185 200l185 200h31zM499 545l-185 -200l185 -200h-31l-186 200l186 200h31z" />
    <glyph glyph-name="guillemotright.case" horiz-adv-x="578" 
d="M110 545l186 -200l-186 -200h-30l185 200l-185 200h30zM325 545l186 -200l-186 -200h-30l185 200l-185 200h30z" />
    <glyph glyph-name="guilsinglleft.case" horiz-adv-x="363" 
d="M284 545l-185 -200l185 -200h-31l-185 200l185 200h31z" />
    <glyph glyph-name="guilsinglright.case" horiz-adv-x="363" 
d="M110 545l186 -200l-186 -200h-30l185 200l-185 200h30z" />
    <glyph glyph-name="space" unicode=" " horiz-adv-x="275" 
 />
    <glyph glyph-name="uni20B5" unicode="&#x20b5;" horiz-adv-x="825" 
d="M432 23c149 7 267 107 298 244h27c-32 -151 -161 -263 -325 -270v-67h-25v67c-194 5 -339 154 -339 348s145 343 339 348v67h25v-67c164 -7 293 -119 325 -270h-27c-31 137 -149 237 -298 244v-644zM95 345c0 -181 134 -317 312 -322v644c-178 -5 -312 -141 -312 -322z
" />
    <glyph glyph-name="cent" unicode="&#xa2;" horiz-adv-x="657" 
d="M345 102c111 6 199 80 223 185h26c-24 -119 -123 -204 -249 -210v-77h-21v77c-149 4 -261 117 -261 268s112 264 261 268v77h21v-77c126 -6 225 -91 249 -210h-26c-24 105 -112 179 -223 185v-486zM89 345c0 -137 100 -239 235 -243v486c-135 -4 -235 -107 -235 -243z
" />
    <glyph glyph-name="currency" unicode="&#xa4;" horiz-adv-x="520" 
d="M439 345c0 -47 -16 -88 -44 -119l66 -66l-16 -16l-66 66c-31 -27 -72 -43 -119 -43c-46 0 -87 16 -118 43l-67 -66l-17 16l67 66c-27 31 -43 73 -43 119c0 47 16 88 43 119l-66 66l16 16l67 -66c30 27 72 43 118 43s88 -16 119 -42l66 66l16 -17l-66 -66
c28 -31 44 -72 44 -119zM260 189c89 0 156 67 156 156s-67 157 -156 157c-88 0 -155 -68 -155 -157s67 -156 155 -156z" />
    <glyph glyph-name="dollar" unicode="$" horiz-adv-x="513" 
d="M455 169c0 -94 -80 -166 -187 -171v-68h-21v68c-108 5 -189 83 -189 184h26c0 -88 70 -155 163 -160v319c-115 30 -176 94 -176 187c0 90 75 159 176 164v68h21v-68c100 -5 174 -79 174 -176h-25c0 82 -63 146 -149 152v-306c122 -30 187 -95 187 -193zM98 529
c0 -78 50 -133 149 -161v300c-85 -4 -149 -63 -149 -139zM268 22c92 5 160 66 160 146c0 83 -52 138 -160 168v-314z" />
    <glyph glyph-name="Euro" unicode="&#x20ac;" horiz-adv-x="768" 
d="M479 677c-167 0 -299 -112 -327 -269h466l-10 -22h-459c-1 -13 -2 -27 -2 -41s1 -28 2 -41h417l-10 -22h-404c28 -157 160 -269 327 -269c95 0 179 36 239 95v-31c-63 -55 -147 -89 -241 -89c-181 0 -324 123 -352 294h-86l10 22h73c-1 13 -2 27 -2 41s1 28 2 41h-83
l10 22h76c28 171 171 294 352 294c94 0 178 -34 241 -89v-31c-60 59 -144 95 -239 95z" />
    <glyph glyph-name="florin" unicode="&#x192;" horiz-adv-x="434" 
d="M405 665c-87 0 -127 -36 -145 -134l-30 -172h136v-24h-140l-64 -371c-19 -111 -68 -154 -171 -154v25c86 0 127 36 144 134l64 366h-130v24h134l31 177c19 111 68 154 171 154v-25z" />
    <glyph glyph-name="franc" unicode="&#x20a3;" horiz-adv-x="510" 
d="M470 666h-325v-306h280v-24h-280v-159h192v-23h-192v-154h-26v154h-79v23h79v513h351v-24z" />
    <glyph glyph-name="lira" unicode="&#x20a4;" horiz-adv-x="571" 
d="M155 24h372v-24h-477v24h79v231h-79v21h79v82h-79v22h79v128c0 110 84 194 194 194s194 -84 194 -194h-26c0 96 -73 169 -168 169s-168 -73 -168 -169v-128h243v-22h-243v-82h243v-21h-243v-231z" />
    <glyph glyph-name="peseta" unicode="&#x20a7;" horiz-adv-x="615" 
d="M585 501v-21h-57c-6 -108 -90 -189 -200 -189h-173v-291h-26v480h-80v21h80v189h199c111 0 195 -81 200 -189h57zM155 666v-165h346c-5 95 -77 165 -173 165h-173zM328 315c95 0 168 70 173 165h-346v-165h173z" />
    <glyph glyph-name="uni20B1" unicode="&#x20b1;" horiz-adv-x="615" 
d="M585 551v-20h-61c3 -13 4 -27 4 -41s-1 -27 -4 -40h61v-20h-66c-24 -82 -98 -139 -191 -139h-173v-291h-26v430h-80v20h80v81h-80v20h80v139h199c93 0 167 -57 191 -139h66zM155 666v-115h336c-23 69 -86 115 -164 115h-172zM501 490c0 14 -1 28 -4 41h-342v-81h342
c3 13 4 26 4 40zM327 315c78 0 141 46 164 115h-336v-115h172z" />
    <glyph glyph-name="uni20A8" unicode="&#x20a8;" horiz-adv-x="959" 
d="M298 314h-131l330 -314h-35l-330 314h-9v-314h-26v690h200c108 0 189 -81 189 -188s-81 -188 -188 -188zM123 666v-329h174c92 0 163 70 163 164c0 95 -71 165 -163 165h-174zM755 271c100 -23 151 -72 151 -147c0 -79 -67 -136 -156 -136c-88 0 -155 62 -155 145h24
c0 -70 57 -122 132 -122c74 0 130 48 130 112c0 63 -44 104 -135 126c-93 21 -144 70 -144 142c0 76 64 131 148 131c85 0 149 -60 149 -140h-24c0 67 -54 117 -125 117c-70 0 -123 -46 -123 -107c0 -60 43 -102 128 -121z" />
    <glyph glyph-name="uni20B9" unicode="&#x20b9;" horiz-adv-x="543" 
d="M337 668c35 -19 63 -48 80 -84h88l-13 -22h-66c6 -19 9 -40 9 -61c0 -107 -82 -189 -189 -189h-127l336 -312h-36l-340 317v19h166c93 0 163 70 163 165c0 22 -4 42 -10 61h-319v22h309c-28 50 -80 83 -143 83h-166v23h426l-13 -22h-155z" />
    <glyph glyph-name="sterling" unicode="&#xa3;" horiz-adv-x="571" 
d="M155 24h372v-24h-477v24h79v283h-79v23h79v178c0 110 84 194 194 194s194 -84 194 -194h-26c0 96 -73 169 -168 169s-168 -73 -168 -169v-178h243v-23h-243v-283z" />
    <glyph glyph-name="yen" unicode="&#xa5;" horiz-adv-x="631" 
d="M590 690l-252 -400h152v-22h-162v-91h162v-22h-162v-155h-25v155h-162v22h162v91h-162v22h152l-253 400h31l245 -389l245 389h29z" />
    <glyph glyph-name="plus" unicode="+" horiz-adv-x="534" 
d="M463 306v-22h-184v-185h-24v185h-184v22h184v185h24v-185h184z" />
    <glyph glyph-name="minus" unicode="&#x2212;" horiz-adv-x="534" 
d="M71 284v22h392v-22h-392z" />
    <glyph glyph-name="multiply" unicode="&#xd7;" horiz-adv-x="436" 
d="M365 426l-131 -131l131 -131l-17 -16l-130 131l-131 -131l-16 16l131 131l-131 131l16 16l131 -131l130 131z" />
    <glyph glyph-name="divide" unicode="&#xf7;" horiz-adv-x="534" 
d="M267 411c-14 0 -25 11 -25 25c0 15 11 25 25 25s25 -10 25 -25c0 -14 -11 -25 -25 -25zM71 285v21h392v-21h-392zM267 130c-14 0 -25 10 -25 25c0 14 11 25 25 25s25 -11 25 -25c0 -15 -11 -25 -25 -25z" />
    <glyph glyph-name="equal" unicode="=" horiz-adv-x="534" 
d="M71 357v22h392v-22h-392zM71 212v22h392v-22h-392z" />
    <glyph glyph-name="notequal" unicode="&#x2260;" horiz-adv-x="534" 
d="M463 357h-153l-62 -123h215v-22h-226l-58 -115h-24l58 115h-142v22h153l62 123h-215v22h226l58 114h24l-58 -114h142v-22z" />
    <glyph glyph-name="greater" unicode="&#x3e;" horiz-adv-x="464" 
d="M71 477l322 -170v-22l-322 -170v24l299 157l-299 157v24z" />
    <glyph glyph-name="less" unicode="&#x3c;" horiz-adv-x="464" 
d="M393 477v-24l-299 -157l299 -157v-24l-322 170v22z" />
    <glyph glyph-name="greaterequal" unicode="&#x2265;" horiz-adv-x="464" 
d="M71 492l322 -139v-25l-322 -139v25l300 127l-300 126v25zM71 99v22h322v-22h-322z" />
    <glyph glyph-name="lessequal" unicode="&#x2264;" horiz-adv-x="464" 
d="M393 492v-25l-300 -126l300 -127v-25l-322 139v25zM71 99v22h322v-22h-322z" />
    <glyph glyph-name="plusminus" unicode="&#xb1;" horiz-adv-x="534" 
d="M279 359h184v-22h-184v-137h-24v137h-184v22h184v136h24v-136zM71 93v22h392v-22h-392z" />
    <glyph glyph-name="approxequal" unicode="&#x2248;" horiz-adv-x="516" 
d="M345 334c-81 0 -103 91 -172 91c-45 0 -79 -33 -79 -80h-23c0 59 41 103 100 103c81 0 103 -91 172 -91c46 0 79 35 79 80h23c0 -58 -41 -103 -100 -103zM345 150c-81 0 -103 91 -172 91c-45 0 -79 -34 -79 -80h-23c0 59 41 103 100 103c81 0 103 -91 172 -91
c46 0 79 34 79 80h23c0 -58 -41 -103 -100 -103z" />
    <glyph glyph-name="asciitilde" unicode="~" horiz-adv-x="516" 
d="M345 242c-81 0 -103 91 -172 91c-45 0 -79 -34 -79 -80h-23c0 59 41 103 100 103c81 0 103 -91 172 -91c46 0 79 34 79 80h23c0 -58 -41 -103 -100 -103z" />
    <glyph glyph-name="asciicircum" unicode="^" horiz-adv-x="390" 
d="M328 464h-26l-107 204l-108 -204h-25l120 226h25z" />
    <glyph glyph-name="percent" unicode="%" horiz-adv-x="800" 
d="M207 404c-85 0 -149 64 -149 149s64 149 149 149c86 0 149 -64 149 -149s-63 -149 -149 -149zM136 0l500 690h28l-500 -690h-28zM207 426c72 0 126 55 126 127c0 73 -54 127 -126 127c-71 0 -126 -54 -126 -127c0 -72 55 -127 126 -127zM592 -12c-85 0 -149 64 -149 149
s64 149 149 149c86 0 149 -64 149 -149s-63 -149 -149 -149zM592 10c72 0 126 54 126 127c0 72 -54 127 -126 127c-71 0 -126 -55 -126 -127c0 -73 55 -127 126 -127z" />
    <glyph glyph-name="perthousand" unicode="&#x2030;" horiz-adv-x="1162" 
d="M207 404c-85 0 -149 64 -149 149s64 149 149 149c86 0 149 -64 149 -149s-63 -149 -149 -149zM136 0l500 690h28l-500 -690h-28zM207 426c72 0 126 55 126 127c0 73 -54 127 -126 127c-71 0 -126 -54 -126 -127c0 -72 55 -127 126 -127zM592 -12c-85 0 -149 64 -149 149
s64 149 149 149c86 0 149 -64 149 -149s-63 -149 -149 -149zM954 -12c-85 0 -149 64 -149 149s64 149 149 149s149 -64 149 -149s-64 -149 -149 -149zM592 10c72 0 126 54 126 127c0 72 -54 127 -126 127c-71 0 -126 -55 -126 -127c0 -73 55 -127 126 -127zM954 10
c72 0 126 54 126 127c0 72 -54 127 -126 127c-71 0 -126 -55 -126 -127c0 -73 55 -127 126 -127z" />
    <glyph glyph-name="plus.case" horiz-adv-x="534" 
d="M463 356v-22h-184v-185h-24v185h-184v22h184v185h24v-185h184z" />
    <glyph glyph-name="arrowup" unicode="&#x2191;" horiz-adv-x="680" 
d="M540 397v-31l-189 189v-462h-23v461l-188 -188v31l200 200z" />
    <glyph glyph-name="uni2197" unicode="&#x2197;" horiz-adv-x="680" 
d="M240 524h282v-282l-22 -9v251l-326 -325l-17 16l327 327h-253z" />
    <glyph glyph-name="arrowright" unicode="&#x2192;" horiz-adv-x="680" 
d="M391 546l201 -201l-201 -201h-32l191 190h-462v22h462l-191 190h32z" />
    <glyph glyph-name="uni2198" unicode="&#x2198;" horiz-adv-x="680" 
d="M500 452l23 -8v-284h-284l-9 22h254l-326 327l16 16l327 -326z" />
    <glyph glyph-name="arrowdown" unicode="&#x2193;" horiz-adv-x="680" 
d="M351 135l190 190v-31l-201 -201l-201 201v31l189 -189v461h23v-462z" />
    <glyph glyph-name="uni2199" unicode="&#x2199;" horiz-adv-x="680" 
d="M522 509l-326 -327h253l-9 -22h-283v284l22 8v-252l327 325z" />
    <glyph glyph-name="arrowleft" unicode="&#x2190;" horiz-adv-x="680" 
d="M592 356v-22h-462l190 -190h-31l-201 201l201 201h31l-190 -190h462z" />
    <glyph glyph-name="uni2196" unicode="&#x2196;" horiz-adv-x="680" 
d="M522 175l-16 -16l-327 325v-252l-22 8v284h283l9 -22h-253z" />
    <glyph glyph-name="uni279D" unicode="&#x279d;" horiz-adv-x="1082" 
d="M993 345l-201 -201v190h-703v22h703v190z" />
    <glyph glyph-name="uni27F5" unicode="&#x27f5;" horiz-adv-x="1082" 
d="M993 356v-22h-862l190 -190h-31l-201 201l201 201h31l-190 -190h862z" />
    <glyph glyph-name="uni27F6" unicode="&#x27f6;" horiz-adv-x="1082" 
d="M792 546l201 -201l-201 -201h-31l190 190h-862v22h862l-190 190h31z" />
    <glyph glyph-name="uni2639" unicode="&#x2639;" horiz-adv-x="850" 
d="M425 -12c-203 0 -357 154 -357 357s154 357 357 357s357 -154 357 -357s-154 -357 -357 -357zM425 8c191 0 336 145 336 337s-145 337 -336 337s-336 -145 -336 -337s145 -337 336 -337zM298 461c-12 0 -22 10 -22 22s10 22 22 22c13 0 23 -10 23 -22s-10 -22 -23 -22z
M551 461c-12 0 -22 10 -22 22s10 22 22 22s22 -10 22 -22s-10 -22 -22 -22zM191 150c0 134 101 234 234 234s234 -100 234 -234h-21c0 123 -92 215 -213 215c-122 0 -213 -92 -213 -215h-21z" />
    <glyph glyph-name="smileface" unicode="&#x263a;" horiz-adv-x="850" 
d="M425 -12c-203 0 -357 154 -357 357s154 357 357 357s357 -154 357 -357s-154 -357 -357 -357zM425 8c191 0 336 145 336 337s-145 337 -336 337s-336 -145 -336 -337s145 -337 336 -337zM298 461c-12 0 -22 10 -22 22s10 22 22 22c13 0 23 -10 23 -22s-10 -22 -23 -22z
M551 461c-12 0 -22 10 -22 22s10 22 22 22s22 -10 22 -22s-10 -22 -22 -22zM425 109c-134 0 -236 102 -236 236h21c0 -124 92 -216 215 -216c122 0 215 92 215 216h21c0 -134 -102 -236 -236 -236z" />
    <glyph glyph-name="at" unicode="@" horiz-adv-x="853" 
d="M665 88c-52 0 -87 34 -87 85v18c-27 -65 -88 -107 -165 -107c-107 0 -185 80 -185 186s79 186 184 186c77 0 139 -42 166 -108v96h24v-270c0 -38 25 -64 63 -64c58 0 96 72 96 171c0 185 -144 325 -334 325c-191 0 -335 -144 -335 -336s144 -336 335 -336
c90 0 172 33 229 87h35c-65 -68 -159 -109 -264 -109c-205 0 -359 154 -359 358s155 358 359 358c203 0 358 -149 358 -347c0 -112 -47 -193 -120 -193zM415 107c94 0 163 70 163 163s-69 163 -163 163c-93 0 -162 -70 -162 -163s69 -163 162 -163z" />
    <glyph glyph-name="ampersand" unicode="&#x26;" horiz-adv-x="607" 
d="M598 0h-32l-95 111c-36 -75 -109 -123 -200 -123c-128 0 -223 90 -223 211c0 118 79 178 158 224c-49 60 -77 110 -77 154c0 72 55 125 127 125c73 0 128 -53 128 -125c0 -74 -68 -116 -139 -156c-1 -1 -3 -2 -4 -2l225 -264c5 18 8 38 8 59v112h23v-112
c0 -29 -4 -56 -14 -80zM153 577c0 -38 27 -86 74 -142l5 3c69 40 127 75 127 139c0 59 -44 103 -103 103s-103 -44 -103 -103zM271 11c85 0 154 47 185 118l-236 277c-76 -45 -147 -100 -147 -206c0 -108 86 -189 198 -189z" />
    <glyph glyph-name="paragraph" unicode="&#xb6;" horiz-adv-x="549" 
d="M461 690v-880h-23v858h-103v-858h-22v488h-78c-111 0 -196 84 -196 196c0 111 85 196 196 196h226z" />
    <glyph glyph-name="section" unicode="&#xa7;" horiz-adv-x="489" 
d="M289 174c76 -27 112 -73 112 -135c0 -79 -68 -136 -156 -136c-90 0 -157 62 -157 145h23c0 -71 58 -124 134 -124c75 0 132 49 132 114c0 64 -45 104 -137 127c-95 24 -146 74 -146 148c0 62 43 112 107 127c-71 25 -107 72 -107 131c0 76 66 131 150 131
c86 0 151 -60 151 -140h-24c0 68 -55 119 -127 119c-71 0 -125 -47 -125 -109c0 -61 43 -103 130 -123c100 -22 153 -72 153 -147c0 -63 -46 -113 -113 -128zM119 314c0 -63 42 -106 128 -127c74 1 130 50 130 114c0 63 -44 105 -135 127c-71 -2 -123 -50 -123 -114z" />
    <glyph glyph-name="copyright" unicode="&#xa9;" horiz-adv-x="850" 
d="M425 -12c-203 0 -357 154 -357 357s154 357 357 357s357 -154 357 -357s-154 -357 -357 -357zM425 9c190 0 334 145 334 336s-144 336 -334 336s-335 -145 -335 -336s145 -336 335 -336zM428 130c-122 0 -215 93 -215 215s93 215 215 215c105 0 188 -66 209 -157h-23
c-20 79 -93 135 -186 135c-110 0 -192 -84 -192 -193s82 -193 192 -193c93 0 166 56 186 135h23c-21 -91 -104 -157 -209 -157z" />
    <glyph glyph-name="registered" unicode="&#xae;" horiz-adv-x="479" 
d="M239 702c102 0 178 -76 178 -178c0 -101 -76 -177 -178 -177c-101 0 -177 76 -177 177c0 102 76 178 177 178zM239 364c91 0 160 69 160 160c0 92 -69 161 -160 161c-90 0 -159 -69 -159 -161c0 -91 69 -160 159 -160zM250 519h-11l73 -87h-21l-72 87h-8v-87h-16v199h55
c32 0 56 -25 56 -56s-24 -56 -56 -56zM211 616v-82h39c23 0 40 17 40 41s-17 41 -40 41h-39z" />
    <glyph glyph-name="trademark" unicode="&#x2122;" horiz-adv-x="693" 
d="M33 672v18h216v-18h-98v-273h-19v273h-99zM584 690h28v-291h-19v265l-116 -265h-20l-116 265v-265h-19v291h29l117 -266z" />
    <glyph glyph-name="degree" unicode="&#xb0;" horiz-adv-x="388" 
d="M194 448c-73 0 -127 54 -127 127s54 127 127 127s127 -54 127 -127s-54 -127 -127 -127zM194 470c59 0 104 45 104 105s-45 105 -104 105s-104 -45 -104 -105s45 -105 104 -105z" />
    <glyph glyph-name="bar" unicode="|" horiz-adv-x="258" 
d="M117 -190v940h23v-940h-23z" />
    <glyph glyph-name="brokenbar" unicode="&#xa6;" horiz-adv-x="258" 
d="M117 340v410h23v-410h-23zM117 -190v410h23v-410h-23z" />
    <glyph glyph-name="dagger" unicode="&#x2020;" horiz-adv-x="494" 
d="M423 510v-22h-164v-678h-24v678h-164v22h164v180h24v-180h164z" />
    <glyph glyph-name="daggerdbl" unicode="&#x2021;" horiz-adv-x="494" 
d="M423 488h-164v-456h164v-22h-164v-200h-24v200h-164v22h164v456h-164v22h164v180h24v-180h164v-22z" />
    <glyph glyph-name="uni2116" unicode="&#x2116;" horiz-adv-x="1172" 
d="M936 346c-101 0 -178 77 -178 178c0 102 77 178 178 178c102 0 178 -76 178 -178c0 -101 -76 -178 -178 -178zM625 37v653h26v-690h-31l-497 655v-655h-26v690h32zM936 679c-87 0 -154 -67 -154 -155s67 -155 154 -155s154 67 154 155s-67 155 -154 155zM770 221v23h332
v-23h-332z" />
    <glyph glyph-name="at.case" horiz-adv-x="852" 
d="M665 163c-52 0 -87 34 -87 85v18c-27 -65 -88 -107 -165 -107c-107 0 -185 80 -185 186s79 186 184 186c77 0 139 -42 166 -108v96h24v-270c0 -38 25 -64 63 -64c58 0 96 72 96 171c0 185 -144 325 -334 325c-191 0 -335 -144 -335 -336s144 -335 335 -335
c90 0 172 32 229 86h35c-65 -68 -159 -109 -264 -109c-205 0 -359 154 -359 358s155 358 359 358c203 0 358 -149 358 -347c0 -112 -47 -193 -120 -193zM415 182c94 0 163 70 163 163s-69 163 -163 163c-93 0 -162 -70 -162 -163s69 -163 162 -163z" />
    <glyph glyph-name="uni02BC" unicode="&#x2bc;" horiz-adv-x="48" 
d="M0 549l21 171h27l-29 -171h-19z" />
    <glyph glyph-name="uni0308" unicode="&#x308;" horiz-adv-x="0" 
d="M-218 606c-14 0 -25 11 -25 25c0 13 11 24 25 24c13 0 24 -11 24 -24c0 -14 -11 -25 -24 -25zM-24 606c-14 0 -25 11 -25 25c0 13 11 24 25 24c13 0 24 -11 24 -24c0 -14 -11 -25 -24 -25z" />
    <glyph glyph-name="uni0307" unicode="&#x307;" horiz-adv-x="0" 
d="M-25 606c-14 0 -25 11 -25 25s11 25 25 25s25 -11 25 -25s-11 -25 -25 -25z" />
    <glyph glyph-name="gravecomb" unicode="&#x300;" horiz-adv-x="0" 
d="M-28 592l-115 111h36l107 -111h-28z" />
    <glyph glyph-name="acutecomb" unicode="&#x301;" horiz-adv-x="0" 
d="M-143 592l107 111h36l-115 -111h-28z" />
    <glyph glyph-name="uni030B" unicode="&#x30b;" horiz-adv-x="0" 
d="M-275 592l79 111h31l-85 -111h-25zM-110 592l78 111h32l-86 -111h-24z" />
    <glyph glyph-name="caroncomb.alt" horiz-adv-x="0" 
d="M-48 549l21 171h27l-29 -171h-19z" />
    <glyph glyph-name="uni0302" unicode="&#x302;" horiz-adv-x="0" 
d="M0 592h-25l-92 95l-93 -95h-25l102 111h32z" />
    <glyph glyph-name="uni030C" unicode="&#x30c;" horiz-adv-x="0" 
d="M-25 703h25l-101 -111h-32l-102 111h25l93 -96z" />
    <glyph glyph-name="uni0306" unicode="&#x306;" horiz-adv-x="0" 
d="M-111 582c-62 0 -110 47 -110 109h21c0 -51 39 -90 89 -90c51 0 89 39 89 90h22c0 -62 -48 -109 -111 -109z" />
    <glyph glyph-name="uni030A" unicode="&#x30a;" horiz-adv-x="0" 
d="M-66 576c-36 0 -65 28 -65 65s29 65 65 65c37 0 66 -28 66 -65s-29 -65 -66 -65zM-66 593c27 0 47 21 47 48c0 28 -20 48 -47 48c-26 0 -46 -20 -46 -48c0 -27 20 -48 46 -48z" />
    <glyph glyph-name="tildecomb" unicode="&#x303;" horiz-adv-x="0" 
d="M-84 599c-67 0 -84 73 -142 73c-36 0 -64 -28 -64 -66h-21c0 49 35 86 84 86c66 0 83 -72 141 -72c37 0 65 28 65 66h21c0 -49 -36 -87 -84 -87z" />
    <glyph glyph-name="uni0304" unicode="&#x304;" horiz-adv-x="0" 
d="M-200 613v22h200v-22h-200z" />
    <glyph glyph-name="uni030F" unicode="&#x30f;" horiz-adv-x="0" 
d="M-189 592l-86 111h31l79 -111h-24zM-25 592l-85 111h31l79 -111h-25z" />
    <glyph glyph-name="uni0311" unicode="&#x311;" horiz-adv-x="0" 
d="M-221 582c0 62 48 110 110 110c63 0 111 -48 111 -110h-22c0 52 -38 90 -89 90c-50 0 -89 -38 -89 -90h-21z" />
    <glyph glyph-name="uni0312" unicode="&#x312;" horiz-adv-x="0" 
d="M-54 582l34 132h20l-26 -132h-28z" />
    <glyph glyph-name="dotbelowcomb" unicode="&#x323;" horiz-adv-x="0" 
d="M-25 -146c-14 0 -25 11 -25 25s11 25 25 25s25 -11 25 -25s-11 -25 -25 -25z" />
    <glyph glyph-name="uni0326" unicode="&#x326;" horiz-adv-x="0" 
d="M-54 -211l26 131h28l-34 -131h-20z" />
    <glyph glyph-name="uni0327" unicode="&#x327;" horiz-adv-x="0" 
d="M-77 -40c44 0 77 -35 77 -80c0 -46 -35 -81 -82 -81c-46 0 -81 35 -81 81h20c0 -36 27 -63 61 -63c35 0 62 27 62 63c0 35 -27 62 -62 62c-14 0 -31 -7 -40 -16l-16 8l48 66v2h21v-2l-35 -45c8 3 18 5 27 5z" />
    <glyph glyph-name="uni0328" unicode="&#x328;" horiz-adv-x="0" 
d="M-64 -201c-46 0 -82 36 -82 81c0 52 45 96 108 123h18l2 -3c-62 -28 -106 -71 -106 -117c0 -37 27 -64 62 -64c23 0 45 9 62 23v-23c-18 -12 -40 -20 -64 -20z" />
    <glyph glyph-name="uni0335" unicode="&#x335;" horiz-adv-x="0" 
d="M-268 264v20h268v-20h-268z" />
    <glyph glyph-name="uni0336" unicode="&#x336;" horiz-adv-x="0" 
d="M-666 264v20h666v-20h-666z" />
    <glyph glyph-name="uni0337" unicode="&#x337;" horiz-adv-x="0" 
d="M-485 0l459 510h26l-460 -510h-25z" />
    <glyph glyph-name="uni0338" unicode="&#x338;" horiz-adv-x="0" 
d="M-649 0l620 690h29l-620 -690h-29z" />
    <glyph glyph-name="acute" unicode="&#xb4;" horiz-adv-x="143" 
d="M0 592l107 111h36l-115 -111h-28z" />
    <glyph glyph-name="breve" unicode="&#x2d8;" horiz-adv-x="221" 
d="M110 582c-62 0 -110 47 -110 109h21c0 -51 39 -90 89 -90c51 0 89 39 89 90h22c0 -62 -48 -109 -111 -109z" />
    <glyph glyph-name="caron" unicode="&#x2c7;" horiz-adv-x="235" 
d="M210 703h25l-101 -111h-32l-102 111h25l93 -96z" />
    <glyph glyph-name="cedilla" unicode="&#xb8;" horiz-adv-x="163" 
d="M86 -40c44 0 77 -35 77 -80c0 -46 -35 -81 -82 -81c-46 0 -81 35 -81 81h20c0 -36 27 -63 61 -63c35 0 62 27 62 63c0 35 -27 62 -62 62c-14 0 -31 -7 -40 -16l-16 8l48 66v2h21v-2l-35 -45c8 3 18 5 27 5z" />
    <glyph glyph-name="circumflex" unicode="&#x2c6;" horiz-adv-x="235" 
d="M235 592h-25l-92 95l-93 -95h-25l102 111h32z" />
    <glyph glyph-name="dieresis" unicode="&#xa8;" horiz-adv-x="243" 
d="M25 606c-14 0 -25 11 -25 25c0 13 11 24 25 24c13 0 24 -11 24 -24c0 -14 -11 -25 -24 -25zM219 606c-14 0 -25 11 -25 25c0 13 11 24 25 24c13 0 24 -11 24 -24c0 -14 -11 -25 -24 -25z" />
    <glyph glyph-name="dotaccent" unicode="&#x2d9;" horiz-adv-x="50" 
d="M25 606c-14 0 -25 11 -25 25s11 25 25 25s25 -11 25 -25s-11 -25 -25 -25z" />
    <glyph glyph-name="grave" unicode="`" horiz-adv-x="143" 
d="M115 592l-115 111h36l107 -111h-28z" />
    <glyph glyph-name="hungarumlaut" unicode="&#x2dd;" horiz-adv-x="275" 
d="M0 592l79 111h31l-85 -111h-25zM165 592l78 111h32l-86 -111h-24z" />
    <glyph glyph-name="macron" unicode="&#xaf;" horiz-adv-x="200" 
d="M0 613v22h200v-22h-200z" />
    <glyph glyph-name="ogonek" unicode="&#x2db;" horiz-adv-x="161" 
d="M82 -201c-46 0 -82 36 -82 81c0 52 45 96 108 123h18l2 -3c-62 -28 -106 -71 -106 -117c0 -37 27 -64 62 -64c23 0 45 9 62 23v-23c-18 -12 -40 -20 -64 -20z" />
    <glyph glyph-name="ring" unicode="&#x2da;" horiz-adv-x="131" 
d="M65 576c-36 0 -65 28 -65 65s29 65 65 65c37 0 66 -28 66 -65s-29 -65 -66 -65zM65 593c27 0 47 21 47 48c0 28 -20 48 -47 48c-26 0 -46 -20 -46 -48c0 -27 20 -48 46 -48z" />
    <glyph glyph-name="tilde" unicode="&#x2dc;" horiz-adv-x="311" 
d="M227 599c-67 0 -84 73 -142 73c-36 0 -64 -28 -64 -66h-21c0 49 35 86 84 86c66 0 83 -72 141 -72c37 0 65 28 65 66h21c0 -49 -36 -87 -84 -87z" />
    <glyph glyph-name="caron.alt" horiz-adv-x="48" 
d="M0 549l21 171h27l-29 -171h-19z" />
    </font>
</defs>
</svg>
