<?xml version="1.0" standalone="no"?>
<!DOCTYPE svg PUBLIC "-//W3C//DTD SVG 1.1//EN" "http://www.w3.org/Graphics/SVG/1.1/DTD/svg11.dtd" >
<svg xmlns="http://www.w3.org/2000/svg" xmlns:xlink="http://www.w3.org/1999/xlink" version="1.1">
<metadata>
Created by FontForge 20190801 at Mon Feb  4 11:18:51 2019
 By Jimmy Wärting
Copyright \(c\) 2019 by Adam Ladd. All rights reserved.
</metadata>
<defs>
<font id="Konnect-LightItalic" horiz-adv-x="663" >
  <font-face 
    font-family="Konnect Light"
    font-weight="300"
    font-style="italic"
    font-stretch="normal"
    units-per-em="1000"
    panose-1="0 0 4 0 0 0 0 0 0 0"
    ascent="780"
    descent="-220"
    x-height="510"
    cap-height="690"
    bbox="-704 -256 1339 912"
    underline-thickness="36"
    underline-position="-100"
    slope="-8"
    stemh="56"
    stemv="58"
    unicode-range="U+0020-FB02"
  />
<missing-glyph horiz-adv-x="500" 
d="M410 780v-1000h-317v1000h317zM333 713h-165v-33h65v-37h-66v-33h166v33h-66v37h66v33zM267 584h-100v-104h166v34h-66v70zM233 550v-36h-33v36h33zM333 453h-166v-33h66v-37h-66v-33h100v70h66v33zM333 393h-33v-66h-133v-34h166v100zM333 271h-100v-56h34v23h33v-47
h-100v80h-33v-113h166v113zM333 98h-166v-113h166v113zM300 65v-47h-100v47h100zM333 -38h-166v-33h70l-70 -47v-33h166v33h-102l70 47h32v33z" />
    <glyph glyph-name="fi" unicode="fi" horiz-adv-x="570" 
d="M527 510l-72 -510h-58l65 457h-237l-65 -457h-58l64 457h-99l7 53h100l6 44c17 121 91 169 211 169l-7 -54c-81 0 -135 -32 -146 -118l-6 -41h295zM526 713c24 0 39 -18 36 -41c-3 -24 -24 -42 -48 -42s-39 18 -36 42c3 23 24 41 48 41z" />
    <glyph glyph-name="fl" unicode="fl" horiz-adv-x="582" 
d="M180 554c17 121 92 169 214 169l-8 -54c-82 0 -137 -32 -148 -118l-6 -41h132l-7 -53h-132l-65 -457h-58l64 457h-99l7 53h100zM509 720h58l-101 -720h-58z" />
    <glyph glyph-name="f_f.liga" unicode="ff" horiz-adv-x="676" 
d="M698 669c-82 0 -137 -32 -148 -118l-6 -41h132l-7 -53h-132l-65 -457h-58l64 457h-253l-65 -457h-58l64 457h-99l7 53h100l6 44c17 121 92 169 214 169l-8 -54c-82 0 -137 -32 -148 -118l-6 -41h254l6 44c17 121 92 169 214 169z" />
    <glyph glyph-name="f_f_i.liga" unicode="ffi" horiz-adv-x="882" 
d="M838 510l-72 -510h-58l65 457h-236l-65 -457h-58l64 457h-253l-65 -457h-58l64 457h-99l7 53h100l6 44c17 121 92 169 214 169l-8 -54c-82 0 -137 -32 -148 -118l-6 -41h254l6 44c17 121 91 169 211 169l-7 -54c-81 0 -135 -32 -146 -118l-6 -41h294zM838 713
c24 0 39 -18 36 -41c-3 -24 -24 -42 -48 -42s-39 18 -36 42c3 23 24 41 48 41z" />
    <glyph glyph-name="f_f_l.liga" unicode="ffl" horiz-adv-x="898" 
d="M492 554c17 121 92 169 214 169l-8 -54c-82 0 -137 -32 -148 -118l-6 -41h132l-7 -53h-132l-65 -457h-58l64 457h-253l-65 -457h-58l64 457h-99l7 53h100l6 44c17 121 92 169 214 169l-8 -54c-82 0 -137 -32 -148 -118l-6 -41h254zM825 720h58l-101 -720h-58z" />
    <glyph glyph-name=".notdef" horiz-adv-x="500" 
d="M410 780v-1000h-317v1000h317zM333 713h-165v-33h65v-37h-66v-33h166v33h-66v37h66v33zM267 584h-100v-104h166v34h-66v70zM233 550v-36h-33v36h33zM333 453h-166v-33h66v-37h-66v-33h100v70h66v33zM333 393h-33v-66h-133v-34h166v100zM333 271h-100v-56h34v23h33v-47
h-100v80h-33v-113h166v113zM333 98h-166v-113h166v113zM300 65v-47h-100v47h100zM333 -38h-166v-33h70l-70 -47v-33h166v33h-102l70 47h32v33z" />
    <glyph glyph-name="A" unicode="A" horiz-adv-x="710" 
d="M580 0l-52 189h-363l-105 -189h-69l388 690h74l194 -690h-67zM197 246h315l-105 378z" />
    <glyph glyph-name="Aacute" unicode="&#xc1;" horiz-adv-x="710" 
d="M587 885l-137 -122h-63l123 122h77zM580 0l-52 189h-363l-105 -189h-69l388 690h74l194 -690h-67zM197 246h315l-105 378z" />
    <glyph glyph-name="Abreve" unicode="&#x102;" horiz-adv-x="710" 
d="M424 753c-71 0 -118 54 -108 123h47c-6 -45 23 -79 67 -79c45 0 84 34 90 79h47c-9 -69 -71 -123 -143 -123zM580 0l-52 189h-363l-105 -189h-69l388 690h74l194 -690h-67zM197 246h315l-105 378z" />
    <glyph glyph-name="uni01CD" unicode="&#x1cd;" horiz-adv-x="710" 
d="M462 763h-72l-84 122h57l67 -89l94 89h56zM580 0l-52 189h-363l-105 -189h-69l388 690h74l194 -690h-67zM197 246h315l-105 378z" />
    <glyph glyph-name="Acircumflex" unicode="&#xc2;" horiz-adv-x="710" 
d="M439 853l-93 -90h-57l118 122h72l84 -122h-56zM580 0l-52 189h-363l-105 -189h-69l388 690h74l194 -690h-67zM197 246h315l-105 378z" />
    <glyph glyph-name="uni0200" unicode="&#x200;" horiz-adv-x="710" 
d="M366 763h-57l-74 122h67zM547 763h-57l-74 122h67zM580 0l-52 189h-363l-105 -189h-69l388 690h74l194 -690h-67zM197 246h315l-105 378z" />
    <glyph glyph-name="Adieresis" unicode="&#xc4;" horiz-adv-x="710" 
d="M327 773c-23 0 -38 17 -35 40s24 40 47 40c22 0 37 -17 34 -40s-23 -40 -46 -40zM528 773c-23 0 -38 17 -35 40s24 40 47 40c22 0 37 -17 34 -40s-23 -40 -46 -40zM580 0l-52 189h-363l-105 -189h-69l388 690h74l194 -690h-67zM197 246h315l-105 378z" />
    <glyph glyph-name="uni1EA0" unicode="&#x1ea0;" horiz-adv-x="710" 
d="M647 0h-67l-52 189h-363l-105 -189h-69l388 690h74zM197 246h315l-105 378zM307 -83c24 0 40 -18 36 -41c-3 -24 -24 -42 -48 -42c-23 0 -38 18 -36 42c4 23 25 41 48 41z" />
    <glyph glyph-name="Agrave" unicode="&#xc0;" horiz-adv-x="710" 
d="M465 763h-63l-103 122h77zM580 0l-52 189h-363l-105 -189h-69l388 690h74l194 -690h-67zM197 246h315l-105 378z" />
    <glyph glyph-name="uni0202" unicode="&#x202;" horiz-adv-x="710" 
d="M436 836c-45 0 -83 -34 -90 -80h-47c10 70 72 123 143 123s118 -53 108 -123h-47c7 46 -23 80 -67 80zM580 0l-52 189h-363l-105 -189h-69l388 690h74l194 -690h-67zM197 246h315l-105 378z" />
    <glyph glyph-name="Amacron" unicode="&#x100;" horiz-adv-x="710" 
d="M546 831l-7 -50h-220l7 50h220zM580 0l-52 189h-363l-105 -189h-69l388 690h74l194 -690h-67zM197 246h315l-105 378z" />
    <glyph glyph-name="Aogonek" unicode="&#x104;" horiz-adv-x="710" 
d="M645 0c-70 -30 -115 -70 -121 -112c-5 -34 18 -57 50 -57c22 0 47 9 66 23l-7 -46c-21 -13 -49 -21 -76 -21c-54 0 -90 39 -83 90c9 52 56 97 120 123h-14l-52 189h-363l-105 -189h-69l388 690h74l194 -690h-2zM197 246h315l-105 378z" />
    <glyph glyph-name="Aring" unicode="&#xc5;" horiz-adv-x="710" 
d="M423 749c-43 0 -72 33 -66 76c6 44 44 77 88 77s73 -33 67 -77c-7 -43 -45 -76 -89 -76zM391 825c-3 -25 13 -43 37 -43s45 18 49 43c3 25 -13 44 -37 44s-45 -19 -49 -44zM580 0l-52 189h-363l-105 -189h-69l388 690h74l194 -690h-67zM197 246h315l-105 378z" />
    <glyph glyph-name="Atilde" unicode="&#xc3;" horiz-adv-x="710" 
d="M372 833c-32 0 -59 -25 -63 -57h-44c8 59 51 104 108 104c63 0 74 -62 125 -62c31 0 59 24 63 57h43c-7 -60 -50 -104 -107 -104c-64 0 -74 62 -125 62zM580 0l-52 189h-363l-105 -189h-69l388 690h74l194 -690h-67zM197 246h315l-105 378z" />
    <glyph glyph-name="AE" unicode="&#xc6;" horiz-adv-x="869" 
d="M868 632h-313l-36 -256h280l-9 -58h-279l-37 -260h318l-8 -58h-380l26 188h-272l-143 -188h-71l526 690h406zM201 245h237l54 382z" />
    <glyph glyph-name="AEacute" unicode="&#x1fc;" horiz-adv-x="869" 
d="M710 885l-137 -122h-63l123 122h77zM868 632h-313l-36 -256h280l-9 -58h-279l-37 -260h318l-8 -58h-380l26 188h-272l-143 -188h-71l526 690h406zM201 245h237l54 382z" />
    <glyph glyph-name="B" unicode="B" horiz-adv-x="556" 
d="M398 367c80 -18 127 -91 114 -181c-15 -107 -107 -186 -214 -186h-245l97 690h213c99 0 164 -73 151 -171c-11 -70 -60 -129 -116 -152zM343 634h-141l-35 -249h141c67 0 130 54 140 125s-35 124 -105 124zM449 195c12 78 -39 137 -117 137h-172l-39 -276h172
c78 0 146 60 156 139z" />
    <glyph glyph-name="C" unicode="C" horiz-adv-x="809" 
d="M372 -12c-204 0 -337 154 -308 357c28 203 205 357 409 357c181 0 306 -121 313 -288h-64c-11 134 -112 228 -257 228c-168 0 -314 -127 -338 -297s86 -297 254 -297c145 0 273 94 321 228h64c-54 -167 -213 -288 -394 -288z" />
    <glyph glyph-name="Cacute" unicode="&#x106;" horiz-adv-x="809" 
d="M443 763l123 122h77l-137 -122h-63zM372 -12c-204 0 -337 154 -308 357c28 203 205 357 409 357c181 0 306 -121 313 -288h-64c-11 134 -112 228 -257 228c-168 0 -314 -127 -338 -297s86 -297 254 -297c145 0 273 94 321 228h64c-54 -167 -213 -288 -394 -288z" />
    <glyph glyph-name="Ccaron" unicode="&#x10c;" horiz-adv-x="809" 
d="M517 763h-72l-84 122h57l67 -89l94 89h56zM381 48c145 0 273 94 321 228h64c-54 -167 -213 -288 -394 -288c-204 0 -337 154 -308 357c28 203 205 357 409 357c181 0 306 -121 313 -288h-64c-11 134 -112 228 -257 228c-168 0 -314 -127 -338 -297s86 -297 254 -297z" />
    <glyph glyph-name="Ccedilla" unicode="&#xc7;" horiz-adv-x="809" 
d="M381 48c145 0 273 94 321 228h64c-52 -161 -202 -279 -375 -288l-24 -26c4 1 9 1 13 1c49 0 81 -39 73 -89c-7 -50 -53 -90 -106 -90s-88 40 -81 90h39c-5 -31 17 -55 47 -55c31 0 58 24 63 55c5 32 -17 55 -47 55c-14 0 -30 -7 -40 -15l-32 16l53 59
c-191 11 -313 161 -285 356c28 203 205 357 409 357c181 0 306 -121 313 -288h-64c-11 134 -112 228 -257 228c-168 0 -314 -127 -338 -297s86 -297 254 -297z" />
    <glyph glyph-name="Ccircumflex" unicode="&#x108;" horiz-adv-x="809" 
d="M494 853l-93 -90h-57l118 122h72l84 -122h-56zM381 48c145 0 273 94 321 228h64c-54 -167 -213 -288 -394 -288c-204 0 -337 154 -308 357c28 203 205 357 409 357c181 0 306 -121 313 -288h-64c-11 134 -112 228 -257 228c-168 0 -314 -127 -338 -297s86 -297 254 -297z
" />
    <glyph glyph-name="Cdotaccent" unicode="&#x10a;" horiz-adv-x="809" 
d="M483 773c-23 0 -39 18 -35 41c2 24 24 42 47 42c24 0 39 -18 36 -42c-4 -23 -24 -41 -48 -41zM372 -12c-204 0 -337 154 -308 357c28 203 205 357 409 357c181 0 306 -121 313 -288h-64c-11 134 -112 228 -257 228c-168 0 -314 -127 -338 -297s86 -297 254 -297
c145 0 273 94 321 228h64c-54 -167 -213 -288 -394 -288z" />
    <glyph glyph-name="D" unicode="D" horiz-adv-x="750" 
d="M413 690c198 0 326 -148 299 -345c-28 -197 -198 -345 -396 -345h-263l97 690h263zM649 345c22 164 -82 287 -245 287h-201l-81 -574h201c163 0 302 123 326 287z" />
    <glyph glyph-name="uni01F1" unicode="&#x1f1;" horiz-adv-x="1330" 
d="M413 690c198 0 326 -148 299 -345c-28 -197 -198 -345 -396 -345h-263l97 690h263zM1339 690l-5 -44l-518 -588h441l-8 -58h-524l6 44l517 588h-430l8 58h513zM649 345c22 164 -82 287 -245 287h-201l-81 -574h201c163 0 302 123 326 287z" />
    <glyph glyph-name="uni01C4" unicode="&#x1c4;" horiz-adv-x="1330" 
d="M1129 763h-72l-84 122h57l67 -89l94 89h56zM413 690c198 0 326 -148 299 -345c-28 -197 -198 -345 -396 -345h-263l97 690h263zM1339 690l-5 -44l-518 -588h441l-8 -58h-524l6 44l517 588h-430l8 58h513zM649 345c22 164 -82 287 -245 287h-201l-81 -574h201
c163 0 302 123 326 287z" />
    <glyph glyph-name="Eth" unicode="&#xd0;" horiz-adv-x="750" 
d="M413 690c198 0 326 -148 299 -345c-28 -197 -198 -345 -396 -345h-263l45 323h-73l6 44h74l45 323h263zM649 345c22 164 -82 287 -245 287h-201l-37 -265h145l-6 -44h-146l-37 -265h201c163 0 302 123 326 287z" />
    <glyph glyph-name="Dcaron" unicode="&#x10e;" horiz-adv-x="750" 
d="M473 763h-72l-84 122h57l67 -89l94 89h56zM413 690c198 0 326 -148 299 -345c-28 -197 -198 -345 -396 -345h-263l97 690h263zM649 345c22 164 -82 287 -245 287h-201l-81 -574h201c163 0 302 123 326 287z" />
    <glyph glyph-name="Dcroat" unicode="&#x110;" horiz-adv-x="750" 
d="M413 690c198 0 326 -148 299 -345c-28 -197 -198 -345 -396 -345h-263l45 323h-73l6 44h74l45 323h263zM649 345c22 164 -82 287 -245 287h-201l-37 -265h145l-6 -44h-146l-37 -265h201c163 0 302 123 326 287z" />
    <glyph glyph-name="uni1E0C" unicode="&#x1e0c;" horiz-adv-x="750" 
d="M413 690c198 0 326 -148 299 -345c-28 -197 -198 -345 -396 -345h-263l97 690h263zM649 345c22 164 -82 287 -245 287h-201l-81 -574h201c163 0 302 123 326 287zM318 -83c24 0 40 -18 36 -41c-3 -24 -24 -42 -48 -42c-23 0 -38 18 -36 42c4 23 25 41 48 41z" />
    <glyph glyph-name="uni01F2" unicode="&#x1f2;" horiz-adv-x="1252" 
d="M413 690c198 0 326 -148 299 -345c-28 -197 -198 -345 -396 -345h-263l97 690h263zM649 345c22 164 -82 287 -245 287h-201l-81 -574h201c163 0 302 123 326 287zM1232 510l-7 -42l-374 -412h324l-8 -56h-405l7 42l374 412h-313l8 56h394z" />
    <glyph glyph-name="uni01C5" unicode="&#x1c5;" horiz-adv-x="1252" 
d="M1083 583h-72l-84 122h56l68 -89l94 89h56zM413 690c198 0 326 -148 299 -345c-28 -197 -198 -345 -396 -345h-263l97 690h263zM649 345c22 164 -82 287 -245 287h-201l-81 -574h201c163 0 302 123 326 287zM1232 510l-7 -42l-374 -412h324l-8 -56h-405l7 42l374 412
h-313l8 56h394z" />
    <glyph glyph-name="E" unicode="E" horiz-adv-x="518" 
d="M516 632h-313l-36 -256h280l-8 -58h-280l-37 -260h318l-8 -58h-379l97 690h374z" />
    <glyph glyph-name="Eacute" unicode="&#xc9;" horiz-adv-x="518" 
d="M508 885l-137 -122h-63l123 122h77zM516 632h-313l-36 -256h280l-8 -58h-280l-37 -260h318l-8 -58h-379l97 690h374z" />
    <glyph glyph-name="Ebreve" unicode="&#x114;" horiz-adv-x="518" 
d="M345 753c-71 0 -118 54 -108 123h47c-6 -45 23 -79 67 -79c45 0 84 34 90 79h47c-9 -69 -71 -123 -143 -123zM516 632h-313l-36 -256h280l-8 -58h-280l-37 -260h318l-8 -58h-379l97 690h374z" />
    <glyph glyph-name="Ecaron" unicode="&#x11a;" horiz-adv-x="518" 
d="M383 763h-72l-84 122h57l67 -89l94 89h56zM516 632h-313l-36 -256h280l-8 -58h-280l-37 -260h318l-8 -58h-379l97 690h374z" />
    <glyph glyph-name="Ecircumflex" unicode="&#xca;" horiz-adv-x="518" 
d="M360 853l-93 -90h-57l118 122h72l84 -122h-56zM516 632h-313l-36 -256h280l-8 -58h-280l-37 -260h318l-8 -58h-379l97 690h374z" />
    <glyph glyph-name="uni0204" unicode="&#x204;" horiz-adv-x="518" 
d="M287 763h-57l-74 122h67zM468 763h-57l-74 122h67zM516 632h-313l-36 -256h280l-8 -58h-280l-37 -260h318l-8 -58h-379l97 690h374z" />
    <glyph glyph-name="Edieresis" unicode="&#xcb;" horiz-adv-x="518" 
d="M248 773c-23 0 -38 17 -35 40s24 40 47 40c22 0 37 -17 34 -40s-23 -40 -46 -40zM449 773c-23 0 -38 17 -35 40s24 40 47 40c22 0 37 -17 34 -40s-23 -40 -46 -40zM516 632h-313l-36 -256h280l-8 -58h-280l-37 -260h318l-8 -58h-379l97 690h374z" />
    <glyph glyph-name="Edotaccent" unicode="&#x116;" horiz-adv-x="518" 
d="M348 773c-23 0 -39 18 -35 41c2 24 24 42 47 42c24 0 39 -18 36 -42c-4 -23 -24 -41 -48 -41zM516 632h-313l-36 -256h280l-8 -58h-280l-37 -260h318l-8 -58h-379l97 690h374z" />
    <glyph glyph-name="uni1EB8" unicode="&#x1eb8;" horiz-adv-x="518" 
d="M516 632h-313l-36 -256h280l-8 -58h-280l-37 -260h318l-8 -58h-379l97 690h374zM228 -83c24 0 40 -18 36 -41c-3 -24 -24 -42 -48 -42c-23 0 -38 18 -36 42c4 23 25 41 48 41z" />
    <glyph glyph-name="Egrave" unicode="&#xc8;" horiz-adv-x="518" 
d="M386 763h-63l-103 122h77zM516 632h-313l-36 -256h280l-8 -58h-280l-37 -260h318l-8 -58h-379l97 690h374z" />
    <glyph glyph-name="uni0206" unicode="&#x206;" horiz-adv-x="518" 
d="M357 836c-45 0 -83 -34 -90 -80h-47c10 70 72 123 143 123s118 -53 108 -123h-47c7 46 -23 80 -67 80zM516 632h-313l-36 -256h280l-8 -58h-280l-37 -260h318l-8 -58h-379l97 690h374z" />
    <glyph glyph-name="Emacron" unicode="&#x112;" horiz-adv-x="518" 
d="M466 831l-7 -50h-220l7 50h220zM516 632h-313l-36 -256h280l-8 -58h-280l-37 -260h318l-8 -58h-379l97 690h374z" />
    <glyph glyph-name="Eogonek" unicode="&#x118;" horiz-adv-x="518" 
d="M516 632h-313l-36 -256h280l-8 -58h-280l-37 -260h318l-8 -58h-14c-70 -30 -115 -70 -121 -112c-5 -34 18 -57 50 -57c22 0 47 9 66 23l-7 -46c-21 -13 -49 -21 -76 -21c-54 0 -90 39 -83 90c9 52 56 97 120 123h-314l97 690h374z" />
    <glyph glyph-name="uni1EBC" unicode="&#x1ebc;" horiz-adv-x="518" 
d="M292 833c-32 0 -59 -25 -63 -57h-44c8 59 51 104 108 104c63 0 74 -62 125 -62c31 0 59 24 63 57h43c-7 -60 -50 -104 -107 -104c-64 0 -74 62 -125 62zM524 690l-8 -58h-313l-36 -256h280l-8 -58h-280l-37 -260h318l-8 -58h-379l97 690h374z" />
    <glyph glyph-name="F" unicode="F" horiz-adv-x="489" 
d="M501 632h-298l-37 -262h255l-8 -58h-255l-44 -312h-61l97 690h359z" />
    <glyph glyph-name="G" unicode="G" horiz-adv-x="813" 
d="M440 354h341c-1 -6 -1 -13 -2 -20c-34 -198 -207 -346 -407 -346c-204 0 -337 154 -308 357c28 203 205 357 409 357c164 0 282 -98 306 -239h-69c-26 107 -119 179 -245 179c-168 0 -314 -127 -338 -297s86 -297 254 -297c153 0 288 104 327 250h-276z" />
    <glyph glyph-name="uni01F4" unicode="&#x1f4;" horiz-adv-x="813" 
d="M643 885l-137 -122h-63l123 122h77zM440 354h341c-1 -6 -1 -13 -2 -20c-34 -198 -207 -346 -407 -346c-204 0 -337 154 -308 357c28 203 205 357 409 357c164 0 282 -98 306 -239h-69c-26 107 -119 179 -245 179c-168 0 -314 -127 -338 -297s86 -297 254 -297
c153 0 288 104 327 250h-276z" />
    <glyph glyph-name="Gbreve" unicode="&#x11e;" horiz-adv-x="813" 
d="M480 753c-71 0 -118 54 -108 123h47c-6 -45 23 -79 67 -79c45 0 84 34 90 79h47c-9 -69 -71 -123 -143 -123zM440 354h341c-1 -6 -1 -13 -2 -20c-34 -198 -207 -346 -407 -346c-204 0 -337 154 -308 357c28 203 205 357 409 357c164 0 282 -98 306 -239h-69
c-26 107 -119 179 -245 179c-168 0 -314 -127 -338 -297s86 -297 254 -297c153 0 288 104 327 250h-276z" />
    <glyph glyph-name="Gcaron" unicode="&#x1e6;" horiz-adv-x="813" 
d="M517 763h-72l-84 122h57l67 -89l94 89h56zM440 354h341c-1 -6 -1 -13 -2 -20c-34 -198 -207 -346 -407 -346c-204 0 -337 154 -308 357c28 203 205 357 409 357c164 0 282 -98 306 -239h-69c-26 107 -119 179 -245 179c-168 0 -314 -127 -338 -297s86 -297 254 -297
c153 0 288 104 327 250h-276z" />
    <glyph glyph-name="Gcircumflex" unicode="&#x11c;" horiz-adv-x="813" 
d="M494 853l-93 -90h-57l118 122h72l84 -122h-56zM440 354h341c-1 -6 -1 -13 -2 -20c-34 -198 -207 -346 -407 -346c-204 0 -337 154 -308 357c28 203 205 357 409 357c164 0 282 -98 306 -239h-69c-26 107 -119 179 -245 179c-168 0 -314 -127 -338 -297s86 -297 254 -297
c153 0 288 104 327 250h-276z" />
    <glyph glyph-name="uni0122" unicode="&#x122;" horiz-adv-x="813" 
d="M440 354h341c-1 -6 -1 -13 -2 -20c-34 -198 -207 -346 -407 -346c-204 0 -337 154 -308 357c28 203 205 357 409 357c164 0 282 -98 306 -239h-69c-26 107 -119 179 -245 179c-168 0 -314 -127 -338 -297s86 -297 254 -297c153 0 288 104 327 250h-276zM293 -216l51 144
h62l-65 -144h-48z" />
    <glyph glyph-name="Gdotaccent" unicode="&#x120;" horiz-adv-x="813" 
d="M483 773c-23 0 -39 18 -35 41c2 24 24 42 47 42c24 0 39 -18 36 -42c-4 -23 -24 -41 -48 -41zM440 354h341c-1 -6 -1 -13 -2 -20c-34 -198 -207 -346 -407 -346c-204 0 -337 154 -308 357c28 203 205 357 409 357c164 0 282 -98 306 -239h-69c-26 107 -119 179 -245 179
c-168 0 -314 -127 -338 -297s86 -297 254 -297c153 0 288 104 327 250h-276z" />
    <glyph glyph-name="H" unicode="H" horiz-adv-x="736" 
d="M646 690h62l-97 -690h-62l45 318h-435l-45 -318h-61l97 690h61l-44 -314h435z" />
    <glyph glyph-name="Hbar" unicode="&#x126;" horiz-adv-x="736" 
d="M749 561l-7 -44h-58l-73 -517h-62l45 318h-435l-45 -318h-61l73 517h-58l6 44h58l18 129h61l-18 -129h435l18 129h62l-18 -129h59zM602 376l20 141h-435l-20 -141h435z" />
    <glyph glyph-name="Hcircumflex" unicode="&#x124;" horiz-adv-x="736" 
d="M453 853l-93 -90h-57l118 122h72l84 -122h-56zM646 690h62l-97 -690h-62l45 318h-435l-45 -318h-61l97 690h61l-44 -314h435z" />
    <glyph glyph-name="uni1E24" unicode="&#x1e24;" horiz-adv-x="736" 
d="M646 690h62l-97 -690h-62l45 318h-435l-45 -318h-61l97 690h61l-44 -314h435zM321 -83c24 0 40 -18 36 -41c-3 -24 -24 -42 -48 -42c-23 0 -38 18 -36 42c4 23 25 41 48 41z" />
    <glyph glyph-name="I" unicode="I" horiz-adv-x="239" 
d="M53 0l97 690h61l-97 -690h-61z" />
    <glyph glyph-name="IJ" unicode="&#x132;" horiz-adv-x="776" 
d="M53 0l97 690h61l-97 -690h-61zM452 -12c-123 0 -202 92 -185 213h63c-12 -88 45 -153 131 -153c88 0 162 65 174 153l69 489h62l-69 -489c-17 -121 -123 -213 -245 -213z" />
    <glyph glyph-name="Iacute" unicode="&#xcd;" horiz-adv-x="239" 
d="M152 763l123 122h77l-137 -122h-63zM53 0l97 690h61l-97 -690h-61z" />
    <glyph glyph-name="Ibreve" unicode="&#x12c;" horiz-adv-x="239" 
d="M189 753c-71 0 -118 54 -108 123h47c-6 -45 23 -79 67 -79c45 0 84 34 90 79h47c-9 -69 -71 -123 -143 -123zM53 0l97 690h61l-97 -690h-61z" />
    <glyph glyph-name="Icircumflex" unicode="&#xce;" horiz-adv-x="239" 
d="M244 885l84 -122h-56l-68 90l-93 -90h-57l118 122h72zM53 0l97 690h61l-97 -690h-61z" />
    <glyph glyph-name="uni0208" unicode="&#x208;" horiz-adv-x="239" 
d="M75 763l-74 122h67l64 -122h-57zM256 763l-74 122h67l64 -122h-57zM53 0l97 690h61l-97 -690h-61z" />
    <glyph glyph-name="Idieresis" unicode="&#xcf;" horiz-adv-x="239" 
d="M92 773c-23 0 -38 17 -35 40s24 40 47 40c22 0 37 -17 34 -40s-23 -40 -46 -40zM293 773c-23 0 -38 17 -35 40s24 40 47 40c22 0 37 -17 34 -40s-23 -40 -46 -40zM53 0l97 690h61l-97 -690h-61z" />
    <glyph glyph-name="Idotaccent" unicode="&#x130;" horiz-adv-x="239" 
d="M192 773c-23 0 -39 18 -35 41c2 24 24 42 47 42c24 0 39 -18 36 -42c-4 -23 -24 -41 -48 -41zM53 0l97 690h61l-97 -690h-61z" />
    <glyph glyph-name="uni1ECA" unicode="&#x1eca;" horiz-adv-x="239" 
d="M53 0l97 690h61l-97 -690h-61zM60 -166c-23 0 -38 18 -36 42c4 23 25 41 48 41c24 0 40 -18 36 -41c-3 -24 -24 -42 -48 -42z" />
    <glyph glyph-name="Igrave" unicode="&#xcc;" horiz-adv-x="239" 
d="M167 763l-103 122h77l89 -122h-63zM53 0l97 690h61l-97 -690h-61z" />
    <glyph glyph-name="uni020A" unicode="&#x20a;" horiz-adv-x="239" 
d="M64 756c10 70 72 123 143 123s118 -53 108 -123h-47c7 46 -23 80 -67 80c-45 0 -83 -34 -90 -80h-47zM53 0l97 690h61l-97 -690h-61z" />
    <glyph glyph-name="Imacron" unicode="&#x12a;" horiz-adv-x="239" 
d="M84 781l7 50h220l-7 -50h-220zM53 0l97 690h61l-97 -690h-61z" />
    <glyph glyph-name="Iogonek" unicode="&#x12e;" horiz-adv-x="239" 
d="M150 690h61l-97 -690h-1c-70 -30 -115 -70 -121 -112c-5 -34 18 -57 50 -57c22 0 47 9 66 23l-7 -46c-21 -13 -49 -21 -76 -21c-54 0 -90 39 -83 90c9 52 56 97 120 123h-9z" />
    <glyph glyph-name="Itilde" unicode="&#x128;" horiz-adv-x="239" 
d="M262 771c-64 0 -74 62 -125 62c-32 0 -59 -25 -63 -57h-44c8 59 51 104 108 104c63 0 74 -62 125 -62c31 0 59 24 63 57h43c-7 -60 -50 -104 -107 -104zM53 0l97 690h61l-97 -690h-61z" />
    <glyph glyph-name="J" unicode="J" horiz-adv-x="537" 
d="M213 -12c-123 0 -202 92 -185 213h63c-12 -88 45 -153 131 -153c88 0 162 65 174 153l69 489h62l-69 -489c-17 -121 -123 -213 -245 -213z" />
    <glyph glyph-name="Jcircumflex" unicode="&#x134;" horiz-adv-x="537" 
d="M559 885l84 -122h-56l-68 90l-93 -90h-57l118 122h72zM396 201l69 489h62l-69 -489c-17 -121 -123 -213 -245 -213c-123 0 -202 92 -185 213h63c-12 -88 45 -153 131 -153c88 0 162 65 174 153z" />
    <glyph glyph-name="K" unicode="K" horiz-adv-x="601" 
d="M643 690l-421 -342l331 -348h-81l-312 323l-46 -323h-61l97 690h61l-44 -316l397 316h79z" />
    <glyph glyph-name="uni0136" unicode="&#x136;" horiz-adv-x="601" 
d="M643 690l-421 -342l331 -348h-81l-312 323l-46 -323h-61l97 690h61l-44 -316l397 316h79zM201 -216l51 144h62l-65 -144h-48z" />
    <glyph glyph-name="L" unicode="L" horiz-adv-x="472" 
d="M122 58h288l-8 -58h-349l97 690h61z" />
    <glyph glyph-name="uni01C7" unicode="&#x1c7;" horiz-adv-x="990" 
d="M211 690l-89 -632h288l-8 -58h-349l97 690h61zM918 690h62l-69 -489c-17 -121 -123 -213 -245 -213c-123 0 -202 92 -185 213h63c-12 -88 45 -153 131 -153c88 0 162 65 174 153z" />
    <glyph glyph-name="Lacute" unicode="&#x139;" horiz-adv-x="472" 
d="M352 885l-137 -122h-63l123 122h77zM122 58h288l-8 -58h-349l97 690h61z" />
    <glyph glyph-name="Lcaron" unicode="&#x13d;" horiz-adv-x="480" 
d="M122 58h288l-8 -58h-349l97 690h61zM401 690l-58 -187h-45l47 187h56z" />
    <glyph glyph-name="uni013B" unicode="&#x13b;" horiz-adv-x="472" 
d="M122 58h288l-8 -58h-349l97 690h61zM143 -216l51 144h62l-65 -144h-48z" />
    <glyph glyph-name="Ldot" unicode="&#x13f;" horiz-adv-x="484" 
d="M122 58h288l-8 -58h-349l97 690h61zM308 307c-24 0 -40 19 -36 43c3 25 24 43 48 43s41 -18 38 -43c-4 -24 -25 -43 -50 -43z" />
    <glyph glyph-name="uni01C8" unicode="&#x1c8;" horiz-adv-x="695" 
d="M651 713c24 0 39 -18 36 -41c-3 -24 -24 -42 -48 -42s-39 18 -36 42c3 23 24 41 48 41zM410 58l-8 -58h-349l97 690h61l-89 -632h288zM515 -45l79 555h58l-79 -558c-14 -105 -82 -154 -184 -154l7 54c65 0 110 32 119 103z" />
    <glyph glyph-name="Lslash" unicode="&#x141;" horiz-adv-x="472" 
d="M122 58h288l-8 -58h-349l39 276l-75 -46l8 59l75 46l50 355h61l-44 -314l141 87l-9 -59l-140 -87z" />
    <glyph glyph-name="M" unicode="M" horiz-adv-x="893" 
d="M784 690h81l-97 -690h-61l82 591l-354 -591h-49l-189 591l-83 -591h-61l97 690h82l191 -602z" />
    <glyph glyph-name="N" unicode="N" horiz-adv-x="743" 
d="M654 690h62l-97 -690h-67l-354 590l-84 -590h-61l97 690h66l355 -591z" />
    <glyph glyph-name="uni01CA" unicode="&#x1ca;" horiz-adv-x="1280" 
d="M571 99l83 591h62l-97 -690h-67l-354 590l-84 -590h-61l97 690h66zM1208 690h62l-69 -489c-17 -121 -123 -213 -245 -213c-123 0 -202 92 -185 213h63c-12 -88 45 -153 131 -153c88 0 162 65 174 153z" />
    <glyph glyph-name="Nacute" unicode="&#x143;" horiz-adv-x="743" 
d="M605 885l-137 -122h-63l123 122h77zM654 690h62l-97 -690h-67l-354 590l-84 -590h-61l97 690h66l355 -591z" />
    <glyph glyph-name="Ncaron" unicode="&#x147;" horiz-adv-x="743" 
d="M480 763h-72l-84 122h57l67 -89l94 89h56zM654 690h62l-97 -690h-67l-354 590l-84 -590h-61l97 690h66l355 -591z" />
    <glyph glyph-name="uni0145" unicode="&#x145;" horiz-adv-x="743" 
d="M654 690h62l-97 -690h-67l-354 590l-84 -590h-61l97 690h66l355 -591zM254 -216l51 144h62l-65 -144h-48z" />
    <glyph glyph-name="uni1E44" unicode="&#x1e44;" horiz-adv-x="743" 
d="M445 773c-23 0 -39 18 -35 41c2 24 24 42 47 42c24 0 39 -18 36 -42c-4 -23 -24 -41 -48 -41zM654 690h62l-97 -690h-67l-354 590l-84 -590h-61l97 690h66l355 -591z" />
    <glyph glyph-name="Eng" unicode="&#x14a;" horiz-adv-x="743" 
d="M716 690l-96 -685l-7 -52c-15 -102 -82 -150 -182 -150l8 57c60 0 103 29 112 96l6 44h-5l-354 590l-84 -590h-61l97 690h66l355 -591l83 591h62z" />
    <glyph glyph-name="uni01CB" unicode="&#x1cb;" horiz-adv-x="966" 
d="M922 713c24 0 39 -18 36 -41c-3 -24 -24 -42 -48 -42s-39 18 -36 42c3 23 24 41 48 41zM654 690h62l-97 -690h-67l-354 590l-84 -590h-61l97 690h66l355 -591zM786 -45l79 555h58l-79 -558c-14 -105 -82 -154 -184 -154l7 54c65 0 110 32 119 103z" />
    <glyph glyph-name="Ntilde" unicode="&#xd1;" horiz-adv-x="743" 
d="M390 833c-32 0 -59 -25 -63 -57h-44c8 59 51 104 108 104c63 0 74 -62 125 -62c31 0 59 24 63 57h43c-7 -60 -50 -104 -107 -104c-64 0 -74 62 -125 62zM654 690h62l-97 -690h-67l-354 590l-84 -590h-61l97 690h66l355 -591z" />
    <glyph glyph-name="O" unicode="O" horiz-adv-x="821" 
d="M372 -12c-204 0 -337 154 -308 357c28 203 205 357 409 357c205 0 338 -154 310 -357c-29 -203 -206 -357 -411 -357zM381 48c169 0 314 127 338 297s-86 297 -254 297s-314 -127 -338 -297s86 -297 254 -297z" />
    <glyph glyph-name="Oacute" unicode="&#xd3;" horiz-adv-x="821" 
d="M443 763l123 122h77l-137 -122h-63zM372 -12c-204 0 -337 154 -308 357c28 203 205 357 409 357c205 0 338 -154 310 -357c-29 -203 -206 -357 -411 -357zM381 48c169 0 314 127 338 297s-86 297 -254 297s-314 -127 -338 -297s86 -297 254 -297z" />
    <glyph glyph-name="Obreve" unicode="&#x14e;" horiz-adv-x="821" 
d="M480 753c-71 0 -118 54 -108 123h47c-6 -45 23 -79 67 -79c45 0 84 34 90 79h47c-9 -69 -71 -123 -143 -123zM372 -12c-204 0 -337 154 -308 357c28 203 205 357 409 357c205 0 338 -154 310 -357c-29 -203 -206 -357 -411 -357zM381 48c169 0 314 127 338 297
s-86 297 -254 297s-314 -127 -338 -297s86 -297 254 -297z" />
    <glyph glyph-name="Ocircumflex" unicode="&#xd4;" horiz-adv-x="821" 
d="M494 853l-93 -90h-57l118 122h72l84 -122h-56zM473 702c205 0 338 -154 310 -357c-29 -203 -206 -357 -411 -357c-204 0 -337 154 -308 357c28 203 205 357 409 357zM719 345c24 170 -86 297 -254 297s-314 -127 -338 -297s86 -297 254 -297c169 0 314 127 338 297z" />
    <glyph glyph-name="uni020C" unicode="&#x20c;" horiz-adv-x="821" 
d="M365 763l-74 122h67l64 -122h-57zM546 763l-74 122h67l64 -122h-57zM372 -12c-204 0 -337 154 -308 357c28 203 205 357 409 357c205 0 338 -154 310 -357c-29 -203 -206 -357 -411 -357zM381 48c169 0 314 127 338 297s-86 297 -254 297s-314 -127 -338 -297
s86 -297 254 -297z" />
    <glyph glyph-name="Odieresis" unicode="&#xd6;" horiz-adv-x="821" 
d="M382 773c-23 0 -38 17 -35 40s24 40 47 40c22 0 37 -17 34 -40s-23 -40 -46 -40zM583 773c-23 0 -38 17 -35 40s24 40 47 40c22 0 37 -17 34 -40s-23 -40 -46 -40zM372 -12c-204 0 -337 154 -308 357c28 203 205 357 409 357c205 0 338 -154 310 -357
c-29 -203 -206 -357 -411 -357zM381 48c169 0 314 127 338 297s-86 297 -254 297s-314 -127 -338 -297s86 -297 254 -297z" />
    <glyph glyph-name="uni1ECC" unicode="&#x1ecc;" horiz-adv-x="821" 
d="M372 -12c-204 0 -337 154 -308 357c28 203 205 357 409 357c205 0 338 -154 310 -357c-29 -203 -206 -357 -411 -357zM381 48c169 0 314 127 338 297s-86 297 -254 297s-314 -127 -338 -297s86 -297 254 -297zM351 -166c-23 0 -38 18 -36 42c4 23 25 41 48 41
c24 0 40 -18 36 -41c-3 -24 -24 -42 -48 -42z" />
    <glyph glyph-name="Ograve" unicode="&#xd2;" horiz-adv-x="821" 
d="M458 763l-103 122h77l89 -122h-63zM372 -12c-204 0 -337 154 -308 357c28 203 205 357 409 357c205 0 338 -154 310 -357c-29 -203 -206 -357 -411 -357zM381 48c169 0 314 127 338 297s-86 297 -254 297s-314 -127 -338 -297s86 -297 254 -297z" />
    <glyph glyph-name="Ohungarumlaut" unicode="&#x150;" horiz-adv-x="821" 
d="M359 763l98 122h67l-108 -122h-57zM541 763l97 122h67l-108 -122h-56zM372 -12c-204 0 -337 154 -308 357c28 203 205 357 409 357c205 0 338 -154 310 -357c-29 -203 -206 -357 -411 -357zM381 48c169 0 314 127 338 297s-86 297 -254 297s-314 -127 -338 -297
s86 -297 254 -297z" />
    <glyph glyph-name="uni020E" unicode="&#x20e;" horiz-adv-x="821" 
d="M355 756c10 70 72 123 143 123s118 -53 108 -123h-47c7 46 -23 80 -67 80c-45 0 -83 -34 -90 -80h-47zM372 -12c-204 0 -337 154 -308 357c28 203 205 357 409 357c205 0 338 -154 310 -357c-29 -203 -206 -357 -411 -357zM381 48c169 0 314 127 338 297
s-86 297 -254 297s-314 -127 -338 -297s86 -297 254 -297z" />
    <glyph glyph-name="Omacron" unicode="&#x14c;" horiz-adv-x="821" 
d="M374 781l7 50h220l-7 -50h-220zM372 -12c-204 0 -337 154 -308 357c28 203 205 357 409 357c205 0 338 -154 310 -357c-29 -203 -206 -357 -411 -357zM381 48c169 0 314 127 338 297s-86 297 -254 297s-314 -127 -338 -297s86 -297 254 -297z" />
    <glyph glyph-name="uni01EA" unicode="&#x1ea;" horiz-adv-x="821" 
d="M473 702c205 0 338 -154 310 -357c-24 -168 -149 -302 -307 -344c-65 -29 -107 -68 -113 -108c-5 -34 18 -57 50 -57c22 0 47 9 66 23l-7 -46c-21 -13 -49 -21 -76 -21c-54 0 -90 39 -83 90c7 43 40 80 87 107c-9 -1 -19 -1 -28 -1c-204 0 -337 154 -308 357
c28 203 205 357 409 357zM719 345c24 170 -86 297 -254 297s-314 -127 -338 -297s86 -297 254 -297c169 0 314 127 338 297z" />
    <glyph glyph-name="Oslash" unicode="&#xd8;" horiz-adv-x="821" 
d="M805 690l-91 -89c56 -64 83 -154 69 -256c-29 -203 -206 -357 -411 -357c-85 0 -158 27 -212 73l-63 -61h-57l92 89c-56 64 -83 154 -68 256c28 203 205 357 409 357c86 0 159 -27 213 -73l62 61h57zM127 345c-12 -83 9 -156 52 -209l459 447c-44 37 -104 59 -173 59
c-168 0 -314 -127 -338 -297zM719 345c12 84 -9 157 -53 210l-459 -447c45 -38 104 -60 174 -60c169 0 314 127 338 297z" />
    <glyph glyph-name="Oslashacute" unicode="&#x1fe;" horiz-adv-x="821" 
d="M649 885l-137 -122h-63l123 122h77zM805 690l-91 -89c56 -64 83 -154 69 -256c-29 -203 -206 -357 -411 -357c-85 0 -158 27 -212 73l-63 -61h-57l92 89c-56 64 -83 154 -68 256c28 203 205 357 409 357c86 0 159 -27 213 -73l62 61h57zM127 345c-12 -83 9 -156 52 -209
l459 447c-44 37 -104 59 -173 59c-168 0 -314 -127 -338 -297zM719 345c12 84 -9 157 -53 210l-459 -447c45 -38 104 -60 174 -60c169 0 314 127 338 297z" />
    <glyph glyph-name="Otilde" unicode="&#xd5;" horiz-adv-x="821" 
d="M552 771c-64 0 -74 62 -125 62c-32 0 -59 -25 -63 -57h-44c8 59 51 104 108 104c63 0 74 -62 125 -62c31 0 59 24 63 57h43c-7 -60 -50 -104 -107 -104zM372 -12c-204 0 -337 154 -308 357c28 203 205 357 409 357c205 0 338 -154 310 -357c-29 -203 -206 -357 -411 -357
zM381 48c169 0 314 127 338 297s-86 297 -254 297s-314 -127 -338 -297s86 -297 254 -297z" />
    <glyph glyph-name="OE" unicode="&#x152;" horiz-adv-x="914" 
d="M913 632h-313l-36 -256h280l-9 -58h-279l-37 -260h318l-8 -58h-467c-198 0 -326 148 -298 345c27 197 197 345 395 345h462zM457 58l81 574h-86c-162 0 -302 -123 -325 -287s82 -287 245 -287h85z" />
    <glyph glyph-name="P" unicode="P" horiz-adv-x="553" 
d="M365 690c120 0 198 -90 182 -208c-17 -119 -120 -209 -240 -209h-155l-38 -273h-61l97 690h215zM484 482c11 86 -43 150 -128 150h-153l-42 -301h153c84 0 157 65 170 151z" />
    <glyph glyph-name="Thorn" unicode="&#xde;" horiz-adv-x="550" 
d="M346 555c120 0 199 -90 182 -209c-17 -118 -120 -208 -240 -208h-155l-19 -138h-61l97 690h61l-19 -135h154zM464 346c13 87 -43 151 -127 151h-153l-42 -301h153c84 0 157 64 169 150z" />
    <glyph glyph-name="Q" unicode="Q" horiz-adv-x="821" 
d="M473 702c205 0 338 -154 310 -357c-19 -135 -104 -249 -220 -310l61 -120h-66l-49 97c-43 -16 -89 -24 -137 -24c-204 0 -337 154 -308 357c28 203 205 357 409 357zM719 345c24 170 -86 297 -254 297s-314 -127 -338 -297s86 -297 254 -297c35 0 70 6 102 16l-70 138h66
l58 -115c96 50 166 144 182 258z" />
    <glyph glyph-name="R" unicode="R" horiz-adv-x="554" 
d="M538 490c-16 -113 -115 -198 -230 -198h-63l237 -292h-79l-237 292h-11l-41 -292h-61l97 690h213c115 0 191 -86 175 -200zM203 632l-40 -286h150c80 0 150 61 161 143c12 82 -40 143 -121 143h-150z" />
    <glyph glyph-name="Racute" unicode="&#x154;" horiz-adv-x="554" 
d="M512 885l-137 -122h-63l123 122h77zM538 490c-16 -113 -115 -198 -230 -198h-63l237 -292h-79l-237 292h-11l-41 -292h-61l97 690h213c115 0 191 -86 175 -200zM203 632l-40 -286h150c80 0 150 61 161 143c12 82 -40 143 -121 143h-150z" />
    <glyph glyph-name="Rcaron" unicode="&#x158;" horiz-adv-x="554" 
d="M387 763h-72l-84 122h57l67 -89l94 89h56zM538 490c-16 -113 -115 -198 -230 -198h-63l237 -292h-79l-237 292h-11l-41 -292h-61l97 690h213c115 0 191 -86 175 -200zM203 632l-40 -286h150c80 0 150 61 161 143c12 82 -40 143 -121 143h-150z" />
    <glyph glyph-name="uni0156" unicode="&#x156;" horiz-adv-x="554" 
d="M538 490c-16 -113 -115 -198 -230 -198h-63l237 -292h-79l-237 292h-11l-41 -292h-61l97 690h213c115 0 191 -86 175 -200zM203 632l-40 -286h150c80 0 150 61 161 143c12 82 -40 143 -121 143h-150zM172 -216l51 144h62l-65 -144h-48z" />
    <glyph glyph-name="uni0210" unicode="&#x210;" horiz-adv-x="554" 
d="M291 763h-57l-74 122h67zM472 763h-57l-74 122h67zM538 490c-16 -113 -115 -198 -230 -198h-63l237 -292h-79l-237 292h-11l-41 -292h-61l97 690h213c115 0 191 -86 175 -200zM203 632l-40 -286h150c80 0 150 61 161 143c12 82 -40 143 -121 143h-150z" />
    <glyph glyph-name="uni1E5A" unicode="&#x1e5a;" horiz-adv-x="554" 
d="M538 490c-16 -113 -115 -198 -230 -198h-63l237 -292h-79l-237 292h-11l-41 -292h-61l97 690h213c115 0 191 -86 175 -200zM203 632l-40 -286h150c80 0 150 61 161 143c12 82 -40 143 -121 143h-150zM242 -83c24 0 40 -18 36 -41c-3 -24 -24 -42 -48 -42
c-23 0 -38 18 -36 42c4 23 25 41 48 41z" />
    <glyph glyph-name="uni0212" unicode="&#x212;" horiz-adv-x="554" 
d="M361 836c-45 0 -83 -34 -90 -80h-47c10 70 72 123 143 123s118 -53 108 -123h-47c7 46 -23 80 -67 80zM538 490c-16 -113 -115 -198 -230 -198h-63l237 -292h-79l-237 292h-11l-41 -292h-61l97 690h213c115 0 191 -86 175 -200zM203 632l-40 -286h150
c80 0 150 61 161 143c12 82 -40 143 -121 143h-150z" />
    <glyph glyph-name="S" unicode="S" horiz-adv-x="524" 
d="M224 -12c-122 0 -202 87 -187 201h63c-11 -82 47 -145 134 -145c85 0 158 56 168 131c11 75 -42 123 -144 149c-112 27 -176 91 -162 196c14 103 113 182 229 182s192 -83 176 -193h-63c11 78 -41 137 -121 137c-79 0 -147 -53 -157 -124s36 -118 134 -143
c118 -30 188 -91 172 -201c-15 -108 -119 -190 -242 -190z" />
    <glyph glyph-name="Sacute" unicode="&#x15a;" horiz-adv-x="524" 
d="M295 763l123 122h77l-137 -122h-63zM224 -12c-122 0 -202 87 -187 201h63c-11 -82 47 -145 134 -145c85 0 158 56 168 131c11 75 -42 123 -144 149c-112 27 -176 91 -162 196c14 103 113 182 229 182s192 -83 176 -193h-63c11 78 -41 137 -121 137
c-79 0 -147 -53 -157 -124s36 -118 134 -143c118 -30 188 -91 172 -201c-15 -108 -119 -190 -242 -190z" />
    <glyph glyph-name="Scaron" unicode="&#x160;" horiz-adv-x="524" 
d="M369 763h-72l-84 122h57l67 -89l94 89h56zM501 509h-63c11 78 -41 137 -121 137c-79 0 -147 -53 -157 -124s36 -118 134 -143c118 -30 188 -91 172 -201c-15 -108 -119 -190 -242 -190c-122 0 -202 87 -187 201h63c-11 -82 47 -145 134 -145c85 0 158 56 168 131
c11 75 -42 123 -144 149c-112 27 -176 91 -162 196c14 103 113 182 229 182s192 -83 176 -193z" />
    <glyph glyph-name="Scedilla" unicode="&#x15e;" horiz-adv-x="524" 
d="M501 509h-63c11 78 -41 137 -121 137c-79 0 -147 -53 -157 -124s36 -118 134 -143c118 -30 188 -91 172 -201c-14 -102 -108 -181 -222 -189l-25 -27c4 1 9 1 13 1c49 0 81 -39 73 -89c-7 -50 -53 -90 -106 -90s-88 40 -81 90h39c-5 -31 17 -55 47 -55c31 0 58 24 63 55
c5 32 -17 55 -47 55c-14 0 -30 -7 -40 -15l-32 16l53 59c-109 10 -178 93 -164 200h63c-11 -82 47 -145 134 -145c85 0 158 56 168 131c11 75 -42 123 -144 149c-112 27 -176 91 -162 196c14 103 113 182 229 182s192 -83 176 -193z" />
    <glyph glyph-name="Scircumflex" unicode="&#x15c;" horiz-adv-x="524" 
d="M346 853l-93 -90h-57l118 122h72l84 -122h-56zM501 509h-63c11 78 -41 137 -121 137c-79 0 -147 -53 -157 -124s36 -118 134 -143c118 -30 188 -91 172 -201c-15 -108 -119 -190 -242 -190c-122 0 -202 87 -187 201h63c-11 -82 47 -145 134 -145c85 0 158 56 168 131
c11 75 -42 123 -144 149c-112 27 -176 91 -162 196c14 103 113 182 229 182s192 -83 176 -193z" />
    <glyph glyph-name="uni0218" unicode="&#x218;" horiz-adv-x="524" 
d="M224 -12c-122 0 -202 87 -187 201h63c-11 -82 47 -145 134 -145c85 0 158 56 168 131c11 75 -42 123 -144 149c-112 27 -176 91 -162 196c14 103 113 182 229 182s192 -83 176 -193h-63c11 78 -41 137 -121 137c-79 0 -147 -53 -157 -124s36 -118 134 -143
c118 -30 188 -91 172 -201c-15 -108 -119 -190 -242 -190zM145 -216l51 144h62l-65 -144h-48z" />
    <glyph glyph-name="uni1E62" unicode="&#x1e62;" horiz-adv-x="524" 
d="M224 -12c-122 0 -202 87 -187 201h63c-11 -82 47 -145 134 -145c85 0 158 56 168 131c11 75 -42 123 -144 149c-112 27 -176 91 -162 196c14 103 113 182 229 182s192 -83 176 -193h-63c11 78 -41 137 -121 137c-79 0 -147 -53 -157 -124s36 -118 134 -143
c118 -30 188 -91 172 -201c-15 -108 -119 -190 -242 -190zM203 -166c-23 0 -38 18 -36 42c4 23 25 41 48 41c24 0 40 -18 36 -41c-3 -24 -24 -42 -48 -42z" />
    <glyph glyph-name="uni1E9E" unicode="&#x1e9e;" horiz-adv-x="604" 
d="M379 418c124 0 205 -93 188 -216c-18 -122 -124 -214 -248 -214c-42 0 -88 15 -114 36l9 64c19 -23 65 -40 106 -40c92 0 171 67 183 157c13 88 -45 156 -133 156h-69l7 45l190 226h-219c-46 0 -84 -34 -91 -80l-78 -552h-61l78 557c11 77 75 133 154 133h294l-7 -51
l-191 -221h2z" />
    <glyph glyph-name="T" unicode="T" horiz-adv-x="546" 
d="M575 690l-8 -58h-211l-88 -632h-62l88 632h-210l9 58h482z" />
    <glyph glyph-name="Tbar" unicode="&#x166;" horiz-adv-x="546" 
d="M567 632h-211l-38 -276h110l-6 -44h-110l-44 -312h-62l44 312h-108l6 44h108l38 276h-210l9 58h482z" />
    <glyph glyph-name="Tcaron" unicode="&#x164;" horiz-adv-x="546" 
d="M380 763h-72l-84 122h57l67 -89l94 89h56zM575 690l-8 -58h-211l-88 -632h-62l88 632h-210l9 58h482z" />
    <glyph glyph-name="uni0162" unicode="&#x162;" horiz-adv-x="546" 
d="M268 0h-10l-34 -37c4 1 9 1 13 1c49 0 81 -39 73 -89c-7 -50 -53 -90 -106 -90s-88 40 -81 90h39c-5 -31 17 -55 47 -55c31 0 58 24 63 55c5 32 -17 55 -47 55c-14 0 -30 -7 -40 -15l-32 16l62 69h-9l88 632h-210l9 58h482l-8 -58h-211z" />
    <glyph glyph-name="uni021A" unicode="&#x21a;" horiz-adv-x="546" 
d="M575 690l-8 -58h-211l-88 -632h-62l88 632h-210l9 58h482zM156 -216l51 144h62l-65 -144h-48z" />
    <glyph glyph-name="uni1E6C" unicode="&#x1e6c;" horiz-adv-x="546" 
d="M575 690l-8 -58h-211l-88 -632h-62l88 632h-210l9 58h482zM226 -83c24 0 40 -18 36 -41c-3 -24 -24 -42 -48 -42c-23 0 -38 18 -36 42c4 23 25 41 48 41z" />
    <glyph glyph-name="U" unicode="U" horiz-adv-x="697" 
d="M311 -12c-158 0 -261 118 -238 275l59 427h62l-60 -427c-17 -122 62 -215 186 -215c123 0 228 93 246 215l59 427h62l-60 -427c-22 -157 -159 -275 -316 -275z" />
    <glyph glyph-name="Uacute" unicode="&#xda;" horiz-adv-x="697" 
d="M381 763l123 122h77l-137 -122h-63zM311 -12c-158 0 -261 118 -238 275l59 427h62l-60 -427c-17 -122 62 -215 186 -215c123 0 228 93 246 215l59 427h62l-60 -427c-22 -157 -159 -275 -316 -275z" />
    <glyph glyph-name="Ubreve" unicode="&#x16c;" horiz-adv-x="697" 
d="M418 753c-71 0 -118 54 -108 123h47c-6 -45 23 -79 67 -79c45 0 84 34 90 79h47c-9 -69 -71 -123 -143 -123zM311 -12c-158 0 -261 118 -238 275l59 427h62l-60 -427c-17 -122 62 -215 186 -215c123 0 228 93 246 215l59 427h62l-60 -427c-22 -157 -159 -275 -316 -275z
" />
    <glyph glyph-name="Ucircumflex" unicode="&#xdb;" horiz-adv-x="697" 
d="M433 853l-93 -90h-57l118 122h72l84 -122h-56zM625 690h62l-60 -427c-22 -157 -159 -275 -316 -275c-158 0 -261 118 -238 275l59 427h62l-60 -427c-17 -122 62 -215 186 -215c123 0 228 93 246 215z" />
    <glyph glyph-name="uni0214" unicode="&#x214;" horiz-adv-x="697" 
d="M303 763l-74 122h67l64 -122h-57zM484 763l-74 122h67l64 -122h-57zM311 -12c-158 0 -261 118 -238 275l59 427h62l-60 -427c-17 -122 62 -215 186 -215c123 0 228 93 246 215l59 427h62l-60 -427c-22 -157 -159 -275 -316 -275z" />
    <glyph glyph-name="Udieresis" unicode="&#xdc;" horiz-adv-x="697" 
d="M321 773c-23 0 -38 17 -35 40s24 40 47 40c22 0 37 -17 34 -40s-23 -40 -46 -40zM522 773c-23 0 -38 17 -35 40s24 40 47 40c22 0 37 -17 34 -40s-23 -40 -46 -40zM311 -12c-158 0 -261 118 -238 275l59 427h62l-60 -427c-17 -122 62 -215 186 -215c123 0 228 93 246 215
l59 427h62l-60 -427c-22 -157 -159 -275 -316 -275z" />
    <glyph glyph-name="uni1EE4" unicode="&#x1ee4;" horiz-adv-x="697" 
d="M311 -12c-158 0 -261 118 -238 275l59 427h62l-60 -427c-17 -122 62 -215 186 -215c123 0 228 93 246 215l59 427h62l-60 -427c-22 -157 -159 -275 -316 -275zM289 -166c-23 0 -38 18 -36 42c4 23 25 41 48 41c24 0 40 -18 36 -41c-3 -24 -24 -42 -48 -42z" />
    <glyph glyph-name="Ugrave" unicode="&#xd9;" horiz-adv-x="697" 
d="M396 763l-103 122h77l89 -122h-63zM311 -12c-158 0 -261 118 -238 275l59 427h62l-60 -427c-17 -122 62 -215 186 -215c123 0 228 93 246 215l59 427h62l-60 -427c-22 -157 -159 -275 -316 -275z" />
    <glyph glyph-name="Uhungarumlaut" unicode="&#x170;" horiz-adv-x="697" 
d="M297 763l98 122h67l-108 -122h-57zM479 763l97 122h67l-108 -122h-56zM311 -12c-158 0 -261 118 -238 275l59 427h62l-60 -427c-17 -122 62 -215 186 -215c123 0 228 93 246 215l59 427h62l-60 -427c-22 -157 -159 -275 -316 -275z" />
    <glyph glyph-name="uni0216" unicode="&#x216;" horiz-adv-x="697" 
d="M293 756c10 70 72 123 143 123s118 -53 108 -123h-47c7 46 -23 80 -67 80c-45 0 -83 -34 -90 -80h-47zM311 -12c-158 0 -261 118 -238 275l59 427h62l-60 -427c-17 -122 62 -215 186 -215c123 0 228 93 246 215l59 427h62l-60 -427c-22 -157 -159 -275 -316 -275z" />
    <glyph glyph-name="Umacron" unicode="&#x16a;" horiz-adv-x="697" 
d="M312 781l7 50h220l-7 -50h-220zM311 -12c-158 0 -261 118 -238 275l59 427h62l-60 -427c-17 -122 62 -215 186 -215c123 0 228 93 246 215l59 427h62l-60 -427c-22 -157 -159 -275 -316 -275z" />
    <glyph glyph-name="Uogonek" unicode="&#x172;" horiz-adv-x="697" 
d="M625 690h62l-60 -427c-18 -127 -110 -228 -228 -262c-64 -30 -105 -68 -111 -108c-5 -34 18 -57 50 -57c22 0 47 9 66 23l-7 -46c-21 -13 -49 -21 -76 -21c-54 0 -90 39 -83 90c7 42 40 80 86 106h-13c-158 0 -261 118 -238 275l59 427h62l-60 -427
c-17 -122 62 -215 186 -215c123 0 228 93 246 215z" />
    <glyph glyph-name="Uring" unicode="&#x16e;" horiz-adv-x="697" 
d="M417 749c-43 0 -72 33 -66 76c6 44 44 77 88 77s73 -33 67 -77c-7 -43 -45 -76 -89 -76zM422 782c24 0 45 18 49 43c3 25 -13 44 -37 44s-45 -19 -49 -44c-3 -25 13 -43 37 -43zM311 -12c-158 0 -261 118 -238 275l59 427h62l-60 -427c-17 -122 62 -215 186 -215
c123 0 228 93 246 215l59 427h62l-60 -427c-22 -157 -159 -275 -316 -275z" />
    <glyph glyph-name="Utilde" unicode="&#x168;" horiz-adv-x="697" 
d="M490 771c-64 0 -74 62 -125 62c-32 0 -59 -25 -63 -57h-44c8 59 51 104 108 104c63 0 74 -62 125 -62c31 0 59 24 63 57h43c-7 -60 -50 -104 -107 -104zM311 -12c-158 0 -261 118 -238 275l59 427h62l-60 -427c-17 -122 62 -215 186 -215c123 0 228 93 246 215l59 427h62
l-60 -427c-22 -157 -159 -275 -316 -275z" />
    <glyph glyph-name="V" unicode="V" horiz-adv-x="704" 
d="M668 690h70l-389 -690h-66l-195 690h69l170 -612z" />
    <glyph glyph-name="W" unicode="W" horiz-adv-x="1129" 
d="M1090 690h68l-347 -690h-65l-133 601l-302 -601h-65l-153 690h67l130 -612l305 612h59l135 -611z" />
    <glyph glyph-name="Wacute" unicode="&#x1e82;" horiz-adv-x="1129" 
d="M797 885l-137 -122h-63l123 122h77zM1090 690h68l-347 -690h-65l-133 601l-302 -601h-65l-153 690h67l130 -612l305 612h59l135 -611z" />
    <glyph glyph-name="Wcircumflex" unicode="&#x174;" horiz-adv-x="1129" 
d="M649 853l-93 -90h-57l118 122h72l84 -122h-56zM1090 690h68l-347 -690h-65l-133 601l-302 -601h-65l-153 690h67l130 -612l305 612h59l135 -611z" />
    <glyph glyph-name="Wdieresis" unicode="&#x1e84;" horiz-adv-x="1129" 
d="M537 773c-23 0 -38 17 -35 40s24 40 47 40c22 0 37 -17 34 -40s-23 -40 -46 -40zM738 773c-23 0 -38 17 -35 40s24 40 47 40c22 0 37 -17 34 -40s-23 -40 -46 -40zM1090 690h68l-347 -690h-65l-133 601l-302 -601h-65l-153 690h67l130 -612l305 612h59l135 -611z" />
    <glyph glyph-name="Wgrave" unicode="&#x1e80;" horiz-adv-x="1129" 
d="M675 763h-63l-103 122h77zM1090 690h68l-347 -690h-65l-133 601l-302 -601h-65l-153 690h67l130 -612l305 612h59l135 -611z" />
    <glyph glyph-name="X" unicode="X" horiz-adv-x="710" 
d="M734 690l-323 -344l230 -346h-77l-202 305l-289 -305h-76l327 347l-226 343h75l200 -304l283 304h78z" />
    <glyph glyph-name="Y" unicode="Y" horiz-adv-x="677" 
d="M650 690h71l-351 -426l-37 -264h-61l37 264l-231 426h70l200 -365z" />
    <glyph glyph-name="Yacute" unicode="&#xdd;" horiz-adv-x="677" 
d="M571 885l-137 -122h-63l123 122h77zM650 690h71l-351 -426l-37 -264h-61l37 264l-231 426h70l200 -365z" />
    <glyph glyph-name="Ycircumflex" unicode="&#x176;" horiz-adv-x="677" 
d="M423 853l-93 -90h-57l118 122h72l84 -122h-56zM650 690h71l-351 -426l-37 -264h-61l37 264l-231 426h70l200 -365z" />
    <glyph glyph-name="Ydieresis" unicode="&#x178;" horiz-adv-x="677" 
d="M311 773c-23 0 -38 17 -35 40s24 40 47 40c22 0 37 -17 34 -40s-23 -40 -46 -40zM512 773c-23 0 -38 17 -35 40s24 40 47 40c22 0 37 -17 34 -40s-23 -40 -46 -40zM650 690h71l-351 -426l-37 -264h-61l37 264l-231 426h70l200 -365z" />
    <glyph glyph-name="Ygrave" unicode="&#x1ef2;" horiz-adv-x="677" 
d="M449 763h-63l-103 122h77zM650 690h71l-351 -426l-37 -264h-61l37 264l-231 426h70l200 -365z" />
    <glyph glyph-name="uni0232" unicode="&#x232;" horiz-adv-x="677" 
d="M530 831l-7 -50h-220l7 50h220zM650 690h71l-351 -426l-37 -264h-61l37 264l-231 426h70l200 -365z" />
    <glyph glyph-name="uni1EF8" unicode="&#x1ef8;" horiz-adv-x="677" 
d="M356 833c-32 0 -59 -25 -63 -57h-44c8 59 51 104 108 104c63 0 74 -62 125 -62c31 0 59 24 63 57h43c-7 -60 -50 -104 -107 -104c-64 0 -74 62 -125 62zM650 690h71l-351 -426l-37 -264h-61l37 264l-231 426h70l200 -365z" />
    <glyph glyph-name="Z" unicode="Z" horiz-adv-x="614" 
d="M623 690l-5 -44l-518 -588h441l-8 -58h-524l6 44l517 588h-430l8 58h513z" />
    <glyph glyph-name="Zacute" unicode="&#x179;" horiz-adv-x="614" 
d="M538 885l-137 -122h-63l123 122h77zM623 690l-5 -44l-518 -588h441l-8 -58h-524l6 44l517 588h-430l8 58h513z" />
    <glyph glyph-name="Zcaron" unicode="&#x17d;" horiz-adv-x="614" 
d="M413 763h-72l-84 122h57l67 -89l94 89h56zM623 690l-5 -44l-518 -588h441l-8 -58h-524l6 44l517 588h-430l8 58h513z" />
    <glyph glyph-name="Zdotaccent" unicode="&#x17b;" horiz-adv-x="614" 
d="M378 773c-23 0 -39 18 -35 41c2 24 24 42 47 42c24 0 39 -18 36 -42c-4 -23 -24 -41 -48 -41zM623 690l-5 -44l-518 -588h441l-8 -58h-524l6 44l517 588h-430l8 58h513z" />
    <glyph glyph-name="uni1E92" unicode="&#x1e92;" horiz-adv-x="614" 
d="M623 690l-5 -44l-518 -588h441l-8 -58h-524l6 44l517 588h-430l8 58h513zM258 -83c24 0 40 -18 36 -41c-3 -24 -24 -42 -48 -42c-23 0 -38 18 -36 42c4 23 25 41 48 41z" />
    <glyph glyph-name="K.ss02" horiz-adv-x="618" 
d="M658 690l-361 -337l271 -353h-79l-240 309l-106 -99l-29 -210h-61l97 690h61l-54 -388l423 388h78z" />
    <glyph glyph-name="uni0136.ss02" horiz-adv-x="618" 
d="M658 690l-361 -337l271 -353h-79l-240 309l-106 -99l-29 -210h-61l97 690h61l-54 -388l423 388h78zM204 -216l51 144h62l-65 -144h-48z" />
    <glyph glyph-name="M.ss02" horiz-adv-x="858" 
d="M753 690h77l-97 -690h-61l84 600l-324 -441h-34l-199 439l-85 -598h-61l97 690h79l200 -441z" />
    <glyph glyph-name="R.ss02" horiz-adv-x="555" 
d="M538 490c-16 -110 -110 -194 -222 -198l165 -292h-76l-161 292h-89l-41 -292h-61l97 690h213c115 0 191 -86 175 -200zM313 346c80 0 150 61 161 143c12 82 -40 143 -121 143h-150l-40 -286h150z" />
    <glyph glyph-name="Racute.ss02" horiz-adv-x="555" 
d="M512 885l-137 -122h-63l123 122h77zM538 490c-16 -110 -110 -194 -222 -198l165 -292h-76l-161 292h-89l-41 -292h-61l97 690h213c115 0 191 -86 175 -200zM313 346c80 0 150 61 161 143c12 82 -40 143 -121 143h-150l-40 -286h150z" />
    <glyph glyph-name="Rcaron.ss02" horiz-adv-x="555" 
d="M387 763h-72l-84 122h57l67 -89l94 89h56zM538 490c-16 -110 -110 -194 -222 -198l165 -292h-76l-161 292h-89l-41 -292h-61l97 690h213c115 0 191 -86 175 -200zM313 346c80 0 150 61 161 143c12 82 -40 143 -121 143h-150l-40 -286h150z" />
    <glyph glyph-name="uni0156.ss02" horiz-adv-x="555" 
d="M538 490c-16 -110 -110 -194 -222 -198l165 -292h-76l-161 292h-89l-41 -292h-61l97 690h213c115 0 191 -86 175 -200zM313 346c80 0 150 61 161 143c12 82 -40 143 -121 143h-150l-40 -286h150zM172 -216l51 144h62l-65 -144h-48z" />
    <glyph glyph-name="uni0210.ss02" horiz-adv-x="555" 
d="M291 763h-57l-74 122h67zM472 763h-57l-74 122h67zM538 490c-16 -110 -110 -194 -222 -198l165 -292h-76l-161 292h-89l-41 -292h-61l97 690h213c115 0 191 -86 175 -200zM313 346c80 0 150 61 161 143c12 82 -40 143 -121 143h-150l-40 -286h150z" />
    <glyph glyph-name="uni1E5A.ss02" horiz-adv-x="555" 
d="M538 490c-16 -110 -110 -194 -222 -198l165 -292h-76l-161 292h-89l-41 -292h-61l97 690h213c115 0 191 -86 175 -200zM313 346c80 0 150 61 161 143c12 82 -40 143 -121 143h-150l-40 -286h150zM242 -83c24 0 40 -18 36 -41c-3 -24 -24 -42 -48 -42c-23 0 -38 18 -36 42
c4 23 25 41 48 41z" />
    <glyph glyph-name="uni0212.ss02" horiz-adv-x="555" 
d="M361 836c-45 0 -83 -34 -90 -80h-47c10 70 72 123 143 123s118 -53 108 -123h-47c7 46 -23 80 -67 80zM538 490c-16 -110 -110 -194 -222 -198l165 -292h-76l-161 292h-89l-41 -292h-61l97 690h213c115 0 191 -86 175 -200zM313 346c80 0 150 61 161 143
c12 82 -40 143 -121 143h-150l-40 -286h150z" />
    <glyph glyph-name="G.ss03" horiz-adv-x="835" 
d="M440 354h341l-50 -354h-55l25 170c-69 -113 -188 -182 -329 -182c-204 0 -337 154 -308 357c28 203 205 357 409 357c164 0 282 -98 306 -239h-69c-26 107 -119 179 -245 179c-168 0 -314 -127 -338 -297s86 -297 254 -297c154 0 287 105 327 250h-276z" />
    <glyph glyph-name="uni01F4.ss03" horiz-adv-x="835" 
d="M643 885l-137 -122h-63l123 122h77zM440 354h341l-50 -354h-55l25 170c-69 -113 -188 -182 -329 -182c-204 0 -337 154 -308 357c28 203 205 357 409 357c164 0 282 -98 306 -239h-69c-26 107 -119 179 -245 179c-168 0 -314 -127 -338 -297s86 -297 254 -297
c154 0 287 105 327 250h-276z" />
    <glyph glyph-name="Gbreve.ss03" horiz-adv-x="835" 
d="M480 753c-71 0 -118 54 -108 123h47c-6 -45 23 -79 67 -79c45 0 84 34 90 79h47c-9 -69 -71 -123 -143 -123zM440 354h341l-50 -354h-55l25 170c-69 -113 -188 -182 -329 -182c-204 0 -337 154 -308 357c28 203 205 357 409 357c164 0 282 -98 306 -239h-69
c-26 107 -119 179 -245 179c-168 0 -314 -127 -338 -297s86 -297 254 -297c154 0 287 105 327 250h-276z" />
    <glyph glyph-name="Gcaron.ss03" horiz-adv-x="835" 
d="M517 763h-72l-84 122h57l67 -89l94 89h56zM440 354h341l-50 -354h-55l25 170c-69 -113 -188 -182 -329 -182c-204 0 -337 154 -308 357c28 203 205 357 409 357c164 0 282 -98 306 -239h-69c-26 107 -119 179 -245 179c-168 0 -314 -127 -338 -297s86 -297 254 -297
c154 0 287 105 327 250h-276z" />
    <glyph glyph-name="Gcircumflex.ss03" horiz-adv-x="835" 
d="M494 853l-93 -90h-57l118 122h72l84 -122h-56zM440 354h341l-50 -354h-55l25 170c-69 -113 -188 -182 -329 -182c-204 0 -337 154 -308 357c28 203 205 357 409 357c164 0 282 -98 306 -239h-69c-26 107 -119 179 -245 179c-168 0 -314 -127 -338 -297s86 -297 254 -297
c154 0 287 105 327 250h-276z" />
    <glyph glyph-name="uni0122.ss03" horiz-adv-x="835" 
d="M440 354h341l-50 -354h-55l25 170c-69 -113 -188 -182 -329 -182c-204 0 -337 154 -308 357c28 203 205 357 409 357c164 0 282 -98 306 -239h-69c-26 107 -119 179 -245 179c-168 0 -314 -127 -338 -297s86 -297 254 -297c154 0 287 105 327 250h-276zM293 -216l51 144
h62l-65 -144h-48z" />
    <glyph glyph-name="Gdotaccent.ss03" horiz-adv-x="835" 
d="M483 773c-23 0 -39 18 -35 41c2 24 24 42 47 42c24 0 39 -18 36 -42c-4 -23 -24 -41 -48 -41zM440 354h341l-50 -354h-55l25 170c-69 -113 -188 -182 -329 -182c-204 0 -337 154 -308 357c28 203 205 357 409 357c164 0 282 -98 306 -239h-69c-26 107 -119 179 -245 179
c-168 0 -314 -127 -338 -297s86 -297 254 -297c154 0 287 105 327 250h-276z" />
    <glyph glyph-name="J.ss04" horiz-adv-x="537" 
d="M527 690l-69 -489c-17 -121 -123 -213 -245 -213c-123 0 -202 92 -185 213h63c-12 -88 45 -153 131 -153c88 0 162 65 174 153l61 431h-225l8 58h287z" />
    <glyph glyph-name="Jcircumflex.ss04" horiz-adv-x="537" 
d="M404 853l-93 -90h-57l118 122h72l84 -122h-56zM527 690l-69 -489c-17 -121 -123 -213 -245 -213c-123 0 -202 92 -185 213h63c-12 -88 45 -153 131 -153c88 0 162 65 174 153l61 431h-225l8 58h287z" />
    <glyph glyph-name="B.ss05" horiz-adv-x="556" 
d="M398 367c80 -18 127 -91 114 -181c-15 -107 -107 -186 -214 -186h-245l97 690h213c99 0 164 -73 151 -171c-11 -70 -60 -129 -116 -152zM449 195c12 78 -39 137 -117 137h-128l8 53h96c67 0 130 54 140 125s-35 124 -105 124h-141l-81 -578h172c78 0 146 60 156 139z" />
    <glyph glyph-name="P.ss05" horiz-adv-x="553" 
d="M365 690c120 0 198 -90 182 -208c-17 -119 -120 -209 -240 -209h-110l9 58h108c84 0 157 65 170 151c11 86 -43 150 -128 150h-153l-89 -632h-61l97 690h215z" />
    <glyph glyph-name="R.ss05" horiz-adv-x="554" 
d="M538 490c-14 -98 -93 -175 -187 -186l-68 -6l199 -298h-77l-206 301l6 45h108c80 0 150 61 161 143c12 82 -40 143 -121 143h-150l-89 -632h-61l97 690h213c115 0 191 -86 175 -200z" />
    <glyph glyph-name="Racute.ss05" horiz-adv-x="554" 
d="M512 885l-137 -122h-63l123 122h77zM538 490c-14 -98 -93 -175 -187 -186l-68 -6l199 -298h-77l-206 301l6 45h108c80 0 150 61 161 143c12 82 -40 143 -121 143h-150l-89 -632h-61l97 690h213c115 0 191 -86 175 -200z" />
    <glyph glyph-name="Rcaron.ss05" horiz-adv-x="554" 
d="M387 763h-72l-84 122h57l67 -89l94 89h56zM538 490c-14 -98 -93 -175 -187 -186l-68 -6l199 -298h-77l-206 301l6 45h108c80 0 150 61 161 143c12 82 -40 143 -121 143h-150l-89 -632h-61l97 690h213c115 0 191 -86 175 -200z" />
    <glyph glyph-name="uni0156.ss05" horiz-adv-x="554" 
d="M538 490c-14 -98 -93 -175 -187 -186l-68 -6l199 -298h-77l-206 301l6 45h108c80 0 150 61 161 143c12 82 -40 143 -121 143h-150l-89 -632h-61l97 690h213c115 0 191 -86 175 -200zM172 -216l51 144h62l-65 -144h-48z" />
    <glyph glyph-name="uni0210.ss05" horiz-adv-x="554" 
d="M291 763h-57l-74 122h67zM472 763h-57l-74 122h67zM538 490c-14 -98 -93 -175 -187 -186l-68 -6l199 -298h-77l-206 301l6 45h108c80 0 150 61 161 143c12 82 -40 143 -121 143h-150l-89 -632h-61l97 690h213c115 0 191 -86 175 -200z" />
    <glyph glyph-name="uni1E5A.ss05" horiz-adv-x="554" 
d="M538 490c-14 -98 -93 -175 -187 -186l-68 -6l199 -298h-77l-206 301l6 45h108c80 0 150 61 161 143c12 82 -40 143 -121 143h-150l-89 -632h-61l97 690h213c115 0 191 -86 175 -200zM242 -83c24 0 40 -18 36 -41c-3 -24 -24 -42 -48 -42c-23 0 -38 18 -36 42
c4 23 25 41 48 41z" />
    <glyph glyph-name="uni0212.ss05" horiz-adv-x="554" 
d="M361 836c-45 0 -83 -34 -90 -80h-47c10 70 72 123 143 123s118 -53 108 -123h-47c7 46 -23 80 -67 80zM538 490c-14 -98 -93 -175 -187 -186l-68 -6l199 -298h-77l-206 301l6 45h108c80 0 150 61 161 143c12 82 -40 143 -121 143h-150l-89 -632h-61l97 690h213
c115 0 191 -86 175 -200z" />
    <glyph glyph-name="A.ss06" unicode="&#xe000;" horiz-adv-x="710" 
d="M656 -33c30 -106 105 -154 246 -154l-8 -60c-171 0 -268 69 -305 213l-62 223h-362l-105 -189h-69l388 690h74zM197 246h315l-105 378z" />
    <glyph glyph-name="H.ss06" unicode="&#xe001;" horiz-adv-x="736" 
d="M609 -15c-15 -104 51 -181 154 -181l-9 -60c-139 0 -227 102 -207 241l47 333h-435l-45 -318h-61l97 690h61l-44 -314h435l44 314h62z" />
    <glyph glyph-name="K.ss06" unicode="&#xe002;" horiz-adv-x="601" 
d="M572 -20c133 -131 211 -167 348 -167l-8 -60c-162 0 -258 50 -421 227l-331 343l-46 -323h-61l97 690h61l-44 -316l397 316h79l-421 -342z" />
    <glyph glyph-name="M.ss06" unicode="&#xe003;" horiz-adv-x="893" 
d="M766 -15c-15 -104 51 -181 154 -181l-9 -60c-139 0 -226 102 -206 241l84 606l-354 -591h-49l-189 591l-83 -591h-61l97 690h82l191 -602l361 602h81z" />
    <glyph glyph-name="R.ss06" unicode="&#xe004;" horiz-adv-x="554" 
d="M504 -26c107 -128 186 -160 336 -160l-9 -60c-172 0 -279 40 -407 220l-258 318h-11l-41 -292h-61l97 690h213c115 0 191 -86 175 -200c-16 -113 -115 -198 -230 -198h-63zM203 632l-40 -286h150c80 0 150 61 161 143c12 82 -40 143 -121 143h-150z" />
    <glyph glyph-name="H.ss07" unicode="&#xe005;" horiz-adv-x="736" 
d="M887 912c122 0 198 -88 181 -210h-62c12 86 -42 150 -127 150s-157 -64 -169 -150l-99 -702h-62l45 318h-435l-45 -318h-61l97 690h61l-44 -314h435l46 326c17 122 118 210 239 210z" />
    <glyph glyph-name="N.ss07" unicode="&#xe006;" horiz-adv-x="743" 
d="M895 912c121 0 198 -88 181 -210h-63c12 86 -42 150 -126 150c-85 0 -157 -64 -169 -150l-99 -702h-67l-354 590l-84 -590h-61l97 690h66l355 -591l85 603c17 122 117 210 239 210z" />
    <glyph glyph-name="U.ss07" unicode="&#xe007;" horiz-adv-x="697" 
d="M311 -12c-158 0 -261 118 -238 275l59 427h62l-60 -427c-17 -122 62 -215 186 -215c123 0 228 93 246 215l61 439c17 122 118 210 239 210c122 0 198 -88 181 -210h-62c12 86 -42 150 -127 150s-157 -64 -169 -150l-62 -439c-22 -157 -159 -275 -316 -275z" />
    <glyph glyph-name="A.swsh" unicode="&#xe008;" horiz-adv-x="710" 
d="M580 0l-52 189h-363l-105 -189h-69l355 632h-319c-97 0 -180 -73 -194 -169c-14 -97 50 -170 146 -170l-8 -58c-131 0 -216 98 -198 228c19 130 130 227 262 227h418l194 -690h-67zM197 246h315l-105 378z" />
    <glyph glyph-name="B.swsh" unicode="&#xe009;" horiz-adv-x="556" 
d="M398 367c80 -18 127 -91 114 -181c-15 -107 -107 -186 -214 -186h-245l89 632h-188c-97 0 -180 -73 -194 -169c-14 -97 50 -170 146 -170l-8 -58c-131 0 -216 98 -198 228c19 130 130 227 262 227h401c99 0 164 -73 151 -171c-11 -70 -60 -129 -116 -152zM343 634h-141
l-35 -249h141c67 0 130 54 140 125s-35 124 -105 124zM449 195c12 78 -39 137 -117 137h-172l-39 -276h172c78 0 146 60 156 139z" />
    <glyph glyph-name="D.swsh" unicode="&#xe00a;" horiz-adv-x="750" 
d="M413 690c198 0 326 -148 299 -345c-28 -197 -198 -345 -396 -345h-263l89 632h-188c-97 0 -180 -73 -194 -169c-14 -97 50 -170 146 -170l-8 -58c-131 0 -216 98 -198 228c19 130 130 227 262 227h451zM649 345c22 164 -82 287 -245 287h-201l-81 -574h201
c163 0 302 123 326 287z" />
    <glyph glyph-name="E.swsh" unicode="&#xe00b;" horiz-adv-x="518" 
d="M516 632h-313l-36 -256h280l-8 -58h-280l-37 -260h318l-8 -58h-379l89 632h-188c-97 0 -180 -73 -194 -169c-14 -97 50 -170 146 -170l-8 -58c-131 0 -216 98 -198 228c19 130 130 227 262 227h562z" />
    <glyph glyph-name="F.swsh" unicode="&#xe00c;" horiz-adv-x="489" 
d="M501 632h-298l-37 -262h255l-8 -58h-255l-44 -312h-61l89 632h-188c-97 0 -180 -73 -194 -169c-14 -97 50 -170 146 -170l-8 -58c-131 0 -216 98 -198 228c19 130 130 227 262 227h547z" />
    <glyph glyph-name="H.swsh" unicode="&#xe00d;" horiz-adv-x="736" 
d="M646 690h62l-97 -690h-62l45 318h-435l-45 -318h-61l89 632h-188c-97 0 -180 -73 -194 -169c-14 -97 50 -170 146 -170l-8 -58c-131 0 -216 98 -198 228c19 130 130 227 262 227h249l-44 -314h435z" />
    <glyph glyph-name="I.swsh" unicode="&#xe00e;" horiz-adv-x="239" 
d="M211 690l-97 -690h-61l89 632h-188c-97 0 -180 -73 -194 -169c-14 -97 50 -170 146 -170l-8 -58c-131 0 -216 98 -198 228c19 130 130 227 262 227h249z" />
    <glyph glyph-name="K.swsh" unicode="&#xe00f;" horiz-adv-x="601" 
d="M643 690l-421 -342l331 -348h-81l-312 323l-46 -323h-61l89 632h-188c-97 0 -180 -73 -194 -169c-14 -97 50 -170 146 -170l-8 -58c-131 0 -216 98 -198 228c19 130 130 227 262 227h249l-44 -316l397 316h79z" />
    <glyph glyph-name="L.swsh" unicode="&#xe010;" horiz-adv-x="472" 
d="M122 58h288l-8 -58h-349l89 632h-188c-97 0 -180 -73 -194 -169c-14 -97 50 -170 146 -170l-8 -58c-131 0 -216 98 -198 228c19 130 130 227 262 227h249z" />
    <glyph glyph-name="M.swsh" unicode="&#xe011;" horiz-adv-x="893" 
d="M784 690h81l-97 -690h-61l82 591l-354 -591h-49l-189 591l-83 -591h-61l89 632h-188c-97 0 -180 -73 -194 -169c-14 -97 50 -170 146 -170l-8 -58c-131 0 -216 98 -198 228c19 130 130 227 262 227h270l191 -602z" />
    <glyph glyph-name="N.swsh" unicode="&#xe012;" horiz-adv-x="743" 
d="M654 690h62l-97 -690h-67l-354 590l-84 -590h-61l89 632h-188c-97 0 -180 -73 -194 -169c-14 -97 50 -170 146 -170l-8 -58c-131 0 -216 98 -198 228c19 130 130 227 262 227h254l355 -591z" />
    <glyph glyph-name="P.swsh" unicode="&#xe013;" horiz-adv-x="553" 
d="M365 690c120 0 198 -90 182 -208c-17 -119 -120 -209 -240 -209h-155l-38 -273h-61l89 632h-188c-97 0 -180 -73 -194 -169c-14 -97 50 -170 146 -170l-8 -58c-131 0 -216 98 -198 228c19 130 130 227 262 227h403zM484 482c11 86 -43 150 -128 150h-153l-42 -301h153
c84 0 157 65 170 151z" />
    <glyph glyph-name="R.swsh" unicode="&#xe014;" horiz-adv-x="554" 
d="M538 490c-16 -113 -115 -198 -230 -198h-63l237 -292h-79l-237 292h-11l-41 -292h-61l89 632h-188c-97 0 -180 -73 -194 -169c-14 -97 50 -170 146 -170l-8 -58c-131 0 -216 98 -198 228c19 130 130 227 262 227h401c115 0 191 -86 175 -200zM203 632l-40 -286h150
c80 0 150 61 161 143c12 82 -40 143 -121 143h-150z" />
    <glyph glyph-name="T.swsh" unicode="&#xe015;" horiz-adv-x="546" 
d="M575 690l-8 -58h-211l-88 -632h-62l88 632h-286c-97 0 -180 -73 -194 -169c-14 -97 50 -170 146 -170l-8 -58c-131 0 -216 98 -198 228c19 130 130 227 262 227h559z" />
    <glyph glyph-name="U.swsh" unicode="&#xe016;" horiz-adv-x="697" 
d="M625 690h62l-60 -427c-22 -157 -159 -275 -316 -275c-158 0 -261 118 -238 275l51 369h-184c-97 0 -180 -73 -194 -169c-14 -97 50 -170 146 -170l-8 -58c-131 0 -216 98 -198 228c19 130 130 227 262 227h246l-60 -427c-17 -122 62 -215 186 -215c123 0 228 93 246 215z
" />
    <glyph glyph-name="V.swsh" unicode="&#xe017;" horiz-adv-x="704" 
d="M668 690h70l-389 -690h-66l-179 632h-104c-97 0 -180 -73 -194 -169c-14 -97 50 -170 146 -170l-8 -58c-131 0 -216 98 -198 228c19 130 130 227 262 227h149l170 -612z" />
    <glyph glyph-name="W.swsh" unicode="&#xe018;" horiz-adv-x="1129" 
d="M1090 690h68l-347 -690h-65l-133 601l-302 -601h-65l-140 632h-101c-97 0 -180 -73 -194 -169c-14 -97 50 -170 146 -170l-8 -58c-131 0 -216 98 -198 228c19 130 130 227 262 227h147l130 -612l305 612h59l135 -611z" />
    <glyph glyph-name="Y.swsh" unicode="&#xe019;" horiz-adv-x="677" 
d="M650 690h71l-351 -426l-37 -264h-61l37 264l-200 368h-113c-97 0 -180 -73 -194 -169c-14 -97 50 -170 146 -170l-8 -58c-131 0 -216 98 -198 228c19 130 130 227 262 227h144l200 -365z" />
    <glyph glyph-name="a" unicode="a" 
d="M562 510h58l-72 -510h-58l17 122c-53 -81 -141 -134 -239 -134c-148 0 -242 115 -221 267s149 267 297 267c98 0 171 -53 201 -134zM287 44c119 0 222 91 239 211s-60 211 -180 211s-223 -91 -239 -211c-17 -120 60 -211 180 -211z" />
    <glyph glyph-name="aacute" unicode="&#xe1;" 
d="M541 705l-137 -122h-63l123 122h77zM562 510h58l-72 -510h-58l17 122c-53 -81 -141 -134 -239 -134c-148 0 -242 115 -221 267s149 267 297 267c98 0 171 -53 201 -134zM287 44c119 0 222 91 239 211s-60 211 -180 211s-223 -91 -239 -211c-17 -120 60 -211 180 -211z
" />
    <glyph glyph-name="abreve" unicode="&#x103;" 
d="M378 573c-71 0 -118 54 -108 123h47c-6 -45 23 -79 67 -79c45 0 84 34 90 79h47c-9 -69 -71 -123 -143 -123zM562 510h58l-72 -510h-58l17 122c-53 -81 -141 -134 -239 -134c-148 0 -242 115 -221 267s149 267 297 267c98 0 171 -53 201 -134zM287 44
c119 0 222 91 239 211s-60 211 -180 211s-223 -91 -239 -211c-17 -120 60 -211 180 -211z" />
    <glyph glyph-name="uni01CE" unicode="&#x1ce;" 
d="M415 583h-72l-84 122h57l67 -89l94 89h56zM562 510h58l-72 -510h-58l17 122c-53 -81 -141 -134 -239 -134c-148 0 -242 115 -221 267s149 267 297 267c98 0 171 -53 201 -134zM287 44c119 0 222 91 239 211s-60 211 -180 211s-223 -91 -239 -211
c-17 -120 60 -211 180 -211z" />
    <glyph glyph-name="acircumflex" unicode="&#xe2;" 
d="M392 673l-93 -90h-57l118 122h72l84 -122h-56zM562 510h58l-72 -510h-58l17 122c-53 -81 -141 -134 -239 -134c-148 0 -242 115 -221 267s149 267 297 267c98 0 171 -53 201 -134zM287 44c119 0 222 91 239 211s-60 211 -180 211s-223 -91 -239 -211
c-17 -120 60 -211 180 -211z" />
    <glyph glyph-name="uni0201" unicode="&#x201;" 
d="M320 583h-57l-74 122h67zM501 583h-57l-74 122h67zM562 510h58l-72 -510h-58l17 122c-53 -81 -141 -134 -239 -134c-148 0 -242 115 -221 267s149 267 297 267c98 0 171 -53 201 -134zM287 44c119 0 222 91 239 211s-60 211 -180 211s-223 -91 -239 -211
c-17 -120 60 -211 180 -211z" />
    <glyph glyph-name="adieresis" unicode="&#xe4;" 
d="M280 593c-23 0 -38 17 -35 40s24 40 47 40c22 0 37 -17 34 -40s-23 -40 -46 -40zM481 593c-23 0 -38 17 -35 40s24 40 47 40c22 0 37 -17 34 -40s-23 -40 -46 -40zM562 510h58l-72 -510h-58l17 122c-53 -81 -141 -134 -239 -134c-148 0 -242 115 -221 267
s149 267 297 267c98 0 171 -53 201 -134zM287 44c119 0 222 91 239 211s-60 211 -180 211s-223 -91 -239 -211c-17 -120 60 -211 180 -211z" />
    <glyph glyph-name="uni1EA1" unicode="&#x1ea1;" 
d="M562 510h58l-72 -510h-58l17 122c-53 -81 -141 -134 -239 -134c-148 0 -242 115 -221 267s149 267 297 267c98 0 171 -53 201 -134zM287 44c119 0 222 91 239 211s-60 211 -180 211s-223 -91 -239 -211c-17 -120 60 -211 180 -211zM285 -83c24 0 40 -18 36 -41
c-3 -24 -24 -42 -48 -42c-23 0 -38 18 -36 42c4 23 25 41 48 41z" />
    <glyph glyph-name="agrave" unicode="&#xe0;" 
d="M418 583h-63l-103 122h77zM562 510h58l-72 -510h-58l17 122c-53 -81 -141 -134 -239 -134c-148 0 -242 115 -221 267s149 267 297 267c98 0 171 -53 201 -134zM287 44c119 0 222 91 239 211s-60 211 -180 211s-223 -91 -239 -211c-17 -120 60 -211 180 -211z" />
    <glyph glyph-name="uni0203" unicode="&#x203;" 
d="M390 656c-45 0 -83 -34 -90 -80h-47c10 70 72 123 143 123s118 -53 108 -123h-47c7 46 -23 80 -67 80zM562 510h58l-72 -510h-58l17 122c-53 -81 -141 -134 -239 -134c-148 0 -242 115 -221 267s149 267 297 267c98 0 171 -53 201 -134zM287 44c119 0 222 91 239 211
s-60 211 -180 211s-223 -91 -239 -211c-17 -120 60 -211 180 -211z" />
    <glyph glyph-name="amacron" unicode="&#x101;" 
d="M499 651l-7 -50h-220l7 50h220zM562 510h58l-72 -510h-58l17 122c-53 -81 -141 -134 -239 -134c-148 0 -242 115 -221 267s149 267 297 267c98 0 171 -53 201 -134zM287 44c119 0 222 91 239 211s-60 211 -180 211s-223 -91 -239 -211c-17 -120 60 -211 180 -211z" />
    <glyph glyph-name="aogonek" unicode="&#x105;" 
d="M562 510h58l-72 -510h-1c-70 -30 -115 -70 -121 -112c-5 -34 18 -57 50 -57c22 0 47 9 66 23l-7 -46c-21 -13 -49 -21 -76 -21c-54 0 -90 39 -83 90c9 52 56 97 120 123h-6l17 122c-53 -81 -141 -134 -239 -134c-148 0 -242 115 -221 267s149 267 297 267
c98 0 171 -53 201 -134zM287 44c119 0 222 91 239 211s-60 211 -180 211s-223 -91 -239 -211c-17 -120 60 -211 180 -211z" />
    <glyph glyph-name="aring" unicode="&#xe5;" 
d="M377 569c-43 0 -72 33 -66 76c6 44 44 77 88 77s73 -33 67 -77c-7 -43 -45 -76 -89 -76zM345 645c-3 -25 13 -43 37 -43s45 18 49 43c3 25 -13 44 -37 44s-45 -19 -49 -44zM562 510h58l-72 -510h-58l17 122c-53 -81 -141 -134 -239 -134c-148 0 -242 115 -221 267
s149 267 297 267c98 0 171 -53 201 -134zM287 44c119 0 222 91 239 211s-60 211 -180 211s-223 -91 -239 -211c-17 -120 60 -211 180 -211z" />
    <glyph glyph-name="atilde" unicode="&#xe3;" 
d="M325 653c-32 0 -59 -25 -63 -57h-44c8 59 51 104 108 104c63 0 74 -62 125 -62c31 0 59 24 63 57h43c-7 -60 -50 -104 -107 -104c-64 0 -74 62 -125 62zM562 510h58l-72 -510h-58l17 122c-53 -81 -141 -134 -239 -134c-148 0 -242 115 -221 267s149 267 297 267
c98 0 171 -53 201 -134zM287 44c119 0 222 91 239 211s-60 211 -180 211s-223 -91 -239 -211c-17 -120 60 -211 180 -211z" />
    <glyph glyph-name="ae" unicode="&#xe6;" horiz-adv-x="978" 
d="M704 522c154 0 252 -117 231 -265c-1 -9 -3 -19 -5 -26h-476c-5 -111 69 -189 181 -189c92 0 174 50 213 124h64c-51 -106 -160 -178 -284 -178c-90 0 -160 39 -199 102c-48 -60 -129 -102 -221 -102c-118 0 -188 75 -175 171c14 100 109 172 221 172
c63 0 115 -21 147 -55l8 58c12 81 -36 135 -120 135c-74 0 -132 -42 -151 -105h-59c26 94 110 158 218 158c90 0 150 -45 166 -116c57 71 145 116 241 116zM696 468c-111 0 -207 -77 -235 -185h417c6 108 -72 185 -182 185zM225 40c81 0 153 44 180 105c-6 20 -9 42 -10 64
c-15 40 -68 71 -137 71c-84 0 -155 -52 -165 -121c-9 -68 47 -119 132 -119z" />
    <glyph glyph-name="aeacute" unicode="&#x1fd;" horiz-adv-x="978" 
d="M674 705l-137 -122h-63l123 122h77zM704 522c154 0 252 -117 231 -265c-1 -9 -3 -19 -5 -26h-476c-5 -111 69 -189 181 -189c92 0 174 50 213 124h64c-51 -106 -160 -178 -284 -178c-90 0 -160 39 -199 102c-48 -60 -129 -102 -221 -102c-118 0 -188 75 -175 171
c14 100 109 172 221 172c63 0 115 -21 147 -55l8 58c12 81 -36 135 -120 135c-74 0 -132 -42 -151 -105h-59c26 94 110 158 218 158c90 0 150 -45 166 -116c57 71 145 116 241 116zM696 468c-111 0 -207 -77 -235 -185h417c6 108 -72 185 -182 185zM225 40
c81 0 153 44 180 105c-6 20 -9 42 -10 64c-15 40 -68 71 -137 71c-84 0 -155 -52 -165 -121c-9 -68 47 -119 132 -119z" />
    <glyph glyph-name="b" unicode="b" 
d="M395 522c149 0 243 -115 222 -267s-149 -267 -298 -267c-99 0 -171 53 -201 136l-17 -124h-58l101 720h58l-47 -334c53 83 141 136 240 136zM557 255c16 120 -60 211 -180 211s-223 -91 -240 -211c-16 -120 60 -211 180 -211s223 91 240 211z" />
    <glyph glyph-name="c" unicode="c" horiz-adv-x="623" 
d="M278 -12c-154 0 -253 115 -232 267s154 267 308 267c135 0 228 -90 233 -215h-60c-10 93 -80 159 -181 159c-120 0 -223 -91 -240 -211s60 -211 180 -211c101 0 191 66 227 159h60c-40 -125 -160 -215 -295 -215z" />
    <glyph glyph-name="cacute" unicode="&#x107;" horiz-adv-x="623" 
d="M323 583l123 122h77l-137 -122h-63zM278 -12c-154 0 -253 115 -232 267s154 267 308 267c135 0 228 -90 233 -215h-60c-10 93 -80 159 -181 159c-120 0 -223 -91 -240 -211s60 -211 180 -211c101 0 191 66 227 159h60c-40 -125 -160 -215 -295 -215z" />
    <glyph glyph-name="ccaron" unicode="&#x10d;" horiz-adv-x="623" 
d="M398 583h-72l-84 122h57l67 -89l94 89h56zM286 44c101 0 191 66 227 159h60c-40 -125 -160 -215 -295 -215c-154 0 -253 115 -232 267s154 267 308 267c135 0 228 -90 233 -215h-60c-10 93 -80 159 -181 159c-120 0 -223 -91 -240 -211s60 -211 180 -211z" />
    <glyph glyph-name="ccedilla" unicode="&#xe7;" horiz-adv-x="623" 
d="M286 44c101 0 191 66 227 159h60c-38 -119 -149 -206 -275 -214l-25 -27c4 1 9 1 13 1c49 0 81 -39 73 -89c-7 -50 -53 -90 -106 -90s-88 40 -81 90h39c-5 -31 17 -55 47 -55c31 0 58 24 63 55c5 32 -17 55 -47 55c-14 0 -30 -7 -40 -15l-32 16l53 59
c-141 11 -229 122 -209 266c21 152 154 267 308 267c135 0 228 -90 233 -215h-60c-10 93 -80 159 -181 159c-120 0 -223 -91 -240 -211s60 -211 180 -211z" />
    <glyph glyph-name="ccircumflex" unicode="&#x109;" horiz-adv-x="623" 
d="M375 673l-93 -90h-57l118 122h72l84 -122h-56zM286 44c101 0 191 66 227 159h60c-40 -125 -160 -215 -295 -215c-154 0 -253 115 -232 267s154 267 308 267c135 0 228 -90 233 -215h-60c-10 93 -80 159 -181 159c-120 0 -223 -91 -240 -211s60 -211 180 -211z" />
    <glyph glyph-name="cdotaccent" unicode="&#x10b;" horiz-adv-x="623" 
d="M363 593c-23 0 -39 18 -35 41c2 24 24 42 47 42c24 0 39 -18 36 -42c-4 -23 -24 -41 -48 -41zM278 -12c-154 0 -253 115 -232 267s154 267 308 267c135 0 228 -90 233 -215h-60c-10 93 -80 159 -181 159c-120 0 -223 -91 -240 -211s60 -211 180 -211
c101 0 191 66 227 159h60c-40 -125 -160 -215 -295 -215z" />
    <glyph glyph-name="d" unicode="d" 
d="M591 720h58l-101 -720h-58l17 121c-53 -81 -141 -133 -239 -133c-148 0 -242 115 -221 267s149 267 297 267c98 0 170 -52 201 -133zM287 44c116 0 216 86 237 201l3 21c11 114 -65 200 -181 200c-120 0 -223 -91 -239 -211c-17 -120 60 -211 180 -211z" />
    <glyph glyph-name="eth" unicode="&#xf0;" horiz-adv-x="620" 
d="M402 658c133 -86 195 -239 172 -400c-22 -161 -152 -270 -302 -270c-151 0 -248 113 -228 262c21 149 149 261 294 261c73 0 132 -30 171 -81c-26 78 -78 145 -155 190l-64 -51h-51l85 67c-32 14 -66 25 -104 32l8 55c54 -9 103 -25 145 -48l61 48h51zM513 250
c16 117 -58 205 -175 205s-217 -88 -234 -205c-16 -117 59 -206 176 -206c116 0 217 89 233 206z" />
    <glyph glyph-name="dcaron" unicode="&#x10f;" horiz-adv-x="718" 
d="M544 389l46 331h58l-101 -720h-58l17 121c-53 -81 -141 -133 -239 -133c-148 0 -242 115 -221 267s149 267 297 267c98 0 170 -52 201 -133zM739 720h56l-59 -187h-44zM286 44c116 0 216 85 237 199l3 23c11 114 -65 200 -180 200c-120 0 -223 -91 -240 -211
s60 -211 180 -211z" />
    <glyph glyph-name="dcroat" unicode="&#x111;" 
d="M716 630l-6 -44h-80l-82 -586h-58l17 121c-53 -81 -141 -133 -239 -133c-148 0 -242 115 -221 267s149 267 297 267c98 0 170 -52 201 -133l27 197h-142l6 44h142l13 90h58l-13 -90h80zM287 44c116 0 216 86 237 201l3 21c11 114 -65 200 -181 200
c-120 0 -223 -91 -239 -211c-17 -120 60 -211 180 -211z" />
    <glyph glyph-name="uni1E0D" unicode="&#x1e0d;" 
d="M591 720h58l-101 -720h-58l17 121c-53 -81 -141 -133 -239 -133c-148 0 -242 115 -221 267s149 267 297 267c98 0 170 -52 201 -133zM287 44c116 0 216 86 237 201l3 21c11 114 -65 200 -181 200c-120 0 -223 -91 -239 -211c-17 -120 60 -211 180 -211zM283 -83
c24 0 40 -18 36 -41c-3 -24 -24 -42 -48 -42c-23 0 -38 18 -36 42c4 23 25 41 48 41z" />
    <glyph glyph-name="uni01F3" unicode="&#x1f3;" horiz-adv-x="1165" 
d="M545 389l46 331h58l-101 -720h-58l17 121c-53 -81 -141 -133 -239 -133c-148 0 -242 115 -221 267s149 267 297 267c98 0 170 -52 201 -133zM1145 510l-7 -42l-374 -412h324l-8 -56h-405l7 42l374 412h-313l8 56h394zM287 44c116 0 216 86 237 201l3 21
c11 114 -65 200 -181 200c-120 0 -223 -91 -239 -211c-17 -120 60 -211 180 -211z" />
    <glyph glyph-name="uni01C6" unicode="&#x1c6;" horiz-adv-x="1165" 
d="M545 389l46 331h58l-101 -720h-58l17 121c-53 -81 -141 -133 -239 -133c-148 0 -242 115 -221 267s149 267 297 267c98 0 170 -52 201 -133zM996 583h-72l-84 122h56l68 -89l94 89h56zM1145 510l-7 -42l-374 -412h324l-8 -56h-405l7 42l374 412h-313l8 56h394zM287 44
c116 0 216 86 237 201l3 21c11 114 -65 200 -181 200c-120 0 -223 -91 -239 -211c-17 -120 60 -211 180 -211z" />
    <glyph glyph-name="e" unicode="e" horiz-adv-x="628" 
d="M353 522c154 0 253 -115 232 -267c-1 -7 -3 -17 -5 -24h-476c-5 -111 69 -189 181 -189c91 0 173 50 213 124h63c-51 -106 -160 -178 -284 -178c-153 0 -252 115 -231 267s154 267 307 267zM346 468c-111 0 -207 -77 -235 -185h417c3 108 -72 185 -182 185z" />
    <glyph glyph-name="eacute" unicode="&#xe9;" horiz-adv-x="628" 
d="M523 705l-137 -122h-63l123 122h77zM353 522c154 0 253 -115 232 -267c-1 -7 -3 -17 -5 -24h-476c-5 -111 69 -189 181 -189c91 0 173 50 213 124h63c-51 -106 -160 -178 -284 -178c-153 0 -252 115 -231 267s154 267 307 267zM346 468c-111 0 -207 -77 -235 -185h417
c3 108 -72 185 -182 185z" />
    <glyph glyph-name="ebreve" unicode="&#x115;" horiz-adv-x="628" 
d="M360 573c-71 0 -118 54 -108 123h47c-6 -45 23 -79 67 -79c45 0 84 34 90 79h47c-9 -69 -71 -123 -143 -123zM353 522c154 0 253 -115 232 -267c-1 -7 -3 -17 -5 -24h-476c-5 -111 69 -189 181 -189c91 0 173 50 213 124h63c-51 -106 -160 -178 -284 -178
c-153 0 -252 115 -231 267s154 267 307 267zM346 468c-111 0 -207 -77 -235 -185h417c3 108 -72 185 -182 185z" />
    <glyph glyph-name="ecaron" unicode="&#x11b;" horiz-adv-x="628" 
d="M397 583h-72l-84 122h57l67 -89l94 89h56zM353 522c154 0 253 -115 232 -267c-1 -7 -3 -17 -5 -24h-476c-5 -111 69 -189 181 -189c91 0 173 50 213 124h63c-51 -106 -160 -178 -284 -178c-153 0 -252 115 -231 267s154 267 307 267zM346 468c-111 0 -207 -77 -235 -185
h417c3 108 -72 185 -182 185z" />
    <glyph glyph-name="ecircumflex" unicode="&#xea;" horiz-adv-x="628" 
d="M374 673l-93 -90h-57l118 122h72l84 -122h-56zM353 522c154 0 253 -115 232 -267c-1 -7 -3 -17 -5 -24h-476c-5 -111 69 -189 181 -189c91 0 173 50 213 124h63c-51 -106 -160 -178 -284 -178c-153 0 -252 115 -231 267s154 267 307 267zM346 468
c-111 0 -207 -77 -235 -185h417c3 108 -72 185 -182 185z" />
    <glyph glyph-name="uni0205" unicode="&#x205;" horiz-adv-x="628" 
d="M302 583h-57l-74 122h67zM483 583h-57l-74 122h67zM353 522c154 0 253 -115 232 -267c-1 -7 -3 -17 -5 -24h-476c-5 -111 69 -189 181 -189c91 0 173 50 213 124h63c-51 -106 -160 -178 -284 -178c-153 0 -252 115 -231 267s154 267 307 267zM346 468
c-111 0 -207 -77 -235 -185h417c3 108 -72 185 -182 185z" />
    <glyph glyph-name="edieresis" unicode="&#xeb;" horiz-adv-x="628" 
d="M262 593c-23 0 -38 17 -35 40s24 40 47 40c22 0 37 -17 34 -40s-23 -40 -46 -40zM463 593c-23 0 -38 17 -35 40s24 40 47 40c22 0 37 -17 34 -40s-23 -40 -46 -40zM353 522c154 0 253 -115 232 -267c-1 -7 -3 -17 -5 -24h-476c-5 -111 69 -189 181 -189
c91 0 173 50 213 124h63c-51 -106 -160 -178 -284 -178c-153 0 -252 115 -231 267s154 267 307 267zM346 468c-111 0 -207 -77 -235 -185h417c3 108 -72 185 -182 185z" />
    <glyph glyph-name="edotaccent" unicode="&#x117;" horiz-adv-x="628" 
d="M363 593c-23 0 -39 18 -35 41c2 24 24 42 47 42c24 0 39 -18 36 -42c-4 -23 -24 -41 -48 -41zM353 522c154 0 253 -115 232 -267c-1 -7 -3 -17 -5 -24h-476c-5 -111 69 -189 181 -189c91 0 173 50 213 124h63c-51 -106 -160 -178 -284 -178c-153 0 -252 115 -231 267
s154 267 307 267zM346 468c-111 0 -207 -77 -235 -185h417c3 108 -72 185 -182 185z" />
    <glyph glyph-name="uni1EB9" unicode="&#x1eb9;" horiz-adv-x="628" 
d="M353 522c154 0 253 -115 232 -267c-1 -7 -3 -17 -5 -24h-476c-5 -111 69 -189 181 -189c91 0 173 50 213 124h63c-51 -106 -160 -178 -284 -178c-153 0 -252 115 -231 267s154 267 307 267zM346 468c-111 0 -207 -77 -235 -185h417c3 108 -72 185 -182 185zM268 -83
c24 0 40 -18 36 -41c-3 -24 -24 -42 -48 -42c-23 0 -38 18 -36 42c4 23 25 41 48 41z" />
    <glyph glyph-name="egrave" unicode="&#xe8;" horiz-adv-x="628" 
d="M401 583h-63l-103 122h77zM353 522c154 0 253 -115 232 -267c-1 -7 -3 -17 -5 -24h-476c-5 -111 69 -189 181 -189c91 0 173 50 213 124h63c-51 -106 -160 -178 -284 -178c-153 0 -252 115 -231 267s154 267 307 267zM346 468c-111 0 -207 -77 -235 -185h417
c3 108 -72 185 -182 185z" />
    <glyph glyph-name="uni0207" unicode="&#x207;" horiz-adv-x="628" 
d="M372 656c-45 0 -83 -34 -90 -80h-47c10 70 72 123 143 123s118 -53 108 -123h-47c7 46 -23 80 -67 80zM353 522c154 0 253 -115 232 -267c-1 -7 -3 -17 -5 -24h-476c-5 -111 69 -189 181 -189c91 0 173 50 213 124h63c-51 -106 -160 -178 -284 -178
c-153 0 -252 115 -231 267s154 267 307 267zM346 468c-111 0 -207 -77 -235 -185h417c3 108 -72 185 -182 185z" />
    <glyph glyph-name="emacron" unicode="&#x113;" horiz-adv-x="628" 
d="M481 651l-7 -50h-220l7 50h220zM353 522c154 0 253 -115 232 -267c-1 -7 -3 -17 -5 -24h-476c-5 -111 69 -189 181 -189c91 0 173 50 213 124h63c-51 -106 -160 -178 -284 -178c-153 0 -252 115 -231 267s154 267 307 267zM346 468c-111 0 -207 -77 -235 -185h417
c3 108 -72 185 -182 185z" />
    <glyph glyph-name="eogonek" unicode="&#x119;" horiz-adv-x="628" 
d="M353 522c154 0 253 -115 232 -267c-1 -7 -3 -17 -5 -24h-476c-5 -111 69 -189 181 -189c91 0 173 50 213 124h63c-34 -71 -94 -126 -167 -155c-53 -36 -90 -75 -96 -119c-5 -35 18 -61 52 -61c27 0 53 12 71 31l-6 -47c-21 -18 -53 -27 -83 -27c-56 0 -92 40 -85 94
c6 41 32 78 70 108c-13 -1 -27 -2 -40 -2c-153 0 -252 115 -231 267s154 267 307 267zM346 468c-111 0 -207 -77 -235 -185h417c3 108 -72 185 -182 185z" />
    <glyph glyph-name="uni1EBD" unicode="&#x1ebd;" horiz-adv-x="628" 
d="M307 653c-32 0 -59 -25 -63 -57h-44c8 59 51 104 108 104c63 0 74 -62 125 -62c31 0 59 24 63 57h43c-7 -60 -50 -104 -107 -104c-64 0 -74 62 -125 62zM353 522c154 0 253 -115 232 -267c-1 -7 -3 -17 -5 -24h-476c-5 -111 69 -189 181 -189c91 0 173 50 213 124h63
c-51 -106 -160 -178 -284 -178c-153 0 -252 115 -231 267s154 267 307 267zM346 468c-111 0 -207 -77 -235 -185h417c3 108 -72 185 -182 185z" />
    <glyph glyph-name="f" unicode="f" horiz-adv-x="364" 
d="M386 669c-82 0 -137 -32 -148 -118l-6 -41h132l-7 -53h-132l-65 -457h-58l64 457h-99l7 53h100l6 44c17 121 92 169 214 169z" />
    <glyph glyph-name="g" unicode="g" 
d="M563 510h58l-64 -455c-22 -155 -139 -257 -295 -257c-132 0 -215 73 -227 190h60c11 -83 76 -136 174 -136c122 0 213 81 230 204l10 71c-53 -81 -141 -133 -239 -133c-148 0 -242 114 -221 264c20 150 148 264 296 264c98 0 171 -52 201 -133zM288 47
c115 0 214 83 237 195l4 30c9 113 -66 197 -181 197c-120 0 -223 -91 -239 -211c-17 -120 59 -211 179 -211z" />
    <glyph glyph-name="uni01F5" unicode="&#x1f5;" 
d="M539 705l-137 -122h-63l123 122h77zM563 510h58l-64 -455c-22 -155 -139 -257 -295 -257c-132 0 -215 73 -227 190h60c11 -83 76 -136 174 -136c122 0 213 81 230 204l10 71c-53 -81 -141 -133 -239 -133c-148 0 -242 114 -221 264c20 150 148 264 296 264
c98 0 171 -52 201 -133zM288 47c115 0 214 83 237 195l4 30c9 113 -66 197 -181 197c-120 0 -223 -91 -239 -211c-17 -120 59 -211 179 -211z" />
    <glyph glyph-name="gbreve" unicode="&#x11f;" 
d="M376 573c-71 0 -118 54 -108 123h47c-6 -45 23 -79 67 -79c45 0 84 34 90 79h47c-9 -69 -71 -123 -143 -123zM563 510h58l-64 -455c-22 -155 -139 -257 -295 -257c-132 0 -215 73 -227 190h60c11 -83 76 -136 174 -136c122 0 213 81 230 204l10 71
c-53 -81 -141 -133 -239 -133c-148 0 -242 114 -221 264c20 150 148 264 296 264c98 0 171 -52 201 -133zM288 47c115 0 214 83 237 195l4 30c9 113 -66 197 -181 197c-120 0 -223 -91 -239 -211c-17 -120 59 -211 179 -211z" />
    <glyph glyph-name="gcaron" unicode="&#x1e7;" 
d="M414 583h-72l-84 122h57l67 -89l94 89h56zM563 510h58l-64 -455c-22 -155 -139 -257 -295 -257c-132 0 -215 73 -227 190h60c11 -83 76 -136 174 -136c122 0 213 81 230 204l10 71c-53 -81 -141 -133 -239 -133c-148 0 -242 114 -221 264c20 150 148 264 296 264
c98 0 171 -52 201 -133zM288 47c115 0 214 83 237 195l4 30c9 113 -66 197 -181 197c-120 0 -223 -91 -239 -211c-17 -120 59 -211 179 -211z" />
    <glyph glyph-name="gcircumflex" unicode="&#x11d;" 
d="M391 673l-93 -90h-57l118 122h72l84 -122h-56zM563 510h58l-64 -455c-22 -155 -139 -257 -295 -257c-132 0 -215 73 -227 190h60c11 -83 76 -136 174 -136c122 0 213 81 230 204l10 71c-53 -81 -141 -133 -239 -133c-148 0 -242 114 -221 264c20 150 148 264 296 264
c98 0 171 -52 201 -133zM288 47c115 0 214 83 237 195l4 30c9 113 -66 197 -181 197c-120 0 -223 -91 -239 -211c-17 -120 59 -211 179 -211z" />
    <glyph glyph-name="uni0123" unicode="&#x123;" 
d="M443 720l-51 -144h-62l65 144h48zM563 510h58l-64 -455c-22 -155 -139 -257 -295 -257c-132 0 -215 73 -227 190h60c11 -83 76 -136 174 -136c122 0 213 81 230 204l10 71c-53 -81 -141 -133 -239 -133c-148 0 -242 114 -221 264c20 150 148 264 296 264
c98 0 171 -52 201 -133zM288 47c115 0 214 83 237 195l4 30c9 113 -66 197 -181 197c-120 0 -223 -91 -239 -211c-17 -120 59 -211 179 -211z" />
    <glyph glyph-name="gdotaccent" unicode="&#x121;" 
d="M379 593c-23 0 -39 18 -35 41c2 24 24 42 47 42c24 0 39 -18 36 -42c-4 -23 -24 -41 -48 -41zM563 510h58l-64 -455c-22 -155 -139 -257 -295 -257c-132 0 -215 73 -227 190h60c11 -83 76 -136 174 -136c122 0 213 81 230 204l10 71c-53 -81 -141 -133 -239 -133
c-148 0 -242 114 -221 264c20 150 148 264 296 264c98 0 171 -52 201 -133zM288 47c115 0 214 83 237 195l4 30c9 113 -66 197 -181 197c-120 0 -223 -91 -239 -211c-17 -120 59 -211 179 -211z" />
    <glyph glyph-name="h" unicode="h" horiz-adv-x="622" 
d="M373 522c128 0 201 -84 183 -213l-43 -309h-58l41 292c15 105 -44 174 -148 174c-109 0 -191 -71 -206 -177l-41 -289h-58l101 720h58l-44 -312c48 72 124 114 215 114z" />
    <glyph glyph-name="hbar" unicode="&#x127;" horiz-adv-x="622" 
d="M373 522c128 0 201 -84 183 -213l-43 -309h-58l41 292c15 105 -44 174 -148 174c-109 0 -191 -71 -206 -177l-41 -289h-58l82 586h-77l6 44h77l13 90h58l-13 -90h145l-6 -44h-145l-25 -178c48 72 124 114 215 114z" />
    <glyph glyph-name="hcircumflex" unicode="&#x125;" horiz-adv-x="622" 
d="M193 858l-93 -90h-57l118 122h72l84 -122h-56zM373 522c128 0 201 -84 183 -213l-43 -309h-58l41 292c15 105 -44 174 -148 174c-109 0 -191 -71 -206 -177l-41 -289h-58l101 720h58l-44 -312c48 72 124 114 215 114z" />
    <glyph glyph-name="uni1E25" unicode="&#x1e25;" horiz-adv-x="622" 
d="M373 522c128 0 201 -84 183 -213l-43 -309h-58l41 292c15 105 -44 174 -148 174c-109 0 -191 -71 -206 -177l-41 -289h-58l101 720h58l-44 -312c48 72 124 114 215 114zM266 -83c24 0 40 -18 36 -41c-3 -24 -24 -42 -48 -42c-23 0 -38 18 -36 42c4 23 25 41 48 41z" />
    <glyph glyph-name="i" unicode="i" horiz-adv-x="217" 
d="M161 630c-24 0 -39 18 -36 42c3 23 24 41 48 41s39 -18 36 -41c-3 -24 -25 -42 -48 -42zM43 0l72 510h58l-72 -510h-58z" />
    <glyph glyph-name="dotlessi" unicode="&#x131;" horiz-adv-x="217" 
d="M43 0l72 510h58l-72 -510h-58z" />
    <glyph glyph-name="iacute" unicode="&#xed;" horiz-adv-x="217" 
d="M116 583l123 122h77l-137 -122h-63zM43 0l72 510h58l-72 -510h-58z" />
    <glyph glyph-name="ibreve" unicode="&#x12d;" horiz-adv-x="217" 
d="M153 573c-71 0 -118 54 -108 123h47c-6 -45 23 -79 67 -79c45 0 84 34 90 79h47c-9 -69 -71 -123 -143 -123zM43 0l72 510h58l-72 -510h-58z" />
    <glyph glyph-name="icircumflex" unicode="&#xee;" horiz-adv-x="217" 
d="M207 705l84 -122h-56l-68 90l-93 -90h-57l118 122h72zM43 0l72 510h58l-72 -510h-58z" />
    <glyph glyph-name="uni0209" unicode="&#x209;" horiz-adv-x="217" 
d="M38 583l-74 122h67l64 -122h-57zM219 583l-74 122h67l64 -122h-57zM43 0l72 510h58l-72 -510h-58z" />
    <glyph glyph-name="idieresis" unicode="&#xef;" horiz-adv-x="217" 
d="M55 593c-23 0 -38 17 -35 40s24 40 47 40c22 0 37 -17 34 -40s-23 -40 -46 -40zM256 593c-23 0 -38 17 -35 40s24 40 47 40c22 0 37 -17 34 -40s-23 -40 -46 -40zM43 0l72 510h58l-72 -510h-58z" />
    <glyph glyph-name="i.loclTRK" horiz-adv-x="217" 
d="M156 593c-23 0 -39 18 -35 41c2 24 24 42 47 42c24 0 39 -18 36 -42c-4 -23 -24 -41 -48 -41zM43 0l72 510h58l-72 -510h-58z" />
    <glyph glyph-name="uni1ECB" unicode="&#x1ecb;" horiz-adv-x="217" 
d="M161 630c-24 0 -39 18 -36 42c3 23 24 41 48 41s39 -18 36 -41c-3 -24 -25 -42 -48 -42zM43 0l72 510h58l-72 -510h-58zM49 -166c-23 0 -38 18 -36 42c4 23 25 41 48 41c24 0 40 -18 36 -41c-3 -24 -24 -42 -48 -42z" />
    <glyph glyph-name="igrave" unicode="&#xec;" horiz-adv-x="217" 
d="M131 583l-103 122h77l89 -122h-63zM43 0l72 510h58l-72 -510h-58z" />
    <glyph glyph-name="uni020B" unicode="&#x20b;" horiz-adv-x="217" 
d="M28 576c10 70 72 123 143 123s118 -53 108 -123h-47c7 46 -23 80 -67 80c-45 0 -83 -34 -90 -80h-47zM43 0l72 510h58l-72 -510h-58z" />
    <glyph glyph-name="ij" unicode="&#x133;" horiz-adv-x="440" 
d="M161 630c-24 0 -39 18 -36 42c3 23 24 41 48 41s39 -18 36 -41c-3 -24 -25 -42 -48 -42zM384 630c-24 0 -39 18 -36 42c3 23 24 41 48 41s39 -18 36 -41c-3 -24 -24 -42 -48 -42zM43 0l72 510h58l-72 -510h-58zM134 -202l7 54c65 0 110 32 119 103l79 555h58l-79 -558
c-14 -105 -82 -154 -184 -154z" />
    <glyph glyph-name="imacron" unicode="&#x12b;" horiz-adv-x="217" 
d="M47 601l7 50h220l-7 -50h-220zM43 0l72 510h58l-72 -510h-58z" />
    <glyph glyph-name="iogonek" unicode="&#x12f;" horiz-adv-x="217" 
d="M168 676c24 0 39 -18 36 -42c-4 -23 -24 -41 -48 -41c-23 0 -39 18 -35 41c2 24 24 42 47 42zM43 0l72 510h58l-72 -510h-1c-70 -30 -115 -70 -121 -112c-5 -34 18 -57 50 -57c22 0 47 9 66 23l-7 -46c-21 -13 -49 -21 -76 -21c-54 0 -90 39 -83 90c9 52 56 97 120 123
h-6z" />
    <glyph glyph-name="itilde" unicode="&#x129;" horiz-adv-x="217" 
d="M225 591c-64 0 -74 62 -125 62c-32 0 -59 -25 -63 -57h-44c8 59 51 104 108 104c63 0 74 -62 125 -62c31 0 59 24 63 57h43c-7 -60 -50 -104 -107 -104zM43 0l72 510h58l-72 -510h-58z" />
    <glyph glyph-name="j" unicode="j" horiz-adv-x="223" 
d="M167 630c-24 0 -39 18 -36 42c3 23 24 41 48 41s39 -18 36 -41c-3 -24 -24 -42 -48 -42zM-83 -202l7 54c65 0 110 32 119 103l79 555h58l-79 -558c-14 -105 -82 -154 -184 -154z" />
    <glyph glyph-name="uni0237" unicode="&#x237;" horiz-adv-x="223" 
d="M-83 -202l7 54c65 0 110 32 119 103l79 555h58l-79 -558c-14 -105 -82 -154 -184 -154z" />
    <glyph glyph-name="jcircumflex" unicode="&#x135;" horiz-adv-x="223" 
d="M214 705l84 -122h-56l-68 90l-93 -90h-57l118 122h72zM43 -45l79 555h58l-79 -558c-14 -105 -82 -154 -184 -154l7 54c65 0 110 32 119 103z" />
    <glyph glyph-name="k" unicode="k" horiz-adv-x="502" 
d="M510 510l-317 -253l252 -257h-78l-233 232l-33 -232h-58l101 720h58l-60 -437l291 227h77z" />
    <glyph glyph-name="uni0137" unicode="&#x137;" horiz-adv-x="502" 
d="M510 510l-317 -253l252 -257h-78l-233 232l-33 -232h-58l101 720h58l-60 -437l291 227h77zM150 -216l51 144h62l-65 -144h-48z" />
    <glyph glyph-name="l" unicode="l" horiz-adv-x="217" 
d="M43 0l101 720h58l-101 -720h-58z" />
    <glyph glyph-name="lacute" unicode="&#x13a;" horiz-adv-x="217" 
d="M142 768l123 122h77l-137 -122h-63zM43 0l101 720h58l-101 -720h-58z" />
    <glyph glyph-name="lcaron" unicode="&#x13e;" horiz-adv-x="273" 
d="M43 0l101 720h58l-101 -720h-58zM246 533l47 187h56l-58 -187h-45z" />
    <glyph glyph-name="uni013C" unicode="&#x13c;" horiz-adv-x="217" 
d="M43 0l101 720h58l-101 -720h-58zM-9 -216l51 144h62l-65 -144h-48z" />
    <glyph glyph-name="ldot" unicode="&#x140;" horiz-adv-x="326" 
d="M43 0l101 720h58l-101 -720h-58zM252 317c-24 0 -40 19 -36 43c2 24 25 43 49 43s40 -19 37 -43c-4 -24 -25 -43 -50 -43z" />
    <glyph glyph-name="uni01C9" unicode="&#x1c9;" horiz-adv-x="440" 
d="M43 0l101 720h58l-101 -720h-58zM384 630c-24 0 -39 18 -36 42c3 23 24 41 48 41s39 -18 36 -41c-3 -24 -24 -42 -48 -42zM134 -202l7 54c65 0 110 32 119 103l79 555h58l-79 -558c-14 -105 -82 -154 -184 -154z" />
    <glyph glyph-name="lslash" unicode="&#x142;" horiz-adv-x="292" 
d="M276 456l-9 -56l-79 -48l-49 -352h-58l44 313l-79 -49l7 56l80 49l49 351h58l-44 -313z" />
    <glyph glyph-name="m" unicode="m" horiz-adv-x="953" 
d="M724 522c117 0 183 -77 166 -194l-46 -328h-58l44 312c13 93 -38 154 -131 154c-91 0 -162 -56 -181 -142l-45 -324h-58l44 312c12 93 -39 154 -131 154c-96 0 -170 -62 -183 -156l-44 -310h-58l72 510h58l-12 -87c44 63 111 99 192 99c88 0 148 -44 164 -117
c43 74 117 117 207 117z" />
    <glyph glyph-name="n" unicode="n" horiz-adv-x="622" 
d="M373 522c128 0 201 -84 183 -213l-43 -309h-58l41 292c15 105 -44 174 -148 174c-109 0 -191 -72 -206 -179l-41 -287h-58l72 510h58l-14 -101c47 71 124 113 214 113z" />
    <glyph glyph-name="nacute" unicode="&#x144;" horiz-adv-x="622" 
d="M521 705l-137 -122h-63l123 122h77zM373 522c128 0 201 -84 183 -213l-43 -309h-58l41 292c15 105 -44 174 -148 174c-109 0 -191 -72 -206 -179l-41 -287h-58l72 510h58l-14 -101c47 71 124 113 214 113z" />
    <glyph glyph-name="ncaron" unicode="&#x148;" horiz-adv-x="622" 
d="M395 583h-72l-84 122h57l67 -89l94 89h56zM373 522c128 0 201 -84 183 -213l-43 -309h-58l41 292c15 105 -44 174 -148 174c-109 0 -191 -72 -206 -179l-41 -287h-58l72 510h58l-14 -101c47 71 124 113 214 113z" />
    <glyph glyph-name="uni0146" unicode="&#x146;" horiz-adv-x="622" 
d="M373 522c128 0 201 -84 183 -213l-43 -309h-58l41 292c15 105 -44 174 -148 174c-109 0 -191 -72 -206 -179l-41 -287h-58l72 510h58l-14 -101c47 71 124 113 214 113zM196 -216l51 144h62l-65 -144h-48z" />
    <glyph glyph-name="uni1E45" unicode="&#x1e45;" horiz-adv-x="622" 
d="M360 593c-23 0 -39 18 -35 41c2 24 24 42 47 42c24 0 39 -18 36 -42c-4 -23 -24 -41 -48 -41zM373 522c128 0 201 -84 183 -213l-43 -309h-58l41 292c15 105 -44 174 -148 174c-109 0 -191 -72 -206 -179l-41 -287h-58l72 510h58l-14 -101c47 71 124 113 214 113z" />
    <glyph glyph-name="eng" unicode="&#x14b;" horiz-adv-x="622" 
d="M373 522c128 0 201 -84 183 -213l-49 -356c-15 -102 -81 -150 -180 -150l8 56c61 0 104 30 114 97l47 336c15 105 -44 174 -148 174c-109 0 -191 -70 -206 -176l-41 -290h-58l72 510h58l-14 -99c48 71 124 111 214 111z" />
    <glyph glyph-name="uni01CC" unicode="&#x1cc;" horiz-adv-x="845" 
d="M801 713c24 0 39 -18 36 -41c-3 -24 -24 -42 -48 -42s-39 18 -36 42c3 23 24 41 48 41zM373 522c128 0 201 -84 183 -213l-43 -309h-58l41 292c15 105 -44 174 -148 174c-109 0 -191 -72 -206 -179l-41 -287h-58l72 510h58l-14 -101c47 71 124 113 214 113zM665 -45
l79 555h58l-79 -558c-14 -105 -82 -154 -184 -154l7 54c65 0 110 32 119 103z" />
    <glyph glyph-name="ntilde" unicode="&#xf1;" horiz-adv-x="622" 
d="M305 653c-32 0 -59 -25 -63 -57h-44c8 59 51 104 108 104c63 0 74 -62 125 -62c31 0 59 24 63 57h43c-7 -60 -50 -104 -107 -104c-64 0 -74 62 -125 62zM373 522c128 0 201 -84 183 -213l-43 -309h-58l41 292c15 105 -44 174 -148 174c-109 0 -191 -72 -206 -179
l-41 -287h-58l72 510h58l-14 -101c47 71 124 113 214 113z" />
    <glyph glyph-name="o" unicode="o" horiz-adv-x="631" 
d="M278 -12c-154 0 -253 115 -232 267s154 267 308 267c153 0 252 -115 231 -267s-154 -267 -307 -267zM286 44c120 0 223 91 239 211c17 120 -60 211 -179 211c-120 0 -223 -91 -240 -211s60 -211 180 -211z" />
    <glyph glyph-name="oacute" unicode="&#xf3;" horiz-adv-x="631" 
d="M323 583l123 122h77l-137 -122h-63zM278 -12c-154 0 -253 115 -232 267s154 267 308 267c153 0 252 -115 231 -267s-154 -267 -307 -267zM286 44c120 0 223 91 239 211c17 120 -60 211 -179 211c-120 0 -223 -91 -240 -211s60 -211 180 -211z" />
    <glyph glyph-name="obreve" unicode="&#x14f;" horiz-adv-x="631" 
d="M360 573c-71 0 -118 54 -108 123h47c-6 -45 23 -79 67 -79c45 0 84 34 90 79h47c-9 -69 -71 -123 -143 -123zM278 -12c-154 0 -253 115 -232 267s154 267 308 267c153 0 252 -115 231 -267s-154 -267 -307 -267zM286 44c120 0 223 91 239 211c17 120 -60 211 -179 211
c-120 0 -223 -91 -240 -211s60 -211 180 -211z" />
    <glyph glyph-name="ocircumflex" unicode="&#xf4;" horiz-adv-x="631" 
d="M375 673l-93 -90h-57l118 122h72l84 -122h-56zM354 522c153 0 252 -115 231 -267s-154 -267 -307 -267c-154 0 -253 115 -232 267s154 267 308 267zM525 255c17 120 -60 211 -179 211c-120 0 -223 -91 -240 -211s60 -211 180 -211s223 91 239 211z" />
    <glyph glyph-name="uni020D" unicode="&#x20d;" horiz-adv-x="631" 
d="M245 583l-74 122h67l64 -122h-57zM426 583l-74 122h67l64 -122h-57zM278 -12c-154 0 -253 115 -232 267s154 267 308 267c153 0 252 -115 231 -267s-154 -267 -307 -267zM286 44c120 0 223 91 239 211c17 120 -60 211 -179 211c-120 0 -223 -91 -240 -211
s60 -211 180 -211z" />
    <glyph glyph-name="odieresis" unicode="&#xf6;" horiz-adv-x="631" 
d="M263 593c-23 0 -38 17 -35 40s24 40 47 40c22 0 37 -17 34 -40s-23 -40 -46 -40zM464 593c-23 0 -38 17 -35 40s24 40 47 40c22 0 37 -17 34 -40s-23 -40 -46 -40zM278 -12c-154 0 -253 115 -232 267s154 267 308 267c153 0 252 -115 231 -267s-154 -267 -307 -267z
M286 44c120 0 223 91 239 211c17 120 -60 211 -179 211c-120 0 -223 -91 -240 -211s60 -211 180 -211z" />
    <glyph glyph-name="uni1ECD" unicode="&#x1ecd;" horiz-adv-x="631" 
d="M278 -12c-154 0 -253 115 -232 267s154 267 308 267c153 0 252 -115 231 -267s-154 -267 -307 -267zM286 44c120 0 223 91 239 211c17 120 -60 211 -179 211c-120 0 -223 -91 -240 -211s60 -211 180 -211zM256 -166c-23 0 -38 18 -36 42c4 23 25 41 48 41
c24 0 40 -18 36 -41c-3 -24 -24 -42 -48 -42z" />
    <glyph glyph-name="ograve" unicode="&#xf2;" horiz-adv-x="631" 
d="M338 583l-103 122h77l89 -122h-63zM278 -12c-154 0 -253 115 -232 267s154 267 308 267c153 0 252 -115 231 -267s-154 -267 -307 -267zM286 44c120 0 223 91 239 211c17 120 -60 211 -179 211c-120 0 -223 -91 -240 -211s60 -211 180 -211z" />
    <glyph glyph-name="ohungarumlaut" unicode="&#x151;" horiz-adv-x="631" 
d="M240 583l98 122h67l-108 -122h-57zM422 583l97 122h67l-108 -122h-56zM278 -12c-154 0 -253 115 -232 267s154 267 308 267c153 0 252 -115 231 -267s-154 -267 -307 -267zM286 44c120 0 223 91 239 211c17 120 -60 211 -179 211c-120 0 -223 -91 -240 -211
s60 -211 180 -211z" />
    <glyph glyph-name="uni020F" unicode="&#x20f;" horiz-adv-x="631" 
d="M235 576c10 70 72 123 143 123s118 -53 108 -123h-47c7 46 -23 80 -67 80c-45 0 -83 -34 -90 -80h-47zM278 -12c-154 0 -253 115 -232 267s154 267 308 267c153 0 252 -115 231 -267s-154 -267 -307 -267zM286 44c120 0 223 91 239 211c17 120 -60 211 -179 211
c-120 0 -223 -91 -240 -211s60 -211 180 -211z" />
    <glyph glyph-name="omacron" unicode="&#x14d;" horiz-adv-x="631" 
d="M254 601l7 50h220l-7 -50h-220zM278 -12c-154 0 -253 115 -232 267s154 267 308 267c153 0 252 -115 231 -267s-154 -267 -307 -267zM286 44c120 0 223 91 239 211c17 120 -60 211 -179 211c-120 0 -223 -91 -240 -211s60 -211 180 -211z" />
    <glyph glyph-name="uni01EB" unicode="&#x1eb;" horiz-adv-x="631" 
d="M354 522c153 0 252 -115 231 -267c-17 -122 -106 -220 -219 -254c-65 -30 -106 -68 -112 -108c-5 -34 18 -57 50 -57c22 0 47 9 66 23l-7 -46c-21 -13 -49 -21 -76 -21c-54 0 -90 39 -83 90c7 42 40 80 86 106h-12c-154 0 -253 115 -232 267s154 267 308 267zM525 255
c17 120 -60 211 -179 211c-120 0 -223 -91 -240 -211s60 -211 180 -211s223 91 239 211z" />
    <glyph glyph-name="oslash" unicode="&#xf8;" horiz-adv-x="631" 
d="M603 510l-68 -65c41 -48 60 -114 50 -190c-21 -152 -154 -267 -307 -267c-64 0 -119 20 -160 55l-44 -43h-47l68 66c-40 47 -59 114 -49 189c21 152 154 267 308 267c64 0 118 -20 158 -54l44 42h47zM106 255c-8 -57 5 -108 35 -146l326 316c-31 26 -72 41 -121 41
c-120 0 -223 -91 -240 -211zM525 255c8 58 -5 109 -35 146l-327 -315c31 -27 74 -42 123 -42c120 0 223 91 239 211z" />
    <glyph glyph-name="oslashacute" unicode="&#x1ff;" horiz-adv-x="631" 
d="M527 705l-137 -122h-63l123 122h77zM603 510l-68 -65c41 -48 60 -114 50 -190c-21 -152 -154 -267 -307 -267c-64 0 -119 20 -160 55l-44 -43h-47l68 66c-40 47 -59 114 -49 189c21 152 154 267 308 267c64 0 118 -20 158 -54l44 42h47zM106 255c-8 -57 5 -108 35 -146
l326 316c-31 26 -72 41 -121 41c-120 0 -223 -91 -240 -211zM525 255c8 58 -5 109 -35 146l-327 -315c31 -27 74 -42 123 -42c120 0 223 91 239 211z" />
    <glyph glyph-name="otilde" unicode="&#xf5;" horiz-adv-x="631" 
d="M433 591c-64 0 -74 62 -125 62c-32 0 -59 -25 -63 -57h-44c8 59 51 104 108 104c63 0 74 -62 125 -62c31 0 59 24 63 57h43c-7 -60 -50 -104 -107 -104zM278 -12c-154 0 -253 115 -232 267s154 267 308 267c153 0 252 -115 231 -267s-154 -267 -307 -267zM286 44
c120 0 223 91 239 211c17 120 -60 211 -179 211c-120 0 -223 -91 -240 -211s60 -211 180 -211z" />
    <glyph glyph-name="oe" unicode="&#x153;" horiz-adv-x="1107" 
d="M834 522c153 0 252 -115 231 -267l-6 -24h-476c-5 -110 70 -188 182 -188c92 0 173 50 212 123h64c-51 -106 -159 -178 -283 -178c-112 0 -193 63 -218 158c-53 -95 -152 -158 -264 -158c-153 0 -251 115 -230 267s153 267 306 267c112 0 193 -63 218 -158
c53 95 152 158 264 158zM825 467c-111 0 -207 -76 -234 -184h416c6 107 -72 184 -182 184zM525 255c17 120 -60 211 -180 211s-222 -91 -239 -211s60 -211 179 -211c120 0 223 91 240 211z" />
    <glyph glyph-name="p" unicode="p" 
d="M395 522c149 0 243 -115 222 -267s-149 -267 -298 -267c-99 0 -171 53 -201 136l-44 -314h-58l99 700h58l-17 -123c52 82 140 135 239 135zM557 255c16 120 -60 211 -180 211s-223 -91 -240 -211c-16 -120 60 -211 180 -211s223 91 240 211z" />
    <glyph glyph-name="thorn" unicode="&#xfe;" 
d="M395 522c149 0 243 -115 222 -267s-149 -267 -298 -267c-99 0 -172 54 -201 136l-44 -314h-58l128 910h58l-47 -334c53 82 141 136 240 136zM557 255c16 120 -60 211 -180 211s-223 -91 -240 -211c-16 -120 60 -211 180 -211s223 91 240 211z" />
    <glyph glyph-name="q" unicode="q" 
d="M562 510h58l-99 -700h-58l44 311c-53 -81 -141 -133 -239 -133c-148 0 -242 115 -221 267s149 267 297 267c98 0 171 -53 201 -134zM287 44c117 0 219 88 238 206l2 11c14 117 -63 205 -181 205c-120 0 -223 -91 -239 -211c-17 -120 60 -211 180 -211z" />
    <glyph glyph-name="r" unicode="r" horiz-adv-x="351" 
d="M158 400c45 74 115 118 196 118l-8 -60c-111 0 -191 -76 -207 -193h-1l-37 -265h-58l72 510h58z" />
    <glyph glyph-name="racute" unicode="&#x155;" horiz-adv-x="351" 
d="M403 705l-137 -122h-63l123 122h77zM158 400c45 74 115 118 196 118l-8 -60c-111 0 -191 -76 -207 -193h-1l-37 -265h-58l72 510h58z" />
    <glyph glyph-name="rcaron" unicode="&#x159;" horiz-adv-x="351" 
d="M278 583h-72l-84 122h57l67 -89l94 89h56zM158 400c45 74 115 118 196 118l-8 -60c-111 0 -191 -76 -207 -193h-1l-37 -265h-58l72 510h58z" />
    <glyph glyph-name="uni0157" unicode="&#x157;" horiz-adv-x="351" 
d="M158 400c45 74 115 118 196 118l-8 -60c-111 0 -191 -76 -207 -193h-1l-37 -265h-58l72 510h58zM-9 -216l51 144h62l-65 -144h-48z" />
    <glyph glyph-name="uni0211" unicode="&#x211;" horiz-adv-x="351" 
d="M182 583h-57l-74 122h67zM363 583h-57l-74 122h67zM158 400c45 74 115 118 196 118l-8 -60c-111 0 -191 -76 -207 -193h-1l-37 -265h-58l72 510h58z" />
    <glyph glyph-name="uni1E5B" unicode="&#x1e5b;" horiz-adv-x="351" 
d="M158 400c45 74 115 118 196 118l-8 -60c-111 0 -191 -76 -207 -193h-1l-37 -265h-58l72 510h58zM61 -83c24 0 40 -18 36 -41c-3 -24 -24 -42 -48 -42c-23 0 -38 18 -36 42c4 23 25 41 48 41z" />
    <glyph glyph-name="uni0213" unicode="&#x213;" horiz-adv-x="351" 
d="M258 699c71 0 118 -53 108 -123h-47c7 46 -23 80 -67 80c-45 0 -83 -34 -90 -80h-47c10 70 72 123 143 123zM158 400c45 74 115 118 196 118l-8 -60c-111 0 -191 -76 -207 -193h-1l-37 -265h-58l72 510h58z" />
    <glyph glyph-name="s" unicode="s" horiz-adv-x="420" 
d="M172 -12c-95 0 -155 66 -143 152h60c-8 -56 32 -99 91 -99s109 38 116 88c7 53 -28 86 -101 105c-82 21 -136 64 -125 148c12 84 90 140 178 140c90 0 148 -64 136 -146h-59c7 52 -29 93 -86 93c-54 0 -102 -37 -108 -84c-7 -50 28 -84 98 -101c90 -23 139 -70 128 -150
c-12 -87 -92 -146 -185 -146z" />
    <glyph glyph-name="sacute" unicode="&#x15b;" horiz-adv-x="420" 
d="M217 583l123 122h77l-137 -122h-63zM172 -12c-95 0 -155 66 -143 152h60c-8 -56 32 -99 91 -99s109 38 116 88c7 53 -28 86 -101 105c-82 21 -136 64 -125 148c12 84 90 140 178 140c90 0 148 -64 136 -146h-59c7 52 -29 93 -86 93c-54 0 -102 -37 -108 -84
c-7 -50 28 -84 98 -101c90 -23 139 -70 128 -150c-12 -87 -92 -146 -185 -146z" />
    <glyph glyph-name="scaron" unicode="&#x161;" horiz-adv-x="420" 
d="M292 583h-72l-84 122h57l67 -89l94 89h56zM248 522c90 0 148 -64 136 -146h-59c7 52 -29 93 -86 93c-54 0 -102 -37 -108 -84c-7 -50 28 -84 98 -101c90 -23 139 -70 128 -150c-12 -87 -92 -146 -185 -146c-95 0 -155 66 -143 152h60c-8 -56 32 -99 91 -99s109 38 116 88
c7 53 -28 86 -101 105c-82 21 -136 64 -125 148c12 84 90 140 178 140z" />
    <glyph glyph-name="scedilla" unicode="&#x15f;" horiz-adv-x="420" 
d="M384 376h-59c7 52 -29 93 -86 93c-54 0 -102 -37 -108 -84c-7 -50 28 -84 98 -101c90 -23 139 -70 128 -150c-11 -81 -81 -138 -166 -145l-25 -27c4 1 9 1 13 1c49 0 81 -39 73 -89c-7 -50 -53 -90 -106 -90s-88 40 -81 90h39c-5 -31 17 -55 47 -55c31 0 58 24 63 55
c5 32 -17 55 -47 55c-14 0 -30 -7 -40 -15l-32 16l53 59c-81 10 -130 72 -119 151h60c-8 -56 32 -99 91 -99s109 38 116 88c7 53 -28 86 -101 105c-82 21 -136 64 -125 148c12 84 90 140 178 140c90 0 148 -64 136 -146z" />
    <glyph glyph-name="scircumflex" unicode="&#x15d;" horiz-adv-x="420" 
d="M269 673l-93 -90h-57l118 122h72l84 -122h-56zM248 522c90 0 148 -64 136 -146h-59c7 52 -29 93 -86 93c-54 0 -102 -37 -108 -84c-7 -50 28 -84 98 -101c90 -23 139 -70 128 -150c-12 -87 -92 -146 -185 -146c-95 0 -155 66 -143 152h60c-8 -56 32 -99 91 -99
s109 38 116 88c7 53 -28 86 -101 105c-82 21 -136 64 -125 148c12 84 90 140 178 140z" />
    <glyph glyph-name="uni0219" unicode="&#x219;" horiz-adv-x="420" 
d="M172 -12c-95 0 -155 66 -143 152h60c-8 -56 32 -99 91 -99s109 38 116 88c7 53 -28 86 -101 105c-82 21 -136 64 -125 148c12 84 90 140 178 140c90 0 148 -64 136 -146h-59c7 52 -29 93 -86 93c-54 0 -102 -37 -108 -84c-7 -50 28 -84 98 -101c90 -23 139 -70 128 -150
c-12 -87 -92 -146 -185 -146zM92 -216l51 144h62l-65 -144h-48z" />
    <glyph glyph-name="uni1E63" unicode="&#x1e63;" horiz-adv-x="420" 
d="M172 -12c-95 0 -155 66 -143 152h60c-8 -56 32 -99 91 -99s109 38 116 88c7 53 -28 86 -101 105c-82 21 -136 64 -125 148c12 84 90 140 178 140c90 0 148 -64 136 -146h-59c7 52 -29 93 -86 93c-54 0 -102 -37 -108 -84c-7 -50 28 -84 98 -101c90 -23 139 -70 128 -150
c-12 -87 -92 -146 -185 -146zM150 -166c-23 0 -38 18 -36 42c4 23 25 41 48 41c24 0 40 -18 36 -41c-3 -24 -24 -42 -48 -42z" />
    <glyph glyph-name="germandbls" unicode="&#xdf;" horiz-adv-x="526" 
d="M501 550c-11 -76 -63 -139 -130 -162c78 -23 124 -98 111 -195c-16 -117 -122 -205 -244 -205c-28 0 -53 5 -73 14l8 57c19 -10 43 -15 68 -15c91 0 169 66 182 155c13 91 -42 161 -130 161h-55l8 55h52c71 0 132 57 143 131c10 74 -39 130 -115 130s-140 -56 -151 -130
l-77 -546h-58l78 550c15 103 107 182 216 182c110 0 182 -79 167 -182z" />
    <glyph glyph-name="t" unicode="t" horiz-adv-x="372" 
d="M374 510l-7 -53h-126l-64 -457h-58l65 457h-119l7 53h119l20 139l59 11l-21 -150h125z" />
    <glyph glyph-name="tbar" unicode="&#x167;" horiz-adv-x="372" 
d="M367 457h-126l-26 -190h114l-6 -44h-115l-31 -223h-58l32 223h-108l6 44h108l27 190h-119l7 53h119l20 139l59 11l-21 -150h125z" />
    <glyph glyph-name="tcaron" unicode="&#x165;" horiz-adv-x="372" 
d="M428 758l-58 -187h-45l47 187h56zM270 660l-21 -150h125l-7 -53h-126l-64 -457h-58l65 457h-119l7 53h119l20 139z" />
    <glyph glyph-name="uni0163" unicode="&#x163;" horiz-adv-x="372" 
d="M177 0h-7l-34 -37c4 1 9 1 13 1c49 0 81 -39 73 -89c-7 -50 -53 -90 -106 -90s-88 40 -81 90h39c-5 -31 17 -55 47 -55c31 0 58 24 63 55c5 32 -17 55 -47 55c-14 0 -30 -7 -40 -15l-32 16l62 69h-8l65 457h-119l7 53h119l20 139l59 11l-21 -150h125l-7 -53h-126z" />
    <glyph glyph-name="uni021B" unicode="&#x21b;" horiz-adv-x="372" 
d="M374 510l-7 -53h-126l-64 -457h-58l65 457h-119l7 53h119l20 139l59 11l-21 -150h125zM66 -216l51 144h62l-65 -144h-48z" />
    <glyph glyph-name="uni1E6D" unicode="&#x1e6d;" horiz-adv-x="372" 
d="M374 510l-7 -53h-126l-64 -457h-58l65 457h-119l7 53h119l20 139l59 11l-21 -150h125zM136 -83c24 0 40 -18 36 -41c-3 -24 -24 -42 -48 -42c-23 0 -38 18 -36 42c4 23 25 41 48 41z" />
    <glyph glyph-name="u" unicode="u" horiz-adv-x="604" 
d="M503 510h58l-72 -510h-58l13 95c-45 -68 -118 -107 -204 -107c-123 0 -193 81 -175 205l44 317h58l-43 -301c-13 -99 42 -165 141 -165c100 0 177 63 194 157z" />
    <glyph glyph-name="uacute" unicode="&#xfa;" horiz-adv-x="604" 
d="M506 705l-137 -122h-63l123 122h77zM503 510h58l-72 -510h-58l13 95c-45 -68 -118 -107 -204 -107c-123 0 -193 81 -175 205l44 317h58l-43 -301c-13 -99 42 -165 141 -165c100 0 177 63 194 157z" />
    <glyph glyph-name="ubreve" unicode="&#x16d;" horiz-adv-x="604" 
d="M343 573c-71 0 -118 54 -108 123h47c-6 -45 23 -79 67 -79c45 0 84 34 90 79h47c-9 -69 -71 -123 -143 -123zM503 510h58l-72 -510h-58l13 95c-45 -68 -118 -107 -204 -107c-123 0 -193 81 -175 205l44 317h58l-43 -301c-13 -99 42 -165 141 -165c100 0 177 63 194 157z
" />
    <glyph glyph-name="ucircumflex" unicode="&#xfb;" horiz-adv-x="604" 
d="M358 673l-93 -90h-57l118 122h72l84 -122h-56zM503 510h58l-72 -510h-58l13 95c-45 -68 -118 -107 -204 -107c-123 0 -193 81 -175 205l44 317h58l-43 -301c-13 -99 42 -165 141 -165c100 0 177 63 194 157z" />
    <glyph glyph-name="uni0215" unicode="&#x215;" horiz-adv-x="604" 
d="M286 583h-57l-74 122h67zM467 583h-57l-74 122h67zM503 510h58l-72 -510h-58l13 95c-45 -68 -118 -107 -204 -107c-123 0 -193 81 -175 205l44 317h58l-43 -301c-13 -99 42 -165 141 -165c100 0 177 63 194 157z" />
    <glyph glyph-name="udieresis" unicode="&#xfc;" horiz-adv-x="604" 
d="M246 593c-23 0 -38 17 -35 40s24 40 47 40c22 0 37 -17 34 -40s-23 -40 -46 -40zM447 593c-23 0 -38 17 -35 40s24 40 47 40c22 0 37 -17 34 -40s-23 -40 -46 -40zM503 510h58l-72 -510h-58l13 95c-45 -68 -118 -107 -204 -107c-123 0 -193 81 -175 205l44 317h58
l-43 -301c-13 -99 42 -165 141 -165c100 0 177 63 194 157z" />
    <glyph glyph-name="uni1EE5" unicode="&#x1ee5;" horiz-adv-x="604" 
d="M503 510h58l-72 -510h-58l13 95c-45 -68 -118 -107 -204 -107c-123 0 -193 81 -175 205l44 317h58l-43 -301c-13 -99 42 -165 141 -165c100 0 177 63 194 157zM251 -83c24 0 40 -18 36 -41c-3 -24 -24 -42 -48 -42c-23 0 -38 18 -36 42c4 23 25 41 48 41z" />
    <glyph glyph-name="ugrave" unicode="&#xf9;" horiz-adv-x="604" 
d="M384 583h-63l-103 122h77zM503 510h58l-72 -510h-58l13 95c-45 -68 -118 -107 -204 -107c-123 0 -193 81 -175 205l44 317h58l-43 -301c-13 -99 42 -165 141 -165c100 0 177 63 194 157z" />
    <glyph glyph-name="uhungarumlaut" unicode="&#x171;" horiz-adv-x="604" 
d="M388 705l-108 -122h-57l98 122h67zM569 705l-108 -122h-56l97 122h67zM459 201l44 309h58l-72 -510h-58l13 95c-45 -68 -118 -107 -204 -107c-123 0 -193 81 -175 205l44 317h58l-43 -301c-13 -99 42 -165 141 -165c100 0 177 63 194 157z" />
    <glyph glyph-name="uni0217" unicode="&#x217;" horiz-adv-x="604" 
d="M355 656c-45 0 -83 -34 -90 -80h-47c10 70 72 123 143 123s118 -53 108 -123h-47c7 46 -23 80 -67 80zM503 510h58l-72 -510h-58l13 95c-45 -68 -118 -107 -204 -107c-123 0 -193 81 -175 205l44 317h58l-43 -301c-13 -99 42 -165 141 -165c100 0 177 63 194 157z" />
    <glyph glyph-name="umacron" unicode="&#x16b;" horiz-adv-x="604" 
d="M465 651l-7 -50h-220l7 50h220zM503 510h58l-72 -510h-58l13 95c-45 -68 -118 -107 -204 -107c-123 0 -193 81 -175 205l44 317h58l-43 -301c-13 -99 42 -165 141 -165c100 0 177 63 194 157z" />
    <glyph glyph-name="uogonek" unicode="&#x173;" horiz-adv-x="604" 
d="M503 510h58l-72 -510h-2c-70 -30 -115 -70 -121 -112c-5 -34 18 -57 50 -57c22 0 47 9 66 23l-7 -46c-21 -13 -49 -21 -76 -21c-54 0 -90 39 -83 90c9 52 56 97 120 123h-5l13 95c-45 -68 -118 -107 -204 -107c-123 0 -193 81 -175 205l44 317h58l-43 -301
c-13 -99 42 -165 141 -165c100 0 177 63 194 157z" />
    <glyph glyph-name="uring" unicode="&#x16f;" horiz-adv-x="604" 
d="M343 569c-43 0 -72 33 -66 76c6 44 44 77 88 77s73 -33 67 -77c-7 -43 -45 -76 -89 -76zM311 645c-3 -25 13 -43 37 -43s45 18 49 43c3 25 -13 44 -37 44s-45 -19 -49 -44zM503 510h58l-72 -510h-58l13 95c-45 -68 -118 -107 -204 -107c-123 0 -193 81 -175 205l44 317
h58l-43 -301c-13 -99 42 -165 141 -165c100 0 177 63 194 157z" />
    <glyph glyph-name="utilde" unicode="&#x169;" horiz-adv-x="604" 
d="M291 653c-32 0 -59 -25 -63 -57h-44c8 59 51 104 108 104c63 0 74 -62 125 -62c31 0 59 24 63 57h43c-7 -60 -50 -104 -107 -104c-64 0 -74 62 -125 62zM503 510h58l-72 -510h-58l13 95c-45 -68 -118 -107 -204 -107c-123 0 -193 81 -175 205l44 317h58l-43 -301
c-13 -99 42 -165 141 -165c100 0 177 63 194 157z" />
    <glyph glyph-name="v" unicode="v" horiz-adv-x="568" 
d="M518 510h65l-304 -510h-62l-160 510h64l136 -445z" />
    <glyph glyph-name="w" unicode="w" horiz-adv-x="917" 
d="M863 510h65l-272 -510h-62l-109 444l-234 -444h-62l-128 510h65l103 -443l235 443h61l108 -443z" />
    <glyph glyph-name="wacute" unicode="&#x1e83;" horiz-adv-x="917" 
d="M672 705l-137 -122h-63l123 122h77zM863 510h65l-272 -510h-62l-109 444l-234 -444h-62l-128 510h65l103 -443l235 443h61l108 -443z" />
    <glyph glyph-name="wcircumflex" unicode="&#x175;" horiz-adv-x="917" 
d="M524 673l-93 -90h-57l118 122h72l84 -122h-56zM863 510h65l-272 -510h-62l-109 444l-234 -444h-62l-128 510h65l103 -443l235 443h61l108 -443z" />
    <glyph glyph-name="wdieresis" unicode="&#x1e85;" horiz-adv-x="917" 
d="M412 593c-23 0 -38 17 -35 40s24 40 47 40c22 0 37 -17 34 -40s-23 -40 -46 -40zM613 593c-23 0 -38 17 -35 40s24 40 47 40c22 0 37 -17 34 -40s-23 -40 -46 -40zM863 510h65l-272 -510h-62l-109 444l-234 -444h-62l-128 510h65l103 -443l235 443h61l108 -443z" />
    <glyph glyph-name="wgrave" unicode="&#x1e81;" horiz-adv-x="917" 
d="M550 583h-63l-103 122h77zM863 510h65l-272 -510h-62l-109 444l-234 -444h-62l-128 510h65l103 -443l235 443h61l108 -443z" />
    <glyph glyph-name="x" unicode="x" horiz-adv-x="569" 
d="M563 510l-238 -254l169 -256h-70l-143 219l-206 -219h-72l241 256l-166 254h69l143 -218l203 218h70z" />
    <glyph glyph-name="y" unicode="y" horiz-adv-x="568" 
d="M518 510h65l-417 -700h-63l113 189l-159 511h64l136 -446z" />
    <glyph glyph-name="yacute" unicode="&#xfd;" horiz-adv-x="568" 
d="M493 705l-137 -122h-63l123 122h77zM518 510h65l-417 -700h-63l113 189l-159 511h64l136 -446z" />
    <glyph glyph-name="ycircumflex" unicode="&#x177;" horiz-adv-x="568" 
d="M344 673l-93 -90h-57l118 122h72l84 -122h-56zM518 510h65l-417 -700h-63l113 189l-159 511h64l136 -446z" />
    <glyph glyph-name="ydieresis" unicode="&#xff;" horiz-adv-x="568" 
d="M232 593c-23 0 -38 17 -35 40s24 40 47 40c22 0 37 -17 34 -40s-23 -40 -46 -40zM433 593c-23 0 -38 17 -35 40s24 40 47 40c22 0 37 -17 34 -40s-23 -40 -46 -40zM518 510h65l-417 -700h-63l113 189l-159 511h64l136 -446z" />
    <glyph glyph-name="ygrave" unicode="&#x1ef3;" horiz-adv-x="568" 
d="M370 583h-63l-103 122h77zM518 510h65l-417 -700h-63l113 189l-159 511h64l136 -446z" />
    <glyph glyph-name="uni0233" unicode="&#x233;" horiz-adv-x="568" 
d="M451 651l-7 -50h-220l7 50h220zM518 510h65l-417 -700h-63l113 189l-159 511h64l136 -446z" />
    <glyph glyph-name="uni1EF9" unicode="&#x1ef9;" horiz-adv-x="568" 
d="M277 653c-32 0 -59 -25 -63 -57h-44c8 59 51 104 108 104c63 0 74 -62 125 -62c31 0 59 24 63 57h43c-7 -60 -50 -104 -107 -104c-64 0 -74 62 -125 62zM518 510h65l-417 -700h-63l113 189l-159 511h64l136 -446z" />
    <glyph glyph-name="z" unicode="z" horiz-adv-x="501" 
d="M482 510l-7 -42l-374 -412h324l-8 -56h-405l7 42l374 412h-313l8 56h394z" />
    <glyph glyph-name="zacute" unicode="&#x17a;" horiz-adv-x="501" 
d="M458 705l-137 -122h-63l123 122h77zM482 510l-7 -42l-374 -412h324l-8 -56h-405l7 42l374 412h-313l8 56h394z" />
    <glyph glyph-name="zcaron" unicode="&#x17e;" horiz-adv-x="501" 
d="M333 583h-72l-84 122h57l67 -89l94 89h56zM482 510l-7 -42l-374 -412h324l-8 -56h-405l7 42l374 412h-313l8 56h394z" />
    <glyph glyph-name="zdotaccent" unicode="&#x17c;" horiz-adv-x="501" 
d="M298 593c-23 0 -39 18 -35 41c2 24 24 42 47 42c24 0 39 -18 36 -42c-4 -23 -24 -41 -48 -41zM482 510l-7 -42l-374 -412h324l-8 -56h-405l7 42l374 412h-313l8 56h394z" />
    <glyph glyph-name="uni1E93" unicode="&#x1e93;" horiz-adv-x="501" 
d="M482 510l-7 -42l-374 -412h324l-8 -56h-405l7 42l374 412h-313l8 56h394zM203 -83c24 0 40 -18 36 -41c-3 -24 -24 -42 -48 -42c-23 0 -38 18 -36 42c4 23 25 41 48 41z" />
    <glyph glyph-name="a.ss01" horiz-adv-x="519" 
d="M292 522c113 0 180 -75 164 -187l-47 -335h-55l8 57c-41 -43 -100 -69 -163 -69c-108 0 -179 74 -165 172c13 98 106 172 214 172c61 0 112 -25 141 -66l9 68c12 81 -33 135 -114 135c-73 0 -129 -42 -147 -105h-59c26 94 109 158 214 158zM217 40c78 0 147 52 157 120
c9 68 -45 120 -124 120s-147 -52 -156 -120c-10 -68 44 -120 123 -120z" />
    <glyph glyph-name="aacute.ss01" horiz-adv-x="519" 
d="M463 705l-137 -122h-63l123 122h77zM292 522c113 0 180 -75 164 -187l-47 -335h-55l8 57c-41 -43 -100 -69 -163 -69c-108 0 -179 74 -165 172c13 98 106 172 214 172c61 0 112 -25 141 -66l9 68c12 81 -33 135 -114 135c-73 0 -129 -42 -147 -105h-59
c26 94 109 158 214 158zM217 40c78 0 147 52 157 120c9 68 -45 120 -124 120s-147 -52 -156 -120c-10 -68 44 -120 123 -120z" />
    <glyph glyph-name="abreve.ss01" horiz-adv-x="519" 
d="M300 573c-71 0 -118 54 -108 123h47c-6 -45 23 -79 67 -79c45 0 84 34 90 79h47c-9 -69 -71 -123 -143 -123zM292 522c113 0 180 -75 164 -187l-47 -335h-55l8 57c-41 -43 -100 -69 -163 -69c-108 0 -179 74 -165 172c13 98 106 172 214 172c61 0 112 -25 141 -66l9 68
c12 81 -33 135 -114 135c-73 0 -129 -42 -147 -105h-59c26 94 109 158 214 158zM217 40c78 0 147 52 157 120c9 68 -45 120 -124 120s-147 -52 -156 -120c-10 -68 44 -120 123 -120z" />
    <glyph glyph-name="uni01CE.ss01" horiz-adv-x="519" 
d="M338 583h-72l-84 122h57l67 -89l94 89h56zM292 522c113 0 180 -75 164 -187l-47 -335h-55l8 57c-41 -43 -100 -69 -163 -69c-108 0 -179 74 -165 172c13 98 106 172 214 172c61 0 112 -25 141 -66l9 68c12 81 -33 135 -114 135c-73 0 -129 -42 -147 -105h-59
c26 94 109 158 214 158zM217 40c78 0 147 52 157 120c9 68 -45 120 -124 120s-147 -52 -156 -120c-10 -68 44 -120 123 -120z" />
    <glyph glyph-name="acircumflex.ss01" horiz-adv-x="519" 
d="M315 673l-93 -90h-57l118 122h72l84 -122h-56zM292 522c113 0 180 -75 164 -187l-47 -335h-55l8 57c-41 -43 -100 -69 -163 -69c-108 0 -179 74 -165 172c13 98 106 172 214 172c61 0 112 -25 141 -66l9 68c12 81 -33 135 -114 135c-73 0 -129 -42 -147 -105h-59
c26 94 109 158 214 158zM217 40c78 0 147 52 157 120c9 68 -45 120 -124 120s-147 -52 -156 -120c-10 -68 44 -120 123 -120z" />
    <glyph glyph-name="uni0201.ss01" horiz-adv-x="519" 
d="M242 583h-57l-74 122h67zM423 583h-57l-74 122h67zM292 522c113 0 180 -75 164 -187l-47 -335h-55l8 57c-41 -43 -100 -69 -163 -69c-108 0 -179 74 -165 172c13 98 106 172 214 172c61 0 112 -25 141 -66l9 68c12 81 -33 135 -114 135c-73 0 -129 -42 -147 -105h-59
c26 94 109 158 214 158zM217 40c78 0 147 52 157 120c9 68 -45 120 -124 120s-147 -52 -156 -120c-10 -68 44 -120 123 -120z" />
    <glyph glyph-name="adieresis.ss01" horiz-adv-x="519" 
d="M203 593c-23 0 -38 17 -35 40s24 40 47 40c22 0 37 -17 34 -40s-23 -40 -46 -40zM404 593c-23 0 -38 17 -35 40s24 40 47 40c22 0 37 -17 34 -40s-23 -40 -46 -40zM292 522c113 0 180 -75 164 -187l-47 -335h-55l8 57c-41 -43 -100 -69 -163 -69c-108 0 -179 74 -165 172
c13 98 106 172 214 172c61 0 112 -25 141 -66l9 68c12 81 -33 135 -114 135c-73 0 -129 -42 -147 -105h-59c26 94 109 158 214 158zM217 40c78 0 147 52 157 120c9 68 -45 120 -124 120s-147 -52 -156 -120c-10 -68 44 -120 123 -120z" />
    <glyph glyph-name="uni1EA1.ss01" horiz-adv-x="519" 
d="M292 522c113 0 180 -75 164 -187l-47 -335h-55l8 57c-41 -43 -100 -69 -163 -69c-108 0 -179 74 -165 172c13 98 106 172 214 172c61 0 112 -25 141 -66l9 68c12 81 -33 135 -114 135c-73 0 -129 -42 -147 -105h-59c26 94 109 158 214 158zM217 40c78 0 147 52 157 120
c9 68 -45 120 -124 120s-147 -52 -156 -120c-10 -68 44 -120 123 -120zM208 -83c24 0 40 -18 36 -41c-3 -24 -24 -42 -48 -42c-23 0 -38 18 -36 42c4 23 25 41 48 41z" />
    <glyph glyph-name="agrave.ss01" horiz-adv-x="519" 
d="M341 583h-63l-103 122h77zM292 522c113 0 180 -75 164 -187l-47 -335h-55l8 57c-41 -43 -100 -69 -163 -69c-108 0 -179 74 -165 172c13 98 106 172 214 172c61 0 112 -25 141 -66l9 68c12 81 -33 135 -114 135c-73 0 -129 -42 -147 -105h-59c26 94 109 158 214 158z
M217 40c78 0 147 52 157 120c9 68 -45 120 -124 120s-147 -52 -156 -120c-10 -68 44 -120 123 -120z" />
    <glyph glyph-name="uni0203.ss01" horiz-adv-x="519" 
d="M312 656c-45 0 -83 -34 -90 -80h-47c10 70 72 123 143 123s118 -53 108 -123h-47c7 46 -23 80 -67 80zM292 522c113 0 180 -75 164 -187l-47 -335h-55l8 57c-41 -43 -100 -69 -163 -69c-108 0 -179 74 -165 172c13 98 106 172 214 172c61 0 112 -25 141 -66l9 68
c12 81 -33 135 -114 135c-73 0 -129 -42 -147 -105h-59c26 94 109 158 214 158zM217 40c78 0 147 52 157 120c9 68 -45 120 -124 120s-147 -52 -156 -120c-10 -68 44 -120 123 -120z" />
    <glyph glyph-name="amacron.ss01" horiz-adv-x="519" 
d="M421 651l-7 -50h-220l7 50h220zM292 522c113 0 180 -75 164 -187l-47 -335h-55l8 57c-41 -43 -100 -69 -163 -69c-108 0 -179 74 -165 172c13 98 106 172 214 172c61 0 112 -25 141 -66l9 68c12 81 -33 135 -114 135c-73 0 -129 -42 -147 -105h-59c26 94 109 158 214 158
zM217 40c78 0 147 52 157 120c9 68 -45 120 -124 120s-147 -52 -156 -120c-10 -68 44 -120 123 -120z" />
    <glyph glyph-name="aogonek.ss01" horiz-adv-x="519" 
d="M292 522c113 0 180 -75 164 -187l-47 -335h-1c-70 -30 -115 -70 -121 -112c-5 -34 18 -57 50 -57c22 0 47 9 66 23l-7 -46c-21 -13 -49 -21 -76 -21c-54 0 -90 39 -83 90c9 52 56 97 120 123h-3l8 57c-41 -43 -100 -69 -163 -69c-108 0 -179 74 -165 172
c13 98 106 172 214 172c61 0 112 -25 141 -66l9 68c12 81 -33 135 -114 135c-73 0 -129 -42 -147 -105h-59c26 94 109 158 214 158zM217 40c78 0 147 52 157 120c9 68 -45 120 -124 120s-147 -52 -156 -120c-10 -68 44 -120 123 -120z" />
    <glyph glyph-name="aring.ss01" horiz-adv-x="519" 
d="M299 569c-43 0 -72 33 -66 76c6 44 44 77 88 77s73 -33 67 -77c-7 -43 -45 -76 -89 -76zM267 645c-3 -25 13 -43 37 -43s45 18 49 43c3 25 -13 44 -37 44s-45 -19 -49 -44zM292 522c113 0 180 -75 164 -187l-47 -335h-55l8 57c-41 -43 -100 -69 -163 -69
c-108 0 -179 74 -165 172c13 98 106 172 214 172c61 0 112 -25 141 -66l9 68c12 81 -33 135 -114 135c-73 0 -129 -42 -147 -105h-59c26 94 109 158 214 158zM217 40c78 0 147 52 157 120c9 68 -45 120 -124 120s-147 -52 -156 -120c-10 -68 44 -120 123 -120z" />
    <glyph glyph-name="atilde.ss01" horiz-adv-x="519" 
d="M247 653c-32 0 -59 -25 -63 -57h-44c8 59 51 104 108 104c63 0 74 -62 125 -62c31 0 59 24 63 57h43c-7 -60 -50 -104 -107 -104c-64 0 -74 62 -125 62zM292 522c113 0 180 -75 164 -187l-47 -335h-55l8 57c-41 -43 -100 -69 -163 -69c-108 0 -179 74 -165 172
c13 98 106 172 214 172c61 0 112 -25 141 -66l9 68c12 81 -33 135 -114 135c-73 0 -129 -42 -147 -105h-59c26 94 109 158 214 158zM217 40c78 0 147 52 157 120c9 68 -45 120 -124 120s-147 -52 -156 -120c-10 -68 44 -120 123 -120z" />
    <glyph glyph-name="k.ss02" horiz-adv-x="523" 
d="M529 510l-269 -244l204 -266h-77l-175 223l-91 -82l-20 -141h-58l101 720h58l-70 -501l321 291h76z" />
    <glyph glyph-name="uni0137.ss02" horiz-adv-x="523" 
d="M529 510l-269 -244l204 -266h-77l-175 223l-91 -82l-20 -141h-58l101 720h58l-70 -501l321 291h76zM157 -216l51 144h62l-65 -144h-48z" />
    <glyph glyph-name="f.ss06" unicode="&#xe01a;" horiz-adv-x="364" 
d="M386 669c-82 0 -137 -32 -148 -118l-6 -41h132l-7 -53h-132l-66 -469c-20 -134 -136 -236 -271 -236l8 57c102 0 190 77 205 179l65 469h-99l7 53h100l6 44c17 121 92 169 214 169z" />
    <glyph glyph-name="h.ss06" unicode="&#xe01b;" horiz-adv-x="622" 
d="M511 -12c-14 -102 52 -179 155 -179l-8 -57c-135 0 -224 102 -205 236l43 304c15 105 -44 174 -148 174c-109 0 -191 -71 -206 -177l-41 -289h-58l101 720h58l-44 -312c48 72 124 114 215 114c128 0 201 -84 183 -213z" />
    <glyph glyph-name="k.ss06" unicode="&#xe01c;" horiz-adv-x="502" 
d="M469 -24c112 -105 173 -134 282 -134l-7 -57c-133 0 -215 46 -353 191l-257 256l-33 -232h-58l101 720h58l-60 -437l291 227h77l-317 -253z" />
    <glyph glyph-name="l.ss06" unicode="&#xe01d;" horiz-adv-x="217" 
d="M246 -248c-135 0 -223 102 -204 236l102 732h58l-102 -732c-15 -102 52 -179 155 -179z" />
    <glyph glyph-name="m.ss06" unicode="&#xe01e;" horiz-adv-x="953" 
d="M843 -12c-15 -102 52 -179 154 -179l-8 -57c-135 0 -223 102 -204 236l45 324c13 93 -38 154 -131 154c-91 0 -162 -56 -181 -142l-45 -324h-58l44 312c12 93 -39 154 -131 154c-96 0 -170 -62 -183 -156l-44 -310h-58l72 510h58l-12 -87c44 63 111 99 192 99
c88 0 148 -44 164 -117c43 74 117 117 207 117c117 0 183 -77 166 -194z" />
    <glyph glyph-name="n.ss06" unicode="&#xe01f;" horiz-adv-x="622" 
d="M511 -12c-14 -102 52 -179 155 -179l-8 -57c-135 0 -224 102 -205 236l43 304c15 105 -44 174 -148 174c-109 0 -191 -72 -206 -179l-41 -287h-58l72 510h58l-14 -101c47 71 124 113 214 113c128 0 201 -84 183 -213z" />
    <glyph glyph-name="u.ss07" unicode="&#xe020;" horiz-adv-x="604" 
d="M503 510h58l-72 -510h-58l13 95c-45 -68 -118 -107 -204 -107c-123 0 -193 81 -175 205l62 442c12 88 -43 151 -129 151c-85 0 -157 -63 -169 -151h-59c17 119 118 208 236 208s195 -89 179 -208l-61 -426c-13 -99 42 -165 141 -165c100 0 177 63 194 157z" />
    <glyph glyph-name="i.ss08" unicode="&#xe021;" horiz-adv-x="217" 
d="M157 600c-44 0 -73 33 -67 77c7 45 44 78 89 78c44 0 73 -33 66 -78c-6 -44 -44 -77 -88 -77zM43 0l72 510h58l-72 -510h-58z" />
    <glyph glyph-name="j.ss08" unicode="&#xe022;" horiz-adv-x="223" 
d="M163 600c-44 0 -73 33 -66 77c6 45 44 78 88 78s73 -33 66 -78c-6 -44 -44 -77 -88 -77zM-83 -202l7 54c65 0 110 32 119 103l79 555h58l-79 -558c-14 -105 -82 -154 -184 -154z" />
    <glyph glyph-name="t.ss09" horiz-adv-x="372" 
d="M374 510l-7 -53h-126l-64 -457h-58l64 457h-118l7 53h119l21 150h58l-21 -150h125z" />
    <glyph glyph-name="tbar.ss09" horiz-adv-x="372" 
d="M367 457h-126l-26 -190h114l-6 -44h-115l-31 -223h-58l31 223h-107l6 44h108l26 190h-118l7 53h119l21 150h58l-21 -150h125z" />
    <glyph glyph-name="tcaron.ss09" horiz-adv-x="372" 
d="M428 758l-58 -187h-45l47 187h56zM270 660l-21 -150h125l-7 -53h-126l-64 -457h-58l64 457h-118l7 53h119l21 150h58z" />
    <glyph glyph-name="uni0163.ss09" horiz-adv-x="372" 
d="M177 0h-7l-34 -37c4 1 9 1 13 1c49 0 81 -39 73 -89c-7 -50 -53 -90 -106 -90s-88 40 -81 90h39c-5 -31 17 -55 47 -55c31 0 58 24 63 55c5 32 -17 55 -47 55c-14 0 -30 -7 -40 -15l-32 16l62 69h-8l64 457h-118l7 53h119l21 150h58l-21 -150h125l-7 -53h-126z" />
    <glyph glyph-name="uni021B.ss09" horiz-adv-x="372" 
d="M374 510l-7 -53h-126l-64 -457h-58l64 457h-118l7 53h119l21 150h58l-21 -150h125zM66 -216l51 144h62l-65 -144h-48z" />
    <glyph glyph-name="uni1E6D.ss09" horiz-adv-x="372" 
d="M374 510l-7 -53h-126l-64 -457h-58l64 457h-118l7 53h119l21 150h58l-21 -150h125zM136 -83c24 0 40 -18 36 -41c-3 -24 -24 -42 -48 -42c-23 0 -38 18 -36 42c4 23 25 41 48 41z" />
    <glyph glyph-name="f_t.dlig" horiz-adv-x="691" 
d="M693 510l-8 -53h-125l-64 -457h-58l64 457h-277l-65 -457h-58l64 457h-99l7 53h100l6 44c17 121 92 169 214 169l-8 -54c-82 0 -137 -32 -148 -118l-6 -41h278l19 139l60 11l-21 -150h125z" />
    <glyph glyph-name="t_t.dlig" horiz-adv-x="687" 
d="M689 510l-8 -53h-125l-64 -457h-58l64 457h-257l-64 -457h-58l65 457h-119l7 53h119l20 139l59 11l-21 -150h257l19 139l60 11l-21 -150h125z" />
    <glyph glyph-name="ordfeminine" unicode="&#xaa;" horiz-adv-x="397" 
d="M362 691h45l-38 -272h-45l8 55c-29 -38 -73 -63 -120 -63c-79 0 -130 62 -119 144c12 82 80 144 159 144c47 0 84 -25 102 -63zM227 452c58 0 108 44 116 102v4c8 57 -31 100 -88 100s-107 -44 -116 -103c-8 -59 30 -103 88 -103z" />
    <glyph glyph-name="ordmasculine" unicode="&#xba;" horiz-adv-x="398" 
d="M221 411c-84 0 -139 62 -128 144c12 82 84 144 168 144s140 -62 128 -144c-11 -82 -84 -144 -168 -144zM227 452c58 0 109 44 116 103c9 59 -30 103 -88 103c-57 0 -107 -44 -116 -103c-8 -59 30 -103 88 -103z" />
    <glyph glyph-name="zero" unicode="0" horiz-adv-x="649" 
d="M286 -12c-154 0 -241 146 -211 357c29 211 158 357 312 357c155 0 242 -146 213 -357c-30 -211 -159 -357 -314 -357zM296 48c116 0 215 122 240 297c24 175 -41 297 -157 297s-216 -122 -240 -297c-25 -175 41 -297 157 -297z" />
    <glyph glyph-name="one" unicode="1" horiz-adv-x="358" 
d="M281 690h43l-97 -690h-61l86 615l-176 -89l9 65z" />
    <glyph glyph-name="two" unicode="2" horiz-adv-x="528" 
d="M496 503c-10 -71 -56 -128 -116 -186l-264 -259h327l-8 -58h-416l7 49l306 298c51 50 93 102 100 156c11 79 -39 137 -116 137c-78 0 -145 -58 -156 -137h-64c16 114 114 199 228 199s187 -85 172 -199z" />
    <glyph glyph-name="three" unicode="3" horiz-adv-x="519" 
d="M486 518c-10 -73 -59 -134 -123 -161c65 -26 102 -92 91 -173c-16 -112 -117 -196 -234 -196c-118 0 -194 84 -178 196h63c-11 -78 43 -136 124 -136s150 58 161 136c12 83 -38 143 -117 143h-83l8 59h83c71 0 131 56 142 132c10 71 -37 124 -111 124
c-73 0 -135 -53 -145 -124h-64c14 105 108 184 218 184c109 0 180 -79 165 -184z" />
    <glyph glyph-name="four" unicode="4" horiz-adv-x="559" 
d="M526 227l-8 -58h-100l-24 -169h-62l24 169h-331l6 45l395 476h65l-65 -463h100zM105 227h259l53 378z" />
    <glyph glyph-name="five" unicode="5" horiz-adv-x="563" 
d="M525 632h-300l-59 -260c36 35 100 60 156 60c125 0 206 -95 189 -222c-18 -127 -129 -222 -257 -222s-210 95 -192 222h63c-13 -92 46 -162 138 -162s171 70 184 162s-46 162 -139 162c-56 0 -122 -31 -155 -73h-63l87 391h357z" />
    <glyph glyph-name="six" unicode="6" horiz-adv-x="545" 
d="M305 432c124 0 206 -96 189 -222c-18 -126 -129 -222 -257 -222s-211 96 -194 222c8 52 31 100 63 138l286 342h75l-225 -267c21 6 42 9 63 9zM430 210c13 93 -47 162 -139 162s-171 -69 -184 -162c-13 -92 47 -162 139 -162s171 70 184 162z" />
    <glyph glyph-name="seven" unicode="7" horiz-adv-x="527" 
d="M111 690h442l-6 -48l-398 -642h-70l392 632h-368z" />
    <glyph glyph-name="eight" unicode="8" horiz-adv-x="533" 
d="M500 520c-10 -73 -61 -133 -128 -162c68 -30 107 -95 96 -175c-16 -111 -119 -195 -240 -195c-120 0 -198 84 -183 195c12 80 68 145 144 174c-59 30 -92 90 -81 163c14 103 109 182 221 182c113 0 185 -79 171 -182zM435 514c11 74 -38 128 -114 128s-140 -54 -150 -128
c-11 -73 38 -129 114 -129c75 0 140 56 150 129zM405 188c11 80 -44 140 -129 140c-84 0 -155 -60 -166 -140c-12 -80 43 -140 127 -140c85 0 156 60 168 140z" />
    <glyph glyph-name="nine" unicode="9" horiz-adv-x="548" 
d="M336 702c128 0 212 -96 194 -222c-7 -52 -31 -100 -62 -138l-283 -342h-74l223 268c-22 -6 -44 -10 -65 -10c-125 0 -207 96 -189 222s129 222 256 222zM466 480c13 92 -46 162 -138 162s-172 -70 -185 -162c-13 -93 47 -162 139 -162s171 69 184 162z" />
    <glyph glyph-name="zero.subs" horiz-adv-x="396" 
d="M145 -121c-93 0 -146 88 -129 214c18 126 96 214 189 214s146 -88 128 -214c-17 -126 -95 -214 -188 -214zM151 -76c65 0 121 68 135 169s-23 169 -88 169s-120 -68 -134 -169s22 -169 87 -169z" />
    <glyph glyph-name="one.subs" horiz-adv-x="217" 
d="M137 300h32l-58 -414h-46l52 359l-104 -53l7 49z" />
    <glyph glyph-name="two.subs" horiz-adv-x="330" 
d="M280 184c-7 -48 -40 -83 -69 -111l-155 -145h193l-6 -42h-260l5 35l186 174c27 26 54 55 59 89c6 46 -23 80 -68 80s-84 -35 -90 -80h-47c10 70 72 123 144 123c71 0 118 -53 108 -123z" />
    <glyph glyph-name="three.subs" horiz-adv-x="324" 
d="M274 195c-6 -43 -32 -77 -69 -94c38 -19 57 -56 50 -101c-9 -67 -72 -121 -147 -121c-73 0 -122 52 -112 122h47c-7 -45 24 -79 72 -79c47 0 88 34 94 79c7 47 -23 81 -68 81h-55l5 36h55c40 0 75 33 81 75c7 41 -22 72 -64 72c-43 0 -79 -31 -85 -72h-48
c10 65 69 114 138 114c70 0 115 -51 106 -112z" />
    <glyph glyph-name="four.subs" horiz-adv-x="349" 
d="M297 25l-6 -42h-59l-14 -97h-46l14 97h-200l5 34l231 283h54l-39 -275h60zM43 25h149l31 222z" />
    <glyph glyph-name="five.subs" horiz-adv-x="347" 
d="M293 258h-181l-33 -145c22 19 59 32 90 32c77 0 126 -57 116 -132c-11 -77 -79 -134 -158 -134c-78 0 -130 57 -119 133h47c-8 -52 26 -91 78 -91s98 39 106 92c7 52 -27 92 -80 92c-32 0 -70 -18 -89 -41h-46l53 236h221z" />
    <glyph glyph-name="six.subs" horiz-adv-x="338" 
d="M160 147c76 0 126 -58 116 -133c-12 -76 -79 -135 -158 -135s-131 59 -119 135c4 31 18 60 37 83l169 203h54l-130 -157c10 3 21 4 31 4zM229 14c7 51 -27 92 -79 92s-97 -40 -104 -92c-8 -52 26 -91 78 -91s97 39 105 91z" />
    <glyph glyph-name="seven.subs" horiz-adv-x="323" 
d="M39 300h268l-4 -35l-234 -379h-52l229 371h-213z" />
    <glyph glyph-name="eight.subs" horiz-adv-x="329" 
d="M279 196c-5 -42 -34 -77 -74 -96c39 -19 61 -57 55 -103c-9 -67 -73 -118 -148 -118s-124 51 -115 118c7 46 40 84 84 103c-34 18 -53 54 -48 96c9 63 69 111 139 111s117 -48 107 -111zM232 190c6 42 -23 72 -66 72s-80 -30 -86 -72c-6 -41 23 -73 65 -73
c44 0 82 32 87 73zM213 2c7 45 -26 79 -73 79s-88 -34 -94 -79c-7 -44 24 -78 72 -78s89 33 95 78z" />
    <glyph glyph-name="nine.subs" horiz-adv-x="338" 
d="M177 307c78 0 130 -59 120 -135c-4 -30 -19 -59 -38 -83l-168 -203h-55l130 157c-10 -3 -20 -4 -31 -4c-75 0 -126 57 -115 133c10 76 78 135 157 135zM250 172c7 52 -27 92 -79 92s-97 -40 -104 -92c-7 -51 26 -92 79 -92c52 0 97 40 104 92z" />
    <glyph glyph-name="zero.dnom" horiz-adv-x="396" 
d="M161 -7c-93 0 -146 88 -129 214c18 126 96 214 189 214s146 -88 128 -214c-17 -126 -95 -214 -188 -214zM167 38c65 0 121 68 135 169s-23 169 -88 169s-120 -68 -134 -169s22 -169 87 -169z" />
    <glyph glyph-name="one.dnom" horiz-adv-x="217" 
d="M153 414h32l-58 -414h-46l52 359l-104 -53l7 49z" />
    <glyph glyph-name="two.dnom" horiz-adv-x="330" 
d="M296 298c-7 -48 -40 -83 -69 -111l-155 -145h193l-6 -42h-260l5 35l186 174c27 26 54 55 59 89c6 46 -23 80 -68 80s-84 -35 -90 -80h-47c10 70 72 123 144 123c71 0 118 -53 108 -123z" />
    <glyph glyph-name="three.dnom" horiz-adv-x="324" 
d="M290 309c-6 -43 -32 -77 -69 -94c38 -19 57 -56 50 -101c-9 -67 -72 -121 -147 -121c-73 0 -122 52 -112 122h47c-7 -45 24 -79 72 -79c47 0 88 34 94 79c7 47 -23 81 -68 81h-55l5 36h55c40 0 75 33 81 75c7 41 -22 72 -64 72c-43 0 -79 -31 -85 -72h-48
c10 65 69 114 138 114c70 0 115 -51 106 -112z" />
    <glyph glyph-name="four.dnom" horiz-adv-x="349" 
d="M313 139l-6 -42h-59l-14 -97h-46l14 97h-200l5 34l231 283h54l-39 -275h60zM59 139h149l31 222z" />
    <glyph glyph-name="five.dnom" horiz-adv-x="347" 
d="M309 372h-181l-33 -145c22 19 59 32 90 32c77 0 126 -57 116 -132c-11 -77 -79 -134 -158 -134c-78 0 -130 57 -119 133h47c-8 -52 26 -91 78 -91s98 39 106 92c7 52 -27 92 -80 92c-32 0 -70 -18 -89 -41h-46l53 236h221z" />
    <glyph glyph-name="six.dnom" horiz-adv-x="338" 
d="M176 261c76 0 126 -58 116 -133c-12 -76 -79 -135 -158 -135s-131 59 -119 135c4 31 18 60 37 83l169 203h54l-130 -157c10 3 21 4 31 4zM245 128c7 51 -27 92 -79 92s-97 -40 -104 -92c-8 -52 26 -91 78 -91s97 39 105 91z" />
    <glyph glyph-name="seven.dnom" horiz-adv-x="323" 
d="M55 414h268l-4 -35l-234 -379h-52l229 371h-213z" />
    <glyph glyph-name="eight.dnom" horiz-adv-x="329" 
d="M295 310c-5 -42 -34 -77 -74 -96c39 -19 61 -57 55 -103c-9 -67 -73 -118 -148 -118s-124 51 -115 118c7 46 40 84 84 103c-34 18 -53 54 -48 96c9 63 69 111 139 111s117 -48 107 -111zM248 304c6 42 -23 72 -66 72s-80 -30 -86 -72c-6 -41 23 -73 65 -73
c44 0 82 32 87 73zM229 116c7 45 -26 79 -73 79s-88 -34 -94 -79c-7 -44 24 -78 72 -78s89 33 95 78z" />
    <glyph glyph-name="nine.dnom" horiz-adv-x="338" 
d="M193 421c78 0 130 -59 120 -135c-4 -30 -19 -59 -38 -83l-168 -203h-55l130 157c-10 -3 -20 -4 -31 -4c-75 0 -126 57 -115 133c10 76 78 135 157 135zM266 286c7 52 -27 92 -79 92s-97 -40 -104 -92c-7 -51 26 -92 79 -92c52 0 97 40 104 92z" />
    <glyph glyph-name="zero.numr" horiz-adv-x="396" 
d="M200 269c-93 0 -146 88 -129 214c18 126 96 214 189 214s146 -88 128 -214c-17 -126 -95 -214 -188 -214zM206 314c65 0 121 68 135 169s-23 169 -88 169s-120 -68 -134 -169s22 -169 87 -169z" />
    <glyph glyph-name="one.numr" horiz-adv-x="217" 
d="M192 690h32l-58 -414h-46l52 359l-104 -53l7 49z" />
    <glyph glyph-name="two.numr" horiz-adv-x="330" 
d="M335 574c-7 -48 -40 -83 -69 -111l-155 -145h193l-6 -42h-260l5 35l186 174c27 26 54 55 59 89c6 46 -23 80 -68 80s-84 -35 -90 -80h-47c10 70 72 123 144 123c71 0 118 -53 108 -123z" />
    <glyph glyph-name="three.numr" horiz-adv-x="324" 
d="M329 585c-6 -43 -32 -77 -69 -94c38 -19 57 -56 50 -101c-9 -67 -72 -121 -147 -121c-73 0 -122 52 -112 122h47c-7 -45 24 -79 72 -79c47 0 88 34 94 79c7 47 -23 81 -68 81h-55l5 36h55c40 0 75 33 81 75c7 41 -22 72 -64 72c-43 0 -79 -31 -85 -72h-48
c10 65 69 114 138 114c70 0 115 -51 106 -112z" />
    <glyph glyph-name="four.numr" horiz-adv-x="349" 
d="M352 415l-6 -42h-59l-14 -97h-46l14 97h-200l5 34l231 283h54l-39 -275h60zM98 415h149l31 222z" />
    <glyph glyph-name="five.numr" horiz-adv-x="347" 
d="M348 648h-181l-33 -145c22 19 59 32 90 32c77 0 126 -57 116 -132c-11 -77 -79 -134 -158 -134c-78 0 -130 57 -119 133h47c-8 -52 26 -91 78 -91s98 39 106 92c7 52 -27 92 -80 92c-32 0 -70 -18 -89 -41h-46l53 236h221z" />
    <glyph glyph-name="six.numr" horiz-adv-x="338" 
d="M215 537c76 0 126 -58 116 -133c-12 -76 -79 -135 -158 -135s-131 59 -119 135c4 31 18 60 37 83l169 203h54l-130 -157c10 3 21 4 31 4zM284 404c7 51 -27 92 -79 92s-97 -40 -104 -92c-8 -52 26 -91 78 -91s97 39 105 91z" />
    <glyph glyph-name="seven.numr" horiz-adv-x="323" 
d="M94 690h268l-4 -35l-234 -379h-52l229 371h-213z" />
    <glyph glyph-name="eight.numr" horiz-adv-x="329" 
d="M334 586c-5 -42 -34 -77 -74 -96c39 -19 61 -57 55 -103c-9 -67 -73 -118 -148 -118s-124 51 -115 118c7 46 40 84 84 103c-34 18 -53 54 -48 96c9 63 69 111 139 111s117 -48 107 -111zM287 580c6 42 -23 72 -66 72s-80 -30 -86 -72c-6 -41 23 -73 65 -73
c44 0 82 32 87 73zM268 392c7 45 -26 79 -73 79s-88 -34 -94 -79c-7 -44 24 -78 72 -78s89 33 95 78z" />
    <glyph glyph-name="nine.numr" horiz-adv-x="338" 
d="M232 697c78 0 130 -59 120 -135c-4 -30 -19 -59 -38 -83l-168 -203h-55l130 157c-10 -3 -20 -4 -31 -4c-75 0 -126 57 -115 133c10 76 78 135 157 135zM305 562c7 52 -27 92 -79 92s-97 -40 -104 -92c-7 -51 26 -92 79 -92c52 0 97 40 104 92z" />
    <glyph glyph-name="uni2070" unicode="&#x2070;" horiz-adv-x="396" 
d="M212 359c-93 0 -146 88 -129 214c18 126 96 214 189 214s146 -88 128 -214c-17 -126 -95 -214 -188 -214zM218 404c65 0 121 68 135 169s-23 169 -88 169s-120 -68 -134 -169s22 -169 87 -169z" />
    <glyph glyph-name="uni00B9" unicode="&#xb9;" horiz-adv-x="217" 
d="M204 780h32l-58 -414h-46l52 359l-104 -53l7 49z" />
    <glyph glyph-name="uni00B2" unicode="&#xb2;" horiz-adv-x="330" 
d="M347 664c-7 -48 -40 -83 -69 -111l-155 -145h193l-6 -42h-260l5 35l186 174c27 26 54 55 59 89c6 46 -23 80 -68 80s-84 -35 -90 -80h-47c10 70 72 123 144 123c71 0 118 -53 108 -123z" />
    <glyph glyph-name="uni00B3" unicode="&#xb3;" horiz-adv-x="324" 
d="M341 675c-6 -43 -32 -77 -69 -94c38 -19 57 -56 50 -101c-9 -67 -72 -121 -147 -121c-73 0 -122 52 -112 122h47c-7 -45 24 -79 72 -79c47 0 88 34 94 79c7 47 -23 81 -68 81h-55l5 36h55c40 0 75 33 81 75c7 41 -22 72 -64 72c-43 0 -79 -31 -85 -72h-48
c10 65 69 114 138 114c70 0 115 -51 106 -112z" />
    <glyph glyph-name="uni2074" unicode="&#x2074;" horiz-adv-x="349" 
d="M364 505l-6 -42h-59l-14 -97h-46l14 97h-200l5 34l231 283h54l-39 -275h60zM110 505h149l31 222z" />
    <glyph glyph-name="uni2075" unicode="&#x2075;" horiz-adv-x="347" 
d="M360 738h-181l-33 -145c22 19 59 32 90 32c77 0 126 -57 116 -132c-11 -77 -79 -134 -158 -134c-78 0 -130 57 -119 133h47c-8 -52 26 -91 78 -91s98 39 106 92c7 52 -27 92 -80 92c-32 0 -70 -18 -89 -41h-46l53 236h221z" />
    <glyph glyph-name="uni2076" unicode="&#x2076;" horiz-adv-x="338" 
d="M227 627c76 0 126 -58 116 -133c-12 -76 -79 -135 -158 -135s-131 59 -119 135c4 31 18 60 37 83l169 203h54l-130 -157c10 3 21 4 31 4zM296 494c7 51 -27 92 -79 92s-97 -40 -104 -92c-8 -52 26 -91 78 -91s97 39 105 91z" />
    <glyph glyph-name="uni2077" unicode="&#x2077;" horiz-adv-x="323" 
d="M106 780h268l-4 -35l-234 -379h-52l229 371h-213z" />
    <glyph glyph-name="uni2078" unicode="&#x2078;" horiz-adv-x="329" 
d="M346 676c-5 -42 -34 -77 -74 -96c39 -19 61 -57 55 -103c-9 -67 -73 -118 -148 -118s-124 51 -115 118c7 46 40 84 84 103c-34 18 -53 54 -48 96c9 63 69 111 139 111s117 -48 107 -111zM299 670c6 42 -23 72 -66 72s-80 -30 -86 -72c-6 -41 23 -73 65 -73
c44 0 82 32 87 73zM280 482c7 45 -26 79 -73 79s-88 -34 -94 -79c-7 -44 24 -78 72 -78s89 33 95 78z" />
    <glyph glyph-name="uni2079" unicode="&#x2079;" horiz-adv-x="338" 
d="M244 787c78 0 130 -59 120 -135c-4 -30 -19 -59 -38 -83l-168 -203h-55l130 157c-10 -3 -20 -4 -31 -4c-75 0 -126 57 -115 133c10 76 78 135 157 135zM317 652c7 52 -27 92 -79 92s-97 -40 -104 -92c-7 -51 26 -92 79 -92c52 0 97 40 104 92z" />
    <glyph glyph-name="fraction" unicode="&#x2044;" horiz-adv-x="173" 
d="M-223 0l587 690h56l-586 -690h-57z" />
    <glyph glyph-name="uni215F" unicode="&#x215f;" horiz-adv-x="440" 
d="M631 690h56l-586 -690h-57zM120 276l52 359l-104 -53l7 49l117 59h32l-58 -414h-46z" />
    <glyph glyph-name="onehalf" unicode="&#xbd;" horiz-adv-x="775" 
d="M631 690h56l-586 -690h-57zM120 276l52 359l-104 -53l7 49l117 59h32l-58 -414h-46zM741 298c-7 -48 -40 -83 -69 -111l-155 -145h193l-6 -42h-260l5 35l186 174c27 26 54 55 59 89c6 46 -23 80 -68 80s-84 -35 -90 -80h-47c10 70 72 123 144 123c71 0 118 -53 108 -123z
" />
    <glyph glyph-name="uni2189" unicode="&#x2189;" horiz-adv-x="894" 
d="M388 483c-17 -126 -95 -214 -188 -214s-146 88 -129 214c18 126 96 214 189 214s146 -88 128 -214zM757 690h56l-586 -690h-57zM119 483c-14 -101 22 -169 87 -169s121 68 135 169s-23 169 -88 169s-120 -68 -134 -169zM861 309c-6 -43 -32 -77 -69 -94
c38 -19 57 -56 50 -101c-9 -67 -72 -121 -147 -121c-73 0 -122 52 -112 122h47c-7 -45 24 -79 72 -79c47 0 88 34 94 79c7 47 -23 81 -68 81h-55l5 36h55c40 0 75 33 81 75c7 41 -22 72 -64 72c-43 0 -79 -31 -85 -72h-48c10 65 69 114 138 114c70 0 115 -51 106 -112z" />
    <glyph glyph-name="uni2153" unicode="&#x2153;" horiz-adv-x="768" 
d="M631 690h56l-586 -690h-57zM120 276l52 359l-104 -53l7 49l117 59h32l-58 -414h-46zM735 309c-6 -43 -32 -77 -69 -94c38 -19 57 -56 50 -101c-9 -67 -72 -121 -147 -121c-73 0 -122 52 -112 122h47c-7 -45 24 -79 72 -79c47 0 88 34 94 79c7 47 -23 81 -68 81h-55l5 36
h55c40 0 75 33 81 75c7 41 -22 72 -64 72c-43 0 -79 -31 -85 -72h-48c10 65 69 114 138 114c70 0 115 -51 106 -112z" />
    <glyph glyph-name="uni2154" unicode="&#x2154;" horiz-adv-x="871" 
d="M304 318l-6 -42h-260l5 35l186 174c27 26 54 55 59 89c6 46 -23 80 -68 80s-84 -35 -90 -80h-47c10 70 72 123 144 123c71 0 118 -53 108 -123c-7 -48 -40 -83 -69 -111l-155 -145h193zM734 690h56l-586 -690h-57zM838 309c-6 -43 -32 -77 -69 -94c38 -19 57 -56 50 -101
c-9 -67 -72 -121 -147 -121c-73 0 -122 52 -112 122h47c-7 -45 24 -79 72 -79c47 0 88 34 94 79c7 47 -23 81 -68 81h-55l5 36h55c40 0 75 33 81 75c7 41 -22 72 -64 72c-43 0 -79 -31 -85 -72h-48c10 65 69 114 138 114c70 0 115 -51 106 -112z" />
    <glyph glyph-name="onequarter" unicode="&#xbc;" horiz-adv-x="728" 
d="M631 690h56l-586 -690h-57zM120 276l52 359l-104 -53l7 49l117 59h32l-58 -414h-46zM693 139l-6 -42h-59l-14 -97h-46l14 97h-200l5 34l231 283h54l-39 -275h60zM439 139h149l31 222z" />
    <glyph glyph-name="threequarters" unicode="&#xbe;" horiz-adv-x="795" 
d="M310 390c-9 -67 -72 -121 -147 -121c-73 0 -122 52 -112 122h47c-7 -45 24 -79 72 -79c47 0 88 34 94 79c7 47 -23 81 -68 81h-55l5 36h55c40 0 75 33 81 75c7 41 -22 72 -64 72c-43 0 -79 -31 -85 -72h-48c10 65 69 114 138 114c70 0 115 -51 106 -112
c-6 -43 -32 -77 -69 -94c38 -19 57 -56 50 -101zM698 690h56l-586 -690h-57zM760 139l-6 -42h-59l-14 -97h-46l14 97h-200l5 34l231 283h54l-39 -275h60zM506 139h149l31 222z" />
    <glyph glyph-name="uni2155" unicode="&#x2155;" horiz-adv-x="797" 
d="M631 690h56l-586 -690h-57zM120 276l52 359l-104 -53l7 49l117 59h32l-58 -414h-46zM760 372h-181l-33 -145c22 19 59 32 90 32c77 0 126 -57 116 -132c-11 -77 -79 -134 -158 -134c-78 0 -130 57 -119 133h47c-8 -52 26 -91 78 -91s98 39 106 92c7 52 -27 92 -80 92
c-32 0 -70 -18 -89 -41h-46l53 236h221z" />
    <glyph glyph-name="uni2156" unicode="&#x2156;" horiz-adv-x="900" 
d="M304 318l-6 -42h-260l5 35l186 174c27 26 54 55 59 89c6 46 -23 80 -68 80s-84 -35 -90 -80h-47c10 70 72 123 144 123c71 0 118 -53 108 -123c-7 -48 -40 -83 -69 -111l-155 -145h193zM734 690h56l-586 -690h-57zM863 372h-181l-33 -145c22 19 59 32 90 32
c77 0 126 -57 116 -132c-11 -77 -79 -134 -158 -134c-78 0 -130 57 -119 133h47c-8 -52 26 -91 78 -91s98 39 106 92c7 52 -27 92 -80 92c-32 0 -70 -18 -89 -41h-46l53 236h221z" />
    <glyph glyph-name="uni2157" unicode="&#x2157;" horiz-adv-x="864" 
d="M310 390c-9 -67 -72 -121 -147 -121c-73 0 -122 52 -112 122h47c-7 -45 24 -79 72 -79c47 0 88 34 94 79c7 47 -23 81 -68 81h-55l5 36h55c40 0 75 33 81 75c7 41 -22 72 -64 72c-43 0 -79 -31 -85 -72h-48c10 65 69 114 138 114c70 0 115 -51 106 -112
c-6 -43 -32 -77 -69 -94c38 -19 57 -56 50 -101zM698 690h56l-586 -690h-57zM827 372h-181l-33 -145c22 19 59 32 90 32c77 0 126 -57 116 -132c-11 -77 -79 -134 -158 -134c-78 0 -130 57 -119 133h47c-8 -52 26 -91 78 -91s98 39 106 92c7 52 -27 92 -80 92
c-32 0 -70 -18 -89 -41h-46l53 236h221z" />
    <glyph glyph-name="uni2158" unicode="&#x2158;" horiz-adv-x="884" 
d="M227 276l14 97h-200l5 34l231 283h54l-39 -275h60l-6 -42h-59l-14 -97h-46zM718 690h56l-586 -690h-57zM98 415h149l31 222zM847 372h-181l-33 -145c22 19 59 32 90 32c77 0 126 -57 116 -132c-11 -77 -79 -134 -158 -134c-78 0 -130 57 -119 133h47
c-8 -52 26 -91 78 -91s98 39 106 92c7 52 -27 92 -80 92c-32 0 -70 -18 -89 -41h-46l53 236h221z" />
    <glyph glyph-name="uni2159" unicode="&#x2159;" horiz-adv-x="732" 
d="M631 690h56l-586 -690h-57zM120 276l52 359l-104 -53l7 49l117 59h32l-58 -414h-46zM571 261c76 0 126 -58 116 -133c-12 -76 -79 -135 -158 -135s-131 59 -119 135c4 31 18 60 37 83l169 203h54l-130 -157c10 3 21 4 31 4zM640 128c7 51 -27 92 -79 92s-97 -40 -104 -92
c-8 -52 26 -91 78 -91s97 39 105 91z" />
    <glyph glyph-name="uni215A" unicode="&#x215a;" horiz-adv-x="812" 
d="M340 403c-11 -77 -79 -134 -158 -134c-78 0 -130 57 -119 133h47c-8 -52 26 -91 78 -91s98 39 106 92c7 52 -27 92 -80 92c-32 0 -70 -18 -89 -41h-46l53 236h221l-5 -42h-181l-33 -145c22 19 59 32 90 32c77 0 126 -57 116 -132zM711 690h56l-586 -690h-57zM651 261
c76 0 126 -58 116 -133c-12 -76 -79 -135 -158 -135s-131 59 -119 135c4 31 18 60 37 83l169 203h54l-130 -157c10 3 21 4 31 4zM720 128c7 51 -27 92 -79 92s-97 -40 -104 -92c-8 -52 26 -91 78 -91s97 39 105 91z" />
    <glyph glyph-name="uni2150" unicode="&#x2150;" horiz-adv-x="820" 
d="M631 690h56l-586 -690h-57zM120 276l52 359l-104 -53l7 49l117 59h32l-58 -414h-46zM552 414h268l-4 -35l-234 -379h-52l229 371h-213z" />
    <glyph glyph-name="oneeighth" unicode="&#x215b;" horiz-adv-x="773" 
d="M631 690h56l-586 -690h-57zM120 276l52 359l-104 -53l7 49l117 59h32l-58 -414h-46zM740 310c-5 -42 -34 -77 -74 -96c39 -19 61 -57 55 -103c-9 -67 -73 -118 -148 -118s-124 51 -115 118c7 46 40 84 84 103c-34 18 -53 54 -48 96c9 63 69 111 139 111s117 -48 107 -111
zM693 304c6 42 -23 72 -66 72s-80 -30 -86 -72c-6 -41 23 -73 65 -73c44 0 82 32 87 73zM674 116c7 45 -26 79 -73 79s-88 -34 -94 -79c-7 -44 24 -78 72 -78s89 33 95 78z" />
    <glyph glyph-name="threeeighths" unicode="&#x215c;" horiz-adv-x="840" 
d="M310 390c-9 -67 -72 -121 -147 -121c-73 0 -122 52 -112 122h47c-7 -45 24 -79 72 -79c47 0 88 34 94 79c7 47 -23 81 -68 81h-55l5 36h55c40 0 75 33 81 75c7 41 -22 72 -64 72c-43 0 -79 -31 -85 -72h-48c10 65 69 114 138 114c70 0 115 -51 106 -112
c-6 -43 -32 -77 -69 -94c38 -19 57 -56 50 -101zM698 690h56l-586 -690h-57zM807 310c-5 -42 -34 -77 -74 -96c39 -19 61 -57 55 -103c-9 -67 -73 -118 -148 -118s-124 51 -115 118c7 46 40 84 84 103c-34 18 -53 54 -48 96c9 63 69 111 139 111s117 -48 107 -111zM760 304
c6 42 -23 72 -66 72s-80 -30 -86 -72c-6 -41 23 -73 65 -73c44 0 82 32 87 73zM741 116c7 45 -26 79 -73 79s-88 -34 -94 -79c-7 -44 24 -78 72 -78s89 33 95 78z" />
    <glyph glyph-name="fiveeighths" unicode="&#x215d;" horiz-adv-x="853" 
d="M340 403c-11 -77 -79 -134 -158 -134c-78 0 -130 57 -119 133h47c-8 -52 26 -91 78 -91s98 39 106 92c7 52 -27 92 -80 92c-32 0 -70 -18 -89 -41h-46l53 236h221l-5 -42h-181l-33 -145c22 19 59 32 90 32c77 0 126 -57 116 -132zM711 690h56l-586 -690h-57zM820 310
c-5 -42 -34 -77 -74 -96c39 -19 61 -57 55 -103c-9 -67 -73 -118 -148 -118s-124 51 -115 118c7 46 40 84 84 103c-34 18 -53 54 -48 96c9 63 69 111 139 111s117 -48 107 -111zM773 304c6 42 -23 72 -66 72s-80 -30 -86 -72c-6 -41 23 -73 65 -73c44 0 82 32 87 73z
M754 116c7 45 -26 79 -73 79s-88 -34 -94 -79c-7 -44 24 -78 72 -78s89 33 95 78z" />
    <glyph glyph-name="seveneighths" unicode="&#x215e;" horiz-adv-x="779" 
d="M637 690h56l-586 -690h-57zM124 276h-52l229 371h-213l6 43h268l-4 -35zM746 310c-5 -42 -34 -77 -74 -96c39 -19 61 -57 55 -103c-9 -67 -73 -118 -148 -118s-124 51 -115 118c7 46 40 84 84 103c-34 18 -53 54 -48 96c9 63 69 111 139 111s117 -48 107 -111zM699 304
c6 42 -23 72 -66 72s-80 -30 -86 -72c-6 -41 23 -73 65 -73c44 0 82 32 87 73zM680 116c7 45 -26 79 -73 79s-88 -34 -94 -79c-7 -44 24 -78 72 -78s89 33 95 78z" />
    <glyph glyph-name="uni2151" unicode="&#x2151;" horiz-adv-x="778" 
d="M631 690h56l-586 -690h-57zM120 276l52 359l-104 -53l7 49l117 59h32l-58 -414h-46zM633 421c78 0 130 -59 120 -135c-4 -30 -19 -59 -38 -83l-168 -203h-55l130 157c-10 -3 -20 -4 -31 -4c-75 0 -126 57 -115 133c10 76 78 135 157 135zM706 286c7 52 -27 92 -79 92
s-97 -40 -104 -92c-7 -51 26 -92 79 -92c52 0 97 40 104 92z" />
    <glyph glyph-name="uni2152" unicode="&#x2152;" horiz-adv-x="1083" 
d="M44 0l587 690h56l-586 -690h-57zM120 276l52 359l-104 -53l7 49l117 59h32l-58 -414h-46zM908 421c93 0 146 -88 128 -214c-17 -126 -95 -214 -188 -214s-146 88 -129 214c18 126 96 214 189 214zM506 355l117 59h32l-58 -414h-46l52 359l-104 -53zM989 207
c14 101 -23 169 -88 169s-120 -68 -134 -169s22 -169 87 -169s121 68 135 169z" />
    <glyph glyph-name="period" unicode="." horiz-adv-x="222" 
d="M75 -5c-28 0 -45 20 -41 47c3 27 27 47 54 47s44 -20 41 -47c-4 -27 -27 -47 -54 -47z" />
    <glyph glyph-name="comma" unicode="," horiz-adv-x="227" 
d="M-26 -145l100 229h71l-120 -229h-51z" />
    <glyph glyph-name="colon" unicode=":" horiz-adv-x="232" 
d="M132 367c-27 0 -45 20 -41 47s27 47 54 47s45 -20 41 -47s-27 -47 -54 -47zM80 -5c-28 0 -45 20 -41 47c3 27 27 47 54 47s44 -20 41 -47c-4 -27 -27 -47 -54 -47z" />
    <glyph glyph-name="semicolon" unicode=";" horiz-adv-x="244" 
d="M146 367c-27 0 -45 20 -41 47s27 47 54 47s45 -20 41 -47s-27 -47 -54 -47zM-28 -145l101 229h70l-119 -229h-52z" />
    <glyph glyph-name="ellipsis" unicode="&#x2026;" horiz-adv-x="675" 
d="M75 -5c-28 0 -45 20 -41 47c3 27 27 47 54 47s44 -20 41 -47c-4 -27 -27 -47 -54 -47zM301 -5c-27 0 -45 20 -41 47s27 47 54 47c28 0 45 -20 41 -47s-27 -47 -54 -47zM528 -5c-28 0 -45 20 -41 47c3 27 27 47 54 47s44 -20 41 -47c-4 -27 -27 -47 -54 -47z" />
    <glyph glyph-name="exclam" unicode="!" horiz-adv-x="241" 
d="M82 177l45 343l24 170h61l-24 -170l-51 -343h-55zM84 -5c-27 0 -44 19 -40 46c3 26 27 46 53 46c27 0 43 -20 40 -46c-4 -27 -26 -46 -53 -46z" />
    <glyph glyph-name="exclamdown" unicode="&#xa1;" horiz-adv-x="241" 
d="M144 423c-27 0 -43 20 -40 46c4 27 26 46 53 46s44 -19 40 -46c-3 -26 -27 -46 -53 -46zM29 -180l24 170l52 343h54l-45 -343l-24 -170h-61z" />
    <glyph glyph-name="question" unicode="?" horiz-adv-x="475" 
d="M191 181l5 37c12 79 63 121 111 159c44 35 86 73 94 131c10 77 -39 135 -114 135c-76 0 -142 -58 -153 -135h-63c16 110 112 194 224 194s184 -84 168 -194c-10 -79 -63 -126 -112 -164c-46 -35 -86 -68 -94 -126l-5 -37h-61zM196 -5c-27 0 -44 19 -40 46
c3 26 26 46 53 46c26 0 43 -20 40 -46c-4 -27 -27 -46 -53 -46z" />
    <glyph glyph-name="questiondown" unicode="&#xbf;" horiz-adv-x="463" 
d="M266 423c-27 0 -43 20 -40 46c4 27 27 46 53 46c27 0 44 -19 40 -46c-3 -26 -26 -46 -53 -46zM180 -192c-112 0 -184 84 -169 194c11 79 64 126 112 164c46 35 86 68 95 126l5 37h60l-5 -37c-11 -79 -62 -121 -111 -159c-43 -35 -85 -73 -93 -131
c-11 -77 38 -135 114 -135c75 0 142 58 152 135h63c-15 -110 -112 -194 -223 -194z" />
    <glyph glyph-name="periodcentered" unicode="&#xb7;" horiz-adv-x="228" 
d="M110 227c-27 0 -44 20 -40 47c3 27 27 47 54 47s44 -20 41 -47c-4 -27 -27 -47 -55 -47z" />
    <glyph glyph-name="bullet" unicode="&#x2022;" horiz-adv-x="298" 
d="M140 192c-47 0 -77 35 -70 82c6 47 46 82 93 82s78 -35 71 -82s-47 -82 -94 -82z" />
    <glyph glyph-name="asterisk" unicode="*" horiz-adv-x="378" 
d="M268 574l15 -7l81 -50l-24 -33l-82 49l-11 10v-16l-14 -100h-39l14 100l5 17l-16 -11l-94 -49l-15 33l94 51l16 6l-14 6l-80 50l24 34l81 -50l12 -10l-1 16l14 100h40l-14 -100l-5 -17l15 11l95 50l15 -34l-95 -50z" />
    <glyph glyph-name="numbersign" unicode="#" horiz-adv-x="756" 
d="M735 439h-140l-81 -188h141l-7 -51h-156l-87 -200h-55l87 200h-227l-86 -200h-56l87 200h-124l8 51h138l81 188h-140l6 51h156l87 200h55l-86 -200h226l87 200h55l-87 -200h124zM459 251l81 188h-226l-82 -188h227z" />
    <glyph glyph-name="slash" unicode="/" horiz-adv-x="496" 
d="M-38 -150l527 900h59l-527 -900h-59z" />
    <glyph glyph-name="backslash" unicode="\" horiz-adv-x="496" 
d="M362 -150l-273 900h59l273 -900h-59z" />
    <glyph glyph-name="exclamdown.case" horiz-adv-x="241" 
d="M170 603c-27 0 -44 20 -40 46c3 27 26 46 53 46c26 0 43 -19 40 -46c-4 -26 -27 -46 -53 -46zM54 0l24 170l52 343h54l-45 -343l-24 -170h-61z" />
    <glyph glyph-name="questiondown.case" horiz-adv-x="503" 
d="M312 603c-27 0 -44 20 -40 46c3 27 26 46 53 46c26 0 43 -19 40 -46c-4 -26 -27 -46 -53 -46zM225 -12c-112 0 -184 84 -169 194c11 79 65 126 112 164c46 35 86 68 95 126l5 37h60l-5 -37c-11 -79 -62 -121 -110 -159c-44 -35 -85 -73 -94 -131
c-11 -77 38 -135 114 -135c75 0 142 58 152 135h63c-15 -110 -112 -194 -223 -194z" />
    <glyph glyph-name="periodcentered.case" horiz-adv-x="228" 
d="M120 298c-27 0 -44 20 -40 47c3 27 27 47 54 47s44 -20 41 -47c-4 -27 -27 -47 -55 -47z" />
    <glyph glyph-name="bullet.case" horiz-adv-x="298" 
d="M150 263c-47 0 -77 35 -70 82c6 47 46 82 93 82s78 -35 71 -82s-47 -82 -94 -82z" />
    <glyph glyph-name="asterisk.case" horiz-adv-x="398" 
d="M274 544l15 -7l80 -50l-23 -33l-82 49l-11 10v-16l-14 -100h-39l14 100l5 17l-16 -11l-94 -49l-16 33l95 51l16 6l-14 6l-81 50l25 34l81 -50l12 -11l-1 17l14 100h40l-14 -100l-5 -17l15 11l95 50l14 -34l-94 -50z" />
    <glyph glyph-name="slash.case" horiz-adv-x="505" 
d="M-28 -105l527 900h59l-527 -900h-59z" />
    <glyph glyph-name="backslash.case" horiz-adv-x="505" 
d="M372 -105l-273 900h59l273 -900h-59z" />
    <glyph glyph-name="parenleft" unicode="(" horiz-adv-x="306" 
d="M160 -190c-69 113 -99 299 -74 470c24 171 106 357 207 470h59c-100 -113 -181 -299 -205 -470c-25 -171 4 -357 72 -470h-59z" />
    <glyph glyph-name="parenright" unicode=")" horiz-adv-x="306" 
d="M-38 -190c99 113 181 299 206 470c24 171 -6 357 -73 470h59c68 -113 99 -299 75 -470c-25 -171 -108 -357 -208 -470h-59z" />
    <glyph glyph-name="braceleft" unicode="{" horiz-adv-x="390" 
d="M343 750h83l-8 -55h-64c-39 0 -72 -30 -78 -70l-39 -274c-4 -31 -27 -59 -57 -70c27 -12 42 -40 38 -71l-39 -275c-6 -40 19 -70 58 -70h63l-7 -55h-83c-63 0 -102 46 -93 110l40 277c4 33 -15 56 -46 56h-39l7 55h39c31 0 57 23 61 56l40 276c9 64 61 110 124 110z" />
    <glyph glyph-name="braceright" unicode="}" horiz-adv-x="390" 
d="M286 308h39l-7 -55h-39c-31 0 -58 -23 -62 -56l-39 -277c-9 -64 -62 -110 -125 -110h-82l8 55h63c39 0 73 30 78 70l39 275c4 31 28 59 58 71c-27 11 -42 39 -38 70l39 274c5 40 -19 70 -58 70h-64l8 55h82c63 0 102 -46 93 -110l-39 -276c-4 -33 15 -56 46 -56z" />
    <glyph glyph-name="bracketleft" unicode="[" horiz-adv-x="321" 
d="M349 695h-136l-117 -830h136l-8 -55h-195l133 940h195z" />
    <glyph glyph-name="bracketright" unicode="]" horiz-adv-x="321" 
d="M104 750h195l-133 -940h-195l8 55h136l116 830h-135z" />
    <glyph glyph-name="parenleft.case" horiz-adv-x="326" 
d="M180 -125c-70 113 -99 299 -75 470s106 357 207 470h59c-100 -113 -181 -299 -205 -470s4 -357 73 -470h-59z" />
    <glyph glyph-name="parenright.case" horiz-adv-x="326" 
d="M-18 -125c98 113 181 299 205 470s-6 357 -73 470h59c68 -113 99 -299 75 -470s-108 -357 -207 -470h-59z" />
    <glyph glyph-name="braceleft.case" horiz-adv-x="398" 
d="M352 815h83l-8 -55h-64c-39 0 -72 -30 -78 -70l-38 -274c-5 -31 -28 -59 -58 -70c27 -12 42 -40 38 -71l-39 -275c-6 -40 19 -70 58 -70h63l-6 -55h-83c-63 0 -102 46 -94 110l40 277c4 33 -15 56 -46 56h-39l7 55h39c32 0 57 23 62 56l39 276c9 64 61 110 124 110z" />
    <glyph glyph-name="braceright.case" horiz-adv-x="398" 
d="M305 373h39l-8 -55h-39c-32 0 -58 -23 -62 -56l-40 -277c-8 -64 -60 -110 -123 -110h-82l6 55h64c39 0 72 30 78 70l39 275c4 31 27 59 57 71c-26 11 -42 39 -37 70l38 274c6 40 -19 70 -58 70h-63l8 55h82c63 0 102 -46 93 -110l-38 -276c-5 -33 14 -56 46 -56z" />
    <glyph glyph-name="bracketleft.case" horiz-adv-x="339" 
d="M368 760h-136l-116 -830h135l-7 -55h-195l132 940h195z" />
    <glyph glyph-name="bracketright.case" horiz-adv-x="339" 
d="M122 815h195l-132 -940h-195l6 55h137l116 830h-135z" />
    <glyph glyph-name="hyphen" unicode="-" horiz-adv-x="408" 
d="M66 246l8 55h274l-8 -55h-274z" />
    <glyph glyph-name="endash" unicode="&#x2013;" horiz-adv-x="608" 
d="M66 247l7 53h475l-8 -53h-474z" />
    <glyph glyph-name="emdash" unicode="&#x2014;" horiz-adv-x="1068" 
d="M66 247l7 53h935l-8 -53h-934z" />
    <glyph glyph-name="underscore" unicode="_" horiz-adv-x="532" 
d="M-7 -142l7 50h435l-7 -50h-435z" />
    <glyph glyph-name="hyphen.case" horiz-adv-x="408" 
d="M76 318l8 55h274l-8 -55h-274z" />
    <glyph glyph-name="endash.case" horiz-adv-x="608" 
d="M76 319l7 53h475l-8 -53h-474z" />
    <glyph glyph-name="emdash.case" horiz-adv-x="1068" 
d="M76 319l7 53h935l-8 -53h-934z" />
    <glyph glyph-name="quotesinglbase" unicode="&#x201a;" horiz-adv-x="227" 
d="M-26 -142l100 226h71l-120 -226h-51z" />
    <glyph glyph-name="quotedblbase" unicode="&#x201e;" horiz-adv-x="421" 
d="M-26 -142l100 226h71l-120 -226h-51zM168 -142l100 226h70l-119 -226h-51z" />
    <glyph glyph-name="quotedblleft" unicode="&#x201c;" horiz-adv-x="421" 
d="M88 464l119 226h51l-100 -226h-70zM282 464l119 226h51l-100 -226h-70z" />
    <glyph glyph-name="quotedblright" unicode="&#x201d;" horiz-adv-x="421" 
d="M88 464l100 226h70l-119 -226h-51zM282 464l100 226h70l-119 -226h-51z" />
    <glyph glyph-name="quoteleft" unicode="&#x2018;" horiz-adv-x="227" 
d="M88 464l119 226h51l-100 -226h-70z" />
    <glyph glyph-name="quoteright" unicode="&#x2019;" horiz-adv-x="227" 
d="M88 464l100 226h70l-119 -226h-51z" />
    <glyph glyph-name="guillemotleft" unicode="&#xab;" horiz-adv-x="583" 
d="M324 466l-203 -202l146 -202h-70l-147 202l204 202h70zM555 466l-203 -202l146 -202h-69l-147 202l203 202h70z" />
    <glyph glyph-name="guillemotright" unicode="&#xbb;" horiz-adv-x="583" 
d="M158 466l147 -202l-204 -202h-69l203 202l-147 202h70zM389 466l147 -202l-203 -202h-70l204 202l-147 202h69z" />
    <glyph glyph-name="guilsinglleft" unicode="&#x2039;" horiz-adv-x="351" 
d="M324 466l-203 -202l146 -202h-70l-147 202l204 202h70z" />
    <glyph glyph-name="guilsinglright" unicode="&#x203a;" horiz-adv-x="351" 
d="M158 466l147 -202l-204 -202h-69l203 202l-147 202h70z" />
    <glyph glyph-name="quotedbl" unicode="&#x22;" horiz-adv-x="380" 
d="M104 467l28 223h57l-34 -223h-51zM285 467l28 223h58l-35 -223h-51z" />
    <glyph glyph-name="quotesingle" unicode="'" horiz-adv-x="199" 
d="M104 467l28 223h57l-34 -223h-51z" />
    <glyph glyph-name="guillemotleft.case" horiz-adv-x="603" 
d="M346 547l-204 -202l147 -202h-70l-147 202l204 202h70zM577 547l-204 -202l147 -202h-69l-147 202l203 202h70z" />
    <glyph glyph-name="guillemotright.case" horiz-adv-x="603" 
d="M180 547l147 -202l-204 -202h-69l202 202l-146 202h70zM411 547l147 -202l-203 -202h-70l203 202l-146 202h69z" />
    <glyph glyph-name="guilsinglleft.case" horiz-adv-x="371" 
d="M346 547l-204 -202l147 -202h-70l-147 202l204 202h70z" />
    <glyph glyph-name="guilsinglright.case" horiz-adv-x="371" 
d="M180 547l147 -202l-204 -202h-69l202 202l-146 202h70z" />
    <glyph glyph-name="space" unicode=" " horiz-adv-x="260" 
 />
    <glyph glyph-name="uni20B5" unicode="&#x20b5;" horiz-adv-x="820" 
d="M418 57c127 13 237 100 279 219h65c-50 -153 -190 -266 -353 -280l-9 -66h-59l9 66c-185 12 -304 159 -276 349c26 190 185 337 375 349l9 66h59l-9 -66c158 -14 266 -127 273 -280h-64c-9 119 -95 206 -218 219zM137 345c-22 -156 73 -276 222 -289l81 578
c-153 -12 -281 -133 -303 -289z" />
    <glyph glyph-name="cent" unicode="&#xa2;" horiz-adv-x="646" 
d="M332 135c92 10 170 72 202 158h62c-39 -119 -146 -205 -272 -215l-11 -78h-41l11 77c-144 9 -236 121 -215 267c20 147 143 259 290 268l11 78h41l-11 -79c123 -10 206 -96 212 -214h-62c-8 86 -69 149 -158 158zM129 344c-17 -113 53 -201 162 -209l59 420
c-112 -8 -206 -97 -221 -211z" />
    <glyph glyph-name="currency" unicode="&#xa4;" horiz-adv-x="529" 
d="M442 457c19 -31 27 -69 21 -112s-25 -81 -53 -111l54 -64l-40 -36l-56 64c-33 -21 -73 -34 -116 -34c-42 0 -78 13 -106 34l-74 -64l-32 36l73 65c-18 30 -26 68 -20 110c6 43 24 81 52 111l-55 65l41 36l56 -65c34 22 74 35 116 35c43 0 79 -13 106 -34l74 65l31 -38z
M411 345c11 77 -38 135 -114 135s-142 -58 -153 -135c-10 -76 39 -134 115 -134s142 58 152 134z" />
    <glyph glyph-name="dollar" unicode="$" horiz-adv-x="524" 
d="M495 509h-62c10 66 -31 118 -96 128l-37 -260c111 -30 177 -91 161 -199c-13 -97 -105 -173 -215 -181l-9 -66h-41l9 66c-108 9 -177 89 -163 193h63c-10 -71 37 -128 108 -137l39 273c-104 28 -166 91 -151 193c13 93 98 166 203 174l9 67h41l-9 -67
c100 -10 165 -86 150 -184zM165 521c-9 -62 25 -106 96 -132l35 248c-68 -8 -123 -56 -131 -116zM397 175c10 66 -28 111 -106 139l-37 -261c74 8 135 59 143 122z" />
    <glyph glyph-name="Euro" unicode="&#x20ac;" horiz-adv-x="763" 
d="M535 702c94 0 173 -33 229 -86l-10 -69c-51 59 -129 95 -221 95c-143 0 -269 -88 -321 -214h432l-24 -49h-424c-3 -11 -5 -22 -7 -34s-3 -23 -3 -34h395l-23 -49h-370c17 -126 119 -214 262 -214c92 0 180 36 247 95l-9 -69c-71 -53 -160 -86 -254 -86
c-175 0 -298 113 -311 274h-86l23 49h63c0 11 1 23 3 34l6 34h-79l24 49h70c58 161 213 274 388 274z" />
    <glyph glyph-name="florin" unicode="&#x192;" horiz-adv-x="443" 
d="M468 630c-79 0 -123 -34 -150 -120l-43 -136h122l-7 -54h-132l-110 -347c-36 -115 -102 -163 -218 -163l9 60c79 0 123 34 150 120l104 330h-117l8 54h126l48 153c36 115 101 163 218 163z" />
    <glyph glyph-name="franc" unicode="&#x20a3;" horiz-adv-x="509" 
d="M523 632h-298l-36 -253h256l-9 -58h-255l-19 -134h170l-7 -54h-170l-19 -133h-62l19 133h-72l8 54h71l71 503h360z" />
    <glyph glyph-name="lira" unicode="&#x20a4;" horiz-adv-x="576" 
d="M561 502h-63c11 80 -41 140 -121 140c-79 0 -148 -60 -159 -140l-14 -101h226l-7 -49h-226l-10 -67h227l-7 -49h-227l-25 -178h353l-8 -58h-487l8 58h72l25 178h-72l8 49h70l10 67h-71l7 49h71l14 101c16 114 116 200 231 200s190 -86 175 -200z" />
    <glyph glyph-name="peseta" unicode="&#x20a7;" horiz-adv-x="627" 
d="M631 497l-6 -42h-52c-26 -112 -127 -194 -244 -194h-147l-37 -260h-61l64 454h-72l6 42h72l27 194h209c117 0 195 -82 189 -194h52zM234 633l-19 -136h300c2 79 -54 136 -135 136h-146zM336 319c81 0 152 57 173 136h-300l-19 -136h146z" />
    <glyph glyph-name="uni20B1" unicode="&#x20b1;" horiz-adv-x="627" 
d="M579 505c0 -10 -1 -20 -2 -30s-3 -20 -6 -30h53l-6 -43h-63c-41 -84 -128 -142 -226 -142h-147l-37 -260h-62l57 402h-72l6 43h72l8 60h-71l6 43h71l20 142h210c97 0 168 -58 185 -142h64l-6 -43h-54zM234 634l-12 -86h284c-18 52 -66 86 -130 86h-142zM208 445h298
c3 10 6 20 7 30s2 20 1 30h-298zM331 317c64 0 122 33 155 85h-284l-12 -85h141z" />
    <glyph glyph-name="uni20A8" unicode="&#x20a8;" horiz-adv-x="974" 
d="M363 690c115 0 191 -86 175 -200c-16 -113 -115 -198 -230 -198h-63l237 -292h-79l-237 292h-11l-41 -292h-61l97 690h213zM474 489c12 82 -40 143 -121 143h-150l-40 -286h150c80 0 150 61 161 143zM938 376h-59c7 52 -29 93 -86 93c-54 0 -102 -37 -108 -84
c-7 -50 28 -84 98 -101c90 -23 139 -70 128 -150c-12 -87 -92 -146 -185 -146c-95 0 -155 66 -143 152h60c-8 -56 32 -99 91 -99s109 38 116 88c7 53 -28 86 -101 105c-82 21 -136 64 -125 148c12 84 90 140 178 140c90 0 148 -64 136 -146z" />
    <glyph glyph-name="uni20B9" unicode="&#x20b9;" horiz-adv-x="553" 
d="M432 641c21 -21 35 -47 43 -77h89l-28 -49h-56c0 -9 -1 -18 -2 -27c-16 -115 -116 -202 -232 -202h-78l259 -286h-83l-264 291l7 51h163c82 0 153 62 164 146c1 9 2 18 2 27h-305l7 49h287c-18 43 -59 71 -113 71h-164l8 55h445l-27 -49h-122z" />
    <glyph glyph-name="sterling" unicode="&#xa3;" horiz-adv-x="575" 
d="M561 502h-63c11 80 -41 140 -120 140c-80 0 -149 -60 -160 -140l-22 -153h227l-8 -54h-227l-33 -237h353l-8 -58h-487l8 58h72l33 237h-71l8 54h70l22 153c16 114 116 200 231 200s190 -86 175 -200z" />
    <glyph glyph-name="yen" unicode="&#xa5;" horiz-adv-x="636" 
d="M666 690l-287 -387h126l-7 -48h-149l-10 -73h149l-7 -49h-149l-19 -133h-61l19 133h-150l7 49h150l10 73h-150l7 48h126l-179 387h71l166 -366l269 366h68z" />
    <glyph glyph-name="plus" unicode="+" horiz-adv-x="534" 
d="M477 322l-8 -53h-173l-25 -174h-54l25 174h-173l7 53h173l25 173h54l-25 -173h174z" />
    <glyph glyph-name="minus" unicode="&#x2212;" horiz-adv-x="534" 
d="M69 269l7 53h401l-8 -53h-400z" />
    <glyph glyph-name="multiply" unicode="&#xd7;" horiz-adv-x="455" 
d="M411 417l-139 -122l105 -122l-44 -39l-105 122l-139 -122l-34 39l139 122l-105 122l45 39l105 -122l140 122z" />
    <glyph glyph-name="divide" unicode="&#xf7;" horiz-adv-x="534" 
d="M288 408c-22 0 -37 17 -34 40c4 22 23 39 46 39c22 0 37 -17 34 -39c-3 -23 -23 -40 -46 -40zM69 271l7 49h401l-7 -49h-401zM245 104c-22 0 -37 17 -34 39c4 23 23 40 46 40c22 0 37 -17 34 -40c-3 -22 -23 -39 -46 -39z" />
    <glyph glyph-name="equal" unicode="=" horiz-adv-x="534" 
d="M80 350l7 52h401l-7 -52h-401zM57 189l8 52h401l-8 -52h-401z" />
    <glyph glyph-name="notequal" unicode="&#x2260;" horiz-adv-x="534" 
d="M481 350h-148l-67 -109h200l-8 -52h-225l-63 -102h-53l63 102h-123l8 52h148l67 109h-200l7 52h225l63 101h53l-63 -101h123z" />
    <glyph glyph-name="greater" unicode="&#x3e;" horiz-adv-x="464" 
d="M100 493l307 -170l-8 -54l-354 -170l8 59l295 138l-256 138z" />
    <glyph glyph-name="less" unicode="&#x3c;" horiz-adv-x="464" 
d="M431 493l-8 -59l-295 -138l256 -138l-9 -59l-306 170l7 54z" />
    <glyph glyph-name="greaterequal" unicode="&#x2265;" horiz-adv-x="464" 
d="M104 522l311 -137l-8 -59l-349 -137l8 58l294 108l-264 109zM42 77l7 53h331l-8 -53h-330z" />
    <glyph glyph-name="lessequal" unicode="&#x2264;" horiz-adv-x="464" 
d="M435 522l-8 -58l-294 -108l263 -109l-8 -58l-312 137l9 59zM42 77l7 53h331l-8 -53h-330z" />
    <glyph glyph-name="plusminus" unicode="&#xb1;" horiz-adv-x="534" 
d="M312 382h174l-8 -52h-174l-18 -130h-54l18 130h-173l8 52h173l18 129h54zM41 73l8 52h400l-7 -52h-401z" />
    <glyph glyph-name="approxequal" unicode="&#x2248;" horiz-adv-x="537" 
d="M366 330c-79 0 -95 79 -155 79c-40 0 -73 -29 -79 -69h-53c10 72 58 126 131 126c80 0 96 -79 156 -79c39 0 73 30 78 70h54c-10 -72 -59 -127 -132 -127zM338 132c-79 0 -95 79 -155 79c-40 0 -73 -30 -78 -70h-54c10 72 59 127 132 127c79 0 95 -79 155 -79
c40 0 73 30 78 69h54c-10 -71 -59 -126 -132 -126z" />
    <glyph glyph-name="asciitilde" unicode="~" horiz-adv-x="537" 
d="M352 231c-79 0 -95 79 -155 79c-40 0 -73 -29 -79 -69h-53c10 72 59 126 132 126c79 0 94 -79 155 -79c39 0 72 30 78 69h54c-10 -71 -59 -126 -132 -126z" />
    <glyph glyph-name="asciicircum" unicode="^" horiz-adv-x="402" 
d="M380 455h-55l-70 185l-120 -185h-56l156 235h55z" />
    <glyph glyph-name="percent" unicode="%" horiz-adv-x="819" 
d="M228 392c-89 0 -147 67 -134 155c12 89 89 155 178 155s146 -66 134 -155c-13 -88 -89 -155 -178 -155zM92 0l597 690h64l-597 -690h-64zM234 441c60 0 112 45 121 106s-30 107 -90 107s-112 -46 -121 -107s30 -106 90 -106zM573 -12c-89 0 -147 67 -134 155
s89 155 178 155s147 -67 134 -155s-89 -155 -178 -155zM580 36c60 0 112 46 121 107s-31 106 -91 106s-112 -45 -121 -106c-8 -61 31 -107 91 -107z" />
    <glyph glyph-name="perthousand" unicode="&#x2030;" horiz-adv-x="1187" 
d="M228 392c-89 0 -147 67 -134 155c12 89 89 155 178 155s146 -66 134 -155c-13 -88 -89 -155 -178 -155zM92 0l597 690h64l-597 -690h-64zM234 441c60 0 112 45 121 106s-30 107 -90 107s-112 -46 -121 -107s30 -106 90 -106zM573 -12c-89 0 -147 67 -134 155
s89 155 178 155s147 -67 134 -155s-89 -155 -178 -155zM941 -12c-89 0 -147 67 -134 155s89 155 178 155s147 -67 134 -155s-89 -155 -178 -155zM580 36c60 0 112 46 121 107s-31 106 -91 106s-112 -45 -121 -106c-8 -61 31 -107 91 -107zM948 36c60 0 112 46 121 107
s-31 106 -91 106s-112 -45 -121 -106s31 -107 91 -107z" />
    <glyph glyph-name="plus.case" horiz-adv-x="534" 
d="M484 372l-8 -53h-173l-25 -174h-54l25 174h-173l7 53h173l25 173h54l-25 -173h174z" />
    <glyph glyph-name="arrowup" unicode="&#x2191;" horiz-adv-x="671" 
d="M536 401v-70l-174 175v-417h-53v416l-173 -174v70l200 200z" />
    <glyph glyph-name="uni2197" unicode="&#x2197;" horiz-adv-x="671" 
d="M244 530h282v-283l-49 -39l1 235l-295 -295l-38 38l294 295l-234 -1z" />
    <glyph glyph-name="arrowright" unicode="&#x2192;" horiz-adv-x="671" 
d="M387 550l205 -205l-205 -205h-71l180 178h-417v54h417l-180 178h71z" />
    <glyph glyph-name="uni2198" unicode="&#x2198;" horiz-adv-x="671" 
d="M478 481l50 -39v-288h-288l-39 50l240 -1l-294 295l38 38l294 -295z" />
    <glyph glyph-name="arrowdown" unicode="&#x2193;" horiz-adv-x="671" 
d="M362 184l179 180v-70l-205 -205l-206 205v70l179 -179v416h53v-417z" />
    <glyph glyph-name="uni2199" unicode="&#x2199;" horiz-adv-x="671" 
d="M525 498l-295 -295l241 1l-40 -50h-287v288l49 39l-1 -240l295 295z" />
    <glyph glyph-name="arrowleft" unicode="&#x2190;" horiz-adv-x="671" 
d="M592 372v-54h-416l179 -178h-70l-206 205l206 205h70l-179 -178h416z" />
    <glyph glyph-name="uni2196" unicode="&#x2196;" horiz-adv-x="671" 
d="M525 186l-38 -38l-295 295l1 -240l-49 39v288h287l40 -50l-241 1z" />
    <glyph glyph-name="uni279D" unicode="&#x279d;" horiz-adv-x="1082" 
d="M997 345l-205 -205v178h-707v54h707v178z" />
    <glyph glyph-name="uni27F5" unicode="&#x27f5;" horiz-adv-x="1082" 
d="M997 372v-54h-816l179 -178h-70l-205 205l205 205h70l-179 -178h816z" />
    <glyph glyph-name="uni27F6" unicode="&#x27f6;" horiz-adv-x="1082" 
d="M792 550l205 -205l-205 -205h-70l179 178h-816v54h816l-179 178h70z" />
    <glyph glyph-name="uni2639" unicode="&#x2639;" horiz-adv-x="843" 
d="M435 -12c-203 0 -357 154 -357 357s154 357 357 357s357 -154 357 -357s-154 -357 -357 -357zM435 24c182 0 320 138 320 321s-138 321 -320 321s-320 -138 -320 -321s138 -321 320 -321zM310 446c-16 0 -29 13 -29 30c0 16 13 29 29 29c17 0 30 -13 30 -29
c0 -17 -13 -30 -30 -30zM559 446c-16 0 -29 13 -29 30c0 16 13 29 29 29s29 -13 29 -29c0 -17 -13 -30 -29 -30zM211 159c0 127 96 223 224 223c127 0 223 -96 223 -223h-37c0 107 -80 188 -186 188c-107 0 -187 -81 -187 -188h-37z" />
    <glyph glyph-name="smileface" unicode="&#x263a;" horiz-adv-x="843" 
d="M435 -12c-203 0 -357 154 -357 357s154 357 357 357s357 -154 357 -357s-154 -357 -357 -357zM435 24c182 0 320 138 320 321s-138 321 -320 321s-320 -138 -320 -321s138 -321 320 -321zM310 446c-16 0 -29 13 -29 30c0 16 13 29 29 29c17 0 30 -13 30 -29
c0 -17 -13 -30 -30 -30zM559 446c-16 0 -29 13 -29 30c0 16 13 29 29 29s29 -13 29 -29c0 -17 -13 -30 -29 -30zM435 113c-132 0 -232 100 -232 232h37c0 -112 84 -196 195 -196s194 84 194 196h37c0 -132 -99 -232 -231 -232z" />
    <glyph glyph-name="at" unicode="@" horiz-adv-x="849" 
d="M479 633c205 0 342 -149 315 -348c-16 -115 -80 -196 -164 -196c-55 0 -94 29 -98 74c-35 -48 -88 -78 -151 -78c-104 0 -169 80 -154 184c15 106 103 185 203 185c61 0 107 -28 130 -77l9 65h58l-35 -253c-5 -30 13 -52 44 -52c48 0 90 62 102 149
c23 168 -92 294 -266 294c-178 0 -329 -133 -354 -310s89 -310 267 -310c79 0 155 25 211 69h84c-80 -75 -189 -122 -303 -122c-209 0 -344 156 -315 363c29 206 209 363 417 363zM398 142c74 0 136 55 146 128c11 72 -38 127 -111 127s-135 -54 -145 -127
c-10 -74 37 -128 110 -128z" />
    <glyph glyph-name="ampersand" unicode="&#x26;" horiz-adv-x="603" 
d="M568 0h-74l-58 83c-51 -58 -124 -95 -203 -95c-134 0 -216 91 -198 216c15 109 92 168 170 212c-34 54 -53 104 -46 150c11 78 81 136 161 136s134 -57 123 -135c-11 -77 -83 -122 -158 -162l158 -226c7 17 11 35 14 53l14 99h55l-14 -99c-5 -37 -19 -71 -36 -100z
M215 566c-5 -33 11 -74 43 -122c66 34 121 67 129 123c6 49 -25 86 -74 86s-91 -36 -98 -87zM243 43c65 0 125 31 166 80l-177 254c-69 -40 -128 -88 -139 -172c-13 -92 52 -162 150 -162z" />
    <glyph glyph-name="paragraph" unicode="&#xb6;" horiz-adv-x="578" 
d="M558 690l-124 -880h-51l117 829h-93l-117 -829h-51l67 479h-66c-113 0 -188 87 -171 201c15 114 114 200 228 200h261z" />
    <glyph glyph-name="section" unicode="&#xa7;" horiz-adv-x="499" 
d="M456 554h-57c8 58 -33 102 -94 102c-60 0 -112 -40 -119 -92c-8 -53 29 -89 107 -107c91 -21 148 -68 135 -153c-8 -58 -51 -105 -110 -126c56 -28 81 -70 72 -130c-11 -87 -95 -144 -189 -144c-97 0 -162 65 -150 151h58c-9 -60 34 -105 98 -105s118 41 125 95
c8 55 -30 90 -111 111c-88 22 -143 69 -131 152c8 59 51 106 106 127c-53 27 -77 70 -68 126c11 85 93 141 184 141c94 0 157 -64 144 -148zM370 300c8 55 -26 91 -102 109c-61 -2 -111 -43 -119 -96c-8 -54 26 -91 96 -109c65 2 117 43 125 96z" />
    <glyph glyph-name="copyright" unicode="&#xa9;" horiz-adv-x="835" 
d="M380 -12c-203 0 -335 154 -306 357c28 203 204 357 407 357s335 -154 307 -357c-29 -203 -205 -357 -408 -357zM386 30c178 0 332 136 357 315s-91 315 -268 315c-178 0 -332 -136 -357 -315c-26 -179 91 -315 268 -315zM404 139c-118 0 -194 89 -177 206
c16 117 117 206 234 206c103 0 175 -65 180 -157h-49c-8 65 -61 111 -137 111c-91 0 -168 -70 -180 -160c-14 -90 45 -160 135 -160c76 0 142 46 168 111h49c-31 -92 -121 -157 -223 -157z" />
    <glyph glyph-name="registered" unicode="&#xae;" horiz-adv-x="461" 
d="M294 702c102 0 168 -77 154 -180s-102 -180 -205 -180s-169 77 -155 180c15 103 103 180 206 180zM420 522c12 88 -44 154 -130 154s-161 -66 -174 -154c-12 -87 44 -153 131 -153c86 0 161 66 173 153zM294 627c32 0 54 -26 49 -58c-4 -32 -31 -57 -63 -58l50 -79h-30
l-50 79h-6l-11 -79h-25l27 195h59zM319 569c3 20 -10 35 -30 35h-32l-10 -71h32c20 0 37 15 40 36z" />
    <glyph glyph-name="trademark" unicode="&#x2122;" horiz-adv-x="681" 
d="M82 657l5 33h219l-5 -33h-91l-37 -260h-35l37 260h-93zM623 690h48l-41 -293h-35l33 237l-133 -237h-30l-67 239l-33 -239h-36l42 293h49l68 -244z" />
    <glyph glyph-name="degree" unicode="&#xb0;" horiz-adv-x="387" 
d="M218 429c-79 0 -130 58 -119 137c11 77 79 136 158 136c78 0 129 -59 118 -136c-11 -79 -78 -137 -157 -137zM225 476c50 0 94 38 101 90c7 51 -25 89 -76 89s-95 -38 -102 -89c-6 -52 26 -90 77 -90z" />
    <glyph glyph-name="bar" unicode="|" horiz-adv-x="271" 
d="M46 -190l133 940h53l-133 -940h-53z" />
    <glyph glyph-name="brokenbar" unicode="&#xa6;" horiz-adv-x="271" 
d="M121 340l58 410h53l-58 -410h-53zM46 -190l58 410h53l-58 -410h-53z" />
    <glyph glyph-name="dagger" unicode="&#x2020;" horiz-adv-x="494" 
d="M463 510l-7 -52h-154l-91 -648h-54l91 648h-153l8 52h153l25 180h54l-25 -180h153z" />
    <glyph glyph-name="daggerdbl" unicode="&#x2021;" horiz-adv-x="494" 
d="M456 458h-154l-55 -396h153l-7 -52h-154l-28 -200h-54l28 200h-152l6 52h154l55 396h-153l8 52h153l25 180h54l-25 -180h153z" />
    <glyph glyph-name="uni2116" unicode="&#x2116;" horiz-adv-x="1163" 
d="M994 702c103 0 170 -78 156 -181s-104 -181 -207 -181c-104 0 -171 78 -157 181s104 181 208 181zM571 99l83 591h62l-97 -690h-67l-354 590l-84 -590h-61l97 690h66zM1098 521c10 74 -38 130 -111 130c-74 0 -138 -56 -148 -130c-11 -74 37 -130 111 -130
c73 0 137 56 148 130zM754 199l7 53h338l-7 -53h-338z" />
    <glyph glyph-name="at.case" horiz-adv-x="847" 
d="M490 708c205 0 342 -149 315 -348c-16 -115 -80 -196 -164 -196c-55 0 -94 29 -98 74c-35 -48 -88 -78 -151 -78c-104 0 -169 80 -154 184c15 106 103 185 203 185c61 0 107 -28 130 -77l9 65h58l-35 -253c-5 -30 13 -52 44 -52c48 0 90 62 102 149
c23 168 -92 294 -266 294c-178 0 -329 -133 -354 -310s89 -310 267 -310c79 0 155 25 211 69h84c-80 -75 -189 -122 -303 -122c-209 0 -344 156 -315 363c29 206 209 363 417 363zM409 217c74 0 136 55 146 128c11 72 -38 127 -111 127s-135 -54 -145 -127
c-10 -74 37 -128 110 -128z" />
    <glyph glyph-name="uni02BC" unicode="&#x2bc;" horiz-adv-x="77" 
d="M39 533l47 187h56l-58 -187h-45z" />
    <glyph glyph-name="uni0308" unicode="&#x308;" horiz-adv-x="0" 
d="M-194 593c-23 0 -38 17 -35 40s24 40 47 40c22 0 37 -17 34 -40s-23 -40 -46 -40zM7 593c-23 0 -38 17 -35 40s24 40 47 40c22 0 37 -17 34 -40s-23 -40 -46 -40z" />
    <glyph glyph-name="uni0307" unicode="&#x307;" horiz-adv-x="0" 
d="M6 593c-23 0 -39 18 -35 41c2 24 24 42 47 42c24 0 39 -18 36 -42c-4 -23 -24 -41 -48 -41z" />
    <glyph glyph-name="gravecomb" unicode="&#x300;" horiz-adv-x="0" 
d="M-16 583l-103 122h77l89 -122h-63z" />
    <glyph glyph-name="acutecomb" unicode="&#x301;" horiz-adv-x="0" 
d="M-136 583l123 122h77l-137 -122h-63z" />
    <glyph glyph-name="uni030B" unicode="&#x30b;" horiz-adv-x="0" 
d="M-283 583l98 122h67l-108 -122h-57zM-101 583l97 122h67l-108 -122h-56z" />
    <glyph glyph-name="caroncomb.alt" horiz-adv-x="0" 
d="M-38 533l47 187h56l-58 -187h-45z" />
    <glyph glyph-name="uni0302" unicode="&#x302;" horiz-adv-x="0" 
d="M46 583h-56l-68 90l-93 -90h-57l118 122h72z" />
    <glyph glyph-name="uni030C" unicode="&#x30c;" horiz-adv-x="0" 
d="M7 705h56l-118 -122h-72l-84 122h57l67 -89z" />
    <glyph glyph-name="uni0306" unicode="&#x306;" horiz-adv-x="0" 
d="M-81 573c-71 0 -118 54 -108 123h47c-6 -45 23 -79 67 -79c45 0 84 34 90 79h47c-9 -69 -71 -123 -143 -123z" />
    <glyph glyph-name="uni030A" unicode="&#x30a;" horiz-adv-x="0" 
d="M-34 569c-43 0 -72 33 -66 76c6 44 44 77 88 77s73 -33 67 -77c-7 -43 -45 -76 -89 -76zM-29 602c24 0 45 18 49 43c3 25 -13 44 -37 44s-45 -19 -49 -44c-3 -25 13 -43 37 -43z" />
    <glyph glyph-name="tildecomb" unicode="&#x303;" horiz-adv-x="0" 
d="M-46 591c-64 0 -74 62 -125 62c-32 0 -59 -25 -63 -57h-44c8 59 51 104 108 104c63 0 74 -62 125 -62c31 0 59 24 63 57h43c-7 -60 -50 -104 -107 -104z" />
    <glyph glyph-name="uni0304" unicode="&#x304;" horiz-adv-x="0" 
d="M-172 601l7 50h220l-7 -50h-220z" />
    <glyph glyph-name="uni030F" unicode="&#x30f;" horiz-adv-x="0" 
d="M-192 583l-74 122h67l64 -122h-57zM-11 583l-74 122h67l64 -122h-57z" />
    <glyph glyph-name="uni0311" unicode="&#x311;" horiz-adv-x="0" 
d="M-206 576c10 70 72 123 143 123s118 -53 108 -123h-47c7 46 -23 80 -67 80c-45 0 -83 -34 -90 -80h-47z" />
    <glyph glyph-name="uni0312" unicode="&#x312;" horiz-adv-x="0" 
d="M-48 576l65 144h48l-51 -144h-62z" />
    <glyph glyph-name="dotbelowcomb" unicode="&#x323;" horiz-adv-x="0" 
d="M-101 -166c-23 0 -38 18 -36 42c4 23 25 41 48 41c24 0 40 -18 36 -41c-3 -24 -24 -42 -48 -42z" />
    <glyph glyph-name="uni0326" unicode="&#x326;" horiz-adv-x="0" 
d="M-159 -216l51 144h62l-65 -144h-48z" />
    <glyph glyph-name="uni0327" unicode="&#x327;" horiz-adv-x="0" 
d="M-127 -36c49 0 81 -39 73 -89c-7 -50 -53 -90 -106 -90s-88 40 -81 90h39c-5 -31 17 -55 47 -55c31 0 58 24 63 55c5 32 -17 55 -47 55c-14 0 -30 -7 -40 -15l-32 16l62 69v2h43v-2l-34 -37c4 1 9 1 13 1z" />
    <glyph glyph-name="uni0328" unicode="&#x328;" horiz-adv-x="0" 
d="M-139 -213c-54 0 -90 39 -83 90c9 54 60 100 127 126h43l1 -3c-70 -30 -115 -70 -121 -112c-5 -34 18 -57 50 -57c22 0 47 9 66 23l-7 -46c-21 -13 -49 -21 -76 -21z" />
    <glyph glyph-name="uni0335" unicode="&#x335;" horiz-adv-x="0" 
d="M-280 252l6 44h280l-6 -44h-280z" />
    <glyph glyph-name="uni0336" unicode="&#x336;" horiz-adv-x="0" 
d="M-675 252l6 44h675l-7 -44h-674z" />
    <glyph glyph-name="uni0337" unicode="&#x337;" horiz-adv-x="0" 
d="M-540 0l529 510h47l-529 -510h-47z" />
    <glyph glyph-name="uni0338" unicode="&#x338;" horiz-adv-x="0" 
d="M-704 0l708 690h57l-708 -690h-57z" />
    <glyph glyph-name="acute" unicode="&#xb4;" horiz-adv-x="182" 
d="M46 583l123 122h77l-137 -122h-63z" />
    <glyph glyph-name="breve" unicode="&#x2d8;" horiz-adv-x="251" 
d="M170 573c-71 0 -118 54 -108 123h47c-6 -45 23 -79 67 -79c45 0 84 34 90 79h47c-9 -69 -71 -123 -143 -123z" />
    <glyph glyph-name="caron" unicode="&#x2c7;" horiz-adv-x="274" 
d="M281 705h56l-118 -122h-72l-84 122h57l67 -89z" />
    <glyph glyph-name="cedilla" unicode="&#xb8;" horiz-adv-x="187" 
d="M60 -36c49 0 81 -39 73 -89c-7 -50 -53 -90 -106 -90s-88 40 -81 90h39c-5 -31 17 -55 47 -55c31 0 58 24 63 55c5 32 -17 55 -47 55c-14 0 -30 -7 -40 -15l-32 16l62 69v2h43v-2l-34 -37c4 1 9 1 13 1z" />
    <glyph glyph-name="circumflex" unicode="&#x2c6;" horiz-adv-x="274" 
d="M320 583h-56l-68 90l-93 -90h-57l118 122h72z" />
    <glyph glyph-name="dieresis" unicode="&#xa8;" horiz-adv-x="282" 
d="M88 593c-23 0 -38 17 -35 40s24 40 47 40c22 0 37 -17 34 -40s-23 -40 -46 -40zM289 593c-23 0 -38 17 -35 40s24 40 47 40c22 0 37 -17 34 -40s-23 -40 -46 -40z" />
    <glyph glyph-name="dotaccent" unicode="&#x2d9;" horiz-adv-x="83" 
d="M89 593c-23 0 -39 18 -35 41c2 24 24 42 47 42c24 0 39 -18 36 -42c-4 -23 -24 -41 -48 -41z" />
    <glyph glyph-name="grave" unicode="`" horiz-adv-x="182" 
d="M166 583l-103 122h77l89 -122h-63z" />
    <glyph glyph-name="hungarumlaut" unicode="&#x2dd;" horiz-adv-x="329" 
d="M46 583l98 122h67l-108 -122h-57zM228 583l97 122h67l-108 -122h-56z" />
    <glyph glyph-name="macron" unicode="&#xaf;" horiz-adv-x="221" 
d="M49 601l7 50h220l-7 -50h-220z" />
    <glyph glyph-name="ogonek" unicode="&#x2db;" horiz-adv-x="180" 
d="M29 -213c-54 0 -90 39 -83 90c9 54 60 100 127 126h43l1 -3c-70 -30 -115 -70 -121 -112c-5 -34 18 -57 50 -57c22 0 47 9 66 23l-7 -46c-21 -13 -49 -21 -76 -21z" />
    <glyph glyph-name="ring" unicode="&#x2da;" horiz-adv-x="155" 
d="M121 569c-43 0 -72 33 -66 76c6 44 44 77 88 77s73 -33 67 -77c-7 -43 -45 -76 -89 -76zM126 602c24 0 45 18 49 43c3 25 -13 44 -37 44s-45 -19 -49 -44c-3 -25 13 -43 37 -43z" />
    <glyph glyph-name="tilde" unicode="&#x2dc;" horiz-adv-x="326" 
d="M280 591c-64 0 -74 62 -125 62c-32 0 -59 -25 -63 -57h-44c8 59 51 104 108 104c63 0 74 -62 125 -62c31 0 59 24 63 57h43c-7 -60 -50 -104 -107 -104z" />
    <glyph glyph-name="caron.alt" horiz-adv-x="77" 
d="M39 533l47 187h56l-58 -187h-45z" />
    </font>
</defs>
</svg>
