<?xml version="1.0" standalone="no"?>
<!DOCTYPE svg PUBLIC "-//W3C//DTD SVG 1.1//EN" "http://www.w3.org/Graphics/SVG/1.1/DTD/svg11.dtd" >
<svg xmlns="http://www.w3.org/2000/svg" xmlns:xlink="http://www.w3.org/1999/xlink" version="1.1">
<metadata>
Created by FontForge 20190801 at Mon Feb  4 11:19:23 2019
 By Jimmy Wärting
Copyright \(c\) 2019 by Adam Ladd. All rights reserved.
</metadata>
<defs>
<font id="Konnect-BoldItalic" horiz-adv-x="585" >
  <font-face 
    font-family="Konnect"
    font-weight="700"
    font-style="italic"
    font-stretch="normal"
    units-per-em="1000"
    panose-1="0 0 8 0 0 0 0 0 0 0"
    ascent="780"
    descent="-220"
    x-height="510"
    cap-height="690"
    bbox="-754 -300 1324 941"
    underline-thickness="82"
    underline-position="-100"
    slope="-8"
    stemh="141"
    stemv="146"
    unicode-range="U+0020-FB02"
  />
<missing-glyph horiz-adv-x="500" 
d="M410 780v-1000h-317v1000h317zM333 713h-165v-33h65v-37h-66v-33h166v33h-66v37h66v33zM267 584h-100v-104h166v34h-66v70zM233 550v-36h-33v36h33zM333 453h-166v-33h66v-37h-66v-33h100v70h66v33zM333 393h-33v-66h-133v-34h166v100zM333 271h-100v-56h34v23h33v-47
h-100v80h-33v-113h166v113zM333 98h-166v-113h166v113zM300 65v-47h-100v47h100zM333 -38h-166v-33h70l-70 -47v-33h166v33h-102l70 47h32v33z" />
    <glyph glyph-name="fi" unicode="fi" horiz-adv-x="620" 
d="M559 754c51 0 85 -38 77 -89c-7 -52 -51 -90 -103 -90c-51 0 -85 38 -77 90c7 51 51 89 103 89zM598 510l-72 -510h-146l53 377h-168l-53 -377h-146l53 377h-77l19 133h77l2 17c20 143 102 203 265 203l-18 -134c-61 0 -95 -22 -102 -77l-1 -9h314z" />
    <glyph glyph-name="fl" unicode="fl" horiz-adv-x="634" 
d="M285 519l-1 -9h99l-19 -133h-99l-53 -377h-146l53 377h-77l19 133h77l2 17c20 143 105 203 273 203l-18 -134c-66 0 -103 -22 -110 -77zM495 720h146l-101 -720h-146z" />
    <glyph glyph-name="f_f.liga" unicode="ff" horiz-adv-x="695" 
d="M723 596c-67 0 -103 -22 -110 -77l-1 -9h99l-19 -133h-99l-53 -377h-146l53 377h-182l-53 -377h-146l53 377h-77l19 133h77l2 17c20 143 105 203 273 203l-18 -134c-66 0 -103 -22 -110 -77l-1 -9h182l2 17c20 143 105 203 273 203z" />
    <glyph glyph-name="f_f_i.liga" unicode="ffi" horiz-adv-x="948" 
d="M886 754c52 0 86 -38 78 -89c-7 -52 -51 -90 -103 -90c-51 0 -85 38 -78 90c8 51 52 89 103 89zM925 510l-72 -510h-146l53 377h-167l-53 -377h-146l53 377h-182l-53 -377h-146l53 377h-77l19 133h77l2 17c20 143 105 203 273 203l-18 -134c-66 0 -103 -22 -110 -77
l-1 -9h182l2 17c20 143 102 203 265 203l-18 -134c-61 0 -95 -22 -102 -77l-1 -9h313z" />
    <glyph glyph-name="f_f_l.liga" unicode="ffl" horiz-adv-x="959" 
d="M613 519l-1 -9h99l-19 -133h-99l-53 -377h-146l53 377h-182l-53 -377h-146l53 377h-77l19 133h77l2 17c20 143 105 203 273 203l-18 -134c-66 0 -103 -22 -110 -77l-1 -9h182l2 17c20 143 105 203 273 203l-18 -134c-67 0 -103 -22 -110 -77zM820 720h146l-101 -720h-146
z" />
    <glyph glyph-name=".notdef" horiz-adv-x="500" 
d="M410 780v-1000h-317v1000h317zM333 713h-165v-33h65v-37h-66v-33h166v33h-66v37h66v33zM267 584h-100v-104h166v34h-66v70zM233 550v-36h-33v36h33zM333 453h-166v-33h66v-37h-66v-33h100v70h66v33zM333 393h-33v-66h-133v-34h166v100zM333 271h-100v-56h34v23h33v-47
h-100v80h-33v-113h166v113zM333 98h-166v-113h166v113zM300 65v-47h-100v47h100zM333 -38h-166v-33h70l-70 -47v-33h166v33h-102l70 47h32v33z" />
    <glyph glyph-name="A" unicode="A" horiz-adv-x="718" 
d="M509 0l-26 121h-280l-60 -121h-171l356 690h183l163 -690h-165zM273 264h180l-54 255z" />
    <glyph glyph-name="Aacute" unicode="&#xc1;" horiz-adv-x="718" 
d="M647 890l-151 -148h-153l121 148h183zM509 0l-26 121h-280l-60 -121h-171l356 690h183l163 -690h-165zM273 264h180l-54 255z" />
    <glyph glyph-name="Abreve" unicode="&#x102;" horiz-adv-x="718" 
d="M426 732c-94 0 -156 68 -143 157h113c-5 -31 14 -53 44 -53s56 22 60 53h113c-13 -89 -93 -157 -187 -157zM509 0l-26 121h-280l-60 -121h-171l356 690h183l163 -690h-165zM273 264h180l-54 255z" />
    <glyph glyph-name="uni01CD" unicode="&#x1cd;" horiz-adv-x="718" 
d="M515 742h-176l-78 148h137l40 -69l59 69h137zM509 0l-26 121h-280l-60 -121h-171l356 690h183l163 -690h-165zM273 264h180l-54 255z" />
    <glyph glyph-name="Acircumflex" unicode="&#xc2;" horiz-adv-x="718" 
d="M437 811l-60 -69h-137l120 148h175l79 -148h-137zM509 0l-26 121h-280l-60 -121h-171l356 690h183l163 -690h-165zM273 264h180l-54 255z" />
    <glyph glyph-name="uni0200" unicode="&#x200;" horiz-adv-x="718" 
d="M389 742h-141l-83 148h158zM612 742h-140l-84 148h159zM509 0l-26 121h-280l-60 -121h-171l356 690h183l163 -690h-165zM273 264h180l-54 255z" />
    <glyph glyph-name="Adieresis" unicode="&#xc4;" horiz-adv-x="718" 
d="M317 738c-46 0 -76 35 -70 81s47 80 93 80s76 -34 69 -80c-6 -46 -46 -81 -92 -81zM536 738c-46 0 -76 35 -70 81s47 80 93 80s76 -34 69 -80c-6 -46 -46 -81 -92 -81zM509 0l-26 121h-280l-60 -121h-171l356 690h183l163 -690h-165zM273 264h180l-54 255z" />
    <glyph glyph-name="uni1EA0" unicode="&#x1ea0;" horiz-adv-x="718" 
d="M674 0h-165l-26 121h-280l-60 -121h-171l356 690h183zM273 264h180l-54 255zM315 -48c49 0 81 -36 74 -85c-7 -48 -49 -84 -97 -84c-49 0 -80 36 -74 84c7 49 49 85 97 85z" />
    <glyph glyph-name="Agrave" unicode="&#xc0;" horiz-adv-x="718" 
d="M510 742h-153l-109 148h183zM509 0l-26 121h-280l-60 -121h-171l356 690h183l163 -690h-165zM273 264h180l-54 255z" />
    <glyph glyph-name="uni0202" unicode="&#x202;" horiz-adv-x="718" 
d="M434 793c-30 0 -55 -22 -60 -53h-112c13 90 93 157 187 157s155 -67 143 -157h-113c5 31 -15 53 -45 53zM509 0l-26 121h-280l-60 -121h-171l356 690h183l163 -690h-165zM273 264h180l-54 255z" />
    <glyph glyph-name="Amacron" unicode="&#x100;" horiz-adv-x="718" 
d="M582 874l-17 -123h-273l17 123h273zM509 0l-26 121h-280l-60 -121h-171l356 690h183l163 -690h-165zM273 264h180l-54 255z" />
    <glyph glyph-name="Aogonek" unicode="&#x104;" horiz-adv-x="718" 
d="M673 0c-83 -34 -114 -68 -119 -98c-4 -29 18 -42 40 -42c21 0 48 10 67 24l-14 -103c-23 -15 -65 -26 -99 -26c-74 0 -123 49 -114 114c9 57 58 107 120 131h-45l-26 121h-280l-60 -121h-171l356 690h183l163 -690h-1zM273 264h180l-54 255z" />
    <glyph glyph-name="Aring" unicode="&#xc5;" horiz-adv-x="718" 
d="M425 731c-61 0 -102 45 -94 105c9 60 62 105 123 105s102 -45 94 -105c-9 -60 -62 -105 -123 -105zM407 836c-2 -19 10 -33 28 -33s34 14 37 33c2 19 -10 33 -28 33s-34 -14 -37 -33zM509 0l-26 121h-280l-60 -121h-171l356 690h183l163 -690h-165zM273 264h180l-54 255z
" />
    <glyph glyph-name="Atilde" unicode="&#xc3;" horiz-adv-x="718" 
d="M386 785c-20 0 -37 -16 -39 -35h-103c12 84 61 150 139 150c56 0 75 -37 107 -37c19 0 36 15 38 35h102c-11 -86 -60 -150 -139 -150c-56 0 -74 37 -105 37zM509 0l-26 121h-280l-60 -121h-171l356 690h183l163 -690h-165zM273 264h180l-54 255z" />
    <glyph glyph-name="AE" unicode="&#xc6;" horiz-adv-x="876" 
d="M878 544h-244l-17 -124h212l-22 -146h-210l-18 -128h248l-21 -146h-403l17 118h-230l-84 -118h-176l492 690h476zM291 261h149l36 262z" />
    <glyph glyph-name="AEacute" unicode="&#x1fc;" horiz-adv-x="876" 
d="M809 890l-151 -148h-153l121 148h183zM878 544h-244l-17 -124h212l-22 -146h-210l-18 -128h248l-21 -146h-403l17 118h-230l-84 -118h-176l492 690h476zM291 261h149l36 262z" />
    <glyph glyph-name="B" unicode="B" horiz-adv-x="575" 
d="M559 513c-10 -62 -49 -119 -96 -146c61 -25 96 -98 85 -180c-16 -109 -110 -187 -222 -187h-296l97 690h271c104 0 175 -74 161 -177zM395 485c5 38 -18 65 -55 65h-83l-18 -130h83c36 0 68 28 73 65zM392 214c6 42 -22 75 -64 75h-107l-21 -149h107c42 0 79 32 85 74z
" />
    <glyph glyph-name="C" unicode="C" horiz-adv-x="786" 
d="M359 -12c-208 0 -343 154 -314 357c28 203 207 357 415 357c191 0 321 -130 318 -309h-161c-7 94 -78 160 -178 160c-117 0 -218 -89 -235 -208s60 -208 176 -208c101 0 190 66 224 160h161c-48 -179 -215 -309 -406 -309z" />
    <glyph glyph-name="Cacute" unicode="&#x106;" horiz-adv-x="786" 
d="M382 742l121 148h183l-151 -148h-153zM359 -12c-208 0 -343 154 -314 357c28 203 207 357 415 357c191 0 321 -130 318 -309h-161c-7 94 -78 160 -178 160c-117 0 -218 -89 -235 -208s60 -208 176 -208c101 0 190 66 224 160h161c-48 -179 -215 -309 -406 -309z" />
    <glyph glyph-name="Ccaron" unicode="&#x10c;" horiz-adv-x="786" 
d="M553 742h-176l-78 148h137l40 -69l59 69h137zM439 553c-117 0 -218 -89 -235 -208s60 -208 176 -208c101 0 190 66 224 160h161c-48 -179 -215 -309 -406 -309c-208 0 -343 154 -314 357c28 203 207 357 415 357c191 0 321 -130 318 -309h-161c-7 94 -78 160 -178 160z
" />
    <glyph glyph-name="Ccedilla" unicode="&#xc7;" horiz-adv-x="786" 
d="M439 553c-117 0 -218 -89 -235 -208s60 -208 176 -208c101 0 190 66 224 160h161c-44 -162 -185 -284 -354 -306l-19 -20c53 -6 86 -51 78 -108c-9 -64 -69 -114 -140 -114s-117 50 -108 114h87c-3 -20 13 -35 33 -35s38 15 41 35s-13 35 -32 35c-13 0 -25 -7 -31 -13
l-76 36l66 70c-180 22 -292 167 -265 354c28 203 207 357 415 357c191 0 321 -130 318 -309h-161c-7 94 -78 160 -178 160z" />
    <glyph glyph-name="Ccircumflex" unicode="&#x108;" horiz-adv-x="786" 
d="M475 811l-60 -69h-137l120 148h175l79 -148h-137zM439 553c-117 0 -218 -89 -235 -208s60 -208 176 -208c101 0 190 66 224 160h161c-48 -179 -215 -309 -406 -309c-208 0 -343 154 -314 357c28 203 207 357 415 357c191 0 321 -130 318 -309h-161
c-7 94 -78 160 -178 160z" />
    <glyph glyph-name="Cdotaccent" unicode="&#x10a;" horiz-adv-x="786" 
d="M465 738c-48 0 -80 36 -73 85c6 48 48 84 97 84c48 0 80 -36 73 -84c-7 -49 -49 -85 -97 -85zM359 -12c-208 0 -343 154 -314 357c28 203 207 357 415 357c191 0 321 -130 318 -309h-161c-7 94 -78 160 -178 160c-117 0 -218 -89 -235 -208s60 -208 176 -208
c101 0 190 66 224 160h161c-48 -179 -215 -309 -406 -309z" />
    <glyph glyph-name="D" unicode="D" horiz-adv-x="723" 
d="M399 690c201 0 331 -148 304 -345c-28 -197 -200 -345 -401 -345h-272l97 690h272zM544 345c16 113 -56 199 -169 199h-114l-55 -398h113c112 0 209 86 225 199z" />
    <glyph glyph-name="uni01F1" unicode="&#x1f1;" horiz-adv-x="1304" 
d="M399 690c201 0 331 -148 304 -345c-28 -197 -200 -345 -401 -345h-272l97 690h272zM1324 690l-15 -111l-388 -433h333l-20 -146h-546l16 111l387 433h-322l20 146h535zM544 345c16 113 -56 199 -169 199h-114l-55 -398h113c112 0 209 86 225 199z" />
    <glyph glyph-name="uni01C4" unicode="&#x1c4;" horiz-adv-x="1304" 
d="M1152 742h-176l-78 148h137l40 -69l60 69h137zM399 690c201 0 331 -148 304 -345c-28 -197 -200 -345 -401 -345h-272l97 690h272zM1324 690l-15 -111l-388 -433h333l-20 -146h-546l16 111l387 433h-322l20 146h535zM544 345c16 113 -56 199 -169 199h-114l-55 -398h113
c112 0 209 86 225 199z" />
    <glyph glyph-name="Eth" unicode="&#xd0;" horiz-adv-x="723" 
d="M399 690c201 0 331 -148 304 -345c-28 -197 -200 -345 -401 -345h-272l41 292h-61l14 105h62l41 293h272zM544 345c16 113 -56 199 -169 199h-114l-20 -147h95l-15 -105h-95l-20 -146h113c112 0 209 86 225 199z" />
    <glyph glyph-name="Dcaron" unicode="&#x10e;" horiz-adv-x="723" 
d="M510 742h-176l-78 148h137l40 -69l59 69h137zM399 690c201 0 331 -148 304 -345c-28 -197 -200 -345 -401 -345h-272l97 690h272zM544 345c16 113 -56 199 -169 199h-114l-55 -398h113c112 0 209 86 225 199z" />
    <glyph glyph-name="Dcroat" unicode="&#x110;" horiz-adv-x="723" 
d="M399 690c201 0 331 -148 304 -345c-28 -197 -200 -345 -401 -345h-272l41 292h-61l14 105h62l41 293h272zM544 345c16 113 -56 199 -169 199h-114l-20 -147h95l-15 -105h-95l-20 -146h113c112 0 209 86 225 199z" />
    <glyph glyph-name="uni1E0C" unicode="&#x1e0c;" horiz-adv-x="723" 
d="M399 690c201 0 331 -148 304 -345c-28 -197 -200 -345 -401 -345h-272l97 690h272zM544 345c16 113 -56 199 -169 199h-114l-55 -398h113c112 0 209 86 225 199zM311 -48c49 0 81 -36 74 -85c-7 -48 -49 -84 -97 -84c-49 0 -80 36 -74 84c7 49 49 85 97 85z" />
    <glyph glyph-name="uni01F2" unicode="&#x1f2;" horiz-adv-x="1219" 
d="M399 690c201 0 331 -148 304 -345c-28 -197 -200 -345 -401 -345h-272l97 690h272zM544 345c16 113 -56 199 -169 199h-114l-55 -398h113c112 0 209 86 225 199zM1213 510l-16 -106l-250 -263h221l-20 -141h-426l16 106l250 263h-210l20 141h415z" />
    <glyph glyph-name="uni01C5" unicode="&#x1c5;" horiz-adv-x="1219" 
d="M1102 562h-176l-78 148h137l40 -69l60 69h137zM399 690c201 0 331 -148 304 -345c-28 -197 -200 -345 -401 -345h-272l97 690h272zM544 345c16 113 -56 199 -169 199h-114l-55 -398h113c112 0 209 86 225 199zM778 369l20 141h415l-16 -106l-250 -263h221l-20 -141h-426
l16 106l250 263h-210z" />
    <glyph glyph-name="E" unicode="E" horiz-adv-x="503" 
d="M505 544h-244l-17 -124h211l-21 -146h-210l-18 -128h247l-20 -146h-403l97 690h398z" />
    <glyph glyph-name="Eacute" unicode="&#xc9;" horiz-adv-x="503" 
d="M553 890l-151 -148h-153l121 148h183zM525 690l-20 -146h-244l-17 -124h211l-21 -146h-210l-18 -128h247l-20 -146h-403l97 690h398z" />
    <glyph glyph-name="Ebreve" unicode="&#x114;" horiz-adv-x="503" 
d="M331 732c-94 0 -156 68 -143 157h113c-5 -31 14 -53 44 -53s56 22 60 53h113c-13 -89 -93 -157 -187 -157zM505 544h-244l-17 -124h211l-21 -146h-210l-18 -128h247l-20 -146h-403l97 690h398z" />
    <glyph glyph-name="Ecaron" unicode="&#x11a;" horiz-adv-x="503" 
d="M421 742h-176l-78 148h137l40 -69l59 69h137zM525 690l-20 -146h-244l-17 -124h211l-21 -146h-210l-18 -128h247l-20 -146h-403l97 690h398z" />
    <glyph glyph-name="Ecircumflex" unicode="&#xca;" horiz-adv-x="503" 
d="M343 811l-60 -69h-137l120 148h175l79 -148h-137zM505 544h-244l-17 -124h211l-21 -146h-210l-18 -128h247l-20 -146h-403l97 690h398z" />
    <glyph glyph-name="uni0204" unicode="&#x204;" horiz-adv-x="503" 
d="M295 742h-141l-83 148h158zM518 742h-140l-84 148h159zM505 544h-244l-17 -124h211l-21 -146h-210l-18 -128h247l-20 -146h-403l97 690h398z" />
    <glyph glyph-name="Edieresis" unicode="&#xcb;" horiz-adv-x="503" 
d="M223 738c-46 0 -76 35 -70 81s47 80 93 80s76 -34 69 -80c-6 -46 -46 -81 -92 -81zM465 899c46 0 76 -34 69 -80c-6 -46 -46 -81 -92 -81s-76 35 -70 81s47 80 93 80zM525 690l-20 -146h-244l-17 -124h211l-21 -146h-210l-18 -128h247l-20 -146h-403l97 690h398z" />
    <glyph glyph-name="Edotaccent" unicode="&#x116;" horiz-adv-x="503" 
d="M332 738c-48 0 -80 36 -73 85c6 48 48 84 97 84c48 0 80 -36 73 -84c-7 -49 -49 -85 -97 -85zM505 544h-244l-17 -124h211l-21 -146h-210l-18 -128h247l-20 -146h-403l97 690h398z" />
    <glyph glyph-name="uni1EB8" unicode="&#x1eb8;" horiz-adv-x="503" 
d="M505 544h-244l-17 -124h211l-21 -146h-210l-18 -128h247l-20 -146h-403l97 690h398zM221 -48c49 0 81 -36 74 -85c-7 -48 -49 -84 -97 -84c-49 0 -80 36 -74 84c7 49 49 85 97 85z" />
    <glyph glyph-name="Egrave" unicode="&#xc8;" horiz-adv-x="503" 
d="M416 742h-153l-109 148h183zM505 544h-244l-17 -124h211l-21 -146h-210l-18 -128h247l-20 -146h-403l97 690h398z" />
    <glyph glyph-name="uni0206" unicode="&#x206;" horiz-adv-x="503" 
d="M339 793c-30 0 -55 -22 -60 -53h-112c13 90 93 157 187 157s155 -67 143 -157h-113c5 31 -15 53 -45 53zM505 544h-244l-17 -124h211l-21 -146h-210l-18 -128h247l-20 -146h-403l97 690h398z" />
    <glyph glyph-name="Emacron" unicode="&#x112;" horiz-adv-x="503" 
d="M488 874l-17 -123h-273l17 123h273zM505 544h-244l-17 -124h211l-21 -146h-210l-18 -128h247l-20 -146h-403l97 690h398z" />
    <glyph glyph-name="Eogonek" unicode="&#x118;" horiz-adv-x="503" 
d="M505 544h-244l-17 -124h211l-21 -146h-210l-18 -128h247l-20 -146h-6c-83 -34 -114 -68 -119 -98c-4 -29 18 -42 40 -42c21 0 48 10 67 24l-14 -103c-23 -15 -65 -26 -99 -26c-74 0 -123 49 -114 114c9 57 58 107 120 131h-278l97 690h398z" />
    <glyph glyph-name="uni1EBC" unicode="&#x1ebc;" horiz-adv-x="503" 
d="M292 785c-20 0 -37 -16 -39 -35h-103c12 84 61 150 139 150c56 0 75 -37 107 -37c19 0 36 15 38 35h102c-11 -86 -60 -150 -139 -150c-56 0 -74 37 -105 37zM525 690l-20 -146h-244l-17 -124h211l-21 -146h-210l-18 -128h247l-20 -146h-403l97 690h398z" />
    <glyph glyph-name="F" unicode="F" horiz-adv-x="476" 
d="M490 544h-229l-18 -131h189l-20 -146h-189l-38 -267h-155l97 690h383z" />
    <glyph glyph-name="G" unicode="G" horiz-adv-x="782" 
d="M424 395h350c-3 -17 -5 -35 -7 -53c-31 -202 -206 -354 -408 -354c-208 0 -343 154 -314 357c28 203 207 357 415 357c168 0 292 -101 308 -240h-173c-24 55 -81 91 -156 91c-117 0 -218 -89 -235 -208s60 -208 176 -208c88 0 166 48 204 118h-179z" />
    <glyph glyph-name="uni01F4" unicode="&#x1f4;" horiz-adv-x="782" 
d="M686 890l-151 -148h-153l121 148h183zM424 395h350c-3 -17 -5 -35 -7 -53c-31 -202 -206 -354 -408 -354c-208 0 -343 154 -314 357c28 203 207 357 415 357c168 0 292 -101 308 -240h-173c-24 55 -81 91 -156 91c-117 0 -218 -89 -235 -208s60 -208 176 -208
c88 0 166 48 204 118h-179z" />
    <glyph glyph-name="Gbreve" unicode="&#x11e;" horiz-adv-x="782" 
d="M464 732c-94 0 -156 68 -143 157h113c-5 -31 14 -53 44 -53s56 22 60 53h113c-13 -89 -93 -157 -187 -157zM424 395h350c-3 -17 -5 -35 -7 -53c-31 -202 -206 -354 -408 -354c-208 0 -343 154 -314 357c28 203 207 357 415 357c168 0 292 -101 308 -240h-173
c-24 55 -81 91 -156 91c-117 0 -218 -89 -235 -208s60 -208 176 -208c88 0 166 48 204 118h-179z" />
    <glyph glyph-name="Gcaron" unicode="&#x1e6;" horiz-adv-x="782" 
d="M553 742h-176l-78 148h137l40 -69l59 69h137zM424 395h350c-3 -17 -5 -35 -7 -53c-31 -202 -206 -354 -408 -354c-208 0 -343 154 -314 357c28 203 207 357 415 357c168 0 292 -101 308 -240h-173c-24 55 -81 91 -156 91c-117 0 -218 -89 -235 -208s60 -208 176 -208
c88 0 166 48 204 118h-179z" />
    <glyph glyph-name="Gcircumflex" unicode="&#x11c;" horiz-adv-x="782" 
d="M475 811l-60 -69h-137l120 148h175l79 -148h-137zM424 395h350c-3 -17 -5 -35 -7 -53c-31 -202 -206 -354 -408 -354c-208 0 -343 154 -314 357c28 203 207 357 415 357c168 0 292 -101 308 -240h-173c-24 55 -81 91 -156 91c-117 0 -218 -89 -235 -208s60 -208 176 -208
c88 0 166 48 204 118h-179z" />
    <glyph glyph-name="uni0122" unicode="&#x122;" horiz-adv-x="782" 
d="M424 395h350c-3 -17 -5 -35 -7 -53c-31 -202 -206 -354 -408 -354c-208 0 -343 154 -314 357c28 203 207 357 415 357c168 0 292 -101 308 -240h-173c-24 55 -81 91 -156 91c-117 0 -218 -89 -235 -208s60 -208 176 -208c88 0 166 48 204 118h-179zM227 -227l67 175h150
l-97 -175h-120z" />
    <glyph glyph-name="Gdotaccent" unicode="&#x120;" horiz-adv-x="782" 
d="M465 738c-48 0 -80 36 -73 85c6 48 48 84 97 84c48 0 80 -36 73 -84c-7 -49 -49 -85 -97 -85zM424 395h350c-3 -17 -5 -35 -7 -53c-31 -202 -206 -354 -408 -354c-208 0 -343 154 -314 357c28 203 207 357 415 357c168 0 292 -101 308 -240h-173c-24 55 -81 91 -156 91
c-117 0 -218 -89 -235 -208s60 -208 176 -208c88 0 166 48 204 118h-179z" />
    <glyph glyph-name="H" unicode="H" horiz-adv-x="719" 
d="M559 690h155l-97 -690h-155l39 274h-277l-39 -274h-155l97 690h155l-38 -270h277z" />
    <glyph glyph-name="Hbar" unicode="&#x126;" horiz-adv-x="719" 
d="M755 599l-15 -106h-54l-69 -493h-155l39 274h-277l-39 -274h-155l69 493h-54l14 106h55l13 91h155l-13 -91h277l13 91h155l-13 -91h54zM521 420l10 73h-277l-10 -73h277z" />
    <glyph glyph-name="Hcircumflex" unicode="&#x124;" horiz-adv-x="719" 
d="M439 811l-60 -69h-137l120 148h175l79 -148h-137zM559 690h155l-97 -690h-155l39 274h-277l-39 -274h-155l97 690h155l-38 -270h277z" />
    <glyph glyph-name="uni1E24" unicode="&#x1e24;" horiz-adv-x="719" 
d="M559 690h155l-97 -690h-155l39 274h-277l-39 -274h-155l97 690h155l-38 -270h277zM316 -48c49 0 81 -36 74 -85c-7 -48 -49 -84 -97 -84c-49 0 -80 36 -74 84c7 49 49 85 97 85z" />
    <glyph glyph-name="I" unicode="I" horiz-adv-x="287" 
d="M30 0l97 690h155l-97 -690h-155z" />
    <glyph glyph-name="IJ" unicode="&#x132;" horiz-adv-x="834" 
d="M30 0l97 690h155l-97 -690h-155zM501 -12c-138 0 -228 101 -209 234h159c-6 -48 25 -85 72 -85c49 0 91 37 97 85l66 468h155l-66 -468c-18 -133 -136 -234 -274 -234z" />
    <glyph glyph-name="Iacute" unicode="&#xcd;" horiz-adv-x="287" 
d="M128 742l121 148h183l-151 -148h-153zM30 0l97 690h155l-97 -690h-155z" />
    <glyph glyph-name="Ibreve" unicode="&#x12c;" horiz-adv-x="287" 
d="M211 732c-94 0 -156 68 -143 157h113c-5 -31 14 -53 44 -53s56 22 60 53h113c-13 -89 -93 -157 -187 -157zM30 0l97 690h155l-97 -690h-155z" />
    <glyph glyph-name="Icircumflex" unicode="&#xce;" horiz-adv-x="287" 
d="M222 811l-60 -69h-137l120 148h175l79 -148h-137zM30 0l97 690h155l-97 -690h-155z" />
    <glyph glyph-name="uni0208" unicode="&#x208;" horiz-adv-x="287" 
d="M34 742l-83 148h158l66 -148h-141zM258 742l-84 148h159l65 -148h-140zM30 0l97 690h155l-97 -690h-155z" />
    <glyph glyph-name="Idieresis" unicode="&#xcf;" horiz-adv-x="287" 
d="M102 738c-46 0 -76 35 -70 81s47 80 93 80s76 -34 69 -80c-6 -46 -46 -81 -92 -81zM321 738c-46 0 -76 35 -70 81s47 80 93 80s76 -34 69 -80c-6 -46 -46 -81 -92 -81zM30 0l97 690h155l-97 -690h-155z" />
    <glyph glyph-name="Idotaccent" unicode="&#x130;" horiz-adv-x="287" 
d="M212 738c-48 0 -80 36 -73 85c6 48 48 84 97 84c48 0 80 -36 73 -84c-7 -49 -49 -85 -97 -85zM30 0l97 690h155l-97 -690h-155z" />
    <glyph glyph-name="uni1ECA" unicode="&#x1eca;" horiz-adv-x="287" 
d="M30 0l97 690h155l-97 -690h-155zM78 -217c-49 0 -80 36 -74 84c7 49 49 85 97 85c49 0 81 -36 74 -85c-7 -48 -49 -84 -97 -84z" />
    <glyph glyph-name="Igrave" unicode="&#xcc;" horiz-adv-x="287" 
d="M142 742l-109 148h183l79 -148h-153zM30 0l97 690h155l-97 -690h-155z" />
    <glyph glyph-name="uni020A" unicode="&#x20a;" horiz-adv-x="287" 
d="M47 740c13 90 93 157 187 157s155 -67 143 -157h-113c5 31 -15 53 -45 53s-55 -22 -60 -53h-112zM30 0l97 690h155l-97 -690h-155z" />
    <glyph glyph-name="Imacron" unicode="&#x12a;" horiz-adv-x="287" 
d="M77 751l17 123h273l-17 -123h-273zM30 0l97 690h155l-97 -690h-155z" />
    <glyph glyph-name="Iogonek" unicode="&#x12e;" horiz-adv-x="287" 
d="M127 690h155l-97 -690h-1c-83 -34 -114 -68 -119 -98c-4 -29 18 -42 40 -42c21 0 48 10 67 24l-14 -103c-23 -15 -65 -26 -99 -26c-74 0 -123 49 -114 114c9 57 58 107 120 131h-35z" />
    <glyph glyph-name="Itilde" unicode="&#x128;" horiz-adv-x="287" 
d="M277 748c-56 0 -74 37 -105 37c-20 0 -37 -16 -39 -35h-103c12 84 61 150 139 150c56 0 75 -37 107 -37c19 0 36 15 38 35h102c-11 -86 -60 -150 -139 -150zM30 0l97 690h155l-97 -690h-155z" />
    <glyph glyph-name="J" unicode="J" horiz-adv-x="547" 
d="M214 -12c-138 0 -228 101 -209 234h159c-6 -48 25 -85 72 -85c49 0 91 37 97 85l66 468h155l-66 -468c-18 -133 -136 -234 -274 -234z" />
    <glyph glyph-name="Jcircumflex" unicode="&#x134;" horiz-adv-x="547" 
d="M494 811l-60 -69h-137l120 148h175l79 -148h-137zM333 222l66 468h155l-66 -468c-18 -133 -136 -234 -274 -234s-228 101 -209 234h159c-6 -48 25 -85 72 -85c49 0 91 37 97 85z" />
    <glyph glyph-name="K" unicode="K" horiz-adv-x="642" 
d="M702 690l-328 -343l237 -347h-193l-192 285l-41 -285h-155l97 690h155l-39 -280l269 280h190z" />
    <glyph glyph-name="uni0136" unicode="&#x136;" horiz-adv-x="642" 
d="M702 690l-328 -343l237 -347h-193l-192 285l-41 -285h-155l97 690h155l-39 -280l269 280h190zM157 -227l67 175h150l-97 -175h-120z" />
    <glyph glyph-name="L" unicode="L" horiz-adv-x="461" 
d="M206 146h217l-20 -146h-373l97 690h155z" />
    <glyph glyph-name="uni01C7" unicode="&#x1c7;" horiz-adv-x="1011" 
d="M282 690l-76 -544h217l-20 -146h-373l97 690h155zM863 690h155l-66 -468c-18 -133 -136 -234 -274 -234s-228 101 -209 234h159c-6 -48 25 -85 72 -85c49 0 91 37 97 85z" />
    <glyph glyph-name="Lacute" unicode="&#x139;" horiz-adv-x="461" 
d="M432 890l-151 -148h-153l121 148h183zM282 690l-76 -544h217l-20 -146h-373l97 690h155z" />
    <glyph glyph-name="Lcaron" unicode="&#x13d;" horiz-adv-x="483" 
d="M282 690l-76 -544h217l-20 -146h-373l97 690h155zM368 690h132l-75 -230h-110z" />
    <glyph glyph-name="uni013B" unicode="&#x13b;" horiz-adv-x="461" 
d="M206 146h217l-20 -146h-373l97 690h155zM79 -227l67 175h150l-97 -175h-120z" />
    <glyph glyph-name="Ldot" unicode="&#x13f;" horiz-adv-x="495" 
d="M282 690l-76 -544h217l-20 -146h-373l97 690h155zM392 450c51 0 84 -38 77 -89s-51 -89 -102 -89c-50 0 -83 38 -76 89s50 89 101 89z" />
    <glyph glyph-name="uni01C8" unicode="&#x1c8;" horiz-adv-x="728" 
d="M667 754c51 0 85 -38 78 -89c-8 -52 -52 -90 -103 -90c-52 0 -86 38 -78 90c7 51 51 89 103 89zM423 146l-20 -146h-373l97 690h155l-76 -544h217zM488 4l72 506h146l-73 -514c-18 -133 -102 -198 -250 -198l19 133c49 0 80 24 86 73z" />
    <glyph glyph-name="Lslash" unicode="&#x141;" horiz-adv-x="461" 
d="M206 146h217l-20 -146h-373l31 224l-60 -31l20 141l60 31l46 325h155l-34 -240l111 56l-20 -140l-110 -57z" />
    <glyph glyph-name="M" unicode="M" horiz-adv-x="902" 
d="M700 690h198l-97 -690h-155l59 423l-237 -423h-106l-118 424l-59 -424h-155l97 690h200l124 -448z" />
    <glyph glyph-name="N" unicode="N" horiz-adv-x="729" 
d="M570 690h155l-97 -690h-157l-227 422l-59 -422h-155l97 690h156l228 -422z" />
    <glyph glyph-name="uni01CA" unicode="&#x1ca;" horiz-adv-x="1276" 
d="M511 268l59 422h155l-97 -690h-157l-227 422l-59 -422h-155l97 690h156zM1128 690h155l-66 -468c-18 -133 -136 -234 -274 -234s-228 101 -209 234h159c-6 -48 25 -85 72 -85c49 0 91 37 97 85z" />
    <glyph glyph-name="Nacute" unicode="&#x143;" horiz-adv-x="729" 
d="M657 890l-151 -148h-153l121 148h183zM570 690h155l-97 -690h-157l-227 422l-59 -422h-155l97 690h156l228 -422z" />
    <glyph glyph-name="Ncaron" unicode="&#x147;" horiz-adv-x="729" 
d="M525 742h-176l-78 148h137l40 -69l59 69h137zM570 690h155l-97 -690h-157l-227 422l-59 -422h-155l97 690h156l228 -422z" />
    <glyph glyph-name="uni0145" unicode="&#x145;" horiz-adv-x="729" 
d="M570 690h155l-97 -690h-157l-227 422l-59 -422h-155l97 690h156l228 -422zM195 -227l67 175h150l-97 -175h-120z" />
    <glyph glyph-name="uni1E44" unicode="&#x1e44;" horiz-adv-x="729" 
d="M436 738c-48 0 -80 36 -73 85c6 48 48 84 97 84c48 0 80 -36 73 -84c-7 -49 -49 -85 -97 -85zM570 690h155l-97 -690h-157l-227 422l-59 -422h-155l97 690h156l228 -422z" />
    <glyph glyph-name="Eng" unicode="&#x14a;" horiz-adv-x="729" 
d="M725 690l-97 -690h-1l-2 -20c-18 -126 -100 -188 -240 -188l20 142c36 0 61 16 66 51l2 15h-2l-227 422l-59 -422h-155l97 690h156l228 -422l59 422h155z" />
    <glyph glyph-name="uni01CB" unicode="&#x1cb;" horiz-adv-x="996" 
d="M935 754c51 0 85 -38 78 -89c-8 -52 -52 -90 -103 -90c-52 0 -86 38 -78 90c7 51 51 89 103 89zM570 690h155l-97 -690h-157l-227 422l-59 -422h-155l97 690h156l228 -422zM756 4l72 506h146l-73 -514c-18 -133 -102 -198 -250 -198l19 133c49 0 80 24 86 73z" />
    <glyph glyph-name="Ntilde" unicode="&#xd1;" horiz-adv-x="729" 
d="M396 785c-20 0 -37 -16 -39 -35h-103c12 84 61 150 139 150c56 0 75 -37 107 -37c19 0 36 15 38 35h102c-11 -86 -60 -150 -139 -150c-56 0 -74 37 -105 37zM570 690h155l-97 -690h-157l-227 422l-59 -422h-155l97 690h156l228 -422z" />
    <glyph glyph-name="O" unicode="O" horiz-adv-x="794" 
d="M359 -12c-208 0 -343 154 -314 357c28 203 207 357 415 357s343 -154 315 -357c-29 -203 -208 -357 -416 -357zM380 137c117 0 219 89 236 208s-60 208 -177 208s-218 -89 -235 -208s60 -208 176 -208z" />
    <glyph glyph-name="Oacute" unicode="&#xd3;" horiz-adv-x="794" 
d="M382 742l121 148h183l-151 -148h-153zM359 -12c-208 0 -343 154 -314 357c28 203 207 357 415 357s343 -154 315 -357c-29 -203 -208 -357 -416 -357zM380 137c117 0 219 89 236 208s-60 208 -177 208s-218 -89 -235 -208s60 -208 176 -208z" />
    <glyph glyph-name="Obreve" unicode="&#x14e;" horiz-adv-x="794" 
d="M464 732c-94 0 -156 68 -143 157h113c-5 -31 14 -53 44 -53s56 22 60 53h113c-13 -89 -93 -157 -187 -157zM359 -12c-208 0 -343 154 -314 357c28 203 207 357 415 357s343 -154 315 -357c-29 -203 -208 -357 -416 -357zM380 137c117 0 219 89 236 208s-60 208 -177 208
s-218 -89 -235 -208s60 -208 176 -208z" />
    <glyph glyph-name="Ocircumflex" unicode="&#xd4;" horiz-adv-x="794" 
d="M475 811l-60 -69h-137l120 148h175l79 -148h-137zM460 702c208 0 343 -154 315 -357c-29 -203 -208 -357 -416 -357s-343 154 -314 357c28 203 207 357 415 357zM616 345c17 119 -60 208 -177 208s-218 -89 -235 -208s60 -208 176 -208c117 0 219 89 236 208z" />
    <glyph glyph-name="uni020C" unicode="&#x20c;" horiz-adv-x="794" 
d="M287 742l-83 148h158l66 -148h-141zM511 742l-84 148h159l65 -148h-140zM359 -12c-208 0 -343 154 -314 357c28 203 207 357 415 357s343 -154 315 -357c-29 -203 -208 -357 -416 -357zM380 137c117 0 219 89 236 208s-60 208 -177 208s-218 -89 -235 -208
s60 -208 176 -208z" />
    <glyph glyph-name="Odieresis" unicode="&#xd6;" horiz-adv-x="794" 
d="M355 738c-46 0 -76 35 -70 81s47 80 93 80s76 -34 69 -80c-6 -46 -46 -81 -92 -81zM574 738c-46 0 -76 35 -70 81s47 80 93 80s76 -34 69 -80c-6 -46 -46 -81 -92 -81zM359 -12c-208 0 -343 154 -314 357c28 203 207 357 415 357s343 -154 315 -357
c-29 -203 -208 -357 -416 -357zM380 137c117 0 219 89 236 208s-60 208 -177 208s-218 -89 -235 -208s60 -208 176 -208z" />
    <glyph glyph-name="uni1ECC" unicode="&#x1ecc;" horiz-adv-x="794" 
d="M359 -12c-208 0 -343 154 -314 357c28 203 207 357 415 357s343 -154 315 -357c-29 -203 -208 -357 -416 -357zM380 137c117 0 219 89 236 208s-60 208 -177 208s-218 -89 -235 -208s60 -208 176 -208zM331 -217c-49 0 -80 36 -74 84c7 49 49 85 97 85
c49 0 81 -36 74 -85c-7 -48 -49 -84 -97 -84z" />
    <glyph glyph-name="Ograve" unicode="&#xd2;" horiz-adv-x="794" 
d="M396 742l-109 148h183l79 -148h-153zM359 -12c-208 0 -343 154 -314 357c28 203 207 357 415 357s343 -154 315 -357c-29 -203 -208 -357 -416 -357zM380 137c117 0 219 89 236 208s-60 208 -177 208s-218 -89 -235 -208s60 -208 176 -208z" />
    <glyph glyph-name="Ohungarumlaut" unicode="&#x150;" horiz-adv-x="794" 
d="M279 742l107 148h158l-124 -148h-141zM503 742l106 148h159l-125 -148h-140zM359 -12c-208 0 -343 154 -314 357c28 203 207 357 415 357s343 -154 315 -357c-29 -203 -208 -357 -416 -357zM380 137c117 0 219 89 236 208s-60 208 -177 208s-218 -89 -235 -208
s60 -208 176 -208z" />
    <glyph glyph-name="uni020E" unicode="&#x20e;" horiz-adv-x="794" 
d="M300 740c13 90 93 157 187 157s155 -67 143 -157h-113c5 31 -15 53 -45 53s-55 -22 -60 -53h-112zM359 -12c-208 0 -343 154 -314 357c28 203 207 357 415 357s343 -154 315 -357c-29 -203 -208 -357 -416 -357zM380 137c117 0 219 89 236 208s-60 208 -177 208
s-218 -89 -235 -208s60 -208 176 -208z" />
    <glyph glyph-name="Omacron" unicode="&#x14c;" horiz-adv-x="794" 
d="M330 751l17 123h273l-17 -123h-273zM359 -12c-208 0 -343 154 -314 357c28 203 207 357 415 357s343 -154 315 -357c-29 -203 -208 -357 -416 -357zM380 137c117 0 219 89 236 208s-60 208 -177 208s-218 -89 -235 -208s60 -208 176 -208z" />
    <glyph glyph-name="uni01EA" unicode="&#x1ea;" horiz-adv-x="794" 
d="M460 702c208 0 343 -154 315 -357c-23 -161 -141 -292 -293 -339c-67 -30 -92 -61 -97 -88c-4 -29 18 -42 40 -42c21 0 48 10 67 24l-14 -103c-23 -15 -65 -26 -99 -26c-74 0 -123 49 -114 114c6 40 33 77 70 104c-194 11 -318 161 -290 356c28 203 207 357 415 357z
M616 345c17 119 -60 208 -177 208s-218 -89 -235 -208s60 -208 176 -208c117 0 219 89 236 208z" />
    <glyph glyph-name="Oslash" unicode="&#xd8;" horiz-adv-x="794" 
d="M817 690l-101 -102c49 -63 72 -147 59 -243c-29 -203 -208 -357 -416 -357c-73 0 -137 19 -189 53l-40 -41h-128l102 102c-50 63 -73 147 -59 243c28 203 207 357 415 357c73 0 137 -19 189 -53l40 41h128zM204 345c-7 -46 1 -88 20 -122l307 308c-26 14 -57 22 -92 22
c-117 0 -218 -89 -235 -208zM616 345c7 47 -1 89 -20 123l-308 -309c26 -14 58 -22 92 -22c117 0 219 89 236 208z" />
    <glyph glyph-name="Oslashacute" unicode="&#x1fe;" horiz-adv-x="794" 
d="M705 890l-151 -148h-153l121 148h183zM817 690l-101 -102c49 -63 72 -147 59 -243c-29 -203 -208 -357 -416 -357c-73 0 -137 19 -189 53l-40 -41h-128l102 102c-50 63 -73 147 -59 243c28 203 207 357 415 357c73 0 137 -19 189 -53l40 41h128zM204 345
c-7 -46 1 -88 20 -122l307 308c-26 14 -57 22 -92 22c-117 0 -218 -89 -235 -208zM616 345c7 47 -1 89 -20 123l-308 -309c26 -14 58 -22 92 -22c117 0 219 89 236 208z" />
    <glyph glyph-name="Otilde" unicode="&#xd5;" horiz-adv-x="794" 
d="M530 748c-56 0 -74 37 -105 37c-20 0 -37 -16 -39 -35h-103c12 84 61 150 139 150c56 0 75 -37 107 -37c19 0 36 15 38 35h102c-11 -86 -60 -150 -139 -150zM359 -12c-208 0 -343 154 -314 357c28 203 207 357 415 357s343 -154 315 -357c-29 -203 -208 -357 -416 -357z
M380 137c117 0 219 89 236 208s-60 208 -177 208s-218 -89 -235 -208s60 -208 176 -208z" />
    <glyph glyph-name="OE" unicode="&#x152;" horiz-adv-x="867" 
d="M869 544h-244l-17 -124h211l-21 -146h-210l-18 -128h248l-21 -146h-448c-202 0 -332 148 -304 345c27 197 199 345 401 345h443zM373 146h42l55 398h-41c-112 0 -209 -86 -225 -199s56 -199 169 -199z" />
    <glyph glyph-name="P" unicode="P" horiz-adv-x="581" 
d="M382 690c138 0 228 -101 210 -235c-19 -134 -138 -235 -276 -235h-100l-31 -220h-155l97 690h255zM433 455c7 51 -25 89 -75 89h-97l-25 -178h97c50 0 93 39 100 89z" />
    <glyph glyph-name="Thorn" unicode="&#xde;" horiz-adv-x="578" 
d="M366 580c138 0 229 -101 210 -235s-138 -234 -276 -234h-99l-16 -111h-155l97 690h155l-15 -110h99zM417 345c7 51 -25 89 -74 89h-97l-25 -177h97c50 0 91 38 99 88z" />
    <glyph glyph-name="Q" unicode="Q" horiz-adv-x="794" 
d="M460 702c208 0 343 -154 315 -357c-17 -121 -88 -225 -186 -289l64 -141h-161l-38 84c-31 -7 -63 -11 -95 -11c-208 0 -343 154 -314 357c28 203 207 357 415 357zM616 345c17 119 -60 208 -177 208s-218 -89 -235 -208s60 -208 176 -208h11l-63 138h161l39 -85
c46 37 79 92 88 155z" />
    <glyph glyph-name="R" unicode="R" 
d="M582 459c-14 -98 -83 -175 -175 -207l129 -252h-193l-113 236h-12l-33 -236h-155l97 690h247c137 0 227 -99 208 -231zM423 457c7 50 -24 87 -73 87h-89l-24 -173h89c48 0 90 37 97 86z" />
    <glyph glyph-name="Racute" unicode="&#x154;" 
d="M577 890l-151 -148h-153l121 148h183zM582 459c-14 -98 -83 -175 -175 -207l129 -252h-193l-113 236h-12l-33 -236h-155l97 690h247c137 0 227 -99 208 -231zM423 457c7 50 -24 87 -73 87h-89l-24 -173h89c48 0 90 37 97 86z" />
    <glyph glyph-name="Rcaron" unicode="&#x158;" 
d="M445 742h-176l-78 148h137l40 -69l59 69h137zM582 459c-14 -98 -83 -175 -175 -207l129 -252h-193l-113 236h-12l-33 -236h-155l97 690h247c137 0 227 -99 208 -231zM423 457c7 50 -24 87 -73 87h-89l-24 -173h89c48 0 90 37 97 86z" />
    <glyph glyph-name="uni0156" unicode="&#x156;" 
d="M582 459c-14 -98 -83 -175 -175 -207l129 -252h-193l-113 236h-12l-33 -236h-155l97 690h247c137 0 227 -99 208 -231zM423 457c7 50 -24 87 -73 87h-89l-24 -173h89c48 0 90 37 97 86zM128 -227l67 175h150l-97 -175h-120z" />
    <glyph glyph-name="uni0210" unicode="&#x210;" 
d="M319 742h-141l-83 148h158zM542 742h-140l-84 148h159zM582 459c-14 -98 -83 -175 -175 -207l129 -252h-193l-113 236h-12l-33 -236h-155l97 690h247c137 0 227 -99 208 -231zM423 457c7 50 -24 87 -73 87h-89l-24 -173h89c48 0 90 37 97 86z" />
    <glyph glyph-name="uni1E5A" unicode="&#x1e5a;" 
d="M582 459c-14 -98 -83 -175 -175 -207l129 -252h-193l-113 236h-12l-33 -236h-155l97 690h247c137 0 227 -99 208 -231zM423 457c7 50 -24 87 -73 87h-89l-24 -173h89c48 0 90 37 97 86zM255 -48c49 0 81 -36 74 -85c-7 -48 -49 -84 -97 -84c-49 0 -80 36 -74 84
c7 49 49 85 97 85z" />
    <glyph glyph-name="uni0212" unicode="&#x212;" 
d="M364 793c-30 0 -55 -22 -60 -53h-112c13 90 93 157 187 157s155 -67 143 -157h-113c5 31 -15 53 -45 53zM582 459c-14 -98 -83 -175 -175 -207l129 -252h-193l-113 236h-12l-33 -236h-155l97 690h247c137 0 227 -99 208 -231zM423 457c7 50 -24 87 -73 87h-89l-24 -173
h89c48 0 90 37 97 86z" />
    <glyph glyph-name="S" unicode="S" horiz-adv-x="549" 
d="M237 -12c-139 0 -230 94 -213 219h159c-6 -45 27 -81 76 -81c46 0 86 29 91 66c7 47 -47 72 -109 89c-96 25 -184 85 -166 216c16 117 129 205 261 205c135 0 223 -90 205 -210h-158c5 41 -23 72 -67 72c-41 0 -76 -26 -81 -61c-6 -44 37 -68 101 -86
c101 -28 194 -79 175 -215c-17 -122 -135 -214 -274 -214z" />
    <glyph glyph-name="Sacute" unicode="&#x15a;" horiz-adv-x="549" 
d="M259 742l121 148h183l-151 -148h-153zM237 -12c-139 0 -230 94 -213 219h159c-6 -45 27 -81 76 -81c46 0 86 29 91 66c7 47 -47 72 -109 89c-96 25 -184 85 -166 216c16 117 129 205 261 205c135 0 223 -90 205 -210h-158c5 41 -23 72 -67 72c-41 0 -76 -26 -81 -61
c-6 -44 37 -68 101 -86c101 -28 194 -79 175 -215c-17 -122 -135 -214 -274 -214z" />
    <glyph glyph-name="Scaron" unicode="&#x160;" horiz-adv-x="549" 
d="M431 742h-176l-78 148h137l40 -69l59 69h137zM336 702c135 0 223 -90 205 -210h-158c5 41 -23 72 -67 72c-41 0 -76 -26 -81 -61c-6 -44 37 -68 101 -86c101 -28 194 -79 175 -215c-17 -122 -135 -214 -274 -214s-230 94 -213 219h159c-6 -45 27 -81 76 -81
c46 0 86 29 91 66c7 47 -47 72 -109 89c-96 25 -184 85 -166 216c16 117 129 205 261 205z" />
    <glyph glyph-name="Scedilla" unicode="&#x15e;" horiz-adv-x="549" 
d="M541 492h-158c5 41 -23 72 -67 72c-41 0 -76 -26 -81 -61c-6 -44 37 -68 101 -86c101 -28 194 -79 175 -215c-15 -106 -106 -189 -220 -209l-21 -22c53 -6 86 -51 78 -108c-9 -64 -69 -114 -140 -114s-117 50 -108 114h87c-3 -20 13 -35 33 -35s38 15 41 35
s-13 35 -32 35c-13 0 -25 -7 -31 -13l-76 36l67 71c-111 19 -180 105 -165 215h159c-6 -45 27 -81 76 -81c46 0 86 29 91 66c7 47 -47 72 -109 89c-96 25 -184 85 -166 216c16 117 129 205 261 205c135 0 223 -90 205 -210z" />
    <glyph glyph-name="Scircumflex" unicode="&#x15c;" horiz-adv-x="549" 
d="M353 811l-60 -69h-137l120 148h175l79 -148h-137zM541 492h-158c5 41 -23 72 -67 72c-41 0 -76 -26 -81 -61c-6 -44 37 -68 101 -86c101 -28 194 -79 175 -215c-17 -122 -135 -214 -274 -214s-230 94 -213 219h159c-6 -45 27 -81 76 -81c46 0 86 29 91 66
c7 47 -47 72 -109 89c-96 25 -184 85 -166 216c16 117 129 205 261 205c135 0 223 -90 205 -210z" />
    <glyph glyph-name="uni0218" unicode="&#x218;" horiz-adv-x="549" 
d="M237 -12c-139 0 -230 94 -213 219h159c-6 -45 27 -81 76 -81c46 0 86 29 91 66c7 47 -47 72 -109 89c-96 25 -184 85 -166 216c16 117 129 205 261 205c135 0 223 -90 205 -210h-158c5 41 -23 72 -67 72c-41 0 -76 -26 -81 -61c-6 -44 37 -68 101 -86
c101 -28 194 -79 175 -215c-17 -122 -135 -214 -274 -214zM105 -227l67 175h150l-97 -175h-120z" />
    <glyph glyph-name="uni1E62" unicode="&#x1e62;" horiz-adv-x="549" 
d="M237 -12c-139 0 -230 94 -213 219h159c-6 -45 27 -81 76 -81c46 0 86 29 91 66c7 47 -47 72 -109 89c-96 25 -184 85 -166 216c16 117 129 205 261 205c135 0 223 -90 205 -210h-158c5 41 -23 72 -67 72c-41 0 -76 -26 -81 -61c-6 -44 37 -68 101 -86
c101 -28 194 -79 175 -215c-17 -122 -135 -214 -274 -214zM209 -217c-49 0 -80 36 -74 84c7 49 49 85 97 85c49 0 81 -36 74 -85c-7 -48 -49 -84 -97 -84z" />
    <glyph glyph-name="uni1E9E" unicode="&#x1e9e;" horiz-adv-x="632" 
d="M487 418c87 -29 139 -111 125 -211c-18 -126 -130 -219 -258 -219c-42 0 -88 11 -112 26l21 153c16 -17 54 -30 86 -30c54 0 98 32 104 77c6 42 -22 74 -64 74h-79l15 113l118 143h-124c-37 0 -65 -25 -70 -61l-68 -483h-155l70 499c16 114 107 191 225 191h311l-18 -128
z" />
    <glyph glyph-name="T" unicode="T" horiz-adv-x="547" 
d="M583 690l-20 -146h-172l-76 -544h-155l76 544h-171l21 146h497z" />
    <glyph glyph-name="Tbar" unicode="&#x166;" horiz-adv-x="547" 
d="M563 544h-172l-25 -179h79l-15 -105h-79l-36 -260h-155l36 260h-77l14 105h78l25 179h-171l21 146h497z" />
    <glyph glyph-name="Tcaron" unicode="&#x164;" horiz-adv-x="547" 
d="M430 742h-176l-78 148h137l40 -69l59 69h137zM583 690l-20 -146h-172l-76 -544h-155l76 544h-171l21 146h497z" />
    <glyph glyph-name="uni0162" unicode="&#x162;" horiz-adv-x="547" 
d="M315 0h-26l-27 -28c53 -6 86 -51 78 -108c-9 -64 -69 -114 -140 -114s-117 50 -108 114h87c-3 -20 13 -35 33 -35s38 15 41 35s-13 35 -32 35c-13 0 -25 -7 -31 -13l-76 36l74 78h-28l76 544h-171l21 146h497l-20 -146h-172z" />
    <glyph glyph-name="uni021A" unicode="&#x21a;" horiz-adv-x="547" 
d="M583 690l-20 -146h-172l-76 -544h-155l76 544h-171l21 146h497zM104 -227l67 175h150l-97 -175h-120z" />
    <glyph glyph-name="uni1E6C" unicode="&#x1e6c;" horiz-adv-x="547" 
d="M583 690l-20 -146h-172l-76 -544h-155l76 544h-171l21 146h497zM231 -48c49 0 81 -36 74 -85c-7 -48 -49 -84 -97 -84c-49 0 -80 36 -74 84c7 49 49 85 97 85z" />
    <glyph glyph-name="U" unicode="U" horiz-adv-x="683" 
d="M304 -12c-164 0 -271 120 -248 280l59 422h155l-59 -420c-11 -76 38 -133 114 -133s141 57 152 133l59 420h155l-60 -422c-22 -160 -164 -280 -327 -280z" />
    <glyph glyph-name="Uacute" unicode="&#xda;" horiz-adv-x="683" 
d="M326 742l121 148h183l-151 -148h-153zM304 -12c-164 0 -271 120 -248 280l59 422h155l-59 -420c-11 -76 38 -133 114 -133s141 57 152 133l59 420h155l-60 -422c-22 -160 -164 -280 -327 -280z" />
    <glyph glyph-name="Ubreve" unicode="&#x16c;" horiz-adv-x="683" 
d="M409 732c-94 0 -156 68 -143 157h113c-5 -31 14 -53 44 -53s56 22 60 53h113c-13 -89 -93 -157 -187 -157zM304 -12c-164 0 -271 120 -248 280l59 422h155l-59 -420c-11 -76 38 -133 114 -133s141 57 152 133l59 420h155l-60 -422c-22 -160 -164 -280 -327 -280z" />
    <glyph glyph-name="Ucircumflex" unicode="&#xdb;" horiz-adv-x="683" 
d="M420 811l-60 -69h-137l120 148h175l79 -148h-137zM536 690h155l-60 -422c-22 -160 -164 -280 -327 -280c-164 0 -271 120 -248 280l59 422h155l-59 -420c-11 -76 38 -133 114 -133s141 57 152 133z" />
    <glyph glyph-name="uni0214" unicode="&#x214;" horiz-adv-x="683" 
d="M232 742l-83 148h158l66 -148h-141zM456 742l-84 148h159l65 -148h-140zM304 -12c-164 0 -271 120 -248 280l59 422h155l-59 -420c-11 -76 38 -133 114 -133s141 57 152 133l59 420h155l-60 -422c-22 -160 -164 -280 -327 -280z" />
    <glyph glyph-name="Udieresis" unicode="&#xdc;" horiz-adv-x="683" 
d="M300 738c-46 0 -76 35 -70 81s47 80 93 80s76 -34 69 -80c-6 -46 -46 -81 -92 -81zM519 738c-46 0 -76 35 -70 81s47 80 93 80s76 -34 69 -80c-6 -46 -46 -81 -92 -81zM304 -12c-164 0 -271 120 -248 280l59 422h155l-59 -420c-11 -76 38 -133 114 -133s141 57 152 133
l59 420h155l-60 -422c-22 -160 -164 -280 -327 -280z" />
    <glyph glyph-name="uni1EE4" unicode="&#x1ee4;" horiz-adv-x="683" 
d="M304 -12c-164 0 -271 120 -248 280l59 422h155l-59 -420c-11 -76 38 -133 114 -133s141 57 152 133l59 420h155l-60 -422c-22 -160 -164 -280 -327 -280zM275 -217c-49 0 -80 36 -74 84c7 49 49 85 97 85c49 0 81 -36 74 -85c-7 -48 -49 -84 -97 -84z" />
    <glyph glyph-name="Ugrave" unicode="&#xd9;" horiz-adv-x="683" 
d="M340 742l-109 148h183l79 -148h-153zM304 -12c-164 0 -271 120 -248 280l59 422h155l-59 -420c-11 -76 38 -133 114 -133s141 57 152 133l59 420h155l-60 -422c-22 -160 -164 -280 -327 -280z" />
    <glyph glyph-name="Uhungarumlaut" unicode="&#x170;" horiz-adv-x="683" 
d="M223 742l107 148h158l-124 -148h-141zM447 742l106 148h159l-125 -148h-140zM304 -12c-164 0 -271 120 -248 280l59 422h155l-59 -420c-11 -76 38 -133 114 -133s141 57 152 133l59 420h155l-60 -422c-22 -160 -164 -280 -327 -280z" />
    <glyph glyph-name="uni0216" unicode="&#x216;" horiz-adv-x="683" 
d="M245 740c13 90 93 157 187 157s155 -67 143 -157h-113c5 31 -15 53 -45 53s-55 -22 -60 -53h-112zM304 -12c-164 0 -271 120 -248 280l59 422h155l-59 -420c-11 -76 38 -133 114 -133s141 57 152 133l59 420h155l-60 -422c-22 -160 -164 -280 -327 -280z" />
    <glyph glyph-name="Umacron" unicode="&#x16a;" horiz-adv-x="683" 
d="M275 751l17 123h273l-17 -123h-273zM304 -12c-164 0 -271 120 -248 280l59 422h155l-59 -420c-11 -76 38 -133 114 -133s141 57 152 133l59 420h155l-60 -422c-22 -160 -164 -280 -327 -280z" />
    <glyph glyph-name="Uogonek" unicode="&#x172;" horiz-adv-x="683" 
d="M536 690h155l-60 -422c-17 -125 -108 -226 -225 -264c-63 -30 -88 -60 -92 -86c-4 -29 18 -42 40 -42c21 0 48 10 67 24l-14 -103c-23 -15 -65 -26 -99 -26c-74 0 -123 49 -114 114c6 41 34 78 72 105c-142 17 -231 131 -210 278l59 422h155l-59 -420
c-11 -76 38 -133 114 -133s141 57 152 133z" />
    <glyph glyph-name="Uring" unicode="&#x16e;" horiz-adv-x="683" 
d="M409 731c-61 0 -102 45 -94 105c9 60 62 105 123 105s102 -45 94 -105c-9 -60 -62 -105 -123 -105zM419 803c18 0 34 14 37 33c2 19 -10 33 -28 33s-34 -14 -37 -33c-2 -19 10 -33 28 -33zM304 -12c-164 0 -271 120 -248 280l59 422h155l-59 -420
c-11 -76 38 -133 114 -133s141 57 152 133l59 420h155l-60 -422c-22 -160 -164 -280 -327 -280z" />
    <glyph glyph-name="Utilde" unicode="&#x168;" horiz-adv-x="683" 
d="M474 748c-56 0 -74 37 -105 37c-20 0 -37 -16 -39 -35h-103c12 84 61 150 139 150c56 0 75 -37 107 -37c19 0 36 15 38 35h102c-11 -86 -60 -150 -139 -150zM304 -12c-164 0 -271 120 -248 280l59 422h155l-59 -420c-11 -76 38 -133 114 -133s141 57 152 133l59 420h155
l-60 -422c-22 -160 -164 -280 -327 -280z" />
    <glyph glyph-name="V" unicode="V" horiz-adv-x="712" 
d="M593 690h174l-367 -690h-160l-173 690h169l111 -481z" />
    <glyph glyph-name="W" unicode="W" horiz-adv-x="1112" 
d="M991 690h173l-342 -690h-155l-83 454l-210 -454h-156l-147 690h166l86 -479l221 479h140l88 -479z" />
    <glyph glyph-name="Wacute" unicode="&#x1e82;" horiz-adv-x="1112" 
d="M845 890l-151 -148h-153l121 148h183zM991 690h173l-342 -690h-155l-83 454l-210 -454h-156l-147 690h166l86 -479l221 479h140l88 -479z" />
    <glyph glyph-name="Wcircumflex" unicode="&#x174;" horiz-adv-x="1112" 
d="M635 811l-60 -69h-137l120 148h175l79 -148h-137zM991 690h173l-342 -690h-155l-83 454l-210 -454h-156l-147 690h166l86 -479l221 479h140l88 -479z" />
    <glyph glyph-name="Wdieresis" unicode="&#x1e84;" horiz-adv-x="1112" 
d="M515 738c-46 0 -76 35 -70 81s47 80 93 80s76 -34 69 -80c-6 -46 -46 -81 -92 -81zM734 738c-46 0 -76 35 -70 81s47 80 93 80s76 -34 69 -80c-6 -46 -46 -81 -92 -81zM991 690h173l-342 -690h-155l-83 454l-210 -454h-156l-147 690h166l86 -479l221 479h140l88 -479z
" />
    <glyph glyph-name="Wgrave" unicode="&#x1e80;" horiz-adv-x="1112" 
d="M708 742h-153l-109 148h183zM991 690h173l-342 -690h-155l-83 454l-210 -454h-156l-147 690h166l86 -479l221 479h140l88 -479z" />
    <glyph glyph-name="X" unicode="X" horiz-adv-x="721" 
d="M769 690l-289 -344l196 -346h-192l-129 238l-195 -238h-188l294 346l-193 344h187l126 -234l189 234h194z" />
    <glyph glyph-name="Y" unicode="Y" horiz-adv-x="677" 
d="M565 690h176l-328 -453l-33 -237h-155l33 237l-200 453h173l126 -293z" />
    <glyph glyph-name="Yacute" unicode="&#xdd;" horiz-adv-x="677" 
d="M627 890l-151 -148h-153l121 148h183zM565 690h176l-328 -453l-33 -237h-155l33 237l-200 453h173l126 -293z" />
    <glyph glyph-name="Ycircumflex" unicode="&#x176;" horiz-adv-x="677" 
d="M417 811l-60 -69h-137l120 148h175l79 -148h-137zM565 690h176l-328 -453l-33 -237h-155l33 237l-200 453h173l126 -293z" />
    <glyph glyph-name="Ydieresis" unicode="&#x178;" horiz-adv-x="677" 
d="M297 738c-46 0 -76 35 -70 81s47 80 93 80s76 -34 69 -80c-6 -46 -46 -81 -92 -81zM516 738c-46 0 -76 35 -70 81s47 80 93 80s76 -34 69 -80c-6 -46 -46 -81 -92 -81zM565 690h176l-328 -453l-33 -237h-155l33 237l-200 453h173l126 -293z" />
    <glyph glyph-name="Ygrave" unicode="&#x1ef2;" horiz-adv-x="677" 
d="M491 742h-153l-109 148h183zM565 690h176l-328 -453l-33 -237h-155l33 237l-200 453h173l126 -293z" />
    <glyph glyph-name="uni0232" unicode="&#x232;" horiz-adv-x="677" 
d="M562 874l-17 -123h-273l17 123h273zM565 690h176l-328 -453l-33 -237h-155l33 237l-200 453h173l126 -293z" />
    <glyph glyph-name="uni1EF8" unicode="&#x1ef8;" horiz-adv-x="677" 
d="M367 785c-20 0 -37 -16 -39 -35h-103c12 84 61 150 139 150c56 0 75 -37 107 -37c19 0 36 15 38 35h102c-11 -86 -60 -150 -139 -150c-56 0 -74 37 -105 37zM565 690h176l-328 -453l-33 -237h-155l33 237l-200 453h173l126 -293z" />
    <glyph glyph-name="Z" unicode="Z" horiz-adv-x="614" 
d="M634 690l-15 -111l-388 -433h333l-20 -146h-546l16 111l387 433h-322l20 146h535z" />
    <glyph glyph-name="Zacute" unicode="&#x179;" horiz-adv-x="614" 
d="M594 890l-151 -148h-153l121 148h183zM634 690l-15 -111l-388 -433h333l-20 -146h-546l16 111l387 433h-322l20 146h535z" />
    <glyph glyph-name="Zcaron" unicode="&#x17d;" horiz-adv-x="614" 
d="M462 742h-176l-78 148h137l40 -69l59 69h137zM634 690l-15 -111l-388 -433h333l-20 -146h-546l16 111l387 433h-322l20 146h535z" />
    <glyph glyph-name="Zdotaccent" unicode="&#x17b;" horiz-adv-x="614" 
d="M374 738c-48 0 -80 36 -73 85c6 48 48 84 97 84c48 0 80 -36 73 -84c-7 -49 -49 -85 -97 -85zM634 690l-15 -111l-388 -433h333l-20 -146h-546l16 111l387 433h-322l20 146h535z" />
    <glyph glyph-name="uni1E92" unicode="&#x1e92;" horiz-adv-x="614" 
d="M634 690l-15 -111l-388 -433h333l-20 -146h-546l16 111l387 433h-322l20 146h535zM263 -48c49 0 81 -36 74 -85c-7 -48 -49 -84 -97 -84c-49 0 -80 36 -74 84c7 49 49 85 97 85z" />
    <glyph glyph-name="K.ss02" horiz-adv-x="647" 
d="M706 690l-314 -338l224 -352h-193l-144 230l-73 -79l-21 -151h-155l97 690h155l-42 -301l277 301h189z" />
    <glyph glyph-name="uni0136.ss02" horiz-adv-x="647" 
d="M706 690l-314 -338l224 -352h-193l-144 230l-73 -79l-21 -151h-155l97 690h155l-42 -301l277 301h189zM158 -227l67 175h150l-97 -175h-120z" />
    <glyph glyph-name="M.ss02" horiz-adv-x="878" 
d="M684 690h189l-97 -690h-155l62 443l-220 -327h-87l-129 327l-62 -443h-155l97 690h192l134 -341z" />
    <glyph glyph-name="R.ss02" 
d="M582 459c-12 -89 -72 -162 -152 -198l106 -261h-186l-85 236h-47l-33 -236h-155l97 690h247c137 0 227 -99 208 -231zM261 544l-24 -173h89c48 0 90 37 97 86c7 50 -24 87 -73 87h-89z" />
    <glyph glyph-name="Racute.ss02" 
d="M577 890l-151 -148h-153l121 148h183zM582 459c-12 -89 -72 -162 -152 -198l106 -261h-186l-85 236h-47l-33 -236h-155l97 690h247c137 0 227 -99 208 -231zM261 544l-24 -173h89c48 0 90 37 97 86c7 50 -24 87 -73 87h-89z" />
    <glyph glyph-name="Rcaron.ss02" 
d="M445 742h-176l-78 148h137l40 -69l59 69h137zM582 459c-12 -89 -72 -162 -152 -198l106 -261h-186l-85 236h-47l-33 -236h-155l97 690h247c137 0 227 -99 208 -231zM261 544l-24 -173h89c48 0 90 37 97 86c7 50 -24 87 -73 87h-89z" />
    <glyph glyph-name="uni0156.ss02" 
d="M582 459c-12 -89 -72 -162 -152 -198l106 -261h-186l-85 236h-47l-33 -236h-155l97 690h247c137 0 227 -99 208 -231zM261 544l-24 -173h89c48 0 90 37 97 86c7 50 -24 87 -73 87h-89zM128 -227l67 175h150l-97 -175h-120z" />
    <glyph glyph-name="uni0210.ss02" 
d="M319 742h-141l-83 148h158zM542 742h-140l-84 148h159zM582 459c-12 -89 -72 -162 -152 -198l106 -261h-186l-85 236h-47l-33 -236h-155l97 690h247c137 0 227 -99 208 -231zM261 544l-24 -173h89c48 0 90 37 97 86c7 50 -24 87 -73 87h-89z" />
    <glyph glyph-name="uni1E5A.ss02" 
d="M582 459c-12 -89 -72 -162 -152 -198l106 -261h-186l-85 236h-47l-33 -236h-155l97 690h247c137 0 227 -99 208 -231zM261 544l-24 -173h89c48 0 90 37 97 86c7 50 -24 87 -73 87h-89zM255 -48c49 0 81 -36 74 -85c-7 -48 -49 -84 -97 -84c-49 0 -80 36 -74 84
c7 49 49 85 97 85z" />
    <glyph glyph-name="uni0212.ss02" 
d="M364 793c-30 0 -55 -22 -60 -53h-112c13 90 93 157 187 157s155 -67 143 -157h-113c5 31 -15 53 -45 53zM582 459c-12 -89 -72 -162 -152 -198l106 -261h-186l-85 236h-47l-33 -236h-155l97 690h247c137 0 227 -99 208 -231zM261 544l-24 -173h89c48 0 90 37 97 86
c7 50 -24 87 -73 87h-89z" />
    <glyph glyph-name="G.ss03" horiz-adv-x="805" 
d="M424 395h350l-56 -395h-135l10 67c-57 -51 -135 -79 -234 -79c-208 0 -343 154 -314 357c28 203 207 357 415 357c168 0 292 -101 308 -240h-173c-24 55 -81 91 -156 91c-117 0 -218 -89 -235 -208s60 -208 176 -208c88 0 166 48 204 118h-179z" />
    <glyph glyph-name="uni01F4.ss03" horiz-adv-x="805" 
d="M686 890l-151 -148h-153l121 148h183zM424 395h350l-56 -395h-135l10 67c-57 -51 -135 -79 -234 -79c-208 0 -343 154 -314 357c28 203 207 357 415 357c168 0 292 -101 308 -240h-173c-24 55 -81 91 -156 91c-117 0 -218 -89 -235 -208s60 -208 176 -208
c88 0 166 48 204 118h-179z" />
    <glyph glyph-name="Gbreve.ss03" horiz-adv-x="805" 
d="M464 732c-94 0 -156 68 -143 157h113c-5 -31 14 -53 44 -53s56 22 60 53h113c-13 -89 -93 -157 -187 -157zM424 395h350l-56 -395h-135l10 67c-57 -51 -135 -79 -234 -79c-208 0 -343 154 -314 357c28 203 207 357 415 357c168 0 292 -101 308 -240h-173
c-24 55 -81 91 -156 91c-117 0 -218 -89 -235 -208s60 -208 176 -208c88 0 166 48 204 118h-179z" />
    <glyph glyph-name="Gcaron.ss03" horiz-adv-x="805" 
d="M553 742h-176l-78 148h137l40 -69l59 69h137zM424 395h350l-56 -395h-135l10 67c-57 -51 -135 -79 -234 -79c-208 0 -343 154 -314 357c28 203 207 357 415 357c168 0 292 -101 308 -240h-173c-24 55 -81 91 -156 91c-117 0 -218 -89 -235 -208s60 -208 176 -208
c88 0 166 48 204 118h-179z" />
    <glyph glyph-name="Gcircumflex.ss03" horiz-adv-x="805" 
d="M475 811l-60 -69h-137l120 148h175l79 -148h-137zM424 395h350l-56 -395h-135l10 67c-57 -51 -135 -79 -234 -79c-208 0 -343 154 -314 357c28 203 207 357 415 357c168 0 292 -101 308 -240h-173c-24 55 -81 91 -156 91c-117 0 -218 -89 -235 -208s60 -208 176 -208
c88 0 166 48 204 118h-179z" />
    <glyph glyph-name="uni0122.ss03" horiz-adv-x="805" 
d="M424 395h350l-56 -395h-135l10 67c-57 -51 -135 -79 -234 -79c-208 0 -343 154 -314 357c28 203 207 357 415 357c168 0 292 -101 308 -240h-173c-24 55 -81 91 -156 91c-117 0 -218 -89 -235 -208s60 -208 176 -208c88 0 166 48 204 118h-179zM227 -227l67 175h150
l-97 -175h-120z" />
    <glyph glyph-name="Gdotaccent.ss03" horiz-adv-x="805" 
d="M465 738c-48 0 -80 36 -73 85c6 48 48 84 97 84c48 0 80 -36 73 -84c-7 -49 -49 -85 -97 -85zM424 395h350l-56 -395h-135l10 67c-57 -51 -135 -79 -234 -79c-208 0 -343 154 -314 357c28 203 207 357 415 357c168 0 292 -101 308 -240h-173c-24 55 -81 91 -156 91
c-117 0 -218 -89 -235 -208s60 -208 176 -208c88 0 166 48 204 118h-179z" />
    <glyph glyph-name="J.ss04" horiz-adv-x="547" 
d="M554 690l-66 -468c-18 -133 -136 -234 -274 -234s-228 101 -209 234h159c-6 -48 25 -85 72 -85c49 0 91 37 97 85l45 322h-186l20 146h342z" />
    <glyph glyph-name="Jcircumflex.ss04" horiz-adv-x="547" 
d="M395 811l-60 -69h-137l120 148h175l79 -148h-137zM554 690l-66 -468c-18 -133 -136 -234 -274 -234s-228 101 -209 234h159c-6 -48 25 -85 72 -85c49 0 91 37 97 85l45 322h-186l20 146h342z" />
    <glyph glyph-name="B.ss05" horiz-adv-x="575" 
d="M559 513c-10 -62 -49 -119 -96 -146c61 -25 96 -98 85 -180c-16 -109 -110 -187 -222 -187h-296l97 690h271c104 0 175 -74 161 -177zM395 485c5 38 -18 65 -55 65h-83l-57 -410h107c42 0 79 32 85 74s-22 75 -64 75h-73l18 131h49c36 0 68 28 73 65z" />
    <glyph glyph-name="P.ss05" horiz-adv-x="581" 
d="M382 690c138 0 228 -101 210 -235c-19 -134 -138 -235 -276 -235h-66l21 146h62c50 0 93 39 100 89c7 51 -25 89 -75 89h-97l-76 -544h-155l97 690h255z" />
    <glyph glyph-name="R.ss05" 
d="M582 459c-12 -84 -68 -155 -139 -186l-17 -7l110 -266h-192l-92 238l19 133h55c48 0 90 37 97 86c7 50 -24 87 -73 87h-89l-76 -544h-155l97 690h247c137 0 227 -99 208 -231z" />
    <glyph glyph-name="Racute.ss05" 
d="M577 890l-151 -148h-153l121 148h183zM582 459c-12 -84 -68 -155 -139 -186l-17 -7l110 -266h-192l-92 238l19 133h55c48 0 90 37 97 86c7 50 -24 87 -73 87h-89l-76 -544h-155l97 690h247c137 0 227 -99 208 -231z" />
    <glyph glyph-name="Rcaron.ss05" 
d="M445 742h-176l-78 148h137l40 -69l59 69h137zM582 459c-12 -84 -68 -155 -139 -186l-17 -7l110 -266h-192l-92 238l19 133h55c48 0 90 37 97 86c7 50 -24 87 -73 87h-89l-76 -544h-155l97 690h247c137 0 227 -99 208 -231z" />
    <glyph glyph-name="uni0156.ss05" 
d="M582 459c-12 -84 -68 -155 -139 -186l-17 -7l110 -266h-192l-92 238l19 133h55c48 0 90 37 97 86c7 50 -24 87 -73 87h-89l-76 -544h-155l97 690h247c137 0 227 -99 208 -231zM128 -227l67 175h150l-97 -175h-120z" />
    <glyph glyph-name="uni0210.ss05" 
d="M319 742h-141l-83 148h158zM542 742h-140l-84 148h159zM582 459c-12 -84 -68 -155 -139 -186l-17 -7l110 -266h-192l-92 238l19 133h55c48 0 90 37 97 86c7 50 -24 87 -73 87h-89l-76 -544h-155l97 690h247c137 0 227 -99 208 -231z" />
    <glyph glyph-name="uni1E5A.ss05" 
d="M582 459c-12 -84 -68 -155 -139 -186l-17 -7l110 -266h-192l-92 238l19 133h55c48 0 90 37 97 86c7 50 -24 87 -73 87h-89l-76 -544h-155l97 690h247c137 0 227 -99 208 -231zM255 -48c49 0 81 -36 74 -85c-7 -48 -49 -84 -97 -84c-49 0 -80 36 -74 84c7 49 49 85 97 85z
" />
    <glyph glyph-name="uni0212.ss05" 
d="M364 793c-30 0 -55 -22 -60 -53h-112c13 90 93 157 187 157s155 -67 143 -157h-113c5 31 -15 53 -45 53zM582 459c-12 -84 -68 -155 -139 -186l-17 -7l110 -266h-192l-92 238l19 133h55c48 0 90 37 97 86c7 50 -24 87 -73 87h-89l-76 -544h-155l97 690h247
c137 0 227 -99 208 -231z" />
    <glyph glyph-name="A.ss06" unicode="&#xe000;" horiz-adv-x="718" 
d="M682 -32c19 -78 78 -118 173 -118l-21 -150c-172 0 -284 95 -318 266l-33 155h-280l-60 -121h-171l356 690h183zM273 264h180l-54 255z" />
    <glyph glyph-name="H.ss06" unicode="&#xe001;" horiz-adv-x="719" 
d="M615 -15c-11 -76 32 -128 105 -128l-21 -150c-166 0 -263 112 -239 278l41 289h-277l-39 -274h-155l97 690h155l-38 -270h277l38 270h155z" />
    <glyph glyph-name="K.ss06" unicode="&#xe002;" horiz-adv-x="642" 
d="M625 -20c71 -96 146 -130 268 -130l-21 -150c-185 0 -305 68 -441 280l-205 305l-41 -285h-155l97 690h155l-39 -280l269 280h190l-328 -343z" />
    <glyph glyph-name="M.ss06" unicode="&#xe003;" horiz-adv-x="902" 
d="M799 -15c-11 -76 32 -128 104 -128l-21 -150c-165 0 -262 112 -238 278l61 438l-237 -423h-106l-118 424l-59 -424h-155l97 690h200l124 -448l249 448h198z" />
    <glyph glyph-name="R.ss06" unicode="&#xe004;" 
d="M548 -22c55 -101 141 -128 267 -128l-21 -149c-188 0 -349 46 -441 277l-123 258h-12l-33 -236h-155l97 690h247c137 0 227 -99 208 -231c-14 -97 -83 -175 -175 -207zM261 544l-24 -173h89c48 0 90 37 97 86c7 50 -24 87 -73 87h-89z" />
    <glyph glyph-name="H.ss07" unicode="&#xe005;" horiz-adv-x="719" 
d="M818 928c135 0 213 -91 195 -226h-156c7 45 -18 76 -59 76c-42 0 -76 -31 -82 -76l-99 -702h-155l39 274h-277l-39 -274h-155l97 690h155l-38 -270h277l40 282c18 135 122 226 257 226z" />
    <glyph glyph-name="N.ss07" unicode="&#xe006;" horiz-adv-x="729" 
d="M829 928c134 0 213 -91 194 -226h-155c6 45 -18 76 -60 76c-41 0 -75 -31 -81 -76l-99 -702h-157l-227 422l-59 -422h-155l97 690h156l228 -422l61 434c18 135 122 226 257 226z" />
    <glyph glyph-name="U.ss07" unicode="&#xe007;" horiz-adv-x="683" 
d="M304 -12c-164 0 -271 120 -248 280l59 422h155l-59 -420c-11 -76 38 -133 114 -133s141 57 152 133l61 432c18 135 122 226 257 226s213 -91 194 -226h-155c6 45 -18 76 -60 76c-41 0 -75 -31 -81 -76l-62 -434c-22 -160 -164 -280 -327 -280z" />
    <glyph glyph-name="A.swsh" unicode="&#xe008;" horiz-adv-x="718" 
d="M509 0l-26 121h-280l-60 -121h-171l281 544h-218c-55 0 -102 -40 -109 -92c-8 -52 28 -92 82 -92l-20 -146c-140 0 -231 102 -212 238s138 238 279 238h456l163 -690h-165zM273 264h180l-54 255z" />
    <glyph glyph-name="B.swsh" unicode="&#xe009;" horiz-adv-x="575" 
d="M559 513c-10 -62 -49 -119 -96 -146c61 -25 96 -98 85 -180c-16 -109 -110 -187 -222 -187h-296l76 544h-129c-55 0 -102 -40 -109 -92c-8 -52 28 -92 82 -92l-20 -146c-140 0 -231 102 -212 238s138 238 279 238h401c104 0 175 -74 161 -177zM395 485
c5 38 -18 65 -55 65h-83l-18 -130h83c36 0 68 28 73 65zM392 214c6 42 -22 75 -64 75h-107l-21 -149h107c42 0 79 32 85 74z" />
    <glyph glyph-name="D.swsh" unicode="&#xe00a;" horiz-adv-x="723" 
d="M399 690c201 0 331 -148 304 -345c-28 -197 -200 -345 -401 -345h-272l76 544h-129c-55 0 -102 -40 -109 -92c-8 -52 28 -92 82 -92l-20 -146c-140 0 -231 102 -212 238s138 238 279 238h402zM544 345c16 113 -56 199 -169 199h-114l-55 -398h113c112 0 209 86 225 199z
" />
    <glyph glyph-name="E.swsh" unicode="&#xe00b;" horiz-adv-x="503" 
d="M505 544h-244l-17 -124h211l-21 -146h-210l-18 -128h247l-20 -146h-403l76 544h-129c-55 0 -102 -40 -109 -92c-8 -52 28 -92 82 -92l-20 -146c-140 0 -231 102 -212 238s138 238 279 238h528z" />
    <glyph glyph-name="F.swsh" unicode="&#xe00c;" horiz-adv-x="476" 
d="M490 544h-229l-18 -131h189l-20 -146h-189l-38 -267h-155l76 544h-129c-55 0 -102 -40 -109 -92c-8 -52 28 -92 82 -92l-20 -146c-140 0 -231 102 -212 238s138 238 279 238h513z" />
    <glyph glyph-name="H.swsh" unicode="&#xe00d;" horiz-adv-x="719" 
d="M559 690h155l-97 -690h-155l39 274h-277l-39 -274h-155l76 544h-129c-55 0 -102 -40 -109 -92c-8 -52 28 -92 82 -92l-20 -146c-140 0 -231 102 -212 238s138 238 279 238h285l-38 -270h277z" />
    <glyph glyph-name="I.swsh" unicode="&#xe00e;" horiz-adv-x="287" 
d="M282 690l-97 -690h-155l76 544h-129c-55 0 -102 -40 -109 -92c-8 -52 28 -92 82 -92l-20 -146c-140 0 -231 102 -212 238s138 238 279 238h285z" />
    <glyph glyph-name="K.swsh" unicode="&#xe00f;" horiz-adv-x="642" 
d="M702 690l-328 -343l237 -347h-193l-192 285l-41 -285h-155l76 544h-129c-55 0 -102 -40 -109 -92c-8 -52 28 -92 82 -92l-20 -146c-140 0 -231 102 -212 238s138 238 279 238h285l-39 -280l269 280h190z" />
    <glyph glyph-name="L.swsh" unicode="&#xe010;" horiz-adv-x="461" 
d="M206 146h217l-20 -146h-373l76 544h-129c-55 0 -102 -40 -109 -92c-8 -52 28 -92 82 -92l-20 -146c-140 0 -231 102 -212 238s138 238 279 238h285z" />
    <glyph glyph-name="M.swsh" unicode="&#xe011;" horiz-adv-x="902" 
d="M700 690h198l-97 -690h-155l59 423l-237 -423h-106l-118 424l-59 -424h-155l76 544h-129c-55 0 -102 -40 -109 -92c-8 -52 28 -92 82 -92l-20 -146c-140 0 -231 102 -212 238s138 238 279 238h330l124 -448z" />
    <glyph glyph-name="N.swsh" unicode="&#xe012;" horiz-adv-x="729" 
d="M570 690h155l-97 -690h-157l-227 422l-59 -422h-155l76 544h-129c-55 0 -102 -40 -109 -92c-8 -52 28 -92 82 -92l-20 -146c-140 0 -231 102 -212 238s138 238 279 238h286l228 -422z" />
    <glyph glyph-name="P.swsh" unicode="&#xe013;" horiz-adv-x="581" 
d="M382 690c138 0 228 -101 210 -235c-19 -134 -138 -235 -276 -235h-100l-31 -220h-155l76 544h-129c-55 0 -102 -40 -109 -92c-8 -52 28 -92 82 -92l-20 -146c-140 0 -231 102 -212 238s138 238 279 238h385zM433 455c7 51 -25 89 -75 89h-97l-25 -178h97
c50 0 93 39 100 89z" />
    <glyph glyph-name="R.swsh" unicode="&#xe014;" 
d="M582 459c-14 -98 -83 -175 -175 -207l129 -252h-193l-113 236h-12l-33 -236h-155l76 544h-129c-55 0 -102 -40 -109 -92c-8 -52 28 -92 82 -92l-20 -146c-140 0 -231 102 -212 238s138 238 279 238h377c137 0 227 -99 208 -231zM423 457c7 50 -24 87 -73 87h-89l-24 -173
h89c48 0 90 37 97 86z" />
    <glyph glyph-name="T.swsh" unicode="&#xe015;" horiz-adv-x="547" 
d="M583 690l-20 -146h-172l-76 -544h-155l76 544h-213c-55 0 -102 -40 -109 -92c-8 -52 28 -92 82 -92l-20 -146c-140 0 -231 102 -212 238s138 238 279 238h540z" />
    <glyph glyph-name="U.swsh" unicode="&#xe016;" horiz-adv-x="683" 
d="M536 690h155l-60 -422c-22 -160 -164 -280 -327 -280c-164 0 -271 120 -248 280l39 276h-120c-55 0 -102 -40 -109 -92c-8 -52 28 -92 82 -92l-20 -146c-140 0 -231 102 -212 238s138 238 279 238h275l-59 -420c-11 -76 38 -133 114 -133s141 57 152 133z" />
    <glyph glyph-name="V.swsh" unicode="&#xe017;" horiz-adv-x="712" 
d="M593 690h174l-367 -690h-160l-136 544h-75c-55 0 -102 -40 -109 -92c-8 -52 28 -92 82 -92l-20 -146c-140 0 -231 102 -212 238s138 238 279 238h187l111 -481z" />
    <glyph glyph-name="W.swsh" unicode="&#xe018;" horiz-adv-x="1112" 
d="M991 690h173l-342 -690h-155l-83 454l-210 -454h-156l-116 544h-70c-55 0 -102 -40 -109 -92c-8 -52 28 -92 82 -92l-20 -146c-140 0 -231 102 -212 238s138 238 279 238h185l86 -479l221 479h140l88 -479z" />
    <glyph glyph-name="Y.swsh" unicode="&#xe019;" horiz-adv-x="677" 
d="M565 690h176l-328 -453l-33 -237h-155l33 237l-136 307h-87c-55 0 -102 -40 -109 -92c-8 -52 28 -92 82 -92l-20 -146c-140 0 -231 102 -212 238s138 238 279 238h176l126 -293z" />
    <glyph glyph-name="a" unicode="a" horiz-adv-x="634" 
d="M466 510h146l-72 -510h-146l8 56c-45 -42 -101 -68 -164 -68c-140 0 -229 115 -208 267s144 267 284 267c63 0 112 -26 144 -68zM288 129c71 0 132 54 142 126s-35 126 -107 126s-133 -54 -142 -126c-10 -72 35 -126 107 -126z" />
    <glyph glyph-name="aacute" unicode="&#xe1;" horiz-adv-x="634" 
d="M585 710l-151 -148h-153l121 148h183zM466 510h146l-72 -510h-146l8 56c-45 -42 -101 -68 -164 -68c-140 0 -229 115 -208 267s144 267 284 267c63 0 112 -26 144 -68zM288 129c71 0 132 54 142 126s-35 126 -107 126s-133 -54 -142 -126c-10 -72 35 -126 107 -126z" />
    <glyph glyph-name="abreve" unicode="&#x103;" horiz-adv-x="634" 
d="M364 552c-94 0 -156 68 -143 157h113c-5 -31 14 -53 44 -53s56 22 60 53h113c-13 -89 -93 -157 -187 -157zM466 510h146l-72 -510h-146l8 56c-45 -42 -101 -68 -164 -68c-140 0 -229 115 -208 267s144 267 284 267c63 0 112 -26 144 -68zM288 129c71 0 132 54 142 126
s-35 126 -107 126s-133 -54 -142 -126c-10 -72 35 -126 107 -126z" />
    <glyph glyph-name="uni01CE" unicode="&#x1ce;" horiz-adv-x="634" 
d="M453 562h-176l-78 148h137l40 -69l59 69h137zM466 510h146l-72 -510h-146l8 56c-45 -42 -101 -68 -164 -68c-140 0 -229 115 -208 267s144 267 284 267c63 0 112 -26 144 -68zM288 129c71 0 132 54 142 126s-35 126 -107 126s-133 -54 -142 -126
c-10 -72 35 -126 107 -126z" />
    <glyph glyph-name="acircumflex" unicode="&#xe2;" horiz-adv-x="634" 
d="M375 631l-60 -69h-137l120 148h175l79 -148h-137zM466 510h146l-72 -510h-146l8 56c-45 -42 -101 -68 -164 -68c-140 0 -229 115 -208 267s144 267 284 267c63 0 112 -26 144 -68zM288 129c71 0 132 54 142 126s-35 126 -107 126s-133 -54 -142 -126
c-10 -72 35 -126 107 -126z" />
    <glyph glyph-name="uni0201" unicode="&#x201;" horiz-adv-x="634" 
d="M327 562h-141l-83 148h158zM550 562h-140l-84 148h159zM466 510h146l-72 -510h-146l8 56c-45 -42 -101 -68 -164 -68c-140 0 -229 115 -208 267s144 267 284 267c63 0 112 -26 144 -68zM288 129c71 0 132 54 142 126s-35 126 -107 126s-133 -54 -142 -126
c-10 -72 35 -126 107 -126z" />
    <glyph glyph-name="adieresis" unicode="&#xe4;" horiz-adv-x="634" 
d="M255 558c-46 0 -76 35 -70 81s47 80 93 80s76 -34 69 -80c-6 -46 -46 -81 -92 -81zM474 558c-46 0 -76 35 -70 81s47 80 93 80s76 -34 69 -80c-6 -46 -46 -81 -92 -81zM466 510h146l-72 -510h-146l8 56c-45 -42 -101 -68 -164 -68c-140 0 -229 115 -208 267
s144 267 284 267c63 0 112 -26 144 -68zM288 129c71 0 132 54 142 126s-35 126 -107 126s-133 -54 -142 -126c-10 -72 35 -126 107 -126z" />
    <glyph glyph-name="uni1EA1" unicode="&#x1ea1;" horiz-adv-x="634" 
d="M466 510h146l-72 -510h-146l8 56c-45 -42 -101 -68 -164 -68c-140 0 -229 115 -208 267s144 267 284 267c63 0 112 -26 144 -68zM288 129c71 0 132 54 142 126s-35 126 -107 126s-133 -54 -142 -126c-10 -72 35 -126 107 -126zM278 -48c49 0 81 -36 74 -85
c-7 -48 -49 -84 -97 -84c-49 0 -80 36 -74 84c7 49 49 85 97 85z" />
    <glyph glyph-name="agrave" unicode="&#xe0;" horiz-adv-x="634" 
d="M448 562h-153l-109 148h183zM466 510h146l-72 -510h-146l8 56c-45 -42 -101 -68 -164 -68c-140 0 -229 115 -208 267s144 267 284 267c63 0 112 -26 144 -68zM288 129c71 0 132 54 142 126s-35 126 -107 126s-133 -54 -142 -126c-10 -72 35 -126 107 -126z" />
    <glyph glyph-name="uni0203" unicode="&#x203;" horiz-adv-x="634" 
d="M372 613c-30 0 -55 -22 -60 -53h-112c13 90 93 157 187 157s155 -67 143 -157h-113c5 31 -15 53 -45 53zM466 510h146l-72 -510h-146l8 56c-45 -42 -101 -68 -164 -68c-140 0 -229 115 -208 267s144 267 284 267c63 0 112 -26 144 -68zM288 129c71 0 132 54 142 126
s-35 126 -107 126s-133 -54 -142 -126c-10 -72 35 -126 107 -126z" />
    <glyph glyph-name="amacron" unicode="&#x101;" horiz-adv-x="634" 
d="M520 694l-17 -123h-273l17 123h273zM466 510h146l-72 -510h-146l8 56c-45 -42 -101 -68 -164 -68c-140 0 -229 115 -208 267s144 267 284 267c63 0 112 -26 144 -68zM288 129c71 0 132 54 142 126s-35 126 -107 126s-133 -54 -142 -126c-10 -72 35 -126 107 -126z" />
    <glyph glyph-name="aogonek" unicode="&#x105;" horiz-adv-x="634" 
d="M466 510h146l-72 -510h-1c-83 -34 -114 -68 -119 -98c-4 -29 18 -42 40 -42c21 0 48 10 67 24l-14 -103c-23 -15 -65 -26 -99 -26c-74 0 -123 49 -114 114c9 57 58 107 120 131h-26l8 56c-45 -42 -101 -68 -164 -68c-140 0 -229 115 -208 267s144 267 284 267
c63 0 112 -26 144 -68zM288 129c71 0 132 54 142 126s-35 126 -107 126s-133 -54 -142 -126c-10 -72 35 -126 107 -126z" />
    <glyph glyph-name="aring" unicode="&#xe5;" horiz-adv-x="634" 
d="M363 551c-61 0 -102 45 -94 105c9 60 62 105 123 105s102 -45 94 -105c-9 -60 -62 -105 -123 -105zM345 656c-2 -19 10 -33 28 -33s34 14 37 33c2 19 -10 33 -28 33s-34 -14 -37 -33zM466 510h146l-72 -510h-146l8 56c-45 -42 -101 -68 -164 -68
c-140 0 -229 115 -208 267s144 267 284 267c63 0 112 -26 144 -68zM288 129c71 0 132 54 142 126s-35 126 -107 126s-133 -54 -142 -126c-10 -72 35 -126 107 -126z" />
    <glyph glyph-name="atilde" unicode="&#xe3;" horiz-adv-x="634" 
d="M324 605c-20 0 -37 -16 -39 -35h-103c12 84 61 150 139 150c56 0 75 -37 107 -37c19 0 36 15 38 35h102c-11 -86 -60 -150 -139 -150c-56 0 -74 37 -105 37zM466 510h146l-72 -510h-146l8 56c-45 -42 -101 -68 -164 -68c-140 0 -229 115 -208 267s144 267 284 267
c63 0 112 -26 144 -68zM288 129c71 0 132 54 142 126s-35 126 -107 126s-133 -54 -142 -126c-10 -72 35 -126 107 -126z" />
    <glyph glyph-name="ae" unicode="&#xe6;" horiz-adv-x="896" 
d="M636 522c154 0 256 -115 234 -268c-2 -14 -5 -34 -10 -46h-390c8 -57 49 -93 109 -93c49 0 94 22 114 51h156c-52 -106 -163 -178 -289 -178c-72 0 -131 25 -172 66c-50 -39 -120 -66 -196 -66c-127 0 -194 75 -181 169c14 98 108 169 218 169c41 0 77 -10 105 -27l5 35
c6 41 -18 67 -60 67c-37 0 -65 -19 -75 -48h-148c29 98 122 169 239 169c68 0 122 -24 153 -64c52 40 118 64 188 64zM615 396c-56 0 -105 -35 -130 -91h236c-8 56 -49 91 -106 91zM238 99c45 0 83 19 97 45c-4 14 -7 28 -8 43c-12 16 -39 28 -73 28c-48 0 -88 -25 -93 -58
c-4 -33 28 -58 77 -58z" />
    <glyph glyph-name="aeacute" unicode="&#x1fd;" horiz-adv-x="896" 
d="M699 710l-151 -148h-153l121 148h183zM636 522c154 0 256 -115 234 -268c-2 -14 -5 -34 -10 -46h-390c8 -57 49 -93 109 -93c49 0 94 22 114 51h156c-52 -106 -163 -178 -289 -178c-72 0 -131 25 -172 66c-50 -39 -120 -66 -196 -66c-127 0 -194 75 -181 169
c14 98 108 169 218 169c41 0 77 -10 105 -27l5 35c6 41 -18 67 -60 67c-37 0 -65 -19 -75 -48h-148c29 98 122 169 239 169c68 0 122 -24 153 -64c52 40 118 64 188 64zM615 396c-56 0 -105 -35 -130 -91h236c-8 56 -49 91 -106 91zM238 99c45 0 83 19 97 45
c-4 14 -7 28 -8 43c-12 16 -39 28 -73 28c-48 0 -88 -25 -93 -58c-4 -33 28 -58 77 -58z" />
    <glyph glyph-name="b" unicode="b" horiz-adv-x="634" 
d="M396 522c141 0 229 -115 208 -267s-143 -267 -284 -267c-63 0 -112 26 -144 69l-8 -57h-146l101 720h146l-38 -267c45 43 102 69 165 69zM454 255c9 72 -36 126 -107 126c-72 0 -133 -54 -143 -126c-9 -72 36 -126 107 -126c72 0 133 54 143 126z" />
    <glyph glyph-name="c" unicode="c" horiz-adv-x="599" 
d="M265 -12c-157 0 -258 115 -237 267s156 267 313 267c144 0 241 -97 239 -231h-152c-8 53 -49 90 -107 90c-72 0 -133 -54 -143 -126s36 -126 107 -126c59 0 111 37 133 90h152c-35 -134 -161 -231 -305 -231z" />
    <glyph glyph-name="cacute" unicode="&#x107;" horiz-adv-x="599" 
d="M262 562l121 148h183l-151 -148h-153zM265 -12c-157 0 -258 115 -237 267s156 267 313 267c144 0 241 -97 239 -231h-152c-8 53 -49 90 -107 90c-72 0 -133 -54 -143 -126s36 -126 107 -126c59 0 111 37 133 90h152c-35 -134 -161 -231 -305 -231z" />
    <glyph glyph-name="ccaron" unicode="&#x10d;" horiz-adv-x="599" 
d="M434 562h-176l-78 148h137l40 -69l59 69h137zM321 381c-72 0 -133 -54 -143 -126s36 -126 107 -126c59 0 111 37 133 90h152c-35 -134 -161 -231 -305 -231c-157 0 -258 115 -237 267s156 267 313 267c144 0 241 -97 239 -231h-152c-8 53 -49 90 -107 90z" />
    <glyph glyph-name="ccedilla" unicode="&#xe7;" horiz-adv-x="599" 
d="M321 381c-72 0 -133 -54 -143 -126s36 -126 107 -126c59 0 111 37 133 90h152c-31 -117 -131 -206 -251 -226l-21 -22c53 -6 86 -51 78 -108c-9 -64 -69 -114 -140 -114s-117 50 -108 114h87c-3 -20 13 -35 33 -35s38 15 41 35s-13 35 -32 35c-13 0 -25 -7 -31 -13
l-76 36l67 71c-129 21 -208 127 -189 263c21 152 156 267 313 267c144 0 241 -97 239 -231h-152c-8 53 -49 90 -107 90z" />
    <glyph glyph-name="ccircumflex" unicode="&#x109;" horiz-adv-x="599" 
d="M356 631l-60 -69h-137l120 148h175l79 -148h-137zM321 381c-72 0 -133 -54 -143 -126s36 -126 107 -126c59 0 111 37 133 90h152c-35 -134 -161 -231 -305 -231c-157 0 -258 115 -237 267s156 267 313 267c144 0 241 -97 239 -231h-152c-8 53 -49 90 -107 90z" />
    <glyph glyph-name="cdotaccent" unicode="&#x10b;" horiz-adv-x="599" 
d="M346 558c-48 0 -80 36 -73 85c6 48 48 84 97 84c48 0 80 -36 73 -84c-7 -49 -49 -85 -97 -85zM265 -12c-157 0 -258 115 -237 267s156 267 313 267c144 0 241 -97 239 -231h-152c-8 53 -49 90 -107 90c-72 0 -133 -54 -143 -126s36 -126 107 -126c59 0 111 37 133 90h152
c-35 -134 -161 -231 -305 -231z" />
    <glyph glyph-name="d" unicode="d" horiz-adv-x="634" 
d="M495 720h146l-101 -720h-146l8 56c-45 -42 -101 -68 -164 -68c-140 0 -229 115 -208 267s144 267 284 267c62 0 111 -25 144 -68zM288 129c68 0 127 50 141 118l2 16c6 68 -39 118 -108 118c-72 0 -133 -54 -142 -126c-10 -72 35 -126 107 -126z" />
    <glyph glyph-name="eth" unicode="&#xf0;" horiz-adv-x="572" 
d="M389 654c118 -87 178 -237 155 -392c-24 -176 -150 -274 -295 -274c-151 0 -246 108 -226 252c20 142 143 250 272 250c31 0 59 -6 83 -19c-23 32 -54 59 -90 79l-35 -35h-106l64 66c-20 5 -42 9 -64 10l20 139c57 -3 109 -15 154 -36l36 36h106zM391 239
c9 63 -31 110 -93 110c-63 0 -116 -47 -125 -110c-8 -63 32 -110 94 -110s115 47 124 110z" />
    <glyph glyph-name="dcaron" unicode="&#x10f;" horiz-adv-x="739" 
d="M456 454l37 266h146l-101 -720h-146l8 57c-44 -43 -101 -69 -164 -69c-141 0 -229 115 -208 267s143 267 284 267c63 0 112 -26 144 -68zM710 720h132l-75 -230h-110zM285 129c69 0 128 50 142 118l2 14c5 69 -39 120 -108 120c-72 0 -133 -54 -143 -126
s36 -126 107 -126z" />
    <glyph glyph-name="dcroat" unicode="&#x111;" horiz-adv-x="634" 
d="M693 660l-15 -105h-60l-78 -555h-146l8 56c-45 -42 -101 -68 -164 -68c-140 0 -229 115 -208 267s144 267 284 267c62 0 111 -25 144 -68l14 101h-105l14 105h106l8 60h146l-8 -60h60zM288 129c68 0 127 50 141 118l2 16c6 68 -39 118 -108 118c-72 0 -133 -54 -142 -126
c-10 -72 35 -126 107 -126z" />
    <glyph glyph-name="uni1E0D" unicode="&#x1e0d;" horiz-adv-x="634" 
d="M495 720h146l-101 -720h-146l8 56c-45 -42 -101 -68 -164 -68c-140 0 -229 115 -208 267s144 267 284 267c62 0 111 -25 144 -68zM288 129c68 0 127 50 141 118l2 16c6 68 -39 118 -108 118c-72 0 -133 -54 -142 -126c-10 -72 35 -126 107 -126zM271 -48
c49 0 81 -36 74 -85c-7 -48 -49 -84 -97 -84c-49 0 -80 36 -74 84c7 49 49 85 97 85z" />
    <glyph glyph-name="uni01F3" unicode="&#x1f3;" horiz-adv-x="1130" 
d="M495 720h146l-101 -720h-146l8 56c-45 -42 -101 -68 -164 -68c-140 0 -229 115 -208 267s144 267 284 267c62 0 111 -25 144 -68zM1124 510l-16 -106l-250 -263h221l-20 -141h-426l16 106l250 263h-210l20 141h415zM288 129c68 0 127 50 141 118l2 16
c6 68 -39 118 -108 118c-72 0 -133 -54 -142 -126c-10 -72 35 -126 107 -126z" />
    <glyph glyph-name="uni01C6" unicode="&#x1c6;" horiz-adv-x="1130" 
d="M495 720h146l-101 -720h-146l8 56c-45 -42 -101 -68 -164 -68c-140 0 -229 115 -208 267s144 267 284 267c62 0 111 -25 144 -68zM1013 562h-176l-78 148h137l40 -69l60 69h137zM689 369l20 141h415l-16 -106l-250 -263h221l-20 -141h-426l16 106l250 263h-210zM288 129
c68 0 127 50 141 118l2 16c6 68 -39 118 -108 118c-72 0 -133 -54 -142 -126c-10 -72 35 -126 107 -126z" />
    <glyph glyph-name="e" unicode="e" horiz-adv-x="604" 
d="M341 522c156 0 258 -114 236 -269c-2 -13 -5 -33 -10 -45h-390c8 -57 49 -93 109 -93c49 0 94 22 114 51h156c-52 -106 -164 -178 -291 -178c-157 0 -258 115 -237 267s156 267 313 267zM323 396c-57 0 -106 -35 -131 -91h236c-8 56 -49 91 -105 91z" />
    <glyph glyph-name="eacute" unicode="&#xe9;" horiz-adv-x="604" 
d="M566 710l-151 -148h-153l121 148h183zM341 522c156 0 258 -114 236 -269c-2 -13 -5 -33 -10 -45h-390c8 -57 49 -93 109 -93c49 0 94 22 114 51h156c-52 -106 -164 -178 -291 -178c-157 0 -258 115 -237 267s156 267 313 267zM323 396c-57 0 -106 -35 -131 -91h236
c-8 56 -49 91 -105 91z" />
    <glyph glyph-name="ebreve" unicode="&#x115;" horiz-adv-x="604" 
d="M345 552c-94 0 -156 68 -143 157h113c-5 -31 14 -53 44 -53s56 22 60 53h113c-13 -89 -93 -157 -187 -157zM341 522c156 0 258 -114 236 -269c-2 -13 -5 -33 -10 -45h-390c8 -57 49 -93 109 -93c49 0 94 22 114 51h156c-52 -106 -164 -178 -291 -178
c-157 0 -258 115 -237 267s156 267 313 267zM323 396c-57 0 -106 -35 -131 -91h236c-8 56 -49 91 -105 91z" />
    <glyph glyph-name="ecaron" unicode="&#x11b;" horiz-adv-x="604" 
d="M434 562h-176l-78 148h137l40 -69l59 69h137zM341 522c156 0 258 -114 236 -269c-2 -13 -5 -33 -10 -45h-390c8 -57 49 -93 109 -93c49 0 94 22 114 51h156c-52 -106 -164 -178 -291 -178c-157 0 -258 115 -237 267s156 267 313 267zM323 396c-57 0 -106 -35 -131 -91
h236c-8 56 -49 91 -105 91z" />
    <glyph glyph-name="ecircumflex" unicode="&#xea;" horiz-adv-x="604" 
d="M356 631l-60 -69h-137l120 148h175l79 -148h-137zM341 522c156 0 258 -114 236 -269c-2 -13 -5 -33 -10 -45h-390c8 -57 49 -93 109 -93c49 0 94 22 114 51h156c-52 -106 -164 -178 -291 -178c-157 0 -258 115 -237 267s156 267 313 267zM323 396
c-57 0 -106 -35 -131 -91h236c-8 56 -49 91 -105 91z" />
    <glyph glyph-name="uni0205" unicode="&#x205;" horiz-adv-x="604" 
d="M309 562h-141l-83 148h158zM532 562h-140l-84 148h159zM341 522c156 0 258 -114 236 -269c-2 -13 -5 -33 -10 -45h-390c8 -57 49 -93 109 -93c49 0 94 22 114 51h156c-52 -106 -164 -178 -291 -178c-157 0 -258 115 -237 267s156 267 313 267zM323 396
c-57 0 -106 -35 -131 -91h236c-8 56 -49 91 -105 91z" />
    <glyph glyph-name="edieresis" unicode="&#xeb;" horiz-adv-x="604" 
d="M236 558c-46 0 -76 35 -70 81s47 80 93 80s76 -34 69 -80c-6 -46 -46 -81 -92 -81zM455 558c-46 0 -76 35 -70 81s47 80 93 80s76 -34 69 -80c-6 -46 -46 -81 -92 -81zM341 522c156 0 258 -114 236 -269c-2 -13 -5 -33 -10 -45h-390c8 -57 49 -93 109 -93
c49 0 94 22 114 51h156c-52 -106 -164 -178 -291 -178c-157 0 -258 115 -237 267s156 267 313 267zM323 396c-57 0 -106 -35 -131 -91h236c-8 56 -49 91 -105 91z" />
    <glyph glyph-name="edotaccent" unicode="&#x117;" horiz-adv-x="604" 
d="M345 558c-48 0 -80 36 -73 85c6 48 48 84 97 84c48 0 80 -36 73 -84c-7 -49 -49 -85 -97 -85zM341 522c156 0 258 -114 236 -269c-2 -13 -5 -33 -10 -45h-390c8 -57 49 -93 109 -93c49 0 94 22 114 51h156c-52 -106 -164 -178 -291 -178c-157 0 -258 115 -237 267
s156 267 313 267zM323 396c-57 0 -106 -35 -131 -91h236c-8 56 -49 91 -105 91z" />
    <glyph glyph-name="uni1EB9" unicode="&#x1eb9;" horiz-adv-x="604" 
d="M341 522c156 0 258 -114 236 -269c-2 -13 -5 -33 -10 -45h-390c8 -57 49 -93 109 -93c49 0 94 22 114 51h156c-52 -106 -164 -178 -291 -178c-157 0 -258 115 -237 267s156 267 313 267zM323 396c-57 0 -106 -35 -131 -91h236c-8 56 -49 91 -105 91zM259 -48
c49 0 81 -36 74 -85c-7 -48 -49 -84 -97 -84c-49 0 -80 36 -74 84c7 49 49 85 97 85z" />
    <glyph glyph-name="egrave" unicode="&#xe8;" horiz-adv-x="604" 
d="M429 562h-153l-109 148h183zM341 522c156 0 258 -114 236 -269c-2 -13 -5 -33 -10 -45h-390c8 -57 49 -93 109 -93c49 0 94 22 114 51h156c-52 -106 -164 -178 -291 -178c-157 0 -258 115 -237 267s156 267 313 267zM323 396c-57 0 -106 -35 -131 -91h236
c-8 56 -49 91 -105 91z" />
    <glyph glyph-name="uni0207" unicode="&#x207;" horiz-adv-x="604" 
d="M353 613c-30 0 -55 -22 -60 -53h-112c13 90 93 157 187 157s155 -67 143 -157h-113c5 31 -15 53 -45 53zM341 522c156 0 258 -114 236 -269c-2 -13 -5 -33 -10 -45h-390c8 -57 49 -93 109 -93c49 0 94 22 114 51h156c-52 -106 -164 -178 -291 -178
c-157 0 -258 115 -237 267s156 267 313 267zM323 396c-57 0 -106 -35 -131 -91h236c-8 56 -49 91 -105 91z" />
    <glyph glyph-name="emacron" unicode="&#x113;" horiz-adv-x="604" 
d="M501 694l-17 -123h-273l17 123h273zM341 522c156 0 258 -114 236 -269c-2 -13 -5 -33 -10 -45h-390c8 -57 49 -93 109 -93c49 0 94 22 114 51h156c-52 -106 -164 -178 -291 -178c-157 0 -258 115 -237 267s156 267 313 267zM323 396c-57 0 -106 -35 -131 -91h236
c-8 56 -49 91 -105 91z" />
    <glyph glyph-name="eogonek" unicode="&#x119;" horiz-adv-x="604" 
d="M341 522c156 0 258 -114 236 -269c-2 -13 -5 -33 -10 -45h-390c8 -57 49 -93 109 -93c49 0 94 22 114 51h156c-35 -71 -96 -126 -170 -155c-55 -36 -80 -72 -84 -103c-4 -30 15 -49 43 -49c21 0 47 11 65 26l-14 -103c-24 -16 -65 -27 -100 -27c-77 0 -127 52 -118 122
c6 42 30 81 65 112c-145 10 -235 121 -215 266c21 152 156 267 313 267zM323 396c-57 0 -106 -35 -131 -91h236c-8 56 -49 91 -105 91z" />
    <glyph glyph-name="uni1EBD" unicode="&#x1ebd;" horiz-adv-x="604" 
d="M305 605c-20 0 -37 -16 -39 -35h-103c12 84 61 150 139 150c56 0 75 -37 107 -37c19 0 36 15 38 35h102c-11 -86 -60 -150 -139 -150c-56 0 -74 37 -105 37zM341 522c156 0 258 -114 236 -269c-2 -13 -5 -33 -10 -45h-390c8 -57 49 -93 109 -93c49 0 94 22 114 51h156
c-52 -106 -164 -178 -291 -178c-157 0 -258 115 -237 267s156 267 313 267zM323 396c-57 0 -106 -35 -131 -91h236c-8 56 -49 91 -105 91z" />
    <glyph glyph-name="f" unicode="f" horiz-adv-x="368" 
d="M395 596c-66 0 -103 -22 -110 -77l-1 -9h99l-19 -133h-99l-53 -377h-146l53 377h-77l19 133h77l2 17c20 143 105 203 273 203z" />
    <glyph glyph-name="g" unicode="g" horiz-adv-x="632" 
d="M466 510h146l-64 -455c-22 -155 -141 -257 -299 -257c-134 0 -219 73 -232 190h150c11 -35 50 -57 101 -57c70 0 123 50 134 125l2 16c-44 -42 -100 -67 -163 -67c-141 0 -230 112 -209 259c20 147 141 258 282 258c63 0 112 -25 144 -66zM288 138c72 0 133 54 143 126
c10 71 -35 126 -107 126c-71 0 -133 -55 -142 -126c-11 -72 34 -126 106 -126z" />
    <glyph glyph-name="uni01F5" unicode="&#x1f5;" horiz-adv-x="632" 
d="M584 710l-151 -148h-153l121 148h183zM466 510h146l-64 -455c-22 -155 -141 -257 -299 -257c-134 0 -219 73 -232 190h150c11 -35 50 -57 101 -57c70 0 123 50 134 125l2 16c-44 -42 -100 -67 -163 -67c-141 0 -230 112 -209 259c20 147 141 258 282 258
c63 0 112 -25 144 -66zM288 138c72 0 133 54 143 126c10 71 -35 126 -107 126c-71 0 -133 -55 -142 -126c-11 -72 34 -126 106 -126z" />
    <glyph glyph-name="gbreve" unicode="&#x11f;" horiz-adv-x="632" 
d="M362 552c-94 0 -156 68 -143 157h113c-5 -31 14 -53 44 -53s56 22 60 53h113c-13 -89 -93 -157 -187 -157zM466 510h146l-64 -455c-22 -155 -141 -257 -299 -257c-134 0 -219 73 -232 190h150c11 -35 50 -57 101 -57c70 0 123 50 134 125l2 16c-44 -42 -100 -67 -163 -67
c-141 0 -230 112 -209 259c20 147 141 258 282 258c63 0 112 -25 144 -66zM288 138c72 0 133 54 143 126c10 71 -35 126 -107 126c-71 0 -133 -55 -142 -126c-11 -72 34 -126 106 -126z" />
    <glyph glyph-name="gcaron" unicode="&#x1e7;" horiz-adv-x="632" 
d="M452 562h-176l-78 148h137l40 -69l59 69h137zM466 510h146l-64 -455c-22 -155 -141 -257 -299 -257c-134 0 -219 73 -232 190h150c11 -35 50 -57 101 -57c70 0 123 50 134 125l2 16c-44 -42 -100 -67 -163 -67c-141 0 -230 112 -209 259c20 147 141 258 282 258
c63 0 112 -25 144 -66zM288 138c72 0 133 54 143 126c10 71 -35 126 -107 126c-71 0 -133 -55 -142 -126c-11 -72 34 -126 106 -126z" />
    <glyph glyph-name="gcircumflex" unicode="&#x11d;" horiz-adv-x="632" 
d="M374 631l-60 -69h-137l120 148h175l79 -148h-137zM466 510h146l-64 -455c-22 -155 -141 -257 -299 -257c-134 0 -219 73 -232 190h150c11 -35 50 -57 101 -57c70 0 123 50 134 125l2 16c-44 -42 -100 -67 -163 -67c-141 0 -230 112 -209 259c20 147 141 258 282 258
c63 0 112 -25 144 -66zM288 138c72 0 133 54 143 126c10 71 -35 126 -107 126c-71 0 -133 -55 -142 -126c-11 -72 34 -126 106 -126z" />
    <glyph glyph-name="uni0123" unicode="&#x123;" horiz-adv-x="632" 
d="M484 736l-67 -176h-150l97 176h120zM466 510h146l-64 -455c-22 -155 -141 -257 -299 -257c-134 0 -219 73 -232 190h150c11 -35 50 -57 101 -57c70 0 123 50 134 125l2 16c-44 -42 -100 -67 -163 -67c-141 0 -230 112 -209 259c20 147 141 258 282 258
c63 0 112 -25 144 -66zM288 138c72 0 133 54 143 126c10 71 -35 126 -107 126c-71 0 -133 -55 -142 -126c-11 -72 34 -126 106 -126z" />
    <glyph glyph-name="gdotaccent" unicode="&#x121;" horiz-adv-x="632" 
d="M363 558c-48 0 -80 36 -73 85c6 48 48 84 97 84c48 0 80 -36 73 -84c-7 -49 -49 -85 -97 -85zM466 510h146l-64 -455c-22 -155 -141 -257 -299 -257c-134 0 -219 73 -232 190h150c11 -35 50 -57 101 -57c70 0 123 50 134 125l2 16c-44 -42 -100 -67 -163 -67
c-141 0 -230 112 -209 259c20 147 141 258 282 258c63 0 112 -25 144 -66zM288 138c72 0 133 54 143 126c10 71 -35 126 -107 126c-71 0 -133 -55 -142 -126c-11 -72 34 -126 106 -126z" />
    <glyph glyph-name="h" unicode="h" horiz-adv-x="603" 
d="M397 522c117 0 184 -77 167 -194l-46 -328h-146l40 279c8 62 -25 102 -84 102c-64 0 -112 -41 -121 -104l-39 -277h-146l101 720h146l-38 -271c46 48 102 73 166 73z" />
    <glyph glyph-name="hbar" unicode="&#x127;" horiz-adv-x="603" 
d="M397 522c117 0 184 -77 167 -194l-46 -328h-146l40 279c8 62 -25 102 -84 102c-64 0 -112 -41 -121 -104l-39 -277h-146l78 555h-58l14 105h59l8 60h146l-8 -60h107l-15 -105h-107l-15 -106c46 48 102 73 166 73z" />
    <glyph glyph-name="hcircumflex" unicode="&#x125;" horiz-adv-x="603" 
d="M212 827l-60 -69h-137l120 148h175l79 -148h-137zM397 522c117 0 184 -77 167 -194l-46 -328h-146l40 279c8 62 -25 102 -84 102c-64 0 -112 -41 -121 -104l-39 -277h-146l101 720h146l-38 -271c46 48 102 73 166 73z" />
    <glyph glyph-name="uni1E25" unicode="&#x1e25;" horiz-adv-x="603" 
d="M397 522c117 0 184 -77 167 -194l-46 -328h-146l40 279c8 62 -25 102 -84 102c-64 0 -112 -41 -121 -104l-39 -277h-146l101 720h146l-38 -271c46 48 102 73 166 73zM263 -48c49 0 81 -36 74 -85c-7 -48 -49 -84 -97 -84c-49 0 -80 36 -74 84c7 49 49 85 97 85z" />
    <glyph glyph-name="i" unicode="i" horiz-adv-x="262" 
d="M176 575c-51 0 -85 38 -78 90c8 51 52 89 103 89s85 -38 78 -89c-7 -52 -52 -90 -103 -90zM22 0l72 510h146l-72 -510h-146z" />
    <glyph glyph-name="dotlessi" unicode="&#x131;" horiz-adv-x="262" 
d="M22 0l72 510h146l-72 -510h-146z" />
    <glyph glyph-name="iacute" unicode="&#xed;" horiz-adv-x="262" 
d="M91 562l121 148h183l-151 -148h-153zM22 0l72 510h146l-72 -510h-146z" />
    <glyph glyph-name="ibreve" unicode="&#x12d;" horiz-adv-x="262" 
d="M173 552c-94 0 -156 68 -143 157h113c-5 -31 14 -53 44 -53s56 22 60 53h113c-13 -89 -93 -157 -187 -157zM22 0l72 510h146l-72 -510h-146z" />
    <glyph glyph-name="icircumflex" unicode="&#xee;" horiz-adv-x="262" 
d="M184 631l-60 -69h-137l120 148h175l79 -148h-137zM22 0l72 510h146l-72 -510h-146z" />
    <glyph glyph-name="uni0209" unicode="&#x209;" horiz-adv-x="262" 
d="M-4 562l-83 148h158l66 -148h-141zM220 562l-84 148h159l65 -148h-140zM22 0l72 510h146l-72 -510h-146z" />
    <glyph glyph-name="idieresis" unicode="&#xef;" horiz-adv-x="262" 
d="M64 558c-46 0 -76 35 -70 81s47 80 93 80s76 -34 69 -80c-6 -46 -46 -81 -92 -81zM283 558c-46 0 -76 35 -70 81s47 80 93 80s76 -34 69 -80c-6 -46 -46 -81 -92 -81zM22 0l72 510h146l-72 -510h-146z" />
    <glyph glyph-name="i.loclTRK" horiz-adv-x="262" 
d="M174 558c-48 0 -80 36 -73 85c6 48 48 84 97 84c48 0 80 -36 73 -84c-7 -49 -49 -85 -97 -85zM22 0l72 510h146l-72 -510h-146z" />
    <glyph glyph-name="uni1ECB" unicode="&#x1ecb;" horiz-adv-x="262" 
d="M176 575c-51 0 -85 38 -78 90c8 51 52 89 103 89s85 -38 78 -89c-7 -52 -52 -90 -103 -90zM22 0l72 510h146l-72 -510h-146zM65 -217c-49 0 -80 36 -74 84c7 49 49 85 97 85c49 0 81 -36 74 -85c-7 -48 -49 -84 -97 -84z" />
    <glyph glyph-name="igrave" unicode="&#xec;" horiz-adv-x="262" 
d="M105 562l-109 148h183l79 -148h-153zM22 0l72 510h146l-72 -510h-146z" />
    <glyph glyph-name="uni020B" unicode="&#x20b;" horiz-adv-x="262" 
d="M9 560c13 90 93 157 187 157s155 -67 143 -157h-113c5 31 -15 53 -45 53s-55 -22 -60 -53h-112zM22 0l72 510h146l-72 -510h-146z" />
    <glyph glyph-name="ij" unicode="&#x133;" horiz-adv-x="529" 
d="M176 575c-51 0 -85 38 -78 90c8 51 52 89 103 89s85 -38 78 -89c-7 -52 -52 -90 -103 -90zM443 575c-52 0 -86 38 -78 90c7 51 51 89 103 89c51 0 85 -38 78 -89c-8 -52 -52 -90 -103 -90zM22 0l72 510h146l-72 -510h-146zM184 -202l19 133c49 0 80 24 86 73l72 506h146
l-73 -514c-18 -133 -102 -198 -250 -198z" />
    <glyph glyph-name="imacron" unicode="&#x12b;" horiz-adv-x="262" 
d="M39 571l17 123h273l-17 -123h-273zM22 0l72 510h146l-72 -510h-146z" />
    <glyph glyph-name="iogonek" unicode="&#x12f;" horiz-adv-x="262" 
d="M198 727c48 0 80 -36 73 -84c-7 -49 -49 -85 -97 -85s-80 36 -73 85c6 48 48 84 97 84zM22 0l72 510h146l-72 -510h-1c-83 -34 -114 -68 -119 -98c-4 -29 18 -42 40 -42c21 0 48 10 67 24l-14 -103c-23 -15 -65 -26 -99 -26c-74 0 -123 49 -114 114c9 57 58 107 120 131
h-26z" />
    <glyph glyph-name="itilde" unicode="&#x129;" horiz-adv-x="262" 
d="M239 568c-56 0 -74 37 -105 37c-20 0 -37 -16 -39 -35h-103c12 84 61 150 139 150c56 0 75 -37 107 -37c19 0 36 15 38 35h102c-11 -86 -60 -150 -139 -150zM22 0l72 510h146l-72 -510h-146z" />
    <glyph glyph-name="j" unicode="j" horiz-adv-x="267" 
d="M181 575c-52 0 -86 38 -78 90c7 51 51 89 103 89c51 0 85 -38 78 -89c-8 -52 -52 -90 -103 -90zM-78 -202l19 133c49 0 80 24 86 73l72 506h146l-73 -514c-18 -133 -102 -198 -250 -198z" />
    <glyph glyph-name="uni0237" unicode="&#x237;" horiz-adv-x="267" 
d="M-78 -202l19 133c49 0 80 24 86 73l72 506h146l-73 -514c-18 -133 -102 -198 -250 -198z" />
    <glyph glyph-name="jcircumflex" unicode="&#x135;" horiz-adv-x="267" 
d="M189 631l-60 -69h-137l120 148h175l79 -148h-137zM27 4l72 506h146l-73 -514c-18 -133 -102 -198 -250 -198l19 133c49 0 80 24 86 73z" />
    <glyph glyph-name="k" unicode="k" horiz-adv-x="548" 
d="M580 510l-243 -253l178 -257h-185l-134 195l-28 -195h-146l101 720h146l-55 -398l182 188h184z" />
    <glyph glyph-name="uni0137" unicode="&#x137;" horiz-adv-x="548" 
d="M580 510l-243 -253l178 -257h-185l-134 195l-28 -195h-146l101 720h146l-55 -398l182 188h184zM119 -227l67 175h150l-97 -175h-120z" />
    <glyph glyph-name="l" unicode="l" horiz-adv-x="262" 
d="M22 0l101 720h146l-101 -720h-146z" />
    <glyph glyph-name="lacute" unicode="&#x13a;" horiz-adv-x="262" 
d="M118 758l121 148h183l-151 -148h-153zM22 0l101 720h146l-101 -720h-146z" />
    <glyph glyph-name="lcaron" unicode="&#x13e;" horiz-adv-x="370" 
d="M22 0l101 720h146l-101 -720h-146zM288 490l53 230h131l-74 -230h-110z" />
    <glyph glyph-name="uni013C" unicode="&#x13c;" horiz-adv-x="262" 
d="M22 0l101 720h146l-101 -720h-146zM-39 -227l67 175h150l-97 -175h-120z" />
    <glyph glyph-name="ldot" unicode="&#x140;" horiz-adv-x="444" 
d="M22 0l101 720h146l-101 -720h-146zM339 271c-50 0 -84 38 -76 89c6 51 51 89 101 89c51 0 84 -38 77 -89s-51 -89 -102 -89z" />
    <glyph glyph-name="uni01C9" unicode="&#x1c9;" horiz-adv-x="529" 
d="M443 575c-52 0 -86 38 -78 90c7 51 51 89 103 89c51 0 85 -38 78 -89c-8 -52 -52 -90 -103 -90zM22 0l101 720h146l-101 -720h-146zM184 -202l19 133c49 0 80 24 86 73l72 506h146l-73 -514c-18 -133 -102 -198 -250 -198z" />
    <glyph glyph-name="lslash" unicode="&#x142;" horiz-adv-x="331" 
d="M343 507l-19 -132l-75 -40l-47 -335h-146l35 252l-74 -39l19 132l74 39l47 336h146l-35 -253z" />
    <glyph glyph-name="m" unicode="m" horiz-adv-x="913" 
d="M717 522c111 0 174 -75 158 -189l-47 -333h-146l41 289c7 55 -22 92 -75 92s-96 -33 -108 -83l-42 -298h-146l41 289c7 55 -22 92 -75 92s-96 -33 -108 -83l-42 -298h-146l72 510h146l-8 -54c43 43 96 66 155 66c73 0 125 -33 148 -87c48 57 110 87 182 87z" />
    <glyph glyph-name="n" unicode="n" horiz-adv-x="603" 
d="M397 522c117 0 184 -77 167 -194l-46 -328h-146l40 279c8 62 -25 102 -84 102c-64 0 -112 -42 -121 -105l-39 -276h-146l72 510h146l-8 -57c45 45 102 69 165 69z" />
    <glyph glyph-name="nacute" unicode="&#x144;" horiz-adv-x="603" 
d="M571 710l-151 -148h-153l121 148h183zM397 522c117 0 184 -77 167 -194l-46 -328h-146l40 279c8 62 -25 102 -84 102c-64 0 -112 -42 -121 -105l-39 -276h-146l72 510h146l-8 -57c45 45 102 69 165 69z" />
    <glyph glyph-name="ncaron" unicode="&#x148;" horiz-adv-x="603" 
d="M439 562h-176l-78 148h137l40 -69l59 69h137zM397 522c117 0 184 -77 167 -194l-46 -328h-146l40 279c8 62 -25 102 -84 102c-64 0 -112 -42 -121 -105l-39 -276h-146l72 510h146l-8 -57c45 45 102 69 165 69z" />
    <glyph glyph-name="uni0146" unicode="&#x146;" horiz-adv-x="603" 
d="M397 522c117 0 184 -77 167 -194l-46 -328h-146l40 279c8 62 -25 102 -84 102c-64 0 -112 -42 -121 -105l-39 -276h-146l72 510h146l-8 -57c45 45 102 69 165 69zM136 -227l67 175h150l-97 -175h-120z" />
    <glyph glyph-name="uni1E45" unicode="&#x1e45;" horiz-adv-x="603" 
d="M350 558c-48 0 -80 36 -73 85c6 48 48 84 97 84c48 0 80 -36 73 -84c-7 -49 -49 -85 -97 -85zM397 522c117 0 184 -77 167 -194l-46 -328h-146l40 279c8 62 -25 102 -84 102c-64 0 -112 -42 -121 -105l-39 -276h-146l72 510h146l-8 -57c45 45 102 69 165 69z" />
    <glyph glyph-name="eng" unicode="&#x14b;" horiz-adv-x="603" 
d="M397 522c117 0 184 -77 167 -194l-48 -348c-18 -126 -99 -188 -236 -188l20 141c40 0 65 17 70 52l42 294c8 62 -25 102 -84 102c-62 0 -109 -39 -120 -99l-40 -282h-146l72 510h146l-8 -56c45 45 102 68 165 68z" />
    <glyph glyph-name="uni01CC" unicode="&#x1cc;" horiz-adv-x="870" 
d="M809 754c51 0 85 -38 78 -89c-8 -52 -52 -90 -103 -90c-52 0 -86 38 -78 90c7 51 51 89 103 89zM397 522c117 0 184 -77 167 -194l-46 -328h-146l40 279c8 62 -25 102 -84 102c-64 0 -112 -42 -121 -105l-39 -276h-146l72 510h146l-8 -57c45 45 102 69 165 69zM630 4
l72 506h146l-73 -514c-18 -133 -102 -198 -250 -198l19 133c49 0 80 24 86 73z" />
    <glyph glyph-name="ntilde" unicode="&#xf1;" horiz-adv-x="603" 
d="M310 605c-20 0 -37 -16 -39 -35h-103c12 84 61 150 139 150c56 0 75 -37 107 -37c19 0 36 15 38 35h102c-11 -86 -60 -150 -139 -150c-56 0 -74 37 -105 37zM397 522c117 0 184 -77 167 -194l-46 -328h-146l40 279c8 62 -25 102 -84 102c-64 0 -112 -42 -121 -105
l-39 -276h-146l72 510h146l-8 -57c45 45 102 69 165 69z" />
    <glyph glyph-name="o" unicode="o" horiz-adv-x="606" 
d="M265 -12c-157 0 -258 115 -237 267s156 267 313 267s258 -115 237 -267s-156 -267 -313 -267zM285 129c72 0 133 54 143 126c9 72 -36 126 -107 126c-72 0 -133 -54 -143 -126s36 -126 107 -126z" />
    <glyph glyph-name="oacute" unicode="&#xf3;" horiz-adv-x="606" 
d="M262 562l121 148h183l-151 -148h-153zM265 -12c-157 0 -258 115 -237 267s156 267 313 267s258 -115 237 -267s-156 -267 -313 -267zM285 129c72 0 133 54 143 126c9 72 -36 126 -107 126c-72 0 -133 -54 -143 -126s36 -126 107 -126z" />
    <glyph glyph-name="obreve" unicode="&#x14f;" horiz-adv-x="606" 
d="M345 552c-94 0 -156 68 -143 157h113c-5 -31 14 -53 44 -53s56 22 60 53h113c-13 -89 -93 -157 -187 -157zM265 -12c-157 0 -258 115 -237 267s156 267 313 267s258 -115 237 -267s-156 -267 -313 -267zM285 129c72 0 133 54 143 126c9 72 -36 126 -107 126
c-72 0 -133 -54 -143 -126s36 -126 107 -126z" />
    <glyph glyph-name="ocircumflex" unicode="&#xf4;" horiz-adv-x="606" 
d="M356 631l-60 -69h-137l120 148h175l79 -148h-137zM341 522c157 0 258 -115 237 -267s-156 -267 -313 -267s-258 115 -237 267s156 267 313 267zM428 255c9 72 -36 126 -107 126c-72 0 -133 -54 -143 -126s36 -126 107 -126c72 0 133 54 143 126z" />
    <glyph glyph-name="uni020D" unicode="&#x20d;" horiz-adv-x="606" 
d="M168 562l-83 148h158l66 -148h-141zM392 562l-84 148h159l65 -148h-140zM265 -12c-157 0 -258 115 -237 267s156 267 313 267s258 -115 237 -267s-156 -267 -313 -267zM285 129c72 0 133 54 143 126c9 72 -36 126 -107 126c-72 0 -133 -54 -143 -126s36 -126 107 -126z
" />
    <glyph glyph-name="odieresis" unicode="&#xf6;" horiz-adv-x="606" 
d="M236 558c-46 0 -76 35 -70 81s47 80 93 80s76 -34 69 -80c-6 -46 -46 -81 -92 -81zM455 558c-46 0 -76 35 -70 81s47 80 93 80s76 -34 69 -80c-6 -46 -46 -81 -92 -81zM265 -12c-157 0 -258 115 -237 267s156 267 313 267s258 -115 237 -267s-156 -267 -313 -267z
M285 129c72 0 133 54 143 126c9 72 -36 126 -107 126c-72 0 -133 -54 -143 -126s36 -126 107 -126z" />
    <glyph glyph-name="uni1ECD" unicode="&#x1ecd;" horiz-adv-x="606" 
d="M265 -12c-157 0 -258 115 -237 267s156 267 313 267s258 -115 237 -267s-156 -267 -313 -267zM285 129c72 0 133 54 143 126c9 72 -36 126 -107 126c-72 0 -133 -54 -143 -126s36 -126 107 -126zM237 -217c-49 0 -80 36 -74 84c7 49 49 85 97 85c49 0 81 -36 74 -85
c-7 -48 -49 -84 -97 -84z" />
    <glyph glyph-name="ograve" unicode="&#xf2;" horiz-adv-x="606" 
d="M276 562l-109 148h183l79 -148h-153zM265 -12c-157 0 -258 115 -237 267s156 267 313 267s258 -115 237 -267s-156 -267 -313 -267zM285 129c72 0 133 54 143 126c9 72 -36 126 -107 126c-72 0 -133 -54 -143 -126s36 -126 107 -126z" />
    <glyph glyph-name="ohungarumlaut" unicode="&#x151;" horiz-adv-x="606" 
d="M160 562l107 148h158l-124 -148h-141zM384 562l106 148h159l-125 -148h-140zM265 -12c-157 0 -258 115 -237 267s156 267 313 267s258 -115 237 -267s-156 -267 -313 -267zM285 129c72 0 133 54 143 126c9 72 -36 126 -107 126c-72 0 -133 -54 -143 -126
s36 -126 107 -126z" />
    <glyph glyph-name="uni020F" unicode="&#x20f;" horiz-adv-x="606" 
d="M181 560c13 90 93 157 187 157s155 -67 143 -157h-113c5 31 -15 53 -45 53s-55 -22 -60 -53h-112zM265 -12c-157 0 -258 115 -237 267s156 267 313 267s258 -115 237 -267s-156 -267 -313 -267zM285 129c72 0 133 54 143 126c9 72 -36 126 -107 126
c-72 0 -133 -54 -143 -126s36 -126 107 -126z" />
    <glyph glyph-name="omacron" unicode="&#x14d;" horiz-adv-x="606" 
d="M211 571l17 123h273l-17 -123h-273zM265 -12c-157 0 -258 115 -237 267s156 267 313 267s258 -115 237 -267s-156 -267 -313 -267zM285 129c72 0 133 54 143 126c9 72 -36 126 -107 126c-72 0 -133 -54 -143 -126s36 -126 107 -126z" />
    <glyph glyph-name="uni01EB" unicode="&#x1eb;" horiz-adv-x="606" 
d="M341 522c157 0 258 -115 237 -267c-17 -120 -104 -216 -216 -252c-61 -30 -86 -59 -90 -85c-4 -29 18 -42 40 -42c21 0 48 10 67 24l-14 -103c-23 -15 -65 -26 -99 -26c-74 0 -123 49 -114 114c6 41 34 79 72 106c-133 18 -215 126 -196 264c21 152 156 267 313 267z
M428 255c9 72 -36 126 -107 126c-72 0 -133 -54 -143 -126s36 -126 107 -126c72 0 133 54 143 126z" />
    <glyph glyph-name="oslash" unicode="&#xf8;" horiz-adv-x="606" 
d="M616 510l-79 -77c35 -47 51 -109 41 -178c-21 -152 -156 -267 -313 -267c-56 0 -105 15 -144 40l-29 -28h-103l80 78c-35 46 -51 108 -41 177c21 152 156 267 313 267c56 0 104 -15 143 -40l29 28h103zM178 255c-3 -24 -1 -45 7 -64l185 180c-14 6 -31 10 -49 10
c-72 0 -133 -54 -143 -126zM428 255c3 24 0 46 -8 64l-185 -180c15 -6 32 -10 50 -10c72 0 133 54 143 126z" />
    <glyph glyph-name="oslashacute" unicode="&#x1ff;" horiz-adv-x="606" 
d="M577 710l-151 -148h-153l121 148h183zM616 510l-79 -77c35 -47 51 -109 41 -178c-21 -152 -156 -267 -313 -267c-56 0 -105 15 -144 40l-29 -28h-103l80 78c-35 46 -51 108 -41 177c21 152 156 267 313 267c56 0 104 -15 143 -40l29 28h103zM178 255c-3 -24 -1 -45 7 -64
l185 180c-14 6 -31 10 -49 10c-72 0 -133 -54 -143 -126zM428 255c3 24 0 46 -8 64l-185 -180c15 -6 32 -10 50 -10c72 0 133 54 143 126z" />
    <glyph glyph-name="otilde" unicode="&#xf5;" horiz-adv-x="606" 
d="M411 568c-56 0 -74 37 -105 37c-20 0 -37 -16 -39 -35h-103c12 84 61 150 139 150c56 0 75 -37 107 -37c19 0 36 15 38 35h102c-11 -86 -60 -150 -139 -150zM265 -12c-157 0 -258 115 -237 267s156 267 313 267s258 -115 237 -267s-156 -267 -313 -267zM285 129
c72 0 133 54 143 126c9 72 -36 126 -107 126c-72 0 -133 -54 -143 -126s36 -126 107 -126z" />
    <glyph glyph-name="oe" unicode="&#x153;" horiz-adv-x="1004" 
d="M748 522c151 0 251 -115 229 -269c-2 -13 -5 -33 -10 -45h-389c7 -57 48 -93 108 -93c49 0 94 23 114 51h156c-49 -102 -160 -178 -285 -178c-88 0 -155 39 -191 102c-55 -63 -134 -102 -222 -102c-151 0 -251 115 -230 267s155 267 306 267c88 0 155 -39 192 -102
c55 63 134 102 222 102zM722 395c-56 0 -105 -35 -130 -90h237c-8 55 -51 90 -107 90zM427 255c10 72 -35 126 -107 126c-71 0 -132 -54 -142 -126s35 -126 107 -126s132 54 142 126z" />
    <glyph glyph-name="p" unicode="p" horiz-adv-x="634" 
d="M396 522c141 0 229 -115 208 -267s-143 -267 -284 -267c-63 0 -112 26 -144 69l-35 -247h-146l99 700h146l-8 -57c44 43 101 69 164 69zM454 255c9 72 -36 126 -107 126c-72 0 -133 -54 -143 -126c-9 -72 36 -126 107 -126c72 0 133 54 143 126z" />
    <glyph glyph-name="thorn" unicode="&#xfe;" horiz-adv-x="634" 
d="M396 522c141 0 229 -115 208 -267s-143 -267 -284 -267c-63 0 -112 26 -144 69l-35 -247h-146l128 910h146l-38 -268c45 44 102 70 165 70zM454 255c9 72 -36 126 -107 126c-72 0 -133 -54 -143 -126c-9 -72 36 -126 107 -126c72 0 133 54 143 126z" />
    <glyph glyph-name="q" unicode="q" horiz-adv-x="634" 
d="M466 510h146l-99 -700h-146l35 246c-45 -43 -101 -68 -164 -68c-140 0 -229 115 -208 267s144 267 284 267c63 0 112 -26 144 -68zM288 129c69 0 129 52 141 121l1 9c8 70 -36 122 -107 122c-72 0 -133 -54 -142 -126c-10 -72 35 -126 107 -126z" />
    <glyph glyph-name="r" unicode="r" horiz-adv-x="364" 
d="M230 442c44 48 96 76 153 76l-21 -150c-92 0 -149 -51 -160 -130l-34 -238h-146l72 510h146z" />
    <glyph glyph-name="racute" unicode="&#x155;" horiz-adv-x="364" 
d="M466 710l-151 -148h-153l121 148h183zM230 442c44 48 96 76 153 76l-21 -150c-92 0 -149 -51 -160 -130l-34 -238h-146l72 510h146z" />
    <glyph glyph-name="rcaron" unicode="&#x159;" horiz-adv-x="364" 
d="M334 562h-176l-78 148h137l40 -69l59 69h137zM230 442c44 48 96 76 153 76l-21 -150c-92 0 -149 -51 -160 -130l-34 -238h-146l72 510h146z" />
    <glyph glyph-name="uni0157" unicode="&#x157;" horiz-adv-x="364" 
d="M230 442c44 48 96 76 153 76l-21 -150c-92 0 -149 -51 -160 -130l-34 -238h-146l72 510h146zM-39 -227l67 175h150l-97 -175h-120z" />
    <glyph glyph-name="uni0211" unicode="&#x211;" horiz-adv-x="364" 
d="M208 562h-141l-83 148h158zM431 562h-140l-84 148h159zM230 442c44 48 96 76 153 76l-21 -150c-92 0 -149 -51 -160 -130l-34 -238h-146l72 510h146z" />
    <glyph glyph-name="uni1E5B" unicode="&#x1e5b;" horiz-adv-x="364" 
d="M230 442c44 48 96 76 153 76l-21 -150c-92 0 -149 -51 -160 -130l-34 -238h-146l72 510h146zM88 -48c49 0 81 -36 74 -85c-7 -48 -49 -84 -97 -84c-49 0 -80 36 -74 84c7 49 49 85 97 85z" />
    <glyph glyph-name="uni0213" unicode="&#x213;" horiz-adv-x="364" 
d="M267 717c94 0 155 -67 143 -157h-113c5 31 -15 53 -45 53s-55 -22 -60 -53h-112c13 90 93 157 187 157zM230 442c44 48 96 76 153 76l-21 -150c-92 0 -149 -51 -160 -130l-34 -238h-146l72 510h146z" />
    <glyph glyph-name="s" unicode="s" horiz-adv-x="451" 
d="M188 -12c-115 0 -188 75 -174 167h145c-4 -28 16 -51 47 -51c28 0 53 17 55 39c5 32 -33 47 -74 56c-74 18 -152 57 -138 162c15 105 112 161 213 161c110 0 182 -71 169 -160h-146c4 24 -13 44 -40 44c-24 0 -46 -16 -49 -35c-3 -29 28 -45 78 -57
c74 -19 150 -55 135 -158c-15 -107 -113 -168 -221 -168z" />
    <glyph glyph-name="sacute" unicode="&#x15b;" horiz-adv-x="451" 
d="M184 562l121 148h183l-151 -148h-153zM188 -12c-115 0 -188 75 -174 167h145c-4 -28 16 -51 47 -51c28 0 53 17 55 39c5 32 -33 47 -74 56c-74 18 -152 57 -138 162c15 105 112 161 213 161c110 0 182 -71 169 -160h-146c4 24 -13 44 -40 44c-24 0 -46 -16 -49 -35
c-3 -29 28 -45 78 -57c74 -19 150 -55 135 -158c-15 -107 -113 -168 -221 -168z" />
    <glyph glyph-name="scaron" unicode="&#x161;" horiz-adv-x="451" 
d="M356 562h-176l-78 148h137l40 -69l59 69h137zM262 522c110 0 182 -71 169 -160h-146c4 24 -13 44 -40 44c-24 0 -46 -16 -49 -35c-3 -29 28 -45 78 -57c74 -19 150 -55 135 -158c-15 -107 -113 -168 -221 -168c-115 0 -188 75 -174 167h145c-4 -28 16 -51 47 -51
c28 0 53 17 55 39c5 32 -33 47 -74 56c-74 18 -152 57 -138 162c15 105 112 161 213 161z" />
    <glyph glyph-name="scedilla" unicode="&#x15f;" horiz-adv-x="451" 
d="M431 362h-146c4 24 -13 44 -40 44c-24 0 -46 -16 -49 -35c-3 -29 28 -45 78 -57c74 -19 150 -55 135 -158c-13 -89 -83 -147 -169 -163l-21 -22c53 -6 86 -51 78 -108c-9 -64 -69 -114 -140 -114s-117 50 -108 114h87c-3 -20 13 -35 33 -35s38 15 41 35s-13 35 -32 35
c-13 0 -25 -7 -31 -13l-76 36l68 72c-86 18 -137 84 -125 162h145c-4 -28 16 -51 47 -51c28 0 53 17 55 39c5 32 -33 47 -74 56c-74 18 -152 57 -138 162c15 105 112 161 213 161c110 0 182 -71 169 -160z" />
    <glyph glyph-name="scircumflex" unicode="&#x15d;" horiz-adv-x="451" 
d="M278 631l-60 -69h-137l120 148h175l79 -148h-137zM262 522c110 0 182 -71 169 -160h-146c4 24 -13 44 -40 44c-24 0 -46 -16 -49 -35c-3 -29 28 -45 78 -57c74 -19 150 -55 135 -158c-15 -107 -113 -168 -221 -168c-115 0 -188 75 -174 167h145c-4 -28 16 -51 47 -51
c28 0 53 17 55 39c5 32 -33 47 -74 56c-74 18 -152 57 -138 162c15 105 112 161 213 161z" />
    <glyph glyph-name="uni0219" unicode="&#x219;" horiz-adv-x="451" 
d="M188 -12c-115 0 -188 75 -174 167h145c-4 -28 16 -51 47 -51c28 0 53 17 55 39c5 32 -33 47 -74 56c-74 18 -152 57 -138 162c15 105 112 161 213 161c110 0 182 -71 169 -160h-146c4 24 -13 44 -40 44c-24 0 -46 -16 -49 -35c-3 -29 28 -45 78 -57
c74 -19 150 -55 135 -158c-15 -107 -113 -168 -221 -168zM55 -227l67 175h150l-97 -175h-120z" />
    <glyph glyph-name="uni1E63" unicode="&#x1e63;" horiz-adv-x="451" 
d="M188 -12c-115 0 -188 75 -174 167h145c-4 -28 16 -51 47 -51c28 0 53 17 55 39c5 32 -33 47 -74 56c-74 18 -152 57 -138 162c15 105 112 161 213 161c110 0 182 -71 169 -160h-146c4 24 -13 44 -40 44c-24 0 -46 -16 -49 -35c-3 -29 28 -45 78 -57
c74 -19 150 -55 135 -158c-15 -107 -113 -168 -221 -168zM159 -217c-49 0 -80 36 -74 84c7 49 49 85 97 85c49 0 81 -36 74 -85c-7 -48 -49 -84 -97 -84z" />
    <glyph glyph-name="germandbls" unicode="&#xdf;" horiz-adv-x="541" 
d="M541 529c-9 -67 -52 -127 -108 -158c60 -27 94 -94 83 -175c-17 -117 -125 -208 -250 -208c-23 0 -45 4 -58 9l20 141c11 -6 27 -9 42 -9c49 0 91 36 98 85s-24 87 -72 87h-31l20 139h20c42 0 79 33 85 76s-22 75 -65 75c-44 0 -81 -32 -87 -75l-73 -516h-146l74 528
c17 116 124 204 251 204c130 0 214 -90 197 -203z" />
    <glyph glyph-name="t" unicode="t" horiz-adv-x="377" 
d="M396 510l-18 -133h-100l-53 -377h-146l53 377h-92l18 133h93l17 118l150 32l-21 -150h99z" />
    <glyph glyph-name="tbar" unicode="&#x167;" horiz-adv-x="377" 
d="M378 377h-100l-14 -98h87l-15 -105h-86l-25 -174h-146l25 174h-79l14 105h80l13 98h-92l18 133h93l17 118l150 32l-21 -150h99z" />
    <glyph glyph-name="tcaron" unicode="&#x165;" horiz-adv-x="377" 
d="M398 790h132l-75 -230h-110zM318 660l-21 -150h99l-18 -133h-100l-53 -377h-146l53 377h-92l18 133h93l17 118z" />
    <glyph glyph-name="uni0163" unicode="&#x163;" horiz-adv-x="377" 
d="M225 0h-20l-27 -28c53 -6 86 -51 78 -108c-9 -64 -69 -114 -140 -114s-117 50 -108 114h87c-3 -20 13 -35 33 -35s38 15 41 35s-13 35 -32 35c-13 0 -25 -7 -31 -13l-76 36l74 78h-25l53 377h-92l18 133h93l17 118l150 32l-21 -150h99l-18 -133h-100z" />
    <glyph glyph-name="uni021B" unicode="&#x21b;" horiz-adv-x="377" 
d="M396 510l-18 -133h-100l-53 -377h-146l53 377h-92l18 133h93l17 118l150 32l-21 -150h99zM18 -227l67 175h150l-97 -175h-120z" />
    <glyph glyph-name="uni1E6D" unicode="&#x1e6d;" horiz-adv-x="377" 
d="M396 510l-18 -133h-100l-53 -377h-146l53 377h-92l18 133h93l17 118l150 32l-21 -150h99zM145 -48c49 0 81 -36 74 -85c-7 -48 -49 -84 -97 -84c-49 0 -80 36 -74 84c7 49 49 85 97 85z" />
    <glyph glyph-name="u" unicode="u" horiz-adv-x="590" 
d="M422 510h146l-72 -510h-146l8 56c-44 -45 -98 -68 -158 -68c-113 0 -177 76 -160 192l46 330h146l-41 -286c-7 -57 23 -95 78 -95c57 0 102 37 112 92z" />
    <glyph glyph-name="uacute" unicode="&#xfa;" horiz-adv-x="590" 
d="M554 710l-151 -148h-153l121 148h183zM422 510h146l-72 -510h-146l8 56c-44 -45 -98 -68 -158 -68c-113 0 -177 76 -160 192l46 330h146l-41 -286c-7 -57 23 -95 78 -95c57 0 102 37 112 92z" />
    <glyph glyph-name="ubreve" unicode="&#x16d;" horiz-adv-x="590" 
d="M333 552c-94 0 -156 68 -143 157h113c-5 -31 14 -53 44 -53s56 22 60 53h113c-13 -89 -93 -157 -187 -157zM422 510h146l-72 -510h-146l8 56c-44 -45 -98 -68 -158 -68c-113 0 -177 76 -160 192l46 330h146l-41 -286c-7 -57 23 -95 78 -95c57 0 102 37 112 92z" />
    <glyph glyph-name="ucircumflex" unicode="&#xfb;" horiz-adv-x="590" 
d="M344 631l-60 -69h-137l120 148h175l79 -148h-137zM422 510h146l-72 -510h-146l8 56c-44 -45 -98 -68 -158 -68c-113 0 -177 76 -160 192l46 330h146l-41 -286c-7 -57 23 -95 78 -95c57 0 102 37 112 92z" />
    <glyph glyph-name="uni0215" unicode="&#x215;" horiz-adv-x="590" 
d="M297 562h-141l-83 148h158zM520 562h-140l-84 148h159zM422 510h146l-72 -510h-146l8 56c-44 -45 -98 -68 -158 -68c-113 0 -177 76 -160 192l46 330h146l-41 -286c-7 -57 23 -95 78 -95c57 0 102 37 112 92z" />
    <glyph glyph-name="udieresis" unicode="&#xfc;" horiz-adv-x="590" 
d="M224 558c-46 0 -76 35 -70 81s47 80 93 80s76 -34 69 -80c-6 -46 -46 -81 -92 -81zM443 558c-46 0 -76 35 -70 81s47 80 93 80s76 -34 69 -80c-6 -46 -46 -81 -92 -81zM422 510h146l-72 -510h-146l8 56c-44 -45 -98 -68 -158 -68c-113 0 -177 76 -160 192l46 330h146
l-41 -286c-7 -57 23 -95 78 -95c57 0 102 37 112 92z" />
    <glyph glyph-name="uni1EE5" unicode="&#x1ee5;" horiz-adv-x="590" 
d="M422 510h146l-72 -510h-146l8 56c-44 -45 -98 -68 -158 -68c-113 0 -177 76 -160 192l46 330h146l-41 -286c-7 -57 23 -95 78 -95c57 0 102 37 112 92zM248 -48c49 0 81 -36 74 -85c-7 -48 -49 -84 -97 -84c-49 0 -80 36 -74 84c7 49 49 85 97 85z" />
    <glyph glyph-name="ugrave" unicode="&#xf9;" horiz-adv-x="590" 
d="M418 562h-153l-109 148h183zM422 510h146l-72 -510h-146l8 56c-44 -45 -98 -68 -158 -68c-113 0 -177 76 -160 192l46 330h146l-41 -286c-7 -57 23 -95 78 -95c57 0 102 37 112 92z" />
    <glyph glyph-name="uhungarumlaut" unicode="&#x171;" horiz-adv-x="590" 
d="M413 710l-124 -148h-141l107 148h158zM512 562h-140l106 148h159zM381 221l41 289h146l-72 -510h-146l8 56c-44 -45 -98 -68 -158 -68c-113 0 -177 76 -160 192l46 330h146l-41 -286c-7 -57 23 -95 78 -95c57 0 102 37 112 92z" />
    <glyph glyph-name="uni0217" unicode="&#x217;" horiz-adv-x="590" 
d="M341 613c-30 0 -55 -22 -60 -53h-112c13 90 93 157 187 157s155 -67 143 -157h-113c5 31 -15 53 -45 53zM422 510h146l-72 -510h-146l8 56c-44 -45 -98 -68 -158 -68c-113 0 -177 76 -160 192l46 330h146l-41 -286c-7 -57 23 -95 78 -95c57 0 102 37 112 92z" />
    <glyph glyph-name="umacron" unicode="&#x16b;" horiz-adv-x="590" 
d="M489 694l-17 -123h-273l17 123h273zM422 510h146l-72 -510h-146l8 56c-44 -45 -98 -68 -158 -68c-113 0 -177 76 -160 192l46 330h146l-41 -286c-7 -57 23 -95 78 -95c57 0 102 37 112 92z" />
    <glyph glyph-name="uogonek" unicode="&#x173;" horiz-adv-x="590" 
d="M422 510h146l-72 -510h-1c-83 -34 -114 -68 -119 -98c-4 -29 18 -42 40 -42c21 0 48 10 67 24l-14 -103c-23 -15 -65 -26 -99 -26c-74 0 -123 49 -114 114c9 57 58 107 120 131h-26l8 56c-44 -45 -98 -68 -158 -68c-113 0 -177 76 -160 192l46 330h146l-41 -286
c-7 -57 23 -95 78 -95c57 0 102 37 112 92z" />
    <glyph glyph-name="uring" unicode="&#x16f;" horiz-adv-x="590" 
d="M333 551c-61 0 -102 45 -94 105c9 60 62 105 123 105s102 -45 94 -105c-9 -60 -62 -105 -123 -105zM315 656c-2 -19 10 -33 28 -33s34 14 37 33c2 19 -10 33 -28 33s-34 -14 -37 -33zM422 510h146l-72 -510h-146l8 56c-44 -45 -98 -68 -158 -68c-113 0 -177 76 -160 192
l46 330h146l-41 -286c-7 -57 23 -95 78 -95c57 0 102 37 112 92z" />
    <glyph glyph-name="utilde" unicode="&#x169;" horiz-adv-x="590" 
d="M294 605c-20 0 -37 -16 -39 -35h-103c12 84 61 150 139 150c56 0 75 -37 107 -37c19 0 36 15 38 35h102c-11 -86 -60 -150 -139 -150c-56 0 -74 37 -105 37zM422 510h146l-72 -510h-146l8 56c-44 -45 -98 -68 -158 -68c-113 0 -177 76 -160 192l46 330h146l-41 -286
c-7 -57 23 -95 78 -95c57 0 102 37 112 92z" />
    <glyph glyph-name="v" unicode="v" horiz-adv-x="569" 
d="M440 510h163l-279 -510h-150l-136 510h160l75 -332z" />
    <glyph glyph-name="w" unicode="w" horiz-adv-x="874" 
d="M740 510h166l-254 -510h-150l-54 333l-147 -333h-150l-110 510h163l49 -321l145 321h149l53 -321z" />
    <glyph glyph-name="wacute" unicode="&#x1e83;" horiz-adv-x="874" 
d="M702 710l-151 -148h-153l121 148h183zM740 510h166l-254 -510h-150l-54 333l-147 -333h-150l-110 510h163l49 -321l145 321h149l53 -321z" />
    <glyph glyph-name="wcircumflex" unicode="&#x175;" horiz-adv-x="874" 
d="M492 631l-60 -69h-137l120 148h175l79 -148h-137zM740 510h166l-254 -510h-150l-54 333l-147 -333h-150l-110 510h163l49 -321l145 321h149l53 -321z" />
    <glyph glyph-name="wdieresis" unicode="&#x1e85;" horiz-adv-x="874" 
d="M372 558c-46 0 -76 35 -70 81s47 80 93 80s76 -34 69 -80c-6 -46 -46 -81 -92 -81zM591 558c-46 0 -76 35 -70 81s47 80 93 80s76 -34 69 -80c-6 -46 -46 -81 -92 -81zM740 510h166l-254 -510h-150l-54 333l-147 -333h-150l-110 510h163l49 -321l145 321h149l53 -321z
" />
    <glyph glyph-name="wgrave" unicode="&#x1e81;" horiz-adv-x="874" 
d="M566 562h-153l-109 148h183zM740 510h166l-254 -510h-150l-54 333l-147 -333h-150l-110 510h163l49 -321l145 321h149l53 -321z" />
    <glyph glyph-name="x" unicode="x" horiz-adv-x="566" 
d="M593 510l-211 -254l142 -256h-171l-80 156l-124 -156h-179l214 256l-139 254h171l80 -158l125 158h172z" />
    <glyph glyph-name="y" unicode="y" horiz-adv-x="569" 
d="M440 510h163l-384 -700h-156l109 196l-134 504h160l75 -332z" />
    <glyph glyph-name="yacute" unicode="&#xfd;" horiz-adv-x="569" 
d="M551 710l-151 -148h-153l121 148h183zM440 510h163l-384 -700h-156l109 196l-134 504h160l75 -332z" />
    <glyph glyph-name="ycircumflex" unicode="&#x177;" horiz-adv-x="569" 
d="M340 631l-60 -69h-137l120 148h175l79 -148h-137zM440 510h163l-384 -700h-156l109 196l-134 504h160l75 -332z" />
    <glyph glyph-name="ydieresis" unicode="&#xff;" horiz-adv-x="569" 
d="M220 558c-46 0 -76 35 -70 81s47 80 93 80s76 -34 69 -80c-6 -46 -46 -81 -92 -81zM439 558c-46 0 -76 35 -70 81s47 80 93 80s76 -34 69 -80c-6 -46 -46 -81 -92 -81zM440 510h163l-384 -700h-156l109 196l-134 504h160l75 -332z" />
    <glyph glyph-name="ygrave" unicode="&#x1ef3;" horiz-adv-x="569" 
d="M414 562h-153l-109 148h183zM440 510h163l-384 -700h-156l109 196l-134 504h160l75 -332z" />
    <glyph glyph-name="uni0233" unicode="&#x233;" horiz-adv-x="569" 
d="M485 694l-17 -123h-273l17 123h273zM440 510h163l-384 -700h-156l109 196l-134 504h160l75 -332z" />
    <glyph glyph-name="uni1EF9" unicode="&#x1ef9;" horiz-adv-x="569" 
d="M290 605c-20 0 -37 -16 -39 -35h-103c12 84 61 150 139 150c56 0 75 -37 107 -37c19 0 36 15 38 35h102c-11 -86 -60 -150 -139 -150c-56 0 -74 37 -105 37zM440 510h163l-384 -700h-156l109 196l-134 504h160l75 -332z" />
    <glyph glyph-name="z" unicode="z" horiz-adv-x="496" 
d="M490 510l-16 -106l-250 -263h221l-20 -141h-426l16 106l250 263h-210l20 141h415z" />
    <glyph glyph-name="zacute" unicode="&#x17a;" horiz-adv-x="496" 
d="M511 710l-151 -148h-153l121 148h183zM55 369l20 141h415l-16 -106l-250 -263h221l-20 -141h-426l16 106l250 263h-210z" />
    <glyph glyph-name="zcaron" unicode="&#x17e;" horiz-adv-x="496" 
d="M379 562h-176l-78 148h137l40 -69l59 69h137zM55 369l20 141h415l-16 -106l-250 -263h221l-20 -141h-426l16 106l250 263h-210z" />
    <glyph glyph-name="zdotaccent" unicode="&#x17c;" horiz-adv-x="496" 
d="M291 558c-48 0 -80 36 -73 85c6 48 48 84 97 84c48 0 80 -36 73 -84c-7 -49 -49 -85 -97 -85zM490 510l-16 -106l-250 -263h221l-20 -141h-426l16 106l250 263h-210l20 141h415z" />
    <glyph glyph-name="uni1E93" unicode="&#x1e93;" horiz-adv-x="496" 
d="M490 510l-16 -106l-250 -263h221l-20 -141h-426l16 106l250 263h-210l20 141h415zM205 -48c49 0 81 -36 74 -85c-7 -48 -49 -84 -97 -84c-49 0 -80 36 -74 84c7 49 49 85 97 85z" />
    <glyph glyph-name="a.ss01" horiz-adv-x="515" 
d="M294 522c121 0 199 -76 183 -187l-47 -335h-138l4 30c-35 -26 -80 -42 -127 -42c-102 0 -171 73 -158 169c14 97 105 170 206 170c43 0 81 -13 108 -36l6 43c5 41 -17 67 -56 67c-36 0 -63 -19 -71 -48h-148c29 98 120 169 238 169zM225 99c38 0 73 24 80 54l1 7
c2 32 -25 56 -64 56c-41 0 -76 -26 -80 -59c-5 -32 23 -58 63 -58z" />
    <glyph glyph-name="aacute.ss01" horiz-adv-x="515" 
d="M519 710l-151 -148h-153l121 148h183zM294 522c121 0 199 -76 183 -187l-47 -335h-138l4 30c-35 -26 -80 -42 -127 -42c-102 0 -171 73 -158 169c14 97 105 170 206 170c43 0 81 -13 108 -36l6 43c5 41 -17 67 -56 67c-36 0 -63 -19 -71 -48h-148c29 98 120 169 238 169z
M225 99c38 0 73 24 80 54l1 7c2 32 -25 56 -64 56c-41 0 -76 -26 -80 -59c-5 -32 23 -58 63 -58z" />
    <glyph glyph-name="abreve.ss01" horiz-adv-x="515" 
d="M298 552c-94 0 -156 68 -143 157h113c-5 -31 14 -53 44 -53s56 22 60 53h113c-13 -89 -93 -157 -187 -157zM294 522c121 0 199 -76 183 -187l-47 -335h-138l4 30c-35 -26 -80 -42 -127 -42c-102 0 -171 73 -158 169c14 97 105 170 206 170c43 0 81 -13 108 -36l6 43
c5 41 -17 67 -56 67c-36 0 -63 -19 -71 -48h-148c29 98 120 169 238 169zM225 99c38 0 73 24 80 54l1 7c2 32 -25 56 -64 56c-41 0 -76 -26 -80 -59c-5 -32 23 -58 63 -58z" />
    <glyph glyph-name="uni01CE.ss01" horiz-adv-x="515" 
d="M387 562h-176l-78 148h137l40 -69l59 69h137zM294 522c121 0 199 -76 183 -187l-47 -335h-138l4 30c-35 -26 -80 -42 -127 -42c-102 0 -171 73 -158 169c14 97 105 170 206 170c43 0 81 -13 108 -36l6 43c5 41 -17 67 -56 67c-36 0 -63 -19 -71 -48h-148
c29 98 120 169 238 169zM225 99c38 0 73 24 80 54l1 7c2 32 -25 56 -64 56c-41 0 -76 -26 -80 -59c-5 -32 23 -58 63 -58z" />
    <glyph glyph-name="acircumflex.ss01" horiz-adv-x="515" 
d="M309 631l-60 -69h-137l120 148h175l79 -148h-137zM294 522c121 0 199 -76 183 -187l-47 -335h-138l4 30c-35 -26 -80 -42 -127 -42c-102 0 -171 73 -158 169c14 97 105 170 206 170c43 0 81 -13 108 -36l6 43c5 41 -17 67 -56 67c-36 0 -63 -19 -71 -48h-148
c29 98 120 169 238 169zM225 99c38 0 73 24 80 54l1 7c2 32 -25 56 -64 56c-41 0 -76 -26 -80 -59c-5 -32 23 -58 63 -58z" />
    <glyph glyph-name="uni0201.ss01" horiz-adv-x="515" 
d="M262 562h-141l-83 148h158zM485 562h-140l-84 148h159zM294 522c121 0 199 -76 183 -187l-47 -335h-138l4 30c-35 -26 -80 -42 -127 -42c-102 0 -171 73 -158 169c14 97 105 170 206 170c43 0 81 -13 108 -36l6 43c5 41 -17 67 -56 67c-36 0 -63 -19 -71 -48h-148
c29 98 120 169 238 169zM225 99c38 0 73 24 80 54l1 7c2 32 -25 56 -64 56c-41 0 -76 -26 -80 -59c-5 -32 23 -58 63 -58z" />
    <glyph glyph-name="adieresis.ss01" horiz-adv-x="515" 
d="M189 558c-46 0 -76 35 -70 81s47 80 93 80s76 -34 69 -80c-6 -46 -46 -81 -92 -81zM431 719c46 0 76 -34 69 -80c-6 -46 -46 -81 -92 -81s-76 35 -70 81s47 80 93 80zM294 522c121 0 199 -76 183 -187l-47 -335h-138l4 30c-35 -26 -80 -42 -127 -42
c-102 0 -171 73 -158 169c14 97 105 170 206 170c43 0 81 -13 108 -36l6 43c5 41 -17 67 -56 67c-36 0 -63 -19 -71 -48h-148c29 98 120 169 238 169zM225 99c38 0 73 24 80 54l1 7c2 32 -25 56 -64 56c-41 0 -76 -26 -80 -59c-5 -32 23 -58 63 -58z" />
    <glyph glyph-name="uni1EA1.ss01" horiz-adv-x="515" 
d="M294 522c121 0 199 -76 183 -187l-47 -335h-138l4 30c-35 -26 -80 -42 -127 -42c-102 0 -171 73 -158 169c14 97 105 170 206 170c43 0 81 -13 108 -36l6 43c5 41 -17 67 -56 67c-36 0 -63 -19 -71 -48h-148c29 98 120 169 238 169zM225 99c38 0 73 24 80 54l1 7
c2 32 -25 56 -64 56c-41 0 -76 -26 -80 -59c-5 -32 23 -58 63 -58zM213 -48c49 0 81 -36 74 -85c-7 -48 -49 -84 -97 -84c-49 0 -80 36 -74 84c7 49 49 85 97 85z" />
    <glyph glyph-name="agrave.ss01" horiz-adv-x="515" 
d="M383 562h-153l-109 148h183zM294 522c121 0 199 -76 183 -187l-47 -335h-138l4 30c-35 -26 -80 -42 -127 -42c-102 0 -171 73 -158 169c14 97 105 170 206 170c43 0 81 -13 108 -36l6 43c5 41 -17 67 -56 67c-36 0 -63 -19 -71 -48h-148c29 98 120 169 238 169zM225 99
c38 0 73 24 80 54l1 7c2 32 -25 56 -64 56c-41 0 -76 -26 -80 -59c-5 -32 23 -58 63 -58z" />
    <glyph glyph-name="uni0203.ss01" horiz-adv-x="515" 
d="M306 613c-30 0 -55 -22 -60 -53h-112c13 90 93 157 187 157s155 -67 143 -157h-113c5 31 -15 53 -45 53zM294 522c121 0 199 -76 183 -187l-47 -335h-138l4 30c-35 -26 -80 -42 -127 -42c-102 0 -171 73 -158 169c14 97 105 170 206 170c43 0 81 -13 108 -36l6 43
c5 41 -17 67 -56 67c-36 0 -63 -19 -71 -48h-148c29 98 120 169 238 169zM225 99c38 0 73 24 80 54l1 7c2 32 -25 56 -64 56c-41 0 -76 -26 -80 -59c-5 -32 23 -58 63 -58z" />
    <glyph glyph-name="amacron.ss01" horiz-adv-x="515" 
d="M454 694l-17 -123h-273l17 123h273zM294 522c121 0 199 -76 183 -187l-47 -335h-138l4 30c-35 -26 -80 -42 -127 -42c-102 0 -171 73 -158 169c14 97 105 170 206 170c43 0 81 -13 108 -36l6 43c5 41 -17 67 -56 67c-36 0 -63 -19 -71 -48h-148c29 98 120 169 238 169z
M225 99c38 0 73 24 80 54l1 7c2 32 -25 56 -64 56c-41 0 -76 -26 -80 -59c-5 -32 23 -58 63 -58z" />
    <glyph glyph-name="aogonek.ss01" horiz-adv-x="515" 
d="M294 522c121 0 199 -76 183 -187l-47 -335h-2c-83 -34 -114 -68 -119 -98c-4 -29 18 -42 40 -42c21 0 48 10 67 24l-14 -103c-23 -15 -65 -26 -99 -26c-74 0 -123 49 -114 114c9 57 58 107 120 131h-17l4 30c-35 -26 -80 -42 -127 -42c-102 0 -171 73 -158 169
c14 97 105 170 206 170c43 0 81 -13 108 -36l6 43c5 41 -17 67 -56 67c-36 0 -63 -19 -71 -48h-148c29 98 120 169 238 169zM225 99c38 0 73 24 80 54l1 7c2 32 -25 56 -64 56c-41 0 -76 -26 -80 -59c-5 -32 23 -58 63 -58z" />
    <glyph glyph-name="aring.ss01" horiz-adv-x="515" 
d="M298 551c-61 0 -102 45 -94 105c9 60 62 105 123 105s102 -45 94 -105c-9 -60 -62 -105 -123 -105zM280 656c-2 -19 10 -33 28 -33s34 14 37 33c2 19 -10 33 -28 33s-34 -14 -37 -33zM294 522c121 0 199 -76 183 -187l-47 -335h-138l4 30c-35 -26 -80 -42 -127 -42
c-102 0 -171 73 -158 169c14 97 105 170 206 170c43 0 81 -13 108 -36l6 43c5 41 -17 67 -56 67c-36 0 -63 -19 -71 -48h-148c29 98 120 169 238 169zM225 99c38 0 73 24 80 54l1 7c2 32 -25 56 -64 56c-41 0 -76 -26 -80 -59c-5 -32 23 -58 63 -58z" />
    <glyph glyph-name="atilde.ss01" horiz-adv-x="515" 
d="M259 605c-20 0 -37 -16 -39 -35h-103c12 84 61 150 139 150c56 0 75 -37 107 -37c19 0 36 15 38 35h102c-11 -86 -60 -150 -139 -150c-56 0 -74 37 -105 37zM294 522c121 0 199 -76 183 -187l-47 -335h-138l4 30c-35 -26 -80 -42 -127 -42c-102 0 -171 73 -158 169
c14 97 105 170 206 170c43 0 81 -13 108 -36l6 43c5 41 -17 67 -56 67c-36 0 -63 -19 -71 -48h-148c29 98 120 169 238 169zM225 99c38 0 73 24 80 54l1 7c2 32 -25 56 -64 56c-41 0 -76 -26 -80 -59c-5 -32 23 -58 63 -58z" />
    <glyph glyph-name="k.ss02" horiz-adv-x="566" 
d="M597 510l-249 -234l184 -276h-192l-111 164l-44 -41l-17 -123h-146l101 720h146l-56 -400l195 190h189z" />
    <glyph glyph-name="uni0137.ss02" horiz-adv-x="566" 
d="M597 510l-249 -234l184 -276h-192l-111 164l-44 -41l-17 -123h-146l101 720h146l-56 -400l195 190h189zM120 -227l67 175h150l-97 -175h-120z" />
    <glyph glyph-name="f.ss06" unicode="&#xe01a;" horiz-adv-x="368" 
d="M395 596c-66 0 -103 -22 -110 -77l-1 -9h99l-19 -133h-99l-53 -382c-22 -150 -154 -264 -307 -264l21 141c69 0 130 54 140 123l53 382h-77l19 133h77l2 17c20 143 105 203 273 203z" />
    <glyph glyph-name="h.ss06" unicode="&#xe01b;" horiz-adv-x="603" 
d="M518 -5c-10 -69 36 -123 105 -123l-20 -141c-153 0 -253 114 -231 264l40 284c8 62 -25 102 -84 102c-64 0 -112 -41 -121 -104l-39 -277h-146l101 720h146l-38 -271c46 48 102 73 166 73c117 0 184 -77 167 -194z" />
    <glyph glyph-name="k.ss06" unicode="&#xe01c;" horiz-adv-x="548" 
d="M532 -23c58 -76 117 -103 218 -103l-19 -142c-163 0 -272 70 -385 245l-150 218l-28 -195h-146l101 720h146l-55 -398l182 188h184l-243 -253z" />
    <glyph glyph-name="l.ss06" unicode="&#xe01d;" horiz-adv-x="262" 
d="M253 -269c-153 0 -252 114 -231 264l101 725h146l-101 -725c-10 -69 36 -123 106 -123z" />
    <glyph glyph-name="m.ss06" unicode="&#xe01e;" horiz-adv-x="913" 
d="M828 -5c-10 -69 36 -123 106 -123l-21 -141c-153 0 -252 114 -231 264l41 294c7 55 -22 92 -75 92s-96 -33 -108 -83l-42 -298h-146l41 289c7 55 -22 92 -75 92s-96 -33 -108 -83l-42 -298h-146l72 510h146l-8 -54c43 43 96 66 155 66c73 0 125 -33 148 -87
c48 57 110 87 182 87c111 0 174 -75 158 -189z" />
    <glyph glyph-name="n.ss06" unicode="&#xe01f;" horiz-adv-x="603" 
d="M518 -5c-10 -69 36 -123 105 -123l-20 -141c-153 0 -253 114 -231 264l40 284c8 62 -25 102 -84 102c-64 0 -112 -42 -121 -105l-39 -276h-146l72 510h146l-8 -57c45 45 102 69 165 69c117 0 184 -77 167 -194z" />
    <glyph glyph-name="u.ss07" unicode="&#xe020;" horiz-adv-x="590" 
d="M422 510h146l-72 -510h-146l8 56c-44 -45 -98 -68 -158 -68c-113 0 -177 76 -160 192l58 418c6 46 -19 77 -61 77s-76 -31 -83 -77h-146c18 125 124 218 249 218c124 0 205 -93 187 -218l-53 -374c-7 -57 23 -95 78 -95c57 0 102 37 112 92z" />
    <glyph glyph-name="i.ss08" unicode="&#xe021;" horiz-adv-x="262" 
d="M175 566c-66 0 -109 50 -100 116c10 67 66 116 133 116c66 0 109 -49 99 -116c-9 -66 -66 -116 -132 -116zM22 0l72 510h146l-72 -510h-146z" />
    <glyph glyph-name="j.ss08" unicode="&#xe022;" horiz-adv-x="267" 
d="M180 566c-67 0 -109 50 -100 116c9 67 66 116 132 116c67 0 109 -49 100 -116c-9 -66 -66 -116 -132 -116zM-78 -202l19 133c49 0 80 24 86 73l72 506h146l-73 -514c-18 -133 -102 -198 -250 -198z" />
    <glyph glyph-name="t.ss09" horiz-adv-x="377" 
d="M396 510l-18 -133h-100l-53 -377h-146l53 377h-92l18 133h93l21 150h146l-21 -150h99z" />
    <glyph glyph-name="tbar.ss09" horiz-adv-x="377" 
d="M378 377h-100l-14 -98h87l-15 -105h-86l-25 -174h-146l25 174h-79l14 105h79l14 98h-92l18 133h93l21 150h146l-21 -150h99z" />
    <glyph glyph-name="tcaron.ss09" horiz-adv-x="377" 
d="M398 790h132l-75 -230h-110zM318 660l-21 -150h99l-18 -133h-100l-53 -377h-146l53 377h-92l18 133h93l21 150h146z" />
    <glyph glyph-name="uni0163.ss09" horiz-adv-x="377" 
d="M225 0h-20l-27 -28c53 -6 86 -51 78 -108c-9 -64 -69 -114 -140 -114s-117 50 -108 114h87c-3 -20 13 -35 33 -35s38 15 41 35s-13 35 -32 35c-13 0 -25 -7 -31 -13l-76 36l74 78h-25l53 377h-92l18 133h93l21 150h146l-21 -150h99l-18 -133h-100z" />
    <glyph glyph-name="uni021B.ss09" horiz-adv-x="377" 
d="M396 510l-18 -133h-100l-53 -377h-146l53 377h-92l18 133h93l21 150h146l-21 -150h99zM18 -227l67 175h150l-97 -175h-120z" />
    <glyph glyph-name="uni1E6D.ss09" horiz-adv-x="377" 
d="M396 510l-18 -133h-100l-53 -377h-146l53 377h-92l18 133h93l21 150h146l-21 -150h99zM145 -48c49 0 81 -36 74 -85c-7 -48 -49 -84 -97 -84c-49 0 -80 36 -74 84c7 49 49 85 97 85z" />
    <glyph glyph-name="f_t.dlig" horiz-adv-x="710" 
d="M730 510l-19 -133h-99l-53 -377h-146l53 377h-201l-53 -377h-146l53 377h-77l19 133h77l2 17c20 143 105 203 273 203l-18 -134c-66 0 -103 -22 -110 -77l-1 -9h200l17 118l151 32l-21 -150h99z" />
    <glyph glyph-name="t_t.dlig" horiz-adv-x="713" 
d="M732 510l-18 -133h-100l-53 -377h-146l53 377h-190l-53 -377h-146l53 377h-92l18 133h93l17 118l150 32l-21 -150h189l17 118l151 32l-21 -150h99z" />
    <glyph glyph-name="ordfeminine" unicode="&#xaa;" horiz-adv-x="357" 
d="M288 692h108l-38 -274h-108l3 25c-22 -20 -50 -32 -78 -32c-74 0 -121 62 -110 144c12 82 76 144 150 144c29 0 52 -12 70 -32zM215 505c26 0 49 19 53 46l2 8c2 27 -16 46 -42 46c-27 0 -50 -21 -55 -50c-4 -29 14 -50 42 -50z" />
    <glyph glyph-name="ordmasculine" unicode="&#xba;" horiz-adv-x="359" 
d="M202 411c-89 0 -148 62 -137 144c12 82 88 144 177 144c88 0 148 -62 136 -144c-11 -82 -88 -144 -176 -144zM215 505c27 0 52 21 55 50c4 28 -15 50 -42 50c-26 0 -50 -21 -55 -50c-4 -29 15 -50 42 -50z" />
    <glyph glyph-name="zero" unicode="0" horiz-adv-x="631" 
d="M277 -12c-160 0 -251 146 -221 357c29 211 162 357 322 357c161 0 252 -146 223 -357c-30 -211 -163 -357 -324 -357zM299 137c67 0 125 86 143 208c17 122 -18 208 -85 208c-66 0 -125 -86 -142 -208c-18 -122 18 -208 84 -208z" />
    <glyph glyph-name="one" unicode="1" horiz-adv-x="391" 
d="M271 690h110l-97 -690h-155l71 505l-142 -74l23 162z" />
    <glyph glyph-name="two" unicode="2" horiz-adv-x="529" 
d="M512 488c-13 -89 -68 -149 -115 -194l-155 -148h225l-21 -146h-441l18 126l248 239c31 31 75 77 82 123c4 34 -17 59 -50 59c-34 0 -63 -25 -67 -59h-159c16 122 124 214 248 214s203 -92 187 -214z" />
    <glyph glyph-name="three" unicode="3" horiz-adv-x="515" 
d="M501 501c-8 -58 -47 -112 -98 -143c48 -34 75 -93 66 -158c-17 -121 -125 -212 -252 -212c-126 0 -208 91 -192 212h159c-5 -36 19 -63 54 -63c36 0 67 27 72 63c7 50 -22 84 -72 84h-78l21 145h77c43 0 78 30 84 72c4 30 -15 52 -45 52s-55 -22 -59 -52h-160
c16 115 119 201 240 201s199 -86 183 -201z" />
    <glyph glyph-name="four" unicode="4" horiz-adv-x="570" 
d="M548 272l-20 -146h-68l-18 -126h-155l18 126h-297l16 115l344 449h171l-59 -418h68zM199 272h126l30 211z" />
    <glyph glyph-name="five" unicode="5" horiz-adv-x="553" 
d="M331 451c128 0 211 -99 193 -232c-19 -132 -137 -231 -274 -231c-136 0 -224 99 -205 231h159c-8 -46 22 -82 68 -82s85 36 93 82c6 48 -23 83 -70 83c-25 0 -56 -14 -71 -32h-164l94 420h391l-21 -146h-249l-25 -111c23 11 53 18 81 18z" />
    <glyph glyph-name="six" unicode="6" horiz-adv-x="531" 
d="M336 451c115 -11 188 -107 172 -231c-19 -132 -138 -232 -275 -232c-138 0 -227 100 -209 232c8 55 36 112 67 153l238 317h189zM349 220c6 48 -24 83 -72 83c-47 0 -87 -35 -93 -83c-8 -47 23 -83 70 -83s87 36 95 83z" />
    <glyph glyph-name="seven" unicode="7" horiz-adv-x="523" 
d="M97 690h463l-17 -122l-333 -568h-174l320 544h-280z" />
    <glyph glyph-name="eight" unicode="8" horiz-adv-x="543" 
d="M527 507c-9 -62 -45 -114 -97 -148c50 -37 76 -94 67 -163c-16 -117 -130 -208 -264 -208c-133 0 -220 90 -204 208c10 68 53 126 113 162c-42 35 -64 88 -55 149c15 109 120 195 247 195s208 -86 193 -195zM244 491c-5 -36 17 -63 52 -63c34 0 65 27 70 63
s-18 62 -53 62s-64 -26 -69 -62zM340 211c6 42 -22 74 -65 74c-42 0 -78 -32 -84 -74s21 -74 63 -74c43 0 80 32 86 74z" />
    <glyph glyph-name="nine" unicode="9" horiz-adv-x="541" 
d="M333 702c138 0 227 -100 209 -232c-8 -55 -37 -111 -67 -153l-229 -317h-183l175 238c-120 7 -197 105 -179 232c18 132 137 232 274 232zM383 470c7 47 -24 83 -71 83s-87 -36 -94 -83c-7 -48 23 -83 71 -83c47 0 87 35 94 83z" />
    <glyph glyph-name="zero.subs" horiz-adv-x="395" 
d="M144 -121c-96 0 -153 87 -135 214s99 214 195 214c98 0 154 -89 136 -214c-17 -125 -98 -214 -196 -214zM159 -17c32 0 61 42 70 110c10 68 -7 110 -40 110s-60 -44 -70 -110c-8 -66 7 -110 40 -110z" />
    <glyph glyph-name="one.subs" horiz-adv-x="242" 
d="M131 300h77l-58 -414h-108l40 285l-80 -42l16 113z" />
    <glyph glyph-name="two.subs" horiz-adv-x="357" 
d="M312 169c-9 -59 -47 -93 -69 -113l-87 -72h132l-14 -98h-296l11 82l165 138c23 20 45 40 48 63c3 22 -11 38 -31 38c-21 0 -39 -17 -43 -38h-109c11 78 84 138 170 138c81 0 134 -60 123 -138z" />
    <glyph glyph-name="three.subs" horiz-adv-x="345" 
d="M307 182c-5 -34 -24 -62 -54 -81c29 -21 40 -53 35 -87c-9 -71 -82 -135 -169 -135c-84 0 -142 59 -130 139h109c-3 -22 12 -39 36 -39s44 17 48 39c3 25 -15 43 -44 43h-61l10 78h62c23 0 43 17 46 38c4 19 -9 33 -28 33c-20 0 -37 -14 -40 -33h-111
c11 74 81 130 163 130c84 0 137 -60 128 -125z" />
    <glyph glyph-name="four.subs" horiz-adv-x="374" 
d="M324 52l-14 -97h-39l-10 -69h-108l10 69h-186l11 79l196 266h135l-35 -248h40zM102 52h74l18 132z" />
    <glyph glyph-name="five.subs" horiz-adv-x="358" 
d="M183 156c82 0 135 -59 124 -138s-86 -139 -173 -139s-145 59 -134 138h110c-4 -24 12 -43 37 -43s47 19 51 44c3 26 -13 45 -38 45c-15 0 -33 -8 -41 -18h-110l57 255h253l-13 -97h-156l-12 -56c13 6 31 9 45 9z" />
    <glyph glyph-name="six.subs" horiz-adv-x="351" 
d="M193 160c71 -8 116 -66 106 -138c-12 -81 -86 -143 -174 -143c-87 0 -145 62 -133 143c4 34 22 66 40 91l140 187h128zM188 22c3 24 -13 43 -37 43s-45 -19 -49 -43c-3 -24 13 -42 37 -42s45 18 49 42z" />
    <glyph glyph-name="seven.subs" horiz-adv-x="333" 
d="M37 300h282l-11 -84l-191 -330h-121l182 313h-155z" />
    <glyph glyph-name="eight.subs" horiz-adv-x="348" 
d="M310 187c-5 -35 -27 -66 -59 -87c30 -22 45 -56 39 -94c-9 -72 -82 -127 -169 -127c-86 0 -143 55 -133 127c6 39 30 72 65 94c-25 21 -39 52 -34 87c10 68 79 120 162 120s139 -52 129 -120zM127 171c-2 -18 11 -33 31 -33s38 15 40 33c3 18 -11 32 -31 32
s-38 -14 -40 -32zM182 20c3 22 -14 37 -35 37c-23 0 -43 -16 -46 -37c-4 -21 12 -37 35 -37s43 16 46 37z" />
    <glyph glyph-name="nine.subs" horiz-adv-x="351" 
d="M185 307c87 0 144 -62 134 -143c-5 -32 -24 -67 -41 -91l-140 -187h-129l107 140c-71 8 -115 65 -105 138c11 81 86 143 174 143zM122 164c-3 -24 12 -43 37 -43c24 0 46 18 49 43c4 24 -13 42 -37 42c-25 0 -45 -18 -49 -42z" />
    <glyph glyph-name="zero.dnom" horiz-adv-x="395" 
d="M160 -7c-96 0 -153 87 -135 214s99 214 195 214c98 0 154 -89 136 -214c-17 -125 -98 -214 -196 -214zM175 97c32 0 61 42 70 110c10 68 -7 110 -40 110s-60 -44 -70 -110c-8 -66 7 -110 40 -110z" />
    <glyph glyph-name="one.dnom" horiz-adv-x="242" 
d="M147 414h77l-58 -414h-108l40 285l-80 -42l16 113z" />
    <glyph glyph-name="two.dnom" horiz-adv-x="357" 
d="M328 283c-9 -59 -47 -93 -69 -113l-87 -72h132l-14 -98h-296l11 82l165 138c23 20 45 40 48 63c3 22 -11 38 -31 38c-21 0 -39 -17 -43 -38h-109c11 78 84 138 170 138c81 0 134 -60 123 -138z" />
    <glyph glyph-name="three.dnom" horiz-adv-x="345" 
d="M323 296c-5 -34 -24 -62 -54 -81c29 -21 40 -53 35 -87c-9 -71 -82 -135 -169 -135c-84 0 -142 59 -130 139h109c-3 -22 12 -39 36 -39s44 17 48 39c3 25 -15 43 -44 43h-61l10 78h62c23 0 43 17 46 38c4 19 -9 33 -28 33c-20 0 -37 -14 -40 -33h-111
c11 74 81 130 163 130c84 0 137 -60 128 -125z" />
    <glyph glyph-name="four.dnom" horiz-adv-x="374" 
d="M340 166l-14 -97h-39l-10 -69h-108l10 69h-186l11 79l196 266h135l-35 -248h40zM118 166h74l18 132z" />
    <glyph glyph-name="five.dnom" horiz-adv-x="358" 
d="M199 270c82 0 135 -59 124 -138s-86 -139 -173 -139s-145 59 -134 138h110c-4 -24 12 -43 37 -43s47 19 51 44c3 26 -13 45 -38 45c-15 0 -33 -8 -41 -18h-110l57 255h253l-13 -97h-156l-12 -56c13 6 31 9 45 9z" />
    <glyph glyph-name="six.dnom" horiz-adv-x="351" 
d="M209 274c71 -8 116 -66 106 -138c-12 -81 -86 -143 -174 -143c-87 0 -145 62 -133 143c4 34 22 66 40 91l140 187h128zM204 136c3 24 -13 43 -37 43s-45 -19 -49 -43c-3 -24 13 -42 37 -42s45 18 49 42z" />
    <glyph glyph-name="seven.dnom" horiz-adv-x="333" 
d="M53 414h282l-11 -84l-191 -330h-121l182 313h-155z" />
    <glyph glyph-name="eight.dnom" horiz-adv-x="348" 
d="M326 301c-5 -35 -27 -66 -59 -87c30 -22 45 -56 39 -94c-9 -72 -82 -127 -169 -127c-86 0 -143 55 -133 127c6 39 30 72 65 94c-25 21 -39 52 -34 87c10 68 79 120 162 120s139 -52 129 -120zM143 285c-2 -18 11 -33 31 -33s38 15 40 33c3 18 -11 32 -31 32
s-38 -14 -40 -32zM198 134c3 22 -14 37 -35 37c-23 0 -43 -16 -46 -37c-4 -21 12 -37 35 -37s43 16 46 37z" />
    <glyph glyph-name="nine.dnom" horiz-adv-x="351" 
d="M201 421c87 0 144 -62 134 -143c-5 -32 -24 -67 -41 -91l-140 -187h-129l107 140c-71 8 -115 65 -105 138c11 81 86 143 174 143zM138 278c-3 -24 12 -43 37 -43c24 0 46 18 49 43c4 24 -13 42 -37 42c-25 0 -45 -18 -49 -42z" />
    <glyph glyph-name="zero.numr" horiz-adv-x="395" 
d="M199 269c-96 0 -153 87 -135 214s99 214 195 214c98 0 154 -89 136 -214c-17 -125 -98 -214 -196 -214zM214 373c32 0 61 42 70 110c10 68 -7 110 -40 110s-60 -44 -70 -110c-8 -66 7 -110 40 -110z" />
    <glyph glyph-name="one.numr" horiz-adv-x="242" 
d="M186 690h77l-58 -414h-108l40 285l-80 -42l16 113z" />
    <glyph glyph-name="two.numr" horiz-adv-x="357" 
d="M367 559c-9 -59 -47 -93 -69 -113l-87 -72h132l-14 -98h-296l11 82l165 138c23 20 45 40 48 63c3 22 -11 38 -31 38c-21 0 -39 -17 -43 -38h-109c11 78 84 138 170 138c81 0 134 -60 123 -138z" />
    <glyph glyph-name="three.numr" horiz-adv-x="345" 
d="M362 572c-5 -34 -24 -62 -54 -81c29 -21 40 -53 35 -87c-9 -71 -82 -135 -169 -135c-84 0 -142 59 -130 139h109c-3 -22 12 -39 36 -39s44 17 48 39c3 25 -15 43 -44 43h-61l10 78h62c23 0 43 17 46 38c4 19 -9 33 -28 33c-20 0 -37 -14 -40 -33h-111
c11 74 81 130 163 130c84 0 137 -60 128 -125z" />
    <glyph glyph-name="four.numr" horiz-adv-x="374" 
d="M379 442l-14 -97h-39l-10 -69h-108l10 69h-186l11 79l196 266h135l-35 -248h40zM157 442h74l18 132z" />
    <glyph glyph-name="five.numr" horiz-adv-x="358" 
d="M238 546c82 0 135 -59 124 -138s-86 -139 -173 -139s-145 59 -134 138h110c-4 -24 12 -43 37 -43s47 19 51 44c3 26 -13 45 -38 45c-15 0 -33 -8 -41 -18h-110l57 255h253l-13 -97h-156l-12 -56c13 6 31 9 45 9z" />
    <glyph glyph-name="six.numr" horiz-adv-x="351" 
d="M248 550c71 -8 116 -66 106 -138c-12 -81 -86 -143 -174 -143c-87 0 -145 62 -133 143c4 34 22 66 40 91l140 187h128zM243 412c3 24 -13 43 -37 43s-45 -19 -49 -43c-3 -24 13 -42 37 -42s45 18 49 42z" />
    <glyph glyph-name="seven.numr" horiz-adv-x="333" 
d="M92 690h282l-11 -84l-191 -330h-121l182 313h-155z" />
    <glyph glyph-name="eight.numr" horiz-adv-x="348" 
d="M365 577c-5 -35 -27 -66 -59 -87c30 -22 45 -56 39 -94c-9 -72 -82 -127 -169 -127c-86 0 -143 55 -133 127c6 39 30 72 65 94c-25 21 -39 52 -34 87c10 68 79 120 162 120s139 -52 129 -120zM182 561c-2 -18 11 -33 31 -33s38 15 40 33c3 18 -11 32 -31 32
s-38 -14 -40 -32zM237 410c3 22 -14 37 -35 37c-23 0 -43 -16 -46 -37c-4 -21 12 -37 35 -37s43 16 46 37z" />
    <glyph glyph-name="nine.numr" horiz-adv-x="351" 
d="M240 697c87 0 144 -62 134 -143c-5 -32 -24 -67 -41 -91l-140 -187h-129l107 140c-71 8 -115 65 -105 138c11 81 86 143 174 143zM177 554c-3 -24 12 -43 37 -43c24 0 46 18 49 43c4 24 -13 42 -37 42c-25 0 -45 -18 -49 -42z" />
    <glyph glyph-name="uni2070" unicode="&#x2070;" horiz-adv-x="395" 
d="M211 359c-96 0 -153 87 -135 214s99 214 195 214c98 0 154 -89 136 -214c-17 -125 -98 -214 -196 -214zM226 463c32 0 61 42 70 110c10 68 -7 110 -40 110s-60 -44 -70 -110c-8 -66 7 -110 40 -110z" />
    <glyph glyph-name="uni00B9" unicode="&#xb9;" horiz-adv-x="242" 
d="M198 780h77l-58 -414h-108l40 285l-80 -42l16 113z" />
    <glyph glyph-name="uni00B2" unicode="&#xb2;" horiz-adv-x="357" 
d="M379 649c-9 -59 -47 -93 -69 -113l-87 -72h132l-14 -98h-296l11 82l165 138c23 20 45 40 48 63c3 22 -11 38 -31 38c-21 0 -39 -17 -43 -38h-109c11 78 84 138 170 138c81 0 134 -60 123 -138z" />
    <glyph glyph-name="uni00B3" unicode="&#xb3;" horiz-adv-x="345" 
d="M374 662c-5 -34 -24 -62 -54 -81c29 -21 40 -53 35 -87c-9 -71 -82 -135 -169 -135c-84 0 -142 59 -130 139h109c-3 -22 12 -39 36 -39s44 17 48 39c3 25 -15 43 -44 43h-61l10 78h62c23 0 43 17 46 38c4 19 -9 33 -28 33c-20 0 -37 -14 -40 -33h-111
c11 74 81 130 163 130c84 0 137 -60 128 -125z" />
    <glyph glyph-name="uni2074" unicode="&#x2074;" horiz-adv-x="374" 
d="M391 532l-14 -97h-39l-10 -69h-108l10 69h-186l11 79l196 266h135l-35 -248h40zM169 532h74l18 132z" />
    <glyph glyph-name="uni2075" unicode="&#x2075;" horiz-adv-x="358" 
d="M250 636c82 0 135 -59 124 -138s-86 -139 -173 -139s-145 59 -134 138h110c-4 -24 12 -43 37 -43s47 19 51 44c3 26 -13 45 -38 45c-15 0 -33 -8 -41 -18h-110l57 255h253l-13 -97h-156l-12 -56c13 6 31 9 45 9z" />
    <glyph glyph-name="uni2076" unicode="&#x2076;" horiz-adv-x="351" 
d="M260 640c71 -8 116 -66 106 -138c-12 -81 -86 -143 -174 -143c-87 0 -145 62 -133 143c4 34 22 66 40 91l140 187h128zM255 502c3 24 -13 43 -37 43s-45 -19 -49 -43c-3 -24 13 -42 37 -42s45 18 49 42z" />
    <glyph glyph-name="uni2077" unicode="&#x2077;" horiz-adv-x="333" 
d="M104 780h282l-11 -84l-191 -330h-121l182 313h-155z" />
    <glyph glyph-name="uni2078" unicode="&#x2078;" horiz-adv-x="348" 
d="M377 667c-5 -35 -27 -66 -59 -87c30 -22 45 -56 39 -94c-9 -72 -82 -127 -169 -127c-86 0 -143 55 -133 127c6 39 30 72 65 94c-25 21 -39 52 -34 87c10 68 79 120 162 120s139 -52 129 -120zM194 651c-2 -18 11 -33 31 -33s38 15 40 33c3 18 -11 32 -31 32
s-38 -14 -40 -32zM249 500c3 22 -14 37 -35 37c-23 0 -43 -16 -46 -37c-4 -21 12 -37 35 -37s43 16 46 37z" />
    <glyph glyph-name="uni2079" unicode="&#x2079;" horiz-adv-x="351" 
d="M252 787c87 0 144 -62 134 -143c-5 -32 -24 -67 -41 -91l-140 -187h-129l107 140c-71 8 -115 65 -105 138c11 81 86 143 174 143zM189 644c-3 -24 12 -43 37 -43c24 0 46 18 49 43c4 24 -13 42 -37 42c-25 0 -45 -18 -49 -42z" />
    <glyph glyph-name="fraction" unicode="&#x2044;" horiz-adv-x="202" 
d="M-237 0l567 690h133l-566 -690h-134z" />
    <glyph glyph-name="uni215F" unicode="&#x215f;" horiz-adv-x="494" 
d="M622 690h133l-566 -690h-134zM97 276l40 285l-80 -42l16 113l113 58h77l-58 -414h-108z" />
    <glyph glyph-name="onehalf" unicode="&#xbd;" horiz-adv-x="855" 
d="M622 690h133l-566 -690h-134zM97 276l40 285l-80 -42l16 113l113 58h77l-58 -414h-108zM827 283c-9 -59 -47 -93 -69 -113l-87 -72h132l-14 -98h-296l11 82l165 138c23 20 45 40 48 63c3 22 -11 38 -31 38c-21 0 -39 -17 -43 -38h-109c11 78 84 138 170 138
c81 0 134 -60 123 -138z" />
    <glyph glyph-name="uni2189" unicode="&#x2189;" horiz-adv-x="939" 
d="M395 483c-17 -125 -98 -214 -196 -214c-96 0 -153 87 -135 214s99 214 195 214c98 0 154 -89 136 -214zM717 690h133l-566 -690h-134zM174 483c-8 -66 7 -110 40 -110c32 0 61 42 70 110c10 68 -7 110 -40 110s-60 -44 -70 -110zM917 296c-5 -34 -24 -62 -54 -81
c29 -21 40 -53 35 -87c-9 -71 -82 -135 -169 -135c-84 0 -142 59 -130 139h109c-3 -22 12 -39 36 -39s44 17 48 39c3 25 -15 43 -44 43h-61l10 78h62c23 0 43 17 46 38c4 19 -9 33 -28 33c-20 0 -37 -14 -40 -33h-111c11 74 81 130 163 130c84 0 137 -60 128 -125z" />
    <glyph glyph-name="uni2153" unicode="&#x2153;" horiz-adv-x="844" 
d="M622 690h133l-566 -690h-134zM97 276l40 285l-80 -42l16 113l113 58h77l-58 -414h-108zM822 296c-5 -34 -24 -62 -54 -81c29 -21 40 -53 35 -87c-9 -71 -82 -135 -169 -135c-84 0 -142 59 -130 139h109c-3 -22 12 -39 36 -39s44 17 48 39c3 25 -15 43 -44 43h-61l10 78
h62c23 0 43 17 46 38c4 19 -9 33 -28 33c-20 0 -37 -14 -40 -33h-111c11 74 81 130 163 130c84 0 137 -60 128 -125z" />
    <glyph glyph-name="uni2154" unicode="&#x2154;" horiz-adv-x="949" 
d="M343 374l-14 -98h-296l11 82l165 138c23 20 45 40 48 63c3 22 -11 38 -31 38c-21 0 -39 -17 -43 -38h-109c11 78 84 138 170 138c81 0 134 -60 123 -138c-9 -59 -47 -93 -69 -113l-87 -72h132zM727 690h133l-566 -690h-134zM927 296c-5 -34 -24 -62 -54 -81
c29 -21 40 -53 35 -87c-9 -71 -82 -135 -169 -135c-84 0 -142 59 -130 139h109c-3 -22 12 -39 36 -39s44 17 48 39c3 25 -15 43 -44 43h-61l10 78h62c23 0 43 17 46 38c4 19 -9 33 -28 33c-20 0 -37 -14 -40 -33h-111c11 74 81 130 163 130c84 0 137 -60 128 -125z" />
    <glyph glyph-name="onequarter" unicode="&#xbc;" horiz-adv-x="808" 
d="M622 690h133l-566 -690h-134zM97 276l40 285l-80 -42l16 113l113 58h77l-58 -414h-108zM774 166l-14 -97h-39l-10 -69h-108l10 69h-186l11 79l196 266h135l-35 -248h40zM552 166h74l18 132z" />
    <glyph glyph-name="threequarters" unicode="&#xbe;" horiz-adv-x="871" 
d="M343 404c-9 -71 -82 -135 -169 -135c-84 0 -142 59 -130 139h109c-3 -22 12 -39 36 -39s44 17 48 39c3 25 -15 43 -44 43h-61l10 78h62c23 0 43 17 46 38c4 19 -9 33 -28 33c-20 0 -37 -14 -40 -33h-111c11 74 81 130 163 130c84 0 137 -60 128 -125
c-5 -34 -24 -62 -54 -81c29 -21 40 -53 35 -87zM685 690h133l-566 -690h-134zM837 166l-14 -97h-39l-10 -69h-108l10 69h-186l11 79l196 266h135l-35 -248h40zM615 166h74l18 132z" />
    <glyph glyph-name="uni2155" unicode="&#x2155;" horiz-adv-x="866" 
d="M622 690h133l-566 -690h-134zM97 276l40 285l-80 -42l16 113l113 58h77l-58 -414h-108zM707 270c82 0 135 -59 124 -138s-86 -139 -173 -139s-145 59 -134 138h110c-4 -24 12 -43 37 -43s47 19 51 44c3 26 -13 45 -38 45c-15 0 -33 -8 -41 -18h-110l57 255h253l-13 -97
h-156l-12 -56c13 6 31 9 45 9z" />
    <glyph glyph-name="uni2156" unicode="&#x2156;" horiz-adv-x="971" 
d="M343 374l-14 -98h-296l11 82l165 138c23 20 45 40 48 63c3 22 -11 38 -31 38c-21 0 -39 -17 -43 -38h-109c11 78 84 138 170 138c81 0 134 -60 123 -138c-9 -59 -47 -93 -69 -113l-87 -72h132zM727 690h133l-566 -690h-134zM812 270c82 0 135 -59 124 -138
s-86 -139 -173 -139s-145 59 -134 138h110c-4 -24 12 -43 37 -43s47 19 51 44c3 26 -13 45 -38 45c-15 0 -33 -8 -41 -18h-110l57 255h253l-13 -97h-156l-12 -56c13 6 31 9 45 9z" />
    <glyph glyph-name="uni2157" unicode="&#x2157;" horiz-adv-x="929" 
d="M343 404c-9 -71 -82 -135 -169 -135c-84 0 -142 59 -130 139h109c-3 -22 12 -39 36 -39s44 17 48 39c3 25 -15 43 -44 43h-61l10 78h62c23 0 43 17 46 38c4 19 -9 33 -28 33c-20 0 -37 -14 -40 -33h-111c11 74 81 130 163 130c84 0 137 -60 128 -125
c-5 -34 -24 -62 -54 -81c29 -21 40 -53 35 -87zM685 690h133l-566 -690h-134zM770 270c82 0 135 -59 124 -138s-86 -139 -173 -139s-145 59 -134 138h110c-4 -24 12 -43 37 -43s47 19 51 44c3 26 -13 45 -38 45c-15 0 -33 -8 -41 -18h-110l57 255h253l-13 -97h-156l-12 -56
c13 6 31 9 45 9z" />
    <glyph glyph-name="uni2158" unicode="&#x2158;" horiz-adv-x="964" 
d="M208 276l10 69h-186l11 79l196 266h135l-35 -248h40l-14 -97h-39l-10 -69h-108zM720 690h133l-566 -690h-134zM157 442h74l18 132zM805 270c82 0 135 -59 124 -138s-86 -139 -173 -139s-145 59 -134 138h110c-4 -24 12 -43 37 -43s47 19 51 44c3 26 -13 45 -38 45
c-15 0 -33 -8 -41 -18h-110l57 255h253l-13 -97h-156l-12 -56c13 6 31 9 45 9z" />
    <glyph glyph-name="uni2159" unicode="&#x2159;" horiz-adv-x="800" 
d="M622 690h133l-566 -690h-134zM97 276l40 285l-80 -42l16 113l113 58h77l-58 -414h-108zM658 274c71 -8 116 -66 106 -138c-12 -81 -86 -143 -174 -143c-87 0 -145 62 -133 143c4 34 22 66 40 91l140 187h128zM653 136c3 24 -13 43 -37 43s-45 -19 -49 -43
c-3 -24 13 -42 37 -42s45 18 49 42z" />
    <glyph glyph-name="uni215A" unicode="&#x215a;" horiz-adv-x="866" 
d="M362 408c-11 -79 -86 -139 -173 -139s-145 59 -134 138h110c-4 -24 12 -43 37 -43s47 19 51 44c3 26 -13 45 -38 45c-15 0 -33 -8 -41 -18h-110l57 255h253l-13 -97h-156l-12 -56c13 6 31 9 45 9c82 0 135 -59 124 -138zM688 690h133l-566 -690h-134zM724 274
c71 -8 116 -66 106 -138c-12 -81 -86 -143 -174 -143c-87 0 -145 62 -133 143c4 34 22 66 40 91l140 187h128zM719 136c3 24 -13 43 -37 43s-45 -19 -49 -43c-3 -24 13 -42 37 -42s45 18 49 42z" />
    <glyph glyph-name="uni2150" unicode="&#x2150;" horiz-adv-x="879" 
d="M622 690h133l-566 -690h-134zM97 276l40 285l-80 -42l16 113l113 58h77l-58 -414h-108zM599 414h282l-11 -84l-191 -330h-121l182 313h-155z" />
    <glyph glyph-name="oneeighth" unicode="&#x215b;" horiz-adv-x="847" 
d="M622 690h133l-566 -690h-134zM97 276l40 285l-80 -42l16 113l113 58h77l-58 -414h-108zM825 301c-5 -35 -27 -66 -59 -87c30 -22 45 -56 39 -94c-9 -72 -82 -127 -169 -127c-86 0 -143 55 -133 127c6 39 30 72 65 94c-25 21 -39 52 -34 87c10 68 79 120 162 120
s139 -52 129 -120zM642 285c-2 -18 11 -33 31 -33s38 15 40 33c3 18 -11 32 -31 32s-38 -14 -40 -32zM697 134c3 22 -14 37 -35 37c-23 0 -43 -16 -46 -37c-4 -21 12 -37 35 -37s43 16 46 37z" />
    <glyph glyph-name="threeeighths" unicode="&#x215c;" horiz-adv-x="910" 
d="M343 404c-9 -71 -82 -135 -169 -135c-84 0 -142 59 -130 139h109c-3 -22 12 -39 36 -39s44 17 48 39c3 25 -15 43 -44 43h-61l10 78h62c23 0 43 17 46 38c4 19 -9 33 -28 33c-20 0 -37 -14 -40 -33h-111c11 74 81 130 163 130c84 0 137 -60 128 -125
c-5 -34 -24 -62 -54 -81c29 -21 40 -53 35 -87zM685 690h133l-566 -690h-134zM888 301c-5 -35 -27 -66 -59 -87c30 -22 45 -56 39 -94c-9 -72 -82 -127 -169 -127c-86 0 -143 55 -133 127c6 39 30 72 65 94c-25 21 -39 52 -34 87c10 68 79 120 162 120s139 -52 129 -120z
M705 285c-2 -18 11 -33 31 -33s38 15 40 33c3 18 -11 32 -31 32s-38 -14 -40 -32zM760 134c3 22 -14 37 -35 37c-23 0 -43 -16 -46 -37c-4 -21 12 -37 35 -37s43 16 46 37z" />
    <glyph glyph-name="fiveeighths" unicode="&#x215d;" horiz-adv-x="913" 
d="M362 408c-11 -79 -86 -139 -173 -139s-145 59 -134 138h110c-4 -24 12 -43 37 -43s47 19 51 44c3 26 -13 45 -38 45c-15 0 -33 -8 -41 -18h-110l57 255h253l-13 -97h-156l-12 -56c13 6 31 9 45 9c82 0 135 -59 124 -138zM688 690h133l-566 -690h-134zM891 301
c-5 -35 -27 -66 -59 -87c30 -22 45 -56 39 -94c-9 -72 -82 -127 -169 -127c-86 0 -143 55 -133 127c6 39 30 72 65 94c-25 21 -39 52 -34 87c10 68 79 120 162 120s139 -52 129 -120zM708 285c-2 -18 11 -33 31 -33s38 15 40 33c3 18 -11 32 -31 32s-38 -14 -40 -32z
M763 134c3 22 -14 37 -35 37c-23 0 -43 -16 -46 -37c-4 -21 12 -37 35 -37s43 16 46 37z" />
    <glyph glyph-name="seveneighths" unicode="&#x215e;" horiz-adv-x="838" 
d="M613 690h133l-566 -690h-134zM172 276h-121l182 313h-155l14 101h282l-11 -84zM816 301c-5 -35 -27 -66 -59 -87c30 -22 45 -56 39 -94c-9 -72 -82 -127 -169 -127c-86 0 -143 55 -133 127c6 39 30 72 65 94c-25 21 -39 52 -34 87c10 68 79 120 162 120s139 -52 129 -120
zM633 285c-2 -18 11 -33 31 -33s38 15 40 33c3 18 -11 32 -31 32s-38 -14 -40 -32zM688 134c3 22 -14 37 -35 37c-23 0 -43 -16 -46 -37c-4 -21 12 -37 35 -37s43 16 46 37z" />
    <glyph glyph-name="uni2151" unicode="&#x2151;" horiz-adv-x="845" 
d="M622 690h133l-566 -690h-134zM97 276l40 285l-80 -42l16 113l113 58h77l-58 -414h-108zM695 421c87 0 144 -62 134 -143c-5 -32 -24 -67 -41 -91l-140 -187h-129l107 140c-71 8 -115 65 -105 138c11 81 86 143 174 143zM632 278c-3 -24 12 -43 37 -43c24 0 46 18 49 43
c4 24 -13 42 -37 42c-25 0 -45 -18 -49 -42z" />
    <glyph glyph-name="uni2152" unicode="&#x2152;" horiz-adv-x="1161" 
d="M55 0l567 690h133l-566 -690h-134zM97 276l40 285l-80 -42l16 113l113 58h77l-58 -414h-108zM985 421c98 0 154 -89 136 -214c-17 -125 -98 -214 -196 -214c-96 0 -153 87 -135 214s99 214 195 214zM558 356l113 58h77l-58 -414h-108l40 285l-80 -42zM1010 207
c10 68 -7 110 -40 110s-60 -44 -70 -110c-8 -66 7 -110 40 -110c32 0 61 42 70 110z" />
    <glyph glyph-name="period" unicode="." horiz-adv-x="262" 
d="M94 -10c-58 0 -94 43 -87 100c8 56 58 99 115 99s94 -43 86 -99c-7 -57 -57 -100 -114 -100z" />
    <glyph glyph-name="comma" unicode="," horiz-adv-x="266" 
d="M-56 -145l111 294h171l-157 -294h-125z" />
    <glyph glyph-name="colon" unicode=":" horiz-adv-x="272" 
d="M143 306c-57 0 -94 43 -86 99c8 57 57 100 115 100c57 0 94 -43 86 -100c-8 -56 -57 -99 -115 -99zM99 -10c-58 0 -94 43 -87 100c8 56 58 99 115 99s94 -43 86 -99c-7 -57 -57 -100 -114 -100z" />
    <glyph glyph-name="semicolon" unicode=";" horiz-adv-x="287" 
d="M159 306c-57 0 -95 43 -87 99c8 57 58 100 115 100s94 -43 87 -100c-9 -56 -58 -99 -115 -99zM-57 -145l112 294h170l-156 -294h-126z" />
    <glyph glyph-name="ellipsis" unicode="&#x2026;" horiz-adv-x="821" 
d="M94 -10c-58 0 -94 43 -87 100c8 56 58 99 115 99s94 -43 86 -99c-7 -57 -57 -100 -114 -100zM373 -10c-57 0 -94 43 -86 100c8 56 57 99 114 99c58 0 95 -43 87 -99c-8 -57 -58 -100 -115 -100zM653 -10c-58 0 -94 43 -87 100c8 56 58 99 115 99s94 -43 86 -99
c-7 -57 -57 -100 -114 -100z" />
    <glyph glyph-name="exclam" unicode="!" horiz-adv-x="279" 
d="M68 230l32 290l24 170h154l-24 -170l-50 -290h-136zM102 -10c-56 0 -91 41 -83 96c7 55 55 97 111 97c55 0 91 -42 84 -97c-8 -55 -56 -96 -112 -96z" />
    <glyph glyph-name="exclamdown" unicode="&#xa1;" horiz-adv-x="279" 
d="M150 327c-56 0 -92 42 -84 97c7 55 55 96 111 96s91 -41 83 -96c-7 -55 -55 -97 -110 -97zM2 -180l24 170l50 290h136l-32 -290l-24 -170h-154z" />
    <glyph glyph-name="question" unicode="?" horiz-adv-x="474" 
d="M150 231l3 21c12 87 63 127 105 160c32 25 58 48 64 83c4 33 -17 58 -49 58c-33 0 -62 -25 -66 -58h-159c17 118 122 207 246 207c123 0 203 -89 186 -207c-11 -85 -63 -125 -106 -158c-34 -26 -62 -50 -67 -85l-3 -21h-154zM193 -10c-56 0 -91 41 -83 96
c7 55 55 97 110 97c56 0 92 -42 84 -97c-7 -55 -55 -96 -111 -96z" />
    <glyph glyph-name="questiondown" unicode="&#xbf;" horiz-adv-x="455" 
d="M246 327c-56 0 -92 42 -84 97c7 55 56 96 111 96c56 0 91 -41 83 -96c-7 -55 -54 -97 -110 -97zM173 -192c-124 0 -204 89 -187 207c11 85 63 125 106 158c34 26 62 50 68 85l2 21h154l-3 -21c-12 -87 -63 -127 -105 -160c-31 -25 -58 -48 -63 -83c-5 -33 16 -58 49 -58
c32 0 61 25 65 58h159c-16 -118 -122 -207 -245 -207z" />
    <glyph glyph-name="periodcentered" unicode="&#xb7;" horiz-adv-x="313" 
d="M145 174c-57 0 -94 43 -86 100c7 57 57 100 115 100c57 0 93 -43 86 -100c-8 -57 -57 -100 -115 -100z" />
    <glyph glyph-name="bullet" unicode="&#x2022;" horiz-adv-x="361" 
d="M166 150c-71 0 -117 53 -107 124s71 124 141 124c71 0 118 -53 108 -124s-71 -124 -142 -124z" />
    <glyph glyph-name="asterisk" unicode="*" horiz-adv-x="374" 
d="M309 561l29 -12l51 -29l-56 -77l-52 29l-21 20l1 -31l-9 -59h-89l8 59l10 31l-28 -20l-59 -29l-34 77l59 31l30 10l-27 12l-51 29l56 77l52 -29l21 -20l-1 31l8 59h90l-8 -59l-9 -31l27 20l59 29l34 -77l-59 -30z" />
    <glyph glyph-name="numbersign" unicode="#" horiz-adv-x="769" 
d="M758 402h-140l-51 -114h121l-18 -126h-158l-71 -162h-134l71 162h-130l-71 -162h-136l71 162h-102l18 126h139l50 114h-119l17 126h157l71 162h135l-71 -162h131l71 162h135l-71 -162h102zM433 288l50 114h-131l-49 -114h130z" />
    <glyph glyph-name="slash" unicode="/" horiz-adv-x="539" 
d="M-61 -150l527 900h147l-527 -900h-147z" />
    <glyph glyph-name="backslash" unicode="\" horiz-adv-x="539" 
d="M339 -150l-273 900h147l273 -900h-147z" />
    <glyph glyph-name="exclamdown.case" horiz-adv-x="279" 
d="M175 507c-56 0 -92 42 -83 97c7 55 55 96 110 96c56 0 92 -41 84 -96s-55 -97 -111 -97zM27 0l24 170l50 290h136l-32 -290l-24 -170h-154z" />
    <glyph glyph-name="questiondown.case" horiz-adv-x="495" 
d="M291 507c-56 0 -92 42 -83 97c7 55 55 96 110 96c56 0 92 -41 84 -96s-55 -97 -111 -97zM218 -12c-124 0 -204 89 -187 207c11 85 63 125 106 158c34 26 62 50 68 85l2 21h154l-3 -21c-12 -87 -62 -127 -105 -160c-31 -25 -58 -48 -63 -83c-5 -33 16 -58 49 -58
c32 0 61 25 65 58h159c-16 -118 -122 -207 -245 -207z" />
    <glyph glyph-name="periodcentered.case" horiz-adv-x="313" 
d="M155 245c-57 0 -94 43 -86 100c7 57 57 100 115 100c57 0 93 -43 86 -100c-8 -57 -57 -100 -115 -100z" />
    <glyph glyph-name="bullet.case" horiz-adv-x="361" 
d="M176 221c-71 0 -117 53 -107 124s71 124 141 124c71 0 118 -53 108 -124s-71 -124 -142 -124z" />
    <glyph glyph-name="asterisk.case" horiz-adv-x="394" 
d="M315 531l29 -12l50 -29l-55 -77l-52 29l-21 20l1 -31l-9 -59h-89l8 59l9 30l-27 -19l-59 -29l-34 77l59 31l30 10l-27 12l-51 29l56 77l52 -29l21 -21l-1 32l8 59h90l-8 -59l-9 -31l27 20l59 29l34 -77l-59 -30z" />
    <glyph glyph-name="slash.case" horiz-adv-x="544" 
d="M-53 -105l527 900h147l-527 -900h-147z" />
    <glyph glyph-name="backslash.case" horiz-adv-x="544" 
d="M347 -105l-273 900h147l273 -900h-147z" />
    <glyph glyph-name="parenleft" unicode="(" horiz-adv-x="349" 
d="M145 -190c-70 113 -101 299 -76 470c24 171 107 357 209 470h147c-99 -113 -179 -299 -203 -470c-25 -171 3 -357 70 -470h-147z" />
    <glyph glyph-name="parenright" unicode=")" horiz-adv-x="349" 
d="M-69 -190c98 113 179 299 204 470c24 171 -5 357 -71 470h147c69 -113 101 -299 77 -470c-25 -171 -109 -357 -210 -470h-147z" />
    <glyph glyph-name="braceleft" unicode="{" horiz-adv-x="427" 
d="M363 750h112l-20 -138h-54c-31 0 -56 -22 -60 -54l-27 -191c-5 -38 -33 -71 -72 -86c35 -16 53 -49 48 -87l-27 -192c-5 -32 13 -54 44 -54h54l-19 -138h-112c-87 0 -137 59 -124 147l28 199c5 34 -14 56 -46 56h-39l19 138h39c33 0 57 22 61 56l29 197
c12 88 79 147 166 147z" />
    <glyph glyph-name="braceright" unicode="}" horiz-adv-x="427" 
d="M347 350h39l-20 -138h-39c-32 0 -57 -22 -62 -56l-28 -199c-13 -88 -80 -147 -167 -147h-111l19 138h55c31 0 55 22 60 54l27 192c5 38 33 71 72 87c-35 15 -54 47 -48 86l27 191c4 32 -13 54 -44 54h-55l20 138h111c87 0 138 -59 125 -147l-28 -197
c-4 -34 14 -56 47 -56z" />
    <glyph glyph-name="bracketleft" unicode="[" horiz-adv-x="356" 
d="M385 612h-110l-93 -664h109l-19 -138h-260l133 940h260z" />
    <glyph glyph-name="bracketright" unicode="]" horiz-adv-x="356" 
d="M92 750h260l-133 -940h-260l19 138h110l93 664h-109z" />
    <glyph glyph-name="parenleft.case" horiz-adv-x="369" 
d="M165 -125c-71 113 -101 299 -77 470s107 357 209 470h147c-99 -113 -179 -299 -203 -470s3 -357 71 -470h-147z" />
    <glyph glyph-name="parenright.case" horiz-adv-x="369" 
d="M-49 -125c97 113 179 299 203 470s-5 357 -71 470h147c69 -113 101 -299 77 -470s-109 -357 -209 -470h-147z" />
    <glyph glyph-name="braceleft.case" horiz-adv-x="433" 
d="M372 815h112l-20 -138h-54c-31 0 -56 -22 -60 -54l-26 -191c-6 -38 -34 -71 -73 -86c35 -16 53 -49 48 -87l-27 -192c-5 -32 13 -54 44 -54h54l-18 -138h-112c-87 0 -137 59 -125 147l28 199c5 34 -14 56 -46 56h-39l19 138h39c33 0 57 22 62 56l28 197
c12 88 79 147 166 147z" />
    <glyph glyph-name="braceright.case" horiz-adv-x="433" 
d="M362 415h39l-20 -138h-39c-32 0 -57 -22 -62 -56l-28 -199c-12 -88 -79 -147 -166 -147h-111l18 138h55c31 0 55 22 60 54l27 192c5 38 33 71 72 87c-35 15 -53 47 -47 86l26 191c4 32 -13 54 -44 54h-55l20 138h111c87 0 138 -59 125 -147l-27 -197
c-5 -34 13 -56 46 -56z" />
    <glyph glyph-name="bracketleft.case" horiz-adv-x="372" 
d="M404 677h-110l-93 -664h109l-18 -138h-260l132 940h260z" />
    <glyph glyph-name="bracketright.case" horiz-adv-x="372" 
d="M107 815h260l-132 -940h-260l18 138h110l93 664h-109z" />
    <glyph glyph-name="hyphen" unicode="-" horiz-adv-x="408" 
d="M49 203l20 141h296l-21 -141h-295z" />
    <glyph glyph-name="endash" unicode="&#x2013;" horiz-adv-x="608" 
d="M49 208l19 132h496l-19 -132h-496z" />
    <glyph glyph-name="emdash" unicode="&#x2014;" horiz-adv-x="1068" 
d="M49 208l19 132h956l-19 -132h-956z" />
    <glyph glyph-name="underscore" unicode="_" horiz-adv-x="487" 
d="M-45 -179l17 124h456l-17 -124h-456z" />
    <glyph glyph-name="hyphen.case" horiz-adv-x="408" 
d="M59 275l20 141h296l-20 -141h-296z" />
    <glyph glyph-name="endash.case" horiz-adv-x="608" 
d="M59 280l19 132h496l-19 -132h-496z" />
    <glyph glyph-name="emdash.case" horiz-adv-x="1068" 
d="M59 280l19 132h956l-19 -132h-956z" />
    <glyph glyph-name="quotesinglbase" unicode="&#x201a;" horiz-adv-x="266" 
d="M-56 -137l111 286h171l-156 -286h-126z" />
    <glyph glyph-name="quotedblbase" unicode="&#x201e;" horiz-adv-x="508" 
d="M-56 -137l111 286h171l-156 -286h-126zM186 -137l111 286h170l-156 -286h-125z" />
    <glyph glyph-name="quotedblleft" unicode="&#x201c;" horiz-adv-x="527" 
d="M55 404l156 286h125l-110 -286h-171zM297 404l155 286h125l-110 -286h-170z" />
    <glyph glyph-name="quotedblright" unicode="&#x201d;" horiz-adv-x="527" 
d="M55 404l111 286h170l-155 -286h-126zM297 404l110 286h170l-155 -286h-125z" />
    <glyph glyph-name="quoteleft" unicode="&#x2018;" horiz-adv-x="285" 
d="M55 404l156 286h125l-110 -286h-171z" />
    <glyph glyph-name="quoteright" unicode="&#x2019;" horiz-adv-x="285" 
d="M55 404l111 286h170l-155 -286h-126z" />
    <glyph glyph-name="guillemotleft" unicode="&#xab;" horiz-adv-x="646" 
d="M377 469l-177 -205l119 -205h-171l-119 205l177 205h171zM651 469l-177 -205l119 -205h-171l-118 205l176 205h171z" />
    <glyph glyph-name="guillemotright" unicode="&#xbb;" horiz-adv-x="646" 
d="M232 469l118 -205l-176 -205h-171l178 205l-120 205h171zM506 469l119 -205l-177 -205h-171l178 205l-120 205h171z" />
    <glyph glyph-name="guilsinglleft" unicode="&#x2039;" horiz-adv-x="372" 
d="M377 469l-177 -205l119 -205h-171l-119 205l177 205h171z" />
    <glyph glyph-name="guilsinglright" unicode="&#x203a;" horiz-adv-x="372" 
d="M232 469l118 -205l-176 -205h-171l178 205l-120 205h171z" />
    <glyph glyph-name="quotedbl" unicode="&#x22;" horiz-adv-x="449" 
d="M74 412l30 278h144l-48 -278h-126zM294 412l29 278h145l-49 -278h-125z" />
    <glyph glyph-name="quotesingle" unicode="'" horiz-adv-x="230" 
d="M74 412l30 278h144l-48 -278h-126z" />
    <glyph glyph-name="guillemotleft.case" horiz-adv-x="666" 
d="M399 550l-178 -205l120 -205h-171l-119 205l177 205h171zM673 550l-178 -205l120 -205h-171l-118 205l176 205h171z" />
    <glyph glyph-name="guillemotright.case" horiz-adv-x="666" 
d="M254 550l118 -205l-176 -205h-171l177 205l-119 205h171zM528 550l119 -205l-177 -205h-171l177 205l-119 205h171z" />
    <glyph glyph-name="guilsinglleft.case" horiz-adv-x="392" 
d="M399 550l-178 -205l120 -205h-171l-119 205l177 205h171z" />
    <glyph glyph-name="guilsinglright.case" horiz-adv-x="392" 
d="M254 550l118 -205l-176 -205h-171l177 205l-119 205h171z" />
    <glyph glyph-name="space" unicode=" " horiz-adv-x="220" 
 />
    <glyph glyph-name="uni20B5" unicode="&#x20b5;" horiz-adv-x="807" 
d="M623 393c-5 67 -43 120 -101 144l-55 -384c66 24 119 77 143 144h161c-41 -152 -170 -269 -325 -300l-10 -67h-146l9 66c-167 30 -270 170 -244 349c25 179 167 319 343 349l9 66h146l-9 -67c147 -30 243 -148 240 -300h-161zM214 345c-13 -92 31 -167 107 -195l55 390
c-84 -28 -149 -103 -162 -195z" />
    <glyph glyph-name="cent" unicode="&#xa2;" horiz-adv-x="627" 
d="M453 380c-6 39 -29 69 -64 82l-33 -236c38 13 70 43 87 82h152c-31 -120 -135 -210 -260 -228l-11 -80h-85l11 80c-134 17 -217 125 -197 264c19 139 133 247 272 264l11 82h85l-12 -82c120 -18 198 -108 196 -228h-152zM203 344c-8 -57 19 -104 68 -120l33 240
c-52 -16 -93 -62 -101 -120z" />
    <glyph glyph-name="currency" unicode="&#xa4;" horiz-adv-x="552" 
d="M490 346c-5 -32 -16 -62 -34 -89l51 -60l-100 -89l-57 65c-27 -10 -57 -16 -87 -16s-58 6 -82 16l-76 -65l-77 89l70 61c-10 26 -13 56 -9 88s16 62 34 88l-53 62l101 88l58 -65c27 11 56 17 87 17s59 -6 83 -17l75 66l75 -90l-68 -60c10 -26 13 -56 9 -89zM213 346
c-6 -44 22 -77 65 -77c44 0 82 33 88 77s-22 77 -65 77c-44 0 -82 -34 -88 -77z" />
    <glyph glyph-name="dollar" unicode="$" horiz-adv-x="558" 
d="M545 490h-159c5 30 -12 55 -40 65l-19 -134c5 -1 9 -3 14 -4c99 -28 192 -79 173 -214c-16 -112 -120 -199 -247 -209l-9 -63h-50l9 63c-123 11 -203 100 -187 215h159c-6 -35 15 -64 48 -74l20 142l-12 3c-96 26 -184 85 -166 214c15 108 116 192 237 202l9 64h50
l-9 -64c118 -11 194 -96 179 -206zM239 501c-4 -28 12 -47 41 -62l16 117c-30 -7 -53 -28 -57 -55zM354 194c5 30 -16 50 -50 66l-17 -127c35 8 63 32 67 61z" />
    <glyph glyph-name="Euro" unicode="&#x20ac;" horiz-adv-x="750" 
d="M523 702c93 0 173 -31 229 -80l-23 -165c-47 58 -123 95 -209 95c-88 0 -164 -39 -210 -101h329l-33 -85h-336c-2 -7 -3 -14 -4 -21s-2 -14 -2 -21h326l-32 -85h-278c28 -62 94 -101 182 -101c85 0 172 37 235 95l-23 -165c-70 -49 -159 -80 -253 -80
c-170 0 -291 103 -314 251h-81l33 85h46c0 7 1 14 2 21l3 21h-67l34 85h60c65 148 215 251 386 251z" />
    <glyph glyph-name="florin" unicode="&#x192;" horiz-adv-x="464" 
d="M482 541c-60 0 -100 -28 -117 -84l-14 -43h89l-19 -134h-112l-90 -286c-39 -125 -132 -184 -284 -184l21 149c60 0 100 28 118 84l74 237h-83l19 134h106l29 92c39 125 131 184 284 184z" />
    <glyph glyph-name="franc" unicode="&#x20a3;" horiz-adv-x="506" 
d="M511 544h-229l-16 -114h190l-21 -146h-189l-10 -71h113l-19 -133h-113l-11 -80h-155l11 80h-52l20 133h51l67 477h383z" />
    <glyph glyph-name="lira" unicode="&#x20a4;" horiz-adv-x="586" 
d="M580 486h-156c6 39 -21 66 -59 66c-39 0 -73 -27 -78 -66l-7 -51h183l-11 -85h-184l-6 -42h184l-13 -86h-184l-10 -76h302l-20 -146h-510l21 146h52l10 76h-51l12 86h52l6 42h-52l12 85h52l7 51c17 124 127 216 254 216s210 -92 194 -216z" />
    <glyph glyph-name="peseta" unicode="&#x20a7;" horiz-adv-x="659" 
d="M662 487l-14 -98h-42c-39 -120 -154 -206 -287 -206h-80l-25 -181h-155l54 387h-52l14 98h52l29 205h235c133 0 223 -85 228 -205h43zM290 546l-8 -59h172c-12 36 -45 59 -88 59h-76zM336 329c43 0 82 24 104 60h-172l-8 -60h76z" />
    <glyph glyph-name="uni20B1" unicode="&#x20b1;" horiz-adv-x="659" 
d="M619 450c-1 -5 -1 -10 -2 -15l-2 -14h38l-10 -68h-50c-48 -102 -155 -172 -275 -172h-80l-25 -181h-155l50 353h-52l10 68h51l4 29h-51l9 68h52l24 172h235c120 0 206 -70 225 -172h52l-10 -68h-38zM291 554l-5 -36h150c-18 22 -47 36 -82 36h-63zM272 421h182l3 14
c1 5 1 10 1 15h-182zM320 316c36 0 69 14 94 37h-151l-6 -37h63z" />
    <glyph glyph-name="uni20A8" unicode="&#x20a8;" horiz-adv-x="1036" 
d="M374 690c137 0 227 -99 208 -231c-14 -98 -83 -175 -175 -207l129 -252h-193l-113 236h-12l-33 -236h-155l97 690h247zM423 457c7 50 -24 87 -73 87h-89l-24 -173h89c48 0 90 37 97 86zM1016 362h-146c4 24 -13 44 -40 44c-24 0 -46 -16 -49 -35c-3 -29 28 -45 78 -57
c74 -19 150 -55 135 -158c-15 -107 -113 -168 -221 -168c-115 0 -188 75 -174 167h145c-4 -28 16 -51 47 -51c28 0 53 17 55 39c5 32 -33 47 -74 56c-74 18 -152 57 -138 162c15 105 112 161 213 161c110 0 182 -71 169 -160z" />
    <glyph glyph-name="uni20B9" unicode="&#x20b9;" horiz-adv-x="571" 
d="M473 598c16 -25 25 -54 28 -86h84l-44 -92h-48c-29 -105 -119 -184 -226 -200l183 -220h-207l-183 222l18 137h156c41 0 78 24 96 61h-243l13 92h232c-12 25 -38 40 -70 40h-156l19 138h485l-44 -92h-93z" />
    <glyph glyph-name="sterling" unicode="&#xa3;" horiz-adv-x="586" 
d="M580 486h-156c6 38 -20 67 -59 67s-73 -29 -78 -67l-12 -86h183l-18 -134h-184l-17 -120h302l-20 -146h-509l20 146h52l17 120h-52l19 134h52l12 86c17 123 127 216 254 216s210 -93 194 -216z" />
    <glyph glyph-name="yen" unicode="&#xa5;" horiz-adv-x="651" 
d="M704 690l-256 -381h80l-11 -86h-119l-6 -42h119l-12 -85h-119l-13 -96h-155l14 96h-117l12 85h117l6 42h-117l11 86h80l-149 381h173l106 -293l187 293h169z" />
    <glyph glyph-name="plus" unicode="+" horiz-adv-x="534" 
d="M493 361l-19 -132h-144l-21 -145h-133l21 145h-145l19 132h144l21 145h133l-21 -145h145z" />
    <glyph glyph-name="minus" unicode="&#x2212;" horiz-adv-x="534" 
d="M52 229l19 132h422l-19 -132h-422z" />
    <glyph glyph-name="multiply" unicode="&#xd7;" horiz-adv-x="506" 
d="M470 396l-115 -101l87 -101l-110 -96l-87 101l-115 -101l-82 96l115 101l-87 101l109 96l87 -101l116 101z" />
    <glyph glyph-name="divide" unicode="&#xf7;" horiz-adv-x="534" 
d="M287 401c-43 0 -72 33 -66 76s44 76 88 76c43 0 73 -33 67 -76s-45 -76 -89 -76zM53 236l17 120h422l-17 -120h-422zM236 38c-43 0 -73 33 -66 76c6 43 44 76 88 76c43 0 73 -33 67 -76c-7 -43 -45 -76 -89 -76z" />
    <glyph glyph-name="equal" unicode="=" horiz-adv-x="534" 
d="M67 332l19 131h421l-18 -131h-422zM38 128l19 132h422l-19 -132h-422z" />
    <glyph glyph-name="notequal" unicode="&#x2260;" horiz-adv-x="534" 
d="M489 332h-132l-41 -72h163l-19 -132h-219l-38 -68h-127l38 68h-76l19 132h132l41 72h-163l19 131h218l38 67h127l-38 -67h76z" />
    <glyph glyph-name="greater" unicode="&#x3e;" horiz-adv-x="464" 
d="M95 532l328 -170l-19 -132l-376 -170l21 146l216 90l-190 90z" />
    <glyph glyph-name="less" unicode="&#x3c;" horiz-adv-x="464" 
d="M447 532l-20 -146l-217 -90l191 -90l-21 -146l-328 170l19 132z" />
    <glyph glyph-name="greaterequal" unicode="&#x2265;" horiz-adv-x="464" 
d="M105 601l333 -132l-21 -148l-370 -132l20 145l216 61l-198 60zM23 22l19 131h352l-19 -131h-352z" />
    <glyph glyph-name="lessequal" unicode="&#x2264;" horiz-adv-x="464" 
d="M457 601l-21 -146l-215 -60l198 -61l-20 -145l-334 132l21 148zM23 22l19 131h352l-19 -131h-352z" />
    <glyph glyph-name="plusminus" unicode="&#xb1;" horiz-adv-x="534" 
d="M360 443h145l-19 -132h-145l-15 -111h-134l16 111h-144l19 132h143l16 111h133zM23 20l19 132h421l-18 -132h-422z" />
    <glyph glyph-name="approxequal" unicode="&#x2248;" horiz-adv-x="590" 
d="M392 321c-75 0 -108 46 -145 46c-25 0 -44 -17 -48 -41h-133c15 105 68 186 177 186c76 0 108 -46 145 -46c24 0 44 18 47 42h134c-15 -106 -68 -187 -177 -187zM359 86c-75 0 -108 46 -145 46c-25 0 -44 -18 -48 -42h-133c15 106 68 187 177 187c76 0 108 -46 145 -46
c24 0 45 18 47 41h134c-15 -105 -68 -186 -177 -186z" />
    <glyph glyph-name="asciitilde" unicode="~" horiz-adv-x="590" 
d="M375 204c-75 0 -107 45 -144 45c-25 0 -45 -17 -48 -41h-133c14 106 67 186 177 186c75 0 107 -45 144 -45c24 0 44 17 48 41h134c-16 -105 -69 -186 -178 -186z" />
    <glyph glyph-name="asciicircum" unicode="^" horiz-adv-x="435" 
d="M438 434h-132l-44 135l-82 -135h-132l164 256h133z" />
    <glyph glyph-name="percent" unicode="%" horiz-adv-x="870" 
d="M227 360c-99 0 -164 74 -150 172c13 97 99 170 198 170s163 -73 150 -170c-14 -98 -99 -172 -198 -172zM72 0l597 690h155l-597 -690h-155zM243 478c30 0 56 23 61 54c5 30 -15 53 -46 53c-30 0 -56 -23 -61 -53c-4 -31 15 -54 46 -54zM621 -12c-100 0 -164 74 -150 172
c14 96 99 170 198 170s164 -74 150 -170c-14 -98 -99 -172 -198 -172zM638 105c30 0 56 24 60 55c5 30 -15 52 -45 52c-31 0 -57 -22 -62 -52c-3 -31 16 -55 47 -55z" />
    <glyph glyph-name="perthousand" unicode="&#x2030;" horiz-adv-x="1254" 
d="M227 360c-99 0 -164 74 -150 172c13 97 99 170 198 170s163 -73 150 -170c-14 -98 -99 -172 -198 -172zM72 0l597 690h155l-597 -690h-155zM243 478c30 0 56 23 61 54c5 30 -15 53 -46 53c-30 0 -56 -23 -61 -53c-4 -31 15 -54 46 -54zM621 -12c-100 0 -164 74 -150 172
c14 96 99 170 198 170s164 -74 150 -170c-14 -98 -99 -172 -198 -172zM1004 -12c-99 0 -163 74 -149 172c14 96 99 170 198 170s164 -74 150 -170c-14 -98 -99 -172 -199 -172zM638 105c30 0 56 24 60 55c5 30 -15 52 -45 52c-31 0 -57 -22 -62 -52c-3 -31 16 -55 47 -55z
M1022 105c30 0 56 24 60 55c5 30 -15 52 -46 52c-30 0 -56 -22 -61 -52c-4 -31 16 -55 47 -55z" />
    <glyph glyph-name="plus.case" horiz-adv-x="534" 
d="M500 411l-19 -132h-144l-21 -145h-133l21 145h-145l19 132h144l21 145h133l-21 -145h145z" />
    <glyph glyph-name="arrowup" unicode="&#x2191;" horiz-adv-x="650" 
d="M526 412v-171l-135 137v-300h-132v298l-134 -135v171l201 200z" />
    <glyph glyph-name="uni2197" unicode="&#x2197;" horiz-adv-x="650" 
d="M254 546h283v-284l-121 -117l2 188l-211 -212l-94 93l212 212l-189 -1z" />
    <glyph glyph-name="arrowright" unicode="&#x2192;" horiz-adv-x="650" 
d="M376 561l216 -216l-216 -216h-171l152 150h-299v132h299l-152 150h171z" />
    <glyph glyph-name="uni2198" unicode="&#x2198;" horiz-adv-x="650" 
d="M421 555l121 -117v-300h-299l-119 121l206 -1l-212 212l94 93l211 -212z" />
    <glyph glyph-name="arrowdown" unicode="&#x2193;" horiz-adv-x="650" 
d="M391 313l151 152v-171l-217 -216l-216 216v171l150 -152v299h132v-299z" />
    <glyph glyph-name="uni2199" unicode="&#x2199;" horiz-adv-x="650" 
d="M532 470l-212 -212l206 1l-119 -121h-298v300l120 117l-1 -203l211 211z" />
    <glyph glyph-name="arrowleft" unicode="&#x2190;" horiz-adv-x="650" 
d="M592 411v-132h-299l152 -150h-171l-216 216l216 216h171l-152 -150h299z" />
    <glyph glyph-name="uni2196" unicode="&#x2196;" horiz-adv-x="650" 
d="M532 214l-93 -93l-211 211l1 -203l-120 117v300h298l119 -121l-206 1z" />
    <glyph glyph-name="uni279D" unicode="&#x279d;" horiz-adv-x="1082" 
d="M1008 345l-216 -216v150h-718v132h718v150z" />
    <glyph glyph-name="uni27F5" unicode="&#x27f5;" horiz-adv-x="1082" 
d="M1008 411v-132h-699l152 -150h-171l-216 216l216 216h171l-152 -150h699z" />
    <glyph glyph-name="uni27F6" unicode="&#x27f6;" horiz-adv-x="1082" 
d="M792 561l216 -216l-216 -216h-171l152 150h-699v132h699l-152 150h171z" />
    <glyph glyph-name="uni2639" unicode="&#x2639;" horiz-adv-x="806" 
d="M416 -12c-203 0 -357 154 -357 357s154 357 357 357s357 -154 357 -357s-154 -357 -357 -357zM416 65c158 0 278 121 278 280s-120 280 -278 280s-277 -121 -277 -280s119 -280 277 -280zM297 409c-27 0 -48 21 -48 48s21 48 48 48s48 -21 48 -48s-21 -48 -48 -48z
M535 409c-27 0 -48 21 -48 48s21 48 48 48s48 -21 48 -48s-21 -48 -48 -48zM219 180c0 113 84 197 197 197s197 -84 197 -197h-79c0 69 -51 120 -118 120s-117 -51 -117 -120h-80z" />
    <glyph glyph-name="smileface" unicode="&#x263a;" horiz-adv-x="806" 
d="M416 -12c-203 0 -357 154 -357 357s154 357 357 357s357 -154 357 -357s-154 -357 -357 -357zM416 65c158 0 278 121 278 280s-120 280 -278 280s-277 -121 -277 -280s119 -280 277 -280zM297 409c-27 0 -48 21 -48 48s21 48 48 48s48 -21 48 -48s-21 -48 -48 -48z
M535 409c-27 0 -48 21 -48 48s21 48 48 48s48 -21 48 -48s-21 -48 -48 -48zM416 124c-126 0 -221 95 -221 221h80c0 -82 60 -144 141 -144s142 62 142 144h79c0 -126 -95 -221 -221 -221z" />
    <glyph glyph-name="at" unicode="@" horiz-adv-x="831" 
d="M473 642c210 0 352 -148 324 -347c-17 -122 -90 -205 -196 -205c-55 0 -101 21 -122 57c-28 -37 -69 -58 -120 -58c-99 0 -158 78 -143 179c14 105 97 182 186 182c39 0 70 -15 91 -42l4 30h121l-29 -215c-3 -21 9 -37 32 -37c36 0 65 46 74 111c20 142 -84 248 -235 248
c-160 0 -294 -118 -316 -276c-22 -156 78 -274 239 -274c67 0 131 19 175 49h156c-89 -89 -215 -147 -346 -147c-217 0 -356 161 -326 372c29 211 214 373 431 373zM398 205c38 0 70 28 75 64c5 37 -20 64 -57 64s-71 -27 -76 -64c-4 -36 20 -64 58 -64z" />
    <glyph glyph-name="ampersand" unicode="&#x26;" horiz-adv-x="619" 
d="M599 0h-175l-27 38c-48 -35 -103 -50 -160 -50c-150 0 -236 91 -216 226c13 90 69 145 131 185c-23 47 -35 95 -28 142c13 93 101 161 202 161c102 0 172 -67 159 -160c-11 -79 -76 -127 -147 -167l92 -133c4 10 6 20 8 31l10 70h135l-10 -70c-8 -56 -31 -106 -62 -147z
M257 541c-3 -22 5 -47 20 -75c40 22 69 46 73 77c4 26 -14 45 -40 45c-25 0 -49 -17 -53 -47zM263 120c23 0 46 5 67 14l-116 166c-27 -22 -46 -48 -51 -82c-8 -56 33 -98 100 -98z" />
    <glyph glyph-name="paragraph" unicode="&#xb6;" horiz-adv-x="654" 
d="M651 690l-124 -880h-125l107 756h-65l-107 -756h-125l65 458h-38c-119 0 -198 91 -181 211s121 211 240 211h353z" />
    <glyph glyph-name="section" unicode="&#xa7;" horiz-adv-x="525" 
d="M504 535h-144c4 32 -19 57 -52 57c-32 0 -60 -21 -64 -47c-5 -34 30 -54 90 -68c79 -18 162 -57 146 -166c-7 -52 -37 -94 -79 -122c32 -28 47 -64 40 -116c-15 -109 -119 -168 -226 -168c-118 0 -196 74 -183 168h144c-5 -33 20 -58 55 -58c33 0 61 21 65 48
c5 34 -30 54 -90 68c-79 20 -161 57 -146 166c7 53 37 95 78 123c-31 27 -46 65 -39 115c15 108 118 167 225 167c117 0 194 -74 180 -167zM272 361c-35 -3 -62 -24 -66 -51c-5 -32 20 -51 60 -62c37 3 65 24 69 51c4 31 -19 51 -63 62z" />
    <glyph glyph-name="copyright" unicode="&#xa9;" horiz-adv-x="798" 
d="M361 -12c-203 0 -335 154 -306 357c28 203 204 357 407 357s335 -154 307 -357c-29 -203 -205 -357 -408 -357zM375 85c145 0 272 112 293 260s-75 260 -220 260c-144 0 -271 -112 -292 -260s75 -260 219 -260zM387 161c-106 0 -173 79 -159 184c15 105 105 184 210 184
c96 0 162 -65 160 -157h-116c-5 28 -28 46 -60 46c-41 0 -74 -33 -80 -73s19 -73 60 -73c31 0 59 18 72 46h117c-25 -92 -109 -157 -204 -157z" />
    <glyph glyph-name="registered" unicode="&#xae;" horiz-adv-x="416" 
d="M272 702c105 0 173 -80 158 -186s-105 -185 -211 -185s-175 79 -160 185s107 186 213 186zM376 516c11 77 -37 135 -112 135s-139 -58 -151 -135c-10 -76 38 -133 114 -133c74 0 138 57 149 133zM269 616c36 0 60 -28 55 -64c-3 -25 -19 -45 -39 -56l28 -65h-56l-21 57
h-4l-8 -57h-49l25 185h69zM244 571l-6 -39h15c11 0 21 8 23 20c1 11 -6 19 -17 19h-15z" />
    <glyph glyph-name="trademark" unicode="&#x2122;" horiz-adv-x="649" 
d="M296 690l-11 -74h-74l-31 -224h-78l31 224h-74l11 74h226zM568 690h99l-41 -298h-78l23 164l-83 -164h-53l-37 166l-24 -166h-78l42 298h102l40 -178z" />
    <glyph glyph-name="degree" unicode="&#xb0;" horiz-adv-x="386" 
d="M210 378c-94 0 -155 69 -142 163c12 91 94 161 188 161s155 -70 143 -161c-13 -94 -95 -163 -189 -163zM226 491c28 0 52 22 56 50c3 27 -14 48 -42 48s-52 -21 -55 -48c-4 -28 14 -50 41 -50z" />
    <glyph glyph-name="bar" unicode="|" horiz-adv-x="305" 
d="M23 -190l133 940h133l-133 -940h-133z" />
    <glyph glyph-name="brokenbar" unicode="&#xa6;" horiz-adv-x="305" 
d="M98 340l58 410h133l-58 -410h-133zM23 -190l58 410h133l-58 -410h-133z" />
    <glyph glyph-name="dagger" unicode="&#x2020;" horiz-adv-x="494" 
d="M474 510l-19 -131h-124l-80 -569h-134l80 569h-124l19 131h124l25 180h134l-25 -180h124z" />
    <glyph glyph-name="daggerdbl" unicode="&#x2021;" horiz-adv-x="494" 
d="M455 379h-124l-33 -238h124l-18 -131h-125l-28 -200h-134l28 200h-123l18 131h124l33 238h-124l19 131h124l25 180h134l-25 -180h124z" />
    <glyph glyph-name="uni2116" unicode="&#x2116;" horiz-adv-x="1140" 
d="M979 702c109 0 180 -82 165 -189s-109 -189 -218 -189c-110 0 -181 82 -166 189s109 189 219 189zM570 690h155l-97 -690h-157l-227 422l-59 -422h-155l97 690h156l228 -422zM1019 513c5 39 -20 67 -57 67c-38 0 -71 -28 -76 -67c-6 -39 19 -67 57 -67c37 0 70 28 76 67z
M723 141l19 132h353l-18 -132h-354z" />
    <glyph glyph-name="at.case" horiz-adv-x="830" 
d="M484 717c210 0 352 -148 324 -347c-17 -122 -90 -205 -196 -205c-55 0 -101 21 -122 57c-28 -37 -69 -58 -120 -58c-99 0 -158 78 -143 179c14 105 97 182 186 182c39 0 70 -15 91 -42l4 30h121l-29 -215c-3 -21 9 -37 32 -37c36 0 65 46 74 111c20 142 -84 248 -235 248
c-160 0 -294 -118 -316 -276c-22 -156 78 -274 239 -274c67 0 131 19 175 49h156c-89 -89 -215 -147 -346 -147c-217 0 -356 161 -326 372c29 211 214 373 431 373zM409 280c38 0 70 28 75 64c5 37 -20 64 -57 64s-71 -27 -76 -64c-4 -36 20 -64 58 -64z" />
    <glyph glyph-name="uni02BC" unicode="&#x2bc;" horiz-adv-x="153" 
d="M33 490l53 230h132l-75 -230h-110z" />
    <glyph glyph-name="uni0308" unicode="&#x308;" horiz-adv-x="0" 
d="M-257 558c-46 0 -76 35 -70 81s47 80 93 80s76 -34 69 -80c-6 -46 -46 -81 -92 -81zM-38 558c-46 0 -76 35 -70 81s47 80 93 80s76 -34 69 -80c-6 -46 -46 -81 -92 -81z" />
    <glyph glyph-name="uni0307" unicode="&#x307;" horiz-adv-x="0" 
d="M-42 558c-48 0 -80 36 -73 85c6 48 48 84 97 84c48 0 80 -36 73 -84c-7 -49 -49 -85 -97 -85z" />
    <glyph glyph-name="gravecomb" unicode="&#x300;" horiz-adv-x="0" 
d="M-110 562l-109 148h183l79 -148h-153z" />
    <glyph glyph-name="acutecomb" unicode="&#x301;" horiz-adv-x="0" 
d="M-240 562l121 148h183l-151 -148h-153z" />
    <glyph glyph-name="uni030B" unicode="&#x30b;" horiz-adv-x="0" 
d="M-425 562l107 148h158l-124 -148h-141zM-201 562l106 148h159l-125 -148h-140z" />
    <glyph glyph-name="caroncomb.alt" horiz-adv-x="0" 
d="M-120 490l53 230h132l-75 -230h-110z" />
    <glyph glyph-name="uni0302" unicode="&#x302;" horiz-adv-x="0" 
d="M44 562h-137l-40 69l-60 -69h-137l120 148h175z" />
    <glyph glyph-name="uni030C" unicode="&#x30c;" horiz-adv-x="0" 
d="M-73 710h137l-119 -148h-176l-78 148h137l40 -69z" />
    <glyph glyph-name="uni0306" unicode="&#x306;" horiz-adv-x="0" 
d="M-123 552c-94 0 -156 68 -143 157h113c-5 -31 14 -53 44 -53s56 22 60 53h113c-13 -89 -93 -157 -187 -157z" />
    <glyph glyph-name="uni030A" unicode="&#x30a;" horiz-adv-x="0" 
d="M-66 551c-61 0 -102 45 -94 105c9 60 62 105 123 105s102 -45 94 -105c-9 -60 -62 -105 -123 -105zM-56 623c18 0 34 14 37 33c2 19 -10 33 -28 33s-34 -14 -37 -33c-2 -19 10 -33 28 -33z" />
    <glyph glyph-name="tildecomb" unicode="&#x303;" horiz-adv-x="0" 
d="M-75 568c-56 0 -74 37 -105 37c-20 0 -37 -16 -39 -35h-103c12 84 61 150 139 150c56 0 75 -37 107 -37c19 0 36 15 38 35h102c-11 -86 -60 -150 -139 -150z" />
    <glyph glyph-name="uni0304" unicode="&#x304;" horiz-adv-x="0" 
d="M-229 571l17 123h273l-17 -123h-273z" />
    <glyph glyph-name="uni030F" unicode="&#x30f;" horiz-adv-x="0" 
d="M-321 562l-83 148h158l66 -148h-141zM-97 562l-84 148h159l65 -148h-140z" />
    <glyph glyph-name="uni0311" unicode="&#x311;" horiz-adv-x="0" 
d="M-287 560c13 90 93 157 187 157s155 -67 143 -157h-113c5 31 -15 53 -45 53s-55 -22 -60 -53h-112z" />
    <glyph glyph-name="uni0312" unicode="&#x312;" horiz-adv-x="0" 
d="M-150 560l97 176h120l-67 -176h-150z" />
    <glyph glyph-name="dotbelowcomb" unicode="&#x323;" horiz-adv-x="0" 
d="M-151 -217c-49 0 -80 36 -74 84c7 49 49 85 97 85c49 0 81 -36 74 -85c-7 -48 -49 -84 -97 -84z" />
    <glyph glyph-name="uni0326" unicode="&#x326;" horiz-adv-x="0" 
d="M-260 -227l67 175h150l-97 -175h-120z" />
    <glyph glyph-name="uni0327" unicode="&#x327;" horiz-adv-x="0" 
d="M-133 -28c53 -6 86 -51 78 -108c-9 -64 -69 -114 -140 -114s-117 50 -108 114h87c-3 -20 13 -35 33 -35s38 15 41 35s-13 35 -32 35c-13 0 -25 -7 -31 -13l-76 36l74 78v2h101v-2z" />
    <glyph glyph-name="uni0328" unicode="&#x328;" horiz-adv-x="0" 
d="M-165 -245c-74 0 -123 49 -114 114c9 59 62 111 128 134h110l1 -3c-83 -34 -114 -68 -119 -98c-4 -29 18 -42 40 -42c21 0 48 10 67 24l-14 -103c-23 -15 -65 -26 -99 -26z" />
    <glyph glyph-name="uni0335" unicode="&#x335;" horiz-adv-x="0" 
d="M-316 222l14 105h312l-15 -105h-311z" />
    <glyph glyph-name="uni0336" unicode="&#x336;" horiz-adv-x="0" 
d="M-700 221l14 106h696l-15 -106h-695z" />
    <glyph glyph-name="uni0337" unicode="&#x337;" horiz-adv-x="0" 
d="M-591 0l524 510h103l-524 -510h-103z" />
    <glyph glyph-name="uni0338" unicode="&#x338;" horiz-adv-x="0" 
d="M-754 0l687 690h128l-687 -690h-128z" />
    <glyph glyph-name="acute" unicode="&#xb4;" horiz-adv-x="283" 
d="M43 562l121 148h183l-151 -148h-153z" />
    <glyph glyph-name="breve" unicode="&#x2d8;" horiz-adv-x="330" 
d="M207 552c-94 0 -156 68 -143 157h113c-5 -31 14 -53 44 -53s56 22 60 53h113c-13 -89 -93 -157 -187 -157z" />
    <glyph glyph-name="caron" unicode="&#x2c7;" horiz-adv-x="373" 
d="M300 710h137l-119 -148h-176l-78 148h137l40 -69z" />
    <glyph glyph-name="cedilla" unicode="&#xb8;" horiz-adv-x="248" 
d="M115 -28c53 -6 86 -51 78 -108c-9 -64 -69 -114 -140 -114s-117 50 -108 114h87c-3 -20 13 -35 33 -35s38 15 41 35s-13 35 -32 35c-13 0 -25 -7 -31 -13l-76 36l74 78v2h101v-2z" />
    <glyph glyph-name="circumflex" unicode="&#x2c6;" horiz-adv-x="373" 
d="M417 562h-137l-40 69l-60 -69h-137l120 148h175z" />
    <glyph glyph-name="dieresis" unicode="&#xa8;" horiz-adv-x="381" 
d="M124 558c-46 0 -76 35 -70 81s47 80 93 80s76 -34 69 -80c-6 -46 -46 -81 -92 -81zM343 558c-46 0 -76 35 -70 81s47 80 93 80s76 -34 69 -80c-6 -46 -46 -81 -92 -81z" />
    <glyph glyph-name="dotaccent" unicode="&#x2d9;" horiz-adv-x="170" 
d="M128 558c-48 0 -80 36 -73 85c6 48 48 84 97 84c48 0 80 -36 73 -84c-7 -49 -49 -85 -97 -85z" />
    <glyph glyph-name="grave" unicode="`" horiz-adv-x="283" 
d="M173 562l-109 148h183l79 -148h-153z" />
    <glyph glyph-name="hungarumlaut" unicode="&#x2dd;" horiz-adv-x="468" 
d="M43 562l107 148h158l-124 -148h-141zM267 562l106 148h159l-125 -148h-140z" />
    <glyph glyph-name="macron" unicode="&#xaf;" horiz-adv-x="274" 
d="M45 571l17 123h273l-17 -123h-273z" />
    <glyph glyph-name="ogonek" unicode="&#x2db;" horiz-adv-x="228" 
d="M59 -245c-74 0 -123 49 -114 114c9 59 62 111 128 134h110l1 -3c-83 -34 -114 -68 -119 -98c-4 -29 18 -42 40 -42c21 0 48 10 67 24l-14 -103c-23 -15 -65 -26 -99 -26z" />
    <glyph glyph-name="ring" unicode="&#x2da;" horiz-adv-x="216" 
d="M150 551c-61 0 -102 45 -94 105c9 60 62 105 123 105s102 -45 94 -105c-9 -60 -62 -105 -123 -105zM160 623c18 0 34 14 37 33c2 19 -10 33 -28 33s-34 -14 -37 -33c-2 -19 10 -33 28 -33z" />
    <glyph glyph-name="tilde" unicode="&#x2dc;" horiz-adv-x="366" 
d="M291 568c-56 0 -74 37 -105 37c-20 0 -37 -16 -39 -35h-103c12 84 61 150 139 150c56 0 75 -37 107 -37c19 0 36 15 38 35h102c-11 -86 -60 -150 -139 -150z" />
    <glyph glyph-name="caron.alt" horiz-adv-x="153" 
d="M33 490l53 230h132l-75 -230h-110z" />
    </font>
</defs>
</svg>
